<?xml version="1.0" encoding="utf-8"?>
<!-- Generator: Adobe Illustrator 21.1.0, SVG Export Plug-In . SVG Version: 6.00 Build 0)  -->
<svg version="1.1" id="Ebene_1" xmlns="http://www.w3.org/2000/svg" xmlns:xlink="http://www.w3.org/1999/xlink" x="0px" y="0px"
	 viewBox="0 0 200 200" enable-background="new 0 0 200 200" xml:space="preserve">
<rect x="0.333" y="0.333" fill="#FFFFFF" width="200" height="200.667"/>
<g>
	<g>
		<path fill="#4D4D4D" d="M64.665,15.141V9.604h0.616v5.536H64.665z"/>
		<path fill="#4D4D4D" d="M67.129,15.141h-0.6v-4h0.592v0.28c0.432-0.24,0.846-0.36,1.24-0.36c0.533,0,0.892,0.145,1.076,0.432
			c0.184,0.288,0.275,0.801,0.275,1.536v2.112h-0.592v-2.096c0-0.555-0.055-0.935-0.164-1.141c-0.109-0.205-0.343-0.308-0.7-0.308
			c-0.171,0-0.351,0.025-0.54,0.076s-0.334,0.1-0.436,0.147l-0.152,0.072V15.141z"/>
		<path fill="#4D4D4D" d="M70.409,11.141h0.64l0.937,3.48h0.296l0.968-3.48h0.616l-1.128,4h-1.2L70.409,11.141z"/>
		<path fill="#4D4D4D" d="M77.281,14.645l0.232-0.023l0.016,0.472c-0.608,0.085-1.128,0.128-1.56,0.128
			c-0.576,0-0.984-0.167-1.225-0.5s-0.359-0.853-0.359-1.556c0-1.403,0.557-2.104,1.672-2.104c0.538,0,0.941,0.15,1.208,0.452
			s0.399,0.774,0.399,1.42l-0.031,0.456h-2.641c0,0.442,0.08,0.771,0.24,0.984c0.16,0.213,0.438,0.319,0.836,0.319
			S76.87,14.677,77.281,14.645z M77.065,12.908c0-0.49-0.079-0.837-0.236-1.04c-0.157-0.202-0.413-0.304-0.768-0.304
			s-0.621,0.106-0.8,0.32c-0.179,0.213-0.271,0.555-0.276,1.023H77.065z"/>
		<path fill="#4D4D4D" d="M79.857,11.597c-0.581,0-0.872,0.203-0.872,0.608c0,0.187,0.066,0.318,0.2,0.396
			c0.133,0.077,0.438,0.157,0.912,0.24s0.811,0.198,1.008,0.348s0.296,0.43,0.296,0.84c0,0.411-0.132,0.712-0.396,0.904
			c-0.265,0.192-0.649,0.288-1.156,0.288c-0.331,0-0.721-0.037-1.168-0.112l-0.24-0.04l0.032-0.52
			c0.607,0.091,1.066,0.136,1.376,0.136c0.309,0,0.545-0.049,0.708-0.147c0.162-0.099,0.244-0.265,0.244-0.496
			c0-0.232-0.069-0.39-0.208-0.473c-0.139-0.082-0.443-0.161-0.912-0.235c-0.47-0.075-0.803-0.185-1-0.328
			c-0.197-0.145-0.296-0.411-0.296-0.8c0-0.39,0.137-0.678,0.412-0.864c0.274-0.187,0.617-0.28,1.027-0.28
			c0.325,0,0.733,0.037,1.225,0.112l0.224,0.04l-0.016,0.512C80.665,11.64,80.198,11.597,79.857,11.597z"/>
		<path fill="#4D4D4D" d="M84.394,11.66h-1.272v1.912c0,0.459,0.033,0.761,0.1,0.904c0.067,0.145,0.226,0.216,0.477,0.216
			l0.712-0.048l0.04,0.496c-0.357,0.059-0.63,0.088-0.816,0.088c-0.416,0-0.704-0.102-0.863-0.304c-0.16-0.203-0.24-0.59-0.24-1.16
			V11.66h-0.568v-0.52h0.568V9.917h0.592v1.224h1.272V11.66z"/>
		<path fill="#4D4D4D" d="M85.129,10.236V9.541h0.6v0.695H85.129z M85.129,15.141v-4h0.6v4H85.129z"/>
		<path fill="#4D4D4D" d="M88.953,11.66h-1.272v1.912c0,0.459,0.033,0.761,0.1,0.904c0.067,0.145,0.226,0.216,0.477,0.216
			l0.712-0.048l0.04,0.496c-0.357,0.059-0.63,0.088-0.816,0.088c-0.416,0-0.704-0.102-0.863-0.304c-0.16-0.203-0.24-0.59-0.24-1.16
			V11.66h-0.568v-0.52h0.568V9.917h0.592v1.224h1.272V11.66z"/>
		<path fill="#4D4D4D" d="M89.689,10.236V9.541h0.6v0.695H89.689z M89.689,15.141v-4h0.6v4H89.689z"/>
		<path fill="#4D4D4D" d="M91.266,13.133c0-0.73,0.13-1.259,0.392-1.584s0.702-0.488,1.324-0.488c0.621,0,1.062,0.163,1.319,0.488
			c0.259,0.325,0.389,0.854,0.389,1.584s-0.123,1.261-0.368,1.592s-0.693,0.496-1.344,0.496c-0.651,0-1.099-0.165-1.345-0.496
			C91.388,14.394,91.266,13.863,91.266,13.133z M91.881,13.121c0,0.584,0.071,0.993,0.212,1.228
			c0.142,0.234,0.438,0.352,0.889,0.352c0.45,0,0.745-0.115,0.884-0.348c0.139-0.231,0.208-0.642,0.208-1.228
			c0-0.587-0.077-0.991-0.232-1.212c-0.154-0.222-0.441-0.332-0.859-0.332c-0.419,0-0.707,0.11-0.864,0.332
			C91.96,12.134,91.881,12.537,91.881,13.121z"/>
		<path fill="#4D4D4D" d="M96.265,15.141h-0.6v-4h0.592v0.28c0.432-0.24,0.846-0.36,1.24-0.36c0.533,0,0.892,0.145,1.076,0.432
			c0.184,0.288,0.275,0.801,0.275,1.536v2.112h-0.592v-2.096c0-0.555-0.055-0.935-0.164-1.141c-0.109-0.205-0.343-0.308-0.7-0.308
			c-0.171,0-0.351,0.025-0.54,0.076s-0.334,0.1-0.436,0.147l-0.152,0.072V15.141z"/>
		<path fill="#4D4D4D" d="M101.721,10.236V9.541h0.6v0.695H101.721z M101.721,15.141v-4h0.6v4H101.721z"/>
		<path fill="#4D4D4D" d="M104.072,15.141h-0.6v-4h0.592v0.28c0.432-0.24,0.846-0.36,1.24-0.36c0.533,0,0.892,0.145,1.076,0.432
			c0.184,0.288,0.275,0.801,0.275,1.536v2.112h-0.592v-2.096c0-0.555-0.055-0.935-0.164-1.141c-0.109-0.205-0.343-0.308-0.7-0.308
			c-0.171,0-0.351,0.025-0.54,0.076s-0.334,0.1-0.436,0.147l-0.152,0.072V15.141z"/>
		<path fill="#4D4D4D" d="M112.064,9.86v5.28h-0.616v-4.592l-1.36,0.896l-0.279-0.464l1.68-1.12H112.064z"/>
		<path fill="#4D4D4D" d="M117.36,15.141h-3.376v-0.52l1.544-1.624c0.267-0.277,0.462-0.488,0.584-0.633
			c0.123-0.144,0.233-0.314,0.332-0.512s0.148-0.395,0.148-0.592c0-0.342-0.094-0.581-0.28-0.72s-0.478-0.208-0.872-0.208
			c-0.347,0-0.733,0.045-1.16,0.136l-0.208,0.04l-0.048-0.512c0.507-0.145,1.029-0.217,1.568-0.217c0.538,0,0.945,0.113,1.22,0.341
			c0.274,0.227,0.412,0.585,0.412,1.075c0,0.374-0.083,0.699-0.248,0.977s-0.451,0.61-0.855,1l-1.408,1.432h2.647V15.141z"/>
		<path fill="#4D4D4D" d="M66.105,26.62c-0.64,0-1.087-0.087-1.34-0.26c-0.254-0.174-0.38-0.489-0.38-0.948
			c0-0.219,0.048-0.396,0.144-0.532c0.096-0.136,0.259-0.289,0.488-0.46c-0.149-0.101-0.225-0.285-0.225-0.552
			c0-0.091,0.067-0.259,0.2-0.504l0.072-0.128c-0.422-0.192-0.632-0.595-0.632-1.208c0-0.912,0.498-1.368,1.496-1.368
			c0.256,0,0.493,0.026,0.712,0.08l0.12,0.024l1.184-0.032v0.512l-0.76-0.016c0.176,0.176,0.264,0.442,0.264,0.8
			c0,0.501-0.124,0.852-0.372,1.052s-0.639,0.3-1.172,0.3c-0.144,0-0.274-0.011-0.392-0.031c-0.097,0.234-0.145,0.387-0.145,0.456
			c0,0.165,0.051,0.268,0.152,0.308s0.408,0.06,0.92,0.06s0.88,0.08,1.104,0.24c0.225,0.16,0.337,0.472,0.337,0.937
			C67.882,26.196,67.289,26.62,66.105,26.62z M64.978,25.364c0,0.282,0.078,0.479,0.235,0.588s0.448,0.164,0.872,0.164
			c0.425,0,0.729-0.059,0.912-0.176c0.185-0.117,0.276-0.313,0.276-0.588c0-0.275-0.066-0.452-0.2-0.532
			c-0.133-0.08-0.395-0.12-0.784-0.12l-0.863-0.04c-0.177,0.128-0.295,0.24-0.356,0.336S64.978,25.215,64.978,25.364z
			 M65.033,22.028c0,0.314,0.07,0.539,0.212,0.672c0.142,0.134,0.375,0.2,0.7,0.2s0.558-0.066,0.696-0.2
			c0.139-0.133,0.208-0.358,0.208-0.676s-0.069-0.543-0.208-0.676c-0.139-0.134-0.371-0.2-0.696-0.2s-0.559,0.067-0.7,0.204
			C65.104,21.488,65.033,21.714,65.033,22.028z"/>
		<path fill="#4D4D4D" d="M68.722,24.74v-5.744h0.6v5.744H68.722z"/>
		<path fill="#4D4D4D" d="M73.241,24.244l0.232-0.023l0.016,0.472c-0.608,0.085-1.128,0.128-1.56,0.128
			c-0.576,0-0.984-0.167-1.225-0.5s-0.359-0.853-0.359-1.556c0-1.403,0.557-2.104,1.672-2.104c0.538,0,0.941,0.15,1.208,0.452
			s0.399,0.774,0.399,1.42l-0.031,0.456h-2.641c0,0.442,0.08,0.771,0.24,0.984c0.16,0.213,0.438,0.319,0.836,0.319
			S72.83,24.276,73.241,24.244z M73.025,22.508c0-0.49-0.079-0.837-0.236-1.04c-0.157-0.202-0.413-0.304-0.768-0.304
			s-0.621,0.106-0.8,0.32c-0.179,0.213-0.271,0.555-0.276,1.023H73.025z"/>
		<path fill="#4D4D4D" d="M74.562,19.836v-0.695h0.6v0.695H74.562z M74.562,24.74v-4h0.6v4H74.562z"/>
		<path fill="#4D4D4D" d="M77.81,20.66c0.176,0,0.475,0.032,0.896,0.096l0.192,0.024l-0.024,0.488
			c-0.427-0.048-0.741-0.072-0.943-0.072c-0.454,0-0.762,0.108-0.925,0.324c-0.162,0.216-0.243,0.616-0.243,1.2
			s0.075,0.99,0.228,1.22s0.468,0.344,0.948,0.344l0.943-0.072l0.024,0.496c-0.496,0.075-0.867,0.112-1.112,0.112
			c-0.624,0-1.055-0.16-1.292-0.48c-0.237-0.319-0.355-0.859-0.355-1.619c0-0.761,0.128-1.294,0.384-1.601S77.212,20.66,77.81,20.66
			z"/>
		<path fill="#4D4D4D" d="M80.4,24.74h-0.6v-5.744h0.6v1.968c0.427-0.202,0.838-0.304,1.232-0.304c0.533,0,0.892,0.145,1.076,0.432
			c0.184,0.288,0.275,0.801,0.275,1.536v2.112h-0.6v-2.096c0-0.555-0.055-0.935-0.164-1.141c-0.109-0.205-0.34-0.308-0.692-0.308
			c-0.336,0-0.661,0.062-0.976,0.184L80.4,21.437V24.74z"/>
		<path fill="#4D4D4D" d="M86.816,24.244l0.232-0.023l0.016,0.472c-0.608,0.085-1.128,0.128-1.56,0.128
			c-0.576,0-0.984-0.167-1.225-0.5s-0.359-0.853-0.359-1.556c0-1.403,0.557-2.104,1.672-2.104c0.538,0,0.941,0.15,1.208,0.452
			s0.399,0.774,0.399,1.42l-0.031,0.456h-2.641c0,0.442,0.08,0.771,0.24,0.984c0.16,0.213,0.438,0.319,0.836,0.319
			S86.405,24.276,86.816,24.244z M86.601,22.508c0-0.49-0.079-0.837-0.236-1.04c-0.157-0.202-0.413-0.304-0.768-0.304
			s-0.621,0.106-0.8,0.32c-0.179,0.213-0.271,0.555-0.276,1.023H86.601z"/>
		<path fill="#4D4D4D" d="M89.424,19.756v-0.552h4v0.552h-1.688v4.984h-0.608v-4.984H89.424z"/>
		<path fill="#4D4D4D" d="M96.097,24.244l0.232-0.023l0.016,0.472c-0.608,0.085-1.128,0.128-1.56,0.128
			c-0.576,0-0.984-0.167-1.225-0.5s-0.359-0.853-0.359-1.556c0-1.403,0.557-2.104,1.672-2.104c0.538,0,0.941,0.15,1.208,0.452
			s0.399,0.774,0.399,1.42l-0.031,0.456h-2.641c0,0.442,0.08,0.771,0.24,0.984c0.16,0.213,0.438,0.319,0.836,0.319
			S95.686,24.276,96.097,24.244z M95.881,22.508c0-0.49-0.079-0.837-0.236-1.04c-0.157-0.202-0.413-0.304-0.768-0.304
			s-0.621,0.106-0.8,0.32c-0.179,0.213-0.271,0.555-0.276,1.023H95.881z"/>
		<path fill="#4D4D4D" d="M97.417,19.836v-0.695h0.6v0.695H97.417z M97.417,24.74v-4h0.6v4H97.417z"/>
		<path fill="#4D4D4D" d="M99.217,24.74v-5.744h0.6v5.744H99.217z"/>
		<path fill="#4D4D4D" d="M103.736,24.244l0.232-0.023l0.016,0.472c-0.608,0.085-1.128,0.128-1.56,0.128
			c-0.576,0-0.984-0.167-1.225-0.5s-0.359-0.853-0.359-1.556c0-1.403,0.557-2.104,1.672-2.104c0.538,0,0.941,0.15,1.208,0.452
			s0.399,0.774,0.399,1.42l-0.031,0.456h-2.641c0,0.442,0.08,0.771,0.24,0.984c0.16,0.213,0.438,0.319,0.836,0.319
			S103.325,24.276,103.736,24.244z M103.521,22.508c0-0.49-0.079-0.837-0.236-1.04c-0.157-0.202-0.413-0.304-0.768-0.304
			s-0.621,0.106-0.8,0.32c-0.179,0.213-0.271,0.555-0.276,1.023H103.521z"/>
	</g>
</g>
<g>
	<g>
		<path fill="#4D4D4D" d="M143.665,68.641v-5.536h3.368v0.544h-2.752v1.912h2.272v0.536h-2.272v2h2.752v0.544H143.665z"/>
		<path fill="#4D4D4D" d="M148.585,68.641h-0.6v-4h0.592v0.28c0.432-0.24,0.846-0.36,1.24-0.36c0.533,0,0.892,0.145,1.076,0.432
			c0.184,0.288,0.275,0.801,0.275,1.536v2.112h-0.592v-2.096c0-0.555-0.055-0.935-0.164-1.141c-0.109-0.205-0.343-0.308-0.7-0.308
			c-0.171,0-0.351,0.025-0.54,0.076s-0.334,0.1-0.436,0.147l-0.152,0.072V68.641z"/>
		<path fill="#4D4D4D" d="M154.33,65.16h-1.272v1.912c0,0.459,0.033,0.761,0.1,0.904c0.067,0.145,0.226,0.216,0.477,0.216
			l0.712-0.048l0.04,0.496c-0.357,0.059-0.63,0.088-0.816,0.088c-0.416,0-0.704-0.102-0.863-0.304c-0.16-0.203-0.24-0.59-0.24-1.16
			V65.16h-0.568v-0.52h0.568v-1.224h0.592v1.224h1.272V65.16z"/>
		<path fill="#4D4D4D" d="M154.737,64.641h0.6l0.809,3.48h0.128l0.952-3.4h0.624l0.951,3.4h0.137l0.8-3.48h0.6l-0.951,4h-1
			l-0.849-3.128l-0.848,3.128h-1L154.737,64.641z"/>
		<path fill="#4D4D4D" d="M161.161,63.736v-0.695h0.6v0.695H161.161z M161.161,68.641v-4h0.6v4H161.161z"/>
		<path fill="#4D4D4D" d="M164.409,64.561c0.176,0,0.475,0.032,0.896,0.096l0.192,0.024l-0.024,0.488
			c-0.427-0.048-0.741-0.072-0.943-0.072c-0.454,0-0.762,0.108-0.925,0.324c-0.162,0.216-0.243,0.616-0.243,1.2
			s0.075,0.99,0.228,1.22s0.468,0.344,0.948,0.344l0.943-0.072l0.024,0.496c-0.496,0.075-0.867,0.112-1.112,0.112
			c-0.624,0-1.055-0.16-1.292-0.48c-0.237-0.319-0.355-0.859-0.355-1.619c0-0.761,0.128-1.294,0.384-1.601
			S163.812,64.561,164.409,64.561z"/>
		<path fill="#4D4D4D" d="M167.001,68.641h-0.6v-5.744h0.6v3.393l0.624-0.032l1.145-1.616h0.68l-1.304,1.84l1.359,2.16h-0.68
			l-1.192-1.856l-0.632,0.024V68.641z"/>
		<path fill="#4D4D4D" d="M170.281,68.641v-5.744h0.6v5.744H170.281z"/>
		<path fill="#4D4D4D" d="M174.577,64.641h0.6v4h-0.6v-0.28c-0.4,0.24-0.795,0.36-1.185,0.36c-0.544,0-0.905-0.142-1.084-0.424
			c-0.179-0.283-0.268-0.806-0.268-1.568v-2.088h0.6v2.08c0,0.581,0.051,0.971,0.152,1.168s0.33,0.296,0.688,0.296
			c0.177,0,0.355-0.025,0.536-0.076c0.182-0.051,0.32-0.1,0.416-0.147l0.145-0.072V64.641z"/>
		<path fill="#4D4D4D" d="M176.929,68.641h-0.6v-4h0.592v0.28c0.432-0.24,0.846-0.36,1.24-0.36c0.533,0,0.892,0.145,1.076,0.432
			c0.184,0.288,0.275,0.801,0.275,1.536v2.112h-0.592v-2.096c0-0.555-0.055-0.935-0.164-1.141c-0.109-0.205-0.343-0.308-0.7-0.308
			c-0.171,0-0.351,0.025-0.54,0.076s-0.334,0.1-0.436,0.147l-0.152,0.072V68.641z"/>
		<path fill="#4D4D4D" d="M182.169,70.521c-0.64,0-1.087-0.087-1.34-0.26c-0.254-0.174-0.38-0.489-0.38-0.948
			c0-0.219,0.048-0.396,0.144-0.532c0.096-0.136,0.259-0.289,0.488-0.46c-0.149-0.101-0.225-0.285-0.225-0.552
			c0-0.091,0.067-0.259,0.2-0.504l0.072-0.128c-0.422-0.192-0.632-0.595-0.632-1.208c0-0.912,0.498-1.368,1.496-1.368
			c0.256,0,0.493,0.026,0.712,0.08l0.12,0.024l1.184-0.032v0.512l-0.76-0.016c0.176,0.176,0.264,0.442,0.264,0.8
			c0,0.501-0.124,0.852-0.372,1.052s-0.639,0.3-1.172,0.3c-0.144,0-0.274-0.011-0.392-0.031c-0.097,0.234-0.145,0.387-0.145,0.456
			c0,0.165,0.051,0.268,0.152,0.308s0.408,0.06,0.92,0.06s0.88,0.08,1.104,0.24c0.225,0.16,0.337,0.472,0.337,0.937
			C183.945,70.097,183.353,70.521,182.169,70.521z M181.041,69.265c0,0.282,0.078,0.479,0.235,0.588s0.448,0.164,0.872,0.164
			c0.425,0,0.729-0.059,0.912-0.176c0.185-0.117,0.276-0.313,0.276-0.588c0-0.275-0.066-0.452-0.2-0.532
			c-0.133-0.08-0.395-0.12-0.784-0.12l-0.863-0.04c-0.177,0.128-0.295,0.24-0.356,0.336S181.041,69.115,181.041,69.265z
			 M181.097,65.929c0,0.314,0.07,0.539,0.212,0.672c0.142,0.134,0.375,0.2,0.7,0.2s0.558-0.066,0.696-0.2
			c0.139-0.133,0.208-0.358,0.208-0.676s-0.069-0.543-0.208-0.676c-0.139-0.134-0.371-0.2-0.696-0.2s-0.559,0.067-0.7,0.204
			C181.167,65.389,181.097,65.614,181.097,65.929z"/>
		<path fill="#4D4D4D" d="M144.161,78.24h-0.6v-4h0.592v0.28c0.432-0.24,0.846-0.36,1.24-0.36c0.533,0,0.892,0.145,1.076,0.432
			c0.184,0.288,0.275,0.801,0.275,1.536v2.112h-0.592v-2.096c0-0.555-0.055-0.935-0.164-1.141c-0.109-0.205-0.343-0.308-0.7-0.308
			c-0.171,0-0.351,0.025-0.54,0.076s-0.334,0.1-0.436,0.147l-0.152,0.072V78.24z"/>
		<path fill="#4D4D4D" d="M150.682,75.448v2.048c0.016,0.197,0.17,0.314,0.464,0.353l-0.024,0.472c-0.421,0-0.738-0.106-0.952-0.32
			c-0.479,0.214-0.96,0.32-1.439,0.32c-0.368,0-0.648-0.104-0.84-0.312c-0.192-0.208-0.288-0.506-0.288-0.896
			s0.099-0.676,0.296-0.86c0.197-0.184,0.507-0.297,0.928-0.34l1.256-0.12v-0.344c0-0.272-0.059-0.467-0.176-0.584
			s-0.277-0.176-0.48-0.176c-0.427,0-0.869,0.026-1.327,0.08l-0.248,0.023l-0.024-0.456c0.587-0.117,1.106-0.176,1.56-0.176
			c0.454,0,0.783,0.104,0.988,0.312S150.682,75.006,150.682,75.448z M148.217,77.08c0,0.491,0.203,0.736,0.608,0.736
			c0.362,0,0.72-0.062,1.072-0.185l0.184-0.063v-1.32l-1.184,0.112c-0.24,0.021-0.414,0.091-0.521,0.208
			S148.217,76.856,148.217,77.08z"/>
		<path fill="#4D4D4D" d="M153.361,74.16c0.176,0,0.475,0.032,0.896,0.096l0.192,0.024l-0.024,0.488
			c-0.427-0.048-0.741-0.072-0.943-0.072c-0.454,0-0.762,0.108-0.925,0.324c-0.162,0.216-0.243,0.616-0.243,1.2
			s0.075,0.99,0.228,1.22s0.468,0.344,0.948,0.344l0.943-0.072l0.024,0.496c-0.496,0.075-0.867,0.112-1.112,0.112
			c-0.624,0-1.055-0.16-1.292-0.48c-0.237-0.319-0.355-0.859-0.355-1.619c0-0.761,0.128-1.294,0.384-1.601
			S152.764,74.16,153.361,74.16z"/>
		<path fill="#4D4D4D" d="M155.953,78.24h-0.6v-5.744h0.6v1.968c0.427-0.202,0.838-0.304,1.232-0.304
			c0.533,0,0.892,0.145,1.076,0.432c0.184,0.288,0.275,0.801,0.275,1.536v2.112h-0.6v-2.096c0-0.555-0.055-0.935-0.164-1.141
			c-0.109-0.205-0.34-0.308-0.692-0.308c-0.336,0-0.661,0.062-0.976,0.184l-0.152,0.057V78.24z"/>
		<path fill="#4D4D4D" d="M164.129,77.744l0.232-0.023l0.016,0.472c-0.608,0.085-1.128,0.128-1.56,0.128
			c-0.576,0-0.984-0.167-1.225-0.5s-0.359-0.853-0.359-1.556c0-1.403,0.557-2.104,1.672-2.104c0.538,0,0.941,0.15,1.208,0.452
			s0.399,0.774,0.399,1.42l-0.031,0.456h-2.641c0,0.442,0.08,0.771,0.24,0.984c0.16,0.213,0.438,0.319,0.836,0.319
			S163.718,77.776,164.129,77.744z M163.913,76.008c0-0.49-0.079-0.837-0.236-1.04c-0.157-0.202-0.413-0.304-0.768-0.304
			s-0.621,0.106-0.8,0.32c-0.179,0.213-0.271,0.555-0.276,1.023H163.913z"/>
		<path fill="#4D4D4D" d="M165.449,73.336v-0.695h0.6v0.695H165.449z M165.449,78.24v-4h0.6v4H165.449z"/>
		<path fill="#4D4D4D" d="M167.801,78.24h-0.6v-4h0.592v0.28c0.432-0.24,0.846-0.36,1.24-0.36c0.533,0,0.892,0.145,1.076,0.432
			c0.184,0.288,0.275,0.801,0.275,1.536v2.112h-0.592v-2.096c0-0.555-0.055-0.935-0.164-1.141c-0.109-0.205-0.343-0.308-0.7-0.308
			c-0.171,0-0.351,0.025-0.54,0.076s-0.334,0.1-0.436,0.147l-0.152,0.072V78.24z"/>
		<path fill="#4D4D4D" d="M174.217,77.744l0.232-0.023l0.016,0.472c-0.608,0.085-1.128,0.128-1.56,0.128
			c-0.576,0-0.984-0.167-1.225-0.5s-0.359-0.853-0.359-1.556c0-1.403,0.557-2.104,1.672-2.104c0.538,0,0.941,0.15,1.208,0.452
			s0.399,0.774,0.399,1.42l-0.031,0.456h-2.641c0,0.442,0.08,0.771,0.24,0.984c0.16,0.213,0.438,0.319,0.836,0.319
			S173.806,77.776,174.217,77.744z M174.001,76.008c0-0.49-0.079-0.837-0.236-1.04c-0.157-0.202-0.413-0.304-0.768-0.304
			s-0.621,0.106-0.8,0.32c-0.179,0.213-0.271,0.555-0.276,1.023H174.001z"/>
		<path fill="#4D4D4D" d="M176.137,78.24h-0.6v-4h0.592v0.28c0.4-0.24,0.789-0.36,1.168-0.36c0.496,0,0.843,0.136,1.04,0.408
			c0.176-0.106,0.404-0.201,0.684-0.284c0.28-0.083,0.527-0.124,0.74-0.124c0.533,0,0.893,0.143,1.076,0.428
			c0.184,0.286,0.276,0.799,0.276,1.54v2.112h-0.601v-2.096c0-0.555-0.053-0.935-0.16-1.141c-0.106-0.205-0.333-0.308-0.68-0.308
			c-0.176,0-0.357,0.025-0.544,0.076s-0.331,0.1-0.432,0.147l-0.152,0.072c0.069,0.176,0.104,0.565,0.104,1.168v2.08h-0.601v-2.064
			c0-0.575-0.052-0.966-0.156-1.172c-0.104-0.205-0.332-0.308-0.684-0.308c-0.171,0-0.346,0.025-0.524,0.076s-0.315,0.1-0.412,0.147
			l-0.136,0.072V78.24z"/>
		<path fill="#4D4D4D" d="M144.161,87.841h-0.6v-5.744h0.6v1.968c0.427-0.202,0.838-0.304,1.232-0.304
			c0.533,0,0.892,0.145,1.076,0.432c0.184,0.288,0.275,0.801,0.275,1.536v2.112h-0.6v-2.096c0-0.555-0.055-0.935-0.164-1.141
			c-0.109-0.205-0.34-0.308-0.692-0.308c-0.336,0-0.661,0.062-0.976,0.184l-0.152,0.057V87.841z"/>
		<path fill="#4D4D4D" d="M150.682,85.049v2.048c0.016,0.197,0.17,0.314,0.464,0.353l-0.024,0.472c-0.421,0-0.738-0.106-0.952-0.32
			c-0.479,0.214-0.96,0.32-1.439,0.32c-0.368,0-0.648-0.104-0.84-0.312c-0.192-0.208-0.288-0.506-0.288-0.896
			s0.099-0.676,0.296-0.86c0.197-0.184,0.507-0.297,0.928-0.34l1.256-0.12v-0.344c0-0.272-0.059-0.467-0.176-0.584
			s-0.277-0.176-0.48-0.176c-0.427,0-0.869,0.026-1.327,0.08l-0.248,0.023l-0.024-0.456c0.587-0.117,1.106-0.176,1.56-0.176
			c0.454,0,0.783,0.104,0.988,0.312S150.682,84.606,150.682,85.049z M148.217,86.681c0,0.491,0.203,0.736,0.608,0.736
			c0.362,0,0.72-0.062,1.072-0.185l0.184-0.063v-1.32l-1.184,0.112c-0.24,0.021-0.414,0.091-0.521,0.208
			S148.217,86.457,148.217,86.681z"/>
		<path fill="#4D4D4D" d="M151.913,87.841v-5.744h0.6v5.744H151.913z"/>
		<path fill="#4D4D4D" d="M155.48,83.761c0.539,0,0.916,0.153,1.132,0.46c0.217,0.307,0.324,0.844,0.324,1.612
			c0,0.768-0.135,1.308-0.403,1.62c-0.27,0.312-0.765,0.468-1.484,0.468c-0.224,0-0.595-0.021-1.112-0.064l-0.224-0.023v-5.736
			h0.592v1.944C154.71,83.854,155.102,83.761,155.48,83.761z M155.041,87.385c0.522,0,0.868-0.118,1.036-0.355
			s0.252-0.639,0.252-1.204s-0.067-0.962-0.2-1.188c-0.134-0.227-0.371-0.34-0.712-0.34c-0.31,0-0.627,0.059-0.952,0.176
			l-0.16,0.057v2.815C154.651,87.371,154.896,87.385,155.041,87.385z"/>
		<path fill="#4D4D4D" d="M160.641,87.345l0.232-0.023l0.016,0.472c-0.608,0.085-1.128,0.128-1.56,0.128
			c-0.576,0-0.984-0.167-1.225-0.5s-0.359-0.853-0.359-1.556c0-1.403,0.557-2.104,1.672-2.104c0.538,0,0.941,0.15,1.208,0.452
			s0.399,0.774,0.399,1.42l-0.031,0.456h-2.641c0,0.442,0.08,0.771,0.24,0.984c0.16,0.213,0.438,0.319,0.836,0.319
			S160.229,87.377,160.641,87.345z M160.425,85.608c0-0.49-0.079-0.837-0.236-1.04c-0.157-0.202-0.413-0.304-0.768-0.304
			s-0.621,0.106-0.8,0.32c-0.179,0.213-0.271,0.555-0.276,1.023H160.425z"/>
		<path fill="#4D4D4D" d="M162.561,87.841h-0.6v-4h0.592v0.28c0.432-0.24,0.846-0.36,1.24-0.36c0.533,0,0.892,0.145,1.076,0.432
			c0.184,0.288,0.275,0.801,0.275,1.536v2.112h-0.592v-2.096c0-0.555-0.055-0.935-0.164-1.141c-0.109-0.205-0.343-0.308-0.7-0.308
			c-0.171,0-0.351,0.025-0.54,0.076s-0.334,0.1-0.436,0.147l-0.152,0.072V87.841z"/>
		<path fill="#4D4D4D" d="M167.584,88.417v-0.552c0.385,0,0.631-0.047,0.74-0.141c0.109-0.093,0.164-0.337,0.164-0.731v-4.688h0.608
			l0.008,4.776c0,0.448-0.075,0.775-0.224,0.983c-0.123,0.177-0.366,0.285-0.729,0.328
			C168.009,88.409,167.819,88.417,167.584,88.417z"/>
		<path fill="#4D4D4D" d="M173.153,85.049v2.048c0.016,0.197,0.17,0.314,0.464,0.353l-0.024,0.472c-0.421,0-0.738-0.106-0.952-0.32
			c-0.479,0.214-0.96,0.32-1.439,0.32c-0.368,0-0.648-0.104-0.84-0.312c-0.192-0.208-0.288-0.506-0.288-0.896
			s0.099-0.676,0.296-0.86c0.197-0.184,0.507-0.297,0.928-0.34l1.256-0.12v-0.344c0-0.272-0.059-0.467-0.176-0.584
			s-0.277-0.176-0.48-0.176c-0.427,0-0.869,0.026-1.327,0.08l-0.248,0.023l-0.024-0.456c0.587-0.117,1.106-0.176,1.56-0.176
			c0.454,0,0.783,0.104,0.988,0.312S173.153,84.606,173.153,85.049z M170.688,86.681c0,0.491,0.203,0.736,0.608,0.736
			c0.362,0,0.72-0.062,1.072-0.185l0.184-0.063v-1.32l-1.184,0.112c-0.24,0.021-0.414,0.091-0.521,0.208
			S170.688,86.457,170.688,86.681z"/>
		<path fill="#4D4D4D" d="M174.937,87.841h-0.6v-5.744h0.6v1.968c0.427-0.202,0.838-0.304,1.232-0.304
			c0.533,0,0.892,0.145,1.076,0.432c0.184,0.288,0.275,0.801,0.275,1.536v2.112h-0.6v-2.096c0-0.555-0.055-0.935-0.164-1.141
			c-0.109-0.205-0.34-0.308-0.692-0.308c-0.336,0-0.661,0.062-0.976,0.184l-0.152,0.057V87.841z"/>
		<path fill="#4D4D4D" d="M178.633,87.841v-4h0.592v0.544c0.464-0.32,0.952-0.53,1.464-0.632v0.607
			c-0.224,0.043-0.457,0.109-0.7,0.2c-0.242,0.091-0.428,0.171-0.556,0.24l-0.2,0.104v2.936H178.633z"/>
	</g>
</g>
<g>
	<path fill="#4D4D4D" d="M17.889,3.234c-4.171,0-6.773,2.136-7.805,6.409h10.002v2.051H9.809l-0.039,0.906v1.018l0.039,0.715h9.081
		v2.052h-8.767c0.483,1.908,1.389,3.384,2.716,4.429c1.327,1.045,3.102,1.567,5.325,1.567c2.04,0,4.06-0.35,6.06-1.05v2.385
		c-1.909,0.69-3.981,1.034-6.217,1.034c-3.099,0-5.593-0.713-7.482-2.139c-1.89-1.426-3.135-3.501-3.736-6.225H3.533v-2.052h2.981
		l-0.039-0.668v-0.7l0.039-1.272H3.533V9.643h3.216c0.51-2.767,1.719-4.924,3.628-6.473c1.909-1.547,4.413-2.321,7.511-2.321
		c2.628,0,5.021,0.514,7.178,1.543l-1.393,2.211C21.504,3.69,19.576,3.234,17.889,3.234z"/>
</g>
<g>
	<path fill="#4D4D4D" d="M24.095,132.182c-5.974,0-9.701,3.059-11.18,9.179h14.327v2.938h-14.72l-0.056,1.298v1.458l0.056,1.025
		h13.007v2.939H12.971c0.693,2.733,1.99,4.848,3.891,6.343c1.901,1.496,4.443,2.244,7.627,2.244c2.922,0,5.815-0.502,8.681-1.504
		v3.417c-2.735,0.988-5.703,1.481-8.905,1.481c-4.438,0-8.01-1.021-10.717-3.064c-2.706-2.042-4.49-5.014-5.351-8.917H3.533v-2.939
		h4.269l-0.056-0.956v-1.002l0.056-1.822H3.533v-2.938H8.14c0.73-3.963,2.463-7.053,5.197-9.271
		c2.734-2.216,6.321-3.325,10.759-3.325c3.765,0,7.192,0.737,10.282,2.209l-1.995,3.166
		C29.273,132.835,26.512,132.182,24.095,132.182z"/>
</g>
<g>
	<path fill="#4D4D4D" d="M34.696,47.971c-0.878,0-1.425,0.449-1.643,1.349h2.105v0.432h-2.163l-0.008,0.191v0.214l0.008,0.151h1.911
		v0.432h-1.845c0.102,0.402,0.292,0.712,0.572,0.932c0.279,0.22,0.653,0.33,1.121,0.33c0.429,0,0.854-0.074,1.275-0.221v0.502
		c-0.402,0.145-0.838,0.218-1.308,0.218c-0.652,0-1.177-0.15-1.575-0.45c-0.398-0.3-0.66-0.737-0.786-1.31h-0.685v-0.432h0.627
		l-0.008-0.141v-0.147l0.008-0.268h-0.627V49.32h0.677c0.107-0.582,0.362-1.036,0.764-1.362c0.402-0.326,0.929-0.489,1.581-0.489
		c0.553,0,1.057,0.108,1.511,0.325l-0.293,0.465C35.457,48.067,35.051,47.971,34.696,47.971z"/>
</g>
<g>
	<path fill="#4D4D4D" d="M20.759,47.971c-0.878,0-1.425,0.449-1.643,1.349h2.105v0.432h-2.163l-0.008,0.191v0.214l0.008,0.151h1.911
		v0.432h-1.845c0.102,0.402,0.292,0.712,0.572,0.932c0.279,0.22,0.653,0.33,1.121,0.33c0.429,0,0.854-0.074,1.275-0.221v0.502
		c-0.402,0.145-0.838,0.218-1.308,0.218c-0.652,0-1.177-0.15-1.575-0.45c-0.398-0.3-0.66-0.737-0.786-1.31h-0.685v-0.432h0.627
		l-0.008-0.141v-0.147l0.008-0.268h-0.627V49.32h0.677c0.107-0.582,0.362-1.036,0.764-1.362c0.402-0.326,0.929-0.489,1.581-0.489
		c0.553,0,1.057,0.108,1.511,0.325l-0.293,0.465C21.52,48.067,21.114,47.971,20.759,47.971z"/>
</g>
<g>
	<path fill="#4D4D4D" d="M6.94,47.969c-0.878,0.003-1.424,0.455-1.638,1.355l2.105-0.008l0.002,0.432l-2.163,0.008l-0.008,0.191
		l0.001,0.214l0.009,0.151l1.911-0.007l0.002,0.432l-1.845,0.007c0.103,0.401,0.295,0.711,0.575,0.93
		c0.28,0.219,0.654,0.327,1.122,0.326c0.429-0.002,0.854-0.077,1.275-0.226l0.002,0.502c-0.401,0.147-0.837,0.221-1.308,0.222
		c-0.652,0.002-1.178-0.146-1.576-0.444c-0.399-0.299-0.662-0.734-0.791-1.307l-0.685,0.003l-0.002-0.432l0.627-0.002l-0.009-0.14
		l-0.001-0.147l0.007-0.268L3.925,49.76l-0.002-0.432l0.677-0.002c0.105-0.583,0.358-1.038,0.759-1.365
		c0.401-0.327,0.927-0.492,1.579-0.494c0.553-0.002,1.057,0.104,1.512,0.319l-0.291,0.466C7.701,48.062,7.295,47.967,6.94,47.969z"
		/>
</g>
<g>
	<path fill="#4D4D4D" d="M63.194,47.971c-0.878,0-1.425,0.449-1.643,1.349h2.105v0.432h-2.163l-0.008,0.191v0.214l0.008,0.151h1.911
		v0.432H61.56c0.102,0.402,0.292,0.712,0.572,0.932c0.279,0.22,0.653,0.33,1.121,0.33c0.429,0,0.854-0.074,1.275-0.221v0.502
		c-0.402,0.145-0.838,0.218-1.308,0.218c-0.652,0-1.177-0.15-1.575-0.45c-0.398-0.3-0.66-0.737-0.786-1.31h-0.685v-0.432H60.8
		l-0.008-0.141v-0.147l0.008-0.268h-0.627V49.32h0.677c0.107-0.582,0.362-1.036,0.764-1.362c0.402-0.326,0.929-0.489,1.581-0.489
		c0.553,0,1.057,0.108,1.511,0.325l-0.293,0.465C63.955,48.067,63.549,47.971,63.194,47.971z"/>
</g>
<g>
	<path fill="#4D4D4D" d="M48.861,47.971c-0.878,0-1.425,0.449-1.643,1.349h2.105v0.432H47.16l-0.008,0.191v0.214l0.008,0.151h1.911
		v0.432h-1.845c0.102,0.402,0.292,0.712,0.572,0.932c0.279,0.22,0.653,0.33,1.121,0.33c0.429,0,0.854-0.074,1.275-0.221v0.502
		c-0.402,0.145-0.838,0.218-1.308,0.218c-0.652,0-1.177-0.15-1.575-0.45c-0.398-0.3-0.66-0.737-0.786-1.31H45.84v-0.432h0.627
		l-0.008-0.141v-0.147l0.008-0.268H45.84V49.32h0.677c0.107-0.582,0.362-1.036,0.764-1.362c0.402-0.326,0.929-0.489,1.581-0.489
		c0.553,0,1.057,0.108,1.511,0.325l-0.293,0.465C49.622,48.067,49.216,47.971,48.861,47.971z"/>
</g>
<g>
	<path fill="#4D4D4D" d="M91.445,47.971c-0.878,0-1.425,0.449-1.643,1.349h2.105v0.432h-2.163l-0.008,0.191v0.214l0.008,0.151h1.911
		v0.432H89.81c0.102,0.402,0.292,0.712,0.572,0.932c0.279,0.22,0.653,0.33,1.121,0.33c0.429,0,0.854-0.074,1.275-0.221v0.502
		c-0.402,0.145-0.838,0.218-1.308,0.218c-0.652,0-1.177-0.15-1.575-0.45c-0.398-0.3-0.66-0.737-0.786-1.31h-0.685v-0.432h0.627
		l-0.008-0.141v-0.147l0.008-0.268h-0.627V49.32h0.677c0.107-0.582,0.362-1.036,0.764-1.362c0.402-0.326,0.929-0.489,1.581-0.489
		c0.553,0,1.057,0.108,1.511,0.325l-0.293,0.465C92.206,48.067,91.8,47.971,91.445,47.971z"/>
</g>
<g>
	<path fill="#4D4D4D" d="M77.231,47.971c-0.878,0-1.425,0.449-1.643,1.349h2.105v0.432h-2.163l-0.008,0.191v0.214l0.008,0.151h1.911
		v0.432h-1.845c0.102,0.402,0.292,0.712,0.572,0.932c0.279,0.22,0.653,0.33,1.121,0.33c0.429,0,0.854-0.074,1.275-0.221v0.502
		c-0.402,0.145-0.838,0.218-1.308,0.218c-0.652,0-1.177-0.15-1.575-0.45c-0.398-0.3-0.66-0.737-0.786-1.31H74.21v-0.432h0.627
		l-0.008-0.141v-0.147l0.008-0.268H74.21V49.32h0.677c0.107-0.582,0.362-1.036,0.764-1.362c0.402-0.326,0.929-0.489,1.581-0.489
		c0.553,0,1.057,0.108,1.511,0.325l-0.293,0.465C77.992,48.067,77.587,47.971,77.231,47.971z"/>
</g>
<g>
	<path fill="#4D4D4D" d="M105.318,47.971c-0.878,0-1.425,0.449-1.643,1.349h2.105v0.432h-2.163l-0.008,0.191v0.214l0.008,0.151
		h1.911v0.432h-1.845c0.102,0.402,0.292,0.712,0.572,0.932c0.279,0.22,0.653,0.33,1.121,0.33c0.429,0,0.854-0.074,1.275-0.221v0.502
		c-0.402,0.145-0.838,0.218-1.308,0.218c-0.652,0-1.177-0.15-1.575-0.45c-0.398-0.3-0.66-0.737-0.786-1.31h-0.685v-0.432h0.627
		l-0.008-0.141v-0.147l0.008-0.268h-0.627V49.32h0.677c0.107-0.582,0.362-1.036,0.764-1.362c0.402-0.326,0.929-0.489,1.581-0.489
		c0.553,0,1.057,0.108,1.511,0.325l-0.293,0.465C106.079,48.067,105.673,47.971,105.318,47.971z"/>
</g>
<g>
	<path fill="#4D4D4D" d="M162.007,47.971c-0.878,0-1.425,0.449-1.643,1.349h2.105v0.432h-2.163l-0.008,0.191v0.214l0.008,0.151
		h1.911v0.432h-1.845c0.102,0.402,0.292,0.712,0.572,0.932c0.279,0.22,0.653,0.33,1.121,0.33c0.429,0,0.854-0.074,1.275-0.221v0.502
		c-0.402,0.145-0.838,0.218-1.308,0.218c-0.652,0-1.177-0.15-1.575-0.45c-0.398-0.3-0.66-0.737-0.786-1.31h-0.685v-0.432h0.627
		l-0.008-0.141v-0.147l0.008-0.268h-0.627V49.32h0.677c0.107-0.582,0.362-1.036,0.764-1.362c0.402-0.326,0.929-0.489,1.581-0.489
		c0.553,0,1.057,0.108,1.511,0.325l-0.293,0.465C162.768,48.067,162.362,47.971,162.007,47.971z"/>
</g>
<g>
	<path fill="#4D4D4D" d="M147.361,47.971c-0.878,0-1.425,0.449-1.643,1.349h2.105v0.432h-2.163l-0.008,0.191v0.214l0.008,0.151
		h1.911v0.432h-1.845c0.102,0.402,0.292,0.712,0.572,0.932c0.279,0.22,0.653,0.33,1.121,0.33c0.429,0,0.854-0.074,1.275-0.221v0.502
		c-0.402,0.145-0.838,0.218-1.308,0.218c-0.652,0-1.177-0.15-1.575-0.45c-0.398-0.3-0.66-0.737-0.786-1.31h-0.685v-0.432h0.627
		l-0.008-0.141v-0.147l0.008-0.268h-0.627V49.32h0.677c0.107-0.582,0.362-1.036,0.764-1.362c0.402-0.326,0.929-0.489,1.581-0.489
		c0.553,0,1.057,0.108,1.511,0.325l-0.293,0.465C148.122,48.067,147.716,47.971,147.361,47.971z"/>
</g>
<g>
	<path fill="#4D4D4D" d="M133.486,47.971c-0.878,0-1.425,0.449-1.643,1.349h2.105v0.432h-2.163l-0.008,0.191v0.214l0.008,0.151
		h1.911v0.432h-1.845c0.102,0.402,0.292,0.712,0.572,0.932c0.279,0.22,0.653,0.33,1.121,0.33c0.429,0,0.854-0.074,1.275-0.221v0.502
		c-0.402,0.145-0.838,0.218-1.308,0.218c-0.652,0-1.177-0.15-1.575-0.45c-0.398-0.3-0.66-0.737-0.786-1.31h-0.685v-0.432h0.627
		l-0.008-0.141v-0.147l0.008-0.268h-0.627V49.32h0.677c0.107-0.582,0.362-1.036,0.764-1.362c0.402-0.326,0.929-0.489,1.581-0.489
		c0.553,0,1.057,0.108,1.511,0.325l-0.293,0.465C134.247,48.067,133.841,47.971,133.486,47.971z"/>
</g>
<g>
	<path fill="#4D4D4D" d="M119.067,47.971c-0.878,0-1.425,0.449-1.643,1.349h2.105v0.432h-2.163l-0.008,0.191v0.214l0.008,0.151
		h1.911v0.432h-1.845c0.102,0.402,0.292,0.712,0.572,0.932c0.279,0.22,0.653,0.33,1.121,0.33c0.429,0,0.854-0.074,1.275-0.221v0.502
		c-0.402,0.145-0.838,0.218-1.308,0.218c-0.652,0-1.177-0.15-1.575-0.45c-0.398-0.3-0.66-0.737-0.786-1.31h-0.685v-0.432h0.627
		l-0.008-0.141v-0.147l0.008-0.268h-0.627V49.32h0.677c0.107-0.582,0.362-1.036,0.764-1.362c0.402-0.326,0.929-0.489,1.581-0.489
		c0.553,0,1.057,0.108,1.511,0.325l-0.293,0.465C119.828,48.067,119.422,47.971,119.067,47.971z"/>
</g>
<g>
	<path fill="#00B8FA" d="M12.367,30.286H3.502v13.529h8.864V30.286z M3.802,43.515v-12.93h8.266v12.93H3.802z"/>
	<path fill="#00B8FA" d="M5.095,31.388c-0.262,0-0.475,0.213-0.475,0.475c0,0.204,0.145,0.345,0.325,0.413v9.535
		c-0.18,0.067-0.325,0.209-0.325,0.413c0,0.263,0.213,0.475,0.475,0.475c0.204,0,0.346-0.145,0.413-0.326h4.908
		c0.067,0.18,0.209,0.326,0.413,0.326c0.262,0,0.475-0.213,0.475-0.475c0-0.223-0.168-0.383-0.376-0.434v-9.493
		c0.208-0.051,0.376-0.21,0.376-0.434c0-0.263-0.213-0.475-0.475-0.475c-0.204,0-0.346,0.145-0.413,0.326H5.508
		C5.44,31.533,5.298,31.388,5.095,31.388z M6.27,32.013v3.478H6.57v-3.478h0.294v3.478h0.299v-3.478h0.294v3.478h0.299v-3.478h2.66
		c0.041,0.111,0.108,0.188,0.212,0.242v9.578c-0.104,0.054-0.171,0.131-0.212,0.242H5.508c-0.048-0.128-0.135-0.215-0.263-0.263
		v-9.535c0.129-0.048,0.215-0.135,0.263-0.263H6.27z"/>
	<rect x="6.42" y="37.665" fill="#00B8FA" width="1.184" height="2.709"/>
</g>
<g>
	<path fill="#00B8FA" d="M26.45,30.286h-8.864v13.529h8.864V30.286z M17.885,43.515v-12.93h8.266v12.93H17.885z"/>
	<path fill="#00B8FA" d="M19.178,31.388c-0.262,0-0.475,0.213-0.475,0.475c0,0.204,0.145,0.345,0.325,0.413v9.535
		c-0.18,0.067-0.325,0.209-0.325,0.413c0,0.263,0.213,0.475,0.475,0.475c0.204,0,0.346-0.145,0.413-0.326h4.908
		c0.067,0.18,0.209,0.326,0.413,0.326c0.262,0,0.475-0.213,0.475-0.475c0-0.223-0.168-0.383-0.376-0.434v-9.493
		c0.208-0.051,0.376-0.21,0.376-0.434c0-0.263-0.213-0.475-0.475-0.475c-0.204,0-0.346,0.145-0.413,0.326h-4.908
		C19.523,31.533,19.382,31.388,19.178,31.388z M20.353,32.013v3.478h0.299v-3.478h0.294v3.478h0.299v-3.478h0.294v3.478h0.299
		v-3.478h2.66c0.041,0.111,0.108,0.188,0.212,0.242v9.578c-0.104,0.054-0.171,0.131-0.212,0.242h-4.908
		c-0.048-0.128-0.135-0.215-0.263-0.263v-9.535c0.129-0.048,0.215-0.135,0.263-0.263H20.353z"/>
	<rect x="20.503" y="37.665" fill="#00B8FA" width="1.184" height="2.709"/>
</g>
<g>
	<path fill="#00B8FA" d="M40.53,30.286h-8.864v13.529h8.864V30.286z M31.965,43.515v-12.93h8.266v12.93H31.965z"/>
	<path fill="#00B8FA" d="M33.258,31.388c-0.262,0-0.475,0.213-0.475,0.475c0,0.204,0.145,0.345,0.325,0.413v9.535
		c-0.18,0.067-0.325,0.209-0.325,0.413c0,0.263,0.213,0.475,0.475,0.475c0.204,0,0.346-0.145,0.413-0.326h4.908
		c0.067,0.18,0.209,0.326,0.413,0.326c0.262,0,0.475-0.213,0.475-0.475c0-0.223-0.168-0.383-0.376-0.434v-9.493
		c0.208-0.051,0.376-0.21,0.376-0.434c0-0.263-0.213-0.475-0.475-0.475c-0.204,0-0.346,0.145-0.413,0.326h-4.908
		C33.603,31.533,33.462,31.388,33.258,31.388z M34.433,32.013v3.478h0.299v-3.478h0.294v3.478h0.299v-3.478h0.294v3.478h0.299
		v-3.478h2.66c0.041,0.111,0.108,0.188,0.212,0.242v9.578c-0.104,0.054-0.171,0.131-0.212,0.242h-4.908
		c-0.048-0.128-0.135-0.215-0.263-0.263v-9.535c0.129-0.048,0.215-0.135,0.263-0.263H34.433z"/>
	<rect x="34.583" y="37.665" fill="#00B8FA" width="1.184" height="2.709"/>
</g>
<g>
	<path fill="#00B8FA" d="M54.61,30.286h-8.864v13.529h8.864V30.286z M46.045,43.515v-12.93h8.266v12.93H46.045z"/>
	<path fill="#00B8FA" d="M47.337,31.388c-0.262,0-0.475,0.213-0.475,0.475c0,0.204,0.145,0.345,0.325,0.413v9.535
		c-0.18,0.067-0.325,0.209-0.325,0.413c0,0.263,0.213,0.475,0.475,0.475c0.204,0,0.346-0.145,0.413-0.326h4.908
		c0.067,0.18,0.209,0.326,0.413,0.326c0.262,0,0.475-0.213,0.475-0.475c0-0.223-0.168-0.383-0.376-0.434v-9.493
		c0.208-0.051,0.376-0.21,0.376-0.434c0-0.263-0.213-0.475-0.475-0.475c-0.204,0-0.346,0.145-0.413,0.326H47.75
		C47.683,31.533,47.541,31.388,47.337,31.388z M48.513,32.013v3.478h0.299v-3.478h0.294v3.478h0.299v-3.478h0.294v3.478h0.299
		v-3.478h2.66c0.041,0.111,0.108,0.188,0.212,0.242v9.578c-0.104,0.054-0.171,0.131-0.212,0.242H47.75
		c-0.048-0.128-0.135-0.215-0.263-0.263v-9.535c0.129-0.048,0.215-0.135,0.263-0.263H48.513z"/>
	<rect x="48.663" y="37.665" fill="#00B8FA" width="1.184" height="2.709"/>
</g>
<g>
	<path fill="#00B8FA" d="M68.693,30.286h-8.864v13.529h8.864V30.286z M60.128,43.515v-12.93h8.266v12.93H60.128z"/>
	<path fill="#00B8FA" d="M61.421,31.388c-0.262,0-0.475,0.213-0.475,0.475c0,0.204,0.145,0.345,0.325,0.413v9.535
		c-0.18,0.067-0.325,0.209-0.325,0.413c0,0.263,0.213,0.475,0.475,0.475c0.204,0,0.346-0.145,0.413-0.326h4.908
		c0.067,0.18,0.209,0.326,0.413,0.326c0.262,0,0.475-0.213,0.475-0.475c0-0.223-0.168-0.383-0.376-0.434v-9.493
		c0.208-0.051,0.376-0.21,0.376-0.434c0-0.263-0.213-0.475-0.475-0.475c-0.204,0-0.346,0.145-0.413,0.326h-4.908
		C61.766,31.533,61.625,31.388,61.421,31.388z M62.596,32.013v3.478h0.299v-3.478h0.294v3.478h0.299v-3.478h0.294v3.478h0.299
		v-3.478h2.66c0.041,0.111,0.108,0.188,0.212,0.242v9.578c-0.104,0.054-0.171,0.131-0.212,0.242h-4.908
		c-0.048-0.128-0.135-0.215-0.263-0.263v-9.535c0.129-0.048,0.215-0.135,0.263-0.263H62.596z"/>
	<rect x="62.746" y="37.665" fill="#00B8FA" width="1.184" height="2.709"/>
</g>
<g>
	<path fill="#00B8FA" d="M82.773,30.286h-8.864v13.529h8.864V30.286z M74.208,43.515v-12.93h8.266v12.93H74.208z"/>
	<path fill="#00B8FA" d="M75.501,31.388c-0.262,0-0.475,0.213-0.475,0.475c0,0.204,0.145,0.345,0.325,0.413v9.535
		c-0.18,0.067-0.325,0.209-0.325,0.413c0,0.263,0.213,0.475,0.475,0.475c0.204,0,0.346-0.145,0.413-0.326h4.908
		c0.067,0.18,0.209,0.326,0.413,0.326c0.262,0,0.475-0.213,0.475-0.475c0-0.223-0.168-0.383-0.376-0.434v-9.493
		c0.208-0.051,0.376-0.21,0.376-0.434c0-0.263-0.213-0.475-0.475-0.475c-0.204,0-0.346,0.145-0.413,0.326h-4.908
		C75.846,31.533,75.704,31.388,75.501,31.388z M76.676,32.013v3.478h0.299v-3.478h0.294v3.478h0.299v-3.478h0.294v3.478h0.299
		v-3.478h2.66c0.041,0.111,0.108,0.188,0.212,0.242v9.578c-0.104,0.054-0.171,0.131-0.212,0.242h-4.908
		c-0.048-0.128-0.135-0.215-0.263-0.263v-9.535c0.129-0.048,0.215-0.135,0.263-0.263H76.676z"/>
	<rect x="76.826" y="37.665" fill="#00B8FA" width="1.184" height="2.709"/>
</g>
<g>
	<path fill="#00B8FA" d="M96.853,30.286h-8.864v13.529h8.864V30.286z M88.288,43.515v-12.93h8.266v12.93H88.288z"/>
	<path fill="#00B8FA" d="M89.58,31.388c-0.262,0-0.475,0.213-0.475,0.475c0,0.204,0.145,0.345,0.325,0.413v9.535
		c-0.18,0.067-0.325,0.209-0.325,0.413c0,0.263,0.213,0.475,0.475,0.475c0.204,0,0.346-0.145,0.413-0.326h4.908
		c0.067,0.18,0.209,0.326,0.413,0.326c0.262,0,0.475-0.213,0.475-0.475c0-0.223-0.168-0.383-0.376-0.434v-9.493
		c0.208-0.051,0.376-0.21,0.376-0.434c0-0.263-0.213-0.475-0.475-0.475c-0.204,0-0.346,0.145-0.413,0.326h-4.908
		C89.926,31.533,89.784,31.388,89.58,31.388z M90.756,32.013v3.478h0.299v-3.478h0.294v3.478h0.299v-3.478h0.294v3.478h0.299v-3.478
		h2.66c0.041,0.111,0.108,0.188,0.212,0.242v9.578c-0.104,0.054-0.171,0.131-0.212,0.242h-4.908
		c-0.048-0.128-0.135-0.215-0.263-0.263v-9.535c0.129-0.048,0.215-0.135,0.263-0.263H90.756z"/>
	<rect x="90.906" y="37.665" fill="#00B8FA" width="1.184" height="2.709"/>
</g>
<g>
	<path fill="#00B8FA" d="M110.936,30.286h-8.864v13.529h8.864V30.286z M102.371,43.515v-12.93h8.266v12.93H102.371z"/>
	<path fill="#00B8FA" d="M103.664,31.388c-0.262,0-0.475,0.213-0.475,0.475c0,0.204,0.145,0.345,0.325,0.413v9.535
		c-0.18,0.067-0.325,0.209-0.325,0.413c0,0.263,0.213,0.475,0.475,0.475c0.204,0,0.346-0.145,0.413-0.326h4.908
		c0.067,0.18,0.209,0.326,0.413,0.326c0.262,0,0.475-0.213,0.475-0.475c0-0.223-0.168-0.383-0.376-0.434v-9.493
		c0.208-0.051,0.376-0.21,0.376-0.434c0-0.263-0.213-0.475-0.475-0.475c-0.204,0-0.346,0.145-0.413,0.326h-4.908
		C104.009,31.533,103.868,31.388,103.664,31.388z M104.839,32.013v3.478h0.299v-3.478h0.294v3.478h0.299v-3.478h0.294v3.478h0.299
		v-3.478h2.66c0.041,0.111,0.108,0.188,0.212,0.242v9.578c-0.104,0.054-0.171,0.131-0.212,0.242h-4.908
		c-0.048-0.128-0.135-0.215-0.263-0.263v-9.535c0.129-0.048,0.215-0.135,0.263-0.263H104.839z"/>
	<rect x="104.989" y="37.665" fill="#00B8FA" width="1.184" height="2.709"/>
</g>
<g>
	<path fill="#00B8FA" d="M125.016,30.286h-8.864v13.529h8.864V30.286z M116.451,43.515v-12.93h8.266v12.93H116.451z"/>
	<path fill="#00B8FA" d="M117.744,31.388c-0.262,0-0.475,0.213-0.475,0.475c0,0.204,0.145,0.345,0.325,0.413v9.535
		c-0.18,0.067-0.325,0.209-0.325,0.413c0,0.263,0.213,0.475,0.475,0.475c0.204,0,0.346-0.145,0.413-0.326h4.908
		c0.067,0.18,0.209,0.326,0.413,0.326c0.262,0,0.475-0.213,0.475-0.475c0-0.223-0.168-0.383-0.376-0.434v-9.493
		c0.208-0.051,0.376-0.21,0.376-0.434c0-0.263-0.213-0.475-0.475-0.475c-0.204,0-0.346,0.145-0.413,0.326h-4.908
		C118.089,31.533,117.947,31.388,117.744,31.388z M118.919,32.013v3.478h0.299v-3.478h0.294v3.478h0.299v-3.478h0.294v3.478h0.299
		v-3.478h2.66c0.041,0.111,0.108,0.188,0.212,0.242v9.578c-0.104,0.054-0.171,0.131-0.212,0.242h-4.908
		c-0.048-0.128-0.135-0.215-0.263-0.263v-9.535c0.129-0.048,0.215-0.135,0.263-0.263H118.919z"/>
	<rect x="119.069" y="37.665" fill="#00B8FA" width="1.184" height="2.709"/>
</g>
<g>
	<path fill="#00B8FA" d="M139.095,30.286h-8.864v13.529h8.864V30.286z M130.531,43.515v-12.93h8.266v12.93H130.531z"/>
	<path fill="#00B8FA" d="M131.823,31.388c-0.262,0-0.475,0.213-0.475,0.475c0,0.204,0.145,0.345,0.325,0.413v9.535
		c-0.18,0.067-0.325,0.209-0.325,0.413c0,0.263,0.213,0.475,0.475,0.475c0.204,0,0.346-0.145,0.413-0.326h4.908
		c0.067,0.18,0.209,0.326,0.413,0.326c0.262,0,0.475-0.213,0.475-0.475c0-0.223-0.168-0.383-0.376-0.434v-9.493
		c0.208-0.051,0.376-0.21,0.376-0.434c0-0.263-0.213-0.475-0.475-0.475c-0.204,0-0.346,0.145-0.413,0.326h-4.908
		C132.169,31.533,132.027,31.388,131.823,31.388z M132.999,32.013v3.478h0.299v-3.478h0.294v3.478h0.299v-3.478h0.294v3.478h0.299
		v-3.478h2.66c0.041,0.111,0.108,0.188,0.212,0.242v9.578c-0.104,0.054-0.171,0.131-0.212,0.242h-4.908
		c-0.048-0.128-0.135-0.215-0.263-0.263v-9.535c0.129-0.048,0.215-0.135,0.263-0.263H132.999z"/>
	<rect x="133.148" y="37.665" fill="#00B8FA" width="1.184" height="2.709"/>
</g>
<g>
	<path fill="#00B8FA" d="M153.179,30.286h-8.864v13.529h8.864V30.286z M144.614,43.515v-12.93h8.266v12.93H144.614z"/>
	<path fill="#00B8FA" d="M145.907,31.388c-0.262,0-0.475,0.213-0.475,0.475c0,0.204,0.145,0.345,0.325,0.413v9.535
		c-0.18,0.067-0.325,0.209-0.325,0.413c0,0.263,0.213,0.475,0.475,0.475c0.204,0,0.346-0.145,0.413-0.326h4.908
		c0.067,0.18,0.209,0.326,0.413,0.326c0.262,0,0.475-0.213,0.475-0.475c0-0.223-0.168-0.383-0.376-0.434v-9.493
		c0.208-0.051,0.376-0.21,0.376-0.434c0-0.263-0.213-0.475-0.475-0.475c-0.204,0-0.346,0.145-0.413,0.326h-4.908
		C146.252,31.533,146.11,31.388,145.907,31.388z M147.082,32.013v3.478h0.299v-3.478h0.294v3.478h0.299v-3.478h0.294v3.478h0.299
		v-3.478h2.66c0.041,0.111,0.108,0.188,0.212,0.242v9.578c-0.104,0.054-0.171,0.131-0.212,0.242h-4.908
		c-0.048-0.128-0.135-0.215-0.263-0.263v-9.535c0.129-0.048,0.215-0.135,0.263-0.263H147.082z"/>
	<rect x="147.232" y="37.665" fill="#00B8FA" width="1.184" height="2.709"/>
</g>
<g>
	<path fill="#00B8FA" d="M167.259,30.286h-8.864v13.529h8.864V30.286z M158.694,43.515v-12.93h8.266v12.93H158.694z"/>
	<path fill="#00B8FA" d="M159.986,31.388c-0.262,0-0.475,0.213-0.475,0.475c0,0.204,0.145,0.345,0.325,0.413v9.535
		c-0.18,0.067-0.325,0.209-0.325,0.413c0,0.263,0.213,0.475,0.475,0.475c0.204,0,0.346-0.145,0.413-0.326h4.908
		c0.067,0.18,0.209,0.326,0.413,0.326c0.262,0,0.475-0.213,0.475-0.475c0-0.223-0.168-0.383-0.376-0.434v-9.493
		c0.208-0.051,0.376-0.21,0.376-0.434c0-0.263-0.213-0.475-0.475-0.475c-0.204,0-0.346,0.145-0.413,0.326h-4.908
		C160.332,31.533,160.19,31.388,159.986,31.388z M161.162,32.013v3.478h0.299v-3.478h0.294v3.478h0.299v-3.478h0.294v3.478h0.299
		v-3.478h2.66c0.041,0.111,0.108,0.188,0.212,0.242v9.578c-0.104,0.054-0.171,0.131-0.212,0.242h-4.908
		c-0.048-0.128-0.135-0.215-0.263-0.263v-9.535c0.129-0.048,0.215-0.135,0.263-0.263H161.162z"/>
	<rect x="161.312" y="37.665" fill="#00B8FA" width="1.184" height="2.709"/>
</g>
<g>
	<path fill="#00B8FA" d="M12.367,170.285H3.502v16.529h8.864V170.285z M3.802,186.515v-15.93h8.266v15.93H3.802z"/>
	<path fill="#00B8FA" d="M5.095,171.388c-0.262,0-0.475,0.213-0.475,0.475c0,0.204,0.145,0.345,0.325,0.413v12.536
		c-0.18,0.067-0.325,0.209-0.325,0.413c0,0.263,0.213,0.475,0.475,0.475c0.204,0,0.346-0.145,0.413-0.326h4.908
		c0.067,0.18,0.209,0.326,0.413,0.326c0.262,0,0.475-0.213,0.475-0.475c0-0.223-0.168-0.383-0.376-0.434v-12.493
		c0.208-0.051,0.376-0.21,0.376-0.434c0-0.263-0.213-0.475-0.475-0.475c-0.204,0-0.346,0.145-0.413,0.326H5.508
		C5.44,171.533,5.298,171.388,5.095,171.388z M6.27,172.013v6.478H6.57v-6.478h0.294v6.478h0.299v-6.478h0.294v6.478h0.299v-6.478
		h2.66c0.041,0.111,0.108,0.188,0.212,0.242v12.578c-0.104,0.054-0.171,0.131-0.212,0.242H5.508
		c-0.048-0.128-0.135-0.215-0.263-0.263v-12.536c0.129-0.048,0.215-0.135,0.263-0.263H6.27z"/>
	<rect x="6.42" y="180.665" fill="#00B8FA" width="1.184" height="2.709"/>
</g>
<g>
	<path fill="#00B8FA" d="M26.45,170.285h-8.864v16.529h8.864V170.285z M17.885,186.515v-15.93h8.266v15.93H17.885z"/>
	<path fill="#00B8FA" d="M19.178,171.388c-0.262,0-0.475,0.213-0.475,0.475c0,0.204,0.145,0.345,0.325,0.413v12.536
		c-0.18,0.067-0.325,0.209-0.325,0.413c0,0.263,0.213,0.475,0.475,0.475c0.204,0,0.346-0.145,0.413-0.326h4.908
		c0.067,0.18,0.209,0.326,0.413,0.326c0.262,0,0.475-0.213,0.475-0.475c0-0.223-0.168-0.383-0.376-0.434v-12.493
		c0.208-0.051,0.376-0.21,0.376-0.434c0-0.263-0.213-0.475-0.475-0.475c-0.204,0-0.346,0.145-0.413,0.326h-4.908
		C19.523,171.533,19.382,171.388,19.178,171.388z M20.353,172.013v6.478h0.299v-6.478h0.294v6.478h0.299v-6.478h0.294v6.478h0.299
		v-6.478h2.66c0.041,0.111,0.108,0.188,0.212,0.242v12.578c-0.104,0.054-0.171,0.131-0.212,0.242h-4.908
		c-0.048-0.128-0.135-0.215-0.263-0.263v-12.536c0.129-0.048,0.215-0.135,0.263-0.263H20.353z"/>
	<rect x="20.503" y="180.665" fill="#00B8FA" width="1.184" height="2.709"/>
</g>
<g>
	<path fill="#00B8FA" d="M40.53,170.285h-8.864v16.529h8.864V170.285z M31.965,186.515v-15.93h8.266v15.93H31.965z"/>
	<path fill="#00B8FA" d="M33.258,171.388c-0.262,0-0.475,0.213-0.475,0.475c0,0.204,0.145,0.345,0.325,0.413v12.536
		c-0.18,0.067-0.325,0.209-0.325,0.413c0,0.263,0.213,0.475,0.475,0.475c0.204,0,0.346-0.145,0.413-0.326h4.908
		c0.067,0.18,0.209,0.326,0.413,0.326c0.262,0,0.475-0.213,0.475-0.475c0-0.223-0.168-0.383-0.376-0.434v-12.493
		c0.208-0.051,0.376-0.21,0.376-0.434c0-0.263-0.213-0.475-0.475-0.475c-0.204,0-0.346,0.145-0.413,0.326h-4.908
		C33.603,171.533,33.462,171.388,33.258,171.388z M34.433,172.013v6.478h0.299v-6.478h0.294v6.478h0.299v-6.478h0.294v6.478h0.299
		v-6.478h2.66c0.041,0.111,0.108,0.188,0.212,0.242v12.578c-0.104,0.054-0.171,0.131-0.212,0.242h-4.908
		c-0.048-0.128-0.135-0.215-0.263-0.263v-12.536c0.129-0.048,0.215-0.135,0.263-0.263H34.433z"/>
	<rect x="34.583" y="180.665" fill="#00B8FA" width="1.184" height="2.709"/>
</g>
<g>
	<path fill="#00B8FA" d="M54.61,170.285h-8.864v16.529h8.864V170.285z M46.045,186.515v-15.93h8.266v15.93H46.045z"/>
	<path fill="#00B8FA" d="M47.337,171.388c-0.262,0-0.475,0.213-0.475,0.475c0,0.204,0.145,0.345,0.325,0.413v12.536
		c-0.18,0.067-0.325,0.209-0.325,0.413c0,0.263,0.213,0.475,0.475,0.475c0.204,0,0.346-0.145,0.413-0.326h4.908
		c0.067,0.18,0.209,0.326,0.413,0.326c0.262,0,0.475-0.213,0.475-0.475c0-0.223-0.168-0.383-0.376-0.434v-12.493
		c0.208-0.051,0.376-0.21,0.376-0.434c0-0.263-0.213-0.475-0.475-0.475c-0.204,0-0.346,0.145-0.413,0.326H47.75
		C47.683,171.533,47.541,171.388,47.337,171.388z M48.513,172.013v6.478h0.299v-6.478h0.294v6.478h0.299v-6.478h0.294v6.478h0.299
		v-6.478h2.66c0.041,0.111,0.108,0.188,0.212,0.242v12.578c-0.104,0.054-0.171,0.131-0.212,0.242H47.75
		c-0.048-0.128-0.135-0.215-0.263-0.263v-12.536c0.129-0.048,0.215-0.135,0.263-0.263H48.513z"/>
	<rect x="48.663" y="180.665" fill="#00B8FA" width="1.184" height="2.709"/>
</g>
<g>
	<path fill="#00B8FA" d="M68.693,170.285h-8.864v16.529h8.864V170.285z M60.128,186.515v-15.93h8.266v15.93H60.128z"/>
	<path fill="#00B8FA" d="M61.421,171.388c-0.262,0-0.475,0.213-0.475,0.475c0,0.204,0.145,0.345,0.325,0.413v12.536
		c-0.18,0.067-0.325,0.209-0.325,0.413c0,0.263,0.213,0.475,0.475,0.475c0.204,0,0.346-0.145,0.413-0.326h4.908
		c0.067,0.18,0.209,0.326,0.413,0.326c0.262,0,0.475-0.213,0.475-0.475c0-0.223-0.168-0.383-0.376-0.434v-12.493
		c0.208-0.051,0.376-0.21,0.376-0.434c0-0.263-0.213-0.475-0.475-0.475c-0.204,0-0.346,0.145-0.413,0.326h-4.908
		C61.766,171.533,61.625,171.388,61.421,171.388z M62.596,172.013v6.478h0.299v-6.478h0.294v6.478h0.299v-6.478h0.294v6.478h0.299
		v-6.478h2.66c0.041,0.111,0.108,0.188,0.212,0.242v12.578c-0.104,0.054-0.171,0.131-0.212,0.242h-4.908
		c-0.048-0.128-0.135-0.215-0.263-0.263v-12.536c0.129-0.048,0.215-0.135,0.263-0.263H62.596z"/>
	<rect x="62.746" y="180.665" fill="#00B8FA" width="1.184" height="2.709"/>
</g>
<g>
	<path fill="#00B8FA" d="M82.773,170.285h-8.864v16.529h8.864V170.285z M74.208,186.515v-15.93h8.266v15.93H74.208z"/>
	<path fill="#00B8FA" d="M75.501,171.388c-0.262,0-0.475,0.213-0.475,0.475c0,0.204,0.145,0.345,0.325,0.413v12.536
		c-0.18,0.067-0.325,0.209-0.325,0.413c0,0.263,0.213,0.475,0.475,0.475c0.204,0,0.346-0.145,0.413-0.326h4.908
		c0.067,0.18,0.209,0.326,0.413,0.326c0.262,0,0.475-0.213,0.475-0.475c0-0.223-0.168-0.383-0.376-0.434v-12.493
		c0.208-0.051,0.376-0.21,0.376-0.434c0-0.263-0.213-0.475-0.475-0.475c-0.204,0-0.346,0.145-0.413,0.326h-4.908
		C75.846,171.533,75.704,171.388,75.501,171.388z M76.676,172.013v6.478h0.299v-6.478h0.294v6.478h0.299v-6.478h0.294v6.478h0.299
		v-6.478h2.66c0.041,0.111,0.108,0.188,0.212,0.242v12.578c-0.104,0.054-0.171,0.131-0.212,0.242h-4.908
		c-0.048-0.128-0.135-0.215-0.263-0.263v-12.536c0.129-0.048,0.215-0.135,0.263-0.263H76.676z"/>
	<rect x="76.826" y="180.665" fill="#00B8FA" width="1.184" height="2.709"/>
</g>
<g>
	<path fill="#00B8FA" d="M96.853,170.285h-8.864v16.529h8.864V170.285z M88.288,186.515v-15.93h8.266v15.93H88.288z"/>
	<path fill="#00B8FA" d="M89.58,171.388c-0.262,0-0.475,0.213-0.475,0.475c0,0.204,0.145,0.345,0.325,0.413v12.536
		c-0.18,0.067-0.325,0.209-0.325,0.413c0,0.263,0.213,0.475,0.475,0.475c0.204,0,0.346-0.145,0.413-0.326h4.908
		c0.067,0.18,0.209,0.326,0.413,0.326c0.262,0,0.475-0.213,0.475-0.475c0-0.223-0.168-0.383-0.376-0.434v-12.493
		c0.208-0.051,0.376-0.21,0.376-0.434c0-0.263-0.213-0.475-0.475-0.475c-0.204,0-0.346,0.145-0.413,0.326h-4.908
		C89.926,171.533,89.784,171.388,89.58,171.388z M90.756,172.013v6.478h0.299v-6.478h0.294v6.478h0.299v-6.478h0.294v6.478h0.299
		v-6.478h2.66c0.041,0.111,0.108,0.188,0.212,0.242v12.578c-0.104,0.054-0.171,0.131-0.212,0.242h-4.908
		c-0.048-0.128-0.135-0.215-0.263-0.263v-12.536c0.129-0.048,0.215-0.135,0.263-0.263H90.756z"/>
	<rect x="90.906" y="180.665" fill="#00B8FA" width="1.184" height="2.709"/>
</g>
<g>
	<path fill="#00B8FA" d="M110.936,170.285h-8.864v16.529h8.864V170.285z M102.371,186.515v-15.93h8.266v15.93H102.371z"/>
	<path fill="#00B8FA" d="M103.664,171.388c-0.262,0-0.475,0.213-0.475,0.475c0,0.204,0.145,0.345,0.325,0.413v12.536
		c-0.18,0.067-0.325,0.209-0.325,0.413c0,0.263,0.213,0.475,0.475,0.475c0.204,0,0.346-0.145,0.413-0.326h4.908
		c0.067,0.18,0.209,0.326,0.413,0.326c0.262,0,0.475-0.213,0.475-0.475c0-0.223-0.168-0.383-0.376-0.434v-12.493
		c0.208-0.051,0.376-0.21,0.376-0.434c0-0.263-0.213-0.475-0.475-0.475c-0.204,0-0.346,0.145-0.413,0.326h-4.908
		C104.009,171.533,103.868,171.388,103.664,171.388z M104.839,172.013v6.478h0.299v-6.478h0.294v6.478h0.299v-6.478h0.294v6.478
		h0.299v-6.478h2.66c0.041,0.111,0.108,0.188,0.212,0.242v12.578c-0.104,0.054-0.171,0.131-0.212,0.242h-4.908
		c-0.048-0.128-0.135-0.215-0.263-0.263v-12.536c0.129-0.048,0.215-0.135,0.263-0.263H104.839z"/>
	<rect x="104.989" y="180.665" fill="#00B8FA" width="1.184" height="2.709"/>
</g>
<g>
	<path fill="#00B8FA" d="M125.016,170.285h-8.864v16.529h8.864V170.285z M116.451,186.515v-15.93h8.266v15.93H116.451z"/>
	<path fill="#00B8FA" d="M117.744,171.388c-0.262,0-0.475,0.213-0.475,0.475c0,0.204,0.145,0.345,0.325,0.413v12.536
		c-0.18,0.067-0.325,0.209-0.325,0.413c0,0.263,0.213,0.475,0.475,0.475c0.204,0,0.346-0.145,0.413-0.326h4.908
		c0.067,0.18,0.209,0.326,0.413,0.326c0.262,0,0.475-0.213,0.475-0.475c0-0.223-0.168-0.383-0.376-0.434v-12.493
		c0.208-0.051,0.376-0.21,0.376-0.434c0-0.263-0.213-0.475-0.475-0.475c-0.204,0-0.346,0.145-0.413,0.326h-4.908
		C118.089,171.533,117.947,171.388,117.744,171.388z M118.919,172.013v6.478h0.299v-6.478h0.294v6.478h0.299v-6.478h0.294v6.478
		h0.299v-6.478h2.66c0.041,0.111,0.108,0.188,0.212,0.242v12.578c-0.104,0.054-0.171,0.131-0.212,0.242h-4.908
		c-0.048-0.128-0.135-0.215-0.263-0.263v-12.536c0.129-0.048,0.215-0.135,0.263-0.263H118.919z"/>
	<rect x="119.069" y="180.665" fill="#00B8FA" width="1.184" height="2.709"/>
</g>
<g>
	<path fill="#00B8FA" d="M139.095,170.285h-8.864v16.529h8.864V170.285z M130.531,186.515v-15.93h8.266v15.93H130.531z"/>
	<path fill="#00B8FA" d="M131.823,171.388c-0.262,0-0.475,0.213-0.475,0.475c0,0.204,0.145,0.345,0.325,0.413v12.536
		c-0.18,0.067-0.325,0.209-0.325,0.413c0,0.263,0.213,0.475,0.475,0.475c0.204,0,0.346-0.145,0.413-0.326h4.908
		c0.067,0.18,0.209,0.326,0.413,0.326c0.262,0,0.475-0.213,0.475-0.475c0-0.223-0.168-0.383-0.376-0.434v-12.493
		c0.208-0.051,0.376-0.21,0.376-0.434c0-0.263-0.213-0.475-0.475-0.475c-0.204,0-0.346,0.145-0.413,0.326h-4.908
		C132.169,171.533,132.027,171.388,131.823,171.388z M132.999,172.013v6.478h0.299v-6.478h0.294v6.478h0.299v-6.478h0.294v6.478
		h0.299v-6.478h2.66c0.041,0.111,0.108,0.188,0.212,0.242v12.578c-0.104,0.054-0.171,0.131-0.212,0.242h-4.908
		c-0.048-0.128-0.135-0.215-0.263-0.263v-12.536c0.129-0.048,0.215-0.135,0.263-0.263H132.999z"/>
	<rect x="133.148" y="180.665" fill="#00B8FA" width="1.184" height="2.709"/>
</g>
<g>
	<path fill="#00B8FA" d="M153.179,170.285h-8.864v16.529h8.864V170.285z M144.614,186.515v-15.93h8.266v15.93H144.614z"/>
	<path fill="#00B8FA" d="M145.907,171.388c-0.262,0-0.475,0.213-0.475,0.475c0,0.204,0.145,0.345,0.325,0.413v12.536
		c-0.18,0.067-0.325,0.209-0.325,0.413c0,0.263,0.213,0.475,0.475,0.475c0.204,0,0.346-0.145,0.413-0.326h4.908
		c0.067,0.18,0.209,0.326,0.413,0.326c0.262,0,0.475-0.213,0.475-0.475c0-0.223-0.168-0.383-0.376-0.434v-12.493
		c0.208-0.051,0.376-0.21,0.376-0.434c0-0.263-0.213-0.475-0.475-0.475c-0.204,0-0.346,0.145-0.413,0.326h-4.908
		C146.252,171.533,146.11,171.388,145.907,171.388z M147.082,172.013v6.478h0.299v-6.478h0.294v6.478h0.299v-6.478h0.294v6.478
		h0.299v-6.478h2.66c0.041,0.111,0.108,0.188,0.212,0.242v12.578c-0.104,0.054-0.171,0.131-0.212,0.242h-4.908
		c-0.048-0.128-0.135-0.215-0.263-0.263v-12.536c0.129-0.048,0.215-0.135,0.263-0.263H147.082z"/>
	<rect x="147.232" y="180.665" fill="#00B8FA" width="1.184" height="2.709"/>
</g>
<g>
	<path fill="#00B8FA" d="M167.259,170.285h-8.864v16.529h8.864V170.285z M158.694,186.515v-15.93h8.266v15.93H158.694z"/>
	<path fill="#00B8FA" d="M159.986,171.388c-0.262,0-0.475,0.213-0.475,0.475c0,0.204,0.145,0.345,0.325,0.413v12.536
		c-0.18,0.067-0.325,0.209-0.325,0.413c0,0.263,0.213,0.475,0.475,0.475c0.204,0,0.346-0.145,0.413-0.326h4.908
		c0.067,0.18,0.209,0.326,0.413,0.326c0.262,0,0.475-0.213,0.475-0.475c0-0.223-0.168-0.383-0.376-0.434v-12.493
		c0.208-0.051,0.376-0.21,0.376-0.434c0-0.263-0.213-0.475-0.475-0.475c-0.204,0-0.346,0.145-0.413,0.326h-4.908
		C160.332,171.533,160.19,171.388,159.986,171.388z M161.162,172.013v6.478h0.299v-6.478h0.294v6.478h0.299v-6.478h0.294v6.478
		h0.299v-6.478h2.66c0.041,0.111,0.108,0.188,0.212,0.242v12.578c-0.104,0.054-0.171,0.131-0.212,0.242h-4.908
		c-0.048-0.128-0.135-0.215-0.263-0.263v-12.536c0.129-0.048,0.215-0.135,0.263-0.263H161.162z"/>
	<rect x="161.312" y="180.665" fill="#00B8FA" width="1.184" height="2.709"/>
</g>
<g>
	<path fill="#4D4D4D" d="M92.104,115.87c-0.96,0-1.559,0.492-1.797,1.475h2.303v0.472h-2.366l-0.009,0.209v0.234l0.009,0.165h2.091
		v0.472h-2.018c0.111,0.439,0.32,0.779,0.625,1.02c0.306,0.241,0.714,0.361,1.226,0.361c0.47,0,0.935-0.081,1.395-0.242v0.549
		c-0.44,0.159-0.917,0.238-1.431,0.238c-0.713,0-1.288-0.164-1.723-0.492c-0.435-0.328-0.722-0.806-0.86-1.433h-0.75v-0.472h0.686
		l-0.009-0.154v-0.161l0.009-0.293h-0.686v-0.472h0.741c0.117-0.637,0.396-1.134,0.835-1.49c0.439-0.356,1.016-0.534,1.729-0.534
		c0.605,0,1.156,0.118,1.653,0.355l-0.321,0.509C92.937,115.975,92.493,115.87,92.104,115.87z"/>
</g>
<g>
	<path fill="#4D4D4D" d="M64.92,114.455c-1.23,0-1.998,0.63-2.302,1.89h2.95v0.605h-3.031l-0.012,0.267v0.3l0.012,0.211h2.679v0.605
		h-2.586c0.143,0.563,0.41,0.998,0.801,1.306c0.392,0.308,0.915,0.462,1.571,0.462c0.602,0,1.198-0.103,1.788-0.31v0.704
		c-0.563,0.203-1.174,0.305-1.834,0.305c-0.914,0-1.65-0.21-2.207-0.631c-0.557-0.421-0.925-1.033-1.102-1.836h-0.96v-0.605h0.879
		l-0.012-0.197v-0.206l0.012-0.375h-0.879v-0.605h0.949c0.15-0.816,0.507-1.453,1.07-1.909c0.563-0.456,1.302-0.685,2.216-0.685
		c0.775,0,1.481,0.152,2.117,0.455l-0.411,0.652C65.986,114.59,65.417,114.455,64.92,114.455z"/>
</g>
<g>
	<path fill="#4D4D4D" d="M51.33,113.665c-1.392,0-2.261,0.713-2.606,2.14h3.339v0.685h-3.431l-0.013,0.303v0.34l0.013,0.239h3.032
		v0.685h-2.927c0.161,0.637,0.464,1.13,0.907,1.478c0.443,0.349,1.036,0.523,1.778,0.523c0.681,0,1.355-0.117,2.023-0.351v0.796
		c-0.637,0.23-1.329,0.345-2.076,0.345c-1.034,0-1.867-0.238-2.498-0.714c-0.631-0.476-1.047-1.169-1.247-2.078h-1.087v-0.685h0.995
		l-0.013-0.223v-0.234l0.013-0.425h-0.995v-0.685h1.074c0.17-0.924,0.574-1.644,1.211-2.161c0.637-0.517,1.473-0.775,2.508-0.775
		c0.878,0,1.676,0.172,2.397,0.515l-0.465,0.738C52.537,113.817,51.894,113.665,51.33,113.665z"/>
</g>
<g>
	<path fill="#4D4D4D" d="M37.608,112.336c-1.608,0-2.612,0.824-3.01,2.471h3.857v0.791h-3.963l-0.015,0.35v0.392l0.015,0.276h3.502
		v0.791h-3.381c0.186,0.736,0.536,1.305,1.047,1.708c0.512,0.403,1.196,0.604,2.053,0.604c0.787,0,1.566-0.135,2.337-0.405v0.92
		c-0.736,0.266-1.535,0.399-2.397,0.399c-1.195,0-2.157-0.275-2.885-0.825c-0.729-0.55-1.209-1.35-1.441-2.401h-1.255v-0.791h1.149
		l-0.015-0.257v-0.27l0.015-0.491h-1.149v-0.791h1.24c0.197-1.067,0.663-1.899,1.399-2.496c0.736-0.597,1.702-0.895,2.896-0.895
		c1.014,0,1.936,0.198,2.768,0.595l-0.537,0.852C39.002,112.512,38.259,112.336,37.608,112.336z"/>
</g>
<g>
	<path fill="#4D4D4D" d="M24.178,111.789c-1.752,0-2.845,0.897-3.279,2.692h4.202v0.862h-4.317l-0.016,0.381v0.428l0.016,0.301
		h3.815v0.862h-3.683c0.203,0.802,0.584,1.422,1.141,1.86c0.558,0.439,1.303,0.658,2.237,0.658c0.857,0,1.706-0.147,2.546-0.441
		v1.002c-0.802,0.29-1.673,0.434-2.612,0.434c-1.302,0-2.349-0.299-3.143-0.899c-0.794-0.599-1.317-1.471-1.57-2.615h-1.368v-0.862
		h1.252l-0.016-0.28v-0.294l0.016-0.534h-1.252v-0.862h1.351c0.214-1.162,0.722-2.069,1.524-2.719
		c0.802-0.65,1.854-0.975,3.156-0.975c1.104,0,2.109,0.216,3.016,0.648l-0.585,0.929C25.697,111.98,24.887,111.789,24.178,111.789z"
		/>
</g>
<g>
	<path fill="#4D4D4D" d="M11.223,110.074c-2.046,0-3.322,1.048-3.829,3.144h4.907v1.006H7.259l-0.019,0.445v0.499l0.019,0.351h4.454
		v1.006H7.413c0.237,0.936,0.682,1.66,1.332,2.172c0.651,0.512,1.522,0.769,2.612,0.769c1.001,0,1.992-0.172,2.973-0.515v1.17
		c-0.937,0.338-1.953,0.507-3.05,0.507c-1.52,0-2.743-0.35-3.67-1.049c-0.927-0.699-1.538-1.717-1.833-3.054H4.181v-1.006h1.462
		l-0.019-0.328v-0.343l0.019-0.624H4.181v-1.006h1.578c0.25-1.357,0.843-2.416,1.78-3.175c0.936-0.759,2.165-1.139,3.685-1.139
		c1.289,0,2.463,0.252,3.521,0.757l-0.683,1.084C12.996,110.297,12.051,110.074,11.223,110.074z"/>
</g>
<g>
	<path fill="#4D4D4D" d="M78.453,115.154c-1.105,0-1.794,0.566-2.067,1.697h2.649v0.543h-2.722l-0.01,0.24v0.27l0.01,0.189h2.405
		v0.543h-2.322c0.128,0.505,0.368,0.896,0.719,1.173c0.352,0.277,0.822,0.415,1.41,0.415c0.54,0,1.075-0.093,1.605-0.278v0.632
		c-0.506,0.183-1.054,0.274-1.647,0.274c-0.821,0-1.481-0.189-1.982-0.567c-0.5-0.378-0.83-0.927-0.99-1.649H74.65v-0.543h0.789
		l-0.01-0.177v-0.185l0.01-0.337H74.65v-0.543h0.852c0.135-0.733,0.455-1.304,0.961-1.714c0.506-0.41,1.169-0.615,1.989-0.615
		c0.696,0,1.33,0.136,1.901,0.409l-0.369,0.585C79.41,115.275,78.9,115.154,78.453,115.154z"/>
</g>
<g>
	<path fill="#00B8FA" d="M12.867,61.625H4.002v44.531h8.864V61.625z M4.302,105.856V61.924h8.266v43.932H4.302z"/>
	<path fill="#00B8FA" d="M5.595,62.727c-0.262,0-0.475,0.213-0.475,0.475c0,0.204,0.145,0.345,0.325,0.413v40.537
		c-0.18,0.067-0.325,0.209-0.325,0.413c0,0.263,0.213,0.475,0.475,0.475c0.204,0,0.346-0.145,0.413-0.326h4.908
		c0.067,0.18,0.209,0.326,0.413,0.326c0.262,0,0.475-0.213,0.475-0.475c0-0.223-0.168-0.383-0.376-0.434V63.636
		c0.208-0.051,0.376-0.21,0.376-0.434c0-0.263-0.213-0.475-0.475-0.475c-0.204,0-0.346,0.145-0.413,0.326H6.008
		C5.94,62.872,5.798,62.727,5.595,62.727z M6.77,63.352v34.48H7.07v-34.48h0.294v34.48h0.299v-34.48h0.294v34.48h0.299v-34.48h2.66
		c0.041,0.111,0.108,0.188,0.212,0.242v40.58c-0.104,0.054-0.171,0.131-0.212,0.242H6.008c-0.048-0.128-0.135-0.215-0.263-0.263
		V63.615c0.129-0.048,0.215-0.135,0.263-0.263H6.77z"/>
	<rect x="6.92" y="100.006" fill="#00B8FA" width="1.184" height="2.709"/>
</g>
<g>
	<path fill="#00B8FA" d="M26.95,70.625h-8.864v35.53h8.864V70.625z M18.385,105.856V70.925h8.266v34.931H18.385z"/>
	<path fill="#00B8FA" d="M19.678,71.728c-0.262,0-0.475,0.213-0.475,0.475c0,0.204,0.145,0.345,0.325,0.413v31.537
		c-0.18,0.067-0.325,0.209-0.325,0.413c0,0.263,0.213,0.475,0.475,0.475c0.204,0,0.346-0.145,0.413-0.326h4.908
		c0.067,0.18,0.209,0.326,0.413,0.326c0.262,0,0.475-0.213,0.475-0.475c0-0.223-0.168-0.383-0.376-0.434V72.637
		c0.208-0.051,0.376-0.21,0.376-0.434c0-0.263-0.213-0.475-0.475-0.475c-0.204,0-0.346,0.145-0.413,0.326h-4.908
		C20.023,71.873,19.882,71.728,19.678,71.728z M20.853,72.353v25.48h0.299v-25.48h0.294v25.48h0.299v-25.48h0.294v25.48h0.299
		v-25.48h2.66c0.041,0.111,0.108,0.188,0.212,0.242v31.579c-0.104,0.054-0.171,0.131-0.212,0.242h-4.908
		c-0.048-0.128-0.135-0.215-0.263-0.263V72.616c0.129-0.048,0.215-0.135,0.263-0.263H20.853z"/>
	<rect x="21.003" y="100.006" fill="#00B8FA" width="1.184" height="2.709"/>
</g>
<g>
	<path fill="#00B8FA" d="M41.03,73.626h-8.864v32.53h8.864V73.626z M32.465,105.856V73.925h8.266v31.931H32.465z"/>
	<path fill="#00B8FA" d="M33.758,74.728c-0.262,0-0.475,0.213-0.475,0.475c0,0.204,0.145,0.345,0.325,0.413v28.537
		c-0.18,0.067-0.325,0.209-0.325,0.413c0,0.263,0.213,0.475,0.475,0.475c0.204,0,0.346-0.145,0.413-0.326h4.908
		c0.067,0.18,0.209,0.326,0.413,0.326c0.262,0,0.475-0.213,0.475-0.475c0-0.223-0.168-0.383-0.376-0.434V75.637
		c0.208-0.051,0.376-0.21,0.376-0.434c0-0.263-0.213-0.475-0.475-0.475c-0.204,0-0.346,0.145-0.413,0.326h-4.908
		C34.103,74.873,33.962,74.728,33.758,74.728z M34.933,75.353v22.479h0.299V75.353h0.294v22.479h0.299V75.353h0.294v22.479h0.299
		V75.353h2.66c0.041,0.111,0.108,0.188,0.212,0.242v28.579c-0.104,0.054-0.171,0.131-0.212,0.242h-4.908
		c-0.048-0.128-0.135-0.215-0.263-0.263V75.616c0.129-0.048,0.215-0.135,0.263-0.263H34.933z"/>
	<rect x="35.083" y="100.006" fill="#00B8FA" width="1.184" height="2.709"/>
</g>
<g>
	<path fill="#00B8FA" d="M55.11,77.626h-8.864v28.53h8.864V77.626z M46.545,105.856V77.925h8.266v27.931H46.545z"/>
	<path fill="#00B8FA" d="M47.837,78.728c-0.262,0-0.475,0.213-0.475,0.475c0,0.204,0.145,0.345,0.325,0.413v24.536
		c-0.18,0.067-0.325,0.209-0.325,0.413c0,0.263,0.213,0.475,0.475,0.475c0.204,0,0.346-0.145,0.413-0.326h4.908
		c0.067,0.18,0.209,0.326,0.413,0.326c0.262,0,0.475-0.213,0.475-0.475c0-0.223-0.168-0.383-0.376-0.434V79.637
		c0.208-0.051,0.376-0.21,0.376-0.434c0-0.263-0.213-0.475-0.475-0.475c-0.204,0-0.346,0.145-0.413,0.326H48.25
		C48.183,78.873,48.041,78.728,47.837,78.728z M49.013,79.353v18.479h0.299V79.353h0.294v18.479h0.299V79.353h0.294v18.479h0.299
		V79.353h2.66c0.041,0.111,0.108,0.188,0.212,0.242v24.579c-0.104,0.054-0.171,0.131-0.212,0.242H48.25
		c-0.048-0.128-0.135-0.215-0.263-0.263V79.616c0.129-0.048,0.215-0.135,0.263-0.263H49.013z"/>
	<rect x="49.163" y="100.006" fill="#00B8FA" width="1.184" height="2.709"/>
</g>
<g>
	<path fill="#00B8FA" d="M69.193,84.626h-8.864v21.529h8.864V84.626z M60.628,105.856v-20.93h8.266v20.93H60.628z"/>
	<path fill="#00B8FA" d="M61.921,85.728c-0.262,0-0.475,0.213-0.475,0.475c0,0.204,0.145,0.345,0.325,0.413v17.536
		c-0.18,0.067-0.325,0.209-0.325,0.413c0,0.263,0.213,0.475,0.475,0.475c0.204,0,0.346-0.145,0.413-0.326h4.908
		c0.067,0.18,0.209,0.326,0.413,0.326c0.262,0,0.475-0.213,0.475-0.475c0-0.223-0.168-0.383-0.376-0.434V86.638
		c0.208-0.051,0.376-0.21,0.376-0.434c0-0.263-0.213-0.475-0.475-0.475c-0.204,0-0.346,0.145-0.413,0.326h-4.908
		C62.266,85.874,62.125,85.728,61.921,85.728z M63.096,86.353v11.479h0.299V86.353h0.294v11.479h0.299V86.353h0.294v11.479h0.299
		V86.353h2.66c0.041,0.111,0.108,0.188,0.212,0.242v17.578c-0.104,0.054-0.171,0.131-0.212,0.242h-4.908
		c-0.048-0.128-0.135-0.215-0.263-0.263V86.617c0.129-0.048,0.215-0.135,0.263-0.263H63.096z"/>
	<rect x="63.246" y="100.006" fill="#00B8FA" width="1.184" height="2.709"/>
</g>
<g>
	<path fill="#00B8FA" d="M83.273,87.626h-8.864v18.529h8.864V87.626z M74.708,105.856v-17.93h8.266v17.93H74.708z"/>
	<path fill="#00B8FA" d="M76.001,88.729c-0.262,0-0.475,0.213-0.475,0.475c0,0.204,0.145,0.345,0.325,0.413v14.536
		c-0.18,0.067-0.325,0.209-0.325,0.413c0,0.263,0.213,0.475,0.475,0.475c0.204,0,0.346-0.145,0.413-0.326h4.908
		c0.067,0.18,0.209,0.326,0.413,0.326c0.262,0,0.475-0.213,0.475-0.475c0-0.223-0.168-0.383-0.376-0.434V89.638
		c0.208-0.051,0.376-0.21,0.376-0.434c0-0.263-0.213-0.475-0.475-0.475c-0.204,0-0.346,0.145-0.413,0.326h-4.908
		C76.346,88.874,76.204,88.729,76.001,88.729z M77.176,89.354v8.479h0.299v-8.479h0.294v8.479h0.299v-8.479h0.294v8.479h0.299
		v-8.479h2.66c0.041,0.111,0.108,0.188,0.212,0.242v14.578c-0.104,0.054-0.171,0.131-0.212,0.242h-4.908
		c-0.048-0.128-0.135-0.215-0.263-0.263V89.617c0.129-0.048,0.215-0.135,0.263-0.263H77.176z"/>
	<rect x="77.326" y="100.006" fill="#00B8FA" width="1.184" height="2.709"/>
</g>
<g>
	<path fill="#00B8FA" d="M97.353,92.627h-8.864v13.529h8.864V92.627z M88.788,105.856v-12.93h8.266v12.93H88.788z"/>
	<path fill="#00B8FA" d="M90.08,93.729c-0.262,0-0.475,0.213-0.475,0.475c0,0.204,0.145,0.345,0.325,0.413v9.535
		c-0.18,0.067-0.325,0.209-0.325,0.413c0,0.263,0.213,0.475,0.475,0.475c0.204,0,0.346-0.145,0.413-0.326h4.908
		c0.067,0.18,0.209,0.326,0.413,0.326c0.262,0,0.475-0.213,0.475-0.475c0-0.223-0.168-0.383-0.376-0.434v-9.493
		c0.208-0.051,0.376-0.21,0.376-0.434c0-0.263-0.213-0.475-0.475-0.475c-0.204,0-0.346,0.145-0.413,0.326h-4.908
		C90.426,93.874,90.284,93.729,90.08,93.729z M91.256,94.354v3.478h0.299v-3.478h0.294v3.478h0.299v-3.478h0.294v3.478h0.299v-3.478
		h2.66c0.041,0.111,0.108,0.188,0.212,0.242v9.578c-0.104,0.054-0.171,0.131-0.212,0.242h-4.908
		c-0.048-0.128-0.135-0.215-0.263-0.263v-9.535c0.129-0.048,0.215-0.135,0.263-0.263H91.256z"/>
	<rect x="91.406" y="100.006" fill="#00B8FA" width="1.184" height="2.709"/>
</g>
<g>
	<path fill="#00B8FA" d="M111.436,100.627h-8.864v5.528h8.864V100.627z M102.871,105.856v-4.929h8.266v4.929H102.871z"/>
	<path fill="#00B8FA" d="M104.164,101.729c-0.262,0-0.475,0.213-0.475,0.475c0,0.204,0.145,0.345,0.325,0.413v1.535
		c-0.18,0.067-0.325,0.209-0.325,0.413c0,0.263,0.213,0.475,0.475,0.475c0.204,0,0.346-0.145,0.413-0.326h4.908
		c0.067,0.18,0.209,0.326,0.413,0.326c0.262,0,0.475-0.213,0.475-0.475c0-0.223-0.168-0.383-0.376-0.434v-1.493
		c0.208-0.051,0.376-0.21,0.376-0.434c0-0.263-0.213-0.475-0.475-0.475c-0.204,0-0.346,0.145-0.413,0.326h-4.908
		C104.509,101.875,104.368,101.729,104.164,101.729z M105.339,102.354v1.478h0.299v-1.478h0.294v1.478h0.299v-1.478h0.294v1.478
		h0.299v-1.478h2.66c0.041,0.111,0.108,0.188,0.212,0.242v1.577c-0.104,0.054-0.171,0.131-0.212,0.242h-4.908
		c-0.048-0.128-0.135-0.215-0.263-0.263v-1.535c0.129-0.048,0.215-0.135,0.263-0.263H105.339z"/>
</g>
<g>
	<path fill="#00B8FA" d="M125.572,101.193h-8.864v4.963h8.864V101.193z M117.007,105.856v-4.364h8.266v4.364H117.007z"/>
	<path fill="#00B8FA" d="M118.299,102.295c-0.262,0-0.475,0.213-0.475,0.475c0,0.204,0.145,0.345,0.325,0.413v0.97
		c-0.18,0.067-0.325,0.209-0.325,0.413c0,0.263,0.213,0.475,0.475,0.475c0.204,0,0.346-0.145,0.413-0.326h4.908
		c0.067,0.18,0.209,0.326,0.413,0.326c0.262,0,0.475-0.213,0.475-0.475c0-0.223-0.168-0.383-0.376-0.434v-0.927
		c0.208-0.051,0.376-0.21,0.376-0.434c0-0.263-0.213-0.475-0.475-0.475c-0.204,0-0.346,0.145-0.413,0.326h-4.908
		C118.645,102.44,118.503,102.295,118.299,102.295z M119.475,102.92v0.913h0.299v-0.913h0.294v0.913h0.299v-0.913h0.294v0.913h0.299
		v-0.913h2.66c0.041,0.111,0.108,0.188,0.212,0.242v1.012c-0.104,0.054-0.171,0.131-0.212,0.242h-4.908
		c-0.048-0.128-0.135-0.215-0.263-0.263v-0.97c0.129-0.048,0.215-0.135,0.263-0.263H119.475z"/>
</g>
<g>
	<path fill="#4D4D4D" d="M133.026,117.707c-0.61,0-0.99,0.312-1.141,0.937h1.462v0.3h-1.502l-0.006,0.132v0.149l0.006,0.105h1.327
		v0.3h-1.281c0.071,0.279,0.203,0.495,0.397,0.647c0.194,0.153,0.453,0.229,0.778,0.229c0.298,0,0.593-0.051,0.886-0.153v0.349
		c-0.279,0.101-0.582,0.151-0.909,0.151c-0.453,0-0.817-0.104-1.094-0.313c-0.276-0.208-0.458-0.512-0.546-0.91h-0.476v-0.3h0.436
		l-0.006-0.098v-0.102l0.006-0.186h-0.436v-0.3h0.47c0.074-0.404,0.251-0.72,0.53-0.946c0.279-0.226,0.645-0.339,1.098-0.339
		c0.384,0,0.734,0.075,1.049,0.225l-0.204,0.323C133.554,117.774,133.272,117.707,133.026,117.707z"/>
</g>
<g>
	<path fill="#4D4D4D" d="M118.997,117.483c-0.663,0-1.076,0.339-1.24,1.018h1.589v0.326h-1.633l-0.006,0.144v0.162l0.006,0.114
		h1.443v0.326h-1.393c0.077,0.303,0.221,0.538,0.431,0.703c0.211,0.166,0.493,0.249,0.846,0.249c0.324,0,0.645-0.056,0.963-0.167
		v0.379c-0.303,0.11-0.632,0.164-0.988,0.164c-0.492,0-0.888-0.113-1.189-0.34c-0.3-0.227-0.498-0.556-0.594-0.989h-0.517v-0.326
		h0.473l-0.006-0.106v-0.111l0.006-0.202h-0.473v-0.326h0.511c0.081-0.44,0.273-0.782,0.576-1.028
		c0.303-0.246,0.701-0.369,1.193-0.369c0.418,0,0.798,0.082,1.14,0.245l-0.221,0.351
		C119.571,117.555,119.265,117.483,118.997,117.483z"/>
</g>
<g>
	<path fill="#4D4D4D" d="M104.972,117.465c-0.69,0-1.121,0.353-1.292,1.06h1.655v0.339h-1.701l-0.006,0.15v0.168l0.006,0.118h1.503
		v0.34h-1.451c0.08,0.316,0.23,0.56,0.449,0.733c0.22,0.173,0.513,0.259,0.881,0.259c0.338,0,0.672-0.058,1.003-0.174v0.395
		c-0.316,0.114-0.659,0.171-1.029,0.171c-0.513,0-0.925-0.118-1.238-0.354c-0.313-0.236-0.519-0.579-0.618-1.03h-0.539v-0.34h0.493
		l-0.006-0.11v-0.116l0.006-0.211h-0.493v-0.339h0.532c0.084-0.458,0.285-0.815,0.6-1.071c0.316-0.256,0.73-0.384,1.243-0.384
		c0.435,0,0.831,0.085,1.188,0.255l-0.23,0.366C105.571,117.541,105.252,117.465,104.972,117.465z"/>
</g>
<g>
	<path fill="#00B8FA" d="M139.597,101.627h-8.864v4.528h8.864V101.627z M131.032,105.856v-3.929h8.266v3.929H131.032z"/>
	<path fill="#00B8FA" d="M132.325,102.73c-0.262,0-0.475,0.213-0.475,0.475c0,0.204,0.145,0.345,0.325,0.413v0.535
		c-0.18,0.067-0.325,0.209-0.325,0.413c0,0.263,0.213,0.475,0.475,0.475c0.204,0,0.346-0.145,0.413-0.326h4.908
		c0.067,0.18,0.209,0.326,0.413,0.326c0.262,0,0.475-0.213,0.475-0.475c0-0.223-0.168-0.383-0.376-0.434v-0.493
		c0.208-0.051,0.376-0.21,0.376-0.434c0-0.263-0.213-0.475-0.475-0.475c-0.204,0-0.346,0.145-0.413,0.326h-4.908
		C132.671,102.875,132.529,102.73,132.325,102.73z M133.501,103.354v0.478h0.299v-0.478h0.294v0.478h0.299v-0.478h0.294v0.478h0.299
		v-0.478h2.66c0.041,0.111,0.108,0.188,0.212,0.242v0.577c-0.104,0.054-0.171,0.131-0.212,0.242h-4.908
		c-0.048-0.128-0.135-0.215-0.263-0.263v-0.535c0.129-0.048,0.215-0.135,0.263-0.263H133.501z"/>
</g>
<g>
	<path fill="#00B8FA" d="M153.679,104.628h-8.864v1.528h8.864V104.628z M145.114,105.856v-0.929h8.266v0.929H145.114z"/>
</g>
<g>
	<path fill="#00B8FA" d="M167.762,105.85h-8.864v0.305h8.864V105.85z M159.197,105.856v0.293h8.266v-0.293H159.197z"/>
</g>
<g>
	<path fill="#4D4D4D" d="M146.645,118.318c-0.487,0-0.791,0.25-0.912,0.749h1.169v0.24H145.7l-0.005,0.106v0.119l0.005,0.084h1.061
		v0.24h-1.025c0.057,0.223,0.162,0.396,0.317,0.518c0.155,0.122,0.363,0.183,0.622,0.183c0.238,0,0.474-0.041,0.708-0.123v0.279
		c-0.223,0.081-0.465,0.121-0.727,0.121c-0.362,0-0.654-0.083-0.874-0.25c-0.221-0.167-0.366-0.409-0.437-0.728h-0.38v-0.24h0.348
		l-0.005-0.078v-0.082l0.005-0.149h-0.348v-0.24h0.376c0.06-0.323,0.201-0.575,0.424-0.756c0.223-0.181,0.516-0.271,0.878-0.271
		c0.307,0,0.587,0.06,0.839,0.18l-0.163,0.258C147.067,118.371,146.842,118.318,146.645,118.318z"/>
</g>
<g>
	<path fill="#4D4D4D" d="M8.671,190.716c-1.382,0.005-2.241,0.716-2.578,2.132l3.313-0.012l0.002,0.679l-3.404,0.012l-0.012,0.3
		l0.001,0.337l0.014,0.237l3.008-0.011l0.002,0.68l-2.904,0.011c0.162,0.631,0.464,1.119,0.905,1.464
		c0.441,0.344,1.029,0.515,1.766,0.512c0.676-0.002,1.344-0.121,2.006-0.355l0.003,0.79c-0.632,0.231-1.318,0.347-2.058,0.35
		c-1.026,0.004-1.853-0.229-2.481-0.699c-0.628-0.47-1.043-1.156-1.245-2.057l-1.078,0.004l-0.002-0.68l0.987-0.004l-0.014-0.221
		l-0.001-0.232l0.011-0.421l-0.987,0.004l-0.002-0.679l1.065-0.004c0.165-0.917,0.563-1.633,1.194-2.148
		c0.63-0.515,1.459-0.774,2.485-0.778c0.871-0.003,1.664,0.164,2.38,0.502l-0.459,0.734C9.869,190.862,9.23,190.714,8.671,190.716z"
		/>
</g>
<g>
	<path fill="#4D4D4D" d="M22.421,190.716c-1.382,0.005-2.241,0.716-2.578,2.132l3.313-0.012l0.002,0.679l-3.404,0.012l-0.012,0.3
		l0.001,0.337l0.014,0.237l3.008-0.011l0.002,0.68l-2.904,0.011c0.162,0.631,0.464,1.119,0.905,1.464
		c0.441,0.344,1.029,0.515,1.766,0.512c0.676-0.002,1.344-0.121,2.006-0.355l0.003,0.79c-0.632,0.231-1.318,0.347-2.058,0.35
		c-1.026,0.004-1.853-0.229-2.481-0.699c-0.628-0.47-1.043-1.156-1.245-2.057l-1.078,0.004l-0.002-0.68l0.987-0.004l-0.014-0.221
		l-0.001-0.232l0.011-0.421l-0.987,0.004l-0.002-0.679l1.065-0.004c0.165-0.917,0.564-1.633,1.194-2.148
		c0.63-0.515,1.459-0.774,2.485-0.778c0.871-0.003,1.664,0.164,2.38,0.502l-0.459,0.734
		C23.619,190.862,22.98,190.714,22.421,190.716z"/>
</g>
<g>
	<path fill="#4D4D4D" d="M36.734,190.716c-1.382,0.005-2.241,0.716-2.578,2.132l3.313-0.012l0.002,0.679l-3.404,0.012l-0.012,0.3
		l0.001,0.337l0.014,0.237l3.008-0.011l0.002,0.68l-2.904,0.011c0.162,0.631,0.464,1.119,0.905,1.464
		c0.441,0.344,1.029,0.515,1.766,0.512c0.676-0.002,1.344-0.121,2.006-0.355l0.003,0.79c-0.632,0.231-1.318,0.347-2.058,0.35
		c-1.026,0.004-1.853-0.229-2.481-0.699c-0.628-0.47-1.043-1.156-1.245-2.057l-1.078,0.004l-0.002-0.68l0.987-0.004l-0.014-0.221
		l-0.001-0.232l0.011-0.421l-0.987,0.004l-0.002-0.679l1.065-0.004c0.165-0.917,0.563-1.633,1.194-2.148
		c0.63-0.515,1.459-0.774,2.485-0.778c0.871-0.003,1.664,0.164,2.38,0.502l-0.459,0.734
		C37.932,190.862,37.292,190.714,36.734,190.716z"/>
</g>
<g>
	<path fill="#4D4D4D" d="M50.484,190.716c-1.382,0.005-2.241,0.716-2.578,2.132l3.313-0.012l0.002,0.679l-3.404,0.012l-0.012,0.3
		l0.001,0.337l0.014,0.237l3.008-0.011l0.002,0.68l-2.904,0.011c0.162,0.631,0.464,1.119,0.905,1.464
		c0.441,0.344,1.029,0.515,1.766,0.512c0.676-0.002,1.344-0.121,2.006-0.355l0.003,0.79c-0.632,0.231-1.318,0.347-2.058,0.35
		c-1.026,0.004-1.853-0.229-2.481-0.699c-0.628-0.47-1.043-1.156-1.245-2.057l-1.078,0.004l-0.002-0.68l0.987-0.004l-0.014-0.221
		l-0.001-0.232l0.011-0.421l-0.987,0.004l-0.002-0.679l1.065-0.004c0.165-0.917,0.563-1.633,1.194-2.148
		c0.63-0.515,1.459-0.774,2.485-0.778c0.871-0.003,1.664,0.164,2.38,0.502l-0.459,0.734
		C51.682,190.862,51.042,190.714,50.484,190.716z"/>
</g>
<g>
	<path fill="#4D4D4D" d="M64.504,190.716c-1.382,0.005-2.241,0.716-2.578,2.132l3.313-0.012l0.002,0.679l-3.404,0.012l-0.012,0.3
		l0.001,0.337l0.014,0.237l3.008-0.011l0.002,0.68l-2.904,0.011c0.162,0.631,0.464,1.119,0.905,1.464
		c0.441,0.344,1.029,0.515,1.766,0.512c0.676-0.002,1.344-0.121,2.006-0.355l0.003,0.79c-0.632,0.231-1.317,0.347-2.058,0.35
		c-1.026,0.004-1.853-0.229-2.481-0.699c-0.628-0.47-1.043-1.156-1.245-2.057l-1.078,0.004l-0.002-0.68l0.987-0.004l-0.014-0.221
		l-0.001-0.232l0.011-0.421l-0.987,0.004l-0.002-0.679l1.065-0.004c0.165-0.917,0.564-1.633,1.194-2.148
		c0.63-0.515,1.459-0.774,2.485-0.778c0.871-0.003,1.664,0.164,2.38,0.502l-0.459,0.734
		C65.702,190.862,65.063,190.714,64.504,190.716z"/>
</g>
<g>
	<path fill="#4D4D4D" d="M78.254,190.716c-1.382,0.005-2.241,0.716-2.578,2.132l3.313-0.012l0.002,0.679l-3.404,0.012l-0.012,0.3
		l0.001,0.337l0.014,0.237l3.008-0.011l0.002,0.68l-2.904,0.011c0.162,0.631,0.464,1.119,0.905,1.464
		c0.441,0.344,1.029,0.515,1.766,0.512c0.676-0.002,1.344-0.121,2.006-0.355l0.003,0.79c-0.632,0.231-1.317,0.347-2.058,0.35
		c-1.026,0.004-1.853-0.229-2.481-0.699c-0.628-0.47-1.043-1.156-1.245-2.057l-1.078,0.004l-0.002-0.68l0.987-0.004l-0.014-0.221
		l-0.001-0.232l0.011-0.421l-0.987,0.004l-0.002-0.679l1.065-0.004c0.165-0.917,0.563-1.633,1.194-2.148
		c0.63-0.515,1.459-0.774,2.485-0.778c0.871-0.003,1.664,0.164,2.38,0.502l-0.459,0.734
		C79.452,190.862,78.813,190.714,78.254,190.716z"/>
</g>
<g>
	<path fill="#4D4D4D" d="M92.567,190.716c-1.382,0.005-2.241,0.716-2.578,2.132l3.313-0.012l0.002,0.679l-3.404,0.012l-0.012,0.3
		l0.001,0.337l0.014,0.237l3.008-0.011l0.002,0.68l-2.904,0.011c0.162,0.631,0.464,1.119,0.905,1.464
		c0.441,0.344,1.029,0.515,1.766,0.512c0.676-0.002,1.344-0.121,2.006-0.355l0.003,0.79c-0.632,0.231-1.317,0.347-2.058,0.35
		c-1.026,0.004-1.853-0.229-2.481-0.699c-0.628-0.47-1.043-1.156-1.245-2.057l-1.078,0.004l-0.002-0.68l0.987-0.004l-0.014-0.221
		l-0.001-0.232l0.011-0.421l-0.987,0.004l-0.002-0.679l1.065-0.004c0.165-0.917,0.563-1.633,1.194-2.148
		c0.63-0.515,1.459-0.774,2.485-0.778c0.871-0.003,1.664,0.164,2.38,0.502l-0.459,0.734
		C93.765,190.862,93.126,190.714,92.567,190.716z"/>
</g>
<g>
	<path fill="#4D4D4D" d="M106.317,190.716c-1.382,0.005-2.241,0.716-2.578,2.132l3.313-0.012l0.002,0.679l-3.404,0.012l-0.012,0.3
		l0.001,0.337l0.014,0.237l3.008-0.011l0.002,0.68l-2.904,0.011c0.162,0.631,0.464,1.119,0.905,1.464
		c0.441,0.344,1.029,0.515,1.766,0.512c0.676-0.002,1.344-0.121,2.006-0.355l0.003,0.79c-0.632,0.231-1.317,0.347-2.058,0.35
		c-1.026,0.004-1.853-0.229-2.481-0.699c-0.628-0.47-1.043-1.156-1.245-2.057l-1.078,0.004l-0.002-0.68l0.987-0.004l-0.014-0.221
		l-0.001-0.232l0.011-0.421l-0.987,0.004l-0.002-0.679l1.065-0.004c0.165-0.917,0.563-1.633,1.194-2.148
		c0.63-0.515,1.459-0.774,2.485-0.778c0.871-0.003,1.664,0.164,2.38,0.502l-0.459,0.734
		C107.515,190.862,106.876,190.714,106.317,190.716z"/>
</g>
<g>
	<path fill="#4D4D4D" d="M120.879,190.716c-1.382,0.005-2.241,0.716-2.578,2.132l3.313-0.012l0.002,0.679l-3.404,0.012l-0.012,0.3
		l0.001,0.337l0.014,0.237l3.008-0.011l0.002,0.68l-2.904,0.011c0.162,0.631,0.464,1.119,0.905,1.464
		c0.441,0.344,1.029,0.515,1.766,0.512c0.676-0.002,1.344-0.121,2.006-0.355l0.003,0.79c-0.632,0.231-1.317,0.347-2.058,0.35
		c-1.026,0.004-1.853-0.229-2.481-0.699c-0.628-0.47-1.043-1.156-1.245-2.057l-1.078,0.004l-0.002-0.68l0.987-0.004l-0.014-0.221
		l-0.001-0.232l0.011-0.421l-0.987,0.004l-0.002-0.679l1.065-0.004c0.165-0.917,0.563-1.633,1.194-2.148
		c0.63-0.515,1.459-0.774,2.485-0.778c0.871-0.003,1.664,0.164,2.38,0.502l-0.459,0.734
		C122.077,190.862,121.438,190.714,120.879,190.716z"/>
</g>
<g>
	<path fill="#4D4D4D" d="M134.629,190.716c-1.382,0.005-2.241,0.716-2.578,2.132l3.313-0.012l0.002,0.679l-3.404,0.012l-0.012,0.3
		l0.001,0.337l0.014,0.237l3.008-0.011l0.002,0.68l-2.904,0.011c0.162,0.631,0.464,1.119,0.905,1.464
		c0.441,0.344,1.029,0.515,1.766,0.512c0.676-0.002,1.344-0.121,2.006-0.355l0.003,0.79c-0.632,0.231-1.318,0.347-2.058,0.35
		c-1.026,0.004-1.853-0.229-2.481-0.699c-0.628-0.47-1.043-1.156-1.245-2.057l-1.078,0.004l-0.002-0.68l0.987-0.004l-0.014-0.221
		l-0.001-0.232l0.011-0.421l-0.987,0.004l-0.002-0.679l1.065-0.004c0.165-0.917,0.563-1.633,1.194-2.148
		c0.63-0.515,1.459-0.774,2.485-0.778c0.871-0.003,1.664,0.164,2.38,0.502l-0.459,0.734
		C135.827,190.862,135.188,190.714,134.629,190.716z"/>
</g>
<g>
	<path fill="#4D4D4D" d="M148.942,190.716c-1.382,0.005-2.241,0.716-2.578,2.132l3.313-0.012l0.002,0.679l-3.404,0.012l-0.012,0.3
		l0.001,0.337l0.014,0.237l3.008-0.011l0.002,0.68l-2.904,0.011c0.162,0.631,0.464,1.119,0.905,1.464
		c0.441,0.344,1.029,0.515,1.766,0.512c0.676-0.002,1.344-0.121,2.006-0.355l0.003,0.79c-0.632,0.231-1.318,0.347-2.058,0.35
		c-1.026,0.004-1.853-0.229-2.481-0.699c-0.628-0.47-1.043-1.156-1.245-2.057l-1.078,0.004l-0.002-0.68l0.987-0.004l-0.014-0.221
		l-0.001-0.232l0.011-0.421l-0.987,0.004l-0.002-0.679l1.065-0.004c0.165-0.917,0.563-1.633,1.194-2.148
		c0.63-0.515,1.459-0.774,2.485-0.778c0.871-0.003,1.664,0.164,2.38,0.502l-0.459,0.734
		C150.14,190.862,149.501,190.714,148.942,190.716z"/>
</g>
<g>
	<path fill="#4D4D4D" d="M162.692,190.716c-1.382,0.005-2.241,0.716-2.578,2.132l3.313-0.012l0.002,0.679l-3.404,0.012l-0.012,0.3
		l0.001,0.337l0.014,0.237l3.008-0.011l0.002,0.68l-2.904,0.011c0.162,0.631,0.464,1.119,0.905,1.464
		c0.441,0.344,1.029,0.515,1.766,0.512c0.676-0.002,1.344-0.121,2.006-0.355l0.003,0.79c-0.632,0.231-1.318,0.347-2.058,0.35
		c-1.026,0.004-1.853-0.229-2.481-0.699c-0.628-0.47-1.043-1.156-1.245-2.057l-1.078,0.004l-0.002-0.68l0.987-0.004l-0.014-0.221
		l-0.001-0.232l0.011-0.421l-0.987,0.004l-0.002-0.679l1.065-0.004c0.165-0.917,0.563-1.633,1.194-2.148
		c0.63-0.515,1.459-0.774,2.485-0.778c0.871-0.003,1.664,0.164,2.38,0.502l-0.459,0.734
		C163.89,190.862,163.251,190.714,162.692,190.716z"/>
</g>
<g>
	<g>
		<path fill="#4D4D4D" d="M64.665,153.391v-5.536h0.616v5.536H64.665z"/>
		<path fill="#4D4D4D" d="M67.129,153.391h-0.6v-4h0.592v0.28c0.432-0.24,0.846-0.36,1.24-0.36c0.533,0,0.892,0.145,1.076,0.432
			c0.184,0.288,0.275,0.801,0.275,1.536v2.112h-0.592v-2.096c0-0.555-0.055-0.935-0.164-1.141c-0.109-0.205-0.343-0.308-0.7-0.308
			c-0.171,0-0.351,0.025-0.54,0.076s-0.334,0.1-0.436,0.147l-0.152,0.072V153.391z"/>
		<path fill="#4D4D4D" d="M70.409,149.391h0.64l0.937,3.48h0.296l0.968-3.48h0.616l-1.128,4h-1.2L70.409,149.391z"/>
		<path fill="#4D4D4D" d="M77.281,152.895l0.232-0.023l0.016,0.472c-0.608,0.085-1.128,0.128-1.56,0.128
			c-0.576,0-0.984-0.167-1.225-0.5s-0.359-0.853-0.359-1.556c0-1.403,0.557-2.104,1.672-2.104c0.538,0,0.941,0.15,1.208,0.452
			s0.399,0.774,0.399,1.42l-0.031,0.456h-2.641c0,0.442,0.08,0.771,0.24,0.984c0.16,0.213,0.438,0.319,0.836,0.319
			S76.87,152.927,77.281,152.895z M77.065,151.158c0-0.49-0.079-0.837-0.236-1.04c-0.157-0.202-0.413-0.304-0.768-0.304
			s-0.621,0.106-0.8,0.32c-0.179,0.213-0.271,0.555-0.276,1.023H77.065z"/>
		<path fill="#4D4D4D" d="M79.857,149.847c-0.581,0-0.872,0.203-0.872,0.608c0,0.187,0.066,0.318,0.2,0.396
			c0.133,0.077,0.438,0.157,0.912,0.24s0.811,0.198,1.008,0.348s0.296,0.43,0.296,0.84c0,0.411-0.132,0.712-0.396,0.904
			c-0.265,0.192-0.649,0.288-1.156,0.288c-0.331,0-0.721-0.037-1.168-0.112l-0.24-0.04l0.032-0.52
			c0.607,0.091,1.066,0.136,1.376,0.136c0.309,0,0.545-0.049,0.708-0.147c0.162-0.099,0.244-0.265,0.244-0.496
			c0-0.232-0.069-0.39-0.208-0.473c-0.139-0.082-0.443-0.161-0.912-0.235c-0.47-0.075-0.803-0.185-1-0.328
			c-0.197-0.145-0.296-0.411-0.296-0.8c0-0.39,0.137-0.678,0.412-0.864c0.274-0.187,0.617-0.28,1.027-0.28
			c0.325,0,0.733,0.037,1.225,0.112l0.224,0.04l-0.016,0.512C80.665,149.89,80.198,149.847,79.857,149.847z"/>
		<path fill="#4D4D4D" d="M84.394,149.91h-1.272v1.912c0,0.459,0.033,0.761,0.1,0.904c0.067,0.145,0.226,0.216,0.477,0.216
			l0.712-0.048l0.04,0.496c-0.357,0.059-0.63,0.088-0.816,0.088c-0.416,0-0.704-0.102-0.863-0.304c-0.16-0.203-0.24-0.59-0.24-1.16
			v-2.104h-0.568v-0.52h0.568v-1.224h0.592v1.224h1.272V149.91z"/>
		<path fill="#4D4D4D" d="M85.129,148.486v-0.695h0.6v0.695H85.129z M85.129,153.391v-4h0.6v4H85.129z"/>
		<path fill="#4D4D4D" d="M88.953,149.91h-1.272v1.912c0,0.459,0.033,0.761,0.1,0.904c0.067,0.145,0.226,0.216,0.477,0.216
			l0.712-0.048l0.04,0.496c-0.357,0.059-0.63,0.088-0.816,0.088c-0.416,0-0.704-0.102-0.863-0.304c-0.16-0.203-0.24-0.59-0.24-1.16
			v-2.104h-0.568v-0.52h0.568v-1.224h0.592v1.224h1.272V149.91z"/>
		<path fill="#4D4D4D" d="M89.689,148.486v-0.695h0.6v0.695H89.689z M89.689,153.391v-4h0.6v4H89.689z"/>
		<path fill="#4D4D4D" d="M91.266,151.383c0-0.73,0.13-1.259,0.392-1.584s0.702-0.488,1.324-0.488c0.621,0,1.062,0.163,1.319,0.488
			c0.259,0.325,0.389,0.854,0.389,1.584s-0.123,1.261-0.368,1.592s-0.693,0.496-1.344,0.496c-0.651,0-1.099-0.165-1.345-0.496
			C91.388,152.644,91.266,152.113,91.266,151.383z M91.881,151.371c0,0.584,0.071,0.993,0.212,1.228
			c0.142,0.234,0.438,0.352,0.889,0.352c0.45,0,0.745-0.115,0.884-0.348c0.139-0.231,0.208-0.642,0.208-1.228
			c0-0.587-0.077-0.991-0.232-1.212c-0.154-0.222-0.441-0.332-0.859-0.332c-0.419,0-0.707,0.11-0.864,0.332
			C91.96,150.384,91.881,150.787,91.881,151.371z"/>
		<path fill="#4D4D4D" d="M96.265,153.391h-0.6v-4h0.592v0.28c0.432-0.24,0.846-0.36,1.24-0.36c0.533,0,0.892,0.145,1.076,0.432
			c0.184,0.288,0.275,0.801,0.275,1.536v2.112h-0.592v-2.096c0-0.555-0.055-0.935-0.164-1.141c-0.109-0.205-0.343-0.308-0.7-0.308
			c-0.171,0-0.351,0.025-0.54,0.076s-0.334,0.1-0.436,0.147l-0.152,0.072V153.391z"/>
		<path fill="#4D4D4D" d="M101.721,148.486v-0.695h0.6v0.695H101.721z M101.721,153.391v-4h0.6v4H101.721z"/>
		<path fill="#4D4D4D" d="M104.072,153.391h-0.6v-4h0.592v0.28c0.432-0.24,0.846-0.36,1.24-0.36c0.533,0,0.892,0.145,1.076,0.432
			c0.184,0.288,0.275,0.801,0.275,1.536v2.112h-0.592v-2.096c0-0.555-0.055-0.935-0.164-1.141c-0.109-0.205-0.343-0.308-0.7-0.308
			c-0.171,0-0.351,0.025-0.54,0.076s-0.334,0.1-0.436,0.147l-0.152,0.072V153.391z"/>
		<path fill="#4D4D4D" d="M112.064,148.11v5.28h-0.616v-4.592l-1.36,0.896l-0.279-0.464l1.68-1.12H112.064z"/>
		<path fill="#4D4D4D" d="M117.36,153.391h-3.376v-0.52l1.544-1.624c0.267-0.277,0.462-0.488,0.584-0.633
			c0.123-0.144,0.233-0.314,0.332-0.512s0.148-0.395,0.148-0.592c0-0.342-0.094-0.581-0.28-0.72s-0.478-0.208-0.872-0.208
			c-0.347,0-0.733,0.045-1.16,0.136l-0.208,0.04l-0.048-0.512c0.507-0.145,1.029-0.217,1.568-0.217c0.538,0,0.945,0.113,1.22,0.341
			c0.274,0.227,0.412,0.585,0.412,1.075c0,0.374-0.083,0.699-0.248,0.977s-0.451,0.61-0.855,1l-1.408,1.432h2.647V153.391z"/>
		<path fill="#4D4D4D" d="M121.793,155.271c-0.64,0-1.087-0.087-1.34-0.26c-0.254-0.174-0.38-0.489-0.38-0.948
			c0-0.219,0.048-0.396,0.144-0.532c0.096-0.136,0.259-0.289,0.488-0.46c-0.149-0.101-0.225-0.285-0.225-0.552
			c0-0.091,0.067-0.259,0.2-0.504l0.072-0.128c-0.422-0.192-0.632-0.595-0.632-1.208c0-0.912,0.498-1.368,1.496-1.368
			c0.256,0,0.493,0.026,0.712,0.08l0.12,0.024l1.184-0.032v0.512l-0.76-0.016c0.176,0.176,0.264,0.442,0.264,0.8
			c0,0.501-0.124,0.852-0.372,1.052s-0.639,0.3-1.172,0.3c-0.144,0-0.274-0.011-0.392-0.031c-0.097,0.234-0.145,0.387-0.145,0.456
			c0,0.165,0.051,0.268,0.152,0.308s0.408,0.06,0.92,0.06s0.88,0.08,1.104,0.24c0.225,0.16,0.337,0.472,0.337,0.937
			C123.569,154.847,122.977,155.271,121.793,155.271z M120.665,154.015c0,0.282,0.078,0.479,0.235,0.588s0.448,0.164,0.872,0.164
			c0.425,0,0.729-0.059,0.912-0.176c0.185-0.117,0.276-0.313,0.276-0.588c0-0.275-0.066-0.452-0.2-0.532
			c-0.133-0.08-0.395-0.12-0.784-0.12l-0.863-0.04c-0.177,0.128-0.295,0.24-0.356,0.336S120.665,153.865,120.665,154.015z
			 M120.721,150.679c0,0.314,0.07,0.539,0.212,0.672c0.142,0.134,0.375,0.2,0.7,0.2s0.558-0.066,0.696-0.2
			c0.139-0.133,0.208-0.358,0.208-0.676s-0.069-0.543-0.208-0.676c-0.139-0.134-0.371-0.2-0.696-0.2s-0.559,0.067-0.7,0.204
			C120.791,150.139,120.721,150.364,120.721,150.679z"/>
		<path fill="#4D4D4D" d="M124.408,153.391v-5.744h0.6v5.744H124.408z"/>
		<path fill="#4D4D4D" d="M128.928,152.895l0.232-0.023l0.016,0.472c-0.608,0.085-1.128,0.128-1.56,0.128
			c-0.576,0-0.984-0.167-1.225-0.5s-0.359-0.853-0.359-1.556c0-1.403,0.557-2.104,1.672-2.104c0.538,0,0.941,0.15,1.208,0.452
			s0.399,0.774,0.399,1.42l-0.031,0.456h-2.641c0,0.442,0.08,0.771,0.24,0.984c0.16,0.213,0.438,0.319,0.836,0.319
			S128.517,152.927,128.928,152.895z M128.712,151.158c0-0.49-0.079-0.837-0.236-1.04c-0.157-0.202-0.413-0.304-0.768-0.304
			s-0.621,0.106-0.8,0.32c-0.179,0.213-0.271,0.555-0.276,1.023H128.712z"/>
		<path fill="#4D4D4D" d="M130.248,148.486v-0.695h0.6v0.695H130.248z M130.248,153.391v-4h0.6v4H130.248z"/>
		<path fill="#4D4D4D" d="M133.496,149.311c0.176,0,0.475,0.032,0.896,0.096l0.192,0.024l-0.024,0.488
			c-0.427-0.048-0.741-0.072-0.943-0.072c-0.454,0-0.762,0.108-0.925,0.324c-0.162,0.216-0.243,0.616-0.243,1.2
			s0.075,0.99,0.228,1.22s0.468,0.344,0.948,0.344l0.943-0.072l0.024,0.496c-0.496,0.075-0.867,0.112-1.112,0.112
			c-0.624,0-1.055-0.16-1.292-0.48c-0.237-0.319-0.355-0.859-0.355-1.619c0-0.761,0.128-1.294,0.384-1.601
			S132.898,149.311,133.496,149.311z"/>
		<path fill="#4D4D4D" d="M136.088,153.391h-0.6v-5.744h0.6v1.968c0.427-0.202,0.838-0.304,1.232-0.304
			c0.533,0,0.892,0.145,1.076,0.432c0.184,0.288,0.275,0.801,0.275,1.536v2.112h-0.6v-2.096c0-0.555-0.055-0.935-0.164-1.141
			c-0.109-0.205-0.34-0.308-0.692-0.308c-0.336,0-0.661,0.062-0.976,0.184l-0.152,0.057V153.391z"/>
		<path fill="#4D4D4D" d="M142.504,152.895l0.232-0.023l0.016,0.472c-0.608,0.085-1.128,0.128-1.56,0.128
			c-0.576,0-0.984-0.167-1.225-0.5s-0.359-0.853-0.359-1.556c0-1.403,0.557-2.104,1.672-2.104c0.538,0,0.941,0.15,1.208,0.452
			s0.399,0.774,0.399,1.42l-0.031,0.456h-2.641c0,0.442,0.08,0.771,0.24,0.984c0.16,0.213,0.438,0.319,0.836,0.319
			S142.093,152.927,142.504,152.895z M142.288,151.158c0-0.49-0.079-0.837-0.236-1.04c-0.157-0.202-0.413-0.304-0.768-0.304
			s-0.621,0.106-0.8,0.32c-0.179,0.213-0.271,0.555-0.276,1.023H142.288z"/>
		<path fill="#4D4D4D" d="M145.111,148.406v-0.552h4v0.552h-1.688v4.984h-0.608v-4.984H145.111z"/>
		<path fill="#4D4D4D" d="M151.783,152.895l0.232-0.023l0.016,0.472c-0.608,0.085-1.128,0.128-1.56,0.128
			c-0.576,0-0.984-0.167-1.225-0.5s-0.359-0.853-0.359-1.556c0-1.403,0.557-2.104,1.672-2.104c0.538,0,0.941,0.15,1.208,0.452
			s0.399,0.774,0.399,1.42l-0.031,0.456h-2.641c0,0.442,0.08,0.771,0.24,0.984c0.16,0.213,0.438,0.319,0.836,0.319
			S151.372,152.927,151.783,152.895z M151.567,151.158c0-0.49-0.079-0.837-0.236-1.04c-0.157-0.202-0.413-0.304-0.768-0.304
			s-0.621,0.106-0.8,0.32c-0.179,0.213-0.271,0.555-0.276,1.023H151.567z"/>
		<path fill="#4D4D4D" d="M153.104,148.486v-0.695h0.6v0.695H153.104z M153.104,153.391v-4h0.6v4H153.104z"/>
		<path fill="#4D4D4D" d="M154.903,153.391v-5.744h0.6v5.744H154.903z"/>
		<path fill="#4D4D4D" d="M159.424,152.895l0.232-0.023l0.016,0.472c-0.608,0.085-1.128,0.128-1.56,0.128
			c-0.576,0-0.984-0.167-1.225-0.5s-0.359-0.853-0.359-1.556c0-1.403,0.557-2.104,1.672-2.104c0.538,0,0.941,0.15,1.208,0.452
			s0.399,0.774,0.399,1.42l-0.031,0.456h-2.641c0,0.442,0.08,0.771,0.24,0.984c0.16,0.213,0.438,0.319,0.836,0.319
			S159.013,152.927,159.424,152.895z M159.208,151.158c0-0.49-0.079-0.837-0.236-1.04c-0.157-0.202-0.413-0.304-0.768-0.304
			s-0.621,0.106-0.8,0.32c-0.179,0.213-0.271,0.555-0.276,1.023H159.208z"/>
		<path fill="#4D4D4D" d="M65.226,163.99c-0.555-1.248-0.832-2.384-0.832-3.408c0-0.512,0.069-1.067,0.208-1.668
			c0.139-0.6,0.277-1.07,0.416-1.412l0.208-0.512h0.576c-0.188,0.491-0.36,1.098-0.521,1.82s-0.24,1.312-0.24,1.768
			s0.064,0.968,0.192,1.536s0.256,1.022,0.384,1.364l0.185,0.512H65.226z"/>
		<path fill="#4D4D4D" d="M69.458,160.198v2.048c0.016,0.197,0.17,0.314,0.464,0.353l-0.024,0.472c-0.421,0-0.738-0.106-0.952-0.32
			c-0.479,0.214-0.96,0.32-1.439,0.32c-0.368,0-0.648-0.104-0.84-0.312c-0.192-0.208-0.288-0.506-0.288-0.896
			s0.099-0.676,0.296-0.86c0.197-0.184,0.507-0.297,0.928-0.34l1.256-0.12v-0.344c0-0.272-0.059-0.467-0.176-0.584
			s-0.277-0.176-0.48-0.176c-0.427,0-0.869,0.026-1.327,0.08l-0.248,0.023l-0.024-0.456c0.587-0.117,1.106-0.176,1.56-0.176
			c0.454,0,0.783,0.104,0.988,0.312S69.458,159.756,69.458,160.198z M66.993,161.83c0,0.491,0.203,0.736,0.608,0.736
			c0.362,0,0.72-0.062,1.072-0.185l0.184-0.063v-1.32l-1.184,0.112c-0.24,0.021-0.414,0.091-0.521,0.208
			S66.993,161.606,66.993,161.83z"/>
		<path fill="#4D4D4D" d="M71.241,162.99h-0.6v-4h0.592v0.28c0.432-0.24,0.846-0.36,1.24-0.36c0.533,0,0.892,0.145,1.076,0.432
			c0.184,0.288,0.275,0.801,0.275,1.536v2.112h-0.592v-2.096c0-0.555-0.055-0.935-0.164-1.141c-0.109-0.205-0.343-0.308-0.7-0.308
			c-0.171,0-0.351,0.025-0.54,0.076s-0.334,0.1-0.436,0.147l-0.152,0.072V162.99z"/>
		<path fill="#4D4D4D" d="M78.01,157.246v5.744h-0.593v-0.272c-0.41,0.235-0.815,0.353-1.216,0.353c-0.213,0-0.399-0.026-0.56-0.08
			s-0.31-0.149-0.448-0.288c-0.288-0.288-0.432-0.82-0.432-1.596c0-0.776,0.129-1.336,0.388-1.681
			c0.259-0.344,0.687-0.516,1.284-0.516c0.309,0,0.637,0.035,0.983,0.104v-1.769H78.01z M75.93,162.479
			c0.096,0.037,0.22,0.056,0.372,0.056c0.151,0,0.322-0.025,0.512-0.076s0.337-0.1,0.444-0.147l0.159-0.072v-2.712
			c-0.341-0.064-0.658-0.096-0.952-0.096c-0.405,0-0.688,0.129-0.848,0.388s-0.24,0.66-0.24,1.204c0,0.618,0.094,1.034,0.28,1.248
			C75.742,162.372,75.833,162.441,75.93,162.479z"/>
		<path fill="#4D4D4D" d="M81.889,162.494l0.232-0.023l0.016,0.472c-0.608,0.085-1.128,0.128-1.56,0.128
			c-0.576,0-0.984-0.167-1.225-0.5s-0.359-0.853-0.359-1.556c0-1.403,0.557-2.104,1.672-2.104c0.538,0,0.941,0.15,1.208,0.452
			s0.399,0.774,0.399,1.42l-0.031,0.456h-2.641c0,0.442,0.08,0.771,0.24,0.984c0.16,0.213,0.438,0.319,0.836,0.319
			S81.478,162.526,81.889,162.494z M81.673,160.758c0-0.49-0.079-0.837-0.236-1.04c-0.157-0.202-0.413-0.304-0.768-0.304
			s-0.621,0.106-0.8,0.32c-0.179,0.213-0.271,0.555-0.276,1.023H81.673z"/>
		<path fill="#4D4D4D" d="M83.209,162.99v-4h0.592v0.544c0.464-0.32,0.952-0.53,1.464-0.632v0.607c-0.224,0.043-0.457,0.109-0.7,0.2
			c-0.242,0.091-0.428,0.171-0.556,0.24l-0.2,0.104v2.936H83.209z"/>
		<path fill="#4D4D4D" d="M88.617,162.494l0.232-0.023l0.016,0.472c-0.608,0.085-1.128,0.128-1.56,0.128
			c-0.576,0-0.984-0.167-1.225-0.5s-0.359-0.853-0.359-1.556c0-1.403,0.557-2.104,1.672-2.104c0.538,0,0.941,0.15,1.208,0.452
			s0.399,0.774,0.399,1.42l-0.031,0.456h-2.641c0,0.442,0.08,0.771,0.24,0.984c0.16,0.213,0.438,0.319,0.836,0.319
			S88.206,162.526,88.617,162.494z M88.401,160.758c0-0.49-0.079-0.837-0.236-1.04c-0.157-0.202-0.413-0.304-0.768-0.304
			s-0.621,0.106-0.8,0.32c-0.179,0.213-0.271,0.555-0.276,1.023H88.401z"/>
		<path fill="#4D4D4D" d="M92.377,161.326c0,0.8,0.433,1.2,1.296,1.2c0.448,0,0.785-0.095,1.013-0.284
			c0.227-0.189,0.34-0.494,0.34-0.916v-3.872h0.607v3.856c0,0.618-0.164,1.066-0.492,1.344c-0.327,0.277-0.812,0.416-1.451,0.416
			c-0.641,0-1.122-0.139-1.444-0.416c-0.323-0.277-0.484-0.726-0.484-1.344v-3.856h0.616V161.326z"/>
		<path fill="#4D4D4D" d="M97.448,162.99h-0.6v-4h0.592v0.28c0.432-0.24,0.846-0.36,1.24-0.36c0.533,0,0.892,0.145,1.076,0.432
			c0.184,0.288,0.275,0.801,0.275,1.536v2.112H99.44v-2.096c0-0.555-0.055-0.935-0.164-1.141c-0.109-0.205-0.343-0.308-0.7-0.308
			c-0.171,0-0.351,0.025-0.54,0.076s-0.334,0.1-0.436,0.147l-0.152,0.072V162.99z"/>
		<path fill="#4D4D4D" d="M103.193,159.51h-1.272v1.912c0,0.459,0.033,0.761,0.1,0.904c0.067,0.145,0.226,0.216,0.477,0.216
			l0.712-0.048l0.04,0.496c-0.357,0.059-0.63,0.088-0.816,0.088c-0.416,0-0.704-0.102-0.863-0.304c-0.16-0.203-0.24-0.59-0.24-1.16
			v-2.104h-0.568v-0.52h0.568v-1.224h0.592v1.224h1.272V159.51z"/>
		<path fill="#4D4D4D" d="M106.648,162.494l0.232-0.023l0.016,0.472c-0.608,0.085-1.128,0.128-1.56,0.128
			c-0.576,0-0.984-0.167-1.225-0.5s-0.359-0.853-0.359-1.556c0-1.403,0.557-2.104,1.672-2.104c0.538,0,0.941,0.15,1.208,0.452
			s0.399,0.774,0.399,1.42l-0.031,0.456h-2.641c0,0.442,0.08,0.771,0.24,0.984c0.16,0.213,0.438,0.319,0.836,0.319
			S106.237,162.526,106.648,162.494z M106.433,160.758c0-0.49-0.079-0.837-0.236-1.04c-0.157-0.202-0.413-0.304-0.768-0.304
			s-0.621,0.106-0.8,0.32c-0.179,0.213-0.271,0.555-0.276,1.023H106.433z"/>
		<path fill="#4D4D4D" d="M107.969,162.99v-4h0.592v0.544c0.464-0.32,0.952-0.53,1.464-0.632v0.607
			c-0.224,0.043-0.457,0.109-0.7,0.2c-0.242,0.091-0.428,0.171-0.556,0.24l-0.2,0.104v2.936H107.969z"/>
		<path fill="#4D4D4D" d="M111.337,162.99h-0.6v-4h0.592v0.28c0.432-0.24,0.846-0.36,1.24-0.36c0.533,0,0.892,0.145,1.076,0.432
			c0.184,0.288,0.275,0.801,0.275,1.536v2.112h-0.592v-2.096c0-0.555-0.055-0.935-0.164-1.141c-0.109-0.205-0.343-0.308-0.7-0.308
			c-0.171,0-0.351,0.025-0.54,0.076s-0.334,0.1-0.436,0.147l-0.152,0.072V162.99z"/>
		<path fill="#4D4D4D" d="M117.752,162.494l0.232-0.023l0.016,0.472c-0.608,0.085-1.128,0.128-1.56,0.128
			c-0.576,0-0.984-0.167-1.225-0.5s-0.359-0.853-0.359-1.556c0-1.403,0.557-2.104,1.672-2.104c0.538,0,0.941,0.15,1.208,0.452
			s0.399,0.774,0.399,1.42l-0.031,0.456h-2.641c0,0.442,0.08,0.771,0.24,0.984c0.16,0.213,0.438,0.319,0.836,0.319
			S117.341,162.526,117.752,162.494z M117.536,160.758c0-0.49-0.079-0.837-0.236-1.04c-0.157-0.202-0.413-0.304-0.768-0.304
			s-0.621,0.106-0.8,0.32c-0.179,0.213-0.271,0.555-0.276,1.023H117.536z"/>
		<path fill="#4D4D4D" d="M119.672,162.99h-0.6v-5.744h0.6v1.968c0.427-0.202,0.838-0.304,1.232-0.304
			c0.533,0,0.892,0.145,1.076,0.432c0.184,0.288,0.275,0.801,0.275,1.536v2.112h-0.6v-2.096c0-0.555-0.055-0.935-0.164-1.141
			c-0.109-0.205-0.34-0.308-0.692-0.308c-0.336,0-0.661,0.062-0.976,0.184l-0.152,0.057V162.99z"/>
		<path fill="#4D4D4D" d="M123.968,162.99h-0.6v-4h0.592v0.28c0.4-0.24,0.789-0.36,1.168-0.36c0.496,0,0.843,0.136,1.04,0.408
			c0.176-0.106,0.404-0.201,0.684-0.284c0.28-0.083,0.527-0.124,0.74-0.124c0.533,0,0.893,0.143,1.076,0.428
			c0.184,0.286,0.276,0.799,0.276,1.54v2.112h-0.601v-2.096c0-0.555-0.053-0.935-0.16-1.141c-0.106-0.205-0.333-0.308-0.68-0.308
			c-0.176,0-0.357,0.025-0.544,0.076s-0.331,0.1-0.432,0.147l-0.152,0.072c0.069,0.176,0.104,0.565,0.104,1.168v2.08h-0.601v-2.064
			c0-0.575-0.052-0.966-0.156-1.172c-0.104-0.205-0.332-0.308-0.684-0.308c-0.171,0-0.346,0.025-0.524,0.076s-0.315,0.1-0.412,0.147
			l-0.136,0.072V162.99z"/>
		<path fill="#4D4D4D" d="M132.776,162.494l0.232-0.023l0.016,0.472c-0.608,0.085-1.128,0.128-1.56,0.128
			c-0.576,0-0.984-0.167-1.225-0.5s-0.359-0.853-0.359-1.556c0-1.403,0.557-2.104,1.672-2.104c0.538,0,0.941,0.15,1.208,0.452
			s0.399,0.774,0.399,1.42l-0.031,0.456h-2.641c0,0.442,0.08,0.771,0.24,0.984c0.16,0.213,0.438,0.319,0.836,0.319
			S132.365,162.526,132.776,162.494z M132.561,160.758c0-0.49-0.079-0.837-0.236-1.04c-0.157-0.202-0.413-0.304-0.768-0.304
			s-0.621,0.106-0.8,0.32c-0.179,0.213-0.271,0.555-0.276,1.023H132.561z"/>
		<path fill="#4D4D4D" d="M134.696,162.99h-0.6v-4h0.592v0.28c0.432-0.24,0.846-0.36,1.24-0.36c0.533,0,0.892,0.145,1.076,0.432
			c0.184,0.288,0.275,0.801,0.275,1.536v2.112h-0.592v-2.096c0-0.555-0.055-0.935-0.164-1.141c-0.109-0.205-0.343-0.308-0.7-0.308
			c-0.171,0-0.351,0.025-0.54,0.076s-0.334,0.1-0.436,0.147l-0.152,0.072V162.99z"/>
		<path fill="#4D4D4D" d="M140.752,162.99h-0.6v-4h0.592v0.28c0.4-0.24,0.789-0.36,1.168-0.36c0.496,0,0.843,0.136,1.04,0.408
			c0.176-0.106,0.404-0.201,0.684-0.284c0.28-0.083,0.527-0.124,0.74-0.124c0.533,0,0.893,0.143,1.076,0.428
			c0.184,0.286,0.276,0.799,0.276,1.54v2.112h-0.601v-2.096c0-0.555-0.053-0.935-0.16-1.141c-0.106-0.205-0.333-0.308-0.68-0.308
			c-0.176,0-0.357,0.025-0.544,0.076s-0.331,0.1-0.432,0.147l-0.152,0.072c0.069,0.176,0.104,0.565,0.104,1.168v2.08h-0.601v-2.064
			c0-0.575-0.052-0.966-0.156-1.172c-0.104-0.205-0.332-0.308-0.684-0.308c-0.171,0-0.346,0.025-0.524,0.076s-0.315,0.1-0.412,0.147
			l-0.136,0.072V162.99z"/>
		<path fill="#4D4D4D" d="M148.38,158.91c0.621,0,1.062,0.163,1.319,0.488c0.259,0.325,0.389,0.854,0.389,1.584
			s-0.123,1.261-0.368,1.592s-0.693,0.496-1.344,0.496c-0.651,0-1.099-0.165-1.345-0.496c-0.245-0.331-0.367-0.861-0.367-1.592
			s0.13-1.259,0.392-1.584S147.758,158.91,148.38,158.91z M147.264,158.022v-0.721h0.576v0.721H147.264z M148.38,162.55
			c0.45,0,0.745-0.115,0.884-0.348c0.139-0.231,0.208-0.642,0.208-1.228c0-0.587-0.077-0.991-0.232-1.212
			c-0.154-0.222-0.441-0.332-0.859-0.332c-0.419,0-0.707,0.11-0.864,0.332c-0.157,0.221-0.236,0.624-0.236,1.208
			s0.071,0.993,0.212,1.228C147.633,162.433,147.929,162.55,148.38,162.55z M148.863,158.022v-0.721h0.584v0.721H148.863z"/>
		<path fill="#4D4D4D" d="M152.608,164.87c-0.64,0-1.087-0.087-1.34-0.26c-0.254-0.174-0.38-0.489-0.38-0.948
			c0-0.219,0.048-0.396,0.144-0.532c0.096-0.136,0.259-0.289,0.488-0.46c-0.149-0.101-0.225-0.285-0.225-0.552
			c0-0.091,0.067-0.259,0.2-0.504l0.072-0.128c-0.422-0.192-0.632-0.595-0.632-1.208c0-0.912,0.498-1.368,1.496-1.368
			c0.256,0,0.493,0.026,0.712,0.08l0.12,0.024l1.184-0.032v0.512l-0.76-0.016c0.176,0.176,0.264,0.442,0.264,0.8
			c0,0.501-0.124,0.852-0.372,1.052s-0.639,0.3-1.172,0.3c-0.144,0-0.274-0.011-0.392-0.031c-0.097,0.234-0.145,0.387-0.145,0.456
			c0,0.165,0.051,0.268,0.152,0.308s0.408,0.06,0.92,0.06s0.88,0.08,1.104,0.24c0.225,0.16,0.337,0.472,0.337,0.937
			C154.385,164.446,153.792,164.87,152.608,164.87z M151.48,163.614c0,0.282,0.078,0.479,0.235,0.588s0.448,0.164,0.872,0.164
			c0.425,0,0.729-0.059,0.912-0.176c0.185-0.117,0.276-0.313,0.276-0.588c0-0.275-0.066-0.452-0.2-0.532
			c-0.133-0.08-0.395-0.12-0.784-0.12l-0.863-0.04c-0.177,0.128-0.295,0.24-0.356,0.336S151.48,163.465,151.48,163.614z
			 M151.536,160.278c0,0.314,0.07,0.539,0.212,0.672c0.142,0.134,0.375,0.2,0.7,0.2s0.558-0.066,0.696-0.2
			c0.139-0.133,0.208-0.358,0.208-0.676s-0.069-0.543-0.208-0.676c-0.139-0.134-0.371-0.2-0.696-0.2s-0.559,0.067-0.7,0.204
			C151.606,159.738,151.536,159.964,151.536,160.278z"/>
		<path fill="#4D4D4D" d="M155.224,162.99v-5.744h0.6v5.744H155.224z"/>
		<path fill="#4D4D4D" d="M157.024,158.086v-0.695h0.6v0.695H157.024z M157.024,162.99v-4h0.6v4H157.024z"/>
		<path fill="#4D4D4D" d="M160.272,158.91c0.176,0,0.475,0.032,0.896,0.096l0.192,0.024l-0.024,0.488
			c-0.427-0.048-0.741-0.072-0.943-0.072c-0.454,0-0.762,0.108-0.925,0.324c-0.162,0.216-0.243,0.616-0.243,1.2
			s0.075,0.99,0.228,1.22s0.468,0.344,0.948,0.344l0.943-0.072l0.024,0.496c-0.496,0.075-0.867,0.112-1.112,0.112
			c-0.624,0-1.055-0.16-1.292-0.48c-0.237-0.319-0.355-0.859-0.355-1.619c0-0.761,0.128-1.294,0.384-1.601
			S159.675,158.91,160.272,158.91z"/>
		<path fill="#4D4D4D" d="M162.863,162.99h-0.6v-5.744h0.6v1.968c0.427-0.202,0.838-0.304,1.232-0.304
			c0.533,0,0.892,0.145,1.076,0.432c0.184,0.288,0.275,0.801,0.275,1.536v2.112h-0.6v-2.096c0-0.555-0.055-0.935-0.164-1.141
			c-0.109-0.205-0.34-0.308-0.692-0.308c-0.336,0-0.661,0.062-0.976,0.184l-0.152,0.057V162.99z"/>
		<path fill="#4D4D4D" d="M167.568,159.542c0.059,0.374,0.088,0.769,0.088,1.185s-0.069,0.907-0.208,1.476s-0.277,1.007-0.416,1.316
			l-0.208,0.472h-0.576c0.182-0.427,0.354-0.988,0.516-1.684c0.163-0.696,0.244-1.272,0.244-1.729s-0.062-0.982-0.188-1.58
			c-0.126-0.597-0.252-1.08-0.38-1.448l-0.192-0.56h0.576C167.176,157.785,167.424,158.636,167.568,159.542z"/>
	</g>
</g>
<g>
	<polyline fill="none" stroke="#4D4D4D" stroke-miterlimit="10" points="36.167,8.835 53.592,8.835 53.592,18.75 	"/>
	<polygon fill="#4D4D4D" points="53.717,24.621 48.434,15.47 59,15.47 	"/>
</g>
<g>
	<polyline fill="none" stroke="#4D4D4D" stroke-miterlimit="10" points="36.167,147.335 53.592,147.335 53.592,157.25 	"/>
	<polygon fill="#4D4D4D" points="53.717,163.121 48.434,153.97 59,153.97 	"/>
</g>
<g>
	<polyline fill="none" stroke="#4D4D4D" stroke-miterlimit="10" points="188.976,60.5 188.976,101.903 179.062,101.903 	"/>
	<polygon fill="#4D4D4D" points="173.19,102.028 182.341,96.745 182.341,107.311 	"/>
</g>
</svg>
