<?xml version="1.0" encoding="utf-8"?>
<!-- Generator: Adobe Illustrator 21.1.0, SVG Export Plug-In . SVG Version: 6.00 Build 0)  -->
<svg version="1.1" id="Ebene_1" xmlns="http://www.w3.org/2000/svg" xmlns:xlink="http://www.w3.org/1999/xlink" x="0px" y="0px"
	 viewBox="0 0 200 200" enable-background="new 0 0 200 200" xml:space="preserve">
<rect x="0.333" y="0.333" fill="#FFFFFF" width="200" height="200.667"/>
<line fill="none" stroke="#4D4D4D" stroke-miterlimit="10" x1="110.227" y1="59.109" x2="197.875" y2="59.109"/>
<line fill="none" stroke="#4D4D4D" stroke-miterlimit="10" x1="110.227" y1="76.375" x2="197.875" y2="76.375"/>
<line fill="none" stroke="#4D4D4D" stroke-miterlimit="10" x1="110.227" y1="93.708" x2="197.875" y2="93.708"/>
<line fill="none" stroke="#4D4D4D" stroke-miterlimit="10" x1="110.399" y1="110.766" x2="198.047" y2="110.766"/>
<line fill="none" stroke="#4D4D4D" stroke-miterlimit="10" x1="110.227" y1="127.912" x2="197.875" y2="127.912"/>
<line fill="none" stroke="#4D4D4D" stroke-miterlimit="10" x1="110.227" y1="145.25" x2="197.875" y2="145.25"/>
<line fill="none" stroke="#4D4D4D" stroke-miterlimit="10" x1="116.562" y1="162.552" x2="197.875" y2="162.552"/>
<rect x="26.176" y="71.248" fill="#CCCCCC" width="90.082" height="5.498"/>
<rect x="27.239" y="88.093" fill="#00B8FA" width="89.144" height="5.498"/>
<rect x="40.161" y="105.184" fill="#CCCCCC" width="76.208" height="5.498"/>
<rect x="50.823" y="122.359" fill="#00B8FA" width="65.76" height="5.498"/>
<rect x="1.446" y="47.397" fill="#00B8FA" width="115.355" height="11.504"/>
<rect x="106.531" y="53.522" fill="#00B8FA" width="9.894" height="11.504"/>
<rect x="1.526" y="64.996" fill="#CCCCCC" width="115.274" height="5.967"/>
<rect x="1.637" y="82.33" fill="#00B8FA" width="115.163" height="5.604"/>
<rect x="1.572" y="99.468" fill="#CCCCCC" width="115.229" height="5.955"/>
<rect x="1.554" y="116.607" fill="#00B8FA" width="115.247" height="5.851"/>
<rect x="113.341" y="156.938" fill="#00B8FA" width="3.264" height="5.498"/>
<rect x="1.622" y="133.78" fill="#CCCCCC" width="115.178" height="5.677"/>
<rect x="1.523" y="151.142" fill="#00B8FA" width="115.277" height="5.809"/>
<rect x="66.623" y="139.642" fill="#CCCCCC" width="49.803" height="5.793"/>
<g>
	<g>
		<path fill="#4D4D4D" d="M131.008,52.821c-0.8,0-1.2,0.302-1.2,0.904c0,0.336,0.092,0.566,0.276,0.691
			c0.184,0.126,0.557,0.251,1.12,0.376c0.562,0.126,0.961,0.288,1.195,0.488c0.235,0.2,0.353,0.529,0.353,0.988
			c0,1.136-0.59,1.704-1.769,1.704c-0.389,0-0.877-0.046-1.464-0.137l-0.288-0.039l0.064-0.513c0.726,0.097,1.277,0.145,1.656,0.145
			c0.789,0,1.184-0.371,1.184-1.112c0-0.299-0.087-0.514-0.26-0.644c-0.174-0.131-0.497-0.242-0.973-0.332
			c-0.623-0.134-1.066-0.306-1.327-0.517c-0.262-0.211-0.393-0.563-0.393-1.06c0-0.992,0.595-1.488,1.784-1.488
			c0.39,0,0.856,0.04,1.4,0.12l0.271,0.04l-0.056,0.52C131.843,52.867,131.317,52.821,131.008,52.821z"/>
		<path fill="#4D4D4D" d="M133.712,52.997v-0.695h0.6v0.695H133.712z M133.712,57.901v-4h0.6v4H133.712z"/>
		<path fill="#4D4D4D" d="M138.184,57.405l0.232-0.023l0.016,0.472c-0.608,0.085-1.128,0.128-1.56,0.128
			c-0.576,0-0.984-0.167-1.225-0.5s-0.359-0.853-0.359-1.556c0-1.403,0.557-2.104,1.672-2.104c0.538,0,0.941,0.15,1.208,0.452
			s0.399,0.774,0.399,1.42l-0.031,0.456h-2.641c0,0.442,0.08,0.771,0.24,0.984c0.16,0.213,0.438,0.319,0.836,0.319
			S137.772,57.438,138.184,57.405z M137.968,55.669c0-0.49-0.079-0.837-0.236-1.04c-0.157-0.202-0.413-0.304-0.768-0.304
			s-0.621,0.106-0.8,0.32c-0.179,0.213-0.271,0.555-0.276,1.023H137.968z"/>
		<path fill="#4D4D4D" d="M140.104,57.901h-0.6v-4h0.592v0.28c0.4-0.24,0.789-0.36,1.168-0.36c0.496,0,0.843,0.136,1.04,0.408
			c0.176-0.106,0.404-0.201,0.684-0.284c0.28-0.083,0.527-0.124,0.74-0.124c0.533,0,0.893,0.143,1.076,0.428
			c0.184,0.286,0.276,0.799,0.276,1.54v2.112h-0.601v-2.096c0-0.555-0.053-0.935-0.16-1.141c-0.106-0.205-0.333-0.308-0.68-0.308
			c-0.176,0-0.357,0.025-0.544,0.076s-0.331,0.1-0.432,0.147l-0.152,0.072c0.069,0.176,0.104,0.565,0.104,1.168v2.08h-0.601v-2.064
			c0-0.575-0.052-0.966-0.156-1.172c-0.104-0.205-0.332-0.308-0.684-0.308c-0.171,0-0.346,0.025-0.524,0.076s-0.315,0.1-0.412,0.147
			l-0.136,0.072V57.901z"/>
		<path fill="#4D4D4D" d="M148.912,57.405l0.232-0.023l0.016,0.472c-0.608,0.085-1.128,0.128-1.56,0.128
			c-0.576,0-0.984-0.167-1.225-0.5s-0.359-0.853-0.359-1.556c0-1.403,0.557-2.104,1.672-2.104c0.538,0,0.941,0.15,1.208,0.452
			s0.399,0.774,0.399,1.42l-0.031,0.456h-2.641c0,0.442,0.08,0.771,0.24,0.984c0.16,0.213,0.438,0.319,0.836,0.319
			S148.501,57.438,148.912,57.405z M148.696,55.669c0-0.49-0.079-0.837-0.236-1.04c-0.157-0.202-0.413-0.304-0.768-0.304
			s-0.621,0.106-0.8,0.32c-0.179,0.213-0.271,0.555-0.276,1.023H148.696z"/>
		<path fill="#4D4D4D" d="M150.832,57.901h-0.6v-4h0.592v0.28c0.432-0.24,0.846-0.36,1.24-0.36c0.533,0,0.892,0.145,1.076,0.432
			c0.184,0.288,0.275,0.801,0.275,1.536v2.112h-0.592v-2.096c0-0.555-0.055-0.935-0.164-1.141c-0.109-0.205-0.343-0.308-0.7-0.308
			c-0.171,0-0.351,0.025-0.54,0.076s-0.334,0.1-0.436,0.147l-0.152,0.072V57.901z"/>
		<path fill="#4D4D4D" d="M155.784,54.357c-0.581,0-0.872,0.203-0.872,0.608c0,0.187,0.066,0.318,0.2,0.396
			c0.133,0.077,0.438,0.157,0.912,0.24s0.811,0.198,1.008,0.348s0.296,0.43,0.296,0.84c0,0.411-0.132,0.712-0.396,0.904
			c-0.265,0.192-0.649,0.288-1.156,0.288c-0.331,0-0.721-0.037-1.168-0.112l-0.24-0.04l0.032-0.52
			c0.607,0.091,1.066,0.136,1.376,0.136c0.309,0,0.545-0.049,0.708-0.147c0.162-0.099,0.244-0.265,0.244-0.496
			c0-0.232-0.069-0.39-0.208-0.473c-0.139-0.082-0.443-0.161-0.912-0.235c-0.47-0.075-0.803-0.185-1-0.328
			c-0.197-0.145-0.296-0.411-0.296-0.8c0-0.39,0.137-0.678,0.412-0.864c0.274-0.187,0.617-0.28,1.027-0.28
			c0.325,0,0.733,0.037,1.225,0.112l0.224,0.04l-0.016,0.512C156.592,54.4,156.125,54.357,155.784,54.357z"/>
		<path fill="#4D4D4D" d="M174.776,52.621v5.28h-0.616V53.31l-1.36,0.896l-0.279-0.464l1.68-1.12H174.776z"/>
		<path fill="#4D4D4D" d="M178.376,52.533c0.437,0,0.792,0.083,1.063,0.248c0.576,0.342,0.864,1.195,0.864,2.561
			c0,0.965-0.16,1.646-0.48,2.044c-0.319,0.397-0.8,0.596-1.439,0.596c-0.641,0-1.122-0.196-1.444-0.588
			c-0.322-0.393-0.484-1.091-0.484-2.096c0-1.006,0.159-1.718,0.477-2.137C177.249,52.743,177.73,52.533,178.376,52.533z
			 M178.384,53.085c-0.305,0-0.544,0.064-0.721,0.192c-0.378,0.262-0.567,0.952-0.567,2.072c0,0.789,0.104,1.335,0.312,1.636
			c0.208,0.302,0.533,0.452,0.977,0.452c0.442,0,0.768-0.152,0.976-0.456s0.312-0.868,0.312-1.692c0-0.823-0.101-1.396-0.301-1.72
			C179.172,53.247,178.842,53.085,178.384,53.085z"/>
		<path fill="#4D4D4D" d="M180.896,58.886l0.367-1.841h0.664l-0.536,1.841H180.896z"/>
		<path fill="#4D4D4D" d="M185.288,57.901v-1.032h-2.56V56.39l1.504-3.769h0.672l-1.528,3.704h1.912v-1.647h0.616v1.647h0.672v0.544
			h-0.672v1.032H185.288z"/>
		<path fill="#4D4D4D" d="M190.744,53.182c-0.48-0.064-0.947-0.097-1.4-0.097s-0.803,0.158-1.048,0.473s-0.368,0.765-0.368,1.352
			l0.2-0.08c0.133-0.048,0.311-0.099,0.532-0.151c0.221-0.054,0.417-0.08,0.588-0.08c1.184,0,1.775,0.547,1.775,1.64
			c0,0.561-0.161,0.991-0.483,1.292c-0.323,0.302-0.777,0.452-1.364,0.452c-1.259,0-1.888-0.915-1.888-2.744
			c0-0.923,0.18-1.603,0.54-2.04c0.359-0.438,0.867-0.656,1.523-0.656c0.433,0,0.843,0.032,1.232,0.097l0.216,0.04L190.744,53.182z
			 M189.208,55.149c-0.182,0-0.38,0.025-0.597,0.076c-0.216,0.051-0.385,0.1-0.508,0.147l-0.184,0.08
			c0.005,0.608,0.107,1.091,0.308,1.448s0.506,0.536,0.916,0.536c0.411,0,0.72-0.103,0.928-0.309
			c0.208-0.205,0.312-0.495,0.312-0.871s-0.103-0.655-0.308-0.837C189.87,55.24,189.581,55.149,189.208,55.149z"/>
		<path fill="#4D4D4D" d="M194.231,52.541c0.587,0,0.881,0.368,0.881,1.104c0,0.379-0.078,0.661-0.232,0.848s-0.371,0.28-0.648,0.28
			s-0.493-0.094-0.647-0.28c-0.155-0.187-0.232-0.469-0.232-0.848C193.352,52.909,193.646,52.541,194.231,52.541z M193.84,53.646
			c0,0.479,0.132,0.72,0.396,0.72c0.264,0,0.396-0.24,0.396-0.72c0-0.24-0.03-0.416-0.092-0.528s-0.163-0.168-0.304-0.168
			c-0.142,0-0.243,0.056-0.305,0.168S193.84,53.405,193.84,53.646z M194.368,57.934l1.64-5.48l0.384,0.128l-1.64,5.464
			L194.368,57.934z M195.632,56.846c0-0.731,0.292-1.097,0.876-1.097s0.876,0.368,0.876,1.104c0,0.373-0.077,0.654-0.231,0.844
			c-0.155,0.189-0.371,0.284-0.648,0.284s-0.492-0.095-0.644-0.284C195.708,57.508,195.632,57.224,195.632,56.846z M196.112,56.846
			c0,0.485,0.13,0.728,0.392,0.728c0.149,0,0.253-0.059,0.312-0.176c0.059-0.117,0.088-0.299,0.088-0.544s-0.029-0.423-0.088-0.532
			c-0.06-0.109-0.16-0.164-0.305-0.164c-0.144,0-0.246,0.055-0.308,0.164S196.112,56.605,196.112,56.846z"/>
	</g>
</g>
<g>
	<g>
		<path fill="#4D4D4D" d="M129.479,69.964h2.009c0.549,0,0.961,0.113,1.235,0.34s0.412,0.583,0.412,1.068
			c0,0.347-0.06,0.617-0.18,0.812c-0.12,0.195-0.298,0.349-0.532,0.46c0.587,0.203,0.88,0.638,0.88,1.305
			c0,0.555-0.146,0.952-0.439,1.191c-0.294,0.24-0.718,0.36-1.272,0.36h-2.112V69.964z M131.464,70.508h-1.368v1.912h1.424
			c0.342,0,0.591-0.081,0.748-0.244c0.157-0.162,0.236-0.408,0.236-0.735c0-0.328-0.084-0.565-0.252-0.713
			C132.084,70.581,131.821,70.508,131.464,70.508z M131.527,72.956h-1.432v2h1.472c0.363,0,0.639-0.076,0.828-0.229
			c0.189-0.151,0.284-0.42,0.284-0.804c0-0.202-0.039-0.373-0.116-0.512s-0.18-0.237-0.308-0.296
			C132.021,73.01,131.778,72.956,131.527,72.956z"/>
		<path fill="#4D4D4D" d="M137.128,72.708v2.048c0.016,0.197,0.17,0.314,0.464,0.353l-0.024,0.472c-0.421,0-0.738-0.106-0.952-0.32
			c-0.479,0.214-0.96,0.32-1.439,0.32c-0.368,0-0.648-0.104-0.84-0.312c-0.192-0.208-0.288-0.506-0.288-0.896
			s0.099-0.676,0.296-0.86c0.197-0.184,0.507-0.297,0.928-0.34l1.256-0.12v-0.344c0-0.272-0.059-0.467-0.176-0.584
			s-0.277-0.176-0.48-0.176c-0.427,0-0.869,0.026-1.327,0.08l-0.248,0.023l-0.024-0.456c0.587-0.117,1.106-0.176,1.56-0.176
			c0.454,0,0.783,0.104,0.988,0.312S137.128,72.266,137.128,72.708z M134.663,74.34c0,0.491,0.203,0.736,0.608,0.736
			c0.362,0,0.72-0.062,1.072-0.185l0.184-0.063v-1.32l-1.184,0.112c-0.24,0.021-0.414,0.091-0.521,0.208
			S134.663,74.116,134.663,74.34z"/>
		<path fill="#4D4D4D" d="M137.896,71.5h0.6l1,3.48h0.265l1.008-3.48h0.6l-1.664,5.776h-0.6l0.52-1.776h-0.592L137.896,71.5z"/>
		<path fill="#4D4D4D" d="M144.783,75.004l0.232-0.023l0.016,0.472c-0.608,0.085-1.128,0.128-1.56,0.128
			c-0.576,0-0.984-0.167-1.225-0.5s-0.359-0.853-0.359-1.556c0-1.403,0.557-2.104,1.672-2.104c0.538,0,0.941,0.15,1.208,0.452
			s0.399,0.774,0.399,1.42l-0.031,0.456h-2.641c0,0.442,0.08,0.771,0.24,0.984c0.16,0.213,0.438,0.319,0.836,0.319
			S144.372,75.036,144.783,75.004z M144.567,73.268c0-0.49-0.079-0.837-0.236-1.04c-0.157-0.202-0.413-0.304-0.768-0.304
			s-0.621,0.106-0.8,0.32c-0.179,0.213-0.271,0.555-0.276,1.023H144.567z"/>
		<path fill="#4D4D4D" d="M146.104,75.5v-4h0.592v0.544c0.464-0.32,0.952-0.53,1.464-0.632v0.607c-0.224,0.043-0.457,0.109-0.7,0.2
			c-0.242,0.091-0.428,0.171-0.556,0.24l-0.2,0.104V75.5H146.104z"/>
		<path fill="#4D4D4D" d="M172.508,70.48c0.334-0.232,0.794-0.349,1.38-0.349c0.587,0,1.053,0.116,1.396,0.349
			c0.344,0.231,0.516,0.574,0.516,1.027c0,0.331-0.066,0.583-0.2,0.756c-0.133,0.174-0.359,0.332-0.68,0.477
			c0.32,0.144,0.561,0.313,0.72,0.508c0.16,0.194,0.24,0.468,0.24,0.82c0,1.008-0.66,1.512-1.979,1.512
			c-1.32,0-1.98-0.475-1.98-1.424c0-0.379,0.073-0.667,0.22-0.864c0.147-0.197,0.378-0.381,0.692-0.552
			c-0.288-0.145-0.497-0.309-0.628-0.492s-0.196-0.434-0.196-0.748C172.008,71.052,172.175,70.712,172.508,70.48z M172.576,74.052
			c0,0.646,0.441,0.968,1.324,0.968c0.882,0,1.323-0.338,1.323-1.016c0-0.282-0.078-0.492-0.235-0.628s-0.391-0.249-0.7-0.34h-0.84
			c-0.294,0.08-0.512,0.198-0.656,0.355C172.648,73.55,172.576,73.77,172.576,74.052z M175.145,71.58
			c0-0.592-0.414-0.888-1.24-0.888c-0.827,0-1.24,0.293-1.24,0.88c0,0.234,0.064,0.424,0.192,0.567
			c0.128,0.145,0.325,0.265,0.592,0.36h0.84c0.288-0.091,0.503-0.208,0.644-0.352C175.073,72.004,175.145,71.814,175.145,71.58z"/>
		<path fill="#4D4D4D" d="M176.417,76.484l0.367-1.841h0.664l-0.536,1.841H176.417z"/>
		<path fill="#4D4D4D" d="M179.903,75.036c0.966,0,1.451-0.613,1.456-1.84c-0.533,0.202-0.991,0.304-1.376,0.304
			c-1.151,0-1.728-0.536-1.728-1.608c0-0.538,0.165-0.965,0.496-1.279c0.33-0.314,0.775-0.473,1.336-0.473
			c0.646,0,1.125,0.239,1.439,0.717c0.315,0.477,0.473,1.179,0.473,2.104c0,0.926-0.178,1.594-0.532,2.004
			c-0.354,0.411-0.876,0.616-1.564,0.616c-0.399,0-0.812-0.037-1.239-0.112l-0.208-0.032l0.056-0.495
			C178.992,75.004,179.456,75.036,179.903,75.036z M180.031,72.956c0.326,0,0.702-0.072,1.129-0.216l0.208-0.072
			c-0.017-1.322-0.443-1.984-1.28-1.984c-0.373,0-0.666,0.108-0.876,0.324c-0.211,0.216-0.316,0.511-0.316,0.884
			C178.896,72.602,179.274,72.956,180.031,72.956z"/>
		<path fill="#4D4D4D" d="M186.225,70.22v0.561h-2.568l-0.145,1.72c0.411-0.219,0.824-0.328,1.24-0.328
			c1.12,0,1.681,0.521,1.681,1.561c0,0.597-0.155,1.053-0.465,1.367c-0.309,0.315-0.743,0.473-1.304,0.473
			c-0.448,0-0.944-0.059-1.488-0.176l-0.264-0.057l0.072-0.488c0.613,0.118,1.129,0.177,1.548,0.177s0.734-0.108,0.948-0.324
			c0.213-0.216,0.319-0.519,0.319-0.908c0-0.389-0.097-0.665-0.292-0.828c-0.194-0.162-0.471-0.244-0.827-0.244
			c-0.192,0-0.394,0.027-0.604,0.08c-0.211,0.054-0.372,0.107-0.484,0.16l-0.168,0.08L183,72.964l0.145-2.744H186.225z"/>
		<path fill="#4D4D4D" d="M189.752,70.14c0.587,0,0.881,0.368,0.881,1.104c0,0.379-0.078,0.661-0.232,0.848s-0.371,0.28-0.648,0.28
			s-0.493-0.094-0.647-0.28c-0.155-0.187-0.232-0.469-0.232-0.848C188.872,70.508,189.166,70.14,189.752,70.14z M189.36,71.244
			c0,0.479,0.132,0.72,0.396,0.72c0.264,0,0.396-0.24,0.396-0.72c0-0.24-0.03-0.416-0.092-0.528s-0.163-0.168-0.304-0.168
			c-0.142,0-0.243,0.056-0.305,0.168S189.36,71.004,189.36,71.244z M189.889,75.532l1.64-5.48l0.384,0.128l-1.64,5.464
			L189.889,75.532z M191.152,74.444c0-0.731,0.292-1.097,0.876-1.097s0.876,0.368,0.876,1.104c0,0.373-0.077,0.654-0.231,0.844
			c-0.155,0.189-0.371,0.284-0.648,0.284s-0.492-0.095-0.644-0.284C191.229,75.106,191.152,74.822,191.152,74.444z M191.633,74.444
			c0,0.485,0.13,0.728,0.392,0.728c0.149,0,0.253-0.059,0.312-0.176c0.059-0.117,0.088-0.299,0.088-0.544s-0.029-0.423-0.088-0.532
			c-0.06-0.109-0.16-0.164-0.305-0.164c-0.144,0-0.246,0.055-0.308,0.164S191.633,74.204,191.633,74.444z"/>
	</g>
</g>
<g>
	<g>
		<path fill="#4D4D4D" d="M131.008,87.754c-0.8,0-1.2,0.302-1.2,0.904c0,0.336,0.092,0.566,0.276,0.691
			c0.184,0.126,0.557,0.251,1.12,0.376c0.562,0.126,0.961,0.288,1.195,0.488c0.235,0.2,0.353,0.529,0.353,0.988
			c0,1.136-0.59,1.704-1.769,1.704c-0.389,0-0.877-0.046-1.464-0.137l-0.288-0.039l0.064-0.513c0.726,0.097,1.277,0.145,1.656,0.145
			c0.789,0,1.184-0.371,1.184-1.112c0-0.299-0.087-0.514-0.26-0.644c-0.174-0.131-0.497-0.242-0.973-0.332
			c-0.623-0.134-1.066-0.306-1.327-0.517c-0.262-0.211-0.393-0.563-0.393-1.06c0-0.992,0.595-1.488,1.784-1.488
			c0.39,0,0.856,0.04,1.4,0.12l0.271,0.04l-0.056,0.52C131.843,87.8,131.317,87.754,131.008,87.754z"/>
		<path fill="#4D4D4D" d="M133.248,92.834l1.52-5.536h1.344l1.521,5.536h-0.608l-0.399-1.424h-2.368l-0.4,1.424H133.248z
			 M135.231,87.826l-0.84,3.032h2.096l-0.84-3.032H135.231z"/>
		<path fill="#4D4D4D" d="M140.527,90.97h-1.408v1.864h-0.616v-5.536h2.024c0.603,0,1.048,0.146,1.336,0.44
			c0.288,0.293,0.432,0.741,0.432,1.344C142.295,90.341,141.706,90.97,140.527,90.97z M139.119,90.426h1.4
			c0.763,0,1.144-0.448,1.144-1.344c0-0.427-0.091-0.74-0.271-0.94c-0.182-0.199-0.473-0.3-0.872-0.3h-1.4V90.426z"/>
		<path fill="#4D4D4D" d="M172.507,87.814c0.334-0.232,0.794-0.349,1.38-0.349c0.587,0,1.053,0.116,1.396,0.349
			c0.344,0.231,0.516,0.574,0.516,1.027c0,0.331-0.066,0.583-0.2,0.756c-0.133,0.174-0.359,0.332-0.68,0.477
			c0.32,0.144,0.561,0.313,0.72,0.508c0.16,0.194,0.24,0.468,0.24,0.82c0,1.008-0.66,1.512-1.979,1.512
			c-1.32,0-1.98-0.475-1.98-1.424c0-0.379,0.073-0.667,0.22-0.864c0.147-0.197,0.378-0.381,0.692-0.552
			c-0.288-0.145-0.497-0.309-0.628-0.492s-0.196-0.434-0.196-0.748C172.007,88.386,172.174,88.046,172.507,87.814z M172.575,91.386
			c0,0.646,0.441,0.968,1.324,0.968c0.882,0,1.323-0.338,1.323-1.016c0-0.282-0.078-0.492-0.235-0.628s-0.391-0.249-0.7-0.34h-0.84
			c-0.294,0.08-0.512,0.198-0.656,0.355C172.647,90.884,172.575,91.104,172.575,91.386z M175.144,88.914
			c0-0.592-0.414-0.888-1.24-0.888c-0.827,0-1.24,0.293-1.24,0.88c0,0.234,0.064,0.424,0.192,0.567
			c0.128,0.145,0.325,0.265,0.592,0.36h0.84c0.288-0.091,0.503-0.208,0.644-0.352C175.072,89.338,175.144,89.148,175.144,88.914z"/>
		<path fill="#4D4D4D" d="M176.416,93.818l0.367-1.841h0.664l-0.536,1.841H176.416z"/>
		<path fill="#4D4D4D" d="M179.903,92.37c0.966,0,1.451-0.613,1.456-1.84c-0.533,0.202-0.991,0.304-1.376,0.304
			c-1.151,0-1.728-0.536-1.728-1.608c0-0.538,0.165-0.965,0.496-1.279c0.33-0.314,0.775-0.473,1.336-0.473
			c0.646,0,1.125,0.239,1.439,0.717c0.315,0.477,0.473,1.179,0.473,2.104c0,0.926-0.178,1.594-0.532,2.004
			c-0.354,0.411-0.876,0.616-1.564,0.616c-0.399,0-0.812-0.037-1.239-0.112l-0.208-0.032l0.056-0.495
			C178.992,92.338,179.456,92.37,179.903,92.37z M180.031,90.29c0.326,0,0.702-0.072,1.129-0.216l0.208-0.072
			c-0.017-1.322-0.443-1.984-1.28-1.984c-0.373,0-0.666,0.108-0.876,0.324c-0.211,0.216-0.316,0.511-0.316,0.884
			C178.896,89.936,179.274,90.29,180.031,90.29z"/>
		<path fill="#4D4D4D" d="M185.52,87.554v5.28h-0.616v-4.592l-1.36,0.896l-0.279-0.464l1.68-1.12H185.52z"/>
		<path fill="#4D4D4D" d="M189.751,87.474c0.587,0,0.881,0.368,0.881,1.104c0,0.379-0.078,0.661-0.232,0.848s-0.371,0.28-0.648,0.28
			s-0.493-0.094-0.647-0.28c-0.155-0.187-0.232-0.469-0.232-0.848C188.871,87.842,189.165,87.474,189.751,87.474z M189.359,88.578
			c0,0.479,0.132,0.72,0.396,0.72c0.264,0,0.396-0.24,0.396-0.72c0-0.24-0.03-0.416-0.092-0.528s-0.163-0.168-0.304-0.168
			c-0.142,0-0.243,0.056-0.305,0.168S189.359,88.338,189.359,88.578z M189.888,92.866l1.64-5.48l0.384,0.128l-1.64,5.464
			L189.888,92.866z M191.151,91.778c0-0.731,0.292-1.097,0.876-1.097s0.876,0.368,0.876,1.104c0,0.373-0.077,0.654-0.231,0.844
			c-0.155,0.189-0.371,0.284-0.648,0.284s-0.492-0.095-0.644-0.284C191.228,92.44,191.151,92.156,191.151,91.778z M191.632,91.778
			c0,0.485,0.13,0.728,0.392,0.728c0.149,0,0.253-0.059,0.312-0.176c0.059-0.117,0.088-0.299,0.088-0.544s-0.029-0.423-0.088-0.532
			c-0.06-0.109-0.16-0.164-0.305-0.164c-0.144,0-0.246,0.055-0.308,0.164S191.632,91.538,191.632,91.778z"/>
	</g>
</g>
<g>
	<g>
		<path fill="#4D4D4D" d="M129.479,104.401h2.009c0.549,0,0.961,0.113,1.235,0.34s0.412,0.583,0.412,1.068
			c0,0.347-0.06,0.617-0.18,0.812c-0.12,0.195-0.298,0.349-0.532,0.46c0.587,0.203,0.88,0.638,0.88,1.305
			c0,0.555-0.146,0.952-0.439,1.191c-0.294,0.24-0.718,0.36-1.272,0.36h-2.112V104.401z M131.464,104.945h-1.368v1.912h1.424
			c0.342,0,0.591-0.081,0.748-0.244c0.157-0.162,0.236-0.408,0.236-0.735c0-0.328-0.084-0.565-0.252-0.713
			C132.084,105.019,131.821,104.945,131.464,104.945z M131.527,107.394h-1.432v2h1.472c0.363,0,0.639-0.076,0.828-0.229
			c0.189-0.151,0.284-0.42,0.284-0.804c0-0.202-0.039-0.373-0.116-0.512s-0.18-0.237-0.308-0.296
			C132.021,107.447,131.778,107.394,131.527,107.394z"/>
		<path fill="#4D4D4D" d="M133.84,109.938l1.52-5.536h1.344l1.521,5.536h-0.608l-0.399-1.424h-2.368l-0.4,1.424H133.84z
			 M135.823,104.93l-0.84,3.032h2.096l-0.84-3.032H135.823z"/>
		<path fill="#4D4D4D" d="M140.567,104.857c-0.8,0-1.2,0.302-1.2,0.904c0,0.336,0.092,0.566,0.276,0.691
			c0.184,0.126,0.557,0.251,1.12,0.376c0.562,0.126,0.961,0.288,1.195,0.488c0.235,0.2,0.353,0.529,0.353,0.988
			c0,1.136-0.59,1.704-1.769,1.704c-0.389,0-0.877-0.046-1.464-0.137l-0.288-0.039l0.064-0.513c0.726,0.097,1.277,0.145,1.656,0.145
			c0.789,0,1.184-0.371,1.184-1.112c0-0.299-0.087-0.514-0.26-0.644c-0.174-0.131-0.497-0.242-0.973-0.332
			c-0.623-0.134-1.066-0.306-1.327-0.517c-0.262-0.211-0.393-0.563-0.393-1.06c0-0.992,0.595-1.488,1.784-1.488
			c0.39,0,0.856,0.04,1.4,0.12l0.271,0.04l-0.056,0.52C141.402,104.903,140.877,104.857,140.567,104.857z"/>
		<path fill="#4D4D4D" d="M143.375,109.938v-5.536h3.312v0.544h-2.696v2.16h2.28v0.544h-2.28v2.288H143.375z"/>
		<path fill="#4D4D4D" d="M172.507,104.918c0.334-0.232,0.794-0.349,1.38-0.349c0.587,0,1.053,0.116,1.396,0.349
			c0.344,0.231,0.516,0.574,0.516,1.027c0,0.331-0.066,0.583-0.2,0.756c-0.133,0.174-0.359,0.332-0.68,0.477
			c0.32,0.144,0.561,0.313,0.72,0.508c0.16,0.194,0.24,0.468,0.24,0.82c0,1.008-0.66,1.512-1.979,1.512
			c-1.32,0-1.98-0.475-1.98-1.424c0-0.379,0.073-0.667,0.22-0.864c0.147-0.197,0.378-0.381,0.692-0.552
			c-0.288-0.145-0.497-0.309-0.628-0.492s-0.196-0.434-0.196-0.748C172.007,105.489,172.174,105.149,172.507,104.918z
			 M172.575,108.489c0,0.646,0.441,0.968,1.324,0.968c0.882,0,1.323-0.338,1.323-1.016c0-0.282-0.078-0.492-0.235-0.628
			s-0.391-0.249-0.7-0.34h-0.84c-0.294,0.08-0.512,0.198-0.656,0.355C172.647,107.987,172.575,108.207,172.575,108.489z
			 M175.144,106.018c0-0.592-0.414-0.888-1.24-0.888c-0.827,0-1.24,0.293-1.24,0.88c0,0.234,0.064,0.424,0.192,0.567
			c0.128,0.145,0.325,0.265,0.592,0.36h0.84c0.288-0.091,0.503-0.208,0.644-0.352C175.072,106.441,175.144,106.252,175.144,106.018z
			"/>
		<path fill="#4D4D4D" d="M176.415,110.922l0.367-1.841h0.664l-0.536,1.841H176.415z"/>
		<path fill="#4D4D4D" d="M178.503,104.794c0.501-0.149,1.038-0.225,1.612-0.225c0.573,0,0.987,0.109,1.243,0.328
			c0.257,0.219,0.385,0.568,0.385,1.048c0,0.245-0.034,0.423-0.101,0.532s-0.12,0.193-0.16,0.252s-0.092,0.115-0.155,0.168
			c-0.118,0.091-0.211,0.155-0.28,0.192l-0.088,0.056c0.309,0.112,0.538,0.255,0.688,0.428c0.149,0.174,0.225,0.458,0.225,0.853
			c0,0.538-0.138,0.938-0.412,1.2c-0.275,0.261-0.708,0.392-1.3,0.392c-0.47,0-0.966-0.054-1.488-0.16l-0.248-0.056l0.056-0.504
			c0.576,0.117,1.115,0.176,1.616,0.176c0.763-0.006,1.144-0.347,1.144-1.024c0-0.635-0.362-0.965-1.088-0.992h-1.063v-0.527h1.063
			c0.225,0,0.44-0.09,0.648-0.269s0.312-0.414,0.312-0.708c0-0.293-0.082-0.505-0.248-0.636c-0.165-0.131-0.442-0.196-0.832-0.196
			c-0.426,0-0.848,0.04-1.264,0.12l-0.208,0.04L178.503,104.794z"/>
		<path fill="#4D4D4D" d="M184.639,104.569c0.437,0,0.792,0.083,1.063,0.248c0.576,0.342,0.864,1.195,0.864,2.561
			c0,0.965-0.16,1.646-0.48,2.044c-0.319,0.397-0.8,0.596-1.439,0.596c-0.641,0-1.122-0.196-1.444-0.588
			c-0.322-0.393-0.484-1.091-0.484-2.096c0-1.006,0.159-1.718,0.477-2.137C183.512,104.779,183.993,104.569,184.639,104.569z
			 M184.646,105.121c-0.305,0-0.544,0.064-0.721,0.192c-0.378,0.262-0.567,0.952-0.567,2.072c0,0.789,0.104,1.335,0.312,1.636
			c0.208,0.302,0.533,0.452,0.977,0.452c0.442,0,0.768-0.152,0.976-0.456s0.312-0.868,0.312-1.692c0-0.823-0.101-1.396-0.301-1.72
			C185.435,105.283,185.104,105.121,184.646,105.121z"/>
		<path fill="#4D4D4D" d="M189.75,104.577c0.587,0,0.881,0.368,0.881,1.104c0,0.379-0.078,0.661-0.232,0.848s-0.371,0.28-0.648,0.28
			s-0.493-0.094-0.647-0.28c-0.155-0.187-0.232-0.469-0.232-0.848C188.87,104.945,189.164,104.577,189.75,104.577z M189.358,105.682
			c0,0.479,0.132,0.72,0.396,0.72c0.264,0,0.396-0.24,0.396-0.72c0-0.24-0.03-0.416-0.092-0.528s-0.163-0.168-0.304-0.168
			c-0.142,0-0.243,0.056-0.305,0.168S189.358,105.441,189.358,105.682z M189.887,109.97l1.64-5.48l0.384,0.128l-1.64,5.464
			L189.887,109.97z M191.15,108.882c0-0.731,0.292-1.097,0.876-1.097s0.876,0.368,0.876,1.104c0,0.373-0.077,0.654-0.231,0.844
			c-0.155,0.189-0.371,0.284-0.648,0.284s-0.492-0.095-0.644-0.284C191.227,109.544,191.15,109.26,191.15,108.882z M191.631,108.882
			c0,0.485,0.13,0.728,0.392,0.728c0.149,0,0.253-0.059,0.312-0.176c0.059-0.117,0.088-0.299,0.088-0.544s-0.029-0.423-0.088-0.532
			c-0.06-0.109-0.16-0.164-0.305-0.164c-0.144,0-0.246,0.055-0.308,0.164S191.631,108.642,191.631,108.882z"/>
	</g>
</g>
<g>
	<g>
		<path fill="#4D4D4D" d="M128.992,126.912l1.52-5.536h1.344l1.521,5.536h-0.608l-0.399-1.424H130l-0.4,1.424H128.992z
			 M130.976,121.904l-0.84,3.032h2.096l-0.84-3.032H130.976z"/>
		<path fill="#4D4D4D" d="M134.191,126.912v-5.744h0.6v5.744H134.191z"/>
		<path fill="#4D4D4D" d="M136.039,126.912v-5.744h0.6v5.744H136.039z"/>
		<path fill="#4D4D4D" d="M137.839,122.008v-0.695h0.6v0.695H137.839z M137.839,126.912v-4h0.6v4H137.839z"/>
		<path fill="#4D4D4D" d="M142.415,124.12v2.048c0.016,0.197,0.17,0.314,0.464,0.353l-0.024,0.472c-0.421,0-0.738-0.106-0.952-0.32
			c-0.479,0.214-0.96,0.32-1.439,0.32c-0.368,0-0.648-0.104-0.84-0.312c-0.192-0.208-0.288-0.506-0.288-0.896
			s0.099-0.676,0.296-0.86c0.197-0.184,0.507-0.297,0.928-0.34l1.256-0.12v-0.344c0-0.272-0.059-0.467-0.176-0.584
			s-0.277-0.176-0.48-0.176c-0.427,0-0.869,0.026-1.327,0.08l-0.248,0.023l-0.024-0.456c0.587-0.117,1.106-0.176,1.56-0.176
			c0.454,0,0.783,0.104,0.988,0.312S142.415,123.678,142.415,124.12z M139.95,125.752c0,0.491,0.203,0.736,0.608,0.736
			c0.362,0,0.72-0.062,1.072-0.185l0.184-0.063v-1.32l-1.184,0.112c-0.24,0.021-0.414,0.091-0.521,0.208
			S139.95,125.528,139.95,125.752z"/>
		<path fill="#4D4D4D" d="M144.198,126.912h-0.6v-4h0.592v0.28c0.432-0.24,0.846-0.36,1.24-0.36c0.533,0,0.892,0.145,1.076,0.432
			c0.184,0.288,0.275,0.801,0.275,1.536v2.112h-0.592v-2.096c0-0.555-0.055-0.935-0.164-1.141c-0.109-0.205-0.343-0.308-0.7-0.308
			c-0.171,0-0.351,0.025-0.54,0.076s-0.334,0.1-0.436,0.147l-0.152,0.072V126.912z"/>
		<path fill="#4D4D4D" d="M147.654,123.448v-0.536h2.968v0.536l-2.239,2.928h2.239v0.536h-2.968v-0.536l2.24-2.928H147.654z"/>
		<path fill="#4D4D4D" d="M172.278,122.192v-0.561h3.28v0.809l-2.032,4.552l-0.584-0.184l1.992-4.408v-0.208H172.278z"/>
		<path fill="#4D4D4D" d="M176.415,127.896l0.367-1.841h0.664l-0.536,1.841H176.415z"/>
		<path fill="#4D4D4D" d="M178.771,121.893c0.334-0.232,0.794-0.349,1.38-0.349c0.587,0,1.053,0.116,1.396,0.349
			c0.344,0.231,0.516,0.574,0.516,1.027c0,0.331-0.066,0.583-0.2,0.756c-0.133,0.174-0.359,0.332-0.68,0.477
			c0.32,0.144,0.561,0.313,0.72,0.508c0.16,0.194,0.24,0.468,0.24,0.82c0,1.008-0.66,1.512-1.979,1.512
			c-1.32,0-1.98-0.475-1.98-1.424c0-0.379,0.073-0.667,0.22-0.864c0.147-0.197,0.378-0.381,0.692-0.552
			c-0.288-0.145-0.497-0.309-0.628-0.492s-0.196-0.434-0.196-0.748C178.271,122.464,178.438,122.124,178.771,121.893z
			 M178.839,125.464c0,0.646,0.441,0.968,1.324,0.968c0.882,0,1.323-0.338,1.323-1.016c0-0.282-0.078-0.492-0.235-0.628
			s-0.391-0.249-0.7-0.34h-0.84c-0.294,0.08-0.512,0.198-0.656,0.355C178.911,124.962,178.839,125.182,178.839,125.464z
			 M181.407,122.992c0-0.592-0.414-0.888-1.24-0.888c-0.827,0-1.24,0.293-1.24,0.88c0,0.234,0.064,0.424,0.192,0.567
			c0.128,0.145,0.325,0.265,0.592,0.36h0.84c0.288-0.091,0.503-0.208,0.644-0.352C181.336,123.416,181.407,123.227,181.407,122.992z
			"/>
		<path fill="#4D4D4D" d="M185.286,126.912v-1.032h-2.56V125.4l1.504-3.769h0.672l-1.528,3.704h1.912v-1.647h0.616v1.647h0.672
			v0.544h-0.672v1.032H185.286z"/>
		<path fill="#4D4D4D" d="M189.75,121.552c0.587,0,0.881,0.368,0.881,1.104c0,0.379-0.078,0.661-0.232,0.848s-0.371,0.28-0.648,0.28
			s-0.493-0.094-0.647-0.28c-0.155-0.187-0.232-0.469-0.232-0.848C188.87,121.92,189.164,121.552,189.75,121.552z M189.358,122.656
			c0,0.479,0.132,0.72,0.396,0.72c0.264,0,0.396-0.24,0.396-0.72c0-0.24-0.03-0.416-0.092-0.528s-0.163-0.168-0.304-0.168
			c-0.142,0-0.243,0.056-0.305,0.168S189.358,122.416,189.358,122.656z M189.887,126.944l1.64-5.48l0.384,0.128l-1.64,5.464
			L189.887,126.944z M191.15,125.856c0-0.731,0.292-1.097,0.876-1.097s0.876,0.368,0.876,1.104c0,0.373-0.077,0.654-0.231,0.844
			c-0.155,0.189-0.371,0.284-0.648,0.284s-0.492-0.095-0.644-0.284C191.227,126.519,191.15,126.234,191.15,125.856z
			 M191.631,125.856c0,0.485,0.13,0.728,0.392,0.728c0.149,0,0.253-0.059,0.312-0.176c0.059-0.117,0.088-0.299,0.088-0.544
			s-0.029-0.423-0.088-0.532c-0.06-0.109-0.16-0.164-0.305-0.164c-0.144,0-0.246,0.055-0.308,0.164S191.631,125.616,191.631,125.856
			z"/>
	</g>
</g>
<g>
	<g>
		<path fill="#4D4D4D" d="M131.456,144.25h-1.977v-5.536h1.977c0.901,0,1.498,0.357,1.792,1.072c0.17,0.41,0.256,0.949,0.256,1.616
			c0,1.392-0.347,2.269-1.04,2.632C132.187,144.178,131.851,144.25,131.456,144.25z M132.872,141.402
			c0-1.062-0.237-1.723-0.712-1.984c-0.192-0.106-0.427-0.16-0.704-0.16h-1.36v4.448h1.36
			C132.399,143.706,132.872,142.938,132.872,141.402z"/>
		<path fill="#4D4D4D" d="M137.36,141.458v2.048c0.016,0.197,0.17,0.314,0.464,0.353l-0.024,0.472c-0.421,0-0.738-0.106-0.952-0.32
			c-0.479,0.214-0.96,0.32-1.439,0.32c-0.368,0-0.648-0.104-0.84-0.312c-0.192-0.208-0.288-0.506-0.288-0.896
			s0.099-0.676,0.296-0.86c0.197-0.184,0.507-0.297,0.928-0.34l1.256-0.12v-0.344c0-0.272-0.059-0.467-0.176-0.584
			s-0.277-0.176-0.48-0.176c-0.427,0-0.869,0.026-1.327,0.08l-0.248,0.023l-0.024-0.456c0.587-0.117,1.106-0.176,1.56-0.176
			c0.454,0,0.783,0.104,0.988,0.312S137.36,141.016,137.36,141.458z M134.896,143.09c0,0.491,0.203,0.736,0.608,0.736
			c0.362,0,0.72-0.062,1.072-0.185l0.184-0.063v-1.32l-1.184,0.112c-0.24,0.021-0.414,0.091-0.521,0.208
			S134.896,142.866,134.896,143.09z"/>
		<path fill="#4D4D4D" d="M138.544,139.346v-0.695h0.6v0.695H138.544z M138.544,144.25v-4h0.6v4H138.544z"/>
		<path fill="#4D4D4D" d="M140.896,144.25h-0.6v-4h0.592v0.28c0.4-0.24,0.789-0.36,1.168-0.36c0.496,0,0.843,0.136,1.04,0.408
			c0.176-0.106,0.404-0.201,0.684-0.284c0.28-0.083,0.527-0.124,0.74-0.124c0.533,0,0.893,0.143,1.076,0.428
			c0.184,0.286,0.276,0.799,0.276,1.54v2.112h-0.601v-2.096c0-0.555-0.053-0.935-0.16-1.141c-0.106-0.205-0.333-0.308-0.68-0.308
			c-0.176,0-0.357,0.025-0.544,0.076s-0.331,0.1-0.432,0.147l-0.152,0.072c0.069,0.176,0.104,0.565,0.104,1.168v2.08h-0.601v-2.064
			c0-0.575-0.052-0.966-0.156-1.172c-0.104-0.205-0.332-0.308-0.684-0.308c-0.171,0-0.346,0.025-0.524,0.076s-0.315,0.1-0.412,0.147
			l-0.136,0.072V144.25z"/>
		<path fill="#4D4D4D" d="M147.031,144.25v-5.744h0.6v5.744H147.031z"/>
		<path fill="#4D4D4D" d="M151.551,143.754l0.232-0.023l0.016,0.472c-0.608,0.085-1.128,0.128-1.56,0.128
			c-0.576,0-0.984-0.167-1.225-0.5s-0.359-0.853-0.359-1.556c0-1.403,0.557-2.104,1.672-2.104c0.538,0,0.941,0.15,1.208,0.452
			s0.399,0.774,0.399,1.42l-0.031,0.456h-2.641c0,0.442,0.08,0.771,0.24,0.984c0.16,0.213,0.438,0.319,0.836,0.319
			S151.14,143.786,151.551,143.754z M151.335,142.018c0-0.49-0.079-0.837-0.236-1.04c-0.157-0.202-0.413-0.304-0.768-0.304
			s-0.621,0.106-0.8,0.32c-0.179,0.213-0.271,0.555-0.276,1.023H151.335z"/>
		<path fill="#4D4D4D" d="M152.871,144.25v-4h0.592v0.544c0.464-0.32,0.952-0.53,1.464-0.632v0.607
			c-0.224,0.043-0.457,0.109-0.7,0.2c-0.242,0.091-0.428,0.171-0.556,0.24l-0.2,0.104v2.936H152.871z"/>
		<path fill="#4D4D4D" d="M172.279,139.53v-0.561h3.28v0.809l-2.032,4.552l-0.584-0.184l1.992-4.408v-0.208H172.279z"/>
		<path fill="#4D4D4D" d="M176.415,145.234l0.367-1.841h0.664l-0.536,1.841H176.415z"/>
		<path fill="#4D4D4D" d="M181.039,138.97v5.28h-0.616v-4.592l-1.36,0.896l-0.279-0.464l1.68-1.12H181.039z"/>
		<path fill="#4D4D4D" d="M183.25,139.23c0.334-0.232,0.794-0.349,1.38-0.349c0.587,0,1.053,0.116,1.396,0.349
			c0.344,0.231,0.516,0.574,0.516,1.027c0,0.331-0.066,0.583-0.2,0.756c-0.133,0.174-0.359,0.332-0.68,0.477
			c0.32,0.144,0.561,0.313,0.72,0.508c0.16,0.194,0.24,0.468,0.24,0.82c0,1.008-0.66,1.512-1.979,1.512
			c-1.32,0-1.98-0.475-1.98-1.424c0-0.379,0.073-0.667,0.22-0.864c0.147-0.197,0.378-0.381,0.692-0.552
			c-0.288-0.145-0.497-0.309-0.628-0.492s-0.196-0.434-0.196-0.748C182.75,139.802,182.917,139.462,183.25,139.23z M183.318,142.802
			c0,0.646,0.441,0.968,1.324,0.968c0.882,0,1.323-0.338,1.323-1.016c0-0.282-0.078-0.492-0.235-0.628s-0.391-0.249-0.7-0.34h-0.84
			c-0.294,0.08-0.512,0.198-0.656,0.355C183.391,142.3,183.318,142.52,183.318,142.802z M185.887,140.33
			c0-0.592-0.414-0.888-1.24-0.888c-0.827,0-1.24,0.293-1.24,0.88c0,0.234,0.064,0.424,0.192,0.567
			c0.128,0.145,0.325,0.265,0.592,0.36h0.84c0.288-0.091,0.503-0.208,0.644-0.352C185.815,140.754,185.887,140.564,185.887,140.33z"
			/>
		<path fill="#4D4D4D" d="M189.75,138.89c0.587,0,0.881,0.368,0.881,1.104c0,0.379-0.078,0.661-0.232,0.848s-0.371,0.28-0.648,0.28
			s-0.493-0.094-0.647-0.28c-0.155-0.187-0.232-0.469-0.232-0.848C188.87,139.258,189.164,138.89,189.75,138.89z M189.358,139.994
			c0,0.479,0.132,0.72,0.396,0.72c0.264,0,0.396-0.24,0.396-0.72c0-0.24-0.03-0.416-0.092-0.528s-0.163-0.168-0.304-0.168
			c-0.142,0-0.243,0.056-0.305,0.168S189.358,139.754,189.358,139.994z M189.887,144.282l1.64-5.48l0.384,0.128l-1.64,5.464
			L189.887,144.282z M191.15,143.194c0-0.731,0.292-1.097,0.876-1.097s0.876,0.368,0.876,1.104c0,0.373-0.077,0.654-0.231,0.844
			c-0.155,0.189-0.371,0.284-0.648,0.284s-0.492-0.095-0.644-0.284C191.227,143.856,191.15,143.572,191.15,143.194z
			 M191.631,143.194c0,0.485,0.13,0.728,0.392,0.728c0.149,0,0.253-0.059,0.312-0.176c0.059-0.117,0.088-0.299,0.088-0.544
			s-0.029-0.423-0.088-0.532c-0.06-0.109-0.16-0.164-0.305-0.164c-0.144,0-0.246,0.055-0.308,0.164S191.631,142.954,191.631,143.194
			z"/>
	</g>
</g>
<g>
	<g>
		<path fill="#4D4D4D" d="M128.903,156.662v-0.552h4v0.552h-1.688v4.984h-0.608v-4.984H128.903z"/>
		<path fill="#4D4D4D" d="M135.576,161.15l0.232-0.023l0.016,0.472c-0.608,0.085-1.128,0.128-1.56,0.128
			c-0.576,0-0.984-0.167-1.225-0.5s-0.359-0.853-0.359-1.556c0-1.403,0.557-2.104,1.672-2.104c0.538,0,0.941,0.15,1.208,0.452
			s0.399,0.774,0.399,1.42l-0.031,0.456h-2.641c0,0.442,0.08,0.771,0.24,0.984c0.16,0.213,0.438,0.319,0.836,0.319
			S135.165,161.183,135.576,161.15z M135.36,159.414c0-0.49-0.079-0.837-0.236-1.04c-0.157-0.202-0.413-0.304-0.768-0.304
			s-0.621,0.106-0.8,0.32c-0.179,0.213-0.271,0.555-0.276,1.023H135.36z"/>
		<path fill="#4D4D4D" d="M136.944,161.646v-5.744h0.6v5.744H136.944z"/>
		<path fill="#4D4D4D" d="M141.464,161.15l0.232-0.023l0.016,0.472c-0.608,0.085-1.128,0.128-1.56,0.128
			c-0.576,0-0.984-0.167-1.225-0.5s-0.359-0.853-0.359-1.556c0-1.403,0.557-2.104,1.672-2.104c0.538,0,0.941,0.15,1.208,0.452
			s0.399,0.774,0.399,1.42l-0.031,0.456h-2.641c0,0.442,0.08,0.771,0.24,0.984c0.16,0.213,0.438,0.319,0.836,0.319
			S141.053,161.183,141.464,161.15z M141.248,159.414c0-0.49-0.079-0.837-0.236-1.04c-0.157-0.202-0.413-0.304-0.768-0.304
			s-0.621,0.106-0.8,0.32c-0.179,0.213-0.271,0.555-0.276,1.023H141.248z"/>
		<path fill="#4D4D4D" d="M143.384,161.646h-0.6v-5.744h0.6v3.393l0.624-0.032l1.145-1.616h0.68l-1.304,1.84l1.359,2.16h-0.68
			l-1.192-1.856l-0.632,0.024V161.646z"/>
		<path fill="#4D4D4D" d="M146.336,159.639c0-0.73,0.13-1.259,0.392-1.584s0.702-0.488,1.324-0.488c0.621,0,1.062,0.163,1.319,0.488
			c0.259,0.325,0.389,0.854,0.389,1.584s-0.123,1.261-0.368,1.592s-0.693,0.496-1.344,0.496c-0.651,0-1.099-0.165-1.345-0.496
			C146.458,160.899,146.336,160.369,146.336,159.639z M146.951,159.627c0,0.584,0.071,0.993,0.212,1.228
			c0.142,0.234,0.438,0.352,0.889,0.352c0.45,0,0.745-0.115,0.884-0.348c0.139-0.231,0.208-0.642,0.208-1.228
			c0-0.587-0.077-0.991-0.232-1.212c-0.154-0.222-0.441-0.332-0.859-0.332c-0.419,0-0.707,0.11-0.864,0.332
			C147.03,158.64,146.951,159.043,146.951,159.627z"/>
		<path fill="#4D4D4D" d="M151.335,161.646h-0.6v-4h0.592v0.28c0.4-0.24,0.789-0.36,1.168-0.36c0.496,0,0.843,0.136,1.04,0.408
			c0.176-0.106,0.404-0.201,0.684-0.284c0.28-0.083,0.527-0.124,0.74-0.124c0.533,0,0.893,0.143,1.076,0.428
			c0.184,0.286,0.276,0.799,0.276,1.54v2.112h-0.601v-2.096c0-0.555-0.053-0.935-0.16-1.141c-0.106-0.205-0.333-0.308-0.68-0.308
			c-0.176,0-0.357,0.025-0.544,0.076s-0.331,0.1-0.432,0.147l-0.152,0.072c0.069,0.176,0.104,0.565,0.104,1.168v2.08h-0.601v-2.064
			c0-0.575-0.052-0.966-0.156-1.172c-0.104-0.205-0.332-0.308-0.684-0.308c-0.171,0-0.346,0.025-0.524,0.076s-0.315,0.1-0.412,0.147
			l-0.136,0.072V161.646z"/>
		<path fill="#4D4D4D" d="M175.479,156.366v0.561h-2.568l-0.145,1.72c0.411-0.219,0.824-0.328,1.24-0.328
			c1.12,0,1.681,0.521,1.681,1.561c0,0.597-0.155,1.053-0.465,1.367c-0.309,0.315-0.743,0.473-1.304,0.473
			c-0.448,0-0.944-0.059-1.488-0.176l-0.264-0.057l0.072-0.488c0.613,0.118,1.129,0.177,1.548,0.177s0.734-0.108,0.948-0.324
			c0.213-0.216,0.319-0.519,0.319-0.908c0-0.389-0.097-0.665-0.292-0.828c-0.194-0.162-0.471-0.244-0.827-0.244
			c-0.192,0-0.394,0.027-0.604,0.08c-0.211,0.054-0.372,0.107-0.484,0.16l-0.168,0.08l-0.424-0.08l0.145-2.744H175.479z"/>
		<path fill="#4D4D4D" d="M176.416,162.631l0.367-1.841h0.664l-0.536,1.841H176.416z"/>
		<path fill="#4D4D4D" d="M181.04,156.366v5.28h-0.616v-4.592l-1.36,0.896l-0.279-0.464l1.68-1.12H181.04z"/>
		<path fill="#4D4D4D" d="M186.264,156.927c-0.48-0.064-0.947-0.097-1.4-0.097s-0.803,0.158-1.048,0.473s-0.368,0.765-0.368,1.352
			l0.2-0.08c0.133-0.048,0.311-0.099,0.532-0.151c0.221-0.054,0.417-0.08,0.588-0.08c1.184,0,1.775,0.547,1.775,1.64
			c0,0.561-0.161,0.991-0.483,1.292c-0.323,0.302-0.777,0.452-1.364,0.452c-1.259,0-1.888-0.915-1.888-2.744
			c0-0.923,0.18-1.603,0.54-2.04c0.359-0.438,0.867-0.656,1.523-0.656c0.433,0,0.843,0.032,1.232,0.097l0.216,0.04L186.264,156.927z
			 M184.728,158.895c-0.182,0-0.38,0.025-0.597,0.076c-0.216,0.051-0.385,0.1-0.508,0.147l-0.184,0.08
			c0.005,0.608,0.107,1.091,0.308,1.448s0.506,0.536,0.916,0.536c0.411,0,0.72-0.103,0.928-0.309
			c0.208-0.205,0.312-0.495,0.312-0.871s-0.103-0.655-0.308-0.837C185.39,158.985,185.101,158.895,184.728,158.895z"/>
		<path fill="#4D4D4D" d="M189.751,156.286c0.587,0,0.881,0.368,0.881,1.104c0,0.379-0.078,0.661-0.232,0.848
			s-0.371,0.28-0.648,0.28s-0.493-0.094-0.647-0.28c-0.155-0.187-0.232-0.469-0.232-0.848
			C188.871,156.654,189.165,156.286,189.751,156.286z M189.359,157.391c0,0.479,0.132,0.72,0.396,0.72
			c0.264,0,0.396-0.24,0.396-0.72c0-0.24-0.03-0.416-0.092-0.528s-0.163-0.168-0.304-0.168c-0.142,0-0.243,0.056-0.305,0.168
			S189.359,157.15,189.359,157.391z M189.888,161.679l1.64-5.48l0.384,0.128l-1.64,5.464L189.888,161.679z M191.151,160.591
			c0-0.731,0.292-1.097,0.876-1.097s0.876,0.368,0.876,1.104c0,0.373-0.077,0.654-0.231,0.844c-0.155,0.189-0.371,0.284-0.648,0.284
			s-0.492-0.095-0.644-0.284C191.228,161.253,191.151,160.969,191.151,160.591z M191.632,160.591c0,0.485,0.13,0.728,0.392,0.728
			c0.149,0,0.253-0.059,0.312-0.176c0.059-0.117,0.088-0.299,0.088-0.544s-0.029-0.423-0.088-0.532
			c-0.06-0.109-0.16-0.164-0.305-0.164c-0.144,0-0.246,0.055-0.308,0.164S191.632,160.351,191.632,160.591z"/>
	</g>
</g>
<g>
	<g>
		<path fill="#4D4D4D" d="M1.262,5.974l1.52-5.536h1.344l1.521,5.536H5.037L4.638,4.55H2.27l-0.4,1.424H1.262z M3.245,0.966
			l-0.84,3.032h2.096l-0.84-3.032H3.245z"/>
		<path fill="#4D4D4D" d="M7.013,5.974h-0.6v-4h0.592v0.28c0.432-0.24,0.846-0.36,1.24-0.36c0.533,0,0.892,0.145,1.076,0.432
			c0.184,0.288,0.275,0.801,0.275,1.536v2.112H9.005V3.878c0-0.555-0.055-0.935-0.164-1.141C8.731,2.532,8.498,2.43,8.141,2.43
			c-0.171,0-0.351,0.025-0.54,0.076s-0.334,0.1-0.436,0.147L7.013,2.726V5.974z"/>
		<path fill="#4D4D4D" d="M12.758,2.493h-1.272v1.912c0,0.459,0.033,0.761,0.1,0.904c0.067,0.145,0.226,0.216,0.477,0.216
			l0.712-0.048l0.04,0.496c-0.357,0.059-0.63,0.088-0.816,0.088c-0.416,0-0.704-0.102-0.863-0.304c-0.16-0.203-0.24-0.59-0.24-1.16
			V2.493h-0.568v-0.52h0.568V0.75h0.592v1.224h1.272V2.493z"/>
		<path fill="#4D4D4D" d="M16.213,5.478l0.232-0.023l0.016,0.472c-0.608,0.085-1.128,0.128-1.56,0.128
			c-0.576,0-0.984-0.167-1.225-0.5s-0.359-0.853-0.359-1.556c0-1.403,0.557-2.104,1.672-2.104c0.538,0,0.941,0.15,1.208,0.452
			s0.399,0.774,0.399,1.42l-0.031,0.456h-2.641c0,0.442,0.08,0.771,0.24,0.984c0.16,0.213,0.438,0.319,0.836,0.319
			S15.802,5.51,16.213,5.478z M15.997,3.741c0-0.49-0.079-0.837-0.236-1.04c-0.157-0.202-0.413-0.304-0.768-0.304
			s-0.621,0.106-0.8,0.32c-0.179,0.213-0.271,0.555-0.276,1.023H15.997z"/>
		<path fill="#4D4D4D" d="M17.533,1.069V0.374h0.6v0.695H17.533z M17.533,5.974v-4h0.6v4H17.533z"/>
		<path fill="#4D4D4D" d="M19.333,5.974V0.229h0.6v5.744H19.333z"/>
		<path fill="#4D4D4D" d="M23.853,5.478l0.232-0.023l0.016,0.472c-0.608,0.085-1.128,0.128-1.56,0.128
			c-0.576,0-0.984-0.167-1.225-0.5s-0.359-0.853-0.359-1.556c0-1.403,0.557-2.104,1.672-2.104c0.538,0,0.941,0.15,1.208,0.452
			s0.399,0.774,0.399,1.42l-0.031,0.456h-2.641c0,0.442,0.08,0.771,0.24,0.984c0.16,0.213,0.438,0.319,0.836,0.319
			S23.441,5.51,23.853,5.478z M23.637,3.741c0-0.49-0.079-0.837-0.236-1.04c-0.157-0.202-0.413-0.304-0.768-0.304
			s-0.621,0.106-0.8,0.32c-0.179,0.213-0.271,0.555-0.276,1.023H23.637z"/>
		<path fill="#4D4D4D" d="M30.005,0.229v5.744h-0.593V5.701c-0.41,0.235-0.815,0.353-1.216,0.353c-0.213,0-0.399-0.026-0.56-0.08
			s-0.31-0.149-0.448-0.288c-0.288-0.288-0.432-0.82-0.432-1.596c0-0.776,0.129-1.336,0.388-1.681
			c0.259-0.344,0.687-0.516,1.284-0.516c0.309,0,0.637,0.035,0.983,0.104V0.229H30.005z M27.925,5.462
			c0.096,0.037,0.22,0.056,0.372,0.056c0.151,0,0.322-0.025,0.512-0.076s0.337-0.1,0.444-0.147l0.159-0.072V2.51
			c-0.341-0.064-0.658-0.096-0.952-0.096c-0.405,0-0.688,0.129-0.848,0.388s-0.24,0.66-0.24,1.204c0,0.618,0.094,1.034,0.28,1.248
			C27.737,5.355,27.828,5.425,27.925,5.462z"/>
		<path fill="#4D4D4D" d="M33.885,5.478l0.232-0.023l0.016,0.472c-0.608,0.085-1.128,0.128-1.56,0.128
			c-0.576,0-0.984-0.167-1.225-0.5s-0.359-0.853-0.359-1.556c0-1.403,0.557-2.104,1.672-2.104c0.538,0,0.941,0.15,1.208,0.452
			s0.399,0.774,0.399,1.42l-0.031,0.456h-2.641c0,0.442,0.08,0.771,0.24,0.984c0.16,0.213,0.438,0.319,0.836,0.319
			S33.474,5.51,33.885,5.478z M33.669,3.741c0-0.49-0.079-0.837-0.236-1.04c-0.157-0.202-0.413-0.304-0.768-0.304
			s-0.621,0.106-0.8,0.32c-0.179,0.213-0.271,0.555-0.276,1.023H33.669z"/>
		<path fill="#4D4D4D" d="M35.205,5.974v-4h0.592v0.544c0.464-0.32,0.952-0.53,1.464-0.632v0.607c-0.224,0.043-0.457,0.109-0.7,0.2
			c-0.242,0.091-0.428,0.171-0.556,0.24l-0.2,0.104v2.936H35.205z"/>
		<path fill="#4D4D4D" d="M40.332,5.974h-0.6V0.229h0.6v1.968c0.427-0.202,0.838-0.304,1.232-0.304c0.533,0,0.892,0.145,1.076,0.432
			c0.184,0.288,0.275,0.801,0.275,1.536v2.112h-0.6V3.878c0-0.555-0.055-0.935-0.164-1.141c-0.109-0.205-0.34-0.308-0.692-0.308
			c-0.336,0-0.661,0.062-0.976,0.184L40.332,2.67V5.974z"/>
		<path fill="#4D4D4D" d="M45.568,1.894c0.621,0,1.062,0.163,1.319,0.488c0.259,0.325,0.389,0.854,0.389,1.584
			s-0.123,1.261-0.368,1.592s-0.693,0.496-1.344,0.496c-0.651,0-1.099-0.165-1.345-0.496c-0.245-0.331-0.367-0.861-0.367-1.592
			s0.13-1.259,0.392-1.584S44.946,1.894,45.568,1.894z M44.452,1.006V0.285h0.576v0.721H44.452z M45.568,5.533
			c0.45,0,0.745-0.115,0.884-0.348c0.139-0.231,0.208-0.642,0.208-1.228c0-0.587-0.077-0.991-0.232-1.212
			c-0.154-0.222-0.441-0.332-0.859-0.332c-0.419,0-0.707,0.11-0.864,0.332c-0.157,0.221-0.236,0.624-0.236,1.208
			s0.071,0.993,0.212,1.228C44.821,5.416,45.117,5.533,45.568,5.533z M46.052,1.006V0.285h0.584v0.721H46.052z"/>
		<path fill="#4D4D4D" d="M49.749,1.894c0.176,0,0.475,0.032,0.896,0.096l0.192,0.024l-0.024,0.488
			c-0.427-0.048-0.741-0.072-0.943-0.072c-0.454,0-0.762,0.108-0.925,0.324c-0.162,0.216-0.243,0.616-0.243,1.2
			s0.075,0.99,0.228,1.22s0.468,0.344,0.948,0.344l0.943-0.072l0.024,0.496c-0.496,0.075-0.867,0.112-1.112,0.112
			c-0.624,0-1.055-0.16-1.292-0.48c-0.237-0.319-0.355-0.859-0.355-1.619c0-0.761,0.128-1.294,0.384-1.601
			S49.151,1.894,49.749,1.894z"/>
		<path fill="#4D4D4D" d="M52.34,5.974h-0.6V0.229h0.6v1.968c0.427-0.202,0.838-0.304,1.232-0.304c0.533,0,0.892,0.145,1.076,0.432
			c0.184,0.288,0.275,0.801,0.275,1.536v2.112h-0.6V3.878c0-0.555-0.055-0.935-0.164-1.141c-0.109-0.205-0.34-0.308-0.692-0.308
			c-0.336,0-0.661,0.062-0.976,0.184L52.34,2.67V5.974z"/>
		<path fill="#4D4D4D" d="M57.292,2.43c-0.581,0-0.872,0.203-0.872,0.608c0,0.187,0.066,0.318,0.2,0.396
			c0.133,0.077,0.438,0.157,0.912,0.24s0.811,0.198,1.008,0.348s0.296,0.43,0.296,0.84c0,0.411-0.132,0.712-0.396,0.904
			c-0.265,0.192-0.649,0.288-1.156,0.288c-0.331,0-0.721-0.037-1.168-0.112l-0.24-0.04l0.032-0.52
			c0.607,0.091,1.066,0.136,1.376,0.136c0.309,0,0.545-0.049,0.708-0.147c0.162-0.099,0.244-0.265,0.244-0.496
			c0-0.232-0.069-0.39-0.208-0.473c-0.139-0.082-0.443-0.161-0.912-0.235c-0.47-0.075-0.803-0.185-1-0.328
			c-0.197-0.145-0.296-0.411-0.296-0.8c0-0.39,0.137-0.678,0.412-0.864c0.274-0.187,0.617-0.28,1.027-0.28
			c0.325,0,0.733,0.037,1.225,0.112l0.224,0.04l-0.016,0.512C58.1,2.473,57.633,2.43,57.292,2.43z"/>
		<path fill="#4D4D4D" d="M61.829,2.493h-1.272v1.912c0,0.459,0.033,0.761,0.1,0.904c0.067,0.145,0.226,0.216,0.477,0.216
			l0.712-0.048l0.04,0.496c-0.357,0.059-0.63,0.088-0.816,0.088c-0.416,0-0.704-0.102-0.863-0.304c-0.16-0.203-0.24-0.59-0.24-1.16
			V2.493h-0.568v-0.52h0.568V0.75h0.592v1.224h1.272V2.493z"/>
		<path fill="#4D4D4D" d="M65.868,7.854c-0.64,0-1.087-0.087-1.34-0.26c-0.254-0.174-0.38-0.489-0.38-0.948
			c0-0.219,0.048-0.396,0.144-0.532c0.096-0.136,0.259-0.289,0.488-0.46c-0.149-0.101-0.225-0.285-0.225-0.552
			c0-0.091,0.067-0.259,0.2-0.504l0.072-0.128c-0.422-0.192-0.632-0.595-0.632-1.208c0-0.912,0.498-1.368,1.496-1.368
			c0.256,0,0.493,0.026,0.712,0.08l0.12,0.024l1.184-0.032v0.512l-0.76-0.016c0.176,0.176,0.264,0.442,0.264,0.8
			c0,0.501-0.124,0.852-0.372,1.052s-0.639,0.3-1.172,0.3c-0.144,0-0.274-0.011-0.392-0.031c-0.097,0.234-0.145,0.387-0.145,0.456
			c0,0.165,0.051,0.268,0.152,0.308s0.408,0.06,0.92,0.06s0.88,0.08,1.104,0.24c0.225,0.16,0.337,0.472,0.337,0.937
			C67.645,7.43,67.052,7.854,65.868,7.854z M64.74,6.598c0,0.282,0.078,0.479,0.235,0.588s0.448,0.164,0.872,0.164
			c0.425,0,0.729-0.059,0.912-0.176c0.185-0.117,0.276-0.313,0.276-0.588c0-0.275-0.066-0.452-0.2-0.532
			c-0.133-0.08-0.395-0.12-0.784-0.12l-0.863-0.04c-0.177,0.128-0.295,0.24-0.356,0.336S64.74,6.448,64.74,6.598z M64.796,3.262
			c0,0.314,0.07,0.539,0.212,0.672c0.142,0.134,0.375,0.2,0.7,0.2s0.558-0.066,0.696-0.2c0.139-0.133,0.208-0.358,0.208-0.676
			s-0.069-0.543-0.208-0.676c-0.139-0.134-0.371-0.2-0.696-0.2s-0.559,0.067-0.7,0.204C64.866,2.722,64.796,2.947,64.796,3.262z"/>
		<path fill="#4D4D4D" d="M71.156,5.478l0.232-0.023l0.016,0.472c-0.608,0.085-1.128,0.128-1.56,0.128
			c-0.576,0-0.984-0.167-1.225-0.5s-0.359-0.853-0.359-1.556c0-1.403,0.557-2.104,1.672-2.104c0.538,0,0.941,0.15,1.208,0.452
			s0.399,0.774,0.399,1.42l-0.031,0.456h-2.641c0,0.442,0.08,0.771,0.24,0.984c0.16,0.213,0.438,0.319,0.836,0.319
			S70.745,5.51,71.156,5.478z M70.94,3.741c0-0.49-0.079-0.837-0.236-1.04c-0.157-0.202-0.413-0.304-0.768-0.304
			s-0.621,0.106-0.8,0.32c-0.179,0.213-0.271,0.555-0.276,1.023H70.94z"/>
		<path fill="#4D4D4D" d="M72.108,1.974h0.6l0.809,3.48h0.128l0.952-3.4h0.624l0.951,3.4h0.137l0.8-3.48h0.6l-0.951,4h-1
			l-0.849-3.128l-0.848,3.128h-1L72.108,1.974z"/>
		<path fill="#4D4D4D" d="M81.212,5.478l0.232-0.023l0.016,0.472c-0.608,0.085-1.128,0.128-1.56,0.128
			c-0.576,0-0.984-0.167-1.225-0.5s-0.359-0.853-0.359-1.556c0-1.403,0.557-2.104,1.672-2.104c0.538,0,0.941,0.15,1.208,0.452
			s0.399,0.774,0.399,1.42l-0.031,0.456h-2.641c0,0.442,0.08,0.771,0.24,0.984c0.16,0.213,0.438,0.319,0.836,0.319
			S80.801,5.51,81.212,5.478z M80.996,3.741c0-0.49-0.079-0.837-0.236-1.04c-0.157-0.202-0.413-0.304-0.768-0.304
			s-0.621,0.106-0.8,0.32c-0.179,0.213-0.271,0.555-0.276,1.023H80.996z"/>
		<path fill="#4D4D4D" d="M82.532,5.974v-4h0.592v0.544c0.464-0.32,0.952-0.53,1.464-0.632v0.607c-0.224,0.043-0.457,0.109-0.7,0.2
			c-0.242,0.091-0.428,0.171-0.556,0.24l-0.2,0.104v2.936H82.532z"/>
		<path fill="#4D4D4D" d="M87.372,2.493H86.1v1.912c0,0.459,0.033,0.761,0.1,0.904c0.067,0.145,0.226,0.216,0.477,0.216l0.712-0.048
			l0.04,0.496c-0.357,0.059-0.63,0.088-0.816,0.088c-0.416,0-0.704-0.102-0.863-0.304c-0.16-0.203-0.24-0.59-0.24-1.16V2.493h-0.568
			v-0.52h0.568V0.75H86.1v1.224h1.272V2.493z"/>
		<path fill="#4D4D4D" d="M90.828,5.478l0.232-0.023l0.016,0.472c-0.608,0.085-1.128,0.128-1.56,0.128
			c-0.576,0-0.984-0.167-1.225-0.5s-0.359-0.853-0.359-1.556c0-1.403,0.557-2.104,1.672-2.104c0.538,0,0.941,0.15,1.208,0.452
			s0.399,0.774,0.399,1.42l-0.031,0.456H88.54c0,0.442,0.08,0.771,0.24,0.984c0.16,0.213,0.438,0.319,0.836,0.319
			S90.417,5.51,90.828,5.478z M90.612,3.741c0-0.49-0.079-0.837-0.236-1.04c-0.157-0.202-0.413-0.304-0.768-0.304
			s-0.621,0.106-0.8,0.32c-0.179,0.213-0.271,0.555-0.276,1.023H90.612z"/>
		<path fill="#4D4D4D" d="M94.196,2.493h-1.272v1.912c0,0.459,0.033,0.761,0.1,0.904c0.067,0.145,0.226,0.216,0.477,0.216
			l0.712-0.048l0.04,0.496c-0.357,0.059-0.63,0.088-0.816,0.088c-0.416,0-0.704-0.102-0.863-0.304c-0.16-0.203-0.24-0.59-0.24-1.16
			V2.493h-0.568v-0.52h0.568V0.75h0.592v1.224h1.272V2.493z"/>
		<path fill="#4D4D4D" d="M97.651,5.478l0.232-0.023l0.016,0.472c-0.608,0.085-1.128,0.128-1.56,0.128
			c-0.576,0-0.984-0.167-1.225-0.5s-0.359-0.853-0.359-1.556c0-1.403,0.557-2.104,1.672-2.104c0.538,0,0.941,0.15,1.208,0.452
			s0.399,0.774,0.399,1.42l-0.031,0.456h-2.641c0,0.442,0.08,0.771,0.24,0.984c0.16,0.213,0.438,0.319,0.836,0.319
			S97.24,5.51,97.651,5.478z M97.436,3.741c0-0.49-0.079-0.837-0.236-1.04c-0.157-0.202-0.413-0.304-0.768-0.304
			s-0.621,0.106-0.8,0.32c-0.179,0.213-0.271,0.555-0.276,1.023H97.436z"/>
		<path fill="#4D4D4D" d="M99.571,5.974h-0.6v-4h0.592v0.28c0.432-0.24,0.846-0.36,1.24-0.36c0.533,0,0.892,0.145,1.076,0.432
			c0.184,0.288,0.275,0.801,0.275,1.536v2.112h-0.592V3.878c0-0.555-0.055-0.935-0.164-1.141c-0.109-0.205-0.343-0.308-0.7-0.308
			c-0.171,0-0.351,0.025-0.54,0.076s-0.334,0.1-0.436,0.147l-0.152,0.072V5.974z"/>
		<path fill="#4D4D4D" d="M2.325,13.909c0,0.8,0.433,1.2,1.296,1.2c0.448,0,0.785-0.095,1.013-0.284
			c0.227-0.189,0.34-0.494,0.34-0.916v-3.872h0.607v3.856c0,0.618-0.164,1.066-0.492,1.344c-0.327,0.277-0.812,0.416-1.451,0.416
			c-0.641,0-1.122-0.139-1.444-0.416c-0.323-0.277-0.484-0.726-0.484-1.344v-3.856h0.616V13.909z"/>
		<path fill="#4D4D4D" d="M7.397,15.573h-0.6v-4H7.39v0.28c0.432-0.24,0.846-0.36,1.24-0.36c0.533,0,0.892,0.145,1.076,0.432
			c0.184,0.288,0.275,0.801,0.275,1.536v2.112H9.39v-2.096c0-0.555-0.055-0.935-0.164-1.141c-0.109-0.205-0.343-0.308-0.7-0.308
			c-0.171,0-0.351,0.025-0.54,0.076s-0.334,0.1-0.436,0.147l-0.152,0.072V15.573z"/>
		<path fill="#4D4D4D" d="M13.142,12.093h-1.272v1.912c0,0.459,0.033,0.761,0.1,0.904c0.067,0.145,0.226,0.216,0.477,0.216
			l0.712-0.048l0.04,0.496c-0.357,0.059-0.63,0.088-0.816,0.088c-0.416,0-0.704-0.102-0.863-0.304c-0.16-0.203-0.24-0.59-0.24-1.16
			v-2.104h-0.568v-0.52h0.568V10.35h0.592v1.224h1.272V12.093z"/>
		<path fill="#4D4D4D" d="M16.598,15.077l0.232-0.023l0.016,0.472c-0.608,0.085-1.128,0.128-1.56,0.128
			c-0.576,0-0.984-0.167-1.225-0.5s-0.359-0.853-0.359-1.556c0-1.403,0.557-2.104,1.672-2.104c0.538,0,0.941,0.15,1.208,0.452
			s0.399,0.774,0.399,1.42l-0.031,0.456H14.31c0,0.442,0.08,0.771,0.24,0.984c0.16,0.213,0.438,0.319,0.836,0.319
			S16.187,15.109,16.598,15.077z M16.382,13.341c0-0.49-0.079-0.837-0.236-1.04c-0.157-0.202-0.413-0.304-0.768-0.304
			s-0.621,0.106-0.8,0.32c-0.179,0.213-0.271,0.555-0.276,1.023H16.382z"/>
		<path fill="#4D4D4D" d="M17.917,15.573v-4h0.592v0.544c0.464-0.32,0.952-0.53,1.464-0.632v0.607c-0.224,0.043-0.457,0.109-0.7,0.2
			c-0.242,0.091-0.428,0.171-0.556,0.24l-0.2,0.104v2.936H17.917z"/>
		<path fill="#4D4D4D" d="M21.285,15.573h-0.6v-4h0.592v0.28c0.432-0.24,0.846-0.36,1.24-0.36c0.533,0,0.892,0.145,1.076,0.432
			c0.184,0.288,0.275,0.801,0.275,1.536v2.112h-0.592v-2.096c0-0.555-0.055-0.935-0.164-1.141c-0.109-0.205-0.343-0.308-0.7-0.308
			c-0.171,0-0.351,0.025-0.54,0.076s-0.334,0.1-0.436,0.147l-0.152,0.072V15.573z"/>
		<path fill="#4D4D4D" d="M27.701,15.077l0.232-0.023l0.016,0.472c-0.608,0.085-1.128,0.128-1.56,0.128
			c-0.576,0-0.984-0.167-1.225-0.5s-0.359-0.853-0.359-1.556c0-1.403,0.557-2.104,1.672-2.104c0.538,0,0.941,0.15,1.208,0.452
			s0.399,0.774,0.399,1.42l-0.031,0.456h-2.641c0,0.442,0.08,0.771,0.24,0.984c0.16,0.213,0.438,0.319,0.836,0.319
			S27.29,15.109,27.701,15.077z M27.485,13.341c0-0.49-0.079-0.837-0.236-1.04c-0.157-0.202-0.413-0.304-0.768-0.304
			s-0.621,0.106-0.8,0.32c-0.179,0.213-0.271,0.555-0.276,1.023H27.485z"/>
		<path fill="#4D4D4D" d="M29.621,15.573h-0.6V9.829h0.6v1.968c0.427-0.202,0.838-0.304,1.232-0.304
			c0.533,0,0.892,0.145,1.076,0.432c0.184,0.288,0.275,0.801,0.275,1.536v2.112h-0.6v-2.096c0-0.555-0.055-0.935-0.164-1.141
			c-0.109-0.205-0.34-0.308-0.692-0.308c-0.336,0-0.661,0.062-0.976,0.184l-0.152,0.057V15.573z"/>
		<path fill="#4D4D4D" d="M33.917,15.573h-0.6v-4h0.592v0.28c0.4-0.24,0.789-0.36,1.168-0.36c0.496,0,0.843,0.136,1.04,0.408
			c0.176-0.106,0.404-0.201,0.684-0.284c0.28-0.083,0.527-0.124,0.74-0.124c0.533,0,0.893,0.143,1.076,0.428
			c0.184,0.286,0.276,0.799,0.276,1.54v2.112h-0.601v-2.096c0-0.555-0.053-0.935-0.16-1.141c-0.106-0.205-0.333-0.308-0.68-0.308
			c-0.176,0-0.357,0.025-0.544,0.076s-0.331,0.1-0.432,0.147l-0.152,0.072c0.069,0.176,0.104,0.565,0.104,1.168v2.08h-0.601v-2.064
			c0-0.575-0.052-0.966-0.156-1.172c-0.104-0.205-0.332-0.308-0.684-0.308c-0.171,0-0.346,0.025-0.524,0.076s-0.315,0.1-0.412,0.147
			l-0.136,0.072V15.573z"/>
		<path fill="#4D4D4D" d="M42.725,15.077l0.232-0.023l0.016,0.472c-0.608,0.085-1.128,0.128-1.56,0.128
			c-0.576,0-0.984-0.167-1.225-0.5s-0.359-0.853-0.359-1.556c0-1.403,0.557-2.104,1.672-2.104c0.538,0,0.941,0.15,1.208,0.452
			s0.399,0.774,0.399,1.42l-0.031,0.456h-2.641c0,0.442,0.08,0.771,0.24,0.984c0.16,0.213,0.438,0.319,0.836,0.319
			S42.313,15.109,42.725,15.077z M42.509,13.341c0-0.49-0.079-0.837-0.236-1.04c-0.157-0.202-0.413-0.304-0.768-0.304
			s-0.621,0.106-0.8,0.32c-0.179,0.213-0.271,0.555-0.276,1.023H42.509z"/>
		<path fill="#4D4D4D" d="M44.645,15.573h-0.6v-4h0.592v0.28c0.432-0.24,0.846-0.36,1.24-0.36c0.533,0,0.892,0.145,1.076,0.432
			c0.184,0.288,0.275,0.801,0.275,1.536v2.112h-0.592v-2.096c0-0.555-0.055-0.935-0.164-1.141c-0.109-0.205-0.343-0.308-0.7-0.308
			c-0.171,0-0.351,0.025-0.54,0.076s-0.334,0.1-0.436,0.147l-0.152,0.072V15.573z"/>
		<path fill="#4D4D4D" d="M50.7,15.573h-0.6v-4h0.592v0.28c0.432-0.24,0.846-0.36,1.24-0.36c0.533,0,0.892,0.145,1.076,0.432
			c0.184,0.288,0.275,0.801,0.275,1.536v2.112h-0.592v-2.096c0-0.555-0.055-0.935-0.164-1.141c-0.109-0.205-0.343-0.308-0.7-0.308
			c-0.171,0-0.351,0.025-0.54,0.076s-0.334,0.1-0.436,0.147L50.7,12.325V15.573z"/>
		<path fill="#4D4D4D" d="M57.221,12.781v2.048c0.016,0.197,0.17,0.314,0.464,0.353l-0.024,0.472c-0.421,0-0.738-0.106-0.952-0.32
			c-0.479,0.214-0.96,0.32-1.439,0.32c-0.368,0-0.648-0.104-0.84-0.312c-0.192-0.208-0.288-0.506-0.288-0.896
			s0.099-0.676,0.296-0.86c0.197-0.184,0.507-0.297,0.928-0.34l1.256-0.12v-0.344c0-0.272-0.059-0.467-0.176-0.584
			s-0.277-0.176-0.48-0.176c-0.427,0-0.869,0.026-1.327,0.08l-0.248,0.023l-0.024-0.456c0.587-0.117,1.106-0.176,1.56-0.176
			c0.454,0,0.783,0.104,0.988,0.312S57.221,12.339,57.221,12.781z M54.756,14.413c0,0.491,0.203,0.736,0.608,0.736
			c0.362,0,0.72-0.062,1.072-0.185l0.184-0.063v-1.32l-1.184,0.112c-0.24,0.021-0.414,0.091-0.521,0.208
			S54.756,14.189,54.756,14.413z"/>
		<path fill="#4D4D4D" d="M59.9,11.493c0.176,0,0.475,0.032,0.896,0.096l0.192,0.024l-0.024,0.488
			c-0.427-0.048-0.741-0.072-0.943-0.072c-0.454,0-0.762,0.108-0.925,0.324c-0.162,0.216-0.243,0.616-0.243,1.2
			s0.075,0.99,0.228,1.22s0.468,0.344,0.948,0.344l0.943-0.072l0.024,0.496c-0.496,0.075-0.867,0.112-1.112,0.112
			c-0.624,0-1.055-0.16-1.292-0.48c-0.237-0.319-0.355-0.859-0.355-1.619c0-0.761,0.128-1.294,0.384-1.601
			S59.303,11.493,59.9,11.493z"/>
		<path fill="#4D4D4D" d="M62.492,15.573h-0.6V9.829h0.6v1.968c0.427-0.202,0.838-0.304,1.232-0.304
			c0.533,0,0.892,0.145,1.076,0.432c0.184,0.288,0.275,0.801,0.275,1.536v2.112h-0.6v-2.096c0-0.555-0.055-0.935-0.164-1.141
			c-0.109-0.205-0.34-0.308-0.692-0.308c-0.336,0-0.661,0.062-0.976,0.184l-0.152,0.057V15.573z"/>
		<path fill="#4D4D4D" d="M68.052,15.573v-5.536h0.616v5.536H68.052z"/>
		<path fill="#4D4D4D" d="M70.516,15.573h-0.6v-4h0.592v0.28c0.432-0.24,0.846-0.36,1.24-0.36c0.533,0,0.892,0.145,1.076,0.432
			c0.184,0.288,0.275,0.801,0.275,1.536v2.112h-0.592v-2.096c0-0.555-0.055-0.935-0.164-1.141c-0.109-0.205-0.343-0.308-0.7-0.308
			c-0.171,0-0.351,0.025-0.54,0.076s-0.334,0.1-0.436,0.147l-0.152,0.072V15.573z"/>
		<path fill="#4D4D4D" d="M77.284,9.829v5.744h-0.593v-0.272c-0.41,0.235-0.815,0.353-1.216,0.353c-0.213,0-0.399-0.026-0.56-0.08
			s-0.31-0.149-0.448-0.288c-0.288-0.288-0.432-0.82-0.432-1.596c0-0.776,0.129-1.336,0.388-1.681
			c0.259-0.344,0.687-0.516,1.284-0.516c0.309,0,0.637,0.035,0.983,0.104V9.829H77.284z M75.204,15.062
			c0.096,0.037,0.22,0.056,0.372,0.056c0.151,0,0.322-0.025,0.512-0.076s0.337-0.1,0.444-0.147l0.159-0.072v-2.712
			c-0.341-0.064-0.658-0.096-0.952-0.096c-0.405,0-0.688,0.129-0.848,0.388s-0.24,0.66-0.24,1.204c0,0.618,0.094,1.034,0.28,1.248
			C75.017,14.955,75.107,15.024,75.204,15.062z"/>
		<path fill="#4D4D4D" d="M81.164,15.077l0.232-0.023l0.016,0.472c-0.608,0.085-1.128,0.128-1.56,0.128
			c-0.576,0-0.984-0.167-1.225-0.5s-0.359-0.853-0.359-1.556c0-1.403,0.557-2.104,1.672-2.104c0.538,0,0.941,0.15,1.208,0.452
			s0.399,0.774,0.399,1.42l-0.031,0.456h-2.641c0,0.442,0.08,0.771,0.24,0.984c0.16,0.213,0.438,0.319,0.836,0.319
			S80.753,15.109,81.164,15.077z M80.948,13.341c0-0.49-0.079-0.837-0.236-1.04c-0.157-0.202-0.413-0.304-0.768-0.304
			s-0.621,0.106-0.8,0.32c-0.179,0.213-0.271,0.555-0.276,1.023H80.948z"/>
		<path fill="#4D4D4D" d="M82.052,11.573h0.656l0.976,1.568l0.977-1.568h0.656l-1.272,1.984l1.264,2.016h-0.655l-0.969-1.56
			l-0.976,1.56h-0.656l1.256-2L82.052,11.573z"/>
		<path fill="#4D4D4D" d="M87.532,17.453c-0.64,0-1.087-0.087-1.34-0.26c-0.254-0.174-0.38-0.489-0.38-0.948
			c0-0.219,0.048-0.396,0.144-0.532c0.096-0.136,0.259-0.289,0.488-0.46c-0.149-0.101-0.225-0.285-0.225-0.552
			c0-0.091,0.067-0.259,0.2-0.504l0.072-0.128c-0.422-0.192-0.632-0.595-0.632-1.208c0-0.912,0.498-1.368,1.496-1.368
			c0.256,0,0.493,0.026,0.712,0.08l0.12,0.024l1.184-0.032v0.512l-0.76-0.016c0.176,0.176,0.264,0.442,0.264,0.8
			c0,0.501-0.124,0.852-0.372,1.052s-0.639,0.3-1.172,0.3c-0.144,0-0.274-0.011-0.392-0.031c-0.097,0.234-0.145,0.387-0.145,0.456
			c0,0.165,0.051,0.268,0.152,0.308s0.408,0.06,0.92,0.06s0.88,0.08,1.104,0.24c0.225,0.16,0.337,0.472,0.337,0.937
			C89.309,17.029,88.716,17.453,87.532,17.453z M86.404,16.197c0,0.282,0.078,0.479,0.235,0.588s0.448,0.164,0.872,0.164
			c0.425,0,0.729-0.059,0.912-0.176c0.185-0.117,0.276-0.313,0.276-0.588c0-0.275-0.066-0.452-0.2-0.532
			c-0.133-0.08-0.395-0.12-0.784-0.12l-0.863-0.04c-0.177,0.128-0.295,0.24-0.356,0.336S86.404,16.048,86.404,16.197z M86.46,12.861
			c0,0.314,0.07,0.539,0.212,0.672c0.142,0.134,0.375,0.2,0.7,0.2s0.558-0.066,0.696-0.2c0.139-0.133,0.208-0.358,0.208-0.676
			s-0.069-0.543-0.208-0.676c-0.139-0.134-0.371-0.2-0.696-0.2s-0.559,0.067-0.7,0.204C86.53,12.321,86.46,12.547,86.46,12.861z"/>
		<path fill="#4D4D4D" d="M92.819,15.077l0.232-0.023l0.016,0.472c-0.608,0.085-1.128,0.128-1.56,0.128
			c-0.576,0-0.984-0.167-1.225-0.5s-0.359-0.853-0.359-1.556c0-1.403,0.557-2.104,1.672-2.104c0.538,0,0.941,0.15,1.208,0.452
			s0.399,0.774,0.399,1.42l-0.031,0.456h-2.641c0,0.442,0.08,0.771,0.24,0.984c0.16,0.213,0.438,0.319,0.836,0.319
			S92.408,15.109,92.819,15.077z M92.604,13.341c0-0.49-0.079-0.837-0.236-1.04c-0.157-0.202-0.413-0.304-0.768-0.304
			s-0.621,0.106-0.8,0.32c-0.179,0.213-0.271,0.555-0.276,1.023H92.604z"/>
		<path fill="#4D4D4D" d="M93.771,11.573h0.6l0.809,3.48h0.128l0.952-3.4h0.624l0.951,3.4h0.137l0.8-3.48h0.6l-0.951,4h-1
			l-0.849-3.128l-0.848,3.128h-1L93.771,11.573z"/>
		<path fill="#4D4D4D" d="M100.196,10.669V9.974h0.6v0.695H100.196z M100.196,15.573v-4h0.6v4H100.196z"/>
		<path fill="#4D4D4D" d="M103.444,11.493c0.176,0,0.475,0.032,0.896,0.096l0.192,0.024l-0.024,0.488
			c-0.427-0.048-0.741-0.072-0.943-0.072c-0.454,0-0.762,0.108-0.925,0.324c-0.162,0.216-0.243,0.616-0.243,1.2
			s0.075,0.99,0.228,1.22s0.468,0.344,0.948,0.344l0.943-0.072l0.024,0.496c-0.496,0.075-0.867,0.112-1.112,0.112
			c-0.624,0-1.055-0.16-1.292-0.48c-0.237-0.319-0.355-0.859-0.355-1.619c0-0.761,0.128-1.294,0.384-1.601
			S102.847,11.493,103.444,11.493z"/>
		<path fill="#4D4D4D" d="M106.035,15.573h-0.6V9.829h0.6v1.968c0.427-0.202,0.838-0.304,1.232-0.304
			c0.533,0,0.892,0.145,1.076,0.432c0.184,0.288,0.275,0.801,0.275,1.536v2.112h-0.6v-2.096c0-0.555-0.055-0.935-0.164-1.141
			c-0.109-0.205-0.34-0.308-0.692-0.308c-0.336,0-0.661,0.062-0.976,0.184l-0.152,0.057V15.573z"/>
		<path fill="#4D4D4D" d="M111.78,12.093h-1.272v1.912c0,0.459,0.033,0.761,0.1,0.904c0.067,0.145,0.226,0.216,0.477,0.216
			l0.712-0.048l0.04,0.496c-0.357,0.059-0.63,0.088-0.816,0.088c-0.416,0-0.704-0.102-0.863-0.304c-0.16-0.203-0.24-0.59-0.24-1.16
			v-2.104h-0.568v-0.52h0.568V10.35h0.592v1.224h1.272V12.093z"/>
		<path fill="#4D4D4D" d="M115.012,11.573h0.6v4h-0.6v-0.28c-0.4,0.24-0.795,0.36-1.185,0.36c-0.544,0-0.905-0.142-1.084-0.424
			c-0.179-0.283-0.268-0.806-0.268-1.568v-2.088h0.6v2.08c0,0.581,0.051,0.971,0.152,1.168s0.33,0.296,0.688,0.296
			c0.177,0,0.355-0.025,0.536-0.076c0.182-0.051,0.32-0.1,0.416-0.147l0.145-0.072V11.573z"/>
		<path fill="#4D4D4D" d="M117.363,15.573h-0.6v-4h0.592v0.28c0.432-0.24,0.846-0.36,1.24-0.36c0.533,0,0.892,0.145,1.076,0.432
			c0.184,0.288,0.275,0.801,0.275,1.536v2.112h-0.592v-2.096c0-0.555-0.055-0.935-0.164-1.141c-0.109-0.205-0.343-0.308-0.7-0.308
			c-0.171,0-0.351,0.025-0.54,0.076s-0.334,0.1-0.436,0.147l-0.152,0.072V15.573z"/>
		<path fill="#4D4D4D" d="M122.604,17.453c-0.64,0-1.087-0.087-1.34-0.26c-0.254-0.174-0.38-0.489-0.38-0.948
			c0-0.219,0.048-0.396,0.144-0.532c0.096-0.136,0.259-0.289,0.488-0.46c-0.149-0.101-0.225-0.285-0.225-0.552
			c0-0.091,0.067-0.259,0.2-0.504l0.072-0.128c-0.422-0.192-0.632-0.595-0.632-1.208c0-0.912,0.498-1.368,1.496-1.368
			c0.256,0,0.493,0.026,0.712,0.08l0.12,0.024l1.184-0.032v0.512l-0.76-0.016c0.176,0.176,0.264,0.442,0.264,0.8
			c0,0.501-0.124,0.852-0.372,1.052s-0.639,0.3-1.172,0.3c-0.144,0-0.274-0.011-0.392-0.031c-0.097,0.234-0.145,0.387-0.145,0.456
			c0,0.165,0.051,0.268,0.152,0.308s0.408,0.06,0.92,0.06s0.88,0.08,1.104,0.24c0.225,0.16,0.337,0.472,0.337,0.937
			C124.38,17.029,123.787,17.453,122.604,17.453z M121.476,16.197c0,0.282,0.078,0.479,0.235,0.588s0.448,0.164,0.872,0.164
			c0.425,0,0.729-0.059,0.912-0.176c0.185-0.117,0.276-0.313,0.276-0.588c0-0.275-0.066-0.452-0.2-0.532
			c-0.133-0.08-0.395-0.12-0.784-0.12l-0.863-0.04c-0.177,0.128-0.295,0.24-0.356,0.336S121.476,16.048,121.476,16.197z
			 M121.531,12.861c0,0.314,0.07,0.539,0.212,0.672c0.142,0.134,0.375,0.2,0.7,0.2s0.558-0.066,0.696-0.2
			c0.139-0.133,0.208-0.358,0.208-0.676s-0.069-0.543-0.208-0.676c-0.139-0.134-0.371-0.2-0.696-0.2s-0.559,0.067-0.7,0.204
			C121.602,12.321,121.531,12.547,121.531,12.861z"/>
		<path fill="#4D4D4D" d="M126.932,10.669V9.974h0.6v0.695H126.932z M126.932,15.573v-4h0.6v4H126.932z"/>
		<path fill="#4D4D4D" d="M129.283,15.573h-0.6v-4h0.592v0.28c0.4-0.24,0.789-0.36,1.168-0.36c0.496,0,0.843,0.136,1.04,0.408
			c0.176-0.106,0.404-0.201,0.684-0.284c0.28-0.083,0.527-0.124,0.74-0.124c0.533,0,0.893,0.143,1.076,0.428
			c0.184,0.286,0.276,0.799,0.276,1.54v2.112h-0.601v-2.096c0-0.555-0.053-0.935-0.16-1.141c-0.106-0.205-0.333-0.308-0.68-0.308
			c-0.176,0-0.357,0.025-0.544,0.076s-0.331,0.1-0.432,0.147l-0.152,0.072c0.069,0.176,0.104,0.565,0.104,1.168v2.08h-0.601v-2.064
			c0-0.575-0.052-0.966-0.156-1.172c-0.104-0.205-0.332-0.308-0.684-0.308c-0.171,0-0.346,0.025-0.524,0.076s-0.315,0.1-0.412,0.147
			l-0.136,0.072V15.573z"/>
		<path fill="#4D4D4D" d="M139.211,15.573h-1.977v-5.536h1.977c0.901,0,1.498,0.357,1.792,1.072c0.17,0.41,0.256,0.949,0.256,1.616
			c0,1.392-0.347,2.269-1.04,2.632C139.941,15.501,139.605,15.573,139.211,15.573z M140.627,12.726c0-1.062-0.237-1.723-0.712-1.984
			c-0.192-0.106-0.427-0.16-0.704-0.16h-1.36v4.448h1.36C140.154,15.029,140.627,14.262,140.627,12.726z"/>
		<path fill="#4D4D4D" d="M141.795,15.573l1.52-5.536h1.344l1.521,5.536h-0.608l-0.399-1.424h-2.368l-0.4,1.424H141.795z
			 M143.778,10.565l-0.84,3.032h2.096l-0.84-3.032H143.778z"/>
		<path fill="#4D4D4D" d="M147.219,10.037l1.4,2.368l1.408-2.368h0.664l-1.704,2.809l1.704,2.728h-0.696l-1.392-2.296l-1.416,2.296
			h-0.664l1.712-2.712l-1.712-2.824H147.219z"/>
		<path fill="#4D4D4D" d="M2.31,26.174c-0.555-1.248-0.832-2.384-0.832-3.408c0-0.512,0.069-1.067,0.208-1.668
			c0.139-0.6,0.277-1.07,0.416-1.412l0.208-0.512h0.576c-0.188,0.491-0.36,1.098-0.521,1.82s-0.24,1.312-0.24,1.768
			s0.064,0.968,0.192,1.536s0.256,1.022,0.384,1.364l0.185,0.512H2.31z"/>
		<path fill="#4D4D4D" d="M5.39,20.094c-0.8,0-1.2,0.302-1.2,0.904c0,0.336,0.092,0.566,0.276,0.691
			c0.184,0.126,0.557,0.251,1.12,0.376c0.562,0.126,0.961,0.288,1.195,0.488c0.235,0.2,0.353,0.529,0.353,0.988
			c0,1.136-0.59,1.704-1.769,1.704c-0.389,0-0.877-0.046-1.464-0.137L3.613,25.07l0.064-0.513c0.726,0.097,1.277,0.145,1.656,0.145
			c0.789,0,1.184-0.371,1.184-1.112c0-0.299-0.087-0.514-0.26-0.644c-0.174-0.131-0.497-0.242-0.973-0.332
			c-0.623-0.134-1.066-0.306-1.327-0.517c-0.262-0.211-0.393-0.563-0.393-1.06c0-0.992,0.595-1.488,1.784-1.488
			c0.39,0,0.856,0.04,1.4,0.12l0.271,0.04l-0.056,0.52C6.225,20.14,5.699,20.094,5.39,20.094z"/>
		<path fill="#4D4D4D" d="M10.094,21.693H8.821v1.912c0,0.459,0.033,0.761,0.1,0.904c0.067,0.145,0.226,0.216,0.477,0.216
			l0.712-0.048l0.04,0.496c-0.357,0.059-0.63,0.088-0.816,0.088c-0.416,0-0.704-0.102-0.863-0.304c-0.16-0.203-0.24-0.59-0.24-1.16
			v-2.104H7.661v-0.52h0.568V19.95h0.592v1.224h1.272V21.693z"/>
		<path fill="#4D4D4D" d="M13.653,22.382v2.048c0.016,0.197,0.17,0.314,0.464,0.353l-0.024,0.472c-0.421,0-0.738-0.106-0.952-0.32
			c-0.479,0.214-0.96,0.32-1.439,0.32c-0.368,0-0.648-0.104-0.84-0.312c-0.192-0.208-0.288-0.506-0.288-0.896
			s0.099-0.676,0.296-0.86c0.197-0.184,0.507-0.297,0.928-0.34l1.256-0.12v-0.344c0-0.272-0.059-0.467-0.176-0.584
			s-0.277-0.176-0.48-0.176c-0.427,0-0.869,0.026-1.327,0.08l-0.248,0.023l-0.024-0.456c0.587-0.117,1.106-0.176,1.56-0.176
			c0.454,0,0.783,0.104,0.988,0.312S13.653,21.939,13.653,22.382z M11.188,24.014c0,0.491,0.203,0.736,0.608,0.736
			c0.362,0,0.72-0.062,1.072-0.185l0.184-0.063v-1.32l-1.184,0.112c-0.24,0.021-0.414,0.091-0.521,0.208S11.188,23.79,11.188,24.014
			z"/>
		<path fill="#4D4D4D" d="M15.437,25.174h-0.6v-4h0.592v0.28c0.432-0.24,0.846-0.36,1.24-0.36c0.533,0,0.892,0.145,1.076,0.432
			c0.184,0.288,0.275,0.801,0.275,1.536v2.112h-0.592v-2.096c0-0.555-0.055-0.935-0.164-1.141c-0.109-0.205-0.343-0.308-0.7-0.308
			c-0.171,0-0.351,0.025-0.54,0.076s-0.334,0.1-0.436,0.147l-0.152,0.072V25.174z"/>
		<path fill="#4D4D4D" d="M22.205,19.43v5.744h-0.593v-0.272c-0.41,0.235-0.815,0.353-1.216,0.353c-0.213,0-0.399-0.026-0.56-0.08
			s-0.31-0.149-0.448-0.288c-0.288-0.288-0.432-0.82-0.432-1.596c0-0.776,0.129-1.336,0.388-1.681
			c0.259-0.344,0.687-0.516,1.284-0.516c0.309,0,0.637,0.035,0.983,0.104V19.43H22.205z M20.125,24.662
			c0.096,0.037,0.22,0.056,0.372,0.056c0.151,0,0.322-0.025,0.512-0.076s0.337-0.1,0.444-0.147l0.159-0.072V21.71
			c-0.341-0.064-0.658-0.096-0.952-0.096c-0.405,0-0.688,0.129-0.848,0.388s-0.24,0.66-0.24,1.204c0,0.618,0.094,1.034,0.28,1.248
			C19.938,24.556,20.028,24.625,20.125,24.662z"/>
		<path fill="#4D4D4D" d="M23.324,22.598v-0.912h0.656v0.912H23.324z M23.324,25.174v-0.912h0.656v0.912H23.324z"/>
		<path fill="#4D4D4D" d="M26.964,25.174v-5.536h1.112l1.568,4.68l1.567-4.68h1.112v5.536h-0.616v-4.88h-0.112l-1.607,4.68H29.3
			l-1.607-4.68H27.58v4.88H26.964z"/>
		<path fill="#4D4D4D" d="M36.404,22.382v2.048c0.016,0.197,0.17,0.314,0.464,0.353l-0.024,0.472c-0.421,0-0.738-0.106-0.952-0.32
			c-0.479,0.214-0.96,0.32-1.439,0.32c-0.368,0-0.648-0.104-0.84-0.312c-0.192-0.208-0.288-0.506-0.288-0.896
			s0.099-0.676,0.296-0.86c0.197-0.184,0.507-0.297,0.928-0.34l1.256-0.12v-0.344c0-0.272-0.059-0.467-0.176-0.584
			s-0.277-0.176-0.48-0.176c-0.427,0-0.869,0.026-1.327,0.08l-0.248,0.023l-0.024-0.456c0.587-0.117,1.106-0.176,1.56-0.176
			c0.454,0,0.783,0.104,0.988,0.312S36.404,21.939,36.404,22.382z M33.844,20.206v-0.721h0.576v0.721H33.844z M33.939,24.014
			c0,0.491,0.203,0.736,0.608,0.736c0.362,0,0.72-0.062,1.072-0.185l0.184-0.063v-1.32l-1.184,0.112
			c-0.24,0.021-0.414,0.091-0.521,0.208S33.939,23.79,33.939,24.014z M35.444,20.206v-0.721h0.584v0.721H35.444z"/>
		<path fill="#4D4D4D" d="M37.588,25.174v-4h0.592v0.544c0.464-0.32,0.952-0.53,1.464-0.632v0.607c-0.224,0.043-0.457,0.109-0.7,0.2
			c-0.242,0.091-0.428,0.171-0.556,0.24l-0.2,0.104v2.936H37.588z"/>
		<path fill="#4D4D4D" d="M40.115,21.71v-0.536h2.968v0.536l-2.239,2.928h2.239v0.536h-2.968v-0.536l2.24-2.928H40.115z"/>
		<path fill="#4D4D4D" d="M49.106,25.174H45.73v-0.52l1.544-1.624c0.267-0.277,0.462-0.488,0.584-0.633
			c0.123-0.144,0.233-0.314,0.332-0.512s0.148-0.395,0.148-0.592c0-0.342-0.094-0.581-0.28-0.72s-0.478-0.208-0.872-0.208
			c-0.347,0-0.733,0.045-1.16,0.136l-0.208,0.04l-0.048-0.512c0.507-0.145,1.029-0.217,1.568-0.217c0.538,0,0.945,0.113,1.22,0.341
			c0.274,0.227,0.412,0.585,0.412,1.075c0,0.374-0.083,0.699-0.248,0.977s-0.451,0.61-0.855,1l-1.408,1.432h2.647V25.174z"/>
		<path fill="#4D4D4D" d="M51.892,19.806c0.437,0,0.792,0.083,1.063,0.248c0.576,0.342,0.864,1.195,0.864,2.561
			c0,0.965-0.16,1.646-0.48,2.044c-0.319,0.397-0.8,0.596-1.439,0.596c-0.641,0-1.122-0.196-1.444-0.588
			c-0.322-0.393-0.484-1.091-0.484-2.096c0-1.006,0.159-1.718,0.477-2.137C50.765,20.016,51.246,19.806,51.892,19.806z
			 M51.899,20.357c-0.305,0-0.544,0.064-0.721,0.192c-0.378,0.262-0.567,0.952-0.567,2.072c0,0.789,0.104,1.335,0.312,1.636
			c0.208,0.302,0.533,0.452,0.977,0.452c0.442,0,0.768-0.152,0.976-0.456s0.312-0.868,0.312-1.692c0-0.823-0.101-1.396-0.301-1.72
			C52.688,20.52,52.357,20.357,51.899,20.357z"/>
		<path fill="#4D4D4D" d="M57.252,19.894v5.28h-0.616v-4.592l-1.36,0.896l-0.279-0.464l1.68-1.12H57.252z"/>
		<path fill="#4D4D4D" d="M59.236,20.454v-0.561h3.28v0.809l-2.032,4.552L59.9,25.07l1.992-4.408v-0.208H59.236z"/>
		<path fill="#4D4D4D" d="M64.717,21.726c0.059,0.374,0.088,0.769,0.088,1.185s-0.069,0.907-0.208,1.476s-0.277,1.007-0.416,1.316
			l-0.208,0.472h-0.576c0.182-0.427,0.354-0.988,0.516-1.684c0.163-0.696,0.244-1.272,0.244-1.729s-0.062-0.982-0.188-1.58
			c-0.126-0.597-0.252-1.08-0.38-1.448l-0.192-0.56h0.576C64.324,19.969,64.572,20.819,64.717,21.726z"/>
	</g>
</g>
<polygon fill="#4D4D4D" points="108.643,91.072 102.345,111.87 96.941,99.826 93.748,107.617 91.128,91.994 81.375,93.977 
	80.69,80.987 76.135,85.546 67.711,61.429 51.395,129.9 48.749,114.769 36.911,117.472 31.513,96.256 24.874,108.495 
	21.959,103.754 15.568,132.132 10.689,122.031 1.07,150.134 1.07,157.261 11.043,128.093 16.368,139.117 22.966,109.82 
	24.999,113.126 30.729,102.564 35.227,120.246 46.891,117.583 51.048,141.349 68.131,69.655 75.168,89.801 78.653,86.312 
	79.205,96.795 89.243,94.754 92.809,116.017 97.037,105.7 102.766,118.47 110.075,94.334 116.8,97.611 116.8,95.038 "/>
<path fill="#4D4D4D" stroke="#4D4D4D" stroke-width="0.25" stroke-miterlimit="10" d="M111.108,47.397H98.723h-4.871H93.03H76.597
	h-0.822H59.351h-0.831h-4.862H41.274h-4.871h-0.822H19.147h-0.822H1.07v0.822v56.486v0.822v0.209v57.307h17.256h0.822h16.434h0.822
	h4.871h12.384h4.862h0.831h16.424h0.822H93.03h0.822h4.871h12.384h5.693v-0.819v-4.93v-0.822v-4.93v-0.822v-4.93v-0.822v-4.93
	v-0.822v-4.93v-0.822v-4.93v-0.822v-4.93v-0.822v-4.93v-0.822v-4.93v-0.822v-4.722v-0.209v-0.611v-0.211v-4.719v-0.822v-4.93v-0.822
	v-4.93V87.66v-4.93v-0.822v-4.93v-0.822v-4.93v-0.822v-4.93v-0.822v-4.93v-0.822v-4.93v-0.822v-4.93v-0.822H111.108z M6.821,162.223
	h-4.93v-4.93h4.93V162.223z M6.821,156.471h-4.93v-4.93h4.93V156.471z M6.821,150.72h-4.93v-4.93h4.93V150.72z M6.821,144.968h-4.93
	v-4.93h4.93V144.968z M6.821,139.216h-4.93v-4.93h4.93V139.216z M6.821,133.464h-4.93v-4.93h4.93V133.464z M6.821,127.712h-4.93
	v-4.93h4.93V127.712z M6.821,121.96h-4.93v-4.93h4.93V121.96z M6.821,116.209h-4.93v-4.93h4.93V116.209z M6.821,110.457h-4.93
	v-4.722h4.93V110.457z M6.821,104.705h-4.93v-4.719h4.93V104.705z M6.821,99.164h-4.93v-4.93h4.93V99.164z M6.821,93.412h-4.93
	v-4.93h4.93V93.412z M6.821,87.66h-4.93v-4.93h4.93V87.66z M6.821,81.908h-4.93v-4.93h4.93V81.908z M6.821,76.157h-4.93v-4.93h4.93
	V76.157z M6.821,70.405h-4.93v-4.93h4.93V70.405z M6.821,64.653h-4.93v-4.93h4.93V64.653z M6.821,58.901h-4.93v-4.93h4.93V58.901z
	 M6.821,53.149h-4.93v-4.93h4.93V53.149z M12.573,162.223h-4.93v-4.93h4.93V162.223z M12.573,156.471h-4.93v-4.93h4.93V156.471z
	 M12.573,150.72h-4.93v-4.93h4.93V150.72z M12.573,144.968h-4.93v-4.93h4.93V144.968z M12.573,139.216h-4.93v-4.93h4.93V139.216z
	 M12.573,133.464h-4.93v-4.93h4.93V133.464z M12.573,127.712h-4.93v-4.93h4.93V127.712z M12.573,121.96h-4.93v-4.93h4.93V121.96z
	 M12.573,116.209h-4.93v-4.93h4.93V116.209z M12.573,110.457h-4.93v-4.722h4.93V110.457z M12.573,104.705h-4.93v-4.719h4.93V104.705
	z M12.573,99.164h-4.93v-4.93h4.93V99.164z M12.573,93.412h-4.93v-4.93h4.93V93.412z M12.573,87.66h-4.93v-4.93h4.93V87.66z
	 M12.573,81.908h-4.93v-4.93h4.93V81.908z M12.573,76.157h-4.93v-4.93h4.93V76.157z M12.573,70.405h-4.93v-4.93h4.93V70.405z
	 M12.573,64.653h-4.93v-4.93h4.93V64.653z M12.573,58.901h-4.93v-4.93h4.93V58.901z M12.573,53.149h-4.93v-4.93h4.93V53.149z
	 M18.325,162.223h-4.93v-4.93h4.93V162.223z M18.325,156.471h-4.93v-4.93h4.93V156.471z M18.325,150.72h-4.93v-4.93h4.93V150.72z
	 M18.325,144.968h-4.93v-4.93h4.93V144.968z M18.325,139.216h-4.93v-4.93h4.93V139.216z M18.325,133.464h-4.93v-4.93h4.93V133.464z
	 M18.325,127.712h-4.93v-4.93h4.93V127.712z M18.325,121.96h-4.93v-4.93h4.93V121.96z M18.325,116.209h-4.93v-4.93h4.93V116.209z
	 M18.325,110.457h-4.93v-4.722h4.93V110.457z M18.325,104.705h-4.93v-4.719h4.93V104.705z M18.325,99.164h-4.93v-4.93h4.93V99.164z
	 M18.325,93.412h-4.93v-4.93h4.93V93.412z M18.325,87.66h-4.93v-4.93h4.93V87.66z M18.325,81.908h-4.93v-4.93h4.93V81.908z
	 M18.325,76.157h-4.93v-4.93h4.93V76.157z M18.325,70.405h-4.93v-4.93h4.93V70.405z M18.325,64.653h-4.93v-4.93h4.93V64.653z
	 M18.325,58.901h-4.93v-4.93h4.93V58.901z M18.325,53.149h-4.93v-4.93h4.93V53.149z M24.077,162.223h-4.93v-4.93h4.93V162.223z
	 M24.077,156.471h-4.93v-4.93h4.93V156.471z M24.077,150.72h-4.93v-4.93h4.93V150.72z M24.077,144.968h-4.93v-4.93h4.93V144.968z
	 M24.077,139.216h-4.93v-4.93h4.93V139.216z M24.077,133.464h-4.93v-4.93h4.93V133.464z M24.077,127.712h-4.93v-4.93h4.93V127.712z
	 M24.077,121.96h-4.93v-4.93h4.93V121.96z M24.077,116.209h-4.93v-4.93h4.93V116.209z M24.077,110.457h-4.93v-4.722h4.93V110.457z
	 M24.077,104.705h-4.93v-4.719h4.93V104.705z M24.077,99.164h-4.93v-4.93h4.93V99.164z M24.077,93.412h-4.93v-4.93h4.93V93.412z
	 M24.077,87.66h-4.93v-4.93h4.93V87.66z M24.077,81.908h-4.93v-4.93h4.93V81.908z M24.077,76.157h-4.93v-4.93h4.93V76.157z
	 M24.077,70.405h-4.93v-4.93h4.93V70.405z M24.077,64.653h-4.93v-4.93h4.93V64.653z M24.077,58.901h-4.93v-4.93h4.93V58.901z
	 M24.077,53.149h-4.93v-4.93h4.93V53.149z M29.829,162.223h-4.93v-4.93h4.93V162.223z M29.829,156.471h-4.93v-4.93h4.93V156.471z
	 M29.829,150.72h-4.93v-4.93h4.93V150.72z M29.829,144.968h-4.93v-4.93h4.93V144.968z M29.829,139.216h-4.93v-4.93h4.93V139.216z
	 M29.829,133.464h-4.93v-4.93h4.93V133.464z M29.829,127.712h-4.93v-4.93h4.93V127.712z M29.829,121.96h-4.93v-4.93h4.93V121.96z
	 M29.829,116.209h-4.93v-4.93h4.93V116.209z M29.829,110.457h-4.93v-4.722h4.93V110.457z M29.829,104.705h-4.93v-4.719h4.93V104.705
	z M29.829,99.164h-4.93v-4.93h4.93V99.164z M29.829,93.412h-4.93v-4.93h4.93V93.412z M29.829,87.66h-4.93v-4.93h4.93V87.66z
	 M29.829,81.908h-4.93v-4.93h4.93V81.908z M29.829,76.157h-4.93v-4.93h4.93V76.157z M29.829,70.405h-4.93v-4.93h4.93V70.405z
	 M29.829,64.653h-4.93v-4.93h4.93V64.653z M29.829,58.901h-4.93v-4.93h4.93V58.901z M29.829,53.149h-4.93v-4.93h4.93V53.149z
	 M35.581,162.223h-4.93v-4.93h4.93V162.223z M35.581,156.471h-4.93v-4.93h4.93V156.471z M35.581,150.72h-4.93v-4.93h4.93V150.72z
	 M35.581,144.968h-4.93v-4.93h4.93V144.968z M35.581,139.216h-4.93v-4.93h4.93V139.216z M35.581,133.464h-4.93v-4.93h4.93V133.464z
	 M35.581,127.712h-4.93v-4.93h4.93V127.712z M35.581,121.96h-4.93v-4.93h4.93V121.96z M35.581,116.209h-4.93v-4.93h4.93V116.209z
	 M35.581,110.457h-4.93v-4.722h4.93V110.457z M35.581,104.705h-4.93v-4.719h4.93V104.705z M35.581,99.164h-4.93v-4.93h4.93V99.164z
	 M35.581,93.412h-4.93v-4.93h4.93V93.412z M35.581,87.66h-4.93v-4.93h4.93V87.66z M35.581,81.908h-4.93v-4.93h4.93V81.908z
	 M35.581,76.157h-4.93v-4.93h4.93V76.157z M35.581,70.405h-4.93v-4.93h4.93V70.405z M35.581,64.653h-4.93v-4.93h4.93V64.653z
	 M35.581,58.901h-4.93v-4.93h4.93V58.901z M35.581,53.149h-4.93v-4.93h4.93V53.149z M41.274,162.223h-4.871v-4.93h4.871V162.223z
	 M41.274,156.471h-4.871v-4.93h4.871V156.471z M41.274,150.72h-4.871v-4.93h4.871V150.72z M41.274,144.968h-4.871v-4.93h4.871
	V144.968z M41.274,139.216h-4.871v-4.93h4.871V139.216z M41.274,133.464h-4.871v-4.93h4.871V133.464z M41.274,127.712h-4.871v-4.93
	h4.871V127.712z M41.274,121.96h-4.871v-4.93h4.871V121.96z M41.274,116.209h-4.871v-4.93h4.871V116.209z M41.274,110.457h-4.871
	v-4.722h4.871V110.457z M41.274,104.705h-4.871v-4.719h4.871V104.705z M41.274,99.164h-4.871v-4.93h4.871V99.164z M41.274,93.412
	h-4.871v-4.93h4.871V93.412z M41.274,87.66h-4.871v-4.93h4.871V87.66z M41.274,81.908h-4.871v-4.93h4.871V81.908z M41.274,76.157
	h-4.871v-4.93h4.871V76.157z M41.274,70.405h-4.871v-4.93h4.871V70.405z M41.274,64.653h-4.871v-4.93h4.871V64.653z M41.274,58.901
	h-4.871v-4.93h4.871V58.901z M41.274,53.149h-4.871v-4.93h4.871V53.149z M47.026,162.223h-4.872v-4.93h4.872V162.223z
	 M47.026,156.471h-4.872v-4.93h4.872V156.471z M47.026,150.72h-4.872v-4.93h4.872V150.72z M47.026,144.968h-4.872v-4.93h4.872
	V144.968z M47.026,139.216h-4.872v-4.93h4.872V139.216z M47.026,133.464h-4.872v-4.93h4.872V133.464z M47.026,127.712h-4.872v-4.93
	h4.872V127.712z M47.026,121.96h-4.872v-4.93h4.872V121.96z M47.026,116.209h-4.872v-4.93h4.872V116.209z M47.026,110.457h-4.872
	v-4.722h4.872V110.457z M47.026,104.705h-4.872v-4.719h4.872V104.705z M47.026,99.164h-4.872v-4.93h4.872V99.164z M47.026,93.412
	h-4.872v-4.93h4.872V93.412z M47.026,87.66h-4.872v-4.93h4.872V87.66z M47.026,81.908h-4.872v-4.93h4.872V81.908z M47.026,76.157
	h-4.872v-4.93h4.872V76.157z M47.026,70.405h-4.872v-4.93h4.872V70.405z M47.026,64.653h-4.872v-4.93h4.872V64.653z M47.026,58.901
	h-4.872v-4.93h4.872V58.901z M47.026,53.149h-4.872v-4.93h4.872V53.149z M52.777,162.223h-4.871v-4.93h4.871V162.223z
	 M52.777,156.471h-4.871v-4.93h4.871V156.471z M52.777,150.72h-4.871v-4.93h4.871V150.72z M52.777,144.968h-4.871v-4.93h4.871
	V144.968z M52.777,139.216h-4.871v-4.93h4.871V139.216z M52.777,133.464h-4.871v-4.93h4.871V133.464z M52.777,127.712h-4.871v-4.93
	h4.871V127.712z M52.777,121.96h-4.871v-4.93h4.871V121.96z M52.777,116.209h-4.871v-4.93h4.871V116.209z M52.777,110.457h-4.871
	v-4.722h4.871V110.457z M52.777,104.705h-4.871v-4.719h4.871V104.705z M52.777,99.164h-4.871v-4.93h4.871V99.164z M52.777,93.412
	h-4.871v-4.93h4.871V93.412z M52.777,87.66h-4.871v-4.93h4.871V87.66z M52.777,81.908h-4.871v-4.93h4.871V81.908z M52.777,76.157
	h-4.871v-4.93h4.871V76.157z M52.777,70.405h-4.871v-4.93h4.871V70.405z M52.777,64.653h-4.871v-4.93h4.871V64.653z M52.777,58.901
	h-4.871v-4.93h4.871V58.901z M52.777,53.149h-4.871v-4.93h4.871V53.149z M58.519,162.223h-4.862v-4.93h4.862V162.223z
	 M58.519,156.471h-4.862v-4.93h4.862V156.471z M58.519,150.72h-4.862v-4.93h4.862V150.72z M58.519,144.968h-4.862v-4.93h4.862
	V144.968z M58.519,139.216h-4.862v-4.93h4.862V139.216z M58.519,133.464h-4.862v-4.93h4.862V133.464z M58.519,127.712h-4.862v-4.93
	h4.862V127.712z M58.519,121.96h-4.862v-4.93h4.862V121.96z M58.519,116.209h-4.862v-4.93h4.862V116.209z M58.519,110.457h-4.862
	v-4.722h4.862V110.457z M58.519,104.705h-4.862v-4.719h4.862V104.705z M58.519,99.164h-4.862v-4.93h4.862V99.164z M58.519,93.412
	h-4.862v-4.93h4.862V93.412z M58.519,87.66h-4.862v-4.93h4.862V87.66z M58.519,81.908h-4.862v-4.93h4.862V81.908z M58.519,76.157
	h-4.862v-4.93h4.862V76.157z M58.519,70.405h-4.862v-4.93h4.862V70.405z M58.519,64.653h-4.862v-4.93h4.862V64.653z M58.519,58.901
	h-4.862v-4.93h4.862V58.901z M58.519,53.149h-4.862v-4.93h4.862V53.149z M64.271,162.223h-4.92v-4.93h4.92V162.223z M64.271,156.471
	h-4.92v-4.93h4.92V156.471z M64.271,150.72h-4.92v-4.93h4.92V150.72z M64.271,144.968h-4.92v-4.93h4.92V144.968z M64.271,139.216
	h-4.92v-4.93h4.92V139.216z M64.271,133.464h-4.92v-4.93h4.92V133.464z M64.271,127.712h-4.92v-4.93h4.92V127.712z M64.271,121.96
	h-4.92v-4.93h4.92V121.96z M64.271,116.209h-4.92v-4.93h4.92V116.209z M64.271,110.457h-4.92v-4.722h4.92V110.457z M64.271,104.705
	h-4.92v-4.719h4.92V104.705z M64.271,99.164h-4.92v-4.93h4.92V99.164z M64.271,93.412h-4.92v-4.93h4.92V93.412z M64.271,87.66h-4.92
	v-4.93h4.92V87.66z M64.271,81.908h-4.92v-4.93h4.92V81.908z M64.271,76.157h-4.92v-4.93h4.92V76.157z M64.271,70.405h-4.92v-4.93
	h4.92V70.405z M64.271,64.653h-4.92v-4.93h4.92V64.653z M64.271,58.901h-4.92v-4.93h4.92V58.901z M64.271,53.149h-4.92v-4.93h4.92
	V53.149z M70.023,162.223h-4.93v-4.93h4.93V162.223z M70.023,156.471h-4.93v-4.93h4.93V156.471z M70.023,150.72h-4.93v-4.93h4.93
	V150.72z M70.023,144.968h-4.93v-4.93h4.93V144.968z M70.023,139.216h-4.93v-4.93h4.93V139.216z M70.023,133.464h-4.93v-4.93h4.93
	V133.464z M70.023,127.712h-4.93v-4.93h4.93V127.712z M70.023,121.96h-4.93v-4.93h4.93V121.96z M70.023,116.209h-4.93v-4.93h4.93
	V116.209z M70.023,110.457h-4.93v-4.722h4.93V110.457z M70.023,104.705h-4.93v-4.719h4.93V104.705z M70.023,99.164h-4.93v-4.93h4.93
	V99.164z M70.023,93.412h-4.93v-4.93h4.93V93.412z M70.023,87.66h-4.93v-4.93h4.93V87.66z M70.023,81.908h-4.93v-4.93h4.93V81.908z
	 M70.023,76.157h-4.93v-4.93h4.93V76.157z M70.023,70.405h-4.93v-4.93h4.93V70.405z M70.023,64.653h-4.93v-4.93h4.93V64.653z
	 M70.023,58.901h-4.93v-4.93h4.93V58.901z M70.023,53.149h-4.93v-4.93h4.93V53.149z M75.775,162.223h-4.93v-4.93h4.93V162.223z
	 M75.775,156.471h-4.93v-4.93h4.93V156.471z M75.775,150.72h-4.93v-4.93h4.93V150.72z M75.775,144.968h-4.93v-4.93h4.93V144.968z
	 M75.775,139.216h-4.93v-4.93h4.93V139.216z M75.775,133.464h-4.93v-4.93h4.93V133.464z M75.775,127.712h-4.93v-4.93h4.93V127.712z
	 M75.775,121.96h-4.93v-4.93h4.93V121.96z M75.775,116.209h-4.93v-4.93h4.93V116.209z M75.775,110.457h-4.93v-4.722h4.93V110.457z
	 M75.775,104.705h-4.93v-4.719h4.93V104.705z M75.775,99.164h-4.93v-4.93h4.93V99.164z M75.775,93.412h-4.93v-4.93h4.93V93.412z
	 M75.775,87.66h-4.93v-4.93h4.93V87.66z M75.775,81.908h-4.93v-4.93h4.93V81.908z M75.775,76.157h-4.93v-4.93h4.93V76.157z
	 M75.775,70.405h-4.93v-4.93h4.93V70.405z M75.775,64.653h-4.93v-4.93h4.93V64.653z M75.775,58.901h-4.93v-4.93h4.93V58.901z
	 M75.775,53.149h-4.93v-4.93h4.93V53.149z M81.527,162.223h-4.93v-4.93h4.93V162.223z M81.527,156.471h-4.93v-4.93h4.93V156.471z
	 M81.527,150.72h-4.93v-4.93h4.93V150.72z M81.527,144.968h-4.93v-4.93h4.93V144.968z M81.527,139.216h-4.93v-4.93h4.93V139.216z
	 M81.527,133.464h-4.93v-4.93h4.93V133.464z M81.527,127.712h-4.93v-4.93h4.93V127.712z M81.527,121.96h-4.93v-4.93h4.93V121.96z
	 M81.527,116.209h-4.93v-4.93h4.93V116.209z M81.527,110.457h-4.93v-4.722h4.93V110.457z M81.527,104.705h-4.93v-4.719h4.93V104.705
	z M81.527,99.164h-4.93v-4.93h4.93V99.164z M81.527,93.412h-4.93v-4.93h4.93V93.412z M81.527,87.66h-4.93v-4.93h4.93V87.66z
	 M81.527,81.908h-4.93v-4.93h4.93V81.908z M81.527,76.157h-4.93v-4.93h4.93V76.157z M81.527,70.405h-4.93v-4.93h4.93V70.405z
	 M81.527,64.653h-4.93v-4.93h4.93V64.653z M81.527,58.901h-4.93v-4.93h4.93V58.901z M81.527,53.149h-4.93v-4.93h4.93V53.149z
	 M87.278,162.223h-4.93v-4.93h4.93V162.223z M87.278,156.471h-4.93v-4.93h4.93V156.471z M87.278,150.72h-4.93v-4.93h4.93V150.72z
	 M87.278,144.968h-4.93v-4.93h4.93V144.968z M87.278,139.216h-4.93v-4.93h4.93V139.216z M87.278,133.464h-4.93v-4.93h4.93V133.464z
	 M87.278,127.712h-4.93v-4.93h4.93V127.712z M87.278,121.96h-4.93v-4.93h4.93V121.96z M87.278,116.209h-4.93v-4.93h4.93V116.209z
	 M87.278,110.457h-4.93v-4.722h4.93V110.457z M87.278,104.705h-4.93v-4.719h4.93V104.705z M87.278,99.164h-4.93v-4.93h4.93V99.164z
	 M87.278,93.412h-4.93v-4.93h4.93V93.412z M87.278,87.66h-4.93v-4.93h4.93V87.66z M87.278,81.908h-4.93v-4.93h4.93V81.908z
	 M87.278,76.157h-4.93v-4.93h4.93V76.157z M87.278,70.405h-4.93v-4.93h4.93V70.405z M87.278,64.653h-4.93v-4.93h4.93V64.653z
	 M87.278,58.901h-4.93v-4.93h4.93V58.901z M87.278,53.149h-4.93v-4.93h4.93V53.149z M93.03,162.223H88.1v-4.93h4.93V162.223z
	 M93.03,156.471H88.1v-4.93h4.93V156.471z M93.03,150.72H88.1v-4.93h4.93V150.72z M93.03,144.968H88.1v-4.93h4.93V144.968z
	 M93.03,139.216H88.1v-4.93h4.93V139.216z M93.03,133.464H88.1v-4.93h4.93V133.464z M93.03,127.712H88.1v-4.93h4.93V127.712z
	 M93.03,121.96H88.1v-4.93h4.93V121.96z M93.03,116.209H88.1v-4.93h4.93V116.209z M93.03,110.457H88.1v-4.722h4.93V110.457z
	 M93.03,104.705H88.1v-4.719h4.93V104.705z M93.03,99.164H88.1v-4.93h4.93V99.164z M93.03,93.412H88.1v-4.93h4.93V93.412z
	 M93.03,87.66H88.1v-4.93h4.93V87.66z M93.03,81.908H88.1v-4.93h4.93V81.908z M93.03,76.157H88.1v-4.93h4.93V76.157z M93.03,70.405
	H88.1v-4.93h4.93V70.405z M93.03,64.653H88.1v-4.93h4.93V64.653z M93.03,58.901H88.1v-4.93h4.93V58.901z M93.03,53.149H88.1v-4.93
	h4.93V53.149z M98.723,162.223h-4.871v-4.93h4.871V162.223z M98.723,156.471h-4.871v-4.93h4.871V156.471z M98.723,150.72h-4.871
	v-4.93h4.871V150.72z M98.723,144.968h-4.871v-4.93h4.871V144.968z M98.723,139.216h-4.871v-4.93h4.871V139.216z M98.723,133.464
	h-4.871v-4.93h4.871V133.464z M98.723,127.712h-4.871v-4.93h4.871V127.712z M98.723,121.96h-4.871v-4.93h4.871V121.96z
	 M98.723,116.209h-4.871v-4.93h4.871V116.209z M98.723,110.457h-4.871v-4.722h4.871V110.457z M98.723,104.705h-4.871v-4.719h4.871
	V104.705z M98.723,99.164h-4.871v-4.93h4.871V99.164z M98.723,93.412h-4.871v-4.93h4.871V93.412z M98.723,87.66h-4.871v-4.93h4.871
	V87.66z M98.723,81.908h-4.871v-4.93h4.871V81.908z M98.723,76.157h-4.871v-4.93h4.871V76.157z M98.723,70.405h-4.871v-4.93h4.871
	V70.405z M98.723,64.653h-4.871v-4.93h4.871V64.653z M98.723,58.901h-4.871v-4.93h4.871V58.901z M98.723,53.149h-4.871v-4.93h4.871
	V53.149z M104.475,162.223h-4.871v-4.93h4.871V162.223z M104.475,156.471h-4.871v-4.93h4.871V156.471z M104.475,150.72h-4.871v-4.93
	h4.871V150.72z M104.475,144.968h-4.871v-4.93h4.871V144.968z M104.475,139.216h-4.871v-4.93h4.871V139.216z M104.475,133.464
	h-4.871v-4.93h4.871V133.464z M104.475,127.712h-4.871v-4.93h4.871V127.712z M104.475,121.96h-4.871v-4.93h4.871V121.96z
	 M104.475,116.209h-4.871v-4.93h4.871V116.209z M104.475,110.457h-4.871v-4.722h4.871V110.457z M104.475,104.705h-4.871v-4.719
	h4.871V104.705z M104.475,99.164h-4.871v-4.93h4.871V99.164z M104.475,93.412h-4.871v-4.93h4.871V93.412z M104.475,87.66h-4.871
	v-4.93h4.871V87.66z M104.475,81.908h-4.871v-4.93h4.871V81.908z M104.475,76.157h-4.871v-4.93h4.871V76.157z M104.475,70.405
	h-4.871v-4.93h4.871V70.405z M104.475,64.653h-4.871v-4.93h4.871V64.653z M104.475,58.901h-4.871v-4.93h4.871V58.901z
	 M104.475,53.149h-4.871v-4.93h4.871V53.149z M110.227,162.223h-4.871v-4.93h4.871V162.223z M110.227,156.471h-4.871v-4.93h4.871
	V156.471z M110.227,150.72h-4.871v-4.93h4.871V150.72z M110.227,144.968h-4.871v-4.93h4.871V144.968z M110.227,139.216h-4.871v-4.93
	h4.871V139.216z M110.227,133.464h-4.871v-4.93h4.871V133.464z M110.227,127.712h-4.871v-4.93h4.871V127.712z M110.227,121.96
	h-4.871v-4.93h4.871V121.96z M110.227,116.209h-4.871v-4.93h4.871V116.209z M110.227,110.457h-4.871v-4.722h4.871V110.457z
	 M110.227,104.705h-4.871v-4.719h4.871V104.705z M110.227,99.164h-4.871v-4.93h4.871V99.164z M110.227,93.412h-4.871v-4.93h4.871
	V93.412z M110.227,87.66h-4.871v-4.93h4.871V87.66z M110.227,81.908h-4.871v-4.93h4.871V81.908z M110.227,76.157h-4.871v-4.93h4.871
	V76.157z M110.227,70.405h-4.871v-4.93h4.871V70.405z M110.227,64.653h-4.871v-4.93h4.871V64.653z M110.227,58.901h-4.871v-4.93
	h4.871V58.901z M110.227,53.149h-4.871v-4.93h4.871V53.149z M115.979,162.223h-4.871v-4.93h4.871V162.223z M115.979,156.471h-4.871
	v-4.93h4.871V156.471z M115.979,150.72h-4.871v-4.93h4.871V150.72z M115.979,144.968h-4.871v-4.93h4.871V144.968z M115.979,139.216
	h-4.871v-4.93h4.871V139.216z M115.979,133.464h-4.871v-4.93h4.871V133.464z M115.979,127.712h-4.871v-4.93h4.871V127.712z
	 M115.979,121.96h-4.871v-4.93h4.871V121.96z M115.979,116.209h-4.871v-4.93h4.871V116.209z M115.979,110.457h-4.871v-4.722h4.871
	V110.457z M115.979,104.705h-4.871v-4.719h4.871V104.705z M115.979,99.164h-4.871v-4.93h4.871V99.164z M115.979,93.412h-4.871v-4.93
	h4.871V93.412z M115.979,87.66h-4.871v-4.93h4.871V87.66z M115.979,81.908h-4.871v-4.93h4.871V81.908z M115.979,76.157h-4.871v-4.93
	h4.871V76.157z M115.979,70.405h-4.871v-4.93h4.871V70.405z M115.979,64.653h-4.871v-4.93h4.871V64.653z M115.979,58.901h-4.871
	v-4.93h4.871V58.901z M115.979,53.149h-4.871v-4.93h4.871V53.149z"/>
</svg>
