<?xml version="1.0" encoding="utf-8"?>
<!-- Generator: Adobe Illustrator 21.1.0, SVG Export Plug-In . SVG Version: 6.00 Build 0)  -->
<svg version="1.1" id="Ebene_1" xmlns="http://www.w3.org/2000/svg" xmlns:xlink="http://www.w3.org/1999/xlink" x="0px" y="0px"
	 viewBox="0 0 200 200" enable-background="new 0 0 200 200" xml:space="preserve">
<rect x="0.333" y="0.333" fill="#FFFFFF" width="200" height="200.667"/>
<path fill="#4D4D4D" d="M74.019,99.392c-1.029,0-1.911,0.415-2.655,1.217c-0.747,0.838-1.131,1.813-1.131,2.898v10.034
	c0,0.376,0.118,0.716,0.384,0.991c0.246,0.272,0.553,0.394,0.9,0.394c0.4,0,0.706-0.123,0.953-0.394
	c0.214-0.275,0.326-0.615,0.326-0.991v-8.973h0.665v24.841c0,0.478,0.191,0.92,0.556,1.261c0.342,0.376,0.742,0.537,1.202,0.537
	c0.498,0,0.898-0.161,1.223-0.537c0.345-0.34,0.501-0.782,0.501-1.261v-14.4h0.744v14.4c0,0.478,0.172,0.92,0.496,1.261
	c0.326,0.376,0.747,0.537,1.262,0.537c0.438,0,0.822-0.161,1.166-0.537c0.323-0.34,0.471-0.782,0.471-1.261v-24.841h0.695v8.973
	c0,0.376,0.109,0.716,0.339,0.991c0.274,0.272,0.591,0.394,0.936,0.394c0.405,0,0.712-0.123,0.942-0.394
	c0.208-0.275,0.339-0.615,0.339-0.991v-10.034c0-1.082-0.362-2.061-1.109-2.895c-0.728-0.805-1.601-1.217-2.672-1.217h-6.534V99.392
	z"/>
<path fill="#4D4D4D" d="M77.303,98.458c0.803,0,1.511-0.264,2.081-0.816c0.569-0.567,0.86-1.267,0.86-2.111
	c0-0.805-0.293-1.495-0.862-2.064c-0.572-0.586-1.278-0.878-2.078-0.878c-0.843,0-1.552,0.292-2.086,0.878
	c-0.569,0.569-0.837,1.259-0.837,2.064c0,0.846,0.268,1.546,0.837,2.111C75.754,98.194,76.463,98.458,77.303,98.458z"/>
<g>
	<g>
		<path fill="#4D4D4D" d="M55.593,1.341V0.797h3.601v0.72l-2.896,4.112v0.16h2.896v0.552h-3.601V5.629l2.889-4.112V1.341H55.593z"/>
		<path fill="#4D4D4D" d="M62.753,5.837l0.232-0.023l0.016,0.472c-0.608,0.085-1.128,0.128-1.56,0.128
			c-0.576,0-0.984-0.167-1.225-0.5s-0.359-0.853-0.359-1.556c0-1.403,0.557-2.104,1.672-2.104c0.538,0,0.941,0.15,1.208,0.452
			s0.399,0.774,0.399,1.42l-0.031,0.456h-2.641c0,0.442,0.08,0.771,0.24,0.984c0.16,0.213,0.438,0.319,0.836,0.319
			S62.342,5.87,62.753,5.837z M62.537,4.101c0-0.49-0.079-0.837-0.236-1.04c-0.157-0.202-0.413-0.304-0.768-0.304
			s-0.621,0.106-0.8,0.32c-0.179,0.213-0.271,0.555-0.276,1.023H62.537z"/>
		<path fill="#4D4D4D" d="M64.073,6.333v-4h0.592v0.544c0.464-0.32,0.952-0.53,1.464-0.632v0.607c-0.224,0.043-0.457,0.109-0.7,0.2
			c-0.242,0.091-0.428,0.171-0.556,0.24l-0.2,0.104v2.936H64.073z"/>
		<path fill="#4D4D4D" d="M68.913,2.853h-1.272v1.912c0,0.459,0.033,0.761,0.1,0.904c0.067,0.145,0.226,0.216,0.477,0.216
			l0.712-0.048l0.04,0.496c-0.357,0.059-0.63,0.088-0.816,0.088c-0.416,0-0.704-0.102-0.863-0.304c-0.16-0.203-0.24-0.59-0.24-1.16
			V2.853H66.48v-0.52h0.568V1.11h0.592v1.224h1.272V2.853z"/>
		<path fill="#4D4D4D" d="M69.649,1.429V0.734h0.6v0.695H69.649z M69.649,6.333v-4h0.6v4H69.649z"/>
		<path fill="#4D4D4D" d="M72.169,2.853v3.48h-0.6v-3.48h-0.504v-0.52h0.504v-0.36c0-0.564,0.08-0.95,0.24-1.155
			c0.159-0.206,0.439-0.309,0.84-0.309l0.808,0.057l-0.008,0.495c-0.299-0.01-0.545-0.016-0.74-0.016
			c-0.194,0-0.333,0.064-0.416,0.192s-0.124,0.376-0.124,0.744v0.352h1.16v0.52H72.169z"/>
		<path fill="#4D4D4D" d="M74.049,1.429V0.734h0.6v0.695H74.049z M74.049,6.333v-4h0.6v4H74.049z"/>
		<path fill="#4D4D4D" d="M76.4,6.333h-0.6V0.589h0.6v3.393l0.624-0.032l1.145-1.616h0.68l-1.304,1.84l1.359,2.16h-0.68
			l-1.192-1.856L76.4,4.501V6.333z"/>
		<path fill="#4D4D4D" d="M82.433,3.542v2.048c0.016,0.197,0.17,0.314,0.464,0.353l-0.024,0.472c-0.421,0-0.738-0.106-0.952-0.32
			c-0.479,0.214-0.96,0.32-1.439,0.32c-0.368,0-0.648-0.104-0.84-0.312c-0.192-0.208-0.288-0.506-0.288-0.896
			s0.099-0.676,0.296-0.86c0.197-0.184,0.507-0.297,0.928-0.34l1.256-0.12V3.542c0-0.272-0.059-0.467-0.176-0.584
			s-0.277-0.176-0.48-0.176c-0.427,0-0.869,0.026-1.327,0.08l-0.248,0.023l-0.024-0.456c0.587-0.117,1.106-0.176,1.56-0.176
			c0.454,0,0.783,0.104,0.988,0.312S82.433,3.099,82.433,3.542z M79.968,5.173c0,0.491,0.203,0.736,0.608,0.736
			c0.362,0,0.72-0.062,1.072-0.185l0.184-0.063v-1.32l-1.184,0.112c-0.24,0.021-0.414,0.091-0.521,0.208S79.968,4.95,79.968,5.173z"
			/>
		<path fill="#4D4D4D" d="M85.689,2.853h-1.272v1.912c0,0.459,0.033,0.761,0.1,0.904c0.067,0.145,0.226,0.216,0.477,0.216
			l0.712-0.048l0.04,0.496c-0.357,0.059-0.63,0.088-0.816,0.088c-0.416,0-0.704-0.102-0.863-0.304c-0.16-0.203-0.24-0.59-0.24-1.16
			V2.853h-0.568v-0.52h0.568V1.11h0.592v1.224h1.272V2.853z"/>
	</g>
</g>
<g>
	<g>
		<path fill="#4D4D4D" d="M128.177,140.228c-0.8,0-1.2,0.302-1.2,0.904c0,0.336,0.092,0.566,0.276,0.691
			c0.184,0.126,0.557,0.251,1.12,0.376c0.562,0.126,0.961,0.288,1.195,0.488c0.235,0.2,0.353,0.529,0.353,0.988
			c0,1.136-0.59,1.704-1.769,1.704c-0.389,0-0.877-0.046-1.464-0.137l-0.288-0.039l0.064-0.513c0.726,0.097,1.277,0.145,1.656,0.145
			c0.789,0,1.184-0.371,1.184-1.112c0-0.299-0.087-0.514-0.26-0.644c-0.174-0.131-0.497-0.242-0.973-0.332
			c-0.623-0.134-1.066-0.306-1.327-0.517c-0.262-0.211-0.393-0.563-0.393-1.06c0-0.992,0.595-1.488,1.784-1.488
			c0.39,0,0.856,0.04,1.4,0.12l0.271,0.04l-0.056,0.52C129.012,140.273,128.486,140.228,128.177,140.228z"/>
		<path fill="#4D4D4D" d="M132.377,141.228c0.176,0,0.475,0.032,0.896,0.096l0.192,0.024l-0.024,0.488
			c-0.427-0.048-0.741-0.072-0.943-0.072c-0.454,0-0.762,0.108-0.925,0.324c-0.162,0.216-0.243,0.616-0.243,1.2
			s0.075,0.99,0.228,1.22s0.468,0.344,0.948,0.344l0.943-0.072l0.024,0.496c-0.496,0.075-0.867,0.112-1.112,0.112
			c-0.624,0-1.055-0.16-1.292-0.48c-0.237-0.319-0.355-0.859-0.355-1.619c0-0.761,0.128-1.294,0.384-1.601
			S131.779,141.228,132.377,141.228z"/>
		<path fill="#4D4D4D" d="M134.969,145.308h-0.6v-5.744h0.6v1.968c0.427-0.202,0.838-0.304,1.232-0.304
			c0.533,0,0.892,0.145,1.076,0.432c0.184,0.288,0.275,0.801,0.275,1.536v2.112h-0.6v-2.096c0-0.555-0.055-0.935-0.164-1.141
			c-0.109-0.205-0.34-0.308-0.692-0.308c-0.336,0-0.661,0.062-0.976,0.184l-0.152,0.057V145.308z"/>
		<path fill="#4D4D4D" d="M141.161,141.308h0.6v4h-0.6v-0.28c-0.4,0.24-0.795,0.36-1.185,0.36c-0.544,0-0.905-0.142-1.084-0.424
			c-0.179-0.283-0.268-0.806-0.268-1.568v-2.088h0.6v2.08c0,0.581,0.051,0.971,0.152,1.168s0.33,0.296,0.688,0.296
			c0.177,0,0.355-0.025,0.536-0.076c0.182-0.051,0.32-0.1,0.416-0.147l0.145-0.072V141.308z"/>
		<path fill="#4D4D4D" d="M142.96,145.308v-5.744h0.6v5.744H142.96z"/>
		<path fill="#4D4D4D" d="M147.833,139.563v5.744h-0.593v-0.272c-0.41,0.235-0.815,0.353-1.216,0.353
			c-0.213,0-0.399-0.026-0.56-0.08s-0.31-0.149-0.448-0.288c-0.288-0.288-0.432-0.82-0.432-1.596c0-0.776,0.129-1.336,0.388-1.681
			c0.259-0.344,0.687-0.516,1.284-0.516c0.309,0,0.637,0.035,0.983,0.104v-1.769H147.833z M145.753,144.796
			c0.096,0.037,0.22,0.056,0.372,0.056c0.151,0,0.322-0.025,0.512-0.076s0.337-0.1,0.444-0.147l0.159-0.072v-2.712
			c-0.341-0.064-0.658-0.096-0.952-0.096c-0.405,0-0.688,0.129-0.848,0.388s-0.24,0.66-0.24,1.204c0,0.618,0.094,1.034,0.28,1.248
			C145.565,144.689,145.656,144.759,145.753,144.796z"/>
		<path fill="#4D4D4D" d="M148.616,141.308h0.64l0.937,3.48h0.296l0.968-3.48h0.616l-1.128,4h-1.2L148.616,141.308z"/>
		<path fill="#4D4D4D" d="M155.488,144.812l0.232-0.023l0.016,0.472c-0.608,0.085-1.128,0.128-1.56,0.128
			c-0.576,0-0.984-0.167-1.225-0.5s-0.359-0.853-0.359-1.556c0-1.403,0.557-2.104,1.672-2.104c0.538,0,0.941,0.15,1.208,0.452
			s0.399,0.774,0.399,1.42l-0.031,0.456H153.2c0,0.442,0.08,0.771,0.24,0.984c0.16,0.213,0.438,0.319,0.836,0.319
			S155.077,144.844,155.488,144.812z M155.272,143.075c0-0.49-0.079-0.837-0.236-1.04c-0.157-0.202-0.413-0.304-0.768-0.304
			s-0.621,0.106-0.8,0.32c-0.179,0.213-0.271,0.555-0.276,1.023H155.272z"/>
		<path fill="#4D4D4D" d="M156.809,145.308v-4h0.592v0.544c0.464-0.32,0.952-0.53,1.464-0.632v0.607
			c-0.224,0.043-0.457,0.109-0.7,0.2c-0.242,0.091-0.428,0.171-0.556,0.24l-0.2,0.104v2.936H156.809z"/>
		<path fill="#4D4D4D" d="M160.832,141.764c-0.581,0-0.872,0.203-0.872,0.608c0,0.187,0.066,0.318,0.2,0.396
			c0.133,0.077,0.438,0.157,0.912,0.24s0.811,0.198,1.008,0.348s0.296,0.43,0.296,0.84c0,0.411-0.132,0.712-0.396,0.904
			c-0.265,0.192-0.649,0.288-1.156,0.288c-0.331,0-0.721-0.037-1.168-0.112l-0.24-0.04l0.032-0.52
			c0.607,0.091,1.066,0.136,1.376,0.136c0.309,0,0.545-0.049,0.708-0.147c0.162-0.099,0.244-0.265,0.244-0.496
			c0-0.232-0.069-0.39-0.208-0.473c-0.139-0.082-0.443-0.161-0.912-0.235c-0.47-0.075-0.803-0.185-1-0.328
			c-0.197-0.145-0.296-0.411-0.296-0.8c0-0.39,0.137-0.678,0.412-0.864c0.274-0.187,0.617-0.28,1.027-0.28
			c0.325,0,0.733,0.037,1.225,0.112l0.224,0.04l-0.016,0.512C161.64,141.807,161.173,141.764,160.832,141.764z"/>
		<path fill="#4D4D4D" d="M164.792,141.228c0.176,0,0.475,0.032,0.896,0.096l0.192,0.024l-0.024,0.488
			c-0.427-0.048-0.741-0.072-0.943-0.072c-0.454,0-0.762,0.108-0.925,0.324c-0.162,0.216-0.243,0.616-0.243,1.2
			s0.075,0.99,0.228,1.22s0.468,0.344,0.948,0.344l0.943-0.072l0.024,0.496c-0.496,0.075-0.867,0.112-1.112,0.112
			c-0.624,0-1.055-0.16-1.292-0.48c-0.237-0.319-0.355-0.859-0.355-1.619c0-0.761,0.128-1.294,0.384-1.601
			S164.194,141.228,164.792,141.228z"/>
		<path fill="#4D4D4D" d="M167.384,145.308h-0.6v-5.744h0.6v1.968c0.427-0.202,0.838-0.304,1.232-0.304
			c0.533,0,0.892,0.145,1.076,0.432c0.184,0.288,0.275,0.801,0.275,1.536v2.112h-0.6v-2.096c0-0.555-0.055-0.935-0.164-1.141
			c-0.109-0.205-0.34-0.308-0.692-0.308c-0.336,0-0.661,0.062-0.976,0.184l-0.152,0.057V145.308z"/>
		<path fill="#4D4D4D" d="M171.08,145.308v-4h0.592v0.544c0.464-0.32,0.952-0.53,1.464-0.632v0.607
			c-0.224,0.043-0.457,0.109-0.7,0.2c-0.242,0.091-0.428,0.171-0.556,0.24l-0.2,0.104v2.936H171.08z"/>
		<path fill="#4D4D4D" d="M176.487,144.812l0.232-0.023l0.016,0.472c-0.608,0.085-1.128,0.128-1.56,0.128
			c-0.576,0-0.984-0.167-1.225-0.5s-0.359-0.853-0.359-1.556c0-1.403,0.557-2.104,1.672-2.104c0.538,0,0.941,0.15,1.208,0.452
			s0.399,0.774,0.399,1.42l-0.031,0.456h-2.641c0,0.442,0.08,0.771,0.24,0.984c0.16,0.213,0.438,0.319,0.836,0.319
			S176.076,144.844,176.487,144.812z M176.271,143.075c0-0.49-0.079-0.837-0.236-1.04c-0.157-0.202-0.413-0.304-0.768-0.304
			s-0.621,0.106-0.8,0.32c-0.179,0.213-0.271,0.555-0.276,1.023H176.271z"/>
		<path fill="#4D4D4D" d="M177.808,140.403v-0.695h0.6v0.695H177.808z M177.808,145.308v-4h0.6v4H177.808z"/>
		<path fill="#4D4D4D" d="M181.327,141.228c0.539,0,0.916,0.153,1.132,0.46c0.217,0.307,0.324,0.844,0.324,1.612
			c0,0.768-0.135,1.308-0.403,1.62c-0.27,0.312-0.765,0.468-1.484,0.468c-0.224,0-0.595-0.021-1.112-0.064l-0.224-0.023v-5.736
			h0.592v1.944C180.557,141.321,180.948,141.228,181.327,141.228z M180.888,144.852c0.522,0,0.868-0.118,1.036-0.355
			s0.252-0.639,0.252-1.204s-0.067-0.962-0.2-1.188c-0.134-0.227-0.371-0.34-0.712-0.34c-0.31,0-0.627,0.059-0.952,0.176
			l-0.16,0.057v2.815C180.498,144.838,180.743,144.852,180.888,144.852z"/>
		<path fill="#4D4D4D" d="M186.264,141.308h0.6v4h-0.6v-0.28c-0.4,0.24-0.795,0.36-1.185,0.36c-0.544,0-0.905-0.142-1.084-0.424
			c-0.179-0.283-0.268-0.806-0.268-1.568v-2.088h0.6v2.08c0,0.581,0.051,0.971,0.152,1.168s0.33,0.296,0.688,0.296
			c0.177,0,0.355-0.025,0.536-0.076c0.182-0.051,0.32-0.1,0.416-0.147l0.145-0.072V141.308z"/>
		<path fill="#4D4D4D" d="M188.615,145.308h-0.6v-4h0.592v0.28c0.432-0.24,0.846-0.36,1.24-0.36c0.533,0,0.892,0.145,1.076,0.432
			c0.184,0.288,0.275,0.801,0.275,1.536v2.112h-0.592v-2.096c0-0.555-0.055-0.935-0.164-1.141c-0.109-0.205-0.343-0.308-0.7-0.308
			c-0.171,0-0.351,0.025-0.54,0.076s-0.334,0.1-0.436,0.147l-0.152,0.072V145.308z"/>
		<path fill="#4D4D4D" d="M193.855,147.188c-0.64,0-1.087-0.087-1.34-0.26c-0.254-0.174-0.38-0.489-0.38-0.948
			c0-0.219,0.048-0.396,0.144-0.532c0.096-0.136,0.259-0.289,0.488-0.46c-0.149-0.101-0.225-0.285-0.225-0.552
			c0-0.091,0.067-0.259,0.2-0.504l0.072-0.128c-0.422-0.192-0.632-0.595-0.632-1.208c0-0.912,0.498-1.368,1.496-1.368
			c0.256,0,0.493,0.026,0.712,0.08l0.12,0.024l1.184-0.032v0.512l-0.76-0.016c0.176,0.176,0.264,0.442,0.264,0.8
			c0,0.501-0.124,0.852-0.372,1.052s-0.639,0.3-1.172,0.3c-0.144,0-0.274-0.011-0.392-0.031c-0.097,0.234-0.145,0.387-0.145,0.456
			c0,0.165,0.051,0.268,0.152,0.308s0.408,0.06,0.92,0.06s0.88,0.08,1.104,0.24c0.225,0.16,0.337,0.472,0.337,0.937
			C195.632,146.764,195.039,147.188,193.855,147.188z M192.728,145.932c0,0.282,0.078,0.479,0.235,0.588s0.448,0.164,0.872,0.164
			c0.425,0,0.729-0.059,0.912-0.176c0.185-0.117,0.276-0.313,0.276-0.588c0-0.275-0.066-0.452-0.2-0.532
			c-0.133-0.08-0.395-0.12-0.784-0.12l-0.863-0.04c-0.177,0.128-0.295,0.24-0.356,0.336S192.728,145.782,192.728,145.932z
			 M192.783,142.596c0,0.314,0.07,0.539,0.212,0.672c0.142,0.134,0.375,0.2,0.7,0.2s0.558-0.066,0.696-0.2
			c0.139-0.133,0.208-0.358,0.208-0.676s-0.069-0.543-0.208-0.676c-0.139-0.134-0.371-0.2-0.696-0.2s-0.559,0.067-0.7,0.204
			C192.854,142.056,192.783,142.281,192.783,142.596z"/>
		<path fill="#4D4D4D" d="M127.145,154.907h-0.6v-4h0.592v0.28c0.4-0.24,0.789-0.36,1.168-0.36c0.496,0,0.843,0.136,1.04,0.408
			c0.176-0.106,0.404-0.201,0.684-0.284c0.28-0.083,0.527-0.124,0.74-0.124c0.533,0,0.893,0.143,1.076,0.428
			c0.184,0.286,0.276,0.799,0.276,1.54v2.112h-0.601v-2.096c0-0.555-0.053-0.935-0.16-1.141c-0.106-0.205-0.333-0.308-0.68-0.308
			c-0.176,0-0.357,0.025-0.544,0.076s-0.331,0.1-0.432,0.147l-0.152,0.072c0.069,0.176,0.104,0.565,0.104,1.168v2.08h-0.601v-2.064
			c0-0.575-0.052-0.966-0.156-1.172c-0.104-0.205-0.332-0.308-0.684-0.308c-0.171,0-0.346,0.025-0.524,0.076s-0.315,0.1-0.412,0.147
			l-0.136,0.072V154.907z"/>
		<path fill="#4D4D4D" d="M135.952,154.411l0.232-0.023l0.016,0.472c-0.608,0.085-1.128,0.128-1.56,0.128
			c-0.576,0-0.984-0.167-1.225-0.5s-0.359-0.853-0.359-1.556c0-1.403,0.557-2.104,1.672-2.104c0.538,0,0.941,0.15,1.208,0.452
			s0.399,0.774,0.399,1.42l-0.031,0.456h-2.641c0,0.442,0.08,0.771,0.24,0.984c0.16,0.213,0.438,0.319,0.836,0.319
			S135.541,154.443,135.952,154.411z M135.736,152.675c0-0.49-0.079-0.837-0.236-1.04c-0.157-0.202-0.413-0.304-0.768-0.304
			s-0.621,0.106-0.8,0.32c-0.179,0.213-0.271,0.555-0.276,1.023H135.736z"/>
		<path fill="#4D4D4D" d="M137.272,150.003v-0.695h0.6v0.695H137.272z M137.272,154.907v-4h0.6v4H137.272z"/>
		<path fill="#4D4D4D" d="M140.28,151.363c-0.581,0-0.872,0.203-0.872,0.608c0,0.187,0.066,0.318,0.2,0.396
			c0.133,0.077,0.438,0.157,0.912,0.24s0.811,0.198,1.008,0.348s0.296,0.43,0.296,0.84c0,0.411-0.132,0.712-0.396,0.904
			c-0.265,0.192-0.649,0.288-1.156,0.288c-0.331,0-0.721-0.037-1.168-0.112l-0.24-0.04l0.032-0.52
			c0.607,0.091,1.066,0.136,1.376,0.136c0.309,0,0.545-0.049,0.708-0.147c0.162-0.099,0.244-0.265,0.244-0.496
			c0-0.232-0.069-0.39-0.208-0.473c-0.139-0.082-0.443-0.161-0.912-0.235c-0.47-0.075-0.803-0.185-1-0.328
			c-0.197-0.145-0.296-0.411-0.296-0.8c0-0.39,0.137-0.678,0.412-0.864c0.274-0.187,0.617-0.28,1.027-0.28
			c0.325,0,0.733,0.037,1.225,0.112l0.224,0.04l-0.016,0.512C141.088,151.406,140.621,151.363,140.28,151.363z"/>
		<path fill="#4D4D4D" d="M144.817,151.427h-1.272v1.912c0,0.459,0.033,0.761,0.1,0.904c0.067,0.145,0.226,0.216,0.477,0.216
			l0.712-0.048l0.04,0.496c-0.357,0.059-0.63,0.088-0.816,0.088c-0.416,0-0.704-0.102-0.863-0.304c-0.16-0.203-0.24-0.59-0.24-1.16
			v-2.104h-0.568v-0.52h0.568v-1.224h0.592v1.224h1.272V151.427z"/>
		<path fill="#4D4D4D" d="M150.032,154.411l0.232-0.023l0.016,0.472c-0.608,0.085-1.128,0.128-1.56,0.128
			c-0.576,0-0.984-0.167-1.225-0.5s-0.359-0.853-0.359-1.556c0-1.403,0.557-2.104,1.672-2.104c0.538,0,0.941,0.15,1.208,0.452
			s0.399,0.774,0.399,1.42l-0.031,0.456h-2.641c0,0.442,0.08,0.771,0.24,0.984c0.16,0.213,0.438,0.319,0.836,0.319
			S149.621,154.443,150.032,154.411z M149.816,152.675c0-0.49-0.079-0.837-0.236-1.04c-0.157-0.202-0.413-0.304-0.768-0.304
			s-0.621,0.106-0.8,0.32c-0.179,0.213-0.271,0.555-0.276,1.023H149.816z"/>
		<path fill="#4D4D4D" d="M151.353,150.003v-0.695h0.6v0.695H151.353z M151.353,154.907v-4h0.6v4H151.353z"/>
		<path fill="#4D4D4D" d="M153.704,154.907h-0.6v-4h0.592v0.28c0.432-0.24,0.846-0.36,1.24-0.36c0.533,0,0.892,0.145,1.076,0.432
			c0.184,0.288,0.275,0.801,0.275,1.536v2.112h-0.592v-2.096c0-0.555-0.055-0.935-0.164-1.141c-0.109-0.205-0.343-0.308-0.7-0.308
			c-0.171,0-0.351,0.025-0.54,0.076s-0.334,0.1-0.436,0.147l-0.152,0.072V154.907z"/>
		<path fill="#4D4D4D" d="M160.12,154.411l0.232-0.023l0.016,0.472c-0.608,0.085-1.128,0.128-1.56,0.128
			c-0.576,0-0.984-0.167-1.225-0.5s-0.359-0.853-0.359-1.556c0-1.403,0.557-2.104,1.672-2.104c0.538,0,0.941,0.15,1.208,0.452
			s0.399,0.774,0.399,1.42l-0.031,0.456h-2.641c0,0.442,0.08,0.771,0.24,0.984c0.16,0.213,0.438,0.319,0.836,0.319
			S159.709,154.443,160.12,154.411z M159.904,152.675c0-0.49-0.079-0.837-0.236-1.04c-0.157-0.202-0.413-0.304-0.768-0.304
			s-0.621,0.106-0.8,0.32c-0.179,0.213-0.271,0.555-0.276,1.023H159.904z"/>
		<path fill="#4D4D4D" d="M161.44,154.907v-4h0.592v0.544c0.464-0.32,0.952-0.53,1.464-0.632v0.607
			c-0.224,0.043-0.457,0.109-0.7,0.2c-0.242,0.091-0.428,0.171-0.556,0.24l-0.2,0.104v2.936H161.44z"/>
		<path fill="#4D4D4D" d="M166.071,149.371h2.009c0.549,0,0.961,0.113,1.235,0.34s0.412,0.583,0.412,1.068
			c0,0.347-0.06,0.617-0.18,0.812c-0.12,0.195-0.298,0.349-0.532,0.46c0.587,0.203,0.88,0.638,0.88,1.305
			c0,0.555-0.146,0.952-0.439,1.191c-0.294,0.24-0.718,0.36-1.272,0.36h-2.112V149.371z M168.056,149.915h-1.368v1.912h1.424
			c0.342,0,0.591-0.081,0.748-0.244c0.157-0.162,0.236-0.408,0.236-0.735c0-0.328-0.084-0.565-0.252-0.713
			C168.676,149.988,168.413,149.915,168.056,149.915z M168.119,152.363h-1.432v2h1.472c0.363,0,0.639-0.076,0.828-0.229
			c0.189-0.151,0.284-0.42,0.284-0.804c0-0.202-0.039-0.373-0.116-0.512s-0.18-0.237-0.308-0.296
			C168.613,152.417,168.37,152.363,168.119,152.363z"/>
		<path fill="#4D4D4D" d="M173.721,152.115v2.048c0.016,0.197,0.17,0.314,0.464,0.353l-0.024,0.472c-0.421,0-0.738-0.106-0.952-0.32
			c-0.479,0.214-0.96,0.32-1.439,0.32c-0.368,0-0.648-0.104-0.84-0.312c-0.192-0.208-0.288-0.506-0.288-0.896
			s0.099-0.676,0.296-0.86c0.197-0.184,0.507-0.297,0.928-0.34l1.256-0.12v-0.344c0-0.272-0.059-0.467-0.176-0.584
			s-0.277-0.176-0.48-0.176c-0.427,0-0.869,0.026-1.327,0.08l-0.248,0.023l-0.024-0.456c0.587-0.117,1.106-0.176,1.56-0.176
			c0.454,0,0.783,0.104,0.988,0.312S173.721,151.673,173.721,152.115z M171.256,153.747c0,0.491,0.203,0.736,0.608,0.736
			c0.362,0,0.72-0.062,1.072-0.185l0.184-0.063v-1.32l-1.184,0.112c-0.24,0.021-0.414,0.091-0.521,0.208
			S171.256,153.523,171.256,153.747z"/>
		<path fill="#4D4D4D" d="M175.504,154.907h-0.6v-4h0.592v0.28c0.432-0.24,0.846-0.36,1.24-0.36c0.533,0,0.892,0.145,1.076,0.432
			c0.184,0.288,0.275,0.801,0.275,1.536v2.112h-0.592v-2.096c0-0.555-0.055-0.935-0.164-1.141c-0.109-0.205-0.343-0.308-0.7-0.308
			c-0.171,0-0.351,0.025-0.54,0.076s-0.334,0.1-0.436,0.147l-0.152,0.072V154.907z"/>
		<path fill="#4D4D4D" d="M179.8,154.907h-0.6v-5.744h0.6v3.393l0.624-0.032l1.145-1.616h0.68l-1.304,1.84l1.359,2.16h-0.68
			l-1.192-1.856l-0.632,0.024V154.907z"/>
	</g>
</g>
<g>
	<g>
		<path fill="#4D4D4D" d="M2.911,145.308l1.52-5.536h1.344l1.521,5.536H6.687l-0.399-1.424H3.919l-0.4,1.424H2.911z M4.895,140.3
			l-0.84,3.032H6.15l-0.84-3.032H4.895z"/>
		<path fill="#4D4D4D" d="M9.83,141.228c0.539,0,0.916,0.153,1.132,0.46c0.217,0.307,0.324,0.844,0.324,1.612
			c0,0.768-0.135,1.308-0.403,1.62c-0.27,0.312-0.765,0.468-1.484,0.468c-0.224,0-0.595-0.021-1.112-0.064L8.062,145.3v-5.736h0.592
			v1.944C9.06,141.321,9.451,141.228,9.83,141.228z M9.391,144.852c0.522,0,0.868-0.118,1.036-0.355s0.252-0.639,0.252-1.204
			s-0.067-0.962-0.2-1.188c-0.134-0.227-0.371-0.34-0.712-0.34c-0.31,0-0.627,0.059-0.952,0.176l-0.16,0.057v2.815
			C9.001,144.838,9.246,144.852,9.391,144.852z"/>
		<path fill="#4D4D4D" d="M12.87,145.308h-0.6v-5.744h0.6v1.968c0.427-0.202,0.838-0.304,1.232-0.304
			c0.533,0,0.892,0.145,1.076,0.432c0.184,0.288,0.275,0.801,0.275,1.536v2.112h-0.6v-2.096c0-0.555-0.055-0.935-0.164-1.141
			c-0.109-0.205-0.34-0.308-0.692-0.308c-0.336,0-0.661,0.062-0.976,0.184l-0.152,0.057V145.308z"/>
		<path fill="#4D4D4D" d="M19.391,142.516v2.048c0.016,0.197,0.17,0.314,0.464,0.353l-0.024,0.472c-0.421,0-0.738-0.106-0.952-0.32
			c-0.479,0.214-0.96,0.32-1.439,0.32c-0.368,0-0.648-0.104-0.84-0.312c-0.192-0.208-0.288-0.506-0.288-0.896
			s0.099-0.676,0.296-0.86c0.197-0.184,0.507-0.297,0.928-0.34l1.256-0.12v-0.344c0-0.272-0.059-0.467-0.176-0.584
			s-0.277-0.176-0.48-0.176c-0.427,0-0.869,0.026-1.327,0.08l-0.248,0.023l-0.024-0.456c0.587-0.117,1.106-0.176,1.56-0.176
			c0.454,0,0.783,0.104,0.988,0.312S19.391,142.073,19.391,142.516z M16.83,140.34v-0.721h0.576v0.721H16.83z M16.926,144.147
			c0,0.491,0.203,0.736,0.608,0.736c0.362,0,0.72-0.062,1.072-0.185l0.184-0.063v-1.32l-1.184,0.112
			c-0.24,0.021-0.414,0.091-0.521,0.208S16.926,143.924,16.926,144.147z M18.431,140.34v-0.721h0.584v0.721H18.431z"/>
		<path fill="#4D4D4D" d="M21.174,145.308h-0.6v-4h0.592v0.28c0.432-0.24,0.846-0.36,1.24-0.36c0.533,0,0.892,0.145,1.076,0.432
			c0.184,0.288,0.275,0.801,0.275,1.536v2.112h-0.592v-2.096c0-0.555-0.055-0.935-0.164-1.141c-0.109-0.205-0.343-0.308-0.7-0.308
			c-0.171,0-0.351,0.025-0.54,0.076s-0.334,0.1-0.436,0.147l-0.152,0.072V145.308z"/>
		<path fill="#4D4D4D" d="M26.414,147.188c-0.64,0-1.087-0.087-1.34-0.26c-0.254-0.174-0.38-0.489-0.38-0.948
			c0-0.219,0.048-0.396,0.144-0.532c0.096-0.136,0.259-0.289,0.488-0.46c-0.149-0.101-0.225-0.285-0.225-0.552
			c0-0.091,0.067-0.259,0.2-0.504l0.072-0.128c-0.422-0.192-0.632-0.595-0.632-1.208c0-0.912,0.498-1.368,1.496-1.368
			c0.256,0,0.493,0.026,0.712,0.08l0.12,0.024l1.184-0.032v0.512l-0.76-0.016c0.176,0.176,0.264,0.442,0.264,0.8
			c0,0.501-0.124,0.852-0.372,1.052s-0.639,0.3-1.172,0.3c-0.144,0-0.274-0.011-0.392-0.031c-0.097,0.234-0.145,0.387-0.145,0.456
			c0,0.165,0.051,0.268,0.152,0.308s0.408,0.06,0.92,0.06s0.88,0.08,1.104,0.24c0.225,0.16,0.337,0.472,0.337,0.937
			C28.19,146.764,27.598,147.188,26.414,147.188z M25.286,145.932c0,0.282,0.078,0.479,0.235,0.588s0.448,0.164,0.872,0.164
			c0.425,0,0.729-0.059,0.912-0.176c0.185-0.117,0.276-0.313,0.276-0.588c0-0.275-0.066-0.452-0.2-0.532
			c-0.133-0.08-0.395-0.12-0.784-0.12l-0.863-0.04c-0.177,0.128-0.295,0.24-0.356,0.336S25.286,145.782,25.286,145.932z
			 M25.342,142.596c0,0.314,0.07,0.539,0.212,0.672c0.142,0.134,0.375,0.2,0.7,0.2s0.558-0.066,0.696-0.2
			c0.139-0.133,0.208-0.358,0.208-0.676s-0.069-0.543-0.208-0.676c-0.139-0.134-0.371-0.2-0.696-0.2s-0.559,0.067-0.7,0.204
			C25.412,142.056,25.342,142.281,25.342,142.596z"/>
		<path fill="#4D4D4D" d="M28.982,140.403v-0.695h0.6v0.695H28.982z M28.982,145.308v-4h0.6v4H28.982z"/>
		<path fill="#4D4D4D" d="M32.278,147.188c-0.64,0-1.087-0.087-1.34-0.26c-0.254-0.174-0.38-0.489-0.38-0.948
			c0-0.219,0.048-0.396,0.144-0.532c0.096-0.136,0.259-0.289,0.488-0.46c-0.149-0.101-0.225-0.285-0.225-0.552
			c0-0.091,0.067-0.259,0.2-0.504l0.072-0.128c-0.422-0.192-0.632-0.595-0.632-1.208c0-0.912,0.498-1.368,1.496-1.368
			c0.256,0,0.493,0.026,0.712,0.08l0.12,0.024l1.184-0.032v0.512l-0.76-0.016c0.176,0.176,0.264,0.442,0.264,0.8
			c0,0.501-0.124,0.852-0.372,1.052s-0.639,0.3-1.172,0.3c-0.144,0-0.274-0.011-0.392-0.031c-0.097,0.234-0.145,0.387-0.145,0.456
			c0,0.165,0.051,0.268,0.152,0.308s0.408,0.06,0.92,0.06s0.88,0.08,1.104,0.24c0.225,0.16,0.337,0.472,0.337,0.937
			C34.055,146.764,33.462,147.188,32.278,147.188z M31.15,145.932c0,0.282,0.078,0.479,0.235,0.588s0.448,0.164,0.872,0.164
			c0.425,0,0.729-0.059,0.912-0.176c0.185-0.117,0.276-0.313,0.276-0.588c0-0.275-0.066-0.452-0.2-0.532
			c-0.133-0.08-0.395-0.12-0.784-0.12l-0.863-0.04c-0.177,0.128-0.295,0.24-0.356,0.336S31.15,145.782,31.15,145.932z
			 M31.206,142.596c0,0.314,0.07,0.539,0.212,0.672c0.142,0.134,0.375,0.2,0.7,0.2s0.558-0.066,0.696-0.2
			c0.139-0.133,0.208-0.358,0.208-0.676s-0.069-0.543-0.208-0.676c-0.139-0.134-0.371-0.2-0.696-0.2s-0.559,0.067-0.7,0.204
			C31.276,142.056,31.206,142.281,31.206,142.596z"/>
		<path fill="#4D4D4D" d="M35.446,145.308h-0.6v-5.744h0.6v3.393l0.624-0.032l1.145-1.616h0.68l-1.304,1.84l1.359,2.16h-0.68
			l-1.192-1.856l-0.632,0.024V145.308z"/>
		<path fill="#4D4D4D" d="M41.294,144.812l0.232-0.023l0.016,0.472c-0.608,0.085-1.128,0.128-1.56,0.128
			c-0.576,0-0.984-0.167-1.225-0.5s-0.359-0.853-0.359-1.556c0-1.403,0.557-2.104,1.672-2.104c0.538,0,0.941,0.15,1.208,0.452
			s0.399,0.774,0.399,1.42l-0.031,0.456h-2.641c0,0.442,0.08,0.771,0.24,0.984c0.16,0.213,0.438,0.319,0.836,0.319
			S40.883,144.844,41.294,144.812z M41.078,143.075c0-0.49-0.079-0.837-0.236-1.04c-0.157-0.202-0.413-0.304-0.768-0.304
			s-0.621,0.106-0.8,0.32c-0.179,0.213-0.271,0.555-0.276,1.023H41.078z"/>
		<path fill="#4D4D4D" d="M42.614,140.403v-0.695h0.6v0.695H42.614z M42.614,145.308v-4h0.6v4H42.614z"/>
		<path fill="#4D4D4D" d="M46.438,141.827h-1.272v1.912c0,0.459,0.033,0.761,0.1,0.904c0.067,0.145,0.226,0.216,0.477,0.216
			l0.712-0.048l0.04,0.496c-0.357,0.059-0.63,0.088-0.816,0.088c-0.416,0-0.704-0.102-0.863-0.304c-0.16-0.203-0.24-0.59-0.24-1.16
			v-2.104h-0.568v-0.52h0.568v-1.224h0.592v1.224h1.272V141.827z"/>
		<path fill="#4D4D4D" d="M2.919,150.907h0.64l0.937,3.48h0.296l0.968-3.48h0.616l-1.128,4h-1.2L2.919,150.907z"/>
		<path fill="#4D4D4D" d="M6.896,152.899c0-0.73,0.13-1.259,0.392-1.584s0.702-0.488,1.324-0.488c0.621,0,1.062,0.163,1.319,0.488
			c0.259,0.325,0.389,0.854,0.389,1.584s-0.123,1.261-0.368,1.592s-0.693,0.496-1.344,0.496c-0.651,0-1.099-0.165-1.345-0.496
			C7.018,154.16,6.896,153.63,6.896,152.899z M7.511,152.888c0,0.584,0.071,0.993,0.212,1.228c0.142,0.234,0.438,0.352,0.889,0.352
			c0.45,0,0.745-0.115,0.884-0.348c0.139-0.231,0.208-0.642,0.208-1.228c0-0.587-0.077-0.991-0.232-1.212
			c-0.154-0.222-0.441-0.332-0.859-0.332c-0.419,0-0.707,0.11-0.864,0.332C7.59,151.9,7.511,152.304,7.511,152.888z"/>
		<path fill="#4D4D4D" d="M11.895,154.907h-0.6v-4h0.592v0.28c0.432-0.24,0.846-0.36,1.24-0.36c0.533,0,0.892,0.145,1.076,0.432
			c0.184,0.288,0.275,0.801,0.275,1.536v2.112h-0.592v-2.096c0-0.555-0.055-0.935-0.164-1.141c-0.109-0.205-0.343-0.308-0.7-0.308
			c-0.171,0-0.351,0.025-0.54,0.076s-0.334,0.1-0.436,0.147l-0.152,0.072V154.907z"/>
		<path fill="#4D4D4D" d="M17.11,151.443v-0.536h2.968v0.536l-2.239,2.928h2.239v0.536H17.11v-0.536l2.24-2.928H17.11z"/>
		<path fill="#4D4D4D" d="M20.95,154.907v-0.912h0.656v0.912H20.95z"/>
		<path fill="#4D4D4D" d="M22.822,149.371h2.009c0.549,0,0.961,0.113,1.235,0.34s0.412,0.583,0.412,1.068
			c0,0.347-0.06,0.617-0.18,0.812c-0.12,0.195-0.298,0.349-0.532,0.46c0.587,0.203,0.88,0.638,0.88,1.305
			c0,0.555-0.146,0.952-0.439,1.191c-0.294,0.24-0.718,0.36-1.272,0.36h-2.112V149.371z M24.807,149.915h-1.368v1.912h1.424
			c0.342,0,0.591-0.081,0.748-0.244c0.157-0.162,0.236-0.408,0.236-0.735c0-0.328-0.084-0.565-0.252-0.713
			C25.427,149.988,25.164,149.915,24.807,149.915z M24.87,152.363h-1.432v2h1.472c0.363,0,0.639-0.076,0.828-0.229
			c0.189-0.151,0.284-0.42,0.284-0.804c0-0.202-0.039-0.373-0.116-0.512s-0.18-0.237-0.308-0.296
			C25.364,152.417,25.121,152.363,24.87,152.363z"/>
		<path fill="#4D4D4D" d="M27.606,154.907v-0.912h0.656v0.912H27.606z"/>
		<path fill="#4D4D4D" d="M3.398,164.508v-5.536h0.616v5.536H3.398z"/>
		<path fill="#4D4D4D" d="M5.862,164.508h-0.6v-4h0.592v0.28c0.432-0.24,0.846-0.36,1.24-0.36c0.533,0,0.892,0.145,1.076,0.432
			c0.184,0.288,0.275,0.801,0.275,1.536v2.112H7.854v-2.096c0-0.555-0.055-0.935-0.164-1.141c-0.109-0.205-0.343-0.308-0.7-0.308
			c-0.171,0-0.351,0.025-0.54,0.076s-0.334,0.1-0.436,0.147l-0.152,0.072V164.508z"/>
		<path fill="#4D4D4D" d="M12.631,158.764v5.744h-0.593v-0.272c-0.41,0.235-0.815,0.353-1.216,0.353c-0.213,0-0.399-0.026-0.56-0.08
			s-0.31-0.149-0.448-0.288c-0.288-0.288-0.432-0.82-0.432-1.596c0-0.776,0.129-1.336,0.388-1.681
			c0.259-0.344,0.687-0.516,1.284-0.516c0.309,0,0.637,0.035,0.983,0.104v-1.769H12.631z M10.551,163.996
			c0.096,0.037,0.22,0.056,0.372,0.056c0.151,0,0.322-0.025,0.512-0.076s0.337-0.1,0.444-0.147l0.159-0.072v-2.712
			c-0.341-0.064-0.658-0.096-0.952-0.096c-0.405,0-0.688,0.129-0.848,0.388s-0.24,0.66-0.24,1.204c0,0.618,0.094,1.034,0.28,1.248
			C10.363,163.89,10.454,163.959,10.551,163.996z"/>
		<path fill="#4D4D4D" d="M13.791,159.604v-0.695h0.6v0.695H13.791z M13.791,164.508v-4h0.6v4H13.791z"/>
		<path fill="#4D4D4D" d="M15.303,161.044v-0.536h2.968v0.536l-2.239,2.928h2.239v0.536h-2.968v-0.536l2.24-2.928H15.303z"/>
		<path fill="#4D4D4D" d="M21.878,164.012l0.232-0.023l0.016,0.472c-0.608,0.085-1.128,0.128-1.56,0.128
			c-0.576,0-0.984-0.167-1.225-0.5s-0.359-0.853-0.359-1.556c0-1.403,0.557-2.104,1.672-2.104c0.538,0,0.941,0.15,1.208,0.452
			s0.399,0.774,0.399,1.42l-0.031,0.456H19.59c0,0.442,0.08,0.771,0.24,0.984c0.16,0.213,0.438,0.319,0.836,0.319
			S21.467,164.044,21.878,164.012z M21.662,162.275c0-0.49-0.079-0.837-0.236-1.04c-0.157-0.202-0.413-0.304-0.768-0.304
			s-0.621,0.106-0.8,0.32c-0.179,0.213-0.271,0.555-0.276,1.023H21.662z"/>
		<path fill="#4D4D4D" d="M24.454,160.964c-0.581,0-0.872,0.203-0.872,0.608c0,0.187,0.066,0.318,0.2,0.396
			c0.133,0.077,0.438,0.157,0.912,0.24s0.811,0.198,1.008,0.348s0.296,0.43,0.296,0.84c0,0.411-0.132,0.712-0.396,0.904
			c-0.265,0.192-0.649,0.288-1.156,0.288c-0.331,0-0.721-0.037-1.168-0.112l-0.24-0.04l0.032-0.52
			c0.607,0.091,1.066,0.136,1.376,0.136c0.309,0,0.545-0.049,0.708-0.147c0.162-0.099,0.244-0.265,0.244-0.496
			c0-0.232-0.069-0.39-0.208-0.473c-0.139-0.082-0.443-0.161-0.912-0.235c-0.47-0.075-0.803-0.185-1-0.328
			c-0.197-0.145-0.296-0.411-0.296-0.8c0-0.39,0.137-0.678,0.412-0.864c0.274-0.187,0.617-0.28,1.027-0.28
			c0.325,0,0.733,0.037,1.225,0.112l0.224,0.04l-0.016,0.512C25.262,161.007,24.795,160.964,24.454,160.964z"/>
	</g>
</g>
<g>
	<g>
		<path fill="#4D4D4D" d="M103.303,41.975H60.317V17.853h42.986V41.975z M61.524,40.768h40.571V19.06H61.524V40.768z"/>
	</g>
	<g>
		<path fill="#4D4D4D" d="M89.191,27.421c0,1.357-0.227,2.383-0.683,3.076c-0.455,0.694-1.122,1.041-2.003,1.041
			c-0.833,0-1.48-0.354-1.94-1.063c-0.461-0.708-0.691-1.727-0.691-3.054c0-1.352,0.221-2.37,0.664-3.055
			c0.443-0.684,1.099-1.027,1.967-1.027c0.862,0,1.526,0.354,1.99,1.063C88.959,25.111,89.191,26.117,89.191,27.421z M85.105,27.421
			c0,1.012,0.11,1.771,0.33,2.277c0.22,0.506,0.577,0.759,1.071,0.759c0.975,0,1.463-1.012,1.463-3.036
			c0-2.013-0.488-3.019-1.463-3.019c-0.494,0-0.851,0.25-1.071,0.75C85.215,25.653,85.105,26.409,85.105,27.421z M94.749,23.527
			l-7.235,13.057h-1.312l7.235-13.057H94.749z M97.051,32.655c0,1.352-0.227,2.374-0.683,3.068c-0.455,0.693-1.123,1.04-2.003,1.04
			c-0.845,0-1.495-0.354-1.949-1.063c-0.455-0.709-0.683-1.724-0.683-3.046c0-1.351,0.222-2.37,0.665-3.054
			c0.443-0.684,1.099-1.027,1.967-1.027c0.845,0,1.503,0.35,1.976,1.049C96.815,30.322,97.051,31.333,97.051,32.655z M92.956,32.655
			c0,1.018,0.11,1.779,0.33,2.282c0.22,0.503,0.58,0.755,1.079,0.755c0.5,0,0.868-0.248,1.106-0.746
			c0.238-0.497,0.357-1.261,0.357-2.291c0-1.018-0.119-1.773-0.357-2.264c-0.238-0.491-0.607-0.737-1.106-0.737
			c-0.5,0-0.86,0.246-1.079,0.737C93.066,30.882,92.956,31.637,92.956,32.655z"/>
	</g>
	<g>
		<rect x="61.126" y="30.64" fill="#4D4D4D" width="14.422" height="1.207"/>
	</g>
	<g>
		<rect x="61.126" y="33.032" fill="#4D4D4D" width="14.422" height="1.207"/>
	</g>
	<g>
		<rect x="61.126" y="35.424" fill="#4D4D4D" width="14.422" height="1.207"/>
	</g>
	<circle fill="#4D4D4D" cx="102.699" cy="18.251" r="1.915"/>
	<circle fill="#4D4D4D" cx="102.699" cy="41.371" r="1.915"/>
	<circle fill="#4D4D4D" cx="60.921" cy="18.251" r="1.915"/>
	<circle fill="#4D4D4D" cx="60.921" cy="41.371" r="1.915"/>
	<g>
		<path fill="#4D4D4D" d="M109.115,47.792h-54.55V12.049h54.55V47.792z M55.772,46.584h52.136V13.256H55.772V46.584z"/>
	</g>
</g>
<g>
	<path fill="#4D4D4D" d="M166.791,105.571h-43.916v-5.469l22.022-10.514l21.894,10.516V105.571z M124.465,103.981h40.736v-2.878
		l-20.306-9.753l-20.431,9.754V103.981z"/>
</g>
<g>
	<path fill="#4D4D4D" d="M163.548,131.34h-7.821v-22.129h7.821V131.34z M157.287,129.78h4.7v-19.008h-4.7V129.78z"/>
</g>
<g>
	<path fill="#4D4D4D" d="M134.138,131.34h-7.821v-22.129h7.821V131.34z M127.877,129.78h4.7v-19.008h-4.7V129.78z"/>
</g>
<g>
	<path fill="#4D4D4D" d="M146.6,114.228c-2.527,0-4.103,1.294-4.728,3.882h6.059v1.243h-6.225l-0.024,0.549v0.617l0.024,0.433h5.501
		v1.243h-5.311c0.293,1.156,0.842,2.05,1.645,2.683c0.804,0.633,1.879,0.949,3.226,0.949c1.236,0,2.459-0.212,3.671-0.636v1.445
		c-1.157,0.418-2.412,0.626-3.766,0.626c-1.877,0-3.388-0.432-4.532-1.296c-1.145-0.864-1.899-2.121-2.263-3.771h-1.972v-1.243
		h1.806l-0.024-0.404v-0.424l0.024-0.771h-1.806v-1.243h1.948c0.309-1.676,1.041-2.983,2.198-3.921
		c1.156-0.937,2.673-1.406,4.55-1.406c1.592,0,3.042,0.312,4.348,0.934l-0.844,1.339C148.79,114.504,147.622,114.228,146.6,114.228z
		"/>
</g>
<polygon fill="#4D4D4D" stroke="#4D4D4D" stroke-width="0.25" stroke-miterlimit="10" points="5.88,104.835 7.709,111.977 
	12.451,110.901 14.142,120.5 21.088,91.544 23.949,99.681 25.367,98.272 25.591,102.505 29.673,101.681 31.123,110.269 
	32.842,106.102 35.172,111.26 38.143,101.512 40.878,102.835 40.878,101.796 37.561,100.194 35,108.594 32.803,103.729 
	31.504,106.876 30.439,100.566 26.473,101.367 26.195,96.121 24.343,97.962 20.917,88.222 14.283,115.876 13.207,109.765 
	8.393,110.856 6.198,102.288 "/>
<g>
	<line fill="none" stroke="#4D4D4D" stroke-miterlimit="10" x1="55.46" y1="116.998" x2="42.419" y2="116.998"/>
	<polygon fill="#4D4D4D" points="61.331,117.123 52.181,111.84 52.181,122.406 	"/>
</g>
<g>
	<line fill="none" stroke="#4D4D4D" stroke-miterlimit="10" x1="107.46" y1="116.998" x2="94.419" y2="116.998"/>
	<polygon fill="#4D4D4D" points="113.331,117.123 104.181,111.84 104.181,122.406 	"/>
</g>
<g>
	<polyline fill="none" stroke="#4D4D4D" stroke-miterlimit="10" points="42.25,29.833 5.75,29.833 5.75,68.75 	"/>
	<polygon fill="#4D4D4D" points="5.625,74.621 10.908,65.471 0.342,65.471 	"/>
</g>
<g>
	<polyline fill="none" stroke="#4D4D4D" stroke-miterlimit="10" points="114.008,29.833 144.508,29.833 144.508,74.75 	"/>
</g>
</svg>
