<?xml version="1.0" encoding="utf-8"?>
<!-- Generator: Adobe Illustrator 21.1.0, SVG Export Plug-In . SVG Version: 6.00 Build 0)  -->
<svg version="1.1" id="Ebene_1" xmlns="http://www.w3.org/2000/svg" xmlns:xlink="http://www.w3.org/1999/xlink" x="0px" y="0px"
	 viewBox="0 0 200 200" enable-background="new 0 0 200 200" xml:space="preserve">
<rect x="0.333" y="0.333" fill="#FFFFFF" width="200" height="200.667"/>
<g>
	<g>
		<path fill="#4D4D4D" d="M6.384,41.413c0,0.986-0.157,1.701-0.472,2.144c-0.315,0.442-0.887,0.664-1.717,0.664
			c-0.829,0-1.401-0.227-1.716-0.68c-0.314-0.454-0.472-1.167-0.472-2.141c0-0.973,0.16-1.695,0.479-2.168
			c0.32-0.472,0.889-0.708,1.704-0.708c0.816,0,1.386,0.235,1.708,0.704C6.223,39.698,6.384,40.426,6.384,41.413z M2.64,41.396
			c0,0.811,0.106,1.394,0.32,1.748c0.213,0.354,0.625,0.532,1.235,0.532c0.611,0,1.021-0.174,1.232-0.521s0.316-0.928,0.316-1.743
			c0-0.816-0.109-1.411-0.328-1.784s-0.628-0.561-1.229-0.561c-0.6,0-1.008,0.186-1.224,0.557C2.748,39.995,2.64,40.586,2.64,41.396
			z"/>
		<path fill="#4D4D4D" d="M8.008,44.141h-0.6v-4H8v0.28c0.432-0.24,0.846-0.36,1.24-0.36c0.533,0,0.892,0.145,1.076,0.432
			c0.184,0.288,0.275,0.801,0.275,1.536v2.112H10v-2.096c0-0.555-0.055-0.935-0.164-1.141c-0.109-0.205-0.343-0.308-0.7-0.308
			c-0.171,0-0.351,0.025-0.54,0.076s-0.334,0.1-0.436,0.147l-0.152,0.072V44.141z"/>
		<path fill="#4D4D4D" d="M11.752,44.141v-5.744h0.6v5.744H11.752z"/>
		<path fill="#4D4D4D" d="M13.552,39.236v-0.695h0.6v0.695H13.552z M13.552,44.141v-4h0.6v4H13.552z"/>
		<path fill="#4D4D4D" d="M15.903,44.141h-0.6v-4h0.592v0.28c0.432-0.24,0.846-0.36,1.24-0.36c0.533,0,0.892,0.145,1.076,0.432
			c0.184,0.288,0.275,0.801,0.275,1.536v2.112h-0.592v-2.096c0-0.555-0.055-0.935-0.164-1.141c-0.109-0.205-0.343-0.308-0.7-0.308
			c-0.171,0-0.351,0.025-0.54,0.076s-0.334,0.1-0.436,0.147l-0.152,0.072V44.141z"/>
		<path fill="#4D4D4D" d="M22.319,43.645l0.232-0.023l0.016,0.472c-0.608,0.085-1.128,0.128-1.56,0.128
			c-0.576,0-0.984-0.167-1.225-0.5s-0.359-0.853-0.359-1.556c0-1.403,0.557-2.104,1.672-2.104c0.538,0,0.941,0.15,1.208,0.452
			s0.399,0.774,0.399,1.42l-0.031,0.456h-2.641c0,0.442,0.08,0.771,0.24,0.984c0.16,0.213,0.438,0.319,0.836,0.319
			S21.908,43.677,22.319,43.645z M22.104,41.908c0-0.49-0.079-0.837-0.236-1.04c-0.157-0.202-0.413-0.304-0.768-0.304
			s-0.621,0.106-0.8,0.32c-0.179,0.213-0.271,0.555-0.276,1.023H22.104z"/>
		<path fill="#4D4D4D" d="M23.607,42.221V41.66h2.424v0.561H23.607z"/>
		<path fill="#4D4D4D" d="M27.247,44.141v-5.536h3.312v0.544h-2.696v2.16h2.28v0.544h-2.28v2.288H27.247z"/>
		<path fill="#4D4D4D" d="M31.031,42.133c0-0.73,0.13-1.259,0.392-1.584s0.702-0.488,1.324-0.488c0.621,0,1.062,0.163,1.319,0.488
			c0.259,0.325,0.389,0.854,0.389,1.584s-0.123,1.261-0.368,1.592s-0.693,0.496-1.344,0.496c-0.651,0-1.099-0.165-1.345-0.496
			C31.153,43.394,31.031,42.863,31.031,42.133z M31.646,42.121c0,0.584,0.071,0.993,0.212,1.228C32,43.583,32.296,43.7,32.747,43.7
			c0.45,0,0.745-0.115,0.884-0.348c0.139-0.231,0.208-0.642,0.208-1.228c0-0.587-0.077-0.991-0.232-1.212
			c-0.154-0.222-0.441-0.332-0.859-0.332c-0.419,0-0.707,0.11-0.864,0.332C31.726,41.134,31.646,41.537,31.646,42.121z"/>
		<path fill="#4D4D4D" d="M35.432,44.141v-4h0.592v0.544c0.464-0.32,0.952-0.53,1.464-0.632v0.607c-0.224,0.043-0.457,0.109-0.7,0.2
			c-0.242,0.091-0.428,0.171-0.556,0.24l-0.2,0.104v2.936H35.432z"/>
		<path fill="#4D4D4D" d="M38.799,44.141h-0.6v-4h0.592v0.28c0.4-0.24,0.789-0.36,1.168-0.36c0.496,0,0.843,0.136,1.04,0.408
			c0.176-0.106,0.404-0.201,0.684-0.284c0.28-0.083,0.527-0.124,0.74-0.124c0.533,0,0.893,0.143,1.076,0.428
			c0.184,0.286,0.276,0.799,0.276,1.54v2.112h-0.601v-2.096c0-0.555-0.053-0.935-0.16-1.141c-0.106-0.205-0.333-0.308-0.68-0.308
			c-0.176,0-0.357,0.025-0.544,0.076s-0.331,0.1-0.432,0.147l-0.152,0.072c0.069,0.176,0.104,0.565,0.104,1.168v2.08h-0.601v-2.064
			c0-0.575-0.052-0.966-0.156-1.172c-0.104-0.205-0.332-0.308-0.684-0.308c-0.171,0-0.346,0.025-0.524,0.076s-0.315,0.1-0.412,0.147
			l-0.136,0.072V44.141z"/>
		<path fill="#4D4D4D" d="M47.384,40.141h0.6v4h-0.6v-0.28c-0.4,0.24-0.795,0.36-1.185,0.36c-0.544,0-0.905-0.142-1.084-0.424
			c-0.179-0.283-0.268-0.806-0.268-1.568v-2.088h0.6v2.08c0,0.581,0.051,0.971,0.152,1.168s0.33,0.296,0.688,0.296
			c0.177,0,0.355-0.025,0.536-0.076c0.182-0.051,0.32-0.1,0.416-0.147l0.145-0.072V40.141z"/>
		<path fill="#4D4D4D" d="M49.183,44.141v-5.744h0.6v5.744H49.183z"/>
		<path fill="#4D4D4D" d="M53.808,41.349v2.048c0.016,0.197,0.17,0.314,0.464,0.353l-0.024,0.472c-0.421,0-0.738-0.106-0.952-0.32
			c-0.479,0.214-0.96,0.32-1.439,0.32c-0.368,0-0.648-0.104-0.84-0.312c-0.192-0.208-0.288-0.506-0.288-0.896
			s0.099-0.676,0.296-0.86c0.197-0.184,0.507-0.297,0.928-0.34l1.256-0.12v-0.344c0-0.272-0.059-0.467-0.176-0.584
			s-0.277-0.176-0.48-0.176c-0.427,0-0.869,0.026-1.327,0.08l-0.248,0.023l-0.024-0.456c0.587-0.117,1.106-0.176,1.56-0.176
			c0.454,0,0.783,0.104,0.988,0.312S53.808,40.906,53.808,41.349z M51.343,42.98c0,0.491,0.203,0.736,0.608,0.736
			c0.362,0,0.72-0.062,1.072-0.185l0.184-0.063v-1.32l-1.184,0.112c-0.24,0.021-0.414,0.091-0.521,0.208S51.343,42.757,51.343,42.98
			z"/>
		<path fill="#4D4D4D" d="M54.991,44.141v-4h0.592v0.544c0.464-0.32,0.952-0.53,1.464-0.632v0.607c-0.224,0.043-0.457,0.109-0.7,0.2
			c-0.242,0.091-0.428,0.171-0.556,0.24l-0.2,0.104v2.936H54.991z"/>
		<path fill="#4D4D4D" d="M4.952,50.948v2.048c0.016,0.197,0.17,0.314,0.464,0.353L5.392,53.82c-0.421,0-0.738-0.106-0.952-0.32
			C3.96,53.714,3.479,53.82,3,53.82c-0.368,0-0.648-0.104-0.84-0.312c-0.192-0.208-0.288-0.506-0.288-0.896s0.099-0.676,0.296-0.86
			c0.197-0.184,0.507-0.297,0.928-0.34l1.256-0.12v-0.344c0-0.272-0.059-0.467-0.176-0.584s-0.277-0.176-0.48-0.176
			c-0.427,0-0.869,0.026-1.327,0.08L2.12,50.292l-0.024-0.456c0.587-0.117,1.106-0.176,1.56-0.176c0.454,0,0.783,0.104,0.988,0.312
			S4.952,50.506,4.952,50.948z M2.487,52.58c0,0.491,0.203,0.736,0.608,0.736c0.362,0,0.72-0.062,1.072-0.185l0.184-0.063v-1.32
			L3.168,51.86c-0.24,0.021-0.414,0.091-0.521,0.208S2.487,52.356,2.487,52.58z"/>
		<path fill="#4D4D4D" d="M8.632,49.74h0.6v4h-0.6v-0.28c-0.4,0.24-0.795,0.36-1.185,0.36c-0.544,0-0.905-0.142-1.084-0.424
			c-0.179-0.283-0.268-0.806-0.268-1.568V49.74h0.6v2.08c0,0.581,0.051,0.971,0.152,1.168s0.33,0.296,0.688,0.296
			c0.177,0,0.355-0.025,0.536-0.076c0.182-0.051,0.32-0.1,0.416-0.147l0.145-0.072V49.74z"/>
		<path fill="#4D4D4D" d="M11.64,50.196c-0.581,0-0.872,0.203-0.872,0.608c0,0.187,0.066,0.318,0.2,0.396
			c0.133,0.077,0.438,0.157,0.912,0.24s0.811,0.198,1.008,0.348s0.296,0.43,0.296,0.84c0,0.411-0.132,0.712-0.396,0.904
			c-0.265,0.192-0.649,0.288-1.156,0.288c-0.331,0-0.721-0.037-1.168-0.112l-0.24-0.04l0.032-0.52
			c0.607,0.091,1.066,0.136,1.376,0.136c0.309,0,0.545-0.049,0.708-0.147c0.162-0.099,0.244-0.265,0.244-0.496
			c0-0.232-0.069-0.39-0.208-0.473c-0.139-0.082-0.443-0.161-0.912-0.235c-0.47-0.075-0.803-0.185-1-0.328
			c-0.197-0.145-0.296-0.411-0.296-0.8c0-0.39,0.137-0.678,0.412-0.864c0.274-0.187,0.617-0.28,1.027-0.28
			c0.325,0,0.733,0.037,1.225,0.112l0.224,0.04l-0.016,0.512C12.447,50.239,11.98,50.196,11.64,50.196z"/>
		<path fill="#4D4D4D" d="M14.871,50.26v3.48h-0.6v-3.48h-0.504v-0.52h0.504v-0.36c0-0.564,0.08-0.95,0.24-1.155
			c0.159-0.206,0.439-0.309,0.84-0.309l0.808,0.057l-0.008,0.495c-0.299-0.01-0.545-0.016-0.74-0.016
			c-0.194,0-0.333,0.064-0.416,0.192s-0.124,0.376-0.124,0.744v0.352h1.16v0.52H14.871z"/>
		<path fill="#4D4D4D" d="M19.848,49.74v4h-0.6v-0.28l-0.168,0.088c-0.112,0.064-0.267,0.126-0.464,0.185
			c-0.198,0.059-0.382,0.088-0.553,0.088c-0.544,0-0.905-0.142-1.084-0.424c-0.179-0.283-0.268-0.806-0.268-1.568V49.74h0.6v2.08
			c0,0.581,0.051,0.971,0.152,1.168s0.34,0.296,0.716,0.296s0.732-0.099,1.068-0.296V49.74H19.848z M17.231,48.772v-0.721h0.576
			v0.721H17.231z M18.832,48.772v-0.721h0.584v0.721H18.832z"/>
		<path fill="#4D4D4D" d="M21.048,53.74v-5.744h0.6v5.744H21.048z"/>
		<path fill="#4D4D4D" d="M22.896,53.74v-5.744h0.6v5.744H22.896z"/>
		<path fill="#4D4D4D" d="M27.415,53.244l0.232-0.023l0.016,0.472c-0.608,0.085-1.128,0.128-1.56,0.128
			c-0.576,0-0.984-0.167-1.225-0.5s-0.359-0.853-0.359-1.556c0-1.403,0.557-2.104,1.672-2.104c0.538,0,0.941,0.15,1.208,0.452
			s0.399,0.774,0.399,1.42l-0.031,0.456h-2.641c0,0.442,0.08,0.771,0.24,0.984c0.16,0.213,0.438,0.319,0.836,0.319
			S27.004,53.276,27.415,53.244z M27.199,51.508c0-0.49-0.079-0.837-0.236-1.04c-0.157-0.202-0.413-0.304-0.768-0.304
			s-0.621,0.106-0.8,0.32c-0.179,0.213-0.271,0.555-0.276,1.023H27.199z"/>
		<path fill="#4D4D4D" d="M29.335,53.74h-0.6v-4h0.592v0.28c0.432-0.24,0.846-0.36,1.24-0.36c0.533,0,0.892,0.145,1.076,0.432
			c0.184,0.288,0.275,0.801,0.275,1.536v2.112h-0.592v-2.096c0-0.555-0.055-0.935-0.164-1.141c-0.109-0.205-0.343-0.308-0.7-0.308
			c-0.171,0-0.351,0.025-0.54,0.076s-0.334,0.1-0.436,0.147l-0.152,0.072V53.74z"/>
	</g>
</g>
<g>
	<g>
		<path fill="#4D4D4D" d="M4.256,127.276H2.848v1.864H2.231v-5.536h2.024c0.603,0,1.048,0.146,1.336,0.44
			c0.288,0.293,0.432,0.741,0.432,1.344C6.023,126.647,5.435,127.276,4.256,127.276z M2.848,126.732h1.4
			c0.763,0,1.144-0.448,1.144-1.344c0-0.427-0.091-0.74-0.271-0.94c-0.182-0.199-0.473-0.3-0.872-0.3h-1.4V126.732z"/>
		<path fill="#4D4D4D" d="M6.664,127.133c0-0.73,0.13-1.259,0.392-1.584s0.702-0.488,1.324-0.488c0.621,0,1.062,0.163,1.319,0.488
			c0.259,0.325,0.389,0.854,0.389,1.584s-0.123,1.261-0.368,1.592s-0.693,0.496-1.344,0.496c-0.651,0-1.099-0.165-1.345-0.496
			C6.786,128.394,6.664,127.863,6.664,127.133z M7.279,127.121c0,0.584,0.071,0.993,0.212,1.228
			c0.142,0.234,0.438,0.352,0.889,0.352c0.45,0,0.745-0.115,0.884-0.348c0.139-0.231,0.208-0.642,0.208-1.228
			c0-0.587-0.077-0.991-0.232-1.212c-0.154-0.222-0.441-0.332-0.859-0.332c-0.419,0-0.707,0.11-0.864,0.332
			C7.358,126.134,7.279,126.537,7.279,127.121z"/>
		<path fill="#4D4D4D" d="M12.319,125.597c-0.581,0-0.872,0.203-0.872,0.608c0,0.187,0.066,0.318,0.2,0.396
			c0.133,0.077,0.438,0.157,0.912,0.24s0.811,0.198,1.008,0.348s0.296,0.43,0.296,0.84c0,0.411-0.132,0.712-0.396,0.904
			c-0.265,0.192-0.649,0.288-1.156,0.288c-0.331,0-0.721-0.037-1.168-0.112l-0.24-0.04l0.032-0.52
			c0.607,0.091,1.066,0.136,1.376,0.136c0.309,0,0.545-0.049,0.708-0.147c0.162-0.099,0.244-0.265,0.244-0.496
			c0-0.232-0.069-0.39-0.208-0.473c-0.139-0.082-0.443-0.161-0.912-0.235c-0.47-0.075-0.803-0.185-1-0.328
			c-0.197-0.145-0.296-0.411-0.296-0.8c0-0.39,0.137-0.678,0.412-0.864c0.274-0.187,0.617-0.28,1.027-0.28
			c0.325,0,0.733,0.037,1.225,0.112l0.224,0.04l-0.016,0.512C13.127,125.64,12.66,125.597,12.319,125.597z"/>
		<path fill="#4D4D4D" d="M16.856,125.66h-1.272v1.912c0,0.459,0.033,0.761,0.1,0.904c0.067,0.145,0.226,0.216,0.477,0.216
			l0.712-0.048l0.04,0.496c-0.357,0.059-0.63,0.088-0.816,0.088c-0.416,0-0.704-0.102-0.863-0.304c-0.16-0.203-0.24-0.59-0.24-1.16
			v-2.104h-0.568v-0.52h0.568v-1.224h0.592v1.224h1.272V125.66z"/>
		<path fill="#4D4D4D" d="M17.592,124.236v-0.695h0.6v0.695H17.592z M17.592,129.141v-4h0.6v4H17.592z"/>
		<path fill="#4D4D4D" d="M22.416,123.396v5.744h-0.593v-0.272c-0.41,0.235-0.815,0.353-1.216,0.353c-0.213,0-0.399-0.026-0.56-0.08
			s-0.31-0.149-0.448-0.288c-0.288-0.288-0.432-0.82-0.432-1.596c0-0.776,0.129-1.336,0.388-1.681
			c0.259-0.344,0.687-0.516,1.284-0.516c0.309,0,0.637,0.035,0.983,0.104v-1.769H22.416z M20.336,128.629
			c0.096,0.037,0.22,0.056,0.372,0.056c0.151,0,0.322-0.025,0.512-0.076s0.337-0.1,0.444-0.147l0.159-0.072v-2.712
			c-0.341-0.064-0.658-0.096-0.952-0.096c-0.405,0-0.688,0.129-0.848,0.388s-0.24,0.66-0.24,1.204c0,0.618,0.094,1.034,0.28,1.248
			C20.148,128.522,20.239,128.592,20.336,128.629z"/>
		<path fill="#4D4D4D" d="M26.295,128.645l0.232-0.023l0.016,0.472c-0.608,0.085-1.128,0.128-1.56,0.128
			c-0.576,0-0.984-0.167-1.225-0.5s-0.359-0.853-0.359-1.556c0-1.403,0.557-2.104,1.672-2.104c0.538,0,0.941,0.15,1.208,0.452
			s0.399,0.774,0.399,1.42l-0.031,0.456h-2.641c0,0.442,0.08,0.771,0.24,0.984c0.16,0.213,0.438,0.319,0.836,0.319
			S25.884,128.677,26.295,128.645z M26.079,126.908c0-0.49-0.079-0.837-0.236-1.04c-0.157-0.202-0.413-0.304-0.768-0.304
			s-0.621,0.106-0.8,0.32c-0.179,0.213-0.271,0.555-0.276,1.023H26.079z"/>
		<path fill="#4D4D4D" d="M28.215,129.141h-0.6v-4h0.592v0.28c0.432-0.24,0.846-0.36,1.24-0.36c0.533,0,0.892,0.145,1.076,0.432
			c0.184,0.288,0.275,0.801,0.275,1.536v2.112h-0.592v-2.096c0-0.555-0.055-0.935-0.164-1.141c-0.109-0.205-0.343-0.308-0.7-0.308
			c-0.171,0-0.351,0.025-0.54,0.076s-0.334,0.1-0.436,0.147l-0.152,0.072V129.141z"/>
		<path fill="#4D4D4D" d="M33.96,125.66h-1.272v1.912c0,0.459,0.033,0.761,0.1,0.904c0.067,0.145,0.226,0.216,0.477,0.216
			l0.712-0.048l0.04,0.496c-0.357,0.059-0.63,0.088-0.816,0.088c-0.416,0-0.704-0.102-0.863-0.304c-0.16-0.203-0.24-0.59-0.24-1.16
			v-2.104h-0.568v-0.52h0.568v-1.224h0.592v1.224h1.272V125.66z"/>
		<path fill="#4D4D4D" d="M34.479,127.221v-0.561h2.424v0.561H34.479z"/>
		<path fill="#4D4D4D" d="M41.016,123.604h0.64l-1.448,5.536h-1.376l-1.447-5.536h0.64l1.271,4.992h0.448L41.016,123.604z"/>
		<path fill="#4D4D4D" d="M44.887,128.645l0.232-0.023l0.016,0.472c-0.608,0.085-1.128,0.128-1.56,0.128
			c-0.576,0-0.984-0.167-1.225-0.5s-0.359-0.853-0.359-1.556c0-1.403,0.557-2.104,1.672-2.104c0.538,0,0.941,0.15,1.208,0.452
			s0.399,0.774,0.399,1.42l-0.031,0.456h-2.641c0,0.442,0.08,0.771,0.24,0.984c0.16,0.213,0.438,0.319,0.836,0.319
			S44.476,128.677,44.887,128.645z M44.671,126.908c0-0.49-0.079-0.837-0.236-1.04c-0.157-0.202-0.413-0.304-0.768-0.304
			s-0.621,0.106-0.8,0.32c-0.179,0.213-0.271,0.555-0.276,1.023H44.671z"/>
		<path fill="#4D4D4D" d="M46.207,129.141v-4h0.592v0.544c0.464-0.32,0.952-0.53,1.464-0.632v0.607
			c-0.224,0.043-0.457,0.109-0.7,0.2c-0.242,0.091-0.428,0.171-0.556,0.24l-0.2,0.104v2.936H46.207z"/>
		<path fill="#4D4D4D" d="M49.743,125.66v3.48h-0.6v-3.48H48.64v-0.52h0.504v-0.36c0-0.564,0.08-0.95,0.24-1.155
			c0.159-0.206,0.439-0.309,0.84-0.309l0.808,0.057l-0.008,0.495c-0.299-0.01-0.545-0.016-0.74-0.016
			c-0.194,0-0.333,0.064-0.416,0.192s-0.124,0.376-0.124,0.744v0.352h1.16v0.52H49.743z"/>
		<path fill="#4D4D4D" d="M54.447,126.349v2.048c0.016,0.197,0.17,0.314,0.464,0.353l-0.024,0.472c-0.421,0-0.738-0.106-0.952-0.32
			c-0.479,0.214-0.96,0.32-1.439,0.32c-0.368,0-0.648-0.104-0.84-0.312c-0.192-0.208-0.288-0.506-0.288-0.896
			s0.099-0.676,0.296-0.86c0.197-0.184,0.507-0.297,0.928-0.34l1.256-0.12v-0.344c0-0.272-0.059-0.467-0.176-0.584
			s-0.277-0.176-0.48-0.176c-0.427,0-0.869,0.026-1.327,0.08l-0.248,0.023l-0.024-0.456c0.587-0.117,1.106-0.176,1.56-0.176
			c0.454,0,0.783,0.104,0.988,0.312S54.447,125.906,54.447,126.349z M51.982,127.98c0,0.491,0.203,0.736,0.608,0.736
			c0.362,0,0.72-0.062,1.072-0.185l0.184-0.063v-1.32l-1.184,0.112c-0.24,0.021-0.414,0.091-0.521,0.208
			S51.982,127.757,51.982,127.98z"/>
		<path fill="#4D4D4D" d="M56.23,129.141h-0.6v-5.744h0.6v1.968c0.427-0.202,0.838-0.304,1.232-0.304
			c0.533,0,0.892,0.145,1.076,0.432c0.184,0.288,0.275,0.801,0.275,1.536v2.112h-0.6v-2.096c0-0.555-0.055-0.935-0.164-1.141
			c-0.109-0.205-0.34-0.308-0.692-0.308c-0.336,0-0.661,0.062-0.976,0.184l-0.152,0.057V129.141z"/>
		<path fill="#4D4D4D" d="M59.927,129.141v-4h0.592v0.544c0.464-0.32,0.952-0.53,1.464-0.632v0.607
			c-0.224,0.043-0.457,0.109-0.7,0.2c-0.242,0.091-0.428,0.171-0.556,0.24l-0.2,0.104v2.936H59.927z"/>
		<path fill="#4D4D4D" d="M65.335,128.645l0.232-0.023l0.016,0.472c-0.608,0.085-1.128,0.128-1.56,0.128
			c-0.576,0-0.984-0.167-1.225-0.5s-0.359-0.853-0.359-1.556c0-1.403,0.557-2.104,1.672-2.104c0.538,0,0.941,0.15,1.208,0.452
			s0.399,0.774,0.399,1.42l-0.031,0.456h-2.641c0,0.442,0.08,0.771,0.24,0.984c0.16,0.213,0.438,0.319,0.836,0.319
			S64.924,128.677,65.335,128.645z M65.119,126.908c0-0.49-0.079-0.837-0.236-1.04c-0.157-0.202-0.413-0.304-0.768-0.304
			s-0.621,0.106-0.8,0.32c-0.179,0.213-0.271,0.555-0.276,1.023H65.119z"/>
		<path fill="#4D4D4D" d="M67.255,129.141h-0.6v-4h0.592v0.28c0.432-0.24,0.846-0.36,1.24-0.36c0.533,0,0.892,0.145,1.076,0.432
			c0.184,0.288,0.275,0.801,0.275,1.536v2.112h-0.592v-2.096c0-0.555-0.055-0.935-0.164-1.141c-0.109-0.205-0.343-0.308-0.7-0.308
			c-0.171,0-0.351,0.025-0.54,0.076s-0.334,0.1-0.436,0.147l-0.152,0.072V129.141z"/>
	</g>
</g>
<g>
	<g>
		<path fill="#4D4D4D" d="M2.848,179.641H2.231v-5.536h0.616v2.576l0.912-0.032l1.416-2.544H5.88l-1.584,2.784l1.672,2.752H5.24
			l-1.473-2.448l-0.92,0.032V179.641z"/>
		<path fill="#4D4D4D" d="M6.384,177.633c0-0.73,0.13-1.259,0.392-1.584s0.702-0.488,1.324-0.488c0.621,0,1.062,0.163,1.319,0.488
			c0.259,0.325,0.389,0.854,0.389,1.584s-0.123,1.261-0.368,1.592s-0.693,0.496-1.344,0.496c-0.651,0-1.099-0.165-1.345-0.496
			C6.506,178.894,6.384,178.363,6.384,177.633z M6.999,177.621c0,0.584,0.071,0.993,0.212,1.228
			c0.142,0.234,0.438,0.352,0.889,0.352c0.45,0,0.745-0.115,0.884-0.348c0.139-0.231,0.208-0.642,0.208-1.228
			c0-0.587-0.077-0.991-0.232-1.212c-0.154-0.222-0.441-0.332-0.859-0.332c-0.419,0-0.707,0.11-0.864,0.332
			C7.078,176.634,6.999,177.037,6.999,177.621z"/>
		<path fill="#4D4D4D" d="M11.384,179.641h-0.6v-4h0.592v0.28c0.432-0.24,0.846-0.36,1.24-0.36c0.533,0,0.892,0.145,1.076,0.432
			c0.184,0.288,0.275,0.801,0.275,1.536v2.112h-0.592v-2.096c0-0.555-0.055-0.935-0.164-1.141c-0.109-0.205-0.343-0.308-0.7-0.308
			c-0.171,0-0.351,0.025-0.54,0.076s-0.334,0.1-0.436,0.147l-0.152,0.072V179.641z"/>
		<path fill="#4D4D4D" d="M17.128,176.16h-1.272v1.912c0,0.459,0.033,0.761,0.1,0.904c0.067,0.145,0.226,0.216,0.477,0.216
			l0.712-0.048l0.04,0.496c-0.357,0.059-0.63,0.088-0.816,0.088c-0.416,0-0.704-0.102-0.863-0.304c-0.16-0.203-0.24-0.59-0.24-1.16
			v-2.104h-0.568v-0.52h0.568v-1.224h0.592v1.224h1.272V176.16z"/>
		<path fill="#4D4D4D" d="M17.688,177.633c0-0.73,0.13-1.259,0.392-1.584s0.702-0.488,1.324-0.488c0.621,0,1.062,0.163,1.319,0.488
			c0.259,0.325,0.389,0.854,0.389,1.584s-0.123,1.261-0.368,1.592s-0.693,0.496-1.344,0.496c-0.651,0-1.099-0.165-1.345-0.496
			C17.811,178.894,17.688,178.363,17.688,177.633z M18.304,177.621c0,0.584,0.071,0.993,0.212,1.228
			c0.142,0.234,0.438,0.352,0.889,0.352c0.45,0,0.745-0.115,0.884-0.348c0.139-0.231,0.208-0.642,0.208-1.228
			c0-0.587-0.077-0.991-0.232-1.212c-0.154-0.222-0.441-0.332-0.859-0.332c-0.419,0-0.707,0.11-0.864,0.332
			C18.383,176.634,18.304,177.037,18.304,177.621z"/>
		<path fill="#4D4D4D" d="M23.615,174.648v-0.544h3.601v0.72l-2.896,4.112v0.16h2.896v0.552h-3.601v-0.712l2.889-4.112v-0.176
			H23.615z"/>
		<path fill="#4D4D4D" d="M30.544,175.641h0.6v4h-0.6v-0.28c-0.4,0.24-0.795,0.36-1.185,0.36c-0.544,0-0.905-0.142-1.084-0.424
			c-0.179-0.283-0.268-0.806-0.268-1.568v-2.088h0.6v2.08c0,0.581,0.051,0.971,0.152,1.168s0.33,0.296,0.688,0.296
			c0.177,0,0.355-0.025,0.536-0.076c0.182-0.051,0.32-0.1,0.416-0.147l0.145-0.072V175.641z"/>
		<path fill="#4D4D4D" d="M33.84,181.521c-0.64,0-1.087-0.087-1.34-0.26c-0.254-0.174-0.38-0.489-0.38-0.948
			c0-0.219,0.048-0.396,0.144-0.532c0.096-0.136,0.259-0.289,0.488-0.46c-0.149-0.101-0.225-0.285-0.225-0.552
			c0-0.091,0.067-0.259,0.2-0.504l0.072-0.128c-0.422-0.192-0.632-0.595-0.632-1.208c0-0.912,0.498-1.368,1.496-1.368
			c0.256,0,0.493,0.026,0.712,0.08l0.12,0.024l1.184-0.032v0.512l-0.76-0.016c0.176,0.176,0.264,0.442,0.264,0.8
			c0,0.501-0.124,0.852-0.372,1.052s-0.639,0.3-1.172,0.3c-0.144,0-0.274-0.011-0.392-0.031c-0.097,0.234-0.145,0.387-0.145,0.456
			c0,0.165,0.051,0.268,0.152,0.308s0.408,0.06,0.92,0.06s0.88,0.08,1.104,0.24c0.225,0.16,0.337,0.472,0.337,0.937
			C35.616,181.097,35.023,181.521,33.84,181.521z M32.712,180.265c0,0.282,0.078,0.479,0.235,0.588s0.448,0.164,0.872,0.164
			c0.425,0,0.729-0.059,0.912-0.176c0.185-0.117,0.276-0.313,0.276-0.588c0-0.275-0.066-0.452-0.2-0.532
			c-0.133-0.08-0.395-0.12-0.784-0.12l-0.863-0.04c-0.177,0.128-0.295,0.24-0.356,0.336S32.712,180.115,32.712,180.265z
			 M32.768,176.929c0,0.314,0.07,0.539,0.212,0.672c0.142,0.134,0.375,0.2,0.7,0.2s0.558-0.066,0.696-0.2
			c0.139-0.133,0.208-0.358,0.208-0.676s-0.069-0.543-0.208-0.676c-0.139-0.134-0.371-0.2-0.696-0.2s-0.559,0.067-0.7,0.204
			C32.838,176.389,32.768,176.614,32.768,176.929z"/>
		<path fill="#4D4D4D" d="M39.231,176.849v2.048c0.016,0.197,0.17,0.314,0.464,0.353l-0.024,0.472c-0.421,0-0.738-0.106-0.952-0.32
			c-0.479,0.214-0.96,0.32-1.439,0.32c-0.368,0-0.648-0.104-0.84-0.312c-0.192-0.208-0.288-0.506-0.288-0.896
			s0.099-0.676,0.296-0.86c0.197-0.184,0.507-0.297,0.928-0.34l1.256-0.12v-0.344c0-0.272-0.059-0.467-0.176-0.584
			s-0.277-0.176-0.48-0.176c-0.427,0-0.869,0.026-1.327,0.08l-0.248,0.023l-0.024-0.456c0.587-0.117,1.106-0.176,1.56-0.176
			c0.454,0,0.783,0.104,0.988,0.312S39.231,176.406,39.231,176.849z M36.767,178.48c0,0.491,0.203,0.736,0.608,0.736
			c0.362,0,0.72-0.062,1.072-0.185l0.184-0.063v-1.32l-1.184,0.112c-0.24,0.021-0.414,0.091-0.521,0.208
			S36.767,178.257,36.767,178.48z"/>
		<path fill="#4D4D4D" d="M41.015,179.641h-0.6v-4h0.592v0.28c0.432-0.24,0.846-0.36,1.24-0.36c0.533,0,0.892,0.145,1.076,0.432
			c0.184,0.288,0.275,0.801,0.275,1.536v2.112h-0.592v-2.096c0-0.555-0.055-0.935-0.164-1.141c-0.109-0.205-0.343-0.308-0.7-0.308
			c-0.171,0-0.351,0.025-0.54,0.076s-0.334,0.1-0.436,0.147l-0.152,0.072V179.641z"/>
		<path fill="#4D4D4D" d="M46.256,181.521c-0.64,0-1.087-0.087-1.34-0.26c-0.254-0.174-0.38-0.489-0.38-0.948
			c0-0.219,0.048-0.396,0.144-0.532c0.096-0.136,0.259-0.289,0.488-0.46c-0.149-0.101-0.225-0.285-0.225-0.552
			c0-0.091,0.067-0.259,0.2-0.504l0.072-0.128c-0.422-0.192-0.632-0.595-0.632-1.208c0-0.912,0.498-1.368,1.496-1.368
			c0.256,0,0.493,0.026,0.712,0.08l0.12,0.024l1.184-0.032v0.512l-0.76-0.016c0.176,0.176,0.264,0.442,0.264,0.8
			c0,0.501-0.124,0.852-0.372,1.052s-0.639,0.3-1.172,0.3c-0.144,0-0.274-0.011-0.392-0.031c-0.097,0.234-0.145,0.387-0.145,0.456
			c0,0.165,0.051,0.268,0.152,0.308s0.408,0.06,0.92,0.06s0.88,0.08,1.104,0.24c0.225,0.16,0.337,0.472,0.337,0.937
			C48.032,181.097,47.439,181.521,46.256,181.521z M45.128,180.265c0,0.282,0.078,0.479,0.235,0.588s0.448,0.164,0.872,0.164
			c0.425,0,0.729-0.059,0.912-0.176c0.185-0.117,0.276-0.313,0.276-0.588c0-0.275-0.066-0.452-0.2-0.532
			c-0.133-0.08-0.395-0.12-0.784-0.12l-0.863-0.04c-0.177,0.128-0.295,0.24-0.356,0.336S45.128,180.115,45.128,180.265z
			 M45.184,176.929c0,0.314,0.07,0.539,0.212,0.672c0.142,0.134,0.375,0.2,0.7,0.2s0.558-0.066,0.696-0.2
			c0.139-0.133,0.208-0.358,0.208-0.676s-0.069-0.543-0.208-0.676c-0.139-0.134-0.371-0.2-0.696-0.2s-0.559,0.067-0.7,0.204
			C45.254,176.389,45.184,176.614,45.184,176.929z"/>
		<path fill="#4D4D4D" d="M50.079,176.097c-0.581,0-0.872,0.203-0.872,0.608c0,0.187,0.066,0.318,0.2,0.396
			c0.133,0.077,0.438,0.157,0.912,0.24s0.811,0.198,1.008,0.348s0.296,0.43,0.296,0.84c0,0.411-0.132,0.712-0.396,0.904
			c-0.265,0.192-0.649,0.288-1.156,0.288c-0.331,0-0.721-0.037-1.168-0.112l-0.24-0.04l0.032-0.52
			c0.607,0.091,1.066,0.136,1.376,0.136c0.309,0,0.545-0.049,0.708-0.147c0.162-0.099,0.244-0.265,0.244-0.496
			c0-0.232-0.069-0.39-0.208-0.473c-0.139-0.082-0.443-0.161-0.912-0.235c-0.47-0.075-0.803-0.185-1-0.328
			c-0.197-0.145-0.296-0.411-0.296-0.8c0-0.39,0.137-0.678,0.412-0.864c0.274-0.187,0.617-0.28,1.027-0.28
			c0.325,0,0.733,0.037,1.225,0.112l0.224,0.04l-0.016,0.512C50.887,176.14,50.42,176.097,50.079,176.097z"/>
		<path fill="#4D4D4D" d="M55.615,173.896v5.744h-0.593v-0.272c-0.41,0.235-0.815,0.353-1.216,0.353c-0.213,0-0.399-0.026-0.56-0.08
			s-0.31-0.149-0.448-0.288c-0.288-0.288-0.432-0.82-0.432-1.596c0-0.776,0.129-1.336,0.388-1.681
			c0.259-0.344,0.687-0.516,1.284-0.516c0.309,0,0.637,0.035,0.983,0.104v-1.769H55.615z M53.535,179.129
			c0.096,0.037,0.22,0.056,0.372,0.056c0.151,0,0.322-0.025,0.512-0.076s0.337-0.1,0.444-0.147l0.159-0.072v-2.712
			c-0.341-0.064-0.658-0.096-0.952-0.096c-0.405,0-0.688,0.129-0.848,0.388s-0.24,0.66-0.24,1.204c0,0.618,0.094,1.034,0.28,1.248
			C53.348,179.022,53.438,179.092,53.535,179.129z"/>
		<path fill="#4D4D4D" d="M59.6,176.849v2.048c0.016,0.197,0.17,0.314,0.464,0.353l-0.024,0.472c-0.421,0-0.738-0.106-0.952-0.32
			c-0.479,0.214-0.96,0.32-1.439,0.32c-0.368,0-0.648-0.104-0.84-0.312c-0.192-0.208-0.288-0.506-0.288-0.896
			s0.099-0.676,0.296-0.86c0.197-0.184,0.507-0.297,0.928-0.34l1.256-0.12v-0.344c0-0.272-0.059-0.467-0.176-0.584
			s-0.277-0.176-0.48-0.176c-0.427,0-0.869,0.026-1.327,0.08l-0.248,0.023l-0.024-0.456c0.587-0.117,1.106-0.176,1.56-0.176
			c0.454,0,0.783,0.104,0.988,0.312S59.6,176.406,59.6,176.849z M57.135,178.48c0,0.491,0.203,0.736,0.608,0.736
			c0.362,0,0.72-0.062,1.072-0.185l0.184-0.063v-1.32l-1.184,0.112c-0.24,0.021-0.414,0.091-0.521,0.208
			S57.135,178.257,57.135,178.48z"/>
		<path fill="#4D4D4D" d="M62.855,176.16h-1.272v1.912c0,0.459,0.033,0.761,0.1,0.904c0.067,0.145,0.226,0.216,0.477,0.216
			l0.712-0.048l0.04,0.496c-0.357,0.059-0.63,0.088-0.816,0.088c-0.416,0-0.704-0.102-0.863-0.304c-0.16-0.203-0.24-0.59-0.24-1.16
			v-2.104h-0.568v-0.52h0.568v-1.224h0.592v1.224h1.272V176.16z"/>
		<path fill="#4D4D4D" d="M66.311,179.145l0.232-0.023l0.016,0.472c-0.608,0.085-1.128,0.128-1.56,0.128
			c-0.576,0-0.984-0.167-1.225-0.5s-0.359-0.853-0.359-1.556c0-1.403,0.557-2.104,1.672-2.104c0.538,0,0.941,0.15,1.208,0.452
			s0.399,0.774,0.399,1.42l-0.031,0.456h-2.641c0,0.442,0.08,0.771,0.24,0.984c0.16,0.213,0.438,0.319,0.836,0.319
			S65.899,179.177,66.311,179.145z M66.095,177.408c0-0.49-0.079-0.837-0.236-1.04c-0.157-0.202-0.413-0.304-0.768-0.304
			s-0.621,0.106-0.8,0.32c-0.179,0.213-0.271,0.555-0.276,1.023H66.095z"/>
		<path fill="#4D4D4D" d="M68.23,179.641h-0.6v-4h0.592v0.28c0.432-0.24,0.846-0.36,1.24-0.36c0.533,0,0.892,0.145,1.076,0.432
			c0.184,0.288,0.275,0.801,0.275,1.536v2.112h-0.592v-2.096c0-0.555-0.055-0.935-0.164-1.141c-0.109-0.205-0.343-0.308-0.7-0.308
			c-0.171,0-0.351,0.025-0.54,0.076s-0.334,0.1-0.436,0.147l-0.152,0.072V179.641z"/>
	</g>
</g>
<g>
	<g>
		<path fill="#4D4D4D" d="M103.514,8.479v2.12h-0.615V5.062h2.047c0.588,0,1.029,0.136,1.324,0.408
			c0.297,0.271,0.445,0.696,0.445,1.271c0,0.854-0.34,1.39-1.016,1.608l1.062,2.248h-0.68l-1-2.12H103.514z M104.955,7.935
			c0.752,0,1.127-0.388,1.127-1.164c0-0.775-0.379-1.164-1.137-1.164h-1.432v2.328H104.955z"/>
		<path fill="#4D4D4D" d="M107.723,5.694V4.999h0.6v0.695H107.723z M107.723,10.599v-4h0.6v4H107.723z"/>
		<path fill="#4D4D4D" d="M110.73,7.055c-0.582,0-0.873,0.203-0.873,0.608c0,0.187,0.066,0.318,0.201,0.396
			c0.133,0.077,0.438,0.157,0.912,0.24s0.811,0.198,1.008,0.348s0.295,0.43,0.295,0.84c0,0.411-0.131,0.712-0.395,0.904
			c-0.266,0.192-0.65,0.288-1.156,0.288c-0.332,0-0.721-0.037-1.168-0.112l-0.24-0.04l0.031-0.52
			c0.607,0.091,1.066,0.136,1.377,0.136c0.309,0,0.545-0.049,0.707-0.147s0.244-0.265,0.244-0.496c0-0.232-0.068-0.39-0.207-0.473
			c-0.139-0.082-0.443-0.161-0.912-0.235c-0.471-0.075-0.803-0.185-1-0.328c-0.197-0.145-0.297-0.411-0.297-0.8
			c0-0.39,0.137-0.678,0.412-0.864s0.617-0.28,1.027-0.28c0.326,0,0.734,0.037,1.225,0.112l0.225,0.04l-0.016,0.512
			C111.537,7.098,111.07,7.055,110.73,7.055z"/>
		<path fill="#4D4D4D" d="M113.195,5.694V4.999h0.6v0.695H113.195z M113.195,10.599v-4h0.6v4H113.195z"/>
		<path fill="#4D4D4D" d="M115.547,10.599h-0.6V4.854h0.6v3.393l0.623-0.032l1.145-1.616h0.68l-1.303,1.84l1.359,2.16h-0.68
			l-1.193-1.856l-0.631,0.024V10.599z"/>
		<path fill="#4D4D4D" d="M118.498,8.591c0-0.73,0.131-1.259,0.393-1.584s0.701-0.488,1.324-0.488c0.621,0,1.061,0.163,1.318,0.488
			c0.26,0.325,0.389,0.854,0.389,1.584s-0.123,1.261-0.367,1.592c-0.246,0.331-0.693,0.496-1.344,0.496
			c-0.652,0-1.1-0.165-1.346-0.496C118.621,9.852,118.498,9.321,118.498,8.591z M119.113,8.579c0,0.584,0.072,0.993,0.213,1.228
			s0.438,0.352,0.889,0.352c0.449,0,0.744-0.115,0.883-0.348c0.139-0.231,0.209-0.642,0.209-1.228c0-0.587-0.078-0.991-0.232-1.212
			c-0.154-0.222-0.441-0.332-0.859-0.332c-0.42,0-0.707,0.11-0.865,0.332C119.193,7.592,119.113,7.995,119.113,8.579z"/>
		<path fill="#4D4D4D" d="M122.898,12.375V6.599h0.592v0.288c0.404-0.245,0.805-0.368,1.199-0.368c0.508,0,0.875,0.161,1.104,0.484
			c0.23,0.322,0.346,0.854,0.346,1.596s-0.135,1.273-0.404,1.596c-0.27,0.323-0.717,0.484-1.34,0.484
			c-0.326,0-0.625-0.029-0.896-0.088v1.784H122.898z M124.602,7.055c-0.16,0-0.332,0.026-0.516,0.08s-0.33,0.106-0.436,0.16
			l-0.152,0.08v2.695c0.379,0.059,0.666,0.088,0.863,0.088c0.432,0,0.734-0.122,0.908-0.367c0.174-0.246,0.26-0.646,0.26-1.2
			s-0.078-0.949-0.236-1.185C125.137,7.172,124.906,7.055,124.602,7.055z"/>
		<path fill="#4D4D4D" d="M127.115,10.599v-4h0.592v0.544c0.463-0.32,0.951-0.53,1.463-0.632v0.607
			c-0.223,0.043-0.457,0.109-0.699,0.2s-0.428,0.171-0.557,0.24l-0.199,0.104v2.936H127.115z"/>
		<path fill="#4D4D4D" d="M129.627,8.591c0-0.73,0.129-1.259,0.391-1.584s0.703-0.488,1.324-0.488s1.062,0.163,1.32,0.488
			s0.389,0.854,0.389,1.584s-0.123,1.261-0.369,1.592c-0.244,0.331-0.693,0.496-1.344,0.496s-1.098-0.165-1.344-0.496
			S129.627,9.321,129.627,8.591z M130.242,8.579c0,0.584,0.07,0.993,0.211,1.228c0.143,0.234,0.438,0.352,0.889,0.352
			s0.746-0.115,0.885-0.348c0.139-0.231,0.207-0.642,0.207-1.228c0-0.587-0.076-0.991-0.232-1.212
			c-0.154-0.222-0.441-0.332-0.859-0.332s-0.707,0.11-0.863,0.332C130.32,7.592,130.242,7.995,130.242,8.579z"/>
		<path fill="#4D4D4D" d="M134.793,7.118v3.48h-0.6v-3.48h-0.504v-0.52h0.504v-0.36c0-0.564,0.08-0.95,0.24-1.155
			c0.16-0.206,0.439-0.309,0.84-0.309l0.809,0.057l-0.008,0.495c-0.299-0.01-0.545-0.016-0.74-0.016S135,5.375,134.918,5.503
			c-0.084,0.128-0.125,0.376-0.125,0.744v0.352h1.16v0.52H134.793z"/>
		<path fill="#4D4D4D" d="M136.674,5.694V4.999h0.6v0.695H136.674z M136.674,10.599v-4h0.6v4H136.674z"/>
		<path fill="#4D4D4D" d="M138.475,10.599V4.854h0.6v5.744H138.475z"/>
	</g>
</g>
<g>
	<g>
		<path fill="#4D4D4D" d="M105.709,38.604h0.64l-1.448,5.536h-1.376l-1.447-5.536h0.64l1.271,4.992h0.448L105.709,38.604z"/>
		<path fill="#4D4D4D" d="M109.581,43.645l0.232-0.023l0.016,0.472c-0.608,0.085-1.128,0.128-1.56,0.128
			c-0.576,0-0.984-0.167-1.225-0.5s-0.359-0.853-0.359-1.556c0-1.403,0.557-2.104,1.672-2.104c0.538,0,0.941,0.15,1.208,0.452
			s0.399,0.774,0.399,1.42l-0.031,0.456h-2.641c0,0.442,0.08,0.771,0.24,0.984c0.16,0.213,0.438,0.319,0.836,0.319
			S109.17,43.677,109.581,43.645z M109.365,41.908c0-0.49-0.079-0.837-0.236-1.04c-0.157-0.202-0.413-0.304-0.768-0.304
			s-0.621,0.106-0.8,0.32c-0.179,0.213-0.271,0.555-0.276,1.023H109.365z"/>
		<path fill="#4D4D4D" d="M110.9,44.141v-4h0.592v0.544c0.464-0.32,0.952-0.53,1.464-0.632v0.607c-0.224,0.043-0.457,0.109-0.7,0.2
			c-0.242,0.091-0.428,0.171-0.556,0.24l-0.2,0.104v2.936H110.9z"/>
		<path fill="#4D4D4D" d="M113.669,44.141v-4h0.592v0.544c0.464-0.32,0.952-0.53,1.464-0.632v0.607
			c-0.224,0.043-0.457,0.109-0.7,0.2c-0.242,0.091-0.428,0.171-0.556,0.24l-0.2,0.104v2.936H113.669z"/>
		<path fill="#4D4D4D" d="M119.076,43.645l0.232-0.023l0.016,0.472c-0.608,0.085-1.128,0.128-1.56,0.128
			c-0.576,0-0.984-0.167-1.225-0.5s-0.359-0.853-0.359-1.556c0-1.403,0.557-2.104,1.672-2.104c0.538,0,0.941,0.15,1.208,0.452
			s0.399,0.774,0.399,1.42l-0.031,0.456h-2.641c0,0.442,0.08,0.771,0.24,0.984c0.16,0.213,0.438,0.319,0.836,0.319
			S118.665,43.677,119.076,43.645z M118.86,41.908c0-0.49-0.079-0.837-0.236-1.04c-0.157-0.202-0.413-0.304-0.768-0.304
			s-0.621,0.106-0.8,0.32c-0.179,0.213-0.271,0.555-0.276,1.023H118.86z"/>
		<path fill="#4D4D4D" d="M121.893,40.061c0.176,0,0.475,0.032,0.896,0.096l0.192,0.024l-0.024,0.488
			c-0.427-0.048-0.741-0.072-0.943-0.072c-0.454,0-0.762,0.108-0.925,0.324c-0.162,0.216-0.243,0.616-0.243,1.2
			s0.075,0.99,0.228,1.22s0.468,0.344,0.948,0.344l0.943-0.072l0.024,0.496c-0.496,0.075-0.867,0.112-1.112,0.112
			c-0.624,0-1.055-0.16-1.292-0.48c-0.237-0.319-0.355-0.859-0.355-1.619c0-0.761,0.128-1.294,0.384-1.601
			S121.295,40.061,121.893,40.061z"/>
		<path fill="#4D4D4D" d="M124.484,44.141h-0.6v-5.744h0.6v1.968c0.427-0.202,0.838-0.304,1.232-0.304
			c0.533,0,0.892,0.145,1.076,0.432c0.184,0.288,0.275,0.801,0.275,1.536v2.112h-0.6v-2.096c0-0.555-0.055-0.935-0.164-1.141
			c-0.109-0.205-0.34-0.308-0.692-0.308c-0.336,0-0.661,0.062-0.976,0.184l-0.152,0.057V44.141z"/>
		<path fill="#4D4D4D" d="M128.78,44.141h-0.6v-4h0.592v0.28c0.432-0.24,0.846-0.36,1.24-0.36c0.533,0,0.892,0.145,1.076,0.432
			c0.184,0.288,0.275,0.801,0.275,1.536v2.112h-0.592v-2.096c0-0.555-0.055-0.935-0.164-1.141c-0.109-0.205-0.343-0.308-0.7-0.308
			c-0.171,0-0.351,0.025-0.54,0.076s-0.334,0.1-0.436,0.147l-0.152,0.072V44.141z"/>
		<path fill="#4D4D4D" d="M134.973,40.141h0.6v4h-0.6v-0.28c-0.4,0.24-0.795,0.36-1.185,0.36c-0.544,0-0.905-0.142-1.084-0.424
			c-0.179-0.283-0.268-0.806-0.268-1.568v-2.088h0.6v2.08c0,0.581,0.051,0.971,0.152,1.168s0.33,0.296,0.688,0.296
			c0.177,0,0.355-0.025,0.536-0.076c0.182-0.051,0.32-0.1,0.416-0.147l0.145-0.072V40.141z"/>
		<path fill="#4D4D4D" d="M137.324,44.141h-0.6v-4h0.592v0.28c0.432-0.24,0.846-0.36,1.24-0.36c0.533,0,0.892,0.145,1.076,0.432
			c0.184,0.288,0.275,0.801,0.275,1.536v2.112h-0.592v-2.096c0-0.555-0.055-0.935-0.164-1.141c-0.109-0.205-0.343-0.308-0.7-0.308
			c-0.171,0-0.351,0.025-0.54,0.076s-0.334,0.1-0.436,0.147l-0.152,0.072V44.141z"/>
		<path fill="#4D4D4D" d="M142.564,46.021c-0.64,0-1.087-0.087-1.34-0.26c-0.254-0.174-0.38-0.489-0.38-0.948
			c0-0.219,0.048-0.396,0.144-0.532c0.096-0.136,0.259-0.289,0.488-0.46c-0.149-0.101-0.225-0.285-0.225-0.552
			c0-0.091,0.067-0.259,0.2-0.504l0.072-0.128c-0.422-0.192-0.632-0.595-0.632-1.208c0-0.912,0.498-1.368,1.496-1.368
			c0.256,0,0.493,0.026,0.712,0.08l0.12,0.024l1.184-0.032v0.512l-0.76-0.016c0.176,0.176,0.264,0.442,0.264,0.8
			c0,0.501-0.124,0.852-0.372,1.052s-0.639,0.3-1.172,0.3c-0.144,0-0.274-0.011-0.392-0.031c-0.097,0.234-0.145,0.387-0.145,0.456
			c0,0.165,0.051,0.268,0.152,0.308s0.408,0.06,0.92,0.06s0.88,0.08,1.104,0.24c0.225,0.16,0.337,0.472,0.337,0.937
			C144.341,45.597,143.748,46.021,142.564,46.021z M141.437,44.765c0,0.282,0.078,0.479,0.235,0.588s0.448,0.164,0.872,0.164
			c0.425,0,0.729-0.059,0.912-0.176c0.185-0.117,0.276-0.313,0.276-0.588c0-0.275-0.066-0.452-0.2-0.532
			c-0.133-0.08-0.395-0.12-0.784-0.12l-0.863-0.04c-0.177,0.128-0.295,0.24-0.356,0.336S141.437,44.615,141.437,44.765z
			 M141.492,41.429c0,0.314,0.07,0.539,0.212,0.672c0.142,0.134,0.375,0.2,0.7,0.2s0.558-0.066,0.696-0.2
			c0.139-0.133,0.208-0.358,0.208-0.676s-0.069-0.543-0.208-0.676c-0.139-0.134-0.371-0.2-0.696-0.2s-0.559,0.067-0.7,0.204
			C141.562,40.889,141.492,41.114,141.492,41.429z"/>
		<path fill="#4D4D4D" d="M146.388,40.597c-0.581,0-0.872,0.203-0.872,0.608c0,0.187,0.066,0.318,0.2,0.396
			c0.133,0.077,0.438,0.157,0.912,0.24s0.811,0.198,1.008,0.348s0.296,0.43,0.296,0.84c0,0.411-0.132,0.712-0.396,0.904
			c-0.265,0.192-0.649,0.288-1.156,0.288c-0.331,0-0.721-0.037-1.168-0.112l-0.24-0.04l0.032-0.52
			c0.607,0.091,1.066,0.136,1.376,0.136c0.309,0,0.545-0.049,0.708-0.147c0.162-0.099,0.244-0.265,0.244-0.496
			c0-0.232-0.069-0.39-0.208-0.473c-0.139-0.082-0.443-0.161-0.912-0.235c-0.47-0.075-0.803-0.185-1-0.328
			c-0.197-0.145-0.296-0.411-0.296-0.8c0-0.39,0.137-0.678,0.412-0.864c0.274-0.187,0.617-0.28,1.027-0.28
			c0.325,0,0.733,0.037,1.225,0.112l0.224,0.04l-0.016,0.512C147.195,40.64,146.729,40.597,146.388,40.597z"/>
		<path fill="#4D4D4D" d="M149.451,44.141h-0.6v-5.744h0.6v3.393l0.624-0.032l1.145-1.616h0.68l-1.304,1.84l1.359,2.16h-0.68
			l-1.192-1.856l-0.632,0.024V44.141z"/>
		<path fill="#4D4D4D" d="M152.404,42.133c0-0.73,0.13-1.259,0.392-1.584s0.702-0.488,1.324-0.488c0.621,0,1.062,0.163,1.319,0.488
			c0.259,0.325,0.389,0.854,0.389,1.584s-0.123,1.261-0.368,1.592s-0.693,0.496-1.344,0.496c-0.651,0-1.099-0.165-1.345-0.496
			C152.526,43.394,152.404,42.863,152.404,42.133z M153.02,42.121c0,0.584,0.071,0.993,0.212,1.228
			c0.142,0.234,0.438,0.352,0.889,0.352c0.45,0,0.745-0.115,0.884-0.348c0.139-0.231,0.208-0.642,0.208-1.228
			c0-0.587-0.077-0.991-0.232-1.212c-0.154-0.222-0.441-0.332-0.859-0.332c-0.419,0-0.707,0.11-0.864,0.332
			C153.099,41.134,153.02,41.537,153.02,42.121z"/>
		<path fill="#4D4D4D" d="M157.403,44.141h-0.6v-4h0.592v0.28c0.432-0.24,0.846-0.36,1.24-0.36c0.533,0,0.892,0.145,1.076,0.432
			c0.184,0.288,0.275,0.801,0.275,1.536v2.112h-0.592v-2.096c0-0.555-0.055-0.935-0.164-1.141c-0.109-0.205-0.343-0.308-0.7-0.308
			c-0.171,0-0.351,0.025-0.54,0.076s-0.334,0.1-0.436,0.147l-0.152,0.072V44.141z"/>
		<path fill="#4D4D4D" d="M163.148,40.66h-1.272v1.912c0,0.459,0.033,0.761,0.1,0.904c0.067,0.145,0.226,0.216,0.477,0.216
			l0.712-0.048l0.04,0.496c-0.357,0.059-0.63,0.088-0.816,0.088c-0.416,0-0.704-0.102-0.863-0.304c-0.16-0.203-0.24-0.59-0.24-1.16
			V40.66h-0.568v-0.52h0.568v-1.224h0.592v1.224h1.272V40.66z"/>
		<path fill="#4D4D4D" d="M163.708,42.133c0-0.73,0.13-1.259,0.392-1.584s0.702-0.488,1.324-0.488c0.621,0,1.062,0.163,1.319,0.488
			c0.259,0.325,0.389,0.854,0.389,1.584s-0.123,1.261-0.368,1.592s-0.693,0.496-1.344,0.496c-0.651,0-1.099-0.165-1.345-0.496
			C163.83,43.394,163.708,42.863,163.708,42.133z M164.323,42.121c0,0.584,0.071,0.993,0.212,1.228
			c0.142,0.234,0.438,0.352,0.889,0.352c0.45,0,0.745-0.115,0.884-0.348c0.139-0.231,0.208-0.642,0.208-1.228
			c0-0.587-0.077-0.991-0.232-1.212c-0.154-0.222-0.441-0.332-0.859-0.332c-0.419,0-0.707,0.11-0.864,0.332
			C164.402,41.134,164.323,41.537,164.323,42.121z"/>
		<path fill="#4D4D4D" d="M103.229,50.26v3.48h-0.6v-3.48h-0.504v-0.52h0.504v-0.36c0-0.564,0.08-0.95,0.24-1.155
			c0.159-0.206,0.439-0.309,0.84-0.309l0.808,0.057l-0.008,0.495c-0.299-0.01-0.545-0.016-0.74-0.016
			c-0.194,0-0.333,0.064-0.416,0.192s-0.124,0.376-0.124,0.744v0.352h1.16v0.52H103.229z"/>
		<path fill="#4D4D4D" d="M107.757,53.244l0.232-0.023l0.016,0.472c-0.608,0.085-1.128,0.128-1.56,0.128
			c-0.576,0-0.984-0.167-1.225-0.5s-0.359-0.853-0.359-1.556c0-1.403,0.557-2.104,1.672-2.104c0.538,0,0.941,0.15,1.208,0.452
			s0.399,0.774,0.399,1.42l-0.031,0.456h-2.641c0,0.442,0.08,0.771,0.24,0.984c0.16,0.213,0.438,0.319,0.836,0.319
			S107.346,53.276,107.757,53.244z M107.541,51.508c0-0.49-0.079-0.837-0.236-1.04c-0.157-0.202-0.413-0.304-0.768-0.304
			s-0.621,0.106-0.8,0.32c-0.179,0.213-0.271,0.555-0.276,1.023H107.541z"/>
		<path fill="#4D4D4D" d="M110.333,50.196c-0.581,0-0.872,0.203-0.872,0.608c0,0.187,0.066,0.318,0.2,0.396
			c0.133,0.077,0.438,0.157,0.912,0.24s0.811,0.198,1.008,0.348s0.296,0.43,0.296,0.84c0,0.411-0.132,0.712-0.396,0.904
			c-0.265,0.192-0.649,0.288-1.156,0.288c-0.331,0-0.721-0.037-1.168-0.112l-0.24-0.04l0.032-0.52
			c0.607,0.091,1.066,0.136,1.376,0.136c0.309,0,0.545-0.049,0.708-0.147c0.162-0.099,0.244-0.265,0.244-0.496
			c0-0.232-0.069-0.39-0.208-0.473c-0.139-0.082-0.443-0.161-0.912-0.235c-0.47-0.075-0.803-0.185-1-0.328
			c-0.197-0.145-0.296-0.411-0.296-0.8c0-0.39,0.137-0.678,0.412-0.864c0.274-0.187,0.617-0.28,1.027-0.28
			c0.325,0,0.733,0.037,1.225,0.112l0.224,0.04l-0.016,0.512C111.141,50.239,110.674,50.196,110.333,50.196z"/>
		<path fill="#4D4D4D" d="M114.869,50.26h-1.272v1.912c0,0.459,0.033,0.761,0.1,0.904c0.067,0.145,0.226,0.216,0.477,0.216
			l0.712-0.048l0.04,0.496c-0.357,0.059-0.63,0.088-0.816,0.088c-0.416,0-0.704-0.102-0.863-0.304c-0.16-0.203-0.24-0.59-0.24-1.16
			V50.26h-0.568v-0.52h0.568v-1.224h0.592v1.224h1.272V50.26z"/>
		<path fill="#4D4D4D" d="M115.652,53.74v-5.744h0.6v5.744H115.652z"/>
		<path fill="#4D4D4D" d="M120.173,53.244l0.232-0.023l0.016,0.472c-0.608,0.085-1.128,0.128-1.56,0.128
			c-0.576,0-0.984-0.167-1.225-0.5s-0.359-0.853-0.359-1.556c0-1.403,0.557-2.104,1.672-2.104c0.538,0,0.941,0.15,1.208,0.452
			s0.399,0.774,0.399,1.42l-0.031,0.456h-2.641c0,0.442,0.08,0.771,0.24,0.984c0.16,0.213,0.438,0.319,0.836,0.319
			S119.762,53.276,120.173,53.244z M119.957,51.508c0-0.49-0.079-0.837-0.236-1.04c-0.157-0.202-0.413-0.304-0.768-0.304
			s-0.621,0.106-0.8,0.32c-0.179,0.213-0.271,0.555-0.276,1.023H119.957z"/>
		<path fill="#4D4D4D" d="M123.036,55.62c-0.64,0-1.087-0.087-1.34-0.26c-0.254-0.174-0.38-0.489-0.38-0.948
			c0-0.219,0.048-0.396,0.144-0.532c0.096-0.136,0.259-0.289,0.488-0.46c-0.149-0.101-0.225-0.285-0.225-0.552
			c0-0.091,0.067-0.259,0.2-0.504l0.072-0.128c-0.422-0.192-0.632-0.595-0.632-1.208c0-0.912,0.498-1.368,1.496-1.368
			c0.256,0,0.493,0.026,0.712,0.08l0.12,0.024l1.184-0.032v0.512l-0.76-0.016c0.176,0.176,0.264,0.442,0.264,0.8
			c0,0.501-0.124,0.852-0.372,1.052s-0.639,0.3-1.172,0.3c-0.144,0-0.274-0.011-0.392-0.031c-0.097,0.234-0.145,0.387-0.145,0.456
			c0,0.165,0.051,0.268,0.152,0.308s0.408,0.06,0.92,0.06s0.88,0.08,1.104,0.24c0.225,0.16,0.337,0.472,0.337,0.937
			C124.812,55.196,124.22,55.62,123.036,55.62z M121.908,54.364c0,0.282,0.078,0.479,0.235,0.588s0.448,0.164,0.872,0.164
			c0.425,0,0.729-0.059,0.912-0.176c0.185-0.117,0.276-0.313,0.276-0.588c0-0.275-0.066-0.452-0.2-0.532
			c-0.133-0.08-0.395-0.12-0.784-0.12l-0.863-0.04c-0.177,0.128-0.295,0.24-0.356,0.336S121.908,54.215,121.908,54.364z
			 M121.964,51.028c0,0.314,0.07,0.539,0.212,0.672c0.142,0.134,0.375,0.2,0.7,0.2s0.558-0.066,0.696-0.2
			c0.139-0.133,0.208-0.358,0.208-0.676s-0.069-0.543-0.208-0.676c-0.139-0.134-0.371-0.2-0.696-0.2s-0.559,0.067-0.7,0.204
			C122.034,50.488,121.964,50.714,121.964,51.028z"/>
		<path fill="#4D4D4D" d="M128.324,53.244l0.232-0.023l0.016,0.472c-0.608,0.085-1.128,0.128-1.56,0.128
			c-0.576,0-0.984-0.167-1.225-0.5s-0.359-0.853-0.359-1.556c0-1.403,0.557-2.104,1.672-2.104c0.538,0,0.941,0.15,1.208,0.452
			s0.399,0.774,0.399,1.42l-0.031,0.456h-2.641c0,0.442,0.08,0.771,0.24,0.984c0.16,0.213,0.438,0.319,0.836,0.319
			S127.913,53.276,128.324,53.244z M128.108,51.508c0-0.49-0.079-0.837-0.236-1.04c-0.157-0.202-0.413-0.304-0.768-0.304
			s-0.621,0.106-0.8,0.32c-0.179,0.213-0.271,0.555-0.276,1.023H128.108z"/>
		<path fill="#4D4D4D" d="M130.244,53.74h-0.6v-4h0.592v0.28c0.432-0.24,0.846-0.36,1.24-0.36c0.533,0,0.892,0.145,1.076,0.432
			c0.184,0.288,0.275,0.801,0.275,1.536v2.112h-0.592v-2.096c0-0.555-0.055-0.935-0.164-1.141c-0.109-0.205-0.343-0.308-0.7-0.308
			c-0.171,0-0.351,0.025-0.54,0.076s-0.334,0.1-0.436,0.147l-0.152,0.072V53.74z"/>
	</g>
</g>
<g>
	<g>
		<path fill="#4D4D4D" d="M103.141,117.852c0,0.8,0.433,1.2,1.296,1.2c0.448,0,0.785-0.095,1.013-0.284
			c0.227-0.189,0.34-0.494,0.34-0.916v-3.872h0.607v3.856c0,0.618-0.164,1.066-0.492,1.344c-0.327,0.277-0.812,0.416-1.451,0.416
			c-0.641,0-1.122-0.139-1.444-0.416c-0.323-0.277-0.484-0.726-0.484-1.344v-3.856h0.616V117.852z"/>
		<path fill="#4D4D4D" d="M108.213,119.516h-0.6v-4h0.592v0.28c0.432-0.24,0.846-0.36,1.24-0.36c0.533,0,0.892,0.145,1.076,0.432
			c0.184,0.288,0.275,0.801,0.275,1.536v2.112h-0.592v-2.096c0-0.555-0.055-0.935-0.164-1.141c-0.109-0.205-0.343-0.308-0.7-0.308
			c-0.171,0-0.351,0.025-0.54,0.076s-0.334,0.1-0.436,0.147l-0.152,0.072V119.516z"/>
		<path fill="#4D4D4D" d="M113.957,116.035h-1.272v1.912c0,0.459,0.033,0.761,0.1,0.904c0.067,0.145,0.226,0.216,0.477,0.216
			l0.712-0.048l0.04,0.496c-0.357,0.059-0.63,0.088-0.816,0.088c-0.416,0-0.704-0.102-0.863-0.304c-0.16-0.203-0.24-0.59-0.24-1.16
			v-2.104h-0.568v-0.52h0.568v-1.224h0.592v1.224h1.272V116.035z"/>
		<path fill="#4D4D4D" d="M117.413,119.02l0.232-0.023l0.016,0.472c-0.608,0.085-1.128,0.128-1.56,0.128
			c-0.576,0-0.984-0.167-1.225-0.5s-0.359-0.853-0.359-1.556c0-1.403,0.557-2.104,1.672-2.104c0.538,0,0.941,0.15,1.208,0.452
			s0.399,0.774,0.399,1.42l-0.031,0.456h-2.641c0,0.442,0.08,0.771,0.24,0.984c0.16,0.213,0.438,0.319,0.836,0.319
			S117.002,119.052,117.413,119.02z M117.197,117.283c0-0.49-0.079-0.837-0.236-1.04c-0.157-0.202-0.413-0.304-0.768-0.304
			s-0.621,0.106-0.8,0.32c-0.179,0.213-0.271,0.555-0.276,1.023H117.197z"/>
		<path fill="#4D4D4D" d="M118.732,119.516v-4h0.592v0.544c0.464-0.32,0.952-0.53,1.464-0.632v0.607
			c-0.224,0.043-0.457,0.109-0.7,0.2c-0.242,0.091-0.428,0.171-0.556,0.24l-0.2,0.104v2.936H118.732z"/>
		<path fill="#4D4D4D" d="M121.549,119.516v-5.744h0.6v5.744H121.549z"/>
		<path fill="#4D4D4D" d="M126.173,116.724v2.048c0.016,0.197,0.17,0.314,0.464,0.353l-0.024,0.472c-0.421,0-0.738-0.106-0.952-0.32
			c-0.479,0.214-0.96,0.32-1.439,0.32c-0.368,0-0.648-0.104-0.84-0.312c-0.192-0.208-0.288-0.506-0.288-0.896
			s0.099-0.676,0.296-0.86c0.197-0.184,0.507-0.297,0.928-0.34l1.256-0.12v-0.344c0-0.272-0.059-0.467-0.176-0.584
			s-0.277-0.176-0.48-0.176c-0.427,0-0.869,0.026-1.327,0.08l-0.248,0.023l-0.024-0.456c0.587-0.117,1.106-0.176,1.56-0.176
			c0.454,0,0.783,0.104,0.988,0.312S126.173,116.281,126.173,116.724z M123.708,118.355c0,0.491,0.203,0.736,0.608,0.736
			c0.362,0,0.72-0.062,1.072-0.185l0.184-0.063v-1.32l-1.184,0.112c-0.24,0.021-0.414,0.091-0.521,0.208
			S123.708,118.132,123.708,118.355z"/>
		<path fill="#4D4D4D" d="M128.9,121.396c-0.64,0-1.087-0.087-1.34-0.26c-0.254-0.174-0.38-0.489-0.38-0.948
			c0-0.219,0.048-0.396,0.144-0.532c0.096-0.136,0.259-0.289,0.488-0.46c-0.149-0.101-0.225-0.285-0.225-0.552
			c0-0.091,0.067-0.259,0.2-0.504l0.072-0.128c-0.422-0.192-0.632-0.595-0.632-1.208c0-0.912,0.498-1.368,1.496-1.368
			c0.256,0,0.493,0.026,0.712,0.08l0.12,0.024l1.184-0.032v0.512l-0.76-0.016c0.176,0.176,0.264,0.442,0.264,0.8
			c0,0.501-0.124,0.852-0.372,1.052s-0.639,0.3-1.172,0.3c-0.144,0-0.274-0.011-0.392-0.031c-0.097,0.234-0.145,0.387-0.145,0.456
			c0,0.165,0.051,0.268,0.152,0.308s0.408,0.06,0.92,0.06s0.88,0.08,1.104,0.24c0.225,0.16,0.337,0.472,0.337,0.937
			C130.677,120.972,130.084,121.396,128.9,121.396z M127.772,120.14c0,0.282,0.078,0.479,0.235,0.588s0.448,0.164,0.872,0.164
			c0.425,0,0.729-0.059,0.912-0.176c0.185-0.117,0.276-0.313,0.276-0.588c0-0.275-0.066-0.452-0.2-0.532
			c-0.133-0.08-0.395-0.12-0.784-0.12l-0.863-0.04c-0.177,0.128-0.295,0.24-0.356,0.336S127.772,119.99,127.772,120.14z
			 M127.828,116.804c0,0.314,0.07,0.539,0.212,0.672c0.142,0.134,0.375,0.2,0.7,0.2s0.558-0.066,0.696-0.2
			c0.139-0.133,0.208-0.358,0.208-0.676s-0.069-0.543-0.208-0.676c-0.139-0.134-0.371-0.2-0.696-0.2s-0.559,0.067-0.7,0.204
			C127.898,116.264,127.828,116.489,127.828,116.804z"/>
		<path fill="#4D4D4D" d="M134.188,119.02l0.232-0.023l0.016,0.472c-0.608,0.085-1.128,0.128-1.56,0.128
			c-0.576,0-0.984-0.167-1.225-0.5s-0.359-0.853-0.359-1.556c0-1.403,0.557-2.104,1.672-2.104c0.538,0,0.941,0.15,1.208,0.452
			s0.399,0.774,0.399,1.42l-0.031,0.456H131.9c0,0.442,0.08,0.771,0.24,0.984c0.16,0.213,0.438,0.319,0.836,0.319
			S133.777,119.052,134.188,119.02z M133.973,117.283c0-0.49-0.079-0.837-0.236-1.04c-0.157-0.202-0.413-0.304-0.768-0.304
			s-0.621,0.106-0.8,0.32c-0.179,0.213-0.271,0.555-0.276,1.023H133.973z"/>
		<path fill="#4D4D4D" d="M136.108,119.516h-0.6v-4h0.592v0.28c0.432-0.24,0.846-0.36,1.24-0.36c0.533,0,0.892,0.145,1.076,0.432
			c0.184,0.288,0.275,0.801,0.275,1.536v2.112h-0.592v-2.096c0-0.555-0.055-0.935-0.164-1.141c-0.109-0.205-0.343-0.308-0.7-0.308
			c-0.171,0-0.351,0.025-0.54,0.076s-0.334,0.1-0.436,0.147l-0.152,0.072V119.516z"/>
		<path fill="#4D4D4D" d="M141.236,115.516h0.6l0.809,3.48h0.128l0.952-3.4h0.624l0.951,3.4h0.137l0.8-3.48h0.6l-0.951,4h-1
			l-0.849-3.128l-0.848,3.128h-1L141.236,115.516z"/>
		<path fill="#4D4D4D" d="M150.34,119.02l0.232-0.023l0.016,0.472c-0.608,0.085-1.128,0.128-1.56,0.128
			c-0.576,0-0.984-0.167-1.225-0.5s-0.359-0.853-0.359-1.556c0-1.403,0.557-2.104,1.672-2.104c0.538,0,0.941,0.15,1.208,0.452
			s0.399,0.774,0.399,1.42l-0.031,0.456h-2.641c0,0.442,0.08,0.771,0.24,0.984c0.16,0.213,0.438,0.319,0.836,0.319
			S149.929,119.052,150.34,119.02z M150.124,117.283c0-0.49-0.079-0.837-0.236-1.04c-0.157-0.202-0.413-0.304-0.768-0.304
			s-0.621,0.106-0.8,0.32c-0.179,0.213-0.271,0.555-0.276,1.023H150.124z"/>
		<path fill="#4D4D4D" d="M151.66,119.516v-4h0.592v0.544c0.464-0.32,0.952-0.53,1.464-0.632v0.607
			c-0.224,0.043-0.457,0.109-0.7,0.2c-0.242,0.091-0.428,0.171-0.556,0.24l-0.2,0.104v2.936H151.66z"/>
		<path fill="#4D4D4D" d="M157.396,113.771v5.744h-0.593v-0.272c-0.41,0.235-0.815,0.353-1.216,0.353
			c-0.213,0-0.399-0.026-0.56-0.08s-0.31-0.149-0.448-0.288c-0.288-0.288-0.432-0.82-0.432-1.596c0-0.776,0.129-1.336,0.388-1.681
			c0.259-0.344,0.687-0.516,1.284-0.516c0.309,0,0.637,0.035,0.983,0.104v-1.769H157.396z M155.316,119.004
			c0.096,0.037,0.22,0.056,0.372,0.056c0.151,0,0.322-0.025,0.512-0.076s0.337-0.1,0.444-0.147l0.159-0.072v-2.712
			c-0.341-0.064-0.658-0.096-0.952-0.096c-0.405,0-0.688,0.129-0.848,0.388s-0.24,0.66-0.24,1.204c0,0.618,0.094,1.034,0.28,1.248
			C155.129,118.897,155.22,118.967,155.316,119.004z"/>
		<path fill="#4D4D4D" d="M161.276,119.02l0.232-0.023l0.016,0.472c-0.608,0.085-1.128,0.128-1.56,0.128
			c-0.576,0-0.984-0.167-1.225-0.5s-0.359-0.853-0.359-1.556c0-1.403,0.557-2.104,1.672-2.104c0.538,0,0.941,0.15,1.208,0.452
			s0.399,0.774,0.399,1.42l-0.031,0.456h-2.641c0,0.442,0.08,0.771,0.24,0.984c0.16,0.213,0.438,0.319,0.836,0.319
			S160.865,119.052,161.276,119.02z M161.061,117.283c0-0.49-0.079-0.837-0.236-1.04c-0.157-0.202-0.413-0.304-0.768-0.304
			s-0.621,0.106-0.8,0.32c-0.179,0.213-0.271,0.555-0.276,1.023H161.061z"/>
		<path fill="#4D4D4D" d="M163.195,119.516h-0.6v-4h0.592v0.28c0.432-0.24,0.846-0.36,1.24-0.36c0.533,0,0.892,0.145,1.076,0.432
			c0.184,0.288,0.275,0.801,0.275,1.536v2.112h-0.592v-2.096c0-0.555-0.055-0.935-0.164-1.141c-0.109-0.205-0.343-0.308-0.7-0.308
			c-0.171,0-0.351,0.025-0.54,0.076s-0.334,0.1-0.436,0.147l-0.152,0.072V119.516z"/>
		<path fill="#4D4D4D" d="M105.285,126.323v2.048c0.016,0.197,0.17,0.314,0.464,0.353l-0.024,0.472c-0.421,0-0.738-0.106-0.952-0.32
			c-0.479,0.214-0.96,0.32-1.439,0.32c-0.368,0-0.648-0.104-0.84-0.312c-0.192-0.208-0.288-0.506-0.288-0.896
			s0.099-0.676,0.296-0.86c0.197-0.184,0.507-0.297,0.928-0.34l1.256-0.12v-0.344c0-0.272-0.059-0.467-0.176-0.584
			s-0.277-0.176-0.48-0.176c-0.427,0-0.869,0.026-1.327,0.08l-0.248,0.023l-0.024-0.456c0.587-0.117,1.106-0.176,1.56-0.176
			c0.454,0,0.783,0.104,0.988,0.312S105.285,125.881,105.285,126.323z M102.82,127.955c0,0.491,0.203,0.736,0.608,0.736
			c0.362,0,0.72-0.062,1.072-0.185l0.184-0.063v-1.32l-1.184,0.112c-0.24,0.021-0.414,0.091-0.521,0.208
			S102.82,127.731,102.82,127.955z"/>
		<path fill="#4D4D4D" d="M107.068,129.115h-0.6v-4h0.592v0.28c0.432-0.24,0.846-0.36,1.24-0.36c0.533,0,0.892,0.145,1.076,0.432
			c0.184,0.288,0.275,0.801,0.275,1.536v2.112h-0.592v-2.096c0-0.555-0.055-0.935-0.164-1.141c-0.109-0.205-0.343-0.308-0.7-0.308
			c-0.171,0-0.351,0.025-0.54,0.076s-0.334,0.1-0.436,0.147l-0.152,0.072V129.115z"/>
		<path fill="#4D4D4D" d="M112.628,123.579h2.009c0.549,0,0.961,0.113,1.235,0.34s0.412,0.583,0.412,1.068
			c0,0.347-0.06,0.617-0.18,0.812c-0.12,0.195-0.298,0.349-0.532,0.46c0.587,0.203,0.88,0.638,0.88,1.305
			c0,0.555-0.146,0.952-0.439,1.191c-0.294,0.24-0.718,0.36-1.272,0.36h-2.112V123.579z M114.612,124.123h-1.368v1.912h1.424
			c0.342,0,0.591-0.081,0.748-0.244c0.157-0.162,0.236-0.408,0.236-0.735c0-0.328-0.084-0.565-0.252-0.713
			C115.232,124.196,114.97,124.123,114.612,124.123z M114.676,126.571h-1.432v2h1.472c0.363,0,0.639-0.076,0.828-0.229
			c0.189-0.151,0.284-0.42,0.284-0.804c0-0.202-0.039-0.373-0.116-0.512s-0.18-0.237-0.308-0.296
			C115.17,126.625,114.927,126.571,114.676,126.571z"/>
		<path fill="#4D4D4D" d="M117.453,129.115v-4h0.592v0.544c0.464-0.32,0.952-0.53,1.464-0.632v0.607
			c-0.224,0.043-0.457,0.109-0.7,0.2c-0.242,0.091-0.428,0.171-0.556,0.24l-0.2,0.104v2.936H117.453z"/>
		<path fill="#4D4D4D" d="M119.965,127.107c0-0.73,0.13-1.259,0.392-1.584s0.702-0.488,1.324-0.488c0.621,0,1.062,0.163,1.319,0.488
			c0.259,0.325,0.389,0.854,0.389,1.584s-0.123,1.261-0.368,1.592s-0.693,0.496-1.344,0.496c-0.651,0-1.099-0.165-1.345-0.496
			C120.087,128.368,119.965,127.838,119.965,127.107z M120.58,127.096c0,0.584,0.071,0.993,0.212,1.228
			c0.142,0.234,0.438,0.352,0.889,0.352c0.45,0,0.745-0.115,0.884-0.348c0.139-0.231,0.208-0.642,0.208-1.228
			c0-0.587-0.077-0.991-0.232-1.212c-0.154-0.222-0.441-0.332-0.859-0.332c-0.419,0-0.707,0.11-0.864,0.332
			C120.659,126.108,120.58,126.512,120.58,127.096z"/>
		<path fill="#4D4D4D" d="M124.964,129.115h-0.6v-5.744h0.6v3.393l0.624-0.032l1.145-1.616h0.68l-1.304,1.84l1.359,2.16h-0.68
			l-1.192-1.856l-0.632,0.024V129.115z"/>
		<path fill="#4D4D4D" d="M130.812,128.619l0.232-0.023l0.016,0.472c-0.608,0.085-1.128,0.128-1.56,0.128
			c-0.576,0-0.984-0.167-1.225-0.5s-0.359-0.853-0.359-1.556c0-1.403,0.557-2.104,1.672-2.104c0.538,0,0.941,0.15,1.208,0.452
			s0.399,0.774,0.399,1.42l-0.031,0.456h-2.641c0,0.442,0.08,0.771,0.24,0.984c0.16,0.213,0.438,0.319,0.836,0.319
			S130.401,128.651,130.812,128.619z M130.597,126.883c0-0.49-0.079-0.837-0.236-1.04c-0.157-0.202-0.413-0.304-0.768-0.304
			s-0.621,0.106-0.8,0.32c-0.179,0.213-0.271,0.555-0.276,1.023H130.597z"/>
		<path fill="#4D4D4D" d="M132.133,129.115v-4h0.592v0.544c0.464-0.32,0.952-0.53,1.464-0.632v0.607
			c-0.224,0.043-0.457,0.109-0.7,0.2c-0.242,0.091-0.428,0.171-0.556,0.24l-0.2,0.104v2.936H132.133z"/>
		<path fill="#4D4D4D" d="M136.284,125.115h0.64l0.937,3.48h0.296l0.968-3.48h0.616l-1.128,4h-1.2L136.284,125.115z"/>
		<path fill="#4D4D4D" d="M143.156,128.619l0.232-0.023l0.016,0.472c-0.608,0.085-1.128,0.128-1.56,0.128
			c-0.576,0-0.984-0.167-1.225-0.5s-0.359-0.853-0.359-1.556c0-1.403,0.557-2.104,1.672-2.104c0.538,0,0.941,0.15,1.208,0.452
			s0.399,0.774,0.399,1.42l-0.031,0.456h-2.641c0,0.442,0.08,0.771,0.24,0.984c0.16,0.213,0.438,0.319,0.836,0.319
			S142.745,128.651,143.156,128.619z M142.94,126.883c0-0.49-0.079-0.837-0.236-1.04c-0.157-0.202-0.413-0.304-0.768-0.304
			s-0.621,0.106-0.8,0.32c-0.179,0.213-0.271,0.555-0.276,1.023H142.94z"/>
		<path fill="#4D4D4D" d="M144.477,129.115v-4h0.592v0.544c0.464-0.32,0.952-0.53,1.464-0.632v0.607
			c-0.224,0.043-0.457,0.109-0.7,0.2c-0.242,0.091-0.428,0.171-0.556,0.24l-0.2,0.104v2.936H144.477z"/>
		<path fill="#4D4D4D" d="M148.5,125.571c-0.581,0-0.872,0.203-0.872,0.608c0,0.187,0.066,0.318,0.2,0.396
			c0.133,0.077,0.438,0.157,0.912,0.24s0.811,0.198,1.008,0.348s0.296,0.43,0.296,0.84c0,0.411-0.132,0.712-0.396,0.904
			c-0.265,0.192-0.649,0.288-1.156,0.288c-0.331,0-0.721-0.037-1.168-0.112l-0.24-0.04l0.032-0.52
			c0.607,0.091,1.066,0.136,1.376,0.136c0.309,0,0.545-0.049,0.708-0.147c0.162-0.099,0.244-0.265,0.244-0.496
			c0-0.232-0.069-0.39-0.208-0.473c-0.139-0.082-0.443-0.161-0.912-0.235c-0.47-0.075-0.803-0.185-1-0.328
			c-0.197-0.145-0.296-0.411-0.296-0.8c0-0.39,0.137-0.678,0.412-0.864c0.274-0.187,0.617-0.28,1.027-0.28
			c0.325,0,0.733,0.037,1.225,0.112l0.224,0.04l-0.016,0.512C149.308,125.614,148.841,125.571,148.5,125.571z"/>
		<path fill="#4D4D4D" d="M153.684,128.619l0.232-0.023l0.016,0.472c-0.608,0.085-1.128,0.128-1.56,0.128
			c-0.576,0-0.984-0.167-1.225-0.5s-0.359-0.853-0.359-1.556c0-1.403,0.557-2.104,1.672-2.104c0.538,0,0.941,0.15,1.208,0.452
			s0.399,0.774,0.399,1.42l-0.031,0.456h-2.641c0,0.442,0.08,0.771,0.24,0.984c0.16,0.213,0.438,0.319,0.836,0.319
			S153.272,128.651,153.684,128.619z M153.468,126.883c0-0.49-0.079-0.837-0.236-1.04c-0.157-0.202-0.413-0.304-0.768-0.304
			s-0.621,0.106-0.8,0.32c-0.179,0.213-0.271,0.555-0.276,1.023H153.468z"/>
		<path fill="#4D4D4D" d="M155.604,129.115h-0.6v-4h0.592v0.28c0.432-0.24,0.846-0.36,1.24-0.36c0.533,0,0.892,0.145,1.076,0.432
			c0.184,0.288,0.275,0.801,0.275,1.536v2.112h-0.592v-2.096c0-0.555-0.055-0.935-0.164-1.141c-0.109-0.205-0.343-0.308-0.7-0.308
			c-0.171,0-0.351,0.025-0.54,0.076s-0.334,0.1-0.436,0.147l-0.152,0.072V129.115z"/>
		<path fill="#4D4D4D" d="M162.372,123.371v5.744h-0.593v-0.272c-0.41,0.235-0.815,0.353-1.216,0.353
			c-0.213,0-0.399-0.026-0.56-0.08s-0.31-0.149-0.448-0.288c-0.288-0.288-0.432-0.82-0.432-1.596c0-0.776,0.129-1.336,0.388-1.681
			c0.259-0.344,0.687-0.516,1.284-0.516c0.309,0,0.637,0.035,0.983,0.104v-1.769H162.372z M160.292,128.604
			c0.096,0.037,0.22,0.056,0.372,0.056c0.151,0,0.322-0.025,0.512-0.076s0.337-0.1,0.444-0.147l0.159-0.072v-2.712
			c-0.341-0.064-0.658-0.096-0.952-0.096c-0.405,0-0.688,0.129-0.848,0.388s-0.24,0.66-0.24,1.204c0,0.618,0.094,1.034,0.28,1.248
			C160.104,128.497,160.195,128.566,160.292,128.604z"/>
		<path fill="#4D4D4D" d="M166.252,128.619l0.232-0.023l0.016,0.472c-0.608,0.085-1.128,0.128-1.56,0.128
			c-0.576,0-0.984-0.167-1.225-0.5s-0.359-0.853-0.359-1.556c0-1.403,0.557-2.104,1.672-2.104c0.538,0,0.941,0.15,1.208,0.452
			s0.399,0.774,0.399,1.42l-0.031,0.456h-2.641c0,0.442,0.08,0.771,0.24,0.984c0.16,0.213,0.438,0.319,0.836,0.319
			S165.841,128.651,166.252,128.619z M166.036,126.883c0-0.49-0.079-0.837-0.236-1.04c-0.157-0.202-0.413-0.304-0.768-0.304
			s-0.621,0.106-0.8,0.32c-0.179,0.213-0.271,0.555-0.276,1.023H166.036z"/>
		<path fill="#4D4D4D" d="M169.62,125.635h-1.272v1.912c0,0.459,0.033,0.761,0.1,0.904c0.067,0.145,0.226,0.216,0.477,0.216
			l0.712-0.048l0.04,0.496c-0.357,0.059-0.63,0.088-0.816,0.088c-0.416,0-0.704-0.102-0.863-0.304c-0.16-0.203-0.24-0.59-0.24-1.16
			v-2.104h-0.568v-0.52h0.568v-1.224h0.592v1.224h1.272V125.635z"/>
	</g>
</g>
<g>
	<path fill="#4D4D4D" d="M19.913,10.164c-1.988,0-3.228,1.018-3.72,3.054h4.767v0.978h-4.898l-0.019,0.432v0.485l0.019,0.341h4.328
		v0.978h-4.178c0.23,0.909,0.662,1.613,1.295,2.111c0.633,0.498,1.479,0.747,2.538,0.747c0.972,0,1.935-0.167,2.888-0.5v1.137
		c-0.91,0.329-1.898,0.493-2.963,0.493c-1.477,0-2.665-0.34-3.566-1.019c-0.901-0.68-1.494-1.668-1.781-2.967h-1.552v-0.978h1.421
		l-0.019-0.318v-0.334l0.019-0.606h-1.421v-0.978h1.533c0.243-1.319,0.819-2.347,1.729-3.085c0.91-0.737,2.103-1.106,3.58-1.106
		c1.253,0,2.393,0.245,3.421,0.735l-0.664,1.054C21.636,10.382,20.717,10.164,19.913,10.164z"/>
</g>
<rect x="1.5" y="1.921" fill="none" stroke="#4D4D4D" stroke-width="1.5" stroke-miterlimit="10" width="35.405" height="25.57"/>
<path fill="none" stroke="#4D4D4D" stroke-width="1.5" stroke-miterlimit="10" d="M14.892,27.622l-4.295,4.295h17.211l-4.376-4.376
	C23.432,27.54,14.794,27.524,14.892,27.622z"/>
<rect x="5.508" y="5.399" fill="none" stroke="#4D4D4D" stroke-width="1.5" stroke-miterlimit="10" width="27.39" height="18.614"/>
<path fill="#4D4D4D" d="M9.317,95.437c-0.905,0.284-1.718,0.586-2.557,0.785c-0.531,0.126-0.648,0.418-0.658,0.889
	c-0.023,1.107,0.035,2.207,0.215,3.3c1.406,8.517,7.98,13.821,17.11,12.318c6.439-1.059,10.6-4.979,12.864-11.002
	c0.585-1.556,0.923-3.177,0.977-4.882c-2.46-0.609-4.861-1.203-7.295-1.806c-0.088,0.815-0.147,1.561-0.255,2.301
	c-0.112,0.766-0.247,1.529-0.417,2.284c-0.156,0.696-0.281,1.409-0.657,2.213c-0.304-4.74-3.372-7.949-8.023-8.428
	c-2.811-0.289-5.298,0.567-7.323,2.573c-2.038,2.02-2.712,4.543-2.503,7.367c-0.451-0.599-0.698-1.232-0.918-1.874
	C9.214,99.534,9.121,97.53,9.317,95.437z M12.187,117.753c0.043,0.064,0.085,0.128,0.128,0.192c0.839,0,1.688-0.078,2.516,0.019
	c1.09,0.128,1.835-0.275,2.55-1.072c0.945-1.053,2.024-1.987,3.045-2.972c-0.042-0.062-0.084-0.123-0.125-0.185
	c-1.234,0-2.467-0.004-3.701,0.005c-0.13,0.001-0.296,0.041-0.384,0.126C14.866,115.156,13.528,116.456,12.187,117.753z
	 M6.612,117.74c3.798,0.5,3.798,0.5,6.318-2.028c0.397-0.399,0.794-0.798,1.19-1.198c0.218-0.22,0.433-0.442,0.763-0.778
	c-1.406,0-2.62,0.004-3.833-0.003c-0.23-0.001-0.392,0.087-0.553,0.244C9.206,115.235,7.908,116.486,6.612,117.74z M29.579,117.944
	c0.047-0.068,0.094-0.136,0.141-0.204c-1.327-1.282-2.652-2.565-3.983-3.842c-0.079-0.076-0.201-0.151-0.304-0.152
	c-1.278-0.01-2.557-0.007-3.835-0.007c-0.035,0.067-0.07,0.133-0.105,0.2c1.312,1.274,2.625,2.546,3.933,3.824
	c0.128,0.125,0.261,0.183,0.436,0.183C27.101,117.943,28.34,117.944,29.579,117.944z M27.234,113.736
	c-0.053,0.081-0.107,0.163-0.16,0.244c1.302,1.249,2.605,2.499,3.906,3.749c0.121,0.116,0.239,0.217,0.423,0.216
	c1.263-0.004,2.526-0.002,3.789-0.002c0.034-0.056,0.067-0.112,0.101-0.168c-1.323-1.293-2.646-2.585-3.968-3.879
	c-0.107-0.105-0.227-0.161-0.375-0.161C29.711,113.736,28.473,113.736,27.234,113.736z"/>
<path fill="#4D4D4D" d="M9.317,95.437c-0.197,2.094-0.103,4.098,0.561,6.039c0.219,0.642,0.466,1.275,0.918,1.874
	c-0.209-2.824,0.465-5.348,2.503-7.367c2.025-2.007,4.512-2.863,7.323-2.573c4.652,0.479,7.719,3.688,8.023,8.428
	c0.375-0.805,0.5-1.518,0.657-2.213c0.17-0.755,0.305-1.519,0.417-2.284c0.108-0.74,0.167-1.487,0.255-2.301
	c2.434,0.602,4.836,1.197,7.295,1.806c-0.054,1.705-0.392,3.326-0.977,4.882c-2.264,6.023-6.425,9.943-12.864,11.002
	c-9.13,1.502-15.705-3.801-17.11-12.318c-0.18-1.092-0.237-2.192-0.215-3.3c0.01-0.471,0.127-0.763,0.658-0.889
	C7.599,96.022,8.413,95.72,9.317,95.437z M19.719,108.058c3.252-0.001,5.895-2.624,5.893-5.85c-0.002-3.217-2.663-5.865-5.895-5.867
	c-3.226-0.002-5.893,2.654-5.892,5.869C13.827,105.438,16.468,108.059,19.719,108.058z"/>
<path fill="#4D4D4D" d="M12.187,117.753c1.341-1.298,2.679-2.598,4.028-3.887c0.089-0.085,0.254-0.125,0.384-0.126
	c1.234-0.009,2.467-0.005,3.701-0.005c0.042,0.062,0.084,0.123,0.125,0.185c-1.021,0.985-2.1,1.919-3.045,2.972
	c-0.715,0.797-1.46,1.2-2.55,1.072c-0.828-0.097-1.676-0.019-2.516-0.019C12.272,117.881,12.229,117.817,12.187,117.753z"/>
<path fill="#4D4D4D" d="M6.612,117.74c1.296-1.254,2.594-2.505,3.884-3.764c0.161-0.157,0.322-0.246,0.553-0.244
	c1.214,0.007,2.427,0.003,3.833,0.003c-0.33,0.337-0.545,0.559-0.763,0.778c-0.396,0.4-0.792,0.799-1.19,1.198
	C10.41,118.24,10.41,118.24,6.612,117.74z"/>
<path fill="#4D4D4D" d="M29.579,117.944c-1.239,0-2.479-0.001-3.718,0.001c-0.175,0-0.308-0.058-0.436-0.183
	c-1.308-1.278-2.621-2.55-3.933-3.824c0.035-0.067,0.07-0.133,0.105-0.2c1.278,0,2.557-0.004,3.835,0.007
	c0.103,0.001,0.225,0.076,0.304,0.152c1.331,1.277,2.656,2.561,3.983,3.842C29.673,117.809,29.626,117.876,29.579,117.944z"/>
<path fill="#4D4D4D" d="M27.234,113.736c1.239,0,2.477,0,3.716,0c0.148,0,0.268,0.056,0.375,0.161
	c1.321,1.294,2.645,2.587,3.968,3.879c-0.034,0.056-0.067,0.112-0.101,0.168c-1.263,0-2.526-0.002-3.789,0.002
	c-0.185,0.001-0.302-0.1-0.423-0.216c-1.301-1.251-2.604-2.5-3.906-3.749C27.127,113.898,27.181,113.817,27.234,113.736z"/>
<path fill="#FFFFFF" d="M19.719,108.058c-3.251,0.001-5.892-2.62-5.894-5.849c-0.001-3.214,2.666-5.871,5.892-5.869
	c3.232,0.002,5.893,2.651,5.895,5.867C25.615,105.434,22.972,108.057,19.719,108.058z"/>
<g>
	<line fill="none" stroke="#4D4D4D" stroke-miterlimit="10" x1="84.544" y1="8.373" x2="71.502" y2="8.373"/>
	<polygon fill="#4D4D4D" points="90.415,8.498 81.264,3.215 81.264,13.781 	"/>
</g>
<g>
	<line fill="none" stroke="#4D4D4D" stroke-miterlimit="10" x1="84.544" y1="40.373" x2="71.502" y2="40.373"/>
	<polygon fill="#4D4D4D" points="90.415,40.498 81.264,35.215 81.264,45.781 	"/>
</g>
<g>
	<line fill="none" stroke="#4D4D4D" stroke-miterlimit="10" x1="84.544" y1="120.875" x2="71.502" y2="120.875"/>
	<polygon fill="#4D4D4D" points="90.415,121 81.264,115.717 81.264,126.283 	"/>
</g>
<g>
	<line fill="none" stroke="#00B8FA" stroke-miterlimit="10" x1="19.083" y1="79.585" x2="19.083" y2="66.544"/>
	<polygon fill="#00B8FA" points="18.958,85.456 24.241,76.306 13.675,76.306 	"/>
</g>
<g>
	<line fill="none" stroke="#00B8FA" stroke-miterlimit="10" x1="19.083" y1="157.919" x2="19.083" y2="144.877"/>
	<polygon fill="#00B8FA" points="18.958,163.79 24.241,154.639 13.675,154.639 	"/>
</g>
</svg>
