<?xml version="1.0" encoding="utf-8"?>
<!-- Generator: Adobe Illustrator 21.1.0, SVG Export Plug-In . SVG Version: 6.00 Build 0)  -->
<svg version="1.1" id="Ebene_1" xmlns="http://www.w3.org/2000/svg" xmlns:xlink="http://www.w3.org/1999/xlink" x="0px" y="0px"
	 viewBox="0 0 200 200" enable-background="new 0 0 200 200" xml:space="preserve">
<rect x="0.333" y="0.333" fill="#FFFFFF" width="200" height="200.667"/>
<g>
	<g>
		<path fill="#4D4D4D" d="M62.744,107.558l1.52-5.536h1.344l1.521,5.536H66.52l-0.399-1.424h-2.368l-0.4,1.424H62.744z
			 M64.728,102.55l-0.84,3.032h2.096l-0.84-3.032H64.728z"/>
		<path fill="#4D4D4D" d="M70.392,103.558h0.6v4h-0.6v-0.28c-0.4,0.24-0.795,0.36-1.185,0.36c-0.544,0-0.905-0.142-1.084-0.424
			c-0.179-0.283-0.268-0.806-0.268-1.568v-2.088h0.6v2.08c0,0.581,0.051,0.971,0.152,1.168s0.33,0.296,0.688,0.296
			c0.177,0,0.355-0.025,0.536-0.076c0.182-0.051,0.32-0.1,0.416-0.147l0.145-0.072V103.558z"/>
		<path fill="#4D4D4D" d="M73.399,104.014c-0.581,0-0.872,0.203-0.872,0.608c0,0.187,0.066,0.318,0.2,0.396
			c0.133,0.077,0.438,0.157,0.912,0.24s0.811,0.198,1.008,0.348s0.296,0.43,0.296,0.84c0,0.411-0.132,0.712-0.396,0.904
			c-0.265,0.192-0.649,0.288-1.156,0.288c-0.331,0-0.721-0.037-1.168-0.112l-0.24-0.04l0.032-0.52
			c0.607,0.091,1.066,0.136,1.376,0.136c0.309,0,0.545-0.049,0.708-0.147c0.162-0.099,0.244-0.265,0.244-0.496
			c0-0.232-0.069-0.39-0.208-0.473c-0.139-0.082-0.443-0.161-0.912-0.235c-0.47-0.075-0.803-0.185-1-0.328
			c-0.197-0.145-0.296-0.411-0.296-0.8c0-0.39,0.137-0.678,0.412-0.864c0.274-0.187,0.617-0.28,1.027-0.28
			c0.325,0,0.733,0.037,1.225,0.112l0.224,0.04l-0.016,0.512C74.207,104.057,73.74,104.014,73.399,104.014z"/>
		<path fill="#4D4D4D" d="M75.504,103.558h0.6l0.809,3.48h0.128l0.952-3.4h0.624l0.951,3.4h0.137l0.8-3.48h0.6l-0.951,4h-1
			l-0.849-3.128l-0.848,3.128h-1L75.504,103.558z"/>
		<path fill="#4D4D4D" d="M84.712,104.766v2.048c0.016,0.197,0.17,0.314,0.464,0.353l-0.024,0.472c-0.421,0-0.738-0.106-0.952-0.32
			c-0.479,0.214-0.96,0.32-1.439,0.32c-0.368,0-0.648-0.104-0.84-0.312c-0.192-0.208-0.288-0.506-0.288-0.896
			s0.099-0.676,0.296-0.86c0.197-0.184,0.507-0.297,0.928-0.34l1.256-0.12v-0.344c0-0.272-0.059-0.467-0.176-0.584
			s-0.277-0.176-0.48-0.176c-0.427,0-0.869,0.026-1.327,0.08l-0.248,0.023l-0.024-0.456c0.587-0.117,1.106-0.176,1.56-0.176
			c0.454,0,0.783,0.104,0.988,0.312S84.712,104.323,84.712,104.766z M82.247,106.397c0,0.491,0.203,0.736,0.608,0.736
			c0.362,0,0.72-0.062,1.072-0.185l0.184-0.063v-1.32l-1.184,0.112c-0.24,0.021-0.414,0.091-0.521,0.208
			S82.247,106.174,82.247,106.397z"/>
		<path fill="#4D4D4D" d="M86.495,107.558h-0.6v-5.744h0.6v1.968c0.427-0.202,0.838-0.304,1.232-0.304
			c0.533,0,0.892,0.145,1.076,0.432c0.184,0.288,0.275,0.801,0.275,1.536v2.112h-0.6v-2.096c0-0.555-0.055-0.935-0.164-1.141
			c-0.109-0.205-0.34-0.308-0.692-0.308c-0.336,0-0.661,0.062-0.976,0.184l-0.152,0.057V107.558z"/>
		<path fill="#4D4D4D" d="M90.239,107.558v-5.744h0.6v5.744H90.239z"/>
		<path fill="#4D4D4D" d="M96.872,101.813v5.744h-0.593v-0.272c-0.41,0.235-0.815,0.353-1.216,0.353c-0.213,0-0.399-0.026-0.56-0.08
			s-0.31-0.149-0.448-0.288c-0.288-0.288-0.432-0.82-0.432-1.596c0-0.776,0.129-1.336,0.388-1.681
			c0.259-0.344,0.687-0.516,1.284-0.516c0.309,0,0.637,0.035,0.983,0.104v-1.769H96.872z M94.792,107.046
			c0.096,0.037,0.22,0.056,0.372,0.056c0.151,0,0.322-0.025,0.512-0.076s0.337-0.1,0.444-0.147l0.159-0.072v-2.712
			c-0.341-0.064-0.658-0.096-0.952-0.096c-0.405,0-0.688,0.129-0.848,0.388s-0.24,0.66-0.24,1.204c0,0.618,0.094,1.034,0.28,1.248
			C94.604,106.939,94.695,107.009,94.792,107.046z"/>
		<path fill="#4D4D4D" d="M100.751,107.062l0.232-0.023l0.016,0.472c-0.608,0.085-1.128,0.128-1.56,0.128
			c-0.576,0-0.984-0.167-1.225-0.5s-0.359-0.853-0.359-1.556c0-1.403,0.557-2.104,1.672-2.104c0.538,0,0.941,0.15,1.208,0.452
			s0.399,0.774,0.399,1.42l-0.031,0.456h-2.641c0,0.442,0.08,0.771,0.24,0.984c0.16,0.213,0.438,0.319,0.836,0.319
			S100.34,107.094,100.751,107.062z M100.535,105.325c0-0.49-0.079-0.837-0.236-1.04c-0.157-0.202-0.413-0.304-0.768-0.304
			s-0.621,0.106-0.8,0.32c-0.179,0.213-0.271,0.555-0.276,1.023H100.535z"/>
		<path fill="#4D4D4D" d="M103.327,104.014c-0.581,0-0.872,0.203-0.872,0.608c0,0.187,0.066,0.318,0.2,0.396
			c0.133,0.077,0.438,0.157,0.912,0.24s0.811,0.198,1.008,0.348s0.296,0.43,0.296,0.84c0,0.411-0.132,0.712-0.396,0.904
			c-0.265,0.192-0.649,0.288-1.156,0.288c-0.331,0-0.721-0.037-1.168-0.112l-0.24-0.04l0.032-0.52
			c0.607,0.091,1.066,0.136,1.376,0.136c0.309,0,0.545-0.049,0.708-0.147c0.162-0.099,0.244-0.265,0.244-0.496
			c0-0.232-0.069-0.39-0.208-0.473c-0.139-0.082-0.443-0.161-0.912-0.235c-0.47-0.075-0.803-0.185-1-0.328
			c-0.197-0.145-0.296-0.411-0.296-0.8c0-0.39,0.137-0.678,0.412-0.864c0.274-0.187,0.617-0.28,1.027-0.28
			c0.325,0,0.733,0.037,1.225,0.112l0.224,0.04l-0.016,0.512C104.135,104.057,103.668,104.014,103.327,104.014z"/>
		<path fill="#4D4D4D" d="M64.672,119.037c-0.64,0-1.087-0.087-1.34-0.26c-0.254-0.174-0.38-0.489-0.38-0.948
			c0-0.219,0.048-0.396,0.144-0.532c0.096-0.136,0.259-0.289,0.488-0.46c-0.149-0.101-0.225-0.285-0.225-0.552
			c0-0.091,0.067-0.259,0.2-0.504l0.072-0.128C63.21,115.461,63,115.059,63,114.445c0-0.912,0.498-1.368,1.496-1.368
			c0.256,0,0.493,0.026,0.712,0.08l0.12,0.024l1.184-0.032v0.512l-0.76-0.016c0.176,0.176,0.264,0.442,0.264,0.8
			c0,0.501-0.124,0.852-0.372,1.052s-0.639,0.3-1.172,0.3c-0.144,0-0.274-0.011-0.392-0.031c-0.097,0.234-0.145,0.387-0.145,0.456
			c0,0.165,0.051,0.268,0.152,0.308s0.408,0.06,0.92,0.06s0.88,0.08,1.104,0.24c0.225,0.16,0.337,0.472,0.337,0.937
			C66.448,118.613,65.855,119.037,64.672,119.037z M63.544,117.781c0,0.282,0.078,0.479,0.235,0.588s0.448,0.164,0.872,0.164
			c0.425,0,0.729-0.059,0.912-0.176c0.185-0.117,0.276-0.313,0.276-0.588c0-0.275-0.066-0.452-0.2-0.532
			c-0.133-0.08-0.395-0.12-0.784-0.12l-0.863-0.04c-0.177,0.128-0.295,0.24-0.356,0.336S63.544,117.632,63.544,117.781z
			 M63.6,114.445c0,0.314,0.07,0.539,0.212,0.672c0.142,0.134,0.375,0.2,0.7,0.2s0.558-0.066,0.696-0.2
			c0.139-0.133,0.208-0.358,0.208-0.676s-0.069-0.543-0.208-0.676c-0.139-0.134-0.371-0.2-0.696-0.2s-0.559,0.067-0.7,0.204
			C63.67,113.905,63.6,114.131,63.6,114.445z"/>
		<path fill="#4D4D4D" d="M69.96,116.661l0.232-0.023l0.016,0.472c-0.608,0.085-1.128,0.128-1.56,0.128
			c-0.576,0-0.984-0.167-1.225-0.5s-0.359-0.853-0.359-1.556c0-1.403,0.557-2.104,1.672-2.104c0.538,0,0.941,0.15,1.208,0.452
			s0.399,0.774,0.399,1.42l-0.031,0.456h-2.641c0,0.442,0.08,0.771,0.24,0.984c0.16,0.213,0.438,0.319,0.836,0.319
			S69.549,116.693,69.96,116.661z M69.744,114.925c0-0.49-0.079-0.837-0.236-1.04c-0.157-0.202-0.413-0.304-0.768-0.304
			s-0.621,0.106-0.8,0.32c-0.179,0.213-0.271,0.555-0.276,1.023H69.744z"/>
		<path fill="#4D4D4D" d="M74,116.661l0.232-0.023l0.016,0.472c-0.608,0.085-1.128,0.128-1.56,0.128c-0.576,0-0.984-0.167-1.225-0.5
			s-0.359-0.853-0.359-1.556c0-1.403,0.557-2.104,1.672-2.104c0.538,0,0.941,0.15,1.208,0.452s0.399,0.774,0.399,1.42l-0.031,0.456
			h-2.641c0,0.442,0.08,0.771,0.24,0.984c0.16,0.213,0.438,0.319,0.836,0.319S73.589,116.693,74,116.661z M73.784,114.925
			c0-0.49-0.079-0.837-0.236-1.04c-0.157-0.202-0.413-0.304-0.768-0.304s-0.621,0.106-0.8,0.32
			c-0.179,0.213-0.271,0.555-0.276,1.023H73.784z"/>
		<path fill="#4D4D4D" d="M75.319,112.253v-0.695h0.6v0.695H75.319z M75.319,117.157v-4h0.6v4H75.319z"/>
		<path fill="#4D4D4D" d="M78.615,119.037c-0.64,0-1.087-0.087-1.34-0.26c-0.254-0.174-0.38-0.489-0.38-0.948
			c0-0.219,0.048-0.396,0.144-0.532c0.096-0.136,0.259-0.289,0.488-0.46c-0.149-0.101-0.225-0.285-0.225-0.552
			c0-0.091,0.067-0.259,0.2-0.504l0.072-0.128c-0.422-0.192-0.632-0.595-0.632-1.208c0-0.912,0.498-1.368,1.496-1.368
			c0.256,0,0.493,0.026,0.712,0.08l0.12,0.024l1.184-0.032v0.512l-0.76-0.016c0.176,0.176,0.264,0.442,0.264,0.8
			c0,0.501-0.124,0.852-0.372,1.052s-0.639,0.3-1.172,0.3c-0.144,0-0.274-0.011-0.392-0.031c-0.097,0.234-0.145,0.387-0.145,0.456
			c0,0.165,0.051,0.268,0.152,0.308s0.408,0.06,0.92,0.06s0.88,0.08,1.104,0.24c0.225,0.16,0.337,0.472,0.337,0.937
			C80.392,118.613,79.799,119.037,78.615,119.037z M77.487,117.781c0,0.282,0.078,0.479,0.235,0.588s0.448,0.164,0.872,0.164
			c0.425,0,0.729-0.059,0.912-0.176c0.185-0.117,0.276-0.313,0.276-0.588c0-0.275-0.066-0.452-0.2-0.532
			c-0.133-0.08-0.395-0.12-0.784-0.12l-0.863-0.04c-0.177,0.128-0.295,0.24-0.356,0.336S77.487,117.632,77.487,117.781z
			 M77.543,114.445c0,0.314,0.07,0.539,0.212,0.672c0.142,0.134,0.375,0.2,0.7,0.2s0.558-0.066,0.696-0.2
			c0.139-0.133,0.208-0.358,0.208-0.676s-0.069-0.543-0.208-0.676c-0.139-0.134-0.371-0.2-0.696-0.2s-0.559,0.067-0.7,0.204
			C77.613,113.905,77.543,114.131,77.543,114.445z"/>
		<path fill="#4D4D4D" d="M81.783,117.157h-0.6v-4h0.592v0.28c0.432-0.24,0.846-0.36,1.24-0.36c0.533,0,0.892,0.145,1.076,0.432
			c0.184,0.288,0.275,0.801,0.275,1.536v2.112h-0.592v-2.096c0-0.555-0.055-0.935-0.164-1.141c-0.109-0.205-0.343-0.308-0.7-0.308
			c-0.171,0-0.351,0.025-0.54,0.076s-0.334,0.1-0.436,0.147l-0.152,0.072V117.157z"/>
		<path fill="#4D4D4D" d="M88.199,116.661l0.232-0.023l0.016,0.472c-0.608,0.085-1.128,0.128-1.56,0.128
			c-0.576,0-0.984-0.167-1.225-0.5s-0.359-0.853-0.359-1.556c0-1.403,0.557-2.104,1.672-2.104c0.538,0,0.941,0.15,1.208,0.452
			s0.399,0.774,0.399,1.42l-0.031,0.456h-2.641c0,0.442,0.08,0.771,0.24,0.984c0.16,0.213,0.438,0.319,0.836,0.319
			S87.788,116.693,88.199,116.661z M87.983,114.925c0-0.49-0.079-0.837-0.236-1.04c-0.157-0.202-0.413-0.304-0.768-0.304
			s-0.621,0.106-0.8,0.32c-0.179,0.213-0.271,0.555-0.276,1.023H87.983z"/>
		<path fill="#4D4D4D" d="M91.567,113.677h-1.272v1.912c0,0.459,0.033,0.761,0.1,0.904c0.067,0.145,0.226,0.216,0.477,0.216
			l0.712-0.048l0.04,0.496c-0.357,0.059-0.63,0.088-0.816,0.088c-0.416,0-0.704-0.102-0.863-0.304c-0.16-0.203-0.24-0.59-0.24-1.16
			v-2.104h-0.568v-0.52h0.568v-1.224h0.592v1.224h1.272V113.677z"/>
		<path fill="#4D4D4D" d="M95.023,116.661l0.232-0.023l0.016,0.472c-0.608,0.085-1.128,0.128-1.56,0.128
			c-0.576,0-0.984-0.167-1.225-0.5s-0.359-0.853-0.359-1.556c0-1.403,0.557-2.104,1.672-2.104c0.538,0,0.941,0.15,1.208,0.452
			s0.399,0.774,0.399,1.42l-0.031,0.456h-2.641c0,0.442,0.08,0.771,0.24,0.984c0.16,0.213,0.438,0.319,0.836,0.319
			S94.612,116.693,95.023,116.661z M94.808,114.925c0-0.49-0.079-0.837-0.236-1.04c-0.157-0.202-0.413-0.304-0.768-0.304
			s-0.621,0.106-0.8,0.32c-0.179,0.213-0.271,0.555-0.276,1.023H94.808z"/>
		<path fill="#4D4D4D" d="M96.943,117.157h-0.6v-4h0.592v0.28c0.432-0.24,0.846-0.36,1.24-0.36c0.533,0,0.892,0.145,1.076,0.432
			c0.184,0.288,0.275,0.801,0.275,1.536v2.112h-0.592v-2.096c0-0.555-0.055-0.935-0.164-1.141c-0.109-0.205-0.343-0.308-0.7-0.308
			c-0.171,0-0.351,0.025-0.54,0.076s-0.334,0.1-0.436,0.147l-0.152,0.072V117.157z"/>
		<path fill="#4D4D4D" d="M106.655,114.43c0,0.986-0.157,1.701-0.472,2.144c-0.315,0.442-0.887,0.664-1.717,0.664
			c-0.829,0-1.401-0.227-1.716-0.68c-0.314-0.454-0.472-1.167-0.472-2.141c0-0.973,0.16-1.695,0.479-2.168
			c0.32-0.472,0.889-0.708,1.704-0.708c0.816,0,1.386,0.235,1.708,0.704C106.494,112.715,106.655,113.442,106.655,114.43z
			 M102.911,114.413c0,0.811,0.106,1.394,0.32,1.748c0.213,0.354,0.625,0.532,1.235,0.532c0.611,0,1.021-0.174,1.232-0.521
			s0.316-0.928,0.316-1.743c0-0.816-0.109-1.411-0.328-1.784s-0.628-0.561-1.229-0.561c-0.6,0-1.008,0.186-1.224,0.557
			C103.02,113.012,102.911,113.603,102.911,114.413z"/>
		<path fill="#4D4D4D" d="M108.278,117.157h-0.6v-4h0.592v0.28c0.432-0.24,0.846-0.36,1.24-0.36c0.533,0,0.892,0.145,1.076,0.432
			c0.184,0.288,0.275,0.801,0.275,1.536v2.112h-0.592v-2.096c0-0.555-0.055-0.935-0.164-1.141c-0.109-0.205-0.343-0.308-0.7-0.308
			c-0.171,0-0.351,0.025-0.54,0.076s-0.334,0.1-0.436,0.147l-0.152,0.072V117.157z"/>
		<path fill="#4D4D4D" d="M112.022,117.157v-5.744h0.6v5.744H112.022z"/>
		<path fill="#4D4D4D" d="M113.823,112.253v-0.695h0.6v0.695H113.823z M113.823,117.157v-4h0.6v4H113.823z"/>
		<path fill="#4D4D4D" d="M116.175,117.157h-0.6v-4h0.592v0.28c0.432-0.24,0.846-0.36,1.24-0.36c0.533,0,0.892,0.145,1.076,0.432
			c0.184,0.288,0.275,0.801,0.275,1.536v2.112h-0.592v-2.096c0-0.555-0.055-0.935-0.164-1.141c-0.109-0.205-0.343-0.308-0.7-0.308
			c-0.171,0-0.351,0.025-0.54,0.076s-0.334,0.1-0.436,0.147l-0.152,0.072V117.157z"/>
		<path fill="#4D4D4D" d="M122.591,116.661l0.232-0.023l0.016,0.472c-0.608,0.085-1.128,0.128-1.56,0.128
			c-0.576,0-0.984-0.167-1.225-0.5s-0.359-0.853-0.359-1.556c0-1.403,0.557-2.104,1.672-2.104c0.538,0,0.941,0.15,1.208,0.452
			s0.399,0.774,0.399,1.42l-0.031,0.456h-2.641c0,0.442,0.08,0.771,0.24,0.984c0.16,0.213,0.438,0.319,0.836,0.319
			S122.18,116.693,122.591,116.661z M122.375,114.925c0-0.49-0.079-0.837-0.236-1.04c-0.157-0.202-0.413-0.304-0.768-0.304
			s-0.621,0.106-0.8,0.32c-0.179,0.213-0.271,0.555-0.276,1.023H122.375z"/>
		<path fill="#4D4D4D" d="M125.679,113.077c0.539,0,0.916,0.153,1.132,0.46c0.217,0.307,0.324,0.844,0.324,1.612
			c0,0.768-0.135,1.308-0.403,1.62c-0.27,0.312-0.765,0.468-1.484,0.468c-0.224,0-0.595-0.021-1.112-0.064l-0.224-0.023v-5.736
			h0.592v1.944C124.908,113.171,125.3,113.077,125.679,113.077z M125.239,116.701c0.522,0,0.868-0.118,1.036-0.355
			s0.252-0.639,0.252-1.204s-0.067-0.962-0.2-1.188c-0.134-0.227-0.371-0.34-0.712-0.34c-0.31,0-0.627,0.059-0.952,0.176
			l-0.16,0.057v2.815C124.85,116.688,125.095,116.701,125.239,116.701z"/>
		<path fill="#4D4D4D" d="M128.118,117.157v-4h0.592v0.544c0.464-0.32,0.952-0.53,1.464-0.632v0.607
			c-0.224,0.043-0.457,0.109-0.7,0.2c-0.242,0.091-0.428,0.171-0.556,0.24l-0.2,0.104v2.936H128.118z"/>
		<path fill="#4D4D4D" d="M130.631,115.149c0-0.73,0.13-1.259,0.392-1.584s0.702-0.488,1.324-0.488c0.621,0,1.062,0.163,1.319,0.488
			c0.259,0.325,0.389,0.854,0.389,1.584s-0.123,1.261-0.368,1.592s-0.693,0.496-1.344,0.496c-0.651,0-1.099-0.165-1.345-0.496
			C130.753,116.41,130.631,115.88,130.631,115.149z M131.246,115.138c0,0.584,0.071,0.993,0.212,1.228
			c0.142,0.234,0.438,0.352,0.889,0.352c0.45,0,0.745-0.115,0.884-0.348c0.139-0.231,0.208-0.642,0.208-1.228
			c0-0.587-0.077-0.991-0.232-1.212c-0.154-0.222-0.441-0.332-0.859-0.332c-0.419,0-0.707,0.11-0.864,0.332
			C131.325,114.15,131.246,114.554,131.246,115.138z"/>
		<path fill="#4D4D4D" d="M135.63,117.157h-0.6v-5.744h0.6v3.393l0.624-0.032l1.145-1.616h0.68l-1.304,1.84l1.359,2.16h-0.68
			l-1.192-1.856l-0.632,0.024V117.157z"/>
		<path fill="#4D4D4D" d="M141.479,116.661l0.232-0.023l0.016,0.472c-0.608,0.085-1.128,0.128-1.56,0.128
			c-0.576,0-0.984-0.167-1.225-0.5s-0.359-0.853-0.359-1.556c0-1.403,0.557-2.104,1.672-2.104c0.538,0,0.941,0.15,1.208,0.452
			s0.399,0.774,0.399,1.42l-0.031,0.456h-2.641c0,0.442,0.08,0.771,0.24,0.984c0.16,0.213,0.438,0.319,0.836,0.319
			S141.067,116.693,141.479,116.661z M141.263,114.925c0-0.49-0.079-0.837-0.236-1.04c-0.157-0.202-0.413-0.304-0.768-0.304
			s-0.621,0.106-0.8,0.32c-0.179,0.213-0.271,0.555-0.276,1.023H141.263z"/>
		<path fill="#4D4D4D" d="M142.799,117.157v-4h0.592v0.544c0.464-0.32,0.952-0.53,1.464-0.632v0.607
			c-0.224,0.043-0.457,0.109-0.7,0.2c-0.242,0.091-0.428,0.171-0.556,0.24l-0.2,0.104v2.936H142.799z"/>
		<path fill="#4D4D4D" d="M146.822,113.613c-0.581,0-0.872,0.203-0.872,0.608c0,0.187,0.066,0.318,0.2,0.396
			c0.133,0.077,0.438,0.157,0.912,0.24s0.811,0.198,1.008,0.348s0.296,0.43,0.296,0.84c0,0.411-0.132,0.712-0.396,0.904
			c-0.265,0.192-0.649,0.288-1.156,0.288c-0.331,0-0.721-0.037-1.168-0.112l-0.24-0.04l0.032-0.52
			c0.607,0.091,1.066,0.136,1.376,0.136c0.309,0,0.545-0.049,0.708-0.147c0.162-0.099,0.244-0.265,0.244-0.496
			c0-0.232-0.069-0.39-0.208-0.473c-0.139-0.082-0.443-0.161-0.912-0.235c-0.47-0.075-0.803-0.185-1-0.328
			c-0.197-0.145-0.296-0.411-0.296-0.8c0-0.39,0.137-0.678,0.412-0.864c0.274-0.187,0.617-0.28,1.027-0.28
			c0.325,0,0.733,0.037,1.225,0.112l0.224,0.04l-0.016,0.512C147.63,113.656,147.163,113.613,146.822,113.613z"/>
	</g>
</g>
<g>
	<g>
		<path fill="#4D4D4D" d="M67.384,162.83c0,0.986-0.157,1.701-0.472,2.144c-0.315,0.442-0.887,0.664-1.717,0.664
			c-0.829,0-1.401-0.227-1.716-0.68c-0.314-0.454-0.472-1.167-0.472-2.141c0-0.973,0.16-1.695,0.479-2.168
			c0.32-0.472,0.889-0.708,1.704-0.708c0.816,0,1.386,0.235,1.708,0.704C67.223,161.115,67.384,161.843,67.384,162.83z
			 M63.64,162.813c0,0.811,0.106,1.394,0.32,1.748c0.213,0.354,0.625,0.532,1.235,0.532c0.611,0,1.021-0.174,1.232-0.521
			s0.316-0.928,0.316-1.743c0-0.816-0.109-1.411-0.328-1.784s-0.628-0.561-1.229-0.561c-0.6,0-1.008,0.186-1.224,0.557
			C63.748,161.412,63.64,162.003,63.64,162.813z"/>
		<path fill="#4D4D4D" d="M69.008,165.558h-0.6v-4H69v0.28c0.432-0.24,0.846-0.36,1.24-0.36c0.533,0,0.892,0.145,1.076,0.432
			c0.184,0.288,0.275,0.801,0.275,1.536v2.112H71v-2.096c0-0.555-0.055-0.935-0.164-1.141c-0.109-0.205-0.343-0.308-0.7-0.308
			c-0.171,0-0.351,0.025-0.54,0.076s-0.334,0.1-0.436,0.147l-0.152,0.072V165.558z"/>
		<path fill="#4D4D4D" d="M72.752,165.558v-5.744h0.6v5.744H72.752z"/>
		<path fill="#4D4D4D" d="M74.552,160.653v-0.695h0.6v0.695H74.552z M74.552,165.558v-4h0.6v4H74.552z"/>
		<path fill="#4D4D4D" d="M76.903,165.558h-0.6v-4h0.592v0.28c0.432-0.24,0.846-0.36,1.24-0.36c0.533,0,0.892,0.145,1.076,0.432
			c0.184,0.288,0.275,0.801,0.275,1.536v2.112h-0.592v-2.096c0-0.555-0.055-0.935-0.164-1.141c-0.109-0.205-0.343-0.308-0.7-0.308
			c-0.171,0-0.351,0.025-0.54,0.076s-0.334,0.1-0.436,0.147l-0.152,0.072V165.558z"/>
		<path fill="#4D4D4D" d="M83.319,165.062l0.232-0.023l0.016,0.472c-0.608,0.085-1.128,0.128-1.56,0.128
			c-0.576,0-0.984-0.167-1.225-0.5s-0.359-0.853-0.359-1.556c0-1.403,0.557-2.104,1.672-2.104c0.538,0,0.941,0.15,1.208,0.452
			s0.399,0.774,0.399,1.42l-0.031,0.456h-2.641c0,0.442,0.08,0.771,0.24,0.984c0.16,0.213,0.438,0.319,0.836,0.319
			S82.908,165.094,83.319,165.062z M83.104,163.325c0-0.49-0.079-0.837-0.236-1.04c-0.157-0.202-0.413-0.304-0.768-0.304
			s-0.621,0.106-0.8,0.32c-0.179,0.213-0.271,0.555-0.276,1.023H83.104z"/>
		<path fill="#4D4D4D" d="M84.607,163.638v-0.561h2.424v0.561H84.607z"/>
		<path fill="#4D4D4D" d="M88.247,160.021h2.009c0.549,0,0.961,0.113,1.235,0.34s0.412,0.583,0.412,1.068
			c0,0.347-0.06,0.617-0.18,0.812c-0.12,0.195-0.298,0.349-0.532,0.46c0.587,0.203,0.88,0.638,0.88,1.305
			c0,0.555-0.146,0.952-0.439,1.191c-0.294,0.24-0.718,0.36-1.272,0.36h-2.112V160.021z M90.231,160.565h-1.368v1.912h1.424
			c0.342,0,0.591-0.081,0.748-0.244c0.157-0.162,0.236-0.408,0.236-0.735c0-0.328-0.084-0.565-0.252-0.713
			C90.852,160.639,90.589,160.565,90.231,160.565z M90.295,163.014h-1.432v2h1.472c0.363,0,0.639-0.076,0.828-0.229
			c0.189-0.151,0.284-0.42,0.284-0.804c0-0.202-0.039-0.373-0.116-0.512s-0.18-0.237-0.308-0.296
			C90.789,163.067,90.546,163.014,90.295,163.014z"/>
		<path fill="#4D4D4D" d="M93.071,165.558v-4h0.592v0.544c0.464-0.32,0.952-0.53,1.464-0.632v0.607
			c-0.224,0.043-0.457,0.109-0.7,0.2c-0.242,0.091-0.428,0.171-0.556,0.24l-0.2,0.104v2.936H93.071z"/>
		<path fill="#4D4D4D" d="M95.583,163.55c0-0.73,0.13-1.259,0.392-1.584s0.702-0.488,1.324-0.488c0.621,0,1.062,0.163,1.319,0.488
			c0.259,0.325,0.389,0.854,0.389,1.584s-0.123,1.261-0.368,1.592s-0.693,0.496-1.344,0.496c-0.651,0-1.099-0.165-1.345-0.496
			C95.705,164.811,95.583,164.28,95.583,163.55z M96.198,163.538c0,0.584,0.071,0.993,0.212,1.228
			c0.142,0.234,0.438,0.352,0.889,0.352c0.45,0,0.745-0.115,0.884-0.348c0.139-0.231,0.208-0.642,0.208-1.228
			c0-0.587-0.077-0.991-0.232-1.212c-0.154-0.222-0.441-0.332-0.859-0.332c-0.419,0-0.707,0.11-0.864,0.332
			C96.277,162.551,96.198,162.954,96.198,163.538z"/>
		<path fill="#4D4D4D" d="M100.583,165.558h-0.6v-5.744h0.6v3.393l0.624-0.032l1.145-1.616h0.68l-1.304,1.84l1.359,2.16h-0.68
			l-1.192-1.856l-0.632,0.024V165.558z"/>
		<path fill="#4D4D4D" d="M106.431,165.062l0.232-0.023l0.016,0.472c-0.608,0.085-1.128,0.128-1.56,0.128
			c-0.576,0-0.984-0.167-1.225-0.5s-0.359-0.853-0.359-1.556c0-1.403,0.557-2.104,1.672-2.104c0.538,0,0.941,0.15,1.208,0.452
			s0.399,0.774,0.399,1.42l-0.031,0.456h-2.641c0,0.442,0.08,0.771,0.24,0.984c0.16,0.213,0.438,0.319,0.836,0.319
			S106.02,165.094,106.431,165.062z M106.215,163.325c0-0.49-0.079-0.837-0.236-1.04c-0.157-0.202-0.413-0.304-0.768-0.304
			s-0.621,0.106-0.8,0.32c-0.179,0.213-0.271,0.555-0.276,1.023H106.215z"/>
		<path fill="#4D4D4D" d="M107.751,165.558v-4h0.592v0.544c0.464-0.32,0.952-0.53,1.464-0.632v0.607
			c-0.224,0.043-0.457,0.109-0.7,0.2c-0.242,0.091-0.428,0.171-0.556,0.24l-0.2,0.104v2.936H107.751z"/>
		<path fill="#4D4D4D" d="M115.527,160.021h0.64l-1.448,5.536h-1.376l-1.447-5.536h0.64l1.271,4.992h0.448L115.527,160.021z"/>
		<path fill="#4D4D4D" d="M119.398,165.062l0.232-0.023l0.016,0.472c-0.608,0.085-1.128,0.128-1.56,0.128
			c-0.576,0-0.984-0.167-1.225-0.5s-0.359-0.853-0.359-1.556c0-1.403,0.557-2.104,1.672-2.104c0.538,0,0.941,0.15,1.208,0.452
			s0.399,0.774,0.399,1.42l-0.031,0.456h-2.641c0,0.442,0.08,0.771,0.24,0.984c0.16,0.213,0.438,0.319,0.836,0.319
			S118.987,165.094,119.398,165.062z M119.183,163.325c0-0.49-0.079-0.837-0.236-1.04c-0.157-0.202-0.413-0.304-0.768-0.304
			s-0.621,0.106-0.8,0.32c-0.179,0.213-0.271,0.555-0.276,1.023H119.183z"/>
		<path fill="#4D4D4D" d="M120.719,165.558v-4h0.592v0.544c0.464-0.32,0.952-0.53,1.464-0.632v0.607
			c-0.224,0.043-0.457,0.109-0.7,0.2c-0.242,0.091-0.428,0.171-0.556,0.24l-0.2,0.104v2.936H120.719z"/>
		<path fill="#4D4D4D" d="M124.975,167.438c-0.64,0-1.087-0.087-1.34-0.26c-0.254-0.174-0.38-0.489-0.38-0.948
			c0-0.219,0.048-0.396,0.144-0.532c0.096-0.136,0.259-0.289,0.488-0.46c-0.149-0.101-0.225-0.285-0.225-0.552
			c0-0.091,0.067-0.259,0.2-0.504l0.072-0.128c-0.422-0.192-0.632-0.595-0.632-1.208c0-0.912,0.498-1.368,1.496-1.368
			c0.256,0,0.493,0.026,0.712,0.08l0.12,0.024l1.184-0.032v0.512l-0.76-0.016c0.176,0.176,0.264,0.442,0.264,0.8
			c0,0.501-0.124,0.852-0.372,1.052s-0.639,0.3-1.172,0.3c-0.144,0-0.274-0.011-0.392-0.031c-0.097,0.234-0.145,0.387-0.145,0.456
			c0,0.165,0.051,0.268,0.152,0.308s0.408,0.06,0.92,0.06s0.88,0.08,1.104,0.24c0.225,0.16,0.337,0.472,0.337,0.937
			C126.751,167.014,126.158,167.438,124.975,167.438z M123.847,166.182c0,0.282,0.078,0.479,0.235,0.588s0.448,0.164,0.872,0.164
			c0.425,0,0.729-0.059,0.912-0.176c0.185-0.117,0.276-0.313,0.276-0.588c0-0.275-0.066-0.452-0.2-0.532
			c-0.133-0.08-0.395-0.12-0.784-0.12l-0.863-0.04c-0.177,0.128-0.295,0.24-0.356,0.336S123.847,166.032,123.847,166.182z
			 M123.902,162.846c0,0.314,0.07,0.539,0.212,0.672c0.142,0.134,0.375,0.2,0.7,0.2s0.558-0.066,0.696-0.2
			c0.139-0.133,0.208-0.358,0.208-0.676s-0.069-0.543-0.208-0.676c-0.139-0.134-0.371-0.2-0.696-0.2s-0.559,0.067-0.7,0.204
			C123.973,162.306,123.902,162.531,123.902,162.846z"/>
		<path fill="#4D4D4D" d="M127.591,165.558v-5.744h0.6v5.744H127.591z"/>
		<path fill="#4D4D4D" d="M132.11,165.062l0.232-0.023l0.016,0.472c-0.608,0.085-1.128,0.128-1.56,0.128
			c-0.576,0-0.984-0.167-1.225-0.5s-0.359-0.853-0.359-1.556c0-1.403,0.557-2.104,1.672-2.104c0.538,0,0.941,0.15,1.208,0.452
			s0.399,0.774,0.399,1.42l-0.031,0.456h-2.641c0,0.442,0.08,0.771,0.24,0.984c0.16,0.213,0.438,0.319,0.836,0.319
			S131.699,165.094,132.11,165.062z M131.895,163.325c0-0.49-0.079-0.837-0.236-1.04c-0.157-0.202-0.413-0.304-0.768-0.304
			s-0.621,0.106-0.8,0.32c-0.179,0.213-0.271,0.555-0.276,1.023H131.895z"/>
		<path fill="#4D4D4D" d="M133.431,160.653v-0.695h0.6v0.695H133.431z M133.431,165.558v-4h0.6v4H133.431z"/>
		<path fill="#4D4D4D" d="M136.679,161.478c0.176,0,0.475,0.032,0.896,0.096l0.192,0.024l-0.024,0.488
			c-0.427-0.048-0.741-0.072-0.943-0.072c-0.454,0-0.762,0.108-0.925,0.324c-0.162,0.216-0.243,0.616-0.243,1.2
			s0.075,0.99,0.228,1.22s0.468,0.344,0.948,0.344l0.943-0.072l0.024,0.496c-0.496,0.075-0.867,0.112-1.112,0.112
			c-0.624,0-1.055-0.16-1.292-0.48c-0.237-0.319-0.355-0.859-0.355-1.619c0-0.761,0.128-1.294,0.384-1.601
			S136.081,161.478,136.679,161.478z"/>
		<path fill="#4D4D4D" d="M139.271,165.558h-0.6v-5.744h0.6v1.968c0.427-0.202,0.838-0.304,1.232-0.304
			c0.533,0,0.892,0.145,1.076,0.432c0.184,0.288,0.275,0.801,0.275,1.536v2.112h-0.6v-2.096c0-0.555-0.055-0.935-0.164-1.141
			c-0.109-0.205-0.34-0.308-0.692-0.308c-0.336,0-0.661,0.062-0.976,0.184l-0.152,0.057V165.558z"/>
	</g>
</g>
<g>
	<path fill="#00B8FA" d="M65.897,79.911l-0.118-1.501c-0.348-3.119,0.692-6.53,3.585-9.997c2.597-3.063,4.041-5.316,4.041-7.913
		c0-2.95-1.849-4.912-5.486-4.968c-2.084,0-4.394,0.692-5.839,1.788l-1.388-3.637c1.91-1.388,5.203-2.315,8.266-2.315
		c6.643,0,9.649,4.103,9.649,8.497c0,3.928-2.197,6.761-4.973,10.054c-2.541,3.002-3.467,5.547-3.293,8.492l0.061,1.501H65.897z
		 M64.622,88.003c0-2.141,1.444-3.641,3.467-3.641c2.023,0,3.411,1.501,3.411,3.641c0,2.023-1.331,3.58-3.467,3.58
		C66.01,91.583,64.622,90.026,64.622,88.003z"/>
</g>
<g>
	<path fill="#4D4D4D" d="M19.418,49.748c-1.988,0-3.228,1.018-3.72,3.054h4.767v0.978h-4.898l-0.019,0.432v0.485l0.019,0.341h4.328
		v0.978h-4.178c0.23,0.909,0.662,1.613,1.295,2.111c0.633,0.498,1.479,0.747,2.538,0.747c0.972,0,1.935-0.167,2.888-0.5v1.137
		c-0.91,0.329-1.898,0.493-2.963,0.493c-1.477,0-2.665-0.34-3.566-1.019c-0.901-0.68-1.494-1.668-1.781-2.967h-1.552v-0.978h1.421
		l-0.019-0.318v-0.334l0.019-0.606h-1.421v-0.978h1.533c0.243-1.319,0.819-2.347,1.729-3.085c0.91-0.737,2.103-1.106,3.58-1.106
		c1.253,0,2.393,0.245,3.421,0.735l-0.664,1.054C21.141,49.965,20.222,49.748,19.418,49.748z"/>
</g>
<rect x="1.005" y="41.504" fill="none" stroke="#4D4D4D" stroke-width="1.5" stroke-miterlimit="10" width="35.405" height="25.57"/>
<path fill="none" stroke="#4D4D4D" stroke-width="1.5" stroke-miterlimit="10" d="M14.397,67.205L10.102,71.5h17.211l-4.376-4.376
	C22.937,67.124,14.299,67.107,14.397,67.205z"/>
<rect x="5.013" y="44.982" fill="none" stroke="#4D4D4D" stroke-width="1.5" stroke-miterlimit="10" width="27.39" height="18.614"/>
<g>
	<path fill="#4D4D4D" d="M120.913,49.748c-1.988,0-3.228,1.018-3.72,3.054h4.767v0.978h-4.898l-0.019,0.432v0.485l0.019,0.341h4.328
		v0.978h-4.178c0.23,0.909,0.662,1.613,1.295,2.111c0.633,0.498,1.479,0.747,2.538,0.747c0.972,0,1.935-0.167,2.888-0.5v1.137
		c-0.91,0.329-1.898,0.493-2.963,0.493c-1.477,0-2.665-0.34-3.566-1.019c-0.901-0.68-1.494-1.668-1.781-2.967h-1.552v-0.978h1.421
		l-0.019-0.318v-0.334l0.019-0.606h-1.421v-0.978h1.533c0.243-1.319,0.819-2.347,1.729-3.085c0.91-0.737,2.103-1.106,3.58-1.106
		c1.253,0,2.393,0.245,3.421,0.735l-0.664,1.054C122.636,49.965,121.717,49.748,120.913,49.748z"/>
</g>
<rect x="102.5" y="41.504" fill="none" stroke="#4D4D4D" stroke-width="1.5" stroke-miterlimit="10" width="35.405" height="25.57"/>
<path fill="none" stroke="#4D4D4D" stroke-width="1.5" stroke-miterlimit="10" d="M115.892,67.205l-4.295,4.295h17.211l-4.376-4.376
	C124.432,67.124,115.794,67.107,115.892,67.205z"/>
<rect x="106.508" y="44.982" fill="none" stroke="#4D4D4D" stroke-width="1.5" stroke-miterlimit="10" width="27.39" height="18.614"/>
<rect x="58.841" y="154.316" fill="none" stroke="#4D4D4D" stroke-width="1.5" stroke-miterlimit="10" width="87.583" height="18.614"/>
<g>
	<path fill="#4D4D4D" d="M44.595,9.535c-1.988,0-3.228,1.018-3.72,3.054h4.767v0.978h-4.898l-0.019,0.432v0.485l0.019,0.341h4.328
		v0.978h-4.178c0.23,0.909,0.662,1.613,1.295,2.111c0.633,0.498,1.479,0.747,2.538,0.747c0.972,0,1.935-0.167,2.888-0.5v1.137
		c-0.91,0.329-1.898,0.493-2.963,0.493c-1.477,0-2.665-0.34-3.566-1.019c-0.901-0.68-1.494-1.668-1.781-2.967h-1.552v-0.978h1.421
		l-0.019-0.318v-0.334l0.019-0.606h-1.421V12.59h1.533c0.243-1.319,0.819-2.347,1.729-3.085c0.91-0.737,2.103-1.106,3.58-1.106
		c1.253,0,2.393,0.245,3.421,0.735l-0.664,1.054C46.318,9.753,45.399,9.535,44.595,9.535z"/>
</g>
<rect x="26.182" y="1.292" fill="none" stroke="#4D4D4D" stroke-width="1.5" stroke-miterlimit="10" width="35.405" height="25.57"/>
<path fill="none" stroke="#4D4D4D" stroke-width="1.5" stroke-miterlimit="10" d="M39.574,26.993l-4.295,4.295H52.49l-4.376-4.376
	C48.114,26.911,39.476,26.895,39.574,26.993z"/>
<rect x="30.19" y="4.77" fill="none" stroke="#4D4D4D" stroke-width="1.5" stroke-miterlimit="10" width="27.39" height="18.614"/>
<g>
	<path fill="#4D4D4D" d="M94.163,9.535c-1.988,0-3.228,1.018-3.72,3.054h4.767v0.978h-4.898l-0.019,0.432v0.485l0.019,0.341h4.328
		v0.978h-4.178c0.23,0.909,0.662,1.613,1.295,2.111c0.633,0.498,1.479,0.747,2.538,0.747c0.972,0,1.935-0.167,2.888-0.5v1.137
		c-0.91,0.329-1.898,0.493-2.963,0.493c-1.477,0-2.665-0.34-3.566-1.019c-0.901-0.68-1.494-1.668-1.781-2.967h-1.552v-0.978h1.421
		l-0.019-0.318v-0.334l0.019-0.606h-1.421V12.59h1.533c0.243-1.319,0.819-2.347,1.729-3.085c0.91-0.737,2.103-1.106,3.58-1.106
		c1.253,0,2.393,0.245,3.421,0.735l-0.664,1.054C95.886,9.753,94.967,9.535,94.163,9.535z"/>
</g>
<rect x="75.75" y="1.292" fill="none" stroke="#4D4D4D" stroke-width="1.5" stroke-miterlimit="10" width="35.405" height="25.57"/>
<path fill="none" stroke="#4D4D4D" stroke-width="1.5" stroke-miterlimit="10" d="M89.141,26.993l-4.295,4.295h17.211l-4.376-4.376
	C97.681,26.911,89.043,26.895,89.141,26.993z"/>
<rect x="79.757" y="4.77" fill="none" stroke="#4D4D4D" stroke-width="1.5" stroke-miterlimit="10" width="27.39" height="18.614"/>
<g id="Ebene_1_1_">
	<polygon fill="#FFFFFF" stroke="#4D4D4D" stroke-miterlimit="10" points="151.875,174.287 143.275,165.687 143.275,178.064 
		146.088,175.251 148.459,179.913 150.187,178.989 147.816,174.287 	"/>
</g>
<g>
	<line fill="none" stroke="#4D4D4D" stroke-miterlimit="10" x1="68.75" y1="139.5" x2="68.75" y2="126.458"/>
	<polygon fill="#4D4D4D" points="68.625,145.371 73.908,136.221 63.342,136.221 	"/>
</g>
</svg>
