<?xml version="1.0" encoding="utf-8"?>
<!-- Generator: Adobe Illustrator 21.1.0, SVG Export Plug-In . SVG Version: 6.00 Build 0)  -->
<svg version="1.1" id="Ebene_1" xmlns="http://www.w3.org/2000/svg" xmlns:xlink="http://www.w3.org/1999/xlink" x="0px" y="0px"
	 viewBox="0 0 200 200" enable-background="new 0 0 200 200" xml:space="preserve">
<rect x="0.333" y="0.333" fill="#FFFFFF" width="200" height="200.667"/>
<g>
	<path fill="#4D4D4D" d="M175.124,135.571h-43.916v-5.469l22.022-10.514l21.894,10.516V135.571z M132.797,133.981h40.736v-2.878
		l-20.306-9.753l-20.431,9.754V133.981z"/>
</g>
<g>
	<path fill="#4D4D4D" d="M171.881,161.34h-7.821v-22.129h7.821V161.34z M165.62,159.78h4.7v-19.008h-4.7V159.78z"/>
</g>
<g>
	<path fill="#4D4D4D" d="M142.471,161.34h-7.821v-22.129h7.821V161.34z M136.21,159.78h4.7v-19.008h-4.7V159.78z"/>
</g>
<g>
	<g>
		<path fill="#4D4D4D" d="M45.02,5.882c-0.725,0-1.346,0.293-1.871,0.857c-0.526,0.59-0.797,1.277-0.797,2.042v7.069
			c0,0.265,0.083,0.505,0.27,0.698c0.174,0.191,0.39,0.278,0.634,0.278c0.282,0,0.498-0.087,0.671-0.278
			c0.15-0.194,0.23-0.433,0.23-0.698V9.529h0.469V27.03c0,0.337,0.135,0.648,0.391,0.888c0.241,0.265,0.523,0.379,0.847,0.379
			c0.351,0,0.632-0.113,0.862-0.379c0.243-0.24,0.353-0.551,0.353-0.888V16.885h0.524V27.03c0,0.337,0.121,0.648,0.349,0.888
			c0.229,0.265,0.526,0.379,0.889,0.379c0.308,0,0.579-0.113,0.822-0.379c0.228-0.24,0.332-0.551,0.332-0.888V9.529h0.49v6.321
			c0,0.265,0.077,0.505,0.239,0.698c0.193,0.191,0.416,0.278,0.66,0.278c0.285,0,0.501-0.087,0.663-0.278
			c0.146-0.194,0.239-0.433,0.239-0.698V8.781c0-0.763-0.255-1.452-0.781-2.04c-0.513-0.567-1.128-0.857-1.883-0.857H45.02V5.882z"
			/>
		<path fill="#4D4D4D" d="M47.334,5.224c0.565,0,1.064-0.186,1.466-0.575c0.401-0.399,0.606-0.893,0.606-1.487
			c0-0.567-0.206-1.053-0.607-1.454c-0.403-0.413-0.901-0.618-1.464-0.618c-0.594,0-1.094,0.206-1.469,0.618
			c-0.401,0.401-0.59,0.887-0.59,1.454c0,0.596,0.189,1.089,0.59,1.487C46.243,5.038,46.742,5.224,47.334,5.224z"/>
	</g>
	<g>
		<path fill="#4D4D4D" d="M57.02,5.882c-0.725,0-1.346,0.293-1.871,0.857c-0.526,0.59-0.797,1.277-0.797,2.042v7.069
			c0,0.265,0.083,0.505,0.27,0.698c0.174,0.191,0.39,0.278,0.634,0.278c0.282,0,0.498-0.087,0.671-0.278
			c0.15-0.194,0.23-0.433,0.23-0.698V9.529h0.469V27.03c0,0.337,0.135,0.648,0.391,0.888c0.241,0.265,0.523,0.379,0.847,0.379
			c0.351,0,0.632-0.113,0.862-0.379c0.243-0.24,0.353-0.551,0.353-0.888V16.885h0.524V27.03c0,0.337,0.121,0.648,0.349,0.888
			c0.229,0.265,0.526,0.379,0.889,0.379c0.308,0,0.579-0.113,0.822-0.379c0.228-0.24,0.332-0.551,0.332-0.888V9.529h0.49v6.321
			c0,0.265,0.077,0.505,0.239,0.698c0.193,0.191,0.416,0.278,0.66,0.278c0.285,0,0.501-0.087,0.663-0.278
			c0.146-0.194,0.239-0.433,0.239-0.698V8.781c0-0.763-0.255-1.452-0.781-2.04c-0.513-0.567-1.128-0.857-1.883-0.857H57.02V5.882z"
			/>
		<path fill="#4D4D4D" d="M59.334,5.224c0.565,0,1.064-0.186,1.466-0.575c0.401-0.399,0.606-0.893,0.606-1.487
			c0-0.567-0.206-1.053-0.607-1.454c-0.403-0.413-0.901-0.618-1.464-0.618c-0.594,0-1.094,0.206-1.469,0.618
			c-0.401,0.401-0.59,0.887-0.59,1.454c0,0.596,0.189,1.089,0.59,1.487C58.243,5.038,58.742,5.224,59.334,5.224z"/>
	</g>
	<g>
		<path fill="#4D4D4D" d="M68.853,5.882c-0.725,0-1.346,0.293-1.871,0.857c-0.526,0.59-0.797,1.277-0.797,2.042v7.069
			c0,0.265,0.083,0.505,0.27,0.698c0.174,0.191,0.39,0.278,0.634,0.278c0.282,0,0.498-0.087,0.671-0.278
			c0.15-0.194,0.23-0.433,0.23-0.698V9.529h0.469V27.03c0,0.337,0.135,0.648,0.391,0.888c0.241,0.265,0.523,0.379,0.847,0.379
			c0.351,0,0.632-0.113,0.862-0.379c0.243-0.24,0.353-0.551,0.353-0.888V16.885h0.524V27.03c0,0.337,0.121,0.648,0.349,0.888
			c0.229,0.265,0.526,0.379,0.889,0.379c0.308,0,0.579-0.113,0.822-0.379c0.228-0.24,0.332-0.551,0.332-0.888V9.529h0.49v6.321
			c0,0.265,0.077,0.505,0.239,0.698c0.193,0.191,0.416,0.278,0.66,0.278c0.285,0,0.501-0.087,0.663-0.278
			c0.146-0.194,0.239-0.433,0.239-0.698V8.781c0-0.763-0.255-1.452-0.781-2.04c-0.513-0.567-1.128-0.857-1.883-0.857h-4.603V5.882z"
			/>
		<path fill="#4D4D4D" d="M71.167,5.224c0.565,0,1.064-0.186,1.466-0.575c0.401-0.399,0.606-0.893,0.606-1.487
			c0-0.567-0.206-1.053-0.607-1.454c-0.403-0.413-0.901-0.618-1.464-0.618c-0.594,0-1.094,0.206-1.469,0.618
			c-0.401,0.401-0.59,0.887-0.59,1.454c0,0.596,0.189,1.089,0.59,1.487C70.076,5.038,70.576,5.224,71.167,5.224z"/>
	</g>
</g>
<g>
	<path fill="#4D4D4D" d="M151.486,143.008c-0.593,0-1.101,0.239-1.53,0.701c-0.43,0.483-0.651,1.044-0.651,1.669v5.78
		c0,0.217,0.068,0.413,0.221,0.571c0.142,0.156,0.319,0.227,0.519,0.227c0.23,0,0.407-0.071,0.549-0.227
		c0.123-0.158,0.188-0.354,0.188-0.571v-5.168h0.383v14.308c0,0.275,0.11,0.53,0.32,0.726c0.197,0.217,0.427,0.31,0.692,0.31
		c0.287,0,0.517-0.093,0.705-0.31c0.199-0.196,0.289-0.45,0.289-0.726v-8.294h0.429v8.294c0,0.275,0.099,0.53,0.286,0.726
		c0.188,0.217,0.43,0.31,0.727,0.31c0.252,0,0.473-0.093,0.672-0.31c0.186-0.196,0.271-0.45,0.271-0.726v-14.308h0.4v5.168
		c0,0.217,0.063,0.413,0.195,0.571c0.158,0.156,0.34,0.227,0.539,0.227c0.233,0,0.41-0.071,0.542-0.227
		c0.12-0.158,0.195-0.354,0.195-0.571v-5.779c0-0.623-0.208-1.187-0.639-1.668c-0.42-0.464-0.922-0.701-1.539-0.701h-3.763V143.008z
		"/>
	<path fill="#4D4D4D" d="M153.378,142.47c0.462,0,0.87-0.152,1.199-0.47c0.328-0.326,0.495-0.73,0.495-1.216
		c0-0.463-0.169-0.861-0.497-1.189c-0.329-0.337-0.736-0.505-1.197-0.505c-0.486,0-0.894,0.168-1.201,0.505
		c-0.328,0.328-0.482,0.725-0.482,1.189c0,0.487,0.154,0.891,0.482,1.216C152.486,142.318,152.894,142.47,153.378,142.47z"/>
</g>
<g>
	<g>
		<path fill="#4D4D4D" stroke="#4D4D4D" stroke-width="0.25" stroke-miterlimit="10" d="M71.641,147.86H46.787v-13.947h24.854
			V147.86z M47.485,147.162h23.458v-12.551H47.485V147.162z"/>
	</g>
	<g>
		
			<rect x="47.255" y="141.306" fill="#4D4D4D" stroke="#4D4D4D" stroke-width="0.25" stroke-miterlimit="10" width="8.339" height="0.698"/>
	</g>
	<g>
		
			<rect x="47.255" y="142.689" fill="#4D4D4D" stroke="#4D4D4D" stroke-width="0.25" stroke-miterlimit="10" width="8.339" height="0.698"/>
	</g>
	<g>
		
			<rect x="47.255" y="144.072" fill="#4D4D4D" stroke="#4D4D4D" stroke-width="0.25" stroke-miterlimit="10" width="8.339" height="0.698"/>
	</g>
	<circle fill="#4D4D4D" stroke="#4D4D4D" stroke-width="0.25" stroke-miterlimit="10" cx="71.292" cy="134.143" r="1.107"/>
	<path fill="#4D4D4D" stroke="#4D4D4D" stroke-width="0.25" stroke-miterlimit="10" d="M72.399,147.511c0,0.246-2.215,0.44-2.215,0
		c0-0.612,0.496-1.107,1.107-1.107S72.399,146.899,72.399,147.511z"/>
	<circle fill="#4D4D4D" stroke="#4D4D4D" stroke-width="0.25" stroke-miterlimit="10" cx="47.136" cy="134.143" r="1.107"/>
	<circle fill="#4D4D4D" stroke="#4D4D4D" stroke-width="0.25" stroke-miterlimit="10" cx="47.136" cy="147.511" r="1.107"/>
	<g>
		<path fill="#4D4D4D" stroke="#4D4D4D" stroke-width="0.25" stroke-miterlimit="10" d="M91.61,167.833h-31.54v-20.666h31.54
			V167.833z M60.767,167.135h30.144v-19.27H60.767V167.135z"/>
	</g>
	<g>
		<path fill="#4D4D4D" stroke="#4D4D4D" stroke-width="0.25" stroke-miterlimit="10" d="M88.252,164.47H63.398v-13.947h24.854
			V164.47z M64.096,163.772h23.458v-12.551H64.096V163.772z"/>
	</g>
	<g>
		
			<rect x="63.866" y="157.917" fill="#4D4D4D" stroke="#4D4D4D" stroke-width="0.25" stroke-miterlimit="10" width="8.339" height="0.698"/>
	</g>
	<g>
		
			<rect x="63.866" y="159.3" fill="#4D4D4D" stroke="#4D4D4D" stroke-width="0.25" stroke-miterlimit="10" width="8.339" height="0.698"/>
	</g>
	<g>
		
			<rect x="63.866" y="160.683" fill="#4D4D4D" stroke="#4D4D4D" stroke-width="0.25" stroke-miterlimit="10" width="8.339" height="0.698"/>
	</g>
	<circle fill="#4D4D4D" stroke="#4D4D4D" stroke-width="0.25" stroke-miterlimit="10" cx="87.903" cy="150.753" r="1.107"/>
	<circle fill="#4D4D4D" stroke="#4D4D4D" stroke-width="0.25" stroke-miterlimit="10" cx="87.903" cy="164.121" r="1.107"/>
	<circle fill="#4D4D4D" stroke="#4D4D4D" stroke-width="0.25" stroke-miterlimit="10" cx="63.747" cy="150.753" r="1.107"/>
	<circle fill="#4D4D4D" stroke="#4D4D4D" stroke-width="0.25" stroke-miterlimit="10" cx="63.747" cy="164.121" r="1.107"/>
	
		<rect x="77.272" y="158.272" fill="#4D4D4D" stroke="#4D4D4D" stroke-width="0.25" stroke-miterlimit="10" width="6.316" height="2.759"/>
	<g>
		<polygon fill="#4D4D4D" stroke="#4D4D4D" stroke-width="0.25" stroke-miterlimit="10" points="44.157,131.255 74.301,131.255 
			74.301,147.868 74.999,147.868 74.999,130.557 43.459,130.557 43.459,151.223 60.51,151.223 60.51,150.525 44.157,150.525 		"/>
		<polygon fill="#4D4D4D" stroke="#4D4D4D" stroke-width="0.25" stroke-miterlimit="10" points="72.982,150.529 72.982,150.525 
			63.599,150.525 63.599,151.223 74.999,151.223 74.999,150.529 		"/>
	</g>
	
		<rect x="60.662" y="141.663" fill="#4D4D4D" stroke="#4D4D4D" stroke-width="0.25" stroke-miterlimit="10" width="6.316" height="2.759"/>
	<g>
		<path fill="#4D4D4D" stroke="#4D4D4D" stroke-width="0.25" stroke-miterlimit="10" d="M55.045,131.264H30.191v-13.947h24.854
			V131.264z M30.889,130.566h23.458v-12.551H30.889V130.566z"/>
	</g>
	<g>
		
			<rect x="30.659" y="124.71" fill="#4D4D4D" stroke="#4D4D4D" stroke-width="0.25" stroke-miterlimit="10" width="8.339" height="0.698"/>
	</g>
	<g>
		
			<rect x="30.659" y="126.093" fill="#4D4D4D" stroke="#4D4D4D" stroke-width="0.25" stroke-miterlimit="10" width="8.339" height="0.698"/>
	</g>
	<g>
		
			<rect x="30.659" y="127.476" fill="#4D4D4D" stroke="#4D4D4D" stroke-width="0.25" stroke-miterlimit="10" width="8.339" height="0.698"/>
	</g>
	<circle fill="#4D4D4D" stroke="#4D4D4D" stroke-width="0.25" stroke-miterlimit="10" cx="54.696" cy="117.547" r="1.107"/>
	<path fill="#4D4D4D" stroke="#4D4D4D" stroke-width="0.25" stroke-miterlimit="10" d="M55.803,130.915c0,0.246-2.215,0.44-2.215,0
		c0-0.612,0.496-1.107,1.107-1.107C55.308,129.807,55.803,130.303,55.803,130.915z"/>
	<circle fill="#4D4D4D" stroke="#4D4D4D" stroke-width="0.25" stroke-miterlimit="10" cx="30.54" cy="117.547" r="1.107"/>
	<circle fill="#4D4D4D" stroke="#4D4D4D" stroke-width="0.25" stroke-miterlimit="10" cx="30.54" cy="130.915" r="1.107"/>
	<g>
		<polygon fill="#4D4D4D" stroke="#4D4D4D" stroke-width="0.25" stroke-miterlimit="10" points="27.561,114.659 57.705,114.659 
			57.705,131.272 58.403,131.272 58.403,113.961 26.863,113.961 26.863,134.627 43.914,134.627 43.914,133.929 27.561,133.929 		"/>
		<polygon fill="#4D4D4D" stroke="#4D4D4D" stroke-width="0.25" stroke-miterlimit="10" points="56.386,133.933 56.386,133.929 
			47.003,133.929 47.003,134.627 58.403,134.627 58.403,133.933 		"/>
	</g>
	
		<rect x="44.066" y="125.067" fill="#4D4D4D" stroke="#4D4D4D" stroke-width="0.25" stroke-miterlimit="10" width="6.316" height="2.759"/>
</g>
<polyline fill="none" stroke="#4D4D4D" stroke-miterlimit="10" points="1.028,111.351 19.691,111.351 19.691,172.943 
	99.981,172.943 99.981,111.718 117.444,111.718 "/>
<g>
	<g>
		<path fill="#4D4D4D" d="M134.98,172.974v-5.536h3.312v0.544h-2.696v2.16h2.28v0.544h-2.28v2.288H134.98z"/>
		<path fill="#4D4D4D" d="M138.766,170.966c0-0.73,0.13-1.259,0.392-1.584s0.702-0.488,1.324-0.488c0.621,0,1.062,0.163,1.319,0.488
			c0.259,0.325,0.389,0.854,0.389,1.584s-0.123,1.261-0.368,1.592s-0.693,0.496-1.344,0.496c-0.651,0-1.099-0.165-1.345-0.496
			C138.888,172.227,138.766,171.696,138.766,170.966z M139.381,170.954c0,0.584,0.071,0.993,0.212,1.228
			c0.142,0.234,0.438,0.352,0.889,0.352c0.45,0,0.745-0.115,0.884-0.348c0.139-0.231,0.208-0.642,0.208-1.228
			c0-0.587-0.077-0.991-0.232-1.212c-0.154-0.222-0.441-0.332-0.859-0.332c-0.419,0-0.707,0.11-0.864,0.332
			C139.46,169.967,139.381,170.37,139.381,170.954z"/>
		<path fill="#4D4D4D" d="M143.765,172.974h-0.6v-4h0.592v0.28c0.432-0.24,0.846-0.36,1.24-0.36c0.533,0,0.892,0.145,1.076,0.432
			c0.184,0.288,0.275,0.801,0.275,1.536v2.112h-0.592v-2.096c0-0.555-0.055-0.935-0.164-1.141c-0.109-0.205-0.343-0.308-0.7-0.308
			c-0.171,0-0.351,0.025-0.54,0.076s-0.334,0.1-0.436,0.147l-0.152,0.072V172.974z"/>
		<path fill="#4D4D4D" d="M150.533,167.229v5.744h-0.593v-0.272c-0.41,0.235-0.815,0.353-1.216,0.353
			c-0.213,0-0.399-0.026-0.56-0.08s-0.31-0.149-0.448-0.288c-0.288-0.288-0.432-0.82-0.432-1.596c0-0.776,0.129-1.336,0.388-1.681
			c0.259-0.344,0.687-0.516,1.284-0.516c0.309,0,0.637,0.035,0.983,0.104v-1.769H150.533z M148.453,172.462
			c0.096,0.037,0.22,0.056,0.372,0.056c0.151,0,0.322-0.025,0.512-0.076s0.337-0.1,0.444-0.147l0.159-0.072v-2.712
			c-0.341-0.064-0.658-0.096-0.952-0.096c-0.405,0-0.688,0.129-0.848,0.388s-0.24,0.66-0.24,1.204c0,0.618,0.094,1.034,0.28,1.248
			C148.266,172.355,148.356,172.425,148.453,172.462z"/>
		<path fill="#4D4D4D" d="M152.292,172.974h-0.6v-4h0.592v0.28c0.4-0.24,0.789-0.36,1.168-0.36c0.496,0,0.843,0.136,1.04,0.408
			c0.176-0.106,0.404-0.201,0.684-0.284c0.28-0.083,0.527-0.124,0.74-0.124c0.533,0,0.893,0.143,1.076,0.428
			c0.184,0.286,0.276,0.799,0.276,1.54v2.112h-0.601v-2.096c0-0.555-0.053-0.935-0.16-1.141c-0.106-0.205-0.333-0.308-0.68-0.308
			c-0.176,0-0.357,0.025-0.544,0.076s-0.331,0.1-0.432,0.147l-0.152,0.072c0.069,0.176,0.104,0.565,0.104,1.168v2.08h-0.601v-2.064
			c0-0.575-0.052-0.966-0.156-1.172c-0.104-0.205-0.332-0.308-0.684-0.308c-0.171,0-0.346,0.025-0.524,0.076s-0.315,0.1-0.412,0.147
			l-0.136,0.072V172.974z"/>
		<path fill="#4D4D4D" d="M161.205,170.182v2.048c0.016,0.197,0.17,0.314,0.464,0.353l-0.024,0.472c-0.421,0-0.738-0.106-0.952-0.32
			c-0.479,0.214-0.96,0.32-1.439,0.32c-0.368,0-0.648-0.104-0.84-0.312c-0.192-0.208-0.288-0.506-0.288-0.896
			s0.099-0.676,0.296-0.86c0.197-0.184,0.507-0.297,0.928-0.34l1.256-0.12v-0.344c0-0.272-0.059-0.467-0.176-0.584
			s-0.277-0.176-0.48-0.176c-0.427,0-0.869,0.026-1.327,0.08l-0.248,0.023l-0.024-0.456c0.587-0.117,1.106-0.176,1.56-0.176
			c0.454,0,0.783,0.104,0.988,0.312S161.205,169.739,161.205,170.182z M158.74,171.813c0,0.491,0.203,0.736,0.608,0.736
			c0.362,0,0.72-0.062,1.072-0.185l0.184-0.063v-1.32l-1.184,0.112c-0.24,0.021-0.414,0.091-0.521,0.208
			S158.74,171.59,158.74,171.813z"/>
		<path fill="#4D4D4D" d="M162.988,172.974h-0.6v-4h0.592v0.28c0.432-0.24,0.846-0.36,1.24-0.36c0.533,0,0.892,0.145,1.076,0.432
			c0.184,0.288,0.275,0.801,0.275,1.536v2.112h-0.592v-2.096c0-0.555-0.055-0.935-0.164-1.141c-0.109-0.205-0.343-0.308-0.7-0.308
			c-0.171,0-0.351,0.025-0.54,0.076s-0.334,0.1-0.436,0.147l-0.152,0.072V172.974z"/>
		<path fill="#4D4D4D" d="M169.509,170.182v2.048c0.016,0.197,0.17,0.314,0.464,0.353l-0.024,0.472c-0.421,0-0.738-0.106-0.952-0.32
			c-0.479,0.214-0.96,0.32-1.439,0.32c-0.368,0-0.648-0.104-0.84-0.312c-0.192-0.208-0.288-0.506-0.288-0.896
			s0.099-0.676,0.296-0.86c0.197-0.184,0.507-0.297,0.928-0.34l1.256-0.12v-0.344c0-0.272-0.059-0.467-0.176-0.584
			s-0.277-0.176-0.48-0.176c-0.427,0-0.869,0.026-1.327,0.08l-0.248,0.023l-0.024-0.456c0.587-0.117,1.106-0.176,1.56-0.176
			c0.454,0,0.783,0.104,0.988,0.312S169.509,169.739,169.509,170.182z M167.044,171.813c0,0.491,0.203,0.736,0.608,0.736
			c0.362,0,0.72-0.062,1.072-0.185l0.184-0.063v-1.32l-1.184,0.112c-0.24,0.021-0.414,0.091-0.521,0.208
			S167.044,171.59,167.044,171.813z"/>
		<path fill="#4D4D4D" d="M172.236,174.854c-0.64,0-1.087-0.087-1.34-0.26c-0.254-0.174-0.38-0.489-0.38-0.948
			c0-0.219,0.048-0.396,0.144-0.532c0.096-0.136,0.259-0.289,0.488-0.46c-0.149-0.101-0.225-0.285-0.225-0.552
			c0-0.091,0.067-0.259,0.2-0.504l0.072-0.128c-0.422-0.192-0.632-0.595-0.632-1.208c0-0.912,0.498-1.368,1.496-1.368
			c0.256,0,0.493,0.026,0.712,0.08l0.12,0.024l1.184-0.032v0.512l-0.76-0.016c0.176,0.176,0.264,0.442,0.264,0.8
			c0,0.501-0.124,0.852-0.372,1.052s-0.639,0.3-1.172,0.3c-0.144,0-0.274-0.011-0.392-0.031c-0.097,0.234-0.145,0.387-0.145,0.456
			c0,0.165,0.051,0.268,0.152,0.308s0.408,0.06,0.92,0.06s0.88,0.08,1.104,0.24c0.225,0.16,0.337,0.472,0.337,0.937
			C174.013,174.43,173.42,174.854,172.236,174.854z M171.108,173.598c0,0.282,0.078,0.479,0.235,0.588s0.448,0.164,0.872,0.164
			c0.425,0,0.729-0.059,0.912-0.176c0.185-0.117,0.276-0.313,0.276-0.588c0-0.275-0.066-0.452-0.2-0.532
			c-0.133-0.08-0.395-0.12-0.784-0.12l-0.863-0.04c-0.177,0.128-0.295,0.24-0.356,0.336S171.108,173.448,171.108,173.598z
			 M171.164,170.262c0,0.314,0.07,0.539,0.212,0.672c0.142,0.134,0.375,0.2,0.7,0.2s0.558-0.066,0.696-0.2
			c0.139-0.133,0.208-0.358,0.208-0.676s-0.069-0.543-0.208-0.676c-0.139-0.134-0.371-0.2-0.696-0.2s-0.559,0.067-0.7,0.204
			C171.234,169.722,171.164,169.947,171.164,170.262z"/>
		<path fill="#4D4D4D" d="M177.524,172.478l0.232-0.023l0.016,0.472c-0.608,0.085-1.128,0.128-1.56,0.128
			c-0.576,0-0.984-0.167-1.225-0.5s-0.359-0.853-0.359-1.556c0-1.403,0.557-2.104,1.672-2.104c0.538,0,0.941,0.15,1.208,0.452
			s0.399,0.774,0.399,1.42l-0.031,0.456h-2.641c0,0.442,0.08,0.771,0.24,0.984c0.16,0.213,0.438,0.319,0.836,0.319
			S177.113,172.51,177.524,172.478z M177.309,170.741c0-0.49-0.079-0.837-0.236-1.04c-0.157-0.202-0.413-0.304-0.768-0.304
			s-0.621,0.106-0.8,0.32c-0.179,0.213-0.271,0.555-0.276,1.023H177.309z"/>
		<path fill="#4D4D4D" d="M178.845,172.974v-4h0.592v0.544c0.464-0.32,0.952-0.53,1.464-0.632v0.607
			c-0.224,0.043-0.457,0.109-0.7,0.2c-0.242,0.091-0.428,0.171-0.556,0.24l-0.2,0.104v2.936H178.845z"/>
		<path fill="#4D4D4D" d="M134.98,182.573v-5.536h3.312v0.544h-2.696v2.16h2.28v0.544h-2.28v2.288H134.98z"/>
		<path fill="#4D4D4D" d="M138.766,180.565c0-0.73,0.13-1.259,0.392-1.584s0.702-0.488,1.324-0.488c0.621,0,1.062,0.163,1.319,0.488
			c0.259,0.325,0.389,0.854,0.389,1.584s-0.123,1.261-0.368,1.592s-0.693,0.496-1.344,0.496c-0.651,0-1.099-0.165-1.345-0.496
			C138.888,181.826,138.766,181.296,138.766,180.565z M139.381,180.554c0,0.584,0.071,0.993,0.212,1.228
			c0.142,0.234,0.438,0.352,0.889,0.352c0.45,0,0.745-0.115,0.884-0.348c0.139-0.231,0.208-0.642,0.208-1.228
			c0-0.587-0.077-0.991-0.232-1.212c-0.154-0.222-0.441-0.332-0.859-0.332c-0.419,0-0.707,0.11-0.864,0.332
			C139.46,179.566,139.381,179.97,139.381,180.554z"/>
		<path fill="#4D4D4D" d="M143.765,182.573h-0.6v-4h0.592v0.28c0.432-0.24,0.846-0.36,1.24-0.36c0.533,0,0.892,0.145,1.076,0.432
			c0.184,0.288,0.275,0.801,0.275,1.536v2.112h-0.592v-2.096c0-0.555-0.055-0.935-0.164-1.141c-0.109-0.205-0.343-0.308-0.7-0.308
			c-0.171,0-0.351,0.025-0.54,0.076s-0.334,0.1-0.436,0.147l-0.152,0.072V182.573z"/>
		<path fill="#4D4D4D" d="M150.533,176.829v5.744h-0.593v-0.272c-0.41,0.235-0.815,0.353-1.216,0.353
			c-0.213,0-0.399-0.026-0.56-0.08s-0.31-0.149-0.448-0.288c-0.288-0.288-0.432-0.82-0.432-1.596c0-0.776,0.129-1.336,0.388-1.681
			c0.259-0.344,0.687-0.516,1.284-0.516c0.309,0,0.637,0.035,0.983,0.104v-1.769H150.533z M148.453,182.062
			c0.096,0.037,0.22,0.056,0.372,0.056c0.151,0,0.322-0.025,0.512-0.076s0.337-0.1,0.444-0.147l0.159-0.072v-2.712
			c-0.341-0.064-0.658-0.096-0.952-0.096c-0.405,0-0.688,0.129-0.848,0.388s-0.24,0.66-0.24,1.204c0,0.618,0.094,1.034,0.28,1.248
			C148.266,181.955,148.356,182.024,148.453,182.062z"/>
		<path fill="#4D4D4D" d="M153.236,184.453c-0.64,0-1.087-0.087-1.34-0.26c-0.254-0.174-0.38-0.489-0.38-0.948
			c0-0.219,0.048-0.396,0.144-0.532c0.096-0.136,0.259-0.289,0.488-0.46c-0.149-0.101-0.225-0.285-0.225-0.552
			c0-0.091,0.067-0.259,0.2-0.504l0.072-0.128c-0.422-0.192-0.632-0.595-0.632-1.208c0-0.912,0.498-1.368,1.496-1.368
			c0.256,0,0.493,0.026,0.712,0.08l0.12,0.024l1.184-0.032v0.512l-0.76-0.016c0.176,0.176,0.264,0.442,0.264,0.8
			c0,0.501-0.124,0.852-0.372,1.052s-0.639,0.3-1.172,0.3c-0.144,0-0.274-0.011-0.392-0.031c-0.097,0.234-0.145,0.387-0.145,0.456
			c0,0.165,0.051,0.268,0.152,0.308s0.408,0.06,0.92,0.06s0.88,0.08,1.104,0.24c0.225,0.16,0.337,0.472,0.337,0.937
			C155.013,184.029,154.42,184.453,153.236,184.453z M152.108,183.197c0,0.282,0.078,0.479,0.235,0.588s0.448,0.164,0.872,0.164
			c0.425,0,0.729-0.059,0.912-0.176c0.185-0.117,0.276-0.313,0.276-0.588c0-0.275-0.066-0.452-0.2-0.532
			c-0.133-0.08-0.395-0.12-0.784-0.12l-0.863-0.04c-0.177,0.128-0.295,0.24-0.356,0.336S152.108,183.048,152.108,183.197z
			 M152.164,179.861c0,0.314,0.07,0.539,0.212,0.672c0.142,0.134,0.375,0.2,0.7,0.2s0.558-0.066,0.696-0.2
			c0.139-0.133,0.208-0.358,0.208-0.676s-0.069-0.543-0.208-0.676c-0.139-0.134-0.371-0.2-0.696-0.2s-0.559,0.067-0.7,0.204
			C152.234,179.321,152.164,179.547,152.164,179.861z"/>
		<path fill="#4D4D4D" d="M158.524,182.077l0.232-0.023l0.016,0.472c-0.608,0.085-1.128,0.128-1.56,0.128
			c-0.576,0-0.984-0.167-1.225-0.5s-0.359-0.853-0.359-1.556c0-1.403,0.557-2.104,1.672-2.104c0.538,0,0.941,0.15,1.208,0.452
			s0.399,0.774,0.399,1.42l-0.031,0.456h-2.641c0,0.442,0.08,0.771,0.24,0.984c0.16,0.213,0.438,0.319,0.836,0.319
			S158.113,182.109,158.524,182.077z M158.309,180.341c0-0.49-0.079-0.837-0.236-1.04c-0.157-0.202-0.413-0.304-0.768-0.304
			s-0.621,0.106-0.8,0.32c-0.179,0.213-0.271,0.555-0.276,1.023H158.309z"/>
		<path fill="#4D4D4D" d="M161.101,179.029c-0.581,0-0.872,0.203-0.872,0.608c0,0.187,0.066,0.318,0.2,0.396
			c0.133,0.077,0.438,0.157,0.912,0.24s0.811,0.198,1.008,0.348s0.296,0.43,0.296,0.84c0,0.411-0.132,0.712-0.396,0.904
			c-0.265,0.192-0.649,0.288-1.156,0.288c-0.331,0-0.721-0.037-1.168-0.112l-0.24-0.04l0.032-0.52
			c0.607,0.091,1.066,0.136,1.376,0.136c0.309,0,0.545-0.049,0.708-0.147c0.162-0.099,0.244-0.265,0.244-0.496
			c0-0.232-0.069-0.39-0.208-0.473c-0.139-0.082-0.443-0.161-0.912-0.235c-0.47-0.075-0.803-0.185-1-0.328
			c-0.197-0.145-0.296-0.411-0.296-0.8c0-0.39,0.137-0.678,0.412-0.864c0.274-0.187,0.617-0.28,1.027-0.28
			c0.325,0,0.733,0.037,1.225,0.112l0.224,0.04l-0.016,0.512C161.908,179.072,161.441,179.029,161.101,179.029z"/>
		<path fill="#4D4D4D" d="M166.284,182.077l0.232-0.023l0.016,0.472c-0.608,0.085-1.128,0.128-1.56,0.128
			c-0.576,0-0.984-0.167-1.225-0.5s-0.359-0.853-0.359-1.556c0-1.403,0.557-2.104,1.672-2.104c0.538,0,0.941,0.15,1.208,0.452
			s0.399,0.774,0.399,1.42l-0.031,0.456h-2.641c0,0.442,0.08,0.771,0.24,0.984c0.16,0.213,0.438,0.319,0.836,0.319
			S165.873,182.109,166.284,182.077z M166.068,180.341c0-0.49-0.079-0.837-0.236-1.04c-0.157-0.202-0.413-0.304-0.768-0.304
			s-0.621,0.106-0.8,0.32c-0.179,0.213-0.271,0.555-0.276,1.023H166.068z"/>
		<path fill="#4D4D4D" d="M167.652,182.573v-5.744h0.6v5.744H167.652z"/>
		<path fill="#4D4D4D" d="M169.5,182.573v-5.744h0.6v5.744H169.5z"/>
		<path fill="#4D4D4D" d="M172.557,179.029c-0.581,0-0.872,0.203-0.872,0.608c0,0.187,0.066,0.318,0.2,0.396
			c0.133,0.077,0.438,0.157,0.912,0.24s0.811,0.198,1.008,0.348s0.296,0.43,0.296,0.84c0,0.411-0.132,0.712-0.396,0.904
			c-0.265,0.192-0.649,0.288-1.156,0.288c-0.331,0-0.721-0.037-1.168-0.112l-0.24-0.04l0.032-0.52
			c0.607,0.091,1.066,0.136,1.376,0.136c0.309,0,0.545-0.049,0.708-0.147c0.162-0.099,0.244-0.265,0.244-0.496
			c0-0.232-0.069-0.39-0.208-0.473c-0.139-0.082-0.443-0.161-0.912-0.235c-0.47-0.075-0.803-0.185-1-0.328
			c-0.197-0.145-0.296-0.411-0.296-0.8c0-0.39,0.137-0.678,0.412-0.864c0.274-0.187,0.617-0.28,1.027-0.28
			c0.325,0,0.733,0.037,1.225,0.112l0.224,0.04l-0.016,0.512C173.364,179.072,172.897,179.029,172.557,179.029z"/>
		<path fill="#4D4D4D" d="M176.517,178.493c0.176,0,0.475,0.032,0.896,0.096l0.192,0.024l-0.024,0.488
			c-0.427-0.048-0.741-0.072-0.943-0.072c-0.454,0-0.762,0.108-0.925,0.324c-0.162,0.216-0.243,0.616-0.243,1.2
			s0.075,0.99,0.228,1.22s0.468,0.344,0.948,0.344l0.943-0.072l0.024,0.496c-0.496,0.075-0.867,0.112-1.112,0.112
			c-0.624,0-1.055-0.16-1.292-0.48c-0.237-0.319-0.355-0.859-0.355-1.619c0-0.761,0.128-1.294,0.384-1.601
			S175.919,178.493,176.517,178.493z"/>
		<path fill="#4D4D4D" d="M179.107,182.573h-0.6v-5.744h0.6v1.968c0.427-0.202,0.838-0.304,1.232-0.304
			c0.533,0,0.892,0.145,1.076,0.432c0.184,0.288,0.275,0.801,0.275,1.536v2.112h-0.6v-2.096c0-0.555-0.055-0.935-0.164-1.141
			c-0.109-0.205-0.34-0.308-0.692-0.308c-0.336,0-0.661,0.062-0.976,0.184l-0.152,0.057V182.573z"/>
		<path fill="#4D4D4D" d="M185.628,179.781v2.048c0.016,0.197,0.17,0.314,0.464,0.353l-0.024,0.472c-0.421,0-0.738-0.106-0.952-0.32
			c-0.479,0.214-0.96,0.32-1.439,0.32c-0.368,0-0.648-0.104-0.84-0.312c-0.192-0.208-0.288-0.506-0.288-0.896
			s0.099-0.676,0.296-0.86c0.197-0.184,0.507-0.297,0.928-0.34l1.256-0.12v-0.344c0-0.272-0.059-0.467-0.176-0.584
			s-0.277-0.176-0.48-0.176c-0.427,0-0.869,0.026-1.327,0.08l-0.248,0.023l-0.024-0.456c0.587-0.117,1.106-0.176,1.56-0.176
			c0.454,0,0.783,0.104,0.988,0.312S185.628,179.339,185.628,179.781z M183.163,181.413c0,0.491,0.203,0.736,0.608,0.736
			c0.362,0,0.72-0.062,1.072-0.185l0.184-0.063v-1.32l-1.184,0.112c-0.24,0.021-0.414,0.091-0.521,0.208
			S183.163,181.189,183.163,181.413z"/>
		<path fill="#4D4D4D" d="M187.58,179.093v3.48h-0.6v-3.48h-0.504v-0.52h0.504v-0.36c0-0.564,0.08-0.95,0.24-1.155
			c0.159-0.206,0.439-0.309,0.84-0.309l0.808,0.057l-0.008,0.495c-0.299-0.01-0.545-0.016-0.74-0.016
			c-0.194,0-0.333,0.064-0.416,0.192s-0.124,0.376-0.124,0.744v0.352h1.16v0.52H187.58z"/>
		<path fill="#4D4D4D" d="M191.532,179.093h-1.272v1.912c0,0.459,0.033,0.761,0.1,0.904c0.067,0.145,0.226,0.216,0.477,0.216
			l0.712-0.048l0.04,0.496c-0.357,0.059-0.63,0.088-0.816,0.088c-0.416,0-0.704-0.102-0.863-0.304c-0.16-0.203-0.24-0.59-0.24-1.16
			v-2.104H189.1v-0.52h0.568v-1.224h0.592v1.224h1.272V179.093z"/>
	</g>
</g>
<g>
	<g>
		<path fill="#4D4D4D" d="M20.314,183.308v-5.536h3.312v0.544h-2.696v2.16h2.28v0.544h-2.28v2.288H20.314z"/>
		<path fill="#4D4D4D" d="M24.1,181.3c0-0.73,0.13-1.259,0.392-1.584s0.702-0.488,1.324-0.488c0.621,0,1.062,0.163,1.319,0.488
			c0.259,0.325,0.389,0.854,0.389,1.584s-0.123,1.261-0.368,1.592s-0.693,0.496-1.344,0.496c-0.651,0-1.099-0.165-1.345-0.496
			C24.222,182.561,24.1,182.03,24.1,181.3z M24.715,181.288c0,0.584,0.071,0.993,0.212,1.228c0.142,0.234,0.438,0.352,0.889,0.352
			c0.45,0,0.745-0.115,0.884-0.348c0.139-0.231,0.208-0.642,0.208-1.228c0-0.587-0.077-0.991-0.232-1.212
			c-0.154-0.222-0.441-0.332-0.859-0.332c-0.419,0-0.707,0.11-0.864,0.332C24.794,180.301,24.715,180.704,24.715,181.288z"/>
		<path fill="#4D4D4D" d="M29.099,183.308h-0.6v-4h0.592v0.28c0.432-0.24,0.846-0.36,1.24-0.36c0.533,0,0.892,0.145,1.076,0.432
			c0.184,0.288,0.275,0.801,0.275,1.536v2.112h-0.592v-2.096c0-0.555-0.055-0.935-0.164-1.141c-0.109-0.205-0.343-0.308-0.7-0.308
			c-0.171,0-0.351,0.025-0.54,0.076s-0.334,0.1-0.436,0.147l-0.152,0.072V183.308z"/>
		<path fill="#4D4D4D" d="M35.867,177.563v5.744h-0.593v-0.272c-0.41,0.235-0.815,0.353-1.216,0.353c-0.213,0-0.399-0.026-0.56-0.08
			s-0.31-0.149-0.448-0.288c-0.288-0.288-0.432-0.82-0.432-1.596c0-0.776,0.129-1.336,0.388-1.681
			c0.259-0.344,0.687-0.516,1.284-0.516c0.309,0,0.637,0.035,0.983,0.104v-1.769H35.867z M33.787,182.796
			c0.096,0.037,0.22,0.056,0.372,0.056c0.151,0,0.322-0.025,0.512-0.076s0.337-0.1,0.444-0.147l0.159-0.072v-2.712
			c-0.341-0.064-0.658-0.096-0.952-0.096c-0.405,0-0.688,0.129-0.848,0.388s-0.24,0.66-0.24,1.204c0,0.618,0.094,1.034,0.28,1.248
			C33.6,182.689,33.69,182.759,33.787,182.796z"/>
	</g>
</g>
<g>
	<line fill="none" stroke="#4D4D4D" stroke-miterlimit="10" x1="119.46" y1="146.998" x2="106.419" y2="146.998"/>
	<polygon fill="#4D4D4D" points="125.331,147.123 116.181,141.84 116.181,152.406 	"/>
</g>
<g>
	<line fill="none" stroke="#4D4D4D" stroke-miterlimit="10" x1="44.333" y1="88.875" x2="44.333" y2="43.833"/>
	<polygon fill="#4D4D4D" points="44.208,94.746 49.492,85.596 38.925,85.596 	"/>
</g>
<g>
	<line fill="none" stroke="#4D4D4D" stroke-miterlimit="10" x1="73.417" y1="49.705" x2="73.417" y2="94.746"/>
	<polygon fill="#4D4D4D" points="73.542,43.833 68.258,52.984 78.825,52.984 	"/>
</g>
</svg>
