<?xml version="1.0" encoding="utf-8"?>
<!-- Generator: Adobe Illustrator 21.1.0, SVG Export Plug-In . SVG Version: 6.00 Build 0)  -->
<svg version="1.1" id="Ebene_1" xmlns="http://www.w3.org/2000/svg" xmlns:xlink="http://www.w3.org/1999/xlink" x="0px" y="0px"
	 viewBox="0 0 200 200" enable-background="new 0 0 200 200" xml:space="preserve">
<rect x="0.333" y="0.333" fill="#FFFFFF" width="200" height="200.667"/>
<g>
	<g>
		<path fill="#4D4D4D" d="M49.539,3.386V2.834h1.528v2.72c-0.673,0.128-1.272,0.192-1.801,0.192c-0.805,0-1.363-0.232-1.676-0.696
			c-0.312-0.464-0.468-1.18-0.468-2.147c0-0.969,0.156-1.686,0.468-2.152c0.312-0.467,0.865-0.7,1.66-0.7
			c0.496,0,1.011,0.054,1.544,0.16l0.272,0.048L51.043,0.77c-0.661-0.111-1.234-0.168-1.72-0.168c-0.613,0-1.027,0.178-1.24,0.532
			c-0.214,0.354-0.32,0.944-0.32,1.769c0,0.823,0.106,1.413,0.32,1.768c0.213,0.354,0.624,0.532,1.232,0.532
			c0.373,0,0.754-0.037,1.144-0.112V3.386H49.539z"/>
		<path fill="#4D4D4D" d="M54.891,5.17l0.232-0.023l0.016,0.472c-0.608,0.085-1.128,0.128-1.56,0.128
			c-0.576,0-0.984-0.167-1.225-0.5s-0.359-0.853-0.359-1.556c0-1.403,0.557-2.104,1.672-2.104c0.538,0,0.941,0.15,1.208,0.452
			s0.399,0.774,0.399,1.42l-0.031,0.456h-2.641c0,0.442,0.08,0.771,0.24,0.984c0.16,0.213,0.438,0.319,0.836,0.319
			S54.479,5.203,54.891,5.17z M54.675,3.434c0-0.49-0.079-0.837-0.236-1.04c-0.157-0.202-0.413-0.304-0.768-0.304
			s-0.621,0.106-0.8,0.32c-0.179,0.213-0.271,0.555-0.276,1.023H54.675z"/>
		<path fill="#4D4D4D" d="M56.811,5.667h-0.6v-4h0.592v0.28c0.432-0.24,0.846-0.36,1.24-0.36c0.533,0,0.892,0.145,1.076,0.432
			c0.184,0.288,0.275,0.801,0.275,1.536v2.112h-0.592V3.571c0-0.555-0.055-0.935-0.164-1.141c-0.109-0.205-0.343-0.308-0.7-0.308
			c-0.171,0-0.351,0.025-0.54,0.076s-0.334,0.1-0.436,0.147l-0.152,0.072V5.667z"/>
		<path fill="#4D4D4D" d="M63.003,1.667h0.6v4h-0.6v-0.28c-0.4,0.24-0.795,0.36-1.185,0.36c-0.544,0-0.905-0.142-1.084-0.424
			c-0.179-0.283-0.268-0.806-0.268-1.568V1.667h0.6v2.08c0,0.581,0.051,0.971,0.152,1.168s0.33,0.296,0.688,0.296
			c0.177,0,0.355-0.025,0.536-0.076c0.182-0.051,0.32-0.1,0.416-0.147l0.145-0.072V1.667z"/>
		<path fill="#4D4D4D" d="M66.011,2.123c-0.581,0-0.872,0.203-0.872,0.608c0,0.187,0.066,0.318,0.2,0.396
			c0.133,0.077,0.438,0.157,0.912,0.24s0.811,0.198,1.008,0.348s0.296,0.43,0.296,0.84c0,0.411-0.132,0.712-0.396,0.904
			c-0.265,0.192-0.649,0.288-1.156,0.288c-0.331,0-0.721-0.037-1.168-0.112l-0.24-0.04l0.032-0.52
			c0.607,0.091,1.066,0.136,1.376,0.136c0.309,0,0.545-0.049,0.708-0.147c0.162-0.099,0.244-0.265,0.244-0.496
			c0-0.232-0.069-0.39-0.208-0.473c-0.139-0.082-0.443-0.161-0.912-0.235c-0.47-0.075-0.803-0.185-1-0.328
			c-0.197-0.145-0.296-0.411-0.296-0.8c0-0.39,0.137-0.678,0.412-0.864c0.274-0.187,0.617-0.28,1.027-0.28
			c0.325,0,0.733,0.037,1.225,0.112l0.224,0.04L67.411,2.25C66.818,2.166,66.352,2.123,66.011,2.123z"/>
		<path fill="#4D4D4D" d="M69.73,2.123c-0.581,0-0.872,0.203-0.872,0.608c0,0.187,0.066,0.318,0.2,0.396
			c0.133,0.077,0.438,0.157,0.912,0.24s0.811,0.198,1.008,0.348s0.296,0.43,0.296,0.84c0,0.411-0.132,0.712-0.396,0.904
			c-0.265,0.192-0.649,0.288-1.156,0.288c-0.331,0-0.721-0.037-1.168-0.112l-0.24-0.04l0.032-0.52
			c0.607,0.091,1.066,0.136,1.376,0.136c0.309,0,0.545-0.049,0.708-0.147c0.162-0.099,0.244-0.265,0.244-0.496
			c0-0.232-0.069-0.39-0.208-0.473c-0.139-0.082-0.443-0.161-0.912-0.235c-0.47-0.075-0.803-0.185-1-0.328
			c-0.197-0.145-0.296-0.411-0.296-0.8c0-0.39,0.137-0.678,0.412-0.864c0.274-0.187,0.617-0.28,1.027-0.28
			c0.325,0,0.733,0.037,1.225,0.112l0.224,0.04L71.131,2.25C70.538,2.166,70.071,2.123,69.73,2.123z"/>
		<path fill="#4D4D4D" d="M73.69,1.586c0.176,0,0.475,0.032,0.896,0.096l0.192,0.024l-0.024,0.488
			c-0.427-0.048-0.741-0.072-0.943-0.072c-0.454,0-0.762,0.108-0.925,0.324c-0.162,0.216-0.243,0.616-0.243,1.2
			s0.075,0.99,0.228,1.22s0.468,0.344,0.948,0.344l0.943-0.072l0.024,0.496c-0.496,0.075-0.867,0.112-1.112,0.112
			c-0.624,0-1.055-0.16-1.292-0.48c-0.237-0.319-0.355-0.859-0.355-1.619c0-0.761,0.128-1.294,0.384-1.601S73.093,1.586,73.69,1.586
			z"/>
		<path fill="#4D4D4D" d="M76.282,5.667h-0.6v-5.744h0.6V1.89c0.427-0.202,0.838-0.304,1.232-0.304c0.533,0,0.892,0.145,1.076,0.432
			c0.184,0.288,0.275,0.801,0.275,1.536v2.112h-0.6V3.571c0-0.555-0.055-0.935-0.164-1.141c-0.109-0.205-0.34-0.308-0.692-0.308
			c-0.336,0-0.661,0.062-0.976,0.184l-0.152,0.057V5.667z"/>
		<path fill="#4D4D4D" d="M82.698,5.17l0.232-0.023l0.016,0.472c-0.608,0.085-1.128,0.128-1.56,0.128
			c-0.576,0-0.984-0.167-1.225-0.5s-0.359-0.853-0.359-1.556c0-1.403,0.557-2.104,1.672-2.104c0.538,0,0.941,0.15,1.208,0.452
			s0.399,0.774,0.399,1.42l-0.031,0.456H80.41c0,0.442,0.08,0.771,0.24,0.984c0.16,0.213,0.438,0.319,0.836,0.319
			S82.287,5.203,82.698,5.17z M82.482,3.434c0-0.49-0.079-0.837-0.236-1.04c-0.157-0.202-0.413-0.304-0.768-0.304
			s-0.621,0.106-0.8,0.32c-0.179,0.213-0.271,0.555-0.276,1.023H82.482z"/>
		<path fill="#4D4D4D" d="M84.019,0.762V0.067h0.6v0.695H84.019z M84.019,5.667v-4h0.6v4H84.019z"/>
		<path fill="#4D4D4D" d="M86.37,5.667h-0.6v-4h0.592v0.28c0.432-0.24,0.846-0.36,1.24-0.36c0.533,0,0.892,0.145,1.076,0.432
			c0.184,0.288,0.275,0.801,0.275,1.536v2.112h-0.592V3.571c0-0.555-0.055-0.935-0.164-1.141c-0.109-0.205-0.343-0.308-0.7-0.308
			c-0.171,0-0.351,0.025-0.54,0.076s-0.334,0.1-0.436,0.147L86.37,2.418V5.667z"/>
	</g>
</g>
<g>
	<g>
		<path fill="#4D4D4D" d="M94.72,41.308H51.734V17.186H94.72V41.308z M52.942,40.101h40.571V18.394H52.942V40.101z"/>
	</g>
	<g>
		<path fill="#4D4D4D" d="M80.608,26.755c0,1.357-0.227,2.383-0.683,3.076c-0.455,0.694-1.122,1.041-2.003,1.041
			c-0.833,0-1.479-0.354-1.94-1.063c-0.461-0.708-0.691-1.727-0.691-3.054c0-1.352,0.221-2.37,0.664-3.055
			c0.443-0.684,1.099-1.027,1.967-1.027c0.862,0,1.526,0.354,1.99,1.063C80.376,24.445,80.608,25.45,80.608,26.755z M76.522,26.755
			c0,1.012,0.11,1.771,0.33,2.277c0.22,0.506,0.577,0.759,1.071,0.759c0.975,0,1.463-1.012,1.463-3.036
			c0-2.013-0.488-3.019-1.463-3.019c-0.494,0-0.851,0.25-1.071,0.75C76.632,24.986,76.522,25.742,76.522,26.755z M86.166,22.861
			l-7.235,13.057H77.62l7.235-13.057H86.166z M88.468,31.988c0,1.352-0.227,2.374-0.683,3.068c-0.455,0.693-1.123,1.04-2.003,1.04
			c-0.845,0-1.495-0.354-1.949-1.063c-0.455-0.709-0.683-1.724-0.683-3.046c0-1.351,0.222-2.37,0.665-3.054
			c0.443-0.684,1.099-1.027,1.967-1.027c0.845,0,1.503,0.35,1.976,1.049C88.232,29.656,88.468,30.666,88.468,31.988z M84.373,31.988
			c0,1.018,0.11,1.779,0.33,2.282c0.22,0.503,0.58,0.755,1.079,0.755c0.5,0,0.868-0.248,1.106-0.746
			c0.238-0.497,0.357-1.261,0.357-2.291c0-1.018-0.119-1.773-0.357-2.264c-0.238-0.491-0.607-0.737-1.106-0.737
			c-0.5,0-0.86,0.246-1.079,0.737C84.483,30.215,84.373,30.97,84.373,31.988z"/>
	</g>
	<g>
		<rect x="52.544" y="29.974" fill="#4D4D4D" width="14.422" height="1.207"/>
	</g>
	<g>
		<rect x="52.544" y="32.366" fill="#4D4D4D" width="14.422" height="1.207"/>
	</g>
	<g>
		<rect x="52.544" y="34.758" fill="#4D4D4D" width="14.422" height="1.207"/>
	</g>
	<circle fill="#4D4D4D" cx="94.117" cy="17.584" r="1.915"/>
	<circle fill="#4D4D4D" cx="94.117" cy="40.705" r="1.915"/>
	<circle fill="#4D4D4D" cx="52.338" cy="17.584" r="1.915"/>
	<circle fill="#4D4D4D" cx="52.338" cy="40.705" r="1.915"/>
	<g>
		<path fill="#4D4D4D" d="M100.532,47.125h-54.55V11.382h54.55V47.125z M47.189,45.918h52.136V12.589H47.189V45.918z"/>
	</g>
</g>
<g>
	<g>
		<path fill="#4D4D4D" d="M3.763,120.035c-0.581,0-0.872,0.203-0.872,0.608c0,0.187,0.066,0.318,0.2,0.396
			c0.133,0.077,0.438,0.157,0.912,0.24s0.811,0.198,1.008,0.348s0.296,0.43,0.296,0.84c0,0.411-0.132,0.712-0.396,0.904
			c-0.265,0.192-0.649,0.288-1.156,0.288c-0.331,0-0.721-0.037-1.168-0.112l-0.24-0.04l0.032-0.52
			c0.607,0.091,1.066,0.136,1.376,0.136c0.309,0,0.545-0.049,0.708-0.147c0.162-0.099,0.244-0.265,0.244-0.496
			c0-0.232-0.069-0.39-0.208-0.473c-0.139-0.082-0.443-0.161-0.912-0.235c-0.47-0.075-0.803-0.185-1-0.328
			c-0.197-0.145-0.296-0.411-0.296-0.8c0-0.39,0.137-0.678,0.412-0.864c0.274-0.187,0.617-0.28,1.027-0.28
			c0.325,0,0.733,0.037,1.225,0.112l0.224,0.04l-0.016,0.512C4.57,120.078,4.104,120.035,3.763,120.035z"/>
		<path fill="#4D4D4D" d="M8.946,123.083l0.232-0.023l0.016,0.472c-0.608,0.085-1.128,0.128-1.56,0.128
			c-0.576,0-0.984-0.167-1.225-0.5s-0.359-0.853-0.359-1.556c0-1.403,0.557-2.104,1.672-2.104c0.538,0,0.941,0.15,1.208,0.452
			s0.399,0.774,0.399,1.42l-0.031,0.456H6.658c0,0.442,0.08,0.771,0.24,0.984c0.16,0.213,0.438,0.319,0.836,0.319
			S8.535,123.115,8.946,123.083z M8.73,121.347c0-0.49-0.079-0.837-0.236-1.04c-0.157-0.202-0.413-0.304-0.768-0.304
			s-0.621,0.106-0.8,0.32c-0.179,0.213-0.271,0.555-0.276,1.023H8.73z"/>
		<path fill="#4D4D4D" d="M10.866,123.579h-0.6v-5.744h0.6v1.968c0.427-0.202,0.838-0.304,1.232-0.304
			c0.533,0,0.892,0.145,1.076,0.432c0.184,0.288,0.275,0.801,0.275,1.536v2.112h-0.6v-2.096c0-0.555-0.055-0.935-0.164-1.141
			c-0.109-0.205-0.34-0.308-0.692-0.308c-0.336,0-0.661,0.062-0.976,0.184l-0.152,0.057V123.579z"/>
		<path fill="#4D4D4D" d="M14.562,123.579v-4h0.592v0.544c0.464-0.32,0.952-0.53,1.464-0.632v0.607
			c-0.224,0.043-0.457,0.109-0.7,0.2c-0.242,0.091-0.428,0.171-0.556,0.24l-0.2,0.104v2.936H14.562z"/>
		<path fill="#4D4D4D" d="M20.635,125.459c-0.64,0-1.087-0.087-1.34-0.26c-0.254-0.174-0.38-0.489-0.38-0.948
			c0-0.219,0.048-0.396,0.144-0.532c0.096-0.136,0.259-0.289,0.488-0.46c-0.149-0.101-0.225-0.285-0.225-0.552
			c0-0.091,0.067-0.259,0.2-0.504l0.072-0.128c-0.422-0.192-0.632-0.595-0.632-1.208c0-0.912,0.498-1.368,1.496-1.368
			c0.256,0,0.493,0.026,0.712,0.08l0.12,0.024l1.184-0.032v0.512l-0.76-0.016c0.176,0.176,0.264,0.442,0.264,0.8
			c0,0.501-0.124,0.852-0.372,1.052s-0.639,0.3-1.172,0.3c-0.144,0-0.274-0.011-0.392-0.031c-0.097,0.234-0.145,0.387-0.145,0.456
			c0,0.165,0.051,0.268,0.152,0.308s0.408,0.06,0.92,0.06s0.88,0.08,1.104,0.24c0.225,0.16,0.337,0.472,0.337,0.937
			C22.411,125.035,21.818,125.459,20.635,125.459z M19.507,124.203c0,0.282,0.078,0.479,0.235,0.588s0.448,0.164,0.872,0.164
			c0.425,0,0.729-0.059,0.912-0.176c0.185-0.117,0.276-0.313,0.276-0.588c0-0.275-0.066-0.452-0.2-0.532
			c-0.133-0.08-0.395-0.12-0.784-0.12l-0.863-0.04c-0.177,0.128-0.295,0.24-0.356,0.336S19.507,124.054,19.507,124.203z
			 M19.562,120.867c0,0.314,0.07,0.539,0.212,0.672c0.142,0.134,0.375,0.2,0.7,0.2s0.558-0.066,0.696-0.2
			c0.139-0.133,0.208-0.358,0.208-0.676s-0.069-0.543-0.208-0.676c-0.139-0.134-0.371-0.2-0.696-0.2s-0.559,0.067-0.7,0.204
			C19.633,120.327,19.562,120.553,19.562,120.867z"/>
		<path fill="#4D4D4D" d="M25.698,119.579h0.6v4h-0.6v-0.28c-0.4,0.24-0.795,0.36-1.185,0.36c-0.544,0-0.905-0.142-1.084-0.424
			c-0.179-0.283-0.268-0.806-0.268-1.568v-2.088h0.6v2.08c0,0.581,0.051,0.971,0.152,1.168s0.33,0.296,0.688,0.296
			c0.177,0,0.355-0.025,0.536-0.076c0.182-0.051,0.32-0.1,0.416-0.147l0.145-0.072V119.579z"/>
		<path fill="#4D4D4D" d="M29.522,120.099H28.25v1.912c0,0.459,0.033,0.761,0.1,0.904c0.067,0.145,0.226,0.216,0.477,0.216
			l0.712-0.048l0.04,0.496c-0.357,0.059-0.63,0.088-0.816,0.088c-0.416,0-0.704-0.102-0.863-0.304c-0.16-0.203-0.24-0.59-0.24-1.16
			v-2.104H27.09v-0.52h0.568v-1.224h0.592v1.224h1.272V120.099z"/>
		<path fill="#4D4D4D" d="M31.643,119.579h0.64l0.937,3.48h0.296l0.968-3.48h0.616l-1.128,4h-1.2L31.643,119.579z"/>
		<path fill="#4D4D4D" d="M38.514,123.083l0.232-0.023l0.016,0.472c-0.608,0.085-1.128,0.128-1.56,0.128
			c-0.576,0-0.984-0.167-1.225-0.5s-0.359-0.853-0.359-1.556c0-1.403,0.557-2.104,1.672-2.104c0.538,0,0.941,0.15,1.208,0.452
			s0.399,0.774,0.399,1.42l-0.031,0.456h-2.641c0,0.442,0.08,0.771,0.24,0.984c0.16,0.213,0.438,0.319,0.836,0.319
			S38.103,123.115,38.514,123.083z M38.298,121.347c0-0.49-0.079-0.837-0.236-1.04c-0.157-0.202-0.413-0.304-0.768-0.304
			s-0.621,0.106-0.8,0.32c-0.179,0.213-0.271,0.555-0.276,1.023H38.298z"/>
		<path fill="#4D4D4D" d="M39.834,123.579v-4h0.592v0.544c0.464-0.32,0.952-0.53,1.464-0.632v0.607
			c-0.224,0.043-0.457,0.109-0.7,0.2c-0.242,0.091-0.428,0.171-0.556,0.24l-0.2,0.104v2.936H39.834z"/>
		<path fill="#4D4D4D" d="M42.362,120.115v-0.536h2.968v0.536l-2.239,2.928h2.239v0.536h-2.968v-0.536l2.24-2.928H42.362z"/>
		<path fill="#4D4D4D" d="M46.242,118.675v-0.695h0.6v0.695H46.242z M46.242,123.579v-4h0.6v4H46.242z"/>
		<path fill="#4D4D4D" d="M48.594,123.579h-0.6v-4h0.592v0.28c0.432-0.24,0.846-0.36,1.24-0.36c0.533,0,0.892,0.145,1.076,0.432
			c0.184,0.288,0.275,0.801,0.275,1.536v2.112h-0.592v-2.096c0-0.555-0.055-0.935-0.164-1.141c-0.109-0.205-0.343-0.308-0.7-0.308
			c-0.171,0-0.351,0.025-0.54,0.076s-0.334,0.1-0.436,0.147l-0.152,0.072V123.579z"/>
		<path fill="#4D4D4D" d="M53.546,120.035c-0.581,0-0.872,0.203-0.872,0.608c0,0.187,0.066,0.318,0.2,0.396
			c0.133,0.077,0.438,0.157,0.912,0.24s0.811,0.198,1.008,0.348s0.296,0.43,0.296,0.84c0,0.411-0.132,0.712-0.396,0.904
			c-0.265,0.192-0.649,0.288-1.156,0.288c-0.331,0-0.721-0.037-1.168-0.112l-0.24-0.04l0.032-0.52
			c0.607,0.091,1.066,0.136,1.376,0.136c0.309,0,0.545-0.049,0.708-0.147c0.162-0.099,0.244-0.265,0.244-0.496
			c0-0.232-0.069-0.39-0.208-0.473c-0.139-0.082-0.443-0.161-0.912-0.235c-0.47-0.075-0.803-0.185-1-0.328
			c-0.197-0.145-0.296-0.411-0.296-0.8c0-0.39,0.137-0.678,0.412-0.864c0.274-0.187,0.617-0.28,1.027-0.28
			c0.325,0,0.733,0.037,1.225,0.112l0.224,0.04l-0.016,0.512C54.354,120.078,53.887,120.035,53.546,120.035z"/>
		<path fill="#4D4D4D" d="M58.082,120.099H56.81v1.912c0,0.459,0.033,0.761,0.1,0.904c0.067,0.145,0.226,0.216,0.477,0.216
			l0.712-0.048l0.04,0.496c-0.357,0.059-0.63,0.088-0.816,0.088c-0.416,0-0.704-0.102-0.863-0.304c-0.16-0.203-0.24-0.59-0.24-1.16
			v-2.104h-0.568v-0.52h0.568v-1.224h0.592v1.224h1.272V120.099z"/>
	</g>
</g>
<g>
	<g>
		<path fill="#4D4D4D" d="M119.612,88.829v-4h0.592v0.544c0.464-0.32,0.952-0.53,1.464-0.632v0.607
			c-0.224,0.043-0.457,0.109-0.7,0.2c-0.242,0.091-0.428,0.171-0.556,0.24l-0.2,0.104v2.936H119.612z"/>
		<path fill="#4D4D4D" d="M122.38,83.925v-0.695h0.6v0.695H122.38z M122.38,88.829v-4h0.6v4H122.38z"/>
		<path fill="#4D4D4D" d="M125.388,85.285c-0.581,0-0.872,0.203-0.872,0.608c0,0.187,0.066,0.318,0.2,0.396
			c0.133,0.077,0.438,0.157,0.912,0.24s0.811,0.198,1.008,0.348s0.296,0.43,0.296,0.84c0,0.411-0.132,0.712-0.396,0.904
			c-0.265,0.192-0.649,0.288-1.156,0.288c-0.331,0-0.721-0.037-1.168-0.112l-0.24-0.04l0.032-0.52
			c0.607,0.091,1.066,0.136,1.376,0.136c0.309,0,0.545-0.049,0.708-0.147c0.162-0.099,0.244-0.265,0.244-0.496
			c0-0.232-0.069-0.39-0.208-0.473c-0.139-0.082-0.443-0.161-0.912-0.235c-0.47-0.075-0.803-0.185-1-0.328
			c-0.197-0.145-0.296-0.411-0.296-0.8c0-0.39,0.137-0.678,0.412-0.864c0.274-0.187,0.617-0.28,1.027-0.28
			c0.325,0,0.733,0.037,1.225,0.112l0.224,0.04l-0.016,0.512C126.195,85.328,125.729,85.285,125.388,85.285z"/>
		<path fill="#4D4D4D" d="M127.853,83.925v-0.695h0.6v0.695H127.853z M127.853,88.829v-4h0.6v4H127.853z"/>
		<path fill="#4D4D4D" d="M130.204,88.829h-0.6v-5.744h0.6v3.393l0.624-0.032l1.145-1.616h0.68l-1.304,1.84l1.359,2.16h-0.68
			l-1.192-1.856l-0.632,0.024V88.829z"/>
		<path fill="#4D4D4D" d="M133.156,86.821c0-0.73,0.13-1.259,0.392-1.584s0.702-0.488,1.324-0.488c0.621,0,1.062,0.163,1.319,0.488
			c0.259,0.325,0.389,0.854,0.389,1.584s-0.123,1.261-0.368,1.592s-0.693,0.496-1.344,0.496c-0.651,0-1.099-0.165-1.345-0.496
			C133.278,88.082,133.156,87.552,133.156,86.821z M133.771,86.81c0,0.584,0.071,0.993,0.212,1.228
			c0.142,0.234,0.438,0.352,0.889,0.352c0.45,0,0.745-0.115,0.884-0.348c0.139-0.231,0.208-0.642,0.208-1.228
			c0-0.587-0.077-0.991-0.232-1.212c-0.154-0.222-0.441-0.332-0.859-0.332c-0.419,0-0.707,0.11-0.864,0.332
			C133.851,85.822,133.771,86.226,133.771,86.81z"/>
		<path fill="#4D4D4D" d="M137.556,88.829v-4h0.592v0.544c0.464-0.32,0.952-0.53,1.464-0.632v0.607
			c-0.224,0.043-0.457,0.109-0.7,0.2c-0.242,0.091-0.428,0.171-0.556,0.24l-0.2,0.104v2.936H137.556z"/>
		<path fill="#4D4D4D" d="M142.964,88.333l0.232-0.023l0.016,0.472c-0.608,0.085-1.128,0.128-1.56,0.128
			c-0.576,0-0.984-0.167-1.225-0.5s-0.359-0.853-0.359-1.556c0-1.403,0.557-2.104,1.672-2.104c0.538,0,0.941,0.15,1.208,0.452
			s0.399,0.774,0.399,1.42l-0.031,0.456h-2.641c0,0.442,0.08,0.771,0.24,0.984c0.16,0.213,0.438,0.319,0.836,0.319
			S142.553,88.365,142.964,88.333z M142.748,86.597c0-0.49-0.079-0.837-0.236-1.04c-0.157-0.202-0.413-0.304-0.768-0.304
			s-0.621,0.106-0.8,0.32c-0.179,0.213-0.271,0.555-0.276,1.023H142.748z"/>
		<path fill="#4D4D4D" d="M144.284,83.925v-0.695h0.6v0.695H144.284z M144.284,88.829v-4h0.6v4H144.284z"/>
		<path fill="#4D4D4D" d="M147.532,84.749c0.176,0,0.475,0.032,0.896,0.096l0.192,0.024l-0.024,0.488
			c-0.427-0.048-0.741-0.072-0.943-0.072c-0.454,0-0.762,0.108-0.925,0.324c-0.162,0.216-0.243,0.616-0.243,1.2
			s0.075,0.99,0.228,1.22s0.468,0.344,0.948,0.344l0.943-0.072l0.024,0.496c-0.496,0.075-0.867,0.112-1.112,0.112
			c-0.624,0-1.055-0.16-1.292-0.48c-0.237-0.319-0.355-0.859-0.355-1.619c0-0.761,0.128-1.294,0.384-1.601
			S146.935,84.749,147.532,84.749z"/>
		<path fill="#4D4D4D" d="M150.124,88.829h-0.6v-5.744h0.6v1.968c0.427-0.202,0.838-0.304,1.232-0.304
			c0.533,0,0.892,0.145,1.076,0.432c0.184,0.288,0.275,0.801,0.275,1.536v2.112h-0.6v-2.096c0-0.555-0.055-0.935-0.164-1.141
			c-0.109-0.205-0.34-0.308-0.692-0.308c-0.336,0-0.661,0.062-0.976,0.184l-0.152,0.057V88.829z"/>
	</g>
</g>
<g>
	<g>
		<path fill="#4D4D4D" d="M120.212,123.558h-0.6v-4h0.592v0.28c0.4-0.24,0.789-0.36,1.168-0.36c0.496,0,0.843,0.136,1.04,0.408
			c0.176-0.106,0.404-0.201,0.684-0.284c0.28-0.083,0.527-0.124,0.74-0.124c0.533,0,0.893,0.143,1.076,0.428
			c0.184,0.286,0.276,0.799,0.276,1.54v2.112h-0.601v-2.096c0-0.555-0.053-0.935-0.16-1.141c-0.106-0.205-0.333-0.308-0.68-0.308
			c-0.176,0-0.357,0.025-0.544,0.076s-0.331,0.1-0.432,0.147l-0.152,0.072c0.069,0.176,0.104,0.565,0.104,1.168v2.08h-0.601v-2.064
			c0-0.575-0.052-0.966-0.156-1.172c-0.104-0.205-0.332-0.308-0.684-0.308c-0.171,0-0.346,0.025-0.524,0.076s-0.315,0.1-0.412,0.147
			l-0.136,0.072V123.558z"/>
		<path fill="#4D4D4D" d="M129.02,123.062l0.232-0.023l0.016,0.472c-0.608,0.085-1.128,0.128-1.56,0.128
			c-0.576,0-0.984-0.167-1.225-0.5s-0.359-0.853-0.359-1.556c0-1.403,0.557-2.104,1.672-2.104c0.538,0,0.941,0.15,1.208,0.452
			s0.399,0.774,0.399,1.42l-0.031,0.456h-2.641c0,0.442,0.08,0.771,0.24,0.984c0.16,0.213,0.438,0.319,0.836,0.319
			S128.608,123.094,129.02,123.062z M128.804,121.325c0-0.49-0.079-0.837-0.236-1.04c-0.157-0.202-0.413-0.304-0.768-0.304
			s-0.621,0.106-0.8,0.32c-0.179,0.213-0.271,0.555-0.276,1.023H128.804z"/>
		<path fill="#4D4D4D" d="M130.34,118.653v-0.695h0.6v0.695H130.34z M130.34,123.558v-4h0.6v4H130.34z"/>
		<path fill="#4D4D4D" d="M133.348,120.014c-0.581,0-0.872,0.203-0.872,0.608c0,0.187,0.066,0.318,0.2,0.396
			c0.133,0.077,0.438,0.157,0.912,0.24s0.811,0.198,1.008,0.348s0.296,0.43,0.296,0.84c0,0.411-0.132,0.712-0.396,0.904
			c-0.265,0.192-0.649,0.288-1.156,0.288c-0.331,0-0.721-0.037-1.168-0.112l-0.24-0.04l0.032-0.52
			c0.607,0.091,1.066,0.136,1.376,0.136c0.309,0,0.545-0.049,0.708-0.147c0.162-0.099,0.244-0.265,0.244-0.496
			c0-0.232-0.069-0.39-0.208-0.473c-0.139-0.082-0.443-0.161-0.912-0.235c-0.47-0.075-0.803-0.185-1-0.328
			c-0.197-0.145-0.296-0.411-0.296-0.8c0-0.39,0.137-0.678,0.412-0.864c0.274-0.187,0.617-0.28,1.027-0.28
			c0.325,0,0.733,0.037,1.225,0.112l0.224,0.04l-0.016,0.512C134.155,120.057,133.688,120.014,133.348,120.014z"/>
		<path fill="#4D4D4D" d="M137.885,120.077h-1.272v1.912c0,0.459,0.033,0.761,0.1,0.904c0.067,0.145,0.226,0.216,0.477,0.216
			l0.712-0.048l0.04,0.496c-0.357,0.059-0.63,0.088-0.816,0.088c-0.416,0-0.704-0.102-0.863-0.304c-0.16-0.203-0.24-0.59-0.24-1.16
			v-2.104h-0.568v-0.52h0.568v-1.224h0.592v1.224h1.272V120.077z"/>
		<path fill="#4D4D4D" d="M140.979,123.558h-0.6v-5.744h0.6v3.393l0.624-0.032l1.145-1.616h0.68l-1.304,1.84l1.359,2.16h-0.68
			l-1.192-1.856l-0.632,0.024V123.558z"/>
		<path fill="#4D4D4D" d="M146.828,123.062l0.232-0.023l0.016,0.472c-0.608,0.085-1.128,0.128-1.56,0.128
			c-0.576,0-0.984-0.167-1.225-0.5s-0.359-0.853-0.359-1.556c0-1.403,0.557-2.104,1.672-2.104c0.538,0,0.941,0.15,1.208,0.452
			s0.399,0.774,0.399,1.42l-0.031,0.456h-2.641c0,0.442,0.08,0.771,0.24,0.984c0.16,0.213,0.438,0.319,0.836,0.319
			S146.417,123.094,146.828,123.062z M146.612,121.325c0-0.49-0.079-0.837-0.236-1.04c-0.157-0.202-0.413-0.304-0.768-0.304
			s-0.621,0.106-0.8,0.32c-0.179,0.213-0.271,0.555-0.276,1.023H146.612z"/>
		<path fill="#4D4D4D" d="M148.147,118.653v-0.695h0.6v0.695H148.147z M148.147,123.558v-4h0.6v4H148.147z"/>
		<path fill="#4D4D4D" d="M150.499,123.558h-0.6v-4h0.592v0.28c0.432-0.24,0.846-0.36,1.24-0.36c0.533,0,0.892,0.145,1.076,0.432
			c0.184,0.288,0.275,0.801,0.275,1.536v2.112h-0.592v-2.096c0-0.555-0.055-0.935-0.164-1.141c-0.109-0.205-0.343-0.308-0.7-0.308
			c-0.171,0-0.351,0.025-0.54,0.076s-0.334,0.1-0.436,0.147l-0.152,0.072V123.558z"/>
		<path fill="#4D4D4D" d="M156.916,123.062l0.232-0.023l0.016,0.472c-0.608,0.085-1.128,0.128-1.56,0.128
			c-0.576,0-0.984-0.167-1.225-0.5s-0.359-0.853-0.359-1.556c0-1.403,0.557-2.104,1.672-2.104c0.538,0,0.941,0.15,1.208,0.452
			s0.399,0.774,0.399,1.42l-0.031,0.456h-2.641c0,0.442,0.08,0.771,0.24,0.984c0.16,0.213,0.438,0.319,0.836,0.319
			S156.505,123.094,156.916,123.062z M156.7,121.325c0-0.49-0.079-0.837-0.236-1.04c-0.157-0.202-0.413-0.304-0.768-0.304
			s-0.621,0.106-0.8,0.32c-0.179,0.213-0.271,0.555-0.276,1.023H156.7z"/>
		<path fill="#4D4D4D" d="M160.003,123.454v-3.896h0.592v3.904c0,0.49-0.088,0.858-0.264,1.104s-0.531,0.504-1.064,0.776
			l-0.239-0.464c0.416-0.24,0.683-0.444,0.8-0.612S160.003,123.827,160.003,123.454z M160.003,118.653v-0.695h0.592v0.695H160.003z"
			/>
		<path fill="#4D4D4D" d="M164.571,120.766v2.048c0.016,0.197,0.17,0.314,0.464,0.353l-0.024,0.472c-0.421,0-0.738-0.106-0.952-0.32
			c-0.479,0.214-0.96,0.32-1.439,0.32c-0.368,0-0.648-0.104-0.84-0.312c-0.192-0.208-0.288-0.506-0.288-0.896
			s0.099-0.676,0.296-0.86c0.197-0.184,0.507-0.297,0.928-0.34l1.256-0.12v-0.344c0-0.272-0.059-0.467-0.176-0.584
			s-0.277-0.176-0.48-0.176c-0.427,0-0.869,0.026-1.327,0.08l-0.248,0.023l-0.024-0.456c0.587-0.117,1.106-0.176,1.56-0.176
			c0.454,0,0.783,0.104,0.988,0.312S164.571,120.323,164.571,120.766z M162.011,118.59v-0.721h0.576v0.721H162.011z
			 M162.106,122.397c0,0.491,0.203,0.736,0.608,0.736c0.362,0,0.72-0.062,1.072-0.185l0.184-0.063v-1.32l-1.184,0.112
			c-0.24,0.021-0.414,0.091-0.521,0.208S162.106,122.174,162.106,122.397z M163.611,118.59v-0.721h0.584v0.721H163.611z"/>
		<path fill="#4D4D4D" d="M166.355,123.558h-0.6v-5.744h0.6v1.968c0.427-0.202,0.838-0.304,1.232-0.304
			c0.533,0,0.892,0.145,1.076,0.432c0.184,0.288,0.275,0.801,0.275,1.536v2.112h-0.6v-2.096c0-0.555-0.055-0.935-0.164-1.141
			c-0.109-0.205-0.34-0.308-0.692-0.308c-0.336,0-0.661,0.062-0.976,0.184l-0.152,0.057V123.558z"/>
		<path fill="#4D4D4D" d="M170.052,123.558v-4h0.592v0.544c0.464-0.32,0.952-0.53,1.464-0.632v0.607
			c-0.224,0.043-0.457,0.109-0.7,0.2c-0.242,0.091-0.428,0.171-0.556,0.24l-0.2,0.104v2.936H170.052z"/>
		<path fill="#4D4D4D" d="M172.867,123.558v-5.744h0.6v5.744H172.867z"/>
		<path fill="#4D4D4D" d="M174.667,118.653v-0.695h0.6v0.695H174.667z M174.667,123.558v-4h0.6v4H174.667z"/>
		<path fill="#4D4D4D" d="M177.915,119.478c0.176,0,0.475,0.032,0.896,0.096l0.192,0.024l-0.024,0.488
			c-0.427-0.048-0.741-0.072-0.943-0.072c-0.454,0-0.762,0.108-0.925,0.324c-0.162,0.216-0.243,0.616-0.243,1.2
			s0.075,0.99,0.228,1.22s0.468,0.344,0.948,0.344l0.943-0.072l0.024,0.496c-0.496,0.075-0.867,0.112-1.112,0.112
			c-0.624,0-1.055-0.16-1.292-0.48c-0.237-0.319-0.355-0.859-0.355-1.619c0-0.761,0.128-1.294,0.384-1.601
			S177.317,119.478,177.915,119.478z"/>
		<path fill="#4D4D4D" d="M180.507,123.558h-0.6v-5.744h0.6v1.968c0.427-0.202,0.838-0.304,1.232-0.304
			c0.533,0,0.892,0.145,1.076,0.432c0.184,0.288,0.275,0.801,0.275,1.536v2.112h-0.6v-2.096c0-0.555-0.055-0.935-0.164-1.141
			c-0.109-0.205-0.34-0.308-0.692-0.308c-0.336,0-0.661,0.062-0.976,0.184l-0.152,0.057V123.558z"/>
		<path fill="#4D4D4D" d="M186.923,123.062l0.232-0.023l0.016,0.472c-0.608,0.085-1.128,0.128-1.56,0.128
			c-0.576,0-0.984-0.167-1.225-0.5s-0.359-0.853-0.359-1.556c0-1.403,0.557-2.104,1.672-2.104c0.538,0,0.941,0.15,1.208,0.452
			s0.399,0.774,0.399,1.42l-0.031,0.456h-2.641c0,0.442,0.08,0.771,0.24,0.984c0.16,0.213,0.438,0.319,0.836,0.319
			S186.512,123.094,186.923,123.062z M186.707,121.325c0-0.49-0.079-0.837-0.236-1.04c-0.157-0.202-0.413-0.304-0.768-0.304
			s-0.621,0.106-0.8,0.32c-0.179,0.213-0.271,0.555-0.276,1.023H186.707z"/>
		<path fill="#4D4D4D" d="M119.229,133.157l1.52-5.536h1.344l1.521,5.536h-0.608l-0.399-1.424h-2.368l-0.4,1.424H119.229z
			 M121.212,128.149l-0.84,3.032h2.096l-0.84-3.032H121.212z"/>
		<path fill="#4D4D4D" d="M126.876,129.157h0.6v4h-0.6v-0.28c-0.4,0.24-0.795,0.36-1.185,0.36c-0.544,0-0.905-0.142-1.084-0.424
			c-0.179-0.283-0.268-0.806-0.268-1.568v-2.088h0.6v2.08c0,0.581,0.051,0.971,0.152,1.168s0.33,0.296,0.688,0.296
			c0.177,0,0.355-0.025,0.536-0.076c0.182-0.051,0.32-0.1,0.416-0.147l0.145-0.072V129.157z"/>
		<path fill="#4D4D4D" d="M129.884,129.613c-0.581,0-0.872,0.203-0.872,0.608c0,0.187,0.066,0.318,0.2,0.396
			c0.133,0.077,0.438,0.157,0.912,0.24s0.811,0.198,1.008,0.348s0.296,0.43,0.296,0.84c0,0.411-0.132,0.712-0.396,0.904
			c-0.265,0.192-0.649,0.288-1.156,0.288c-0.331,0-0.721-0.037-1.168-0.112l-0.24-0.04l0.032-0.52
			c0.607,0.091,1.066,0.136,1.376,0.136c0.309,0,0.545-0.049,0.708-0.147c0.162-0.099,0.244-0.265,0.244-0.496
			c0-0.232-0.069-0.39-0.208-0.473c-0.139-0.082-0.443-0.161-0.912-0.235c-0.47-0.075-0.803-0.185-1-0.328
			c-0.197-0.145-0.296-0.411-0.296-0.8c0-0.39,0.137-0.678,0.412-0.864c0.274-0.187,0.617-0.28,1.027-0.28
			c0.325,0,0.733,0.037,1.225,0.112l0.224,0.04l-0.016,0.512C130.691,129.656,130.225,129.613,129.884,129.613z"/>
		<path fill="#4D4D4D" d="M133.604,129.613c-0.581,0-0.872,0.203-0.872,0.608c0,0.187,0.066,0.318,0.2,0.396
			c0.133,0.077,0.438,0.157,0.912,0.24s0.811,0.198,1.008,0.348s0.296,0.43,0.296,0.84c0,0.411-0.132,0.712-0.396,0.904
			c-0.265,0.192-0.649,0.288-1.156,0.288c-0.331,0-0.721-0.037-1.168-0.112l-0.24-0.04l0.032-0.52
			c0.607,0.091,1.066,0.136,1.376,0.136c0.309,0,0.545-0.049,0.708-0.147c0.162-0.099,0.244-0.265,0.244-0.496
			c0-0.232-0.069-0.39-0.208-0.473c-0.139-0.082-0.443-0.161-0.912-0.235c-0.47-0.075-0.803-0.185-1-0.328
			c-0.197-0.145-0.296-0.411-0.296-0.8c0-0.39,0.137-0.678,0.412-0.864c0.274-0.187,0.617-0.28,1.027-0.28
			c0.325,0,0.733,0.037,1.225,0.112l0.224,0.04l-0.016,0.512C134.412,129.656,133.945,129.613,133.604,129.613z"/>
		<path fill="#4D4D4D" d="M137.564,129.077c0.176,0,0.475,0.032,0.896,0.096l0.192,0.024l-0.024,0.488
			c-0.427-0.048-0.741-0.072-0.943-0.072c-0.454,0-0.762,0.108-0.925,0.324c-0.162,0.216-0.243,0.616-0.243,1.2
			s0.075,0.99,0.228,1.22s0.468,0.344,0.948,0.344l0.943-0.072l0.024,0.496c-0.496,0.075-0.867,0.112-1.112,0.112
			c-0.624,0-1.055-0.16-1.292-0.48c-0.237-0.319-0.355-0.859-0.355-1.619c0-0.761,0.128-1.294,0.384-1.601
			S136.967,129.077,137.564,129.077z"/>
		<path fill="#4D4D4D" d="M140.155,133.157h-0.6v-5.744h0.6v1.968c0.427-0.202,0.838-0.304,1.232-0.304
			c0.533,0,0.892,0.145,1.076,0.432c0.184,0.288,0.275,0.801,0.275,1.536v2.112h-0.6v-2.096c0-0.555-0.055-0.935-0.164-1.141
			c-0.109-0.205-0.34-0.308-0.692-0.308c-0.336,0-0.661,0.062-0.976,0.184l-0.152,0.057V133.157z"/>
		<path fill="#4D4D4D" d="M146.947,129.157v4h-0.6v-0.28l-0.168,0.088c-0.112,0.064-0.267,0.126-0.464,0.185
			c-0.198,0.059-0.382,0.088-0.553,0.088c-0.544,0-0.905-0.142-1.084-0.424c-0.179-0.283-0.268-0.806-0.268-1.568v-2.088h0.6v2.08
			c0,0.581,0.051,0.971,0.152,1.168s0.34,0.296,0.716,0.296s0.732-0.099,1.068-0.296v-3.248H146.947z M144.331,128.189v-0.721h0.576
			v0.721H144.331z M145.932,128.189v-0.721h0.584v0.721H145.932z"/>
		<path fill="#4D4D4D" d="M150.172,129.677h-1.272v1.912c0,0.459,0.033,0.761,0.1,0.904c0.067,0.145,0.226,0.216,0.477,0.216
			l0.712-0.048l0.04,0.496c-0.357,0.059-0.63,0.088-0.816,0.088c-0.416,0-0.704-0.102-0.863-0.304c-0.16-0.203-0.24-0.59-0.24-1.16
			v-2.104h-0.568v-0.52h0.568v-1.224h0.592v1.224h1.272V129.677z"/>
		<path fill="#4D4D4D" d="M152.98,129.677h-1.272v1.912c0,0.459,0.033,0.761,0.1,0.904c0.067,0.145,0.226,0.216,0.477,0.216
			l0.712-0.048l0.04,0.496c-0.357,0.059-0.63,0.088-0.816,0.088c-0.416,0-0.704-0.102-0.863-0.304c-0.16-0.203-0.24-0.59-0.24-1.16
			v-2.104h-0.568v-0.52h0.568v-1.224h0.592v1.224h1.272V129.677z"/>
		<path fill="#4D4D4D" d="M156.212,129.157h0.6v4h-0.6v-0.28c-0.4,0.24-0.795,0.36-1.185,0.36c-0.544,0-0.905-0.142-1.084-0.424
			c-0.179-0.283-0.268-0.806-0.268-1.568v-2.088h0.6v2.08c0,0.581,0.051,0.971,0.152,1.168s0.33,0.296,0.688,0.296
			c0.177,0,0.355-0.025,0.536-0.076c0.182-0.051,0.32-0.1,0.416-0.147l0.145-0.072V129.157z"/>
		<path fill="#4D4D4D" d="M158.563,133.157h-0.6v-4h0.592v0.28c0.432-0.24,0.846-0.36,1.24-0.36c0.533,0,0.892,0.145,1.076,0.432
			c0.184,0.288,0.275,0.801,0.275,1.536v2.112h-0.592v-2.096c0-0.555-0.055-0.935-0.164-1.141c-0.109-0.205-0.343-0.308-0.7-0.308
			c-0.171,0-0.351,0.025-0.54,0.076s-0.334,0.1-0.436,0.147l-0.152,0.072V133.157z"/>
		<path fill="#4D4D4D" d="M163.804,135.037c-0.64,0-1.087-0.087-1.34-0.26c-0.254-0.174-0.38-0.489-0.38-0.948
			c0-0.219,0.048-0.396,0.144-0.532c0.096-0.136,0.259-0.289,0.488-0.46c-0.149-0.101-0.225-0.285-0.225-0.552
			c0-0.091,0.067-0.259,0.2-0.504l0.072-0.128c-0.422-0.192-0.632-0.595-0.632-1.208c0-0.912,0.498-1.368,1.496-1.368
			c0.256,0,0.493,0.026,0.712,0.08l0.12,0.024l1.184-0.032v0.512l-0.76-0.016c0.176,0.176,0.264,0.442,0.264,0.8
			c0,0.501-0.124,0.852-0.372,1.052s-0.639,0.3-1.172,0.3c-0.144,0-0.274-0.011-0.392-0.031c-0.097,0.234-0.145,0.387-0.145,0.456
			c0,0.165,0.051,0.268,0.152,0.308s0.408,0.06,0.92,0.06s0.88,0.08,1.104,0.24c0.225,0.16,0.337,0.472,0.337,0.937
			C165.58,134.613,164.987,135.037,163.804,135.037z M162.676,133.781c0,0.282,0.078,0.479,0.235,0.588s0.448,0.164,0.872,0.164
			c0.425,0,0.729-0.059,0.912-0.176c0.185-0.117,0.276-0.313,0.276-0.588c0-0.275-0.066-0.452-0.2-0.532
			c-0.133-0.08-0.395-0.12-0.784-0.12l-0.863-0.04c-0.177,0.128-0.295,0.24-0.356,0.336S162.676,133.632,162.676,133.781z
			 M162.731,130.445c0,0.314,0.07,0.539,0.212,0.672c0.142,0.134,0.375,0.2,0.7,0.2s0.558-0.066,0.696-0.2
			c0.139-0.133,0.208-0.358,0.208-0.676s-0.069-0.543-0.208-0.676c-0.139-0.134-0.371-0.2-0.696-0.2s-0.559,0.067-0.7,0.204
			C162.802,129.905,162.731,130.131,162.731,130.445z"/>
		<path fill="#4D4D4D" d="M121.38,157.878c0.539,0,0.916,0.153,1.132,0.46c0.217,0.307,0.324,0.844,0.324,1.612
			c0,0.768-0.135,1.308-0.403,1.62c-0.27,0.312-0.765,0.468-1.484,0.468c-0.224,0-0.595-0.021-1.112-0.064l-0.224-0.023v-5.736
			h0.592v1.944C120.609,157.972,121.001,157.878,121.38,157.878z M120.94,161.502c0.522,0,0.868-0.118,1.036-0.355
			s0.252-0.639,0.252-1.204s-0.067-0.962-0.2-1.188c-0.134-0.227-0.371-0.34-0.712-0.34c-0.31,0-0.627,0.059-0.952,0.176
			l-0.16,0.057v2.815C120.551,161.488,120.796,161.502,120.94,161.502z"/>
		<path fill="#4D4D4D" d="M126.54,161.462l0.232-0.023l0.016,0.472c-0.608,0.085-1.128,0.128-1.56,0.128
			c-0.576,0-0.984-0.167-1.225-0.5s-0.359-0.853-0.359-1.556c0-1.403,0.557-2.104,1.672-2.104c0.538,0,0.941,0.15,1.208,0.452
			s0.399,0.774,0.399,1.42l-0.031,0.456h-2.641c0,0.442,0.08,0.771,0.24,0.984c0.16,0.213,0.438,0.319,0.836,0.319
			S126.129,161.494,126.54,161.462z M126.324,159.726c0-0.49-0.079-0.837-0.236-1.04c-0.157-0.202-0.413-0.304-0.768-0.304
			s-0.621,0.106-0.8,0.32c-0.179,0.213-0.271,0.555-0.276,1.023H126.324z"/>
		<path fill="#4D4D4D" d="M127.86,157.054v-0.695h0.6v0.695H127.86z M127.86,161.958v-4h0.6v4H127.86z"/>
		<path fill="#4D4D4D" d="M131.476,161.958v-5.536h0.616v5.536H131.476z"/>
		<path fill="#4D4D4D" d="M133.939,161.958h-0.6v-4h0.592v0.28c0.432-0.24,0.846-0.36,1.24-0.36c0.533,0,0.892,0.145,1.076,0.432
			c0.184,0.288,0.275,0.801,0.275,1.536v2.112h-0.592v-2.096c0-0.555-0.055-0.935-0.164-1.141c-0.109-0.205-0.343-0.308-0.7-0.308
			c-0.171,0-0.351,0.025-0.54,0.076s-0.334,0.1-0.436,0.147l-0.152,0.072V161.958z"/>
		<path fill="#4D4D4D" d="M138.892,158.414c-0.581,0-0.872,0.203-0.872,0.608c0,0.187,0.066,0.318,0.2,0.396
			c0.133,0.077,0.438,0.157,0.912,0.24s0.811,0.198,1.008,0.348s0.296,0.43,0.296,0.84c0,0.411-0.132,0.712-0.396,0.904
			c-0.265,0.192-0.649,0.288-1.156,0.288c-0.331,0-0.721-0.037-1.168-0.112l-0.24-0.04l0.032-0.52
			c0.607,0.091,1.066,0.136,1.376,0.136c0.309,0,0.545-0.049,0.708-0.147c0.162-0.099,0.244-0.265,0.244-0.496
			c0-0.232-0.069-0.39-0.208-0.473c-0.139-0.082-0.443-0.161-0.912-0.235c-0.47-0.075-0.803-0.185-1-0.328
			c-0.197-0.145-0.296-0.411-0.296-0.8c0-0.39,0.137-0.678,0.412-0.864c0.274-0.187,0.617-0.28,1.027-0.28
			c0.325,0,0.733,0.037,1.225,0.112l0.224,0.04l-0.016,0.512C139.699,158.457,139.232,158.414,138.892,158.414z"/>
		<path fill="#4D4D4D" d="M141.18,159.95c0-0.73,0.13-1.259,0.392-1.584s0.702-0.488,1.324-0.488c0.621,0,1.062,0.163,1.319,0.488
			c0.259,0.325,0.389,0.854,0.389,1.584s-0.123,1.261-0.368,1.592s-0.693,0.496-1.344,0.496c-0.651,0-1.099-0.165-1.345-0.496
			C141.302,161.211,141.18,160.681,141.18,159.95z M141.795,159.938c0,0.584,0.071,0.993,0.212,1.228
			c0.142,0.234,0.438,0.352,0.889,0.352c0.45,0,0.745-0.115,0.884-0.348c0.139-0.231,0.208-0.642,0.208-1.228
			c0-0.587-0.077-0.991-0.232-1.212c-0.154-0.222-0.441-0.332-0.859-0.332c-0.419,0-0.707,0.11-0.864,0.332
			C141.874,158.951,141.795,159.354,141.795,159.938z"/>
		<path fill="#4D4D4D" d="M145.628,161.958v-5.744h0.6v5.744H145.628z"/>
		<path fill="#4D4D4D" d="M147.052,157.958h0.64l0.937,3.48h0.296l0.968-3.48h0.616l-1.128,4h-1.2L147.052,157.958z"/>
		<path fill="#4D4D4D" d="M153.924,161.462l0.232-0.023l0.016,0.472c-0.608,0.085-1.128,0.128-1.56,0.128
			c-0.576,0-0.984-0.167-1.225-0.5s-0.359-0.853-0.359-1.556c0-1.403,0.557-2.104,1.672-2.104c0.538,0,0.941,0.15,1.208,0.452
			s0.399,0.774,0.399,1.42l-0.031,0.456h-2.641c0,0.442,0.08,0.771,0.24,0.984c0.16,0.213,0.438,0.319,0.836,0.319
			S153.513,161.494,153.924,161.462z M153.708,159.726c0-0.49-0.079-0.837-0.236-1.04c-0.157-0.202-0.413-0.304-0.768-0.304
			s-0.621,0.106-0.8,0.32c-0.179,0.213-0.271,0.555-0.276,1.023H153.708z"/>
		<path fill="#4D4D4D" d="M155.843,161.958h-0.6v-4h0.592v0.28c0.432-0.24,0.846-0.36,1.24-0.36c0.533,0,0.892,0.145,1.076,0.432
			c0.184,0.288,0.275,0.801,0.275,1.536v2.112h-0.592v-2.096c0-0.555-0.055-0.935-0.164-1.141c-0.109-0.205-0.343-0.308-0.7-0.308
			c-0.171,0-0.351,0.025-0.54,0.076s-0.334,0.1-0.436,0.147l-0.152,0.072V161.958z"/>
		<path fill="#4D4D4D" d="M159.299,158.494v-0.536h2.968v0.536l-2.239,2.928h2.239v0.536h-2.968v-0.536l2.24-2.928H159.299z"/>
		<path fill="#4D4D4D" d="M166.483,163.838c-0.64,0-1.087-0.087-1.34-0.26c-0.254-0.174-0.38-0.489-0.38-0.948
			c0-0.219,0.048-0.396,0.144-0.532c0.096-0.136,0.259-0.289,0.488-0.46c-0.149-0.101-0.225-0.285-0.225-0.552
			c0-0.091,0.067-0.259,0.2-0.504l0.072-0.128c-0.422-0.192-0.632-0.595-0.632-1.208c0-0.912,0.498-1.368,1.496-1.368
			c0.256,0,0.493,0.026,0.712,0.08l0.12,0.024l1.184-0.032v0.512l-0.76-0.016c0.176,0.176,0.264,0.442,0.264,0.8
			c0,0.501-0.124,0.852-0.372,1.052s-0.639,0.3-1.172,0.3c-0.144,0-0.274-0.011-0.392-0.031c-0.097,0.234-0.145,0.387-0.145,0.456
			c0,0.165,0.051,0.268,0.152,0.308s0.408,0.06,0.92,0.06s0.88,0.08,1.104,0.24c0.225,0.16,0.337,0.472,0.337,0.937
			C168.26,163.414,167.667,163.838,166.483,163.838z M165.355,162.582c0,0.282,0.078,0.479,0.235,0.588s0.448,0.164,0.872,0.164
			c0.425,0,0.729-0.059,0.912-0.176c0.185-0.117,0.276-0.313,0.276-0.588c0-0.275-0.066-0.452-0.2-0.532
			c-0.133-0.08-0.395-0.12-0.784-0.12l-0.863-0.04c-0.177,0.128-0.295,0.24-0.356,0.336S165.355,162.433,165.355,162.582z
			 M165.411,159.246c0,0.314,0.07,0.539,0.212,0.672c0.142,0.134,0.375,0.2,0.7,0.2s0.558-0.066,0.696-0.2
			c0.139-0.133,0.208-0.358,0.208-0.676s-0.069-0.543-0.208-0.676c-0.139-0.134-0.371-0.2-0.696-0.2s-0.559,0.067-0.7,0.204
			C165.481,158.706,165.411,158.932,165.411,159.246z"/>
		<path fill="#4D4D4D" d="M171.771,161.462l0.232-0.023l0.016,0.472c-0.608,0.085-1.128,0.128-1.56,0.128
			c-0.576,0-0.984-0.167-1.225-0.5s-0.359-0.853-0.359-1.556c0-1.403,0.557-2.104,1.672-2.104c0.538,0,0.941,0.15,1.208,0.452
			s0.399,0.774,0.399,1.42l-0.031,0.456h-2.641c0,0.442,0.08,0.771,0.24,0.984c0.16,0.213,0.438,0.319,0.836,0.319
			S171.359,161.494,171.771,161.462z M171.555,159.726c0-0.49-0.079-0.837-0.236-1.04c-0.157-0.202-0.413-0.304-0.768-0.304
			s-0.621,0.106-0.8,0.32c-0.179,0.213-0.271,0.555-0.276,1.023H171.555z"/>
		<path fill="#4D4D4D" d="M173.69,161.958h-0.6v-5.744h0.6v1.968c0.427-0.202,0.838-0.304,1.232-0.304
			c0.533,0,0.892,0.145,1.076,0.432c0.184,0.288,0.275,0.801,0.275,1.536v2.112h-0.6v-2.096c0-0.555-0.055-0.935-0.164-1.141
			c-0.109-0.205-0.34-0.308-0.692-0.308c-0.336,0-0.661,0.062-0.976,0.184l-0.152,0.057V161.958z"/>
		<path fill="#4D4D4D" d="M180.106,161.462l0.232-0.023l0.016,0.472c-0.608,0.085-1.128,0.128-1.56,0.128
			c-0.576,0-0.984-0.167-1.225-0.5s-0.359-0.853-0.359-1.556c0-1.403,0.557-2.104,1.672-2.104c0.538,0,0.941,0.15,1.208,0.452
			s0.399,0.774,0.399,1.42l-0.031,0.456h-2.641c0,0.442,0.08,0.771,0.24,0.984c0.16,0.213,0.438,0.319,0.836,0.319
			S179.695,161.494,180.106,161.462z M179.891,159.726c0-0.49-0.079-0.837-0.236-1.04c-0.157-0.202-0.413-0.304-0.768-0.304
			s-0.621,0.106-0.8,0.32c-0.179,0.213-0.271,0.555-0.276,1.023H179.891z"/>
		<path fill="#4D4D4D" d="M182.026,161.958h-0.6v-4h0.592v0.28c0.432-0.24,0.846-0.36,1.24-0.36c0.533,0,0.892,0.145,1.076,0.432
			c0.184,0.288,0.275,0.801,0.275,1.536v2.112h-0.592v-2.096c0-0.555-0.055-0.935-0.164-1.141c-0.109-0.205-0.343-0.308-0.7-0.308
			c-0.171,0-0.351,0.025-0.54,0.076s-0.334,0.1-0.436,0.147l-0.152,0.072V161.958z"/>
		<path fill="#4D4D4D" d="M119.229,171.558l1.52-5.536h1.344l1.521,5.536h-0.608l-0.399-1.424h-2.368l-0.4,1.424H119.229z
			 M121.212,166.55l-0.84,3.032h2.096l-0.84-3.032H121.212z"/>
		<path fill="#4D4D4D" d="M124.979,171.558h-0.6v-4h0.592v0.28c0.432-0.24,0.846-0.36,1.24-0.36c0.533,0,0.892,0.145,1.076,0.432
			c0.184,0.288,0.275,0.801,0.275,1.536v2.112h-0.592v-2.096c0-0.555-0.055-0.935-0.164-1.141c-0.109-0.205-0.343-0.308-0.7-0.308
			c-0.171,0-0.351,0.025-0.54,0.076s-0.334,0.1-0.436,0.147l-0.152,0.072V171.558z"/>
		<path fill="#4D4D4D" d="M128.724,171.558v-5.744h0.6v5.744H128.724z"/>
		<path fill="#4D4D4D" d="M133.244,171.062l0.232-0.023l0.016,0.472c-0.608,0.085-1.128,0.128-1.56,0.128
			c-0.576,0-0.984-0.167-1.225-0.5s-0.359-0.853-0.359-1.556c0-1.403,0.557-2.104,1.672-2.104c0.538,0,0.941,0.15,1.208,0.452
			s0.399,0.774,0.399,1.42l-0.031,0.456h-2.641c0,0.442,0.08,0.771,0.24,0.984c0.16,0.213,0.438,0.319,0.836,0.319
			S132.833,171.094,133.244,171.062z M133.028,169.325c0-0.49-0.079-0.837-0.236-1.04c-0.157-0.202-0.413-0.304-0.768-0.304
			s-0.621,0.106-0.8,0.32c-0.179,0.213-0.271,0.555-0.276,1.023H133.028z"/>
		<path fill="#4D4D4D" d="M136.107,173.438c-0.64,0-1.087-0.087-1.34-0.26c-0.254-0.174-0.38-0.489-0.38-0.948
			c0-0.219,0.048-0.396,0.144-0.532c0.096-0.136,0.259-0.289,0.488-0.46c-0.149-0.101-0.225-0.285-0.225-0.552
			c0-0.091,0.067-0.259,0.2-0.504l0.072-0.128c-0.422-0.192-0.632-0.595-0.632-1.208c0-0.912,0.498-1.368,1.496-1.368
			c0.256,0,0.493,0.026,0.712,0.08l0.12,0.024l1.184-0.032v0.512l-0.76-0.016c0.176,0.176,0.264,0.442,0.264,0.8
			c0,0.501-0.124,0.852-0.372,1.052s-0.639,0.3-1.172,0.3c-0.144,0-0.274-0.011-0.392-0.031c-0.097,0.234-0.145,0.387-0.145,0.456
			c0,0.165,0.051,0.268,0.152,0.308s0.408,0.06,0.92,0.06s0.88,0.08,1.104,0.24c0.225,0.16,0.337,0.472,0.337,0.937
			C137.884,173.014,137.291,173.438,136.107,173.438z M134.979,172.182c0,0.282,0.078,0.479,0.235,0.588s0.448,0.164,0.872,0.164
			c0.425,0,0.729-0.059,0.912-0.176c0.185-0.117,0.276-0.313,0.276-0.588c0-0.275-0.066-0.452-0.2-0.532
			c-0.133-0.08-0.395-0.12-0.784-0.12l-0.863-0.04c-0.177,0.128-0.295,0.24-0.356,0.336S134.979,172.032,134.979,172.182z
			 M135.035,168.846c0,0.314,0.07,0.539,0.212,0.672c0.142,0.134,0.375,0.2,0.7,0.2s0.558-0.066,0.696-0.2
			c0.139-0.133,0.208-0.358,0.208-0.676s-0.069-0.543-0.208-0.676c-0.139-0.134-0.371-0.2-0.696-0.2s-0.559,0.067-0.7,0.204
			C135.105,168.306,135.035,168.531,135.035,168.846z"/>
		<path fill="#4D4D4D" d="M141.396,171.062l0.232-0.023l0.016,0.472c-0.608,0.085-1.128,0.128-1.56,0.128
			c-0.576,0-0.984-0.167-1.225-0.5s-0.359-0.853-0.359-1.556c0-1.403,0.557-2.104,1.672-2.104c0.538,0,0.941,0.15,1.208,0.452
			s0.399,0.774,0.399,1.42l-0.031,0.456h-2.641c0,0.442,0.08,0.771,0.24,0.984c0.16,0.213,0.438,0.319,0.836,0.319
			S140.984,171.094,141.396,171.062z M141.18,169.325c0-0.49-0.079-0.837-0.236-1.04c-0.157-0.202-0.413-0.304-0.768-0.304
			s-0.621,0.106-0.8,0.32c-0.179,0.213-0.271,0.555-0.276,1.023H141.18z"/>
		<path fill="#4D4D4D" d="M142.716,171.558v-4h0.592v0.544c0.464-0.32,0.952-0.53,1.464-0.632v0.607
			c-0.224,0.043-0.457,0.109-0.7,0.2c-0.242,0.091-0.428,0.171-0.556,0.24l-0.2,0.104v2.936H142.716z"/>
		<path fill="#4D4D4D" d="M147.291,171.558v-5.744h0.6v5.744H147.291z"/>
		<path fill="#4D4D4D" d="M151.812,171.062l0.232-0.023l0.016,0.472c-0.608,0.085-1.128,0.128-1.56,0.128
			c-0.576,0-0.984-0.167-1.225-0.5s-0.359-0.853-0.359-1.556c0-1.403,0.557-2.104,1.672-2.104c0.538,0,0.941,0.15,1.208,0.452
			s0.399,0.774,0.399,1.42l-0.031,0.456h-2.641c0,0.442,0.08,0.771,0.24,0.984c0.16,0.213,0.438,0.319,0.836,0.319
			S151.4,171.094,151.812,171.062z M151.596,169.325c0-0.49-0.079-0.837-0.236-1.04c-0.157-0.202-0.413-0.304-0.768-0.304
			s-0.621,0.106-0.8,0.32c-0.179,0.213-0.271,0.555-0.276,1.023H151.596z"/>
		<path fill="#4D4D4D" d="M155.852,171.062l0.232-0.023l0.016,0.472c-0.608,0.085-1.128,0.128-1.56,0.128
			c-0.576,0-0.984-0.167-1.225-0.5s-0.359-0.853-0.359-1.556c0-1.403,0.557-2.104,1.672-2.104c0.538,0,0.941,0.15,1.208,0.452
			s0.399,0.774,0.399,1.42l-0.031,0.456h-2.641c0,0.442,0.08,0.771,0.24,0.984c0.16,0.213,0.438,0.319,0.836,0.319
			S155.44,171.094,155.852,171.062z M155.636,169.325c0-0.49-0.079-0.837-0.236-1.04c-0.157-0.202-0.413-0.304-0.768-0.304
			s-0.621,0.106-0.8,0.32c-0.179,0.213-0.271,0.555-0.276,1.023H155.636z"/>
		<path fill="#4D4D4D" d="M157.171,171.558v-4h0.592v0.544c0.464-0.32,0.952-0.53,1.464-0.632v0.607
			c-0.224,0.043-0.457,0.109-0.7,0.2c-0.242,0.091-0.428,0.171-0.556,0.24l-0.2,0.104v2.936H157.171z"/>
		<path fill="#4D4D4D" d="M164.523,168.766v2.048c0.016,0.197,0.17,0.314,0.464,0.353l-0.024,0.472c-0.421,0-0.738-0.106-0.952-0.32
			c-0.479,0.214-0.96,0.32-1.439,0.32c-0.368,0-0.648-0.104-0.84-0.312c-0.192-0.208-0.288-0.506-0.288-0.896
			s0.099-0.676,0.296-0.86c0.197-0.184,0.507-0.297,0.928-0.34l1.256-0.12v-0.344c0-0.272-0.059-0.467-0.176-0.584
			s-0.277-0.176-0.48-0.176c-0.427,0-0.869,0.026-1.327,0.08l-0.248,0.023l-0.024-0.456c0.587-0.117,1.106-0.176,1.56-0.176
			c0.454,0,0.783,0.104,0.988,0.312S164.523,168.323,164.523,168.766z M162.059,170.397c0,0.491,0.203,0.736,0.608,0.736
			c0.362,0,0.72-0.062,1.072-0.185l0.184-0.063v-1.32l-1.184,0.112c-0.24,0.021-0.414,0.091-0.521,0.208
			S162.059,170.174,162.059,170.397z"/>
		<path fill="#4D4D4D" d="M168.203,167.558h0.6v4h-0.6v-0.28c-0.4,0.24-0.795,0.36-1.185,0.36c-0.544,0-0.905-0.142-1.084-0.424
			c-0.179-0.283-0.268-0.806-0.268-1.568v-2.088h0.6v2.08c0,0.581,0.051,0.971,0.152,1.168s0.33,0.296,0.688,0.296
			c0.177,0,0.355-0.025,0.536-0.076c0.182-0.051,0.32-0.1,0.416-0.147l0.145-0.072V167.558z"/>
		<path fill="#4D4D4D" d="M171.211,168.014c-0.581,0-0.872,0.203-0.872,0.608c0,0.187,0.066,0.318,0.2,0.396
			c0.133,0.077,0.438,0.157,0.912,0.24s0.811,0.198,1.008,0.348s0.296,0.43,0.296,0.84c0,0.411-0.132,0.712-0.396,0.904
			c-0.265,0.192-0.649,0.288-1.156,0.288c-0.331,0-0.721-0.037-1.168-0.112l-0.24-0.04l0.032-0.52
			c0.607,0.091,1.066,0.136,1.376,0.136c0.309,0,0.545-0.049,0.708-0.147c0.162-0.099,0.244-0.265,0.244-0.496
			c0-0.232-0.069-0.39-0.208-0.473c-0.139-0.082-0.443-0.161-0.912-0.235c-0.47-0.075-0.803-0.185-1-0.328
			c-0.197-0.145-0.296-0.411-0.296-0.8c0-0.39,0.137-0.678,0.412-0.864c0.274-0.187,0.617-0.28,1.027-0.28
			c0.325,0,0.733,0.037,1.225,0.112l0.224,0.04l-0.016,0.512C172.019,168.057,171.552,168.014,171.211,168.014z"/>
	</g>
</g>
<g>
	<g>
		<path fill="#4D4D4D" d="M46.383,162.058v-5.536h3.368v0.544h-2.752v1.912h2.272v0.536h-2.272v2h2.752v0.544H46.383z"/>
		<path fill="#4D4D4D" d="M51.303,162.058h-0.6v-4h0.592v0.28c0.4-0.24,0.789-0.36,1.168-0.36c0.496,0,0.843,0.136,1.04,0.408
			c0.176-0.106,0.404-0.201,0.684-0.284c0.28-0.083,0.527-0.124,0.74-0.124c0.533,0,0.893,0.143,1.076,0.428
			c0.184,0.286,0.276,0.799,0.276,1.54v2.112h-0.601v-2.096c0-0.555-0.053-0.935-0.16-1.141c-0.106-0.205-0.333-0.308-0.68-0.308
			c-0.176,0-0.357,0.025-0.544,0.076s-0.331,0.1-0.432,0.147l-0.152,0.072c0.069,0.176,0.104,0.565,0.104,1.168v2.08h-0.601v-2.064
			c0-0.575-0.052-0.966-0.156-1.172c-0.104-0.205-0.332-0.308-0.684-0.308c-0.171,0-0.346,0.025-0.524,0.076s-0.315,0.1-0.412,0.147
			l-0.136,0.072V162.058z"/>
		<path fill="#4D4D4D" d="M57.392,157.153v-0.695h0.6v0.695H57.392z M57.392,162.058v-4h0.6v4H57.392z"/>
		<path fill="#4D4D4D" d="M60.399,158.514c-0.581,0-0.872,0.203-0.872,0.608c0,0.187,0.066,0.318,0.2,0.396
			c0.133,0.077,0.438,0.157,0.912,0.24s0.811,0.198,1.008,0.348s0.296,0.43,0.296,0.84c0,0.411-0.132,0.712-0.396,0.904
			c-0.265,0.192-0.649,0.288-1.156,0.288c-0.331,0-0.721-0.037-1.168-0.112l-0.24-0.04l0.032-0.52
			c0.607,0.091,1.066,0.136,1.376,0.136c0.309,0,0.545-0.049,0.708-0.147c0.162-0.099,0.244-0.265,0.244-0.496
			c0-0.232-0.069-0.39-0.208-0.473c-0.139-0.082-0.443-0.161-0.912-0.235c-0.47-0.075-0.803-0.185-1-0.328
			c-0.197-0.145-0.296-0.411-0.296-0.8c0-0.39,0.137-0.678,0.412-0.864c0.274-0.187,0.617-0.28,1.027-0.28
			c0.325,0,0.733,0.037,1.225,0.112l0.224,0.04l-0.016,0.512C61.207,158.557,60.74,158.514,60.399,158.514z"/>
		<path fill="#4D4D4D" d="M64.119,158.514c-0.581,0-0.872,0.203-0.872,0.608c0,0.187,0.066,0.318,0.2,0.396
			c0.133,0.077,0.438,0.157,0.912,0.24s0.811,0.198,1.008,0.348s0.296,0.43,0.296,0.84c0,0.411-0.132,0.712-0.396,0.904
			c-0.265,0.192-0.649,0.288-1.156,0.288c-0.331,0-0.721-0.037-1.168-0.112l-0.24-0.04l0.032-0.52
			c0.607,0.091,1.066,0.136,1.376,0.136c0.309,0,0.545-0.049,0.708-0.147c0.162-0.099,0.244-0.265,0.244-0.496
			c0-0.232-0.069-0.39-0.208-0.473c-0.139-0.082-0.443-0.161-0.912-0.235c-0.47-0.075-0.803-0.185-1-0.328
			c-0.197-0.145-0.296-0.411-0.296-0.8c0-0.39,0.137-0.678,0.412-0.864c0.274-0.187,0.617-0.28,1.027-0.28
			c0.325,0,0.733,0.037,1.225,0.112l0.224,0.04l-0.016,0.512C64.927,158.557,64.46,158.514,64.119,158.514z"/>
		<path fill="#4D4D4D" d="M66.583,157.153v-0.695h0.6v0.695H66.583z M66.583,162.058v-4h0.6v4H66.583z"/>
		<path fill="#4D4D4D" d="M68.159,160.05c0-0.73,0.13-1.259,0.392-1.584s0.702-0.488,1.324-0.488c0.621,0,1.062,0.163,1.319,0.488
			c0.259,0.325,0.389,0.854,0.389,1.584s-0.123,1.261-0.368,1.592s-0.693,0.496-1.344,0.496c-0.651,0-1.099-0.165-1.345-0.496
			C68.281,161.311,68.159,160.78,68.159,160.05z M68.774,160.038c0,0.584,0.071,0.993,0.212,1.228
			c0.142,0.234,0.438,0.352,0.889,0.352c0.45,0,0.745-0.115,0.884-0.348c0.139-0.231,0.208-0.642,0.208-1.228
			c0-0.587-0.077-0.991-0.232-1.212c-0.154-0.222-0.441-0.332-0.859-0.332c-0.419,0-0.707,0.11-0.864,0.332
			C68.854,159.051,68.774,159.454,68.774,160.038z"/>
		<path fill="#4D4D4D" d="M73.158,162.058h-0.6v-4h0.592v0.28c0.432-0.24,0.846-0.36,1.24-0.36c0.533,0,0.892,0.145,1.076,0.432
			c0.184,0.288,0.275,0.801,0.275,1.536v2.112H75.15v-2.096c0-0.555-0.055-0.935-0.164-1.141c-0.109-0.205-0.343-0.308-0.7-0.308
			c-0.171,0-0.351,0.025-0.54,0.076s-0.334,0.1-0.436,0.147l-0.152,0.072V162.058z"/>
		<path fill="#4D4D4D" d="M78.111,158.514c-0.581,0-0.872,0.203-0.872,0.608c0,0.187,0.066,0.318,0.2,0.396
			c0.133,0.077,0.438,0.157,0.912,0.24s0.811,0.198,1.008,0.348s0.296,0.43,0.296,0.84c0,0.411-0.132,0.712-0.396,0.904
			c-0.265,0.192-0.649,0.288-1.156,0.288c-0.331,0-0.721-0.037-1.168-0.112l-0.24-0.04l0.032-0.52
			c0.607,0.091,1.066,0.136,1.376,0.136c0.309,0,0.545-0.049,0.708-0.147c0.162-0.099,0.244-0.265,0.244-0.496
			c0-0.232-0.069-0.39-0.208-0.473c-0.139-0.082-0.443-0.161-0.912-0.235c-0.47-0.075-0.803-0.185-1-0.328
			c-0.197-0.145-0.296-0.411-0.296-0.8c0-0.39,0.137-0.678,0.412-0.864c0.274-0.187,0.617-0.28,1.027-0.28
			c0.325,0,0.733,0.037,1.225,0.112l0.224,0.04l-0.016,0.512C78.919,158.557,78.452,158.514,78.111,158.514z"/>
		<path fill="#4D4D4D" d="M80.463,160.138v-0.561h2.424v0.561H80.463z"/>
		<path fill="#4D4D4D" d="M48.047,167.577c0.539,0,0.916,0.153,1.132,0.46c0.217,0.307,0.324,0.844,0.324,1.612
			c0,0.768-0.135,1.308-0.403,1.62c-0.27,0.312-0.765,0.468-1.484,0.468c-0.224,0-0.595-0.021-1.112-0.064l-0.224-0.023v-5.736
			h0.592v1.944C47.276,167.671,47.668,167.577,48.047,167.577z M47.607,171.201c0.522,0,0.868-0.118,1.036-0.355
			s0.252-0.639,0.252-1.204s-0.067-0.962-0.2-1.188c-0.134-0.227-0.371-0.34-0.712-0.34c-0.31,0-0.627,0.059-0.952,0.176
			l-0.16,0.057v2.815C47.218,171.188,47.463,171.201,47.607,171.201z"/>
		<path fill="#4D4D4D" d="M53.207,171.161l0.232-0.023l0.016,0.472c-0.608,0.085-1.128,0.128-1.56,0.128
			c-0.576,0-0.984-0.167-1.225-0.5s-0.359-0.853-0.359-1.556c0-1.403,0.557-2.104,1.672-2.104c0.538,0,0.941,0.15,1.208,0.452
			s0.399,0.774,0.399,1.42l-0.031,0.456h-2.641c0,0.442,0.08,0.771,0.24,0.984c0.16,0.213,0.438,0.319,0.836,0.319
			S52.796,171.193,53.207,171.161z M52.991,169.425c0-0.49-0.079-0.837-0.236-1.04c-0.157-0.202-0.413-0.304-0.768-0.304
			s-0.621,0.106-0.8,0.32c-0.179,0.213-0.271,0.555-0.276,1.023H52.991z"/>
		<path fill="#4D4D4D" d="M57.6,165.913v5.744h-0.593v-0.272c-0.41,0.235-0.815,0.353-1.216,0.353c-0.213,0-0.399-0.026-0.56-0.08
			s-0.31-0.149-0.448-0.288c-0.288-0.288-0.432-0.82-0.432-1.596c0-0.776,0.129-1.336,0.388-1.681
			c0.259-0.344,0.687-0.516,1.284-0.516c0.309,0,0.637,0.035,0.983,0.104v-1.769H57.6z M55.52,171.146
			c0.096,0.037,0.22,0.056,0.372,0.056c0.151,0,0.322-0.025,0.512-0.076s0.337-0.1,0.444-0.147l0.159-0.072v-2.712
			c-0.341-0.064-0.658-0.096-0.952-0.096c-0.405,0-0.688,0.129-0.848,0.388s-0.24,0.66-0.24,1.204c0,0.618,0.094,1.034,0.28,1.248
			C55.332,171.039,55.423,171.108,55.52,171.146z"/>
		<path fill="#4D4D4D" d="M58.759,166.753v-0.695h0.6v0.695H58.759z M58.759,171.657v-4h0.6v4H58.759z"/>
		<path fill="#4D4D4D" d="M61.11,171.657h-0.6v-4h0.592v0.28c0.432-0.24,0.846-0.36,1.24-0.36c0.533,0,0.892,0.145,1.076,0.432
			c0.184,0.288,0.275,0.801,0.275,1.536v2.112h-0.592v-2.096c0-0.555-0.055-0.935-0.164-1.141c-0.109-0.205-0.343-0.308-0.7-0.308
			c-0.171,0-0.351,0.025-0.54,0.076s-0.334,0.1-0.436,0.147l-0.152,0.072V171.657z"/>
		<path fill="#4D4D4D" d="M66.351,173.537c-0.64,0-1.087-0.087-1.34-0.26c-0.254-0.174-0.38-0.489-0.38-0.948
			c0-0.219,0.048-0.396,0.144-0.532c0.096-0.136,0.259-0.289,0.488-0.46c-0.149-0.101-0.225-0.285-0.225-0.552
			c0-0.091,0.067-0.259,0.2-0.504l0.072-0.128c-0.422-0.192-0.632-0.595-0.632-1.208c0-0.912,0.498-1.368,1.496-1.368
			c0.256,0,0.493,0.026,0.712,0.08l0.12,0.024l1.184-0.032v0.512l-0.76-0.016c0.176,0.176,0.264,0.442,0.264,0.8
			c0,0.501-0.124,0.852-0.372,1.052s-0.639,0.3-1.172,0.3c-0.144,0-0.274-0.011-0.392-0.031c-0.097,0.234-0.145,0.387-0.145,0.456
			c0,0.165,0.051,0.268,0.152,0.308s0.408,0.06,0.92,0.06s0.88,0.08,1.104,0.24c0.225,0.16,0.337,0.472,0.337,0.937
			C68.127,173.113,67.534,173.537,66.351,173.537z M65.223,172.281c0,0.282,0.078,0.479,0.235,0.588s0.448,0.164,0.872,0.164
			c0.425,0,0.729-0.059,0.912-0.176c0.185-0.117,0.276-0.313,0.276-0.588c0-0.275-0.066-0.452-0.2-0.532
			c-0.133-0.08-0.395-0.12-0.784-0.12l-0.863-0.04c-0.177,0.128-0.295,0.24-0.356,0.336S65.223,172.132,65.223,172.281z
			 M65.278,168.945c0,0.314,0.07,0.539,0.212,0.672c0.142,0.134,0.375,0.2,0.7,0.2s0.558-0.066,0.696-0.2
			c0.139-0.133,0.208-0.358,0.208-0.676s-0.069-0.543-0.208-0.676c-0.139-0.134-0.371-0.2-0.696-0.2s-0.559,0.067-0.7,0.204
			C65.349,168.405,65.278,168.631,65.278,168.945z"/>
		<path fill="#4D4D4D" d="M71.415,167.657h0.6v4h-0.6v-0.28c-0.4,0.24-0.795,0.36-1.185,0.36c-0.544,0-0.905-0.142-1.084-0.424
			c-0.179-0.283-0.268-0.806-0.268-1.568v-2.088h0.6v2.08c0,0.581,0.051,0.971,0.152,1.168s0.33,0.296,0.688,0.296
			c0.177,0,0.355-0.025,0.536-0.076c0.182-0.051,0.32-0.1,0.416-0.147l0.145-0.072V167.657z"/>
		<path fill="#4D4D4D" d="M73.767,171.657h-0.6v-4h0.592v0.28c0.432-0.24,0.846-0.36,1.24-0.36c0.533,0,0.892,0.145,1.076,0.432
			c0.184,0.288,0.275,0.801,0.275,1.536v2.112h-0.592v-2.096c0-0.555-0.055-0.935-0.164-1.141c-0.109-0.205-0.343-0.308-0.7-0.308
			c-0.171,0-0.351,0.025-0.54,0.076s-0.334,0.1-0.436,0.147l-0.152,0.072V171.657z"/>
		<path fill="#4D4D4D" d="M79.007,173.537c-0.64,0-1.087-0.087-1.34-0.26c-0.254-0.174-0.38-0.489-0.38-0.948
			c0-0.219,0.048-0.396,0.144-0.532c0.096-0.136,0.259-0.289,0.488-0.46c-0.149-0.101-0.225-0.285-0.225-0.552
			c0-0.091,0.067-0.259,0.2-0.504l0.072-0.128c-0.422-0.192-0.632-0.595-0.632-1.208c0-0.912,0.498-1.368,1.496-1.368
			c0.256,0,0.493,0.026,0.712,0.08l0.12,0.024l1.184-0.032v0.512l-0.76-0.016c0.176,0.176,0.264,0.442,0.264,0.8
			c0,0.501-0.124,0.852-0.372,1.052s-0.639,0.3-1.172,0.3c-0.144,0-0.274-0.011-0.392-0.031c-0.097,0.234-0.145,0.387-0.145,0.456
			c0,0.165,0.051,0.268,0.152,0.308s0.408,0.06,0.92,0.06s0.88,0.08,1.104,0.24c0.225,0.16,0.337,0.472,0.337,0.937
			C80.783,173.113,80.19,173.537,79.007,173.537z M77.879,172.281c0,0.282,0.078,0.479,0.235,0.588s0.448,0.164,0.872,0.164
			c0.425,0,0.729-0.059,0.912-0.176c0.185-0.117,0.276-0.313,0.276-0.588c0-0.275-0.066-0.452-0.2-0.532
			c-0.133-0.08-0.395-0.12-0.784-0.12l-0.863-0.04c-0.177,0.128-0.295,0.24-0.356,0.336S77.879,172.132,77.879,172.281z
			 M77.935,168.945c0,0.314,0.07,0.539,0.212,0.672c0.142,0.134,0.375,0.2,0.7,0.2s0.558-0.066,0.696-0.2
			c0.139-0.133,0.208-0.358,0.208-0.676s-0.069-0.543-0.208-0.676c-0.139-0.134-0.371-0.2-0.696-0.2s-0.559,0.067-0.7,0.204
			C78.005,168.405,77.935,168.631,77.935,168.945z"/>
		<path fill="#4D4D4D" d="M84.294,171.161l0.232-0.023l0.016,0.472c-0.608,0.085-1.128,0.128-1.56,0.128
			c-0.576,0-0.984-0.167-1.225-0.5s-0.359-0.853-0.359-1.556c0-1.403,0.557-2.104,1.672-2.104c0.538,0,0.941,0.15,1.208,0.452
			s0.399,0.774,0.399,1.42l-0.031,0.456h-2.641c0,0.442,0.08,0.771,0.24,0.984c0.16,0.213,0.438,0.319,0.836,0.319
			S83.883,171.193,84.294,171.161z M84.078,169.425c0-0.49-0.079-0.837-0.236-1.04c-0.157-0.202-0.413-0.304-0.768-0.304
			s-0.621,0.106-0.8,0.32c-0.179,0.213-0.271,0.555-0.276,1.023H84.078z"/>
		<path fill="#4D4D4D" d="M86.214,171.657h-0.6v-4h0.592v0.28c0.432-0.24,0.846-0.36,1.24-0.36c0.533,0,0.892,0.145,1.076,0.432
			c0.184,0.288,0.275,0.801,0.275,1.536v2.112h-0.592v-2.096c0-0.555-0.055-0.935-0.164-1.141c-0.109-0.205-0.343-0.308-0.7-0.308
			c-0.171,0-0.351,0.025-0.54,0.076s-0.334,0.1-0.436,0.147l-0.152,0.072V171.657z"/>
		<path fill="#4D4D4D" d="M46.327,181.258v-5.744h0.6v5.744H46.327z"/>
		<path fill="#4D4D4D" d="M50.847,180.762l0.232-0.023l0.016,0.472c-0.608,0.085-1.128,0.128-1.56,0.128
			c-0.576,0-0.984-0.167-1.225-0.5s-0.359-0.853-0.359-1.556c0-1.403,0.557-2.104,1.672-2.104c0.538,0,0.941,0.15,1.208,0.452
			s0.399,0.774,0.399,1.42l-0.031,0.456h-2.641c0,0.442,0.08,0.771,0.24,0.984c0.16,0.213,0.438,0.319,0.836,0.319
			S50.436,180.794,50.847,180.762z M50.631,179.025c0-0.49-0.079-0.837-0.236-1.04c-0.157-0.202-0.413-0.304-0.768-0.304
			s-0.621,0.106-0.8,0.32c-0.179,0.213-0.271,0.555-0.276,1.023H50.631z"/>
		<path fill="#4D4D4D" d="M53.423,177.714c-0.581,0-0.872,0.203-0.872,0.608c0,0.187,0.066,0.318,0.2,0.396
			c0.133,0.077,0.438,0.157,0.912,0.24s0.811,0.198,1.008,0.348s0.296,0.43,0.296,0.84c0,0.411-0.132,0.712-0.396,0.904
			c-0.265,0.192-0.649,0.288-1.156,0.288c-0.331,0-0.721-0.037-1.168-0.112l-0.24-0.04l0.032-0.52
			c0.607,0.091,1.066,0.136,1.376,0.136c0.309,0,0.545-0.049,0.708-0.147c0.162-0.099,0.244-0.265,0.244-0.496
			c0-0.232-0.069-0.39-0.208-0.473c-0.139-0.082-0.443-0.161-0.912-0.235c-0.47-0.075-0.803-0.185-1-0.328
			c-0.197-0.145-0.296-0.411-0.296-0.8c0-0.39,0.137-0.678,0.412-0.864c0.274-0.187,0.617-0.28,1.027-0.28
			c0.325,0,0.733,0.037,1.225,0.112l0.224,0.04l-0.016,0.512C54.23,177.757,53.764,177.714,53.423,177.714z"/>
		<path fill="#4D4D4D" d="M58.606,180.762l0.232-0.023l0.016,0.472c-0.608,0.085-1.128,0.128-1.56,0.128
			c-0.576,0-0.984-0.167-1.225-0.5s-0.359-0.853-0.359-1.556c0-1.403,0.557-2.104,1.672-2.104c0.538,0,0.941,0.15,1.208,0.452
			s0.399,0.774,0.399,1.42l-0.031,0.456h-2.641c0,0.442,0.08,0.771,0.24,0.984c0.16,0.213,0.438,0.319,0.836,0.319
			S58.195,180.794,58.606,180.762z M58.391,179.025c0-0.49-0.079-0.837-0.236-1.04c-0.157-0.202-0.413-0.304-0.768-0.304
			s-0.621,0.106-0.8,0.32c-0.179,0.213-0.271,0.555-0.276,1.023H58.391z"/>
		<path fill="#4D4D4D" d="M60.526,181.258h-0.6v-4h0.592v0.28c0.432-0.24,0.846-0.36,1.24-0.36c0.533,0,0.892,0.145,1.076,0.432
			c0.184,0.288,0.275,0.801,0.275,1.536v2.112h-0.592v-2.096c0-0.555-0.055-0.935-0.164-1.141c-0.109-0.205-0.343-0.308-0.7-0.308
			c-0.171,0-0.351,0.025-0.54,0.076s-0.334,0.1-0.436,0.147l-0.152,0.072V181.258z"/>
	</g>
</g>
<polyline fill="none" stroke="#00B8FA" stroke-miterlimit="10" points="129.999,77.949 129.999,63.363 71.481,63.363 "/>
<polyline fill="none" stroke="#00B8FA" stroke-miterlimit="10" points="72.133,52.25 72.133,63.363 11.297,63.363 11.297,77.949 "/>
<line fill="none" stroke="#00B8FA" stroke-miterlimit="10" x1="11.949" y1="95.313" x2="11.949" y2="111.982"/>
<line fill="none" stroke="#00B8FA" stroke-miterlimit="10" x1="130.693" y1="95.313" x2="130.693" y2="111.982"/>
<line fill="none" stroke="#00B8FA" stroke-miterlimit="10" x1="130.693" y1="136.313" x2="130.693" y2="152.982"/>
<g>
	<g>
		<path fill="#4D4D4D" d="M1.555,88.829v-5.744h0.6v5.744H1.555z"/>
		<path fill="#4D4D4D" d="M6.179,86.037v2.048c0.016,0.197,0.17,0.314,0.464,0.353l-0.024,0.472c-0.421,0-0.738-0.106-0.952-0.32
			c-0.479,0.214-0.96,0.32-1.439,0.32c-0.368,0-0.648-0.104-0.84-0.312c-0.192-0.208-0.288-0.506-0.288-0.896
			s0.099-0.676,0.296-0.86c0.197-0.184,0.507-0.297,0.928-0.34l1.256-0.12v-0.344c0-0.272-0.059-0.467-0.176-0.584
			s-0.277-0.176-0.48-0.176c-0.427,0-0.869,0.026-1.327,0.08l-0.248,0.023l-0.024-0.456c0.587-0.117,1.106-0.176,1.56-0.176
			c0.454,0,0.783,0.104,0.988,0.312S6.179,85.595,6.179,86.037z M3.714,87.669c0,0.491,0.203,0.736,0.608,0.736
			c0.362,0,0.72-0.062,1.072-0.185l0.184-0.063v-1.32l-1.184,0.112c-0.24,0.021-0.414,0.091-0.521,0.208S3.714,87.445,3.714,87.669z
			"/>
		<path fill="#4D4D4D" d="M7.962,88.829h-0.6v-4h0.592v0.28c0.432-0.24,0.846-0.36,1.24-0.36c0.533,0,0.892,0.145,1.076,0.432
			c0.184,0.288,0.275,0.801,0.275,1.536v2.112H9.954v-2.096c0-0.555-0.055-0.935-0.164-1.141c-0.109-0.205-0.343-0.308-0.7-0.308
			c-0.171,0-0.351,0.025-0.54,0.076s-0.334,0.1-0.436,0.147l-0.152,0.072V88.829z"/>
		<path fill="#4D4D4D" d="M13.202,90.709c-0.64,0-1.087-0.087-1.34-0.26c-0.254-0.174-0.38-0.489-0.38-0.948
			c0-0.219,0.048-0.396,0.144-0.532c0.096-0.136,0.259-0.289,0.488-0.46c-0.149-0.101-0.225-0.285-0.225-0.552
			c0-0.091,0.067-0.259,0.2-0.504l0.072-0.128c-0.422-0.192-0.632-0.595-0.632-1.208c0-0.912,0.498-1.368,1.496-1.368
			c0.256,0,0.493,0.026,0.712,0.08l0.12,0.024l1.184-0.032v0.512l-0.76-0.016c0.176,0.176,0.264,0.442,0.264,0.8
			c0,0.501-0.124,0.852-0.372,1.052s-0.639,0.3-1.172,0.3c-0.144,0-0.274-0.011-0.392-0.031c-0.097,0.234-0.145,0.387-0.145,0.456
			c0,0.165,0.051,0.268,0.152,0.308s0.408,0.06,0.92,0.06s0.88,0.08,1.104,0.24c0.225,0.16,0.337,0.472,0.337,0.937
			C14.979,90.285,14.386,90.709,13.202,90.709z M12.074,89.453c0,0.282,0.078,0.479,0.235,0.588s0.448,0.164,0.872,0.164
			c0.425,0,0.729-0.059,0.912-0.176c0.185-0.117,0.276-0.313,0.276-0.588c0-0.275-0.066-0.452-0.2-0.532
			c-0.133-0.08-0.395-0.12-0.784-0.12l-0.863-0.04c-0.177,0.128-0.295,0.24-0.356,0.336S12.074,89.304,12.074,89.453z M12.13,86.117
			c0,0.314,0.07,0.539,0.212,0.672c0.142,0.134,0.375,0.2,0.7,0.2s0.558-0.066,0.696-0.2c0.139-0.133,0.208-0.358,0.208-0.676
			s-0.069-0.543-0.208-0.676c-0.139-0.134-0.371-0.2-0.696-0.2s-0.559,0.067-0.7,0.204C12.2,85.577,12.13,85.803,12.13,86.117z"/>
		<path fill="#4D4D4D" d="M18.49,88.333l0.232-0.023l0.016,0.472c-0.608,0.085-1.128,0.128-1.56,0.128
			c-0.576,0-0.984-0.167-1.225-0.5s-0.359-0.853-0.359-1.556c0-1.403,0.557-2.104,1.672-2.104c0.538,0,0.941,0.15,1.208,0.452
			s0.399,0.774,0.399,1.42l-0.031,0.456h-2.641c0,0.442,0.08,0.771,0.24,0.984c0.16,0.213,0.438,0.319,0.836,0.319
			S18.079,88.365,18.49,88.333z M18.274,86.597c0-0.49-0.079-0.837-0.236-1.04c-0.157-0.202-0.413-0.304-0.768-0.304
			s-0.621,0.106-0.8,0.32c-0.179,0.213-0.271,0.555-0.276,1.023H18.274z"/>
		<path fill="#4D4D4D" d="M24.722,88.829h-3.048v-5.536h0.616v4.984h2.432V88.829z"/>
		<path fill="#4D4D4D" d="M28.227,86.037v2.048c0.016,0.197,0.17,0.314,0.464,0.353l-0.024,0.472c-0.421,0-0.738-0.106-0.952-0.32
			c-0.479,0.214-0.96,0.32-1.439,0.32c-0.368,0-0.648-0.104-0.84-0.312c-0.192-0.208-0.288-0.506-0.288-0.896
			s0.099-0.676,0.296-0.86c0.197-0.184,0.507-0.297,0.928-0.34l1.256-0.12v-0.344c0-0.272-0.059-0.467-0.176-0.584
			s-0.277-0.176-0.48-0.176c-0.427,0-0.869,0.026-1.327,0.08l-0.248,0.023l-0.024-0.456c0.587-0.117,1.106-0.176,1.56-0.176
			c0.454,0,0.783,0.104,0.988,0.312S28.227,85.595,28.227,86.037z M25.762,87.669c0,0.491,0.203,0.736,0.608,0.736
			c0.362,0,0.72-0.062,1.072-0.185l0.184-0.063v-1.32l-1.184,0.112c-0.24,0.021-0.414,0.091-0.521,0.208
			S25.762,87.445,25.762,87.669z"/>
		<path fill="#4D4D4D" d="M31.906,84.829h0.6v4h-0.6v-0.28c-0.4,0.24-0.795,0.36-1.185,0.36c-0.544,0-0.905-0.142-1.084-0.424
			c-0.179-0.283-0.268-0.806-0.268-1.568v-2.088h0.6v2.08c0,0.581,0.051,0.971,0.152,1.168s0.33,0.296,0.688,0.296
			c0.177,0,0.355-0.025,0.536-0.076c0.182-0.051,0.32-0.1,0.416-0.147l0.145-0.072V84.829z"/>
		<path fill="#4D4D4D" d="M34.426,85.349v3.48h-0.6v-3.48h-0.504v-0.52h0.504v-0.36c0-0.564,0.08-0.95,0.24-1.155
			c0.159-0.206,0.439-0.309,0.84-0.309l0.808,0.057l-0.008,0.495c-0.299-0.01-0.545-0.016-0.74-0.016
			c-0.194,0-0.333,0.064-0.416,0.192s-0.124,0.376-0.124,0.744v0.352h1.16v0.52H34.426z"/>
		<path fill="#4D4D4D" d="M36.065,85.365v-0.536h2.968v0.536l-2.239,2.928h2.239v0.536h-2.968v-0.536l2.24-2.928H36.065z"/>
		<path fill="#4D4D4D" d="M42.642,88.333l0.232-0.023l0.016,0.472c-0.608,0.085-1.128,0.128-1.56,0.128
			c-0.576,0-0.984-0.167-1.225-0.5s-0.359-0.853-0.359-1.556c0-1.403,0.557-2.104,1.672-2.104c0.538,0,0.941,0.15,1.208,0.452
			s0.399,0.774,0.399,1.42l-0.031,0.456h-2.641c0,0.442,0.08,0.771,0.24,0.984c0.16,0.213,0.438,0.319,0.836,0.319
			S42.23,88.365,42.642,88.333z M42.426,86.597c0-0.49-0.079-0.837-0.236-1.04c-0.157-0.202-0.413-0.304-0.768-0.304
			s-0.621,0.106-0.8,0.32c-0.179,0.213-0.271,0.555-0.276,1.023H42.426z"/>
		<path fill="#4D4D4D" d="M43.962,83.925v-0.695h0.6v0.695H43.962z M43.962,88.829v-4h0.6v4H43.962z"/>
		<path fill="#4D4D4D" d="M47.786,85.349h-1.272v1.912c0,0.459,0.033,0.761,0.1,0.904c0.067,0.145,0.226,0.216,0.477,0.216
			l0.712-0.048l0.04,0.496c-0.357,0.059-0.63,0.088-0.816,0.088c-0.416,0-0.704-0.102-0.863-0.304c-0.16-0.203-0.24-0.59-0.24-1.16
			v-2.104h-0.568v-0.52h0.568v-1.224h0.592v1.224h1.272V85.349z"/>
		<path fill="#4D4D4D" d="M51.241,88.333l0.232-0.023l0.016,0.472c-0.608,0.085-1.128,0.128-1.56,0.128
			c-0.576,0-0.984-0.167-1.225-0.5s-0.359-0.853-0.359-1.556c0-1.403,0.557-2.104,1.672-2.104c0.538,0,0.941,0.15,1.208,0.452
			s0.399,0.774,0.399,1.42l-0.031,0.456h-2.641c0,0.442,0.08,0.771,0.24,0.984c0.16,0.213,0.438,0.319,0.836,0.319
			S50.83,88.365,51.241,88.333z M51.025,86.597c0-0.49-0.079-0.837-0.236-1.04c-0.157-0.202-0.413-0.304-0.768-0.304
			s-0.621,0.106-0.8,0.32c-0.179,0.213-0.271,0.555-0.276,1.023H51.025z"/>
		<path fill="#4D4D4D" d="M53.161,88.829h-0.6v-4h0.592v0.28c0.432-0.24,0.846-0.36,1.24-0.36c0.533,0,0.892,0.145,1.076,0.432
			c0.184,0.288,0.275,0.801,0.275,1.536v2.112h-0.592v-2.096c0-0.555-0.055-0.935-0.164-1.141c-0.109-0.205-0.343-0.308-0.7-0.308
			c-0.171,0-0.351,0.025-0.54,0.076s-0.334,0.1-0.436,0.147l-0.152,0.072V88.829z"/>
	</g>
</g>
<g>
	<line fill="none" stroke="#4D4D4D" stroke-miterlimit="10" x1="100" y1="166.75" x2="113.042" y2="166.75"/>
	<polygon fill="#4D4D4D" points="94.129,166.625 103.279,171.908 103.279,161.342 	"/>
</g>
</svg>
