<?xml version="1.0" encoding="utf-8"?>
<!-- Generator: Adobe Illustrator 21.1.0, SVG Export Plug-In . SVG Version: 6.00 Build 0)  -->
<svg version="1.1" id="Ebene_1" xmlns="http://www.w3.org/2000/svg" xmlns:xlink="http://www.w3.org/1999/xlink" x="0px" y="0px"
	 viewBox="0 0 200 200" enable-background="new 0 0 200 200" xml:space="preserve">
<rect x="0.333" y="0.333" fill="#FFFFFF" width="200" height="200.667"/>
<polyline fill="none" stroke="#4D4D4D" stroke-miterlimit="10" points="9.509,123.969 23.509,76.719 37.634,90.219 51.134,36.719 
	64.634,88.969 78.25,99.5 92,63.25 106.009,174.219 120.009,166.469 133.5,50.5 147,52.75 160.75,28.75 "/>
<line fill="none" stroke="#4D4D4D" stroke-miterlimit="10" x1="-3.013" y1="108.646" x2="173.917" y2="108.646"/>
<line fill="none" stroke="#4D4D4D" stroke-miterlimit="10" x1="174.234" y1="185.334" x2="174.234" y2="6.75"/>
<g>
	<g>
		<path fill="#4D4D4D" d="M8.139,116.319c0.328,0,0.594,0.062,0.798,0.187c0.433,0.256,0.648,0.896,0.648,1.92
			c0,0.724-0.12,1.235-0.36,1.533s-0.6,0.446-1.08,0.446c-0.479,0-0.841-0.146-1.083-0.44s-0.362-0.818-0.362-1.572
			s0.118-1.288,0.356-1.602C7.294,116.477,7.655,116.319,8.139,116.319z M8.145,116.733c-0.228,0-0.407,0.048-0.54,0.145
			c-0.284,0.196-0.426,0.714-0.426,1.554c0,0.592,0.078,1.001,0.234,1.228c0.155,0.226,0.399,0.339,0.731,0.339
			s0.576-0.114,0.732-0.343c0.156-0.228,0.234-0.65,0.234-1.269s-0.075-1.048-0.226-1.29C8.736,116.854,8.489,116.733,8.145,116.733
			z"/>
		<path fill="#4D4D4D" d="M12.159,116.386v3.96h-0.462v-3.444l-1.021,0.672l-0.21-0.348l1.261-0.84H12.159z"/>
	</g>
</g>
<g>
	<g>
		<path fill="#4D4D4D" d="M184.655,103.658c0.437,0,0.792,0.083,1.063,0.248c0.576,0.342,0.864,1.195,0.864,2.561
			c0,0.965-0.16,1.646-0.48,2.044c-0.319,0.397-0.8,0.596-1.439,0.596c-0.641,0-1.122-0.196-1.444-0.588
			c-0.322-0.393-0.484-1.091-0.484-2.096c0-1.006,0.159-1.718,0.477-2.137C183.528,103.868,184.01,103.658,184.655,103.658z
			 M184.663,104.21c-0.305,0-0.544,0.064-0.721,0.192c-0.378,0.262-0.567,0.952-0.567,2.072c0,0.789,0.104,1.335,0.312,1.636
			c0.208,0.302,0.533,0.452,0.977,0.452c0.442,0,0.768-0.152,0.976-0.456s0.312-0.868,0.312-1.692c0-0.823-0.101-1.396-0.301-1.72
			C185.451,104.372,185.121,104.21,184.663,104.21z"/>
		<path fill="#4D4D4D" d="M189.767,103.666c0.587,0,0.881,0.368,0.881,1.104c0,0.379-0.078,0.661-0.232,0.848
			s-0.371,0.28-0.648,0.28s-0.493-0.094-0.647-0.28c-0.155-0.187-0.232-0.469-0.232-0.848
			C188.887,104.034,189.181,103.666,189.767,103.666z M189.375,104.771c0,0.479,0.132,0.72,0.396,0.72
			c0.264,0,0.396-0.24,0.396-0.72c0-0.24-0.03-0.416-0.092-0.528s-0.163-0.168-0.304-0.168c-0.142,0-0.243,0.056-0.305,0.168
			S189.375,104.53,189.375,104.771z M189.903,109.059l1.64-5.48l0.384,0.128l-1.64,5.464L189.903,109.059z M191.167,107.971
			c0-0.731,0.292-1.097,0.876-1.097s0.876,0.368,0.876,1.104c0,0.373-0.077,0.654-0.231,0.844c-0.155,0.189-0.371,0.284-0.648,0.284
			s-0.492-0.095-0.644-0.284C191.243,108.633,191.167,108.349,191.167,107.971z M191.647,107.971c0,0.485,0.13,0.728,0.392,0.728
			c0.149,0,0.253-0.059,0.312-0.176c0.059-0.117,0.088-0.299,0.088-0.544s-0.029-0.423-0.088-0.532
			c-0.06-0.109-0.16-0.164-0.305-0.164c-0.144,0-0.246,0.055-0.308,0.164S191.647,107.73,191.647,107.971z"/>
	</g>
</g>
<g>
	<g>
		<path fill="#4D4D4D" d="M182.967,131.856v-0.561h2.424v0.561H182.967z"/>
		<path fill="#4D4D4D" d="M189.039,128.496v5.28h-0.616v-4.592l-1.36,0.896l-0.279-0.464l1.68-1.12H189.039z"/>
		<path fill="#4D4D4D" d="M193.271,128.416c0.587,0,0.881,0.368,0.881,1.104c0,0.379-0.078,0.661-0.232,0.848
			s-0.371,0.28-0.648,0.28s-0.493-0.094-0.647-0.28c-0.155-0.187-0.232-0.469-0.232-0.848
			C192.391,128.784,192.685,128.416,193.271,128.416z M192.879,129.521c0,0.479,0.132,0.72,0.396,0.72
			c0.264,0,0.396-0.24,0.396-0.72c0-0.24-0.03-0.416-0.092-0.528s-0.163-0.168-0.304-0.168c-0.142,0-0.243,0.056-0.305,0.168
			S192.879,129.28,192.879,129.521z M193.407,133.809l1.64-5.48l0.384,0.128l-1.64,5.464L193.407,133.809z M194.671,132.721
			c0-0.731,0.292-1.097,0.876-1.097s0.876,0.368,0.876,1.104c0,0.373-0.077,0.654-0.231,0.844c-0.155,0.189-0.371,0.284-0.648,0.284
			s-0.492-0.095-0.644-0.284C194.747,133.383,194.671,133.099,194.671,132.721z M195.151,132.721c0,0.485,0.13,0.728,0.392,0.728
			c0.149,0,0.253-0.059,0.312-0.176c0.059-0.117,0.088-0.299,0.088-0.544s-0.029-0.423-0.088-0.532
			c-0.06-0.109-0.16-0.164-0.305-0.164c-0.144,0-0.246,0.055-0.308,0.164S195.151,132.48,195.151,132.721z"/>
	</g>
</g>
<g>
	<g>
		<path fill="#4D4D4D" d="M182.967,157.606v-0.561h2.424v0.561H182.967z"/>
		<path fill="#4D4D4D" d="M189.854,159.526h-3.376v-0.52l1.544-1.624c0.267-0.277,0.462-0.488,0.584-0.633
			c0.123-0.144,0.233-0.314,0.332-0.512s0.148-0.395,0.148-0.592c0-0.342-0.094-0.581-0.28-0.72s-0.478-0.208-0.872-0.208
			c-0.347,0-0.733,0.045-1.16,0.136l-0.208,0.04l-0.048-0.512c0.507-0.145,1.029-0.217,1.568-0.217c0.538,0,0.945,0.113,1.22,0.341
			c0.274,0.227,0.412,0.585,0.412,1.075c0,0.374-0.083,0.699-0.248,0.977s-0.451,0.61-0.855,1l-1.408,1.432h2.647V159.526z"/>
		<path fill="#4D4D4D" d="M193.271,154.166c0.587,0,0.881,0.368,0.881,1.104c0,0.379-0.078,0.661-0.232,0.848
			s-0.371,0.28-0.648,0.28s-0.493-0.094-0.647-0.28c-0.155-0.187-0.232-0.469-0.232-0.848
			C192.391,154.534,192.685,154.166,193.271,154.166z M192.879,155.271c0,0.479,0.132,0.72,0.396,0.72
			c0.264,0,0.396-0.24,0.396-0.72c0-0.24-0.03-0.416-0.092-0.528s-0.163-0.168-0.304-0.168c-0.142,0-0.243,0.056-0.305,0.168
			S192.879,155.03,192.879,155.271z M193.407,159.559l1.64-5.48l0.384,0.128l-1.64,5.464L193.407,159.559z M194.671,158.471
			c0-0.731,0.292-1.097,0.876-1.097s0.876,0.368,0.876,1.104c0,0.373-0.077,0.654-0.231,0.844c-0.155,0.189-0.371,0.284-0.648,0.284
			s-0.492-0.095-0.644-0.284C194.747,159.133,194.671,158.849,194.671,158.471z M195.151,158.471c0,0.485,0.13,0.728,0.392,0.728
			c0.149,0,0.253-0.059,0.312-0.176c0.059-0.117,0.088-0.299,0.088-0.544s-0.029-0.423-0.088-0.532
			c-0.06-0.109-0.16-0.164-0.305-0.164c-0.144,0-0.246,0.055-0.308,0.164S195.151,158.23,195.151,158.471z"/>
	</g>
</g>
<g>
	<g>
		<path fill="#4D4D4D" d="M182.967,183.106v-0.561h2.424v0.561H182.967z"/>
		<path fill="#4D4D4D" d="M186.503,179.883c0.501-0.149,1.038-0.225,1.612-0.225c0.573,0,0.987,0.109,1.243,0.328
			c0.257,0.219,0.385,0.568,0.385,1.048c0,0.245-0.034,0.423-0.101,0.532s-0.12,0.193-0.16,0.252s-0.092,0.115-0.155,0.168
			c-0.118,0.091-0.211,0.155-0.28,0.192l-0.088,0.056c0.309,0.112,0.538,0.255,0.688,0.428c0.149,0.174,0.225,0.458,0.225,0.853
			c0,0.538-0.138,0.938-0.412,1.2c-0.275,0.261-0.708,0.392-1.3,0.392c-0.47,0-0.966-0.054-1.488-0.16l-0.248-0.056l0.056-0.504
			c0.576,0.117,1.115,0.176,1.616,0.176c0.763-0.006,1.144-0.347,1.144-1.024c0-0.635-0.362-0.965-1.088-0.992h-1.063v-0.527h1.063
			c0.225,0,0.44-0.09,0.648-0.269s0.312-0.414,0.312-0.708c0-0.293-0.082-0.505-0.248-0.636c-0.165-0.131-0.442-0.196-0.832-0.196
			c-0.426,0-0.848,0.04-1.264,0.12l-0.208,0.04L186.503,179.883z"/>
		<path fill="#4D4D4D" d="M193.271,179.666c0.587,0,0.881,0.368,0.881,1.104c0,0.379-0.078,0.661-0.232,0.848
			s-0.371,0.28-0.648,0.28s-0.493-0.094-0.647-0.28c-0.155-0.187-0.232-0.469-0.232-0.848
			C192.391,180.034,192.685,179.666,193.271,179.666z M192.879,180.771c0,0.479,0.132,0.72,0.396,0.72
			c0.264,0,0.396-0.24,0.396-0.72c0-0.24-0.03-0.416-0.092-0.528s-0.163-0.168-0.304-0.168c-0.142,0-0.243,0.056-0.305,0.168
			S192.879,180.53,192.879,180.771z M193.407,185.059l1.64-5.48l0.384,0.128l-1.64,5.464L193.407,185.059z M194.671,183.971
			c0-0.731,0.292-1.097,0.876-1.097s0.876,0.368,0.876,1.104c0,0.373-0.077,0.654-0.231,0.844c-0.155,0.189-0.371,0.284-0.648,0.284
			s-0.492-0.095-0.644-0.284C194.747,184.633,194.671,184.349,194.671,183.971z M195.151,183.971c0,0.485,0.13,0.728,0.392,0.728
			c0.149,0,0.253-0.059,0.312-0.176c0.059-0.117,0.088-0.299,0.088-0.544s-0.029-0.423-0.088-0.532
			c-0.06-0.109-0.16-0.164-0.305-0.164c-0.144,0-0.246,0.055-0.308,0.164S195.151,183.73,195.151,183.971z"/>
	</g>
</g>
<g>
	<g>
		<path fill="#4D4D4D" d="M185.535,78.496v5.28h-0.616v-4.592l-1.36,0.896l-0.279-0.464l1.68-1.12H185.535z"/>
		<path fill="#4D4D4D" d="M189.767,78.416c0.587,0,0.881,0.368,0.881,1.104c0,0.379-0.078,0.661-0.232,0.848s-0.371,0.28-0.648,0.28
			s-0.493-0.094-0.647-0.28c-0.155-0.187-0.232-0.469-0.232-0.848C188.887,78.784,189.181,78.416,189.767,78.416z M189.375,79.521
			c0,0.479,0.132,0.72,0.396,0.72c0.264,0,0.396-0.24,0.396-0.72c0-0.24-0.03-0.416-0.092-0.528s-0.163-0.168-0.304-0.168
			c-0.142,0-0.243,0.056-0.305,0.168S189.375,79.28,189.375,79.521z M189.903,83.809l1.64-5.48l0.384,0.128l-1.64,5.464
			L189.903,83.809z M191.167,82.721c0-0.731,0.292-1.097,0.876-1.097s0.876,0.368,0.876,1.104c0,0.373-0.077,0.654-0.231,0.844
			c-0.155,0.189-0.371,0.284-0.648,0.284s-0.492-0.095-0.644-0.284C191.243,83.383,191.167,83.099,191.167,82.721z M191.647,82.721
			c0,0.485,0.13,0.728,0.392,0.728c0.149,0,0.253-0.059,0.312-0.176c0.059-0.117,0.088-0.299,0.088-0.544s-0.029-0.423-0.088-0.532
			c-0.06-0.109-0.16-0.164-0.305-0.164c-0.144,0-0.246,0.055-0.308,0.164S191.647,82.48,191.647,82.721z"/>
	</g>
</g>
<g>
	<g>
		<path fill="#4D4D4D" d="M186.351,58.026h-3.376v-0.52l1.544-1.624c0.267-0.277,0.462-0.488,0.584-0.633
			c0.123-0.144,0.233-0.314,0.332-0.512s0.148-0.395,0.148-0.592c0-0.342-0.094-0.581-0.28-0.72s-0.478-0.208-0.872-0.208
			c-0.347,0-0.733,0.045-1.16,0.136l-0.208,0.04l-0.048-0.512c0.507-0.145,1.029-0.217,1.568-0.217c0.538,0,0.945,0.113,1.22,0.341
			c0.274,0.227,0.412,0.585,0.412,1.075c0,0.374-0.083,0.699-0.248,0.977s-0.451,0.61-0.855,1l-1.408,1.432h2.647V58.026z"/>
		<path fill="#4D4D4D" d="M189.767,52.666c0.587,0,0.881,0.368,0.881,1.104c0,0.379-0.078,0.661-0.232,0.848s-0.371,0.28-0.648,0.28
			s-0.493-0.094-0.647-0.28c-0.155-0.187-0.232-0.469-0.232-0.848C188.887,53.034,189.181,52.666,189.767,52.666z M189.375,53.771
			c0,0.479,0.132,0.72,0.396,0.72c0.264,0,0.396-0.24,0.396-0.72c0-0.24-0.03-0.416-0.092-0.528s-0.163-0.168-0.304-0.168
			c-0.142,0-0.243,0.056-0.305,0.168S189.375,53.53,189.375,53.771z M189.903,58.059l1.64-5.48l0.384,0.128l-1.64,5.464
			L189.903,58.059z M191.167,56.971c0-0.731,0.292-1.097,0.876-1.097s0.876,0.368,0.876,1.104c0,0.373-0.077,0.654-0.231,0.844
			c-0.155,0.189-0.371,0.284-0.648,0.284s-0.492-0.095-0.644-0.284C191.243,57.633,191.167,57.349,191.167,56.971z M191.647,56.971
			c0,0.485,0.13,0.728,0.392,0.728c0.149,0,0.253-0.059,0.312-0.176c0.059-0.117,0.088-0.299,0.088-0.544s-0.029-0.423-0.088-0.532
			c-0.06-0.109-0.16-0.164-0.305-0.164c-0.144,0-0.246,0.055-0.308,0.164S191.647,56.73,191.647,56.971z"/>
	</g>
</g>
<g>
	<g>
		<path fill="#4D4D4D" d="M182.999,27.633c0.501-0.149,1.038-0.225,1.612-0.225c0.573,0,0.987,0.109,1.243,0.328
			c0.257,0.219,0.385,0.568,0.385,1.048c0,0.245-0.034,0.423-0.101,0.532s-0.12,0.193-0.16,0.252s-0.092,0.115-0.155,0.168
			c-0.118,0.091-0.211,0.155-0.28,0.192l-0.088,0.056c0.309,0.112,0.538,0.255,0.688,0.428c0.149,0.174,0.225,0.458,0.225,0.853
			c0,0.538-0.138,0.938-0.412,1.2c-0.275,0.261-0.708,0.392-1.3,0.392c-0.47,0-0.966-0.054-1.488-0.16l-0.248-0.056l0.056-0.504
			c0.576,0.117,1.115,0.176,1.616,0.176c0.763-0.006,1.144-0.347,1.144-1.024c0-0.635-0.362-0.965-1.088-0.992h-1.063v-0.527h1.063
			c0.225,0,0.44-0.09,0.648-0.269s0.312-0.414,0.312-0.708c0-0.293-0.082-0.505-0.248-0.636c-0.165-0.131-0.442-0.196-0.832-0.196
			c-0.426,0-0.848,0.04-1.264,0.12l-0.208,0.04L182.999,27.633z"/>
		<path fill="#4D4D4D" d="M189.767,27.416c0.587,0,0.881,0.368,0.881,1.104c0,0.379-0.078,0.661-0.232,0.848s-0.371,0.28-0.648,0.28
			s-0.493-0.094-0.647-0.28c-0.155-0.187-0.232-0.469-0.232-0.848C188.887,27.784,189.181,27.416,189.767,27.416z M189.375,28.521
			c0,0.479,0.132,0.72,0.396,0.72c0.264,0,0.396-0.24,0.396-0.72c0-0.24-0.03-0.416-0.092-0.528s-0.163-0.168-0.304-0.168
			c-0.142,0-0.243,0.056-0.305,0.168S189.375,28.28,189.375,28.521z M189.903,32.809l1.64-5.48l0.384,0.128l-1.64,5.464
			L189.903,32.809z M191.167,31.721c0-0.731,0.292-1.097,0.876-1.097s0.876,0.368,0.876,1.104c0,0.373-0.077,0.654-0.231,0.844
			c-0.155,0.189-0.371,0.284-0.648,0.284s-0.492-0.095-0.644-0.284C191.243,32.383,191.167,32.099,191.167,31.721z M191.647,31.721
			c0,0.485,0.13,0.728,0.392,0.728c0.149,0,0.253-0.059,0.312-0.176c0.059-0.117,0.088-0.299,0.088-0.544s-0.029-0.423-0.088-0.532
			c-0.06-0.109-0.16-0.164-0.305-0.164c-0.144,0-0.246,0.055-0.308,0.164S191.647,31.48,191.647,31.721z"/>
	</g>
</g>
<g>
	<g>
		<path fill="#4D4D4D" d="M185.303,7.777V6.745h-2.56V6.265l1.504-3.769h0.672l-1.528,3.704h1.912V4.553h0.616v1.647h0.672v0.544
			h-0.672v1.032H185.303z"/>
		<path fill="#4D4D4D" d="M189.767,2.417c0.587,0,0.881,0.368,0.881,1.104c0,0.379-0.078,0.661-0.232,0.848s-0.371,0.28-0.648,0.28
			s-0.493-0.094-0.647-0.28c-0.155-0.187-0.232-0.469-0.232-0.848C188.887,2.785,189.181,2.417,189.767,2.417z M189.375,3.521
			c0,0.479,0.132,0.72,0.396,0.72c0.264,0,0.396-0.24,0.396-0.72c0-0.24-0.03-0.416-0.092-0.528s-0.163-0.168-0.304-0.168
			c-0.142,0-0.243,0.056-0.305,0.168S189.375,3.281,189.375,3.521z M189.903,7.809l1.64-5.48l0.384,0.128l-1.64,5.464L189.903,7.809
			z M191.167,6.721c0-0.731,0.292-1.097,0.876-1.097s0.876,0.368,0.876,1.104c0,0.373-0.077,0.654-0.231,0.844
			c-0.155,0.189-0.371,0.284-0.648,0.284s-0.492-0.095-0.644-0.284C191.243,7.383,191.167,7.099,191.167,6.721z M191.647,6.721
			c0,0.485,0.13,0.728,0.392,0.728c0.149,0,0.253-0.059,0.312-0.176c0.059-0.117,0.088-0.299,0.088-0.544s-0.029-0.423-0.088-0.532
			c-0.06-0.109-0.16-0.164-0.305-0.164c-0.144,0-0.246,0.055-0.308,0.164S191.647,6.481,191.647,6.721z"/>
	</g>
</g>
<g>
	<g>
		<path fill="#4D4D4D" d="M21.588,116.26c0.328,0,0.594,0.062,0.798,0.187c0.433,0.256,0.648,0.896,0.648,1.92
			c0,0.724-0.12,1.235-0.36,1.533s-0.6,0.446-1.08,0.446c-0.479,0-0.841-0.146-1.083-0.44s-0.362-0.818-0.362-1.572
			s0.118-1.288,0.356-1.602C20.743,116.417,21.104,116.26,21.588,116.26z M21.594,116.674c-0.228,0-0.407,0.048-0.54,0.145
			c-0.284,0.196-0.426,0.714-0.426,1.554c0,0.592,0.078,1.001,0.234,1.228c0.155,0.226,0.399,0.339,0.731,0.339
			s0.576-0.114,0.732-0.343c0.156-0.228,0.234-0.65,0.234-1.269s-0.075-1.048-0.226-1.29
			C22.186,116.795,21.938,116.674,21.594,116.674z"/>
		<path fill="#4D4D4D" d="M26.221,120.286h-2.532v-0.39l1.158-1.219c0.199-0.208,0.346-0.365,0.438-0.474s0.175-0.236,0.249-0.384
			c0.074-0.148,0.111-0.296,0.111-0.444c0-0.256-0.07-0.436-0.21-0.54c-0.141-0.104-0.358-0.156-0.654-0.156
			c-0.26,0-0.55,0.034-0.87,0.103l-0.155,0.03l-0.036-0.385c0.38-0.107,0.771-0.161,1.176-0.161s0.709,0.085,0.915,0.255
			s0.309,0.438,0.309,0.807c0,0.28-0.062,0.524-0.186,0.732s-0.338,0.458-0.643,0.75l-1.056,1.073h1.986V120.286z"/>
	</g>
</g>
<g>
	<g>
		<path fill="#4D4D4D" d="M35.806,116.319c0.328,0,0.594,0.062,0.798,0.187c0.433,0.256,0.648,0.896,0.648,1.92
			c0,0.724-0.12,1.235-0.36,1.533s-0.6,0.446-1.08,0.446c-0.479,0-0.841-0.146-1.083-0.44s-0.362-0.818-0.362-1.572
			s0.118-1.288,0.356-1.602C34.961,116.477,35.322,116.319,35.806,116.319z M35.812,116.733c-0.228,0-0.407,0.048-0.54,0.145
			c-0.284,0.196-0.426,0.714-0.426,1.554c0,0.592,0.078,1.001,0.234,1.228c0.155,0.226,0.399,0.339,0.731,0.339
			s0.576-0.114,0.732-0.343c0.156-0.228,0.234-0.65,0.234-1.269s-0.075-1.048-0.226-1.29
			C36.403,116.854,36.156,116.733,35.812,116.733z"/>
		<path fill="#4D4D4D" d="M37.924,116.487c0.376-0.111,0.779-0.168,1.209-0.168c0.431,0,0.741,0.082,0.934,0.246
			c0.191,0.164,0.288,0.427,0.288,0.786c0,0.185-0.025,0.317-0.075,0.399s-0.09,0.145-0.12,0.188s-0.069,0.086-0.117,0.126
			c-0.088,0.068-0.158,0.116-0.21,0.145l-0.065,0.042c0.231,0.084,0.403,0.19,0.516,0.32c0.112,0.131,0.168,0.344,0.168,0.64
			c0,0.404-0.104,0.704-0.309,0.899c-0.206,0.196-0.531,0.294-0.976,0.294c-0.352,0-0.724-0.04-1.116-0.119l-0.186-0.042
			l0.042-0.379c0.432,0.089,0.836,0.133,1.212,0.133c0.572-0.004,0.858-0.261,0.858-0.769c0-0.476-0.272-0.724-0.816-0.744h-0.798
			v-0.396h0.798c0.168,0,0.33-0.067,0.486-0.201c0.155-0.134,0.233-0.311,0.233-0.531c0-0.22-0.062-0.379-0.186-0.477
			s-0.332-0.147-0.624-0.147c-0.32,0-0.636,0.03-0.948,0.09l-0.156,0.03L37.924,116.487z"/>
	</g>
</g>
<g>
	<g>
		<path fill="#4D4D4D" d="M49.236,116.319c0.328,0,0.594,0.062,0.798,0.187c0.433,0.256,0.648,0.896,0.648,1.92
			c0,0.724-0.12,1.235-0.36,1.533s-0.6,0.446-1.08,0.446c-0.479,0-0.841-0.146-1.083-0.44s-0.362-0.818-0.362-1.572
			s0.118-1.288,0.356-1.602C48.392,116.477,48.753,116.319,49.236,116.319z M49.242,116.733c-0.228,0-0.407,0.048-0.54,0.145
			c-0.284,0.196-0.426,0.714-0.426,1.554c0,0.592,0.078,1.001,0.234,1.228c0.155,0.226,0.399,0.339,0.731,0.339
			s0.576-0.114,0.732-0.343c0.156-0.228,0.234-0.65,0.234-1.269s-0.075-1.048-0.226-1.29
			C49.834,116.854,49.587,116.733,49.242,116.733z"/>
		<path fill="#4D4D4D" d="M53.083,120.346v-0.774h-1.92v-0.359l1.128-2.826h0.504l-1.146,2.778h1.435v-1.236h0.462v1.236h0.504
			v0.407h-0.504v0.774H53.083z"/>
	</g>
</g>
<g>
	<g>
		<path fill="#4D4D4D" d="M62.869,116.319c0.328,0,0.594,0.062,0.798,0.187c0.433,0.256,0.648,0.896,0.648,1.92
			c0,0.724-0.12,1.235-0.36,1.533s-0.6,0.446-1.08,0.446c-0.479,0-0.841-0.146-1.083-0.44s-0.362-0.818-0.362-1.572
			s0.118-1.288,0.356-1.602C62.024,116.477,62.386,116.319,62.869,116.319z M62.875,116.733c-0.228,0-0.407,0.048-0.54,0.145
			c-0.284,0.196-0.426,0.714-0.426,1.554c0,0.592,0.078,1.001,0.234,1.228c0.155,0.226,0.399,0.339,0.731,0.339
			s0.576-0.114,0.732-0.343c0.156-0.228,0.234-0.65,0.234-1.269s-0.075-1.048-0.226-1.29
			C63.467,116.854,63.22,116.733,62.875,116.733z"/>
		<path fill="#4D4D4D" d="M67.418,116.386v0.42h-1.927l-0.107,1.29c0.308-0.164,0.618-0.246,0.93-0.246c0.84,0,1.26,0.39,1.26,1.17
			c0,0.448-0.115,0.79-0.348,1.026s-0.558,0.354-0.978,0.354c-0.336,0-0.708-0.044-1.116-0.132l-0.198-0.042l0.054-0.366
			c0.46,0.088,0.848,0.133,1.161,0.133c0.314,0,0.551-0.081,0.711-0.243s0.24-0.39,0.24-0.682s-0.073-0.499-0.219-0.621
			c-0.146-0.121-0.354-0.183-0.621-0.183c-0.145,0-0.295,0.021-0.453,0.06c-0.158,0.04-0.279,0.08-0.363,0.12l-0.126,0.061
			L65,118.443l0.107-2.058H67.418z"/>
	</g>
</g>
<g>
	<g>
		<path fill="#4D4D4D" d="M76.315,116.319c0.328,0,0.594,0.062,0.798,0.187c0.433,0.256,0.648,0.896,0.648,1.92
			c0,0.724-0.12,1.235-0.36,1.533s-0.6,0.446-1.08,0.446c-0.479,0-0.841-0.146-1.083-0.44s-0.362-0.818-0.362-1.572
			s0.118-1.288,0.356-1.602C75.471,116.477,75.832,116.319,76.315,116.319z M76.321,116.733c-0.228,0-0.407,0.048-0.54,0.145
			c-0.284,0.196-0.426,0.714-0.426,1.554c0,0.592,0.078,1.001,0.234,1.228c0.155,0.226,0.399,0.339,0.731,0.339
			s0.576-0.114,0.732-0.343c0.156-0.228,0.234-0.65,0.234-1.269s-0.075-1.048-0.226-1.29
			C76.913,116.854,76.666,116.733,76.321,116.733z"/>
		<path fill="#4D4D4D" d="M80.894,116.806c-0.359-0.048-0.71-0.072-1.05-0.072s-0.602,0.118-0.786,0.354
			c-0.184,0.236-0.275,0.574-0.275,1.014l0.149-0.06c0.101-0.036,0.233-0.074,0.399-0.114s0.312-0.06,0.44-0.06
			c0.889,0,1.332,0.409,1.332,1.229c0,0.42-0.12,0.743-0.362,0.969c-0.242,0.227-0.583,0.339-1.023,0.339
			c-0.944,0-1.416-0.686-1.416-2.058c0-0.692,0.135-1.202,0.405-1.53c0.27-0.327,0.651-0.491,1.143-0.491
			c0.324,0,0.632,0.023,0.925,0.071l0.161,0.03L80.894,116.806z M79.742,118.281c-0.137,0-0.285,0.02-0.447,0.058
			s-0.289,0.075-0.381,0.11l-0.138,0.061c0.004,0.456,0.081,0.818,0.23,1.086c0.15,0.268,0.379,0.402,0.688,0.402
			c0.308,0,0.54-0.077,0.695-0.231c0.156-0.154,0.234-0.372,0.234-0.654c0-0.281-0.077-0.49-0.231-0.627
			C80.239,118.35,80.021,118.281,79.742,118.281z"/>
	</g>
</g>
<g>
	<g>
		<path fill="#4D4D4D" d="M90.665,116.319c0.328,0,0.594,0.062,0.798,0.187c0.433,0.256,0.648,0.896,0.648,1.92
			c0,0.724-0.12,1.235-0.36,1.533s-0.6,0.446-1.08,0.446c-0.479,0-0.841-0.146-1.083-0.44s-0.362-0.818-0.362-1.572
			s0.118-1.288,0.356-1.602C89.82,116.477,90.182,116.319,90.665,116.319z M90.671,116.733c-0.228,0-0.407,0.048-0.54,0.145
			c-0.284,0.196-0.426,0.714-0.426,1.554c0,0.592,0.078,1.001,0.234,1.228c0.155,0.226,0.399,0.339,0.731,0.339
			s0.576-0.114,0.732-0.343c0.156-0.228,0.234-0.65,0.234-1.269s-0.075-1.048-0.226-1.29
			C91.263,116.854,91.016,116.733,90.671,116.733z"/>
		<path fill="#4D4D4D" d="M92.813,116.806v-0.42h2.46v0.606l-1.523,3.413l-0.438-0.138l1.494-3.306v-0.156H92.813z"/>
	</g>
</g>
<g>
	<g>
		<path fill="#4D4D4D" d="M106.373,117.691c0,1.767-0.655,2.742-1.807,2.742c-1.016,0-1.703-0.951-1.719-2.671
			c0-1.742,0.751-2.702,1.807-2.702C105.75,115.061,106.373,116.036,106.373,117.691z M103.551,117.771
			c0,1.351,0.416,2.118,1.056,2.118c0.72,0,1.063-0.839,1.063-2.166c0-1.279-0.328-2.119-1.056-2.119
			C103.999,115.604,103.551,116.355,103.551,117.771z"/>
		<path fill="#4D4D4D" d="M106.959,119.026c0-0.655,0.392-1.119,1.031-1.392l-0.008-0.023c-0.576-0.272-0.823-0.72-0.823-1.167
			c0-0.824,0.695-1.384,1.606-1.384c1.008,0,1.512,0.632,1.512,1.279c0,0.439-0.216,0.911-0.855,1.216v0.023
			c0.647,0.256,1.047,0.712,1.047,1.344c0,0.903-0.775,1.511-1.767,1.511C107.614,120.434,106.959,119.786,106.959,119.026z
			 M109.758,118.994c0-0.632-0.44-0.936-1.144-1.135c-0.607,0.176-0.936,0.575-0.936,1.071c-0.024,0.527,0.376,0.991,1.039,0.991
			C109.35,119.922,109.758,119.53,109.758,118.994z M107.822,116.396c0,0.521,0.392,0.8,0.991,0.96
			c0.448-0.152,0.792-0.472,0.792-0.943c0-0.416-0.248-0.848-0.88-0.848C108.143,115.564,107.822,115.948,107.822,116.396z"/>
	</g>
</g>
<g>
	<g>
		<path fill="#4D4D4D" d="M118.233,116.319c0.328,0,0.594,0.062,0.798,0.187c0.433,0.256,0.648,0.896,0.648,1.92
			c0,0.724-0.12,1.235-0.36,1.533s-0.6,0.446-1.08,0.446c-0.479,0-0.841-0.146-1.083-0.44s-0.362-0.818-0.362-1.572
			s0.118-1.288,0.356-1.602C117.389,116.477,117.75,116.319,118.233,116.319z M118.239,116.733c-0.228,0-0.407,0.048-0.54,0.145
			c-0.284,0.196-0.426,0.714-0.426,1.554c0,0.592,0.078,1.001,0.234,1.228c0.155,0.226,0.399,0.339,0.731,0.339
			s0.576-0.114,0.732-0.343c0.156-0.228,0.234-0.65,0.234-1.269s-0.075-1.048-0.226-1.29
			C118.831,116.854,118.584,116.733,118.239,116.733z"/>
		<path fill="#4D4D4D" d="M121.402,119.998c0.724,0,1.088-0.46,1.092-1.38c-0.4,0.151-0.744,0.228-1.032,0.228
			c-0.864,0-1.296-0.402-1.296-1.206c0-0.404,0.124-0.724,0.372-0.96s0.582-0.354,1.002-0.354c0.483,0,0.844,0.179,1.08,0.536
			c0.235,0.358,0.354,0.885,0.354,1.578c0,0.694-0.133,1.195-0.398,1.503c-0.267,0.309-0.657,0.462-1.173,0.462
			c-0.301,0-0.61-0.027-0.931-0.084l-0.155-0.023l0.042-0.372C120.718,119.974,121.066,119.998,121.402,119.998z M121.498,118.438
			c0.244,0,0.525-0.054,0.846-0.162l0.156-0.054c-0.012-0.992-0.332-1.488-0.96-1.488c-0.28,0-0.499,0.081-0.657,0.243
			s-0.237,0.383-0.237,0.663C120.646,118.172,120.93,118.438,121.498,118.438z"/>
	</g>
</g>
<g>
	<g>
		<path fill="#4D4D4D" d="M132.166,116.386v3.96h-0.462v-3.444l-1.021,0.672l-0.21-0.348l1.261-0.84H132.166z"/>
		<path fill="#4D4D4D" d="M134.866,116.319c0.328,0,0.594,0.062,0.798,0.187c0.433,0.256,0.648,0.896,0.648,1.92
			c0,0.724-0.12,1.235-0.36,1.533s-0.6,0.446-1.08,0.446c-0.479,0-0.841-0.146-1.083-0.44s-0.362-0.818-0.362-1.572
			s0.118-1.288,0.356-1.602C134.021,116.477,134.383,116.319,134.866,116.319z M134.872,116.733c-0.228,0-0.407,0.048-0.54,0.145
			c-0.284,0.196-0.426,0.714-0.426,1.554c0,0.592,0.078,1.001,0.234,1.228c0.155,0.226,0.399,0.339,0.731,0.339
			s0.576-0.114,0.732-0.343c0.156-0.228,0.234-0.65,0.234-1.269s-0.075-1.048-0.226-1.29
			C135.464,116.854,135.217,116.733,134.872,116.733z"/>
	</g>
</g>
<g>
	<g>
		<path fill="#4D4D4D" d="M145.711,116.386v3.96h-0.462v-3.444l-1.021,0.672l-0.21-0.348l1.261-0.84H145.711z"/>
		<path fill="#4D4D4D" d="M149.071,116.386v3.96h-0.462v-3.444l-1.021,0.672l-0.21-0.348l1.261-0.84H149.071z"/>
	</g>
</g>
<g>
	<g>
		<path fill="#4D4D4D" d="M159.157,116.386v3.96h-0.462v-3.444l-1.021,0.672l-0.21-0.348l1.261-0.84H159.157z"/>
		<path fill="#4D4D4D" d="M163.13,120.346h-2.532v-0.39l1.158-1.219c0.199-0.208,0.346-0.365,0.438-0.474s0.175-0.236,0.249-0.384
			c0.074-0.148,0.111-0.296,0.111-0.444c0-0.256-0.07-0.436-0.21-0.54c-0.141-0.104-0.358-0.156-0.654-0.156
			c-0.26,0-0.55,0.034-0.87,0.103l-0.155,0.03l-0.036-0.385c0.38-0.107,0.771-0.161,1.176-0.161s0.709,0.085,0.915,0.255
			s0.309,0.438,0.309,0.807c0,0.28-0.062,0.524-0.186,0.732s-0.338,0.458-0.643,0.75l-1.056,1.073h1.986V120.346z"/>
	</g>
</g>
<line fill="none" stroke="#4D4D4D" stroke-miterlimit="10" x1="7.843" y1="108.548" x2="7.843" y2="113.531"/>
<line fill="none" stroke="#4D4D4D" stroke-miterlimit="10" x1="174.09" y1="133.68" x2="180.632" y2="133.68"/>
<line fill="none" stroke="#4D4D4D" stroke-miterlimit="10" x1="174.09" y1="185.097" x2="180.632" y2="185.097"/>
<line fill="none" stroke="#4D4D4D" stroke-miterlimit="10" x1="174.09" y1="159.172" x2="180.632" y2="159.172"/>
<line fill="none" stroke="#4D4D4D" stroke-miterlimit="10" x1="174.09" y1="108.655" x2="180.632" y2="108.655"/>
<line fill="none" stroke="#4D4D4D" stroke-miterlimit="10" x1="180.632" y1="83.267" x2="174.09" y2="83.267"/>
<line fill="none" stroke="#4D4D4D" stroke-miterlimit="10" x1="174.09" y1="57.767" x2="180.632" y2="57.767"/>
<line fill="none" stroke="#4D4D4D" stroke-miterlimit="10" x1="174.09" y1="32.434" x2="180.632" y2="32.434"/>
<line fill="none" stroke="#4D4D4D" stroke-miterlimit="10" x1="174.09" y1="6.994" x2="180.632" y2="6.994"/>
<line fill="none" stroke="#4D4D4D" stroke-miterlimit="10" x1="35.463" y1="108.548" x2="35.463" y2="113.531"/>
<line fill="none" stroke="#4D4D4D" stroke-miterlimit="10" x1="62.717" y1="108.548" x2="62.717" y2="113.531"/>
<line fill="none" stroke="#4D4D4D" stroke-miterlimit="10" x1="89.971" y1="108.548" x2="89.971" y2="113.531"/>
<line fill="none" stroke="#4D4D4D" stroke-miterlimit="10" x1="117.59" y1="108.548" x2="117.59" y2="113.531"/>
<line fill="none" stroke="#4D4D4D" stroke-miterlimit="10" x1="144.844" y1="108.548" x2="144.844" y2="113.531"/>
<line fill="none" stroke="#4D4D4D" stroke-miterlimit="10" x1="21.378" y1="108.548" x2="21.378" y2="113.531"/>
<line fill="none" stroke="#4D4D4D" stroke-miterlimit="10" x1="48.998" y1="108.548" x2="48.998" y2="113.531"/>
<line fill="none" stroke="#4D4D4D" stroke-miterlimit="10" x1="76.252" y1="108.548" x2="76.252" y2="113.531"/>
<line fill="none" stroke="#4D4D4D" stroke-miterlimit="10" x1="103.506" y1="108.548" x2="103.506" y2="113.531"/>
<line fill="none" stroke="#4D4D4D" stroke-miterlimit="10" x1="131.126" y1="108.548" x2="131.126" y2="113.531"/>
<line fill="none" stroke="#4D4D4D" stroke-miterlimit="10" x1="158.38" y1="108.548" x2="158.38" y2="113.531"/>
<g>
	<rect x="7.498" y="121.958" fill="#00B8FA" width="4.022" height="4.022"/>
</g>
<g>
	<rect x="21.498" y="74.708" fill="#00B8FA" width="4.022" height="4.022"/>
</g>
<g>
	<rect x="89.998" y="61.208" fill="#00B8FA" width="4.022" height="4.022"/>
</g>
<g>
	<rect x="131.489" y="48.489" fill="#00B8FA" width="4.022" height="4.022"/>
</g>
<g>
	<rect x="144.989" y="50.739" fill="#00B8FA" width="4.022" height="4.022"/>
</g>
<g>
	<rect x="158.739" y="26.739" fill="#00B8FA" width="4.022" height="4.022"/>
</g>
<g>
	<rect x="103.998" y="172.208" fill="#00B8FA" width="4.022" height="4.022"/>
</g>
<g>
	<rect x="117.998" y="164.458" fill="#00B8FA" width="4.022" height="4.022"/>
</g>
<g>
	<rect x="35.623" y="88.208" fill="#00B8FA" width="4.022" height="4.022"/>
</g>
<g>
	<rect x="49.123" y="34.708" fill="#00B8FA" width="4.022" height="4.022"/>
</g>
<g>
	<rect x="62.623" y="86.958" fill="#00B8FA" width="4.022" height="4.022"/>
</g>
<g>
	<rect x="76.373" y="96.958" fill="#00B8FA" width="4.022" height="4.022"/>
</g>
<g>
	<g>
		<path fill="#4D4D4D" d="M2.309,7.724H0.332V2.188h1.977c0.901,0,1.498,0.357,1.792,1.072c0.17,0.41,0.256,0.949,0.256,1.616
			c0,1.392-0.347,2.269-1.04,2.632C3.039,7.651,2.703,7.724,2.309,7.724z M3.725,4.876c0-1.062-0.237-1.723-0.712-1.984
			c-0.192-0.106-0.427-0.16-0.704-0.16h-1.36V7.18h1.36C3.252,7.18,3.725,6.412,3.725,4.876z"/>
		<path fill="#4D4D4D" d="M7.885,3.724h0.6v4h-0.6v-0.28c-0.4,0.24-0.795,0.36-1.185,0.36c-0.544,0-0.905-0.142-1.084-0.424
			C5.438,7.097,5.349,6.574,5.349,5.812V3.724h0.6v2.08c0,0.581,0.051,0.971,0.152,1.168s0.33,0.296,0.688,0.296
			c0.177,0,0.355-0.025,0.536-0.076c0.182-0.051,0.32-0.1,0.416-0.147l0.145-0.072V3.724z"/>
		<path fill="#4D4D4D" d="M9.637,7.724v-4h0.592v0.544c0.464-0.32,0.952-0.53,1.464-0.632v0.607c-0.224,0.043-0.457,0.109-0.7,0.2
			c-0.242,0.091-0.428,0.171-0.556,0.24l-0.2,0.104v2.936H9.637z"/>
		<path fill="#4D4D4D" d="M13.82,3.644c0.176,0,0.475,0.032,0.896,0.096l0.192,0.024l-0.024,0.488
			C14.457,4.204,14.143,4.18,13.94,4.18c-0.454,0-0.762,0.108-0.925,0.324c-0.162,0.216-0.243,0.616-0.243,1.2
			s0.075,0.99,0.228,1.22s0.468,0.344,0.948,0.344l0.943-0.072l0.024,0.496c-0.496,0.075-0.867,0.112-1.112,0.112
			c-0.624,0-1.055-0.16-1.292-0.48c-0.237-0.319-0.355-0.859-0.355-1.619c0-0.761,0.128-1.294,0.384-1.601S13.223,3.644,13.82,3.644
			z"/>
		<path fill="#4D4D4D" d="M16.412,7.724h-0.6V1.979h0.6v1.968c0.427-0.202,0.838-0.304,1.232-0.304c0.533,0,0.892,0.145,1.076,0.432
			c0.184,0.288,0.275,0.801,0.275,1.536v2.112h-0.6V5.628c0-0.555-0.055-0.935-0.164-1.141c-0.109-0.205-0.34-0.308-0.692-0.308
			c-0.336,0-0.661,0.062-0.976,0.184L16.412,4.42V7.724z"/>
		<path fill="#4D4D4D" d="M21.364,4.18c-0.581,0-0.872,0.203-0.872,0.608c0,0.187,0.066,0.318,0.2,0.396
			c0.133,0.077,0.438,0.157,0.912,0.24s0.811,0.198,1.008,0.348s0.296,0.43,0.296,0.84c0,0.411-0.132,0.712-0.396,0.904
			c-0.265,0.192-0.649,0.288-1.156,0.288c-0.331,0-0.721-0.037-1.168-0.112l-0.24-0.04l0.032-0.52
			c0.607,0.091,1.066,0.136,1.376,0.136c0.309,0,0.545-0.049,0.708-0.147c0.162-0.099,0.244-0.265,0.244-0.496
			c0-0.232-0.069-0.39-0.208-0.473c-0.139-0.082-0.443-0.161-0.912-0.235c-0.47-0.075-0.803-0.185-1-0.328
			c-0.197-0.145-0.296-0.411-0.296-0.8c0-0.39,0.137-0.678,0.412-0.864c0.274-0.187,0.617-0.28,1.027-0.28
			c0.325,0,0.733,0.037,1.225,0.112l0.224,0.04l-0.016,0.512C22.172,4.223,21.705,4.18,21.364,4.18z"/>
		<path fill="#4D4D4D" d="M25.324,3.644c0.176,0,0.475,0.032,0.896,0.096l0.192,0.024l-0.024,0.488
			c-0.427-0.048-0.741-0.072-0.943-0.072c-0.454,0-0.762,0.108-0.925,0.324c-0.162,0.216-0.243,0.616-0.243,1.2
			s0.075,0.99,0.228,1.22s0.468,0.344,0.948,0.344l0.943-0.072l0.024,0.496c-0.496,0.075-0.867,0.112-1.112,0.112
			c-0.624,0-1.055-0.16-1.292-0.48c-0.237-0.319-0.355-0.859-0.355-1.619c0-0.761,0.128-1.294,0.384-1.601
			S24.727,3.644,25.324,3.644z"/>
		<path fill="#4D4D4D" d="M27.916,7.724h-0.6V1.979h0.6v1.968c0.427-0.202,0.838-0.304,1.232-0.304c0.533,0,0.892,0.145,1.076,0.432
			C30.408,4.363,30.5,4.876,30.5,5.611v2.112h-0.6V5.628c0-0.555-0.055-0.935-0.164-1.141c-0.109-0.205-0.34-0.308-0.692-0.308
			c-0.336,0-0.661,0.062-0.976,0.184L27.916,4.42V7.724z"/>
		<path fill="#4D4D4D" d="M32.212,7.724h-0.6v-4h0.592v0.28c0.432-0.24,0.846-0.36,1.24-0.36c0.533,0,0.892,0.145,1.076,0.432
			c0.184,0.288,0.275,0.801,0.275,1.536v2.112h-0.592V5.628c0-0.555-0.055-0.935-0.164-1.141c-0.109-0.205-0.343-0.308-0.7-0.308
			c-0.171,0-0.351,0.025-0.54,0.076s-0.334,0.1-0.436,0.147l-0.152,0.072V7.724z"/>
		<path fill="#4D4D4D" d="M35.908,2.819V2.124h0.6v0.695H35.908z M35.908,7.724v-4h0.6v4H35.908z"/>
		<path fill="#4D4D4D" d="M39.732,4.243H38.46v1.912c0,0.459,0.033,0.761,0.1,0.904c0.067,0.145,0.226,0.216,0.477,0.216
			l0.712-0.048l0.04,0.496c-0.357,0.059-0.63,0.088-0.816,0.088c-0.416,0-0.704-0.102-0.863-0.304c-0.16-0.203-0.24-0.59-0.24-1.16
			V4.243H37.3v-0.52h0.568V2.5h0.592v1.224h1.272V4.243z"/>
		<path fill="#4D4D4D" d="M42.54,4.243h-1.272v1.912c0,0.459,0.033,0.761,0.1,0.904c0.067,0.145,0.226,0.216,0.477,0.216
			l0.712-0.048l0.04,0.496c-0.357,0.059-0.63,0.088-0.816,0.088c-0.416,0-0.704-0.102-0.863-0.304c-0.16-0.203-0.24-0.59-0.24-1.16
			V4.243h-0.568v-0.52h0.568V2.5h0.592v1.224h1.272V4.243z"/>
		<path fill="#4D4D4D" d="M43.323,7.724V1.979h0.6v5.744H43.323z"/>
		<path fill="#4D4D4D" d="M45.124,2.819V2.124h0.6v0.695H45.124z M45.124,7.724v-4h0.6v4H45.124z"/>
		<path fill="#4D4D4D" d="M48.372,3.644c0.176,0,0.475,0.032,0.896,0.096l0.192,0.024l-0.024,0.488
			c-0.427-0.048-0.741-0.072-0.943-0.072c-0.454,0-0.762,0.108-0.925,0.324c-0.162,0.216-0.243,0.616-0.243,1.2
			s0.075,0.99,0.228,1.22S48.02,7.268,48.5,7.268l0.943-0.072l0.024,0.496c-0.496,0.075-0.867,0.112-1.112,0.112
			c-0.624,0-1.055-0.16-1.292-0.48c-0.237-0.319-0.355-0.859-0.355-1.619c0-0.761,0.128-1.294,0.384-1.601
			S47.774,3.644,48.372,3.644z"/>
		<path fill="#4D4D4D" d="M50.963,7.724h-0.6V1.979h0.6v1.968c0.427-0.202,0.838-0.304,1.232-0.304c0.533,0,0.892,0.145,1.076,0.432
			c0.184,0.288,0.275,0.801,0.275,1.536v2.112h-0.6V5.628c0-0.555-0.055-0.935-0.164-1.141c-0.109-0.205-0.34-0.308-0.692-0.308
			c-0.336,0-0.661,0.062-0.976,0.184L50.963,4.42V7.724z"/>
		<path fill="#4D4D4D" d="M57.379,7.228l0.232-0.023l0.016,0.472c-0.608,0.085-1.128,0.128-1.56,0.128
			c-0.576,0-0.984-0.167-1.225-0.5s-0.359-0.853-0.359-1.556c0-1.403,0.557-2.104,1.672-2.104c0.538,0,0.941,0.15,1.208,0.452
			s0.399,0.774,0.399,1.42l-0.031,0.456h-2.641c0,0.442,0.08,0.771,0.24,0.984c0.16,0.213,0.438,0.319,0.836,0.319
			S56.968,7.26,57.379,7.228z M57.163,5.491c0-0.49-0.079-0.837-0.236-1.04c-0.157-0.202-0.413-0.304-0.768-0.304
			s-0.621,0.106-0.8,0.32c-0.179,0.213-0.271,0.555-0.276,1.023H57.163z"/>
		<path fill="#4D4D4D" d="M62.539,7.724h-1.977V2.188h1.977c0.901,0,1.498,0.357,1.792,1.072c0.17,0.41,0.256,0.949,0.256,1.616
			c0,1.392-0.347,2.269-1.04,2.632C63.27,7.651,62.934,7.724,62.539,7.724z M63.955,4.876c0-1.062-0.237-1.723-0.712-1.984
			c-0.192-0.106-0.427-0.16-0.704-0.16h-1.36V7.18h1.36C63.482,7.18,63.955,6.412,63.955,4.876z"/>
		<path fill="#4D4D4D" d="M65.123,7.724l1.52-5.536h1.344l1.521,5.536h-0.608L68.499,6.3h-2.368l-0.4,1.424H65.123z M67.106,2.716
			l-0.84,3.032h2.096l-0.84-3.032H67.106z"/>
		<path fill="#4D4D4D" d="M70.547,2.188l1.4,2.368l1.408-2.368h0.664l-1.704,2.809l1.704,2.728h-0.696l-1.392-2.296l-1.416,2.296
			h-0.664l1.712-2.712l-1.712-2.824H70.547z"/>
		<path fill="#4D4D4D" d="M74.403,5.804V5.243h2.424v0.561H74.403z"/>
		<path fill="#4D4D4D" d="M78.659,5.604v2.12h-0.616V2.188h2.048c0.587,0,1.028,0.136,1.324,0.408
			c0.296,0.271,0.444,0.696,0.444,1.271c0,0.854-0.339,1.39-1.016,1.608l1.063,2.248h-0.68l-1-2.12H78.659z M80.1,5.06
			c0.752,0,1.128-0.388,1.128-1.164c0-0.775-0.379-1.164-1.137-1.164h-1.432V5.06H80.1z"/>
		<path fill="#4D4D4D" d="M85.515,7.228l0.232-0.023l0.016,0.472c-0.608,0.085-1.128,0.128-1.56,0.128
			c-0.576,0-0.984-0.167-1.225-0.5s-0.359-0.853-0.359-1.556c0-1.403,0.557-2.104,1.672-2.104c0.538,0,0.941,0.15,1.208,0.452
			s0.399,0.774,0.399,1.42l-0.031,0.456h-2.641c0,0.442,0.08,0.771,0.24,0.984c0.16,0.213,0.438,0.319,0.836,0.319
			S85.104,7.26,85.515,7.228z M85.299,5.491c0-0.49-0.079-0.837-0.236-1.04c-0.157-0.202-0.413-0.304-0.768-0.304
			s-0.621,0.106-0.8,0.32c-0.179,0.213-0.271,0.555-0.276,1.023H85.299z"/>
		<path fill="#4D4D4D" d="M87.435,7.724h-0.6v-4h0.592v0.28c0.432-0.24,0.846-0.36,1.24-0.36c0.533,0,0.892,0.145,1.076,0.432
			c0.184,0.288,0.275,0.801,0.275,1.536v2.112h-0.592V5.628c0-0.555-0.055-0.935-0.164-1.141c-0.109-0.205-0.343-0.308-0.7-0.308
			c-0.171,0-0.351,0.025-0.54,0.076s-0.334,0.1-0.436,0.147l-0.152,0.072V7.724z"/>
		<path fill="#4D4D4D" d="M94.203,1.979v5.744H93.61V7.451c-0.41,0.235-0.815,0.353-1.216,0.353c-0.213,0-0.399-0.026-0.56-0.08
			s-0.31-0.149-0.448-0.288c-0.288-0.288-0.432-0.82-0.432-1.596c0-0.776,0.129-1.336,0.388-1.681
			c0.259-0.344,0.687-0.516,1.284-0.516c0.309,0,0.637,0.035,0.983,0.104V1.979H94.203z M92.123,7.212
			c0.096,0.037,0.22,0.056,0.372,0.056c0.151,0,0.322-0.025,0.512-0.076s0.337-0.1,0.444-0.147l0.159-0.072V4.26
			c-0.341-0.064-0.658-0.096-0.952-0.096c-0.405,0-0.688,0.129-0.848,0.388s-0.24,0.66-0.24,1.204c0,0.618,0.094,1.034,0.28,1.248
			C91.936,7.105,92.026,7.175,92.123,7.212z"/>
		<path fill="#4D4D4D" d="M95.363,2.819V2.124h0.6v0.695H95.363z M95.363,7.724v-4h0.6v4H95.363z"/>
		<path fill="#4D4D4D" d="M99.188,4.243h-1.272v1.912c0,0.459,0.033,0.761,0.1,0.904c0.067,0.145,0.226,0.216,0.477,0.216
			l0.712-0.048l0.04,0.496c-0.357,0.059-0.63,0.088-0.816,0.088c-0.416,0-0.704-0.102-0.863-0.304c-0.16-0.203-0.24-0.59-0.24-1.16
			V4.243h-0.568v-0.52h0.568V2.5h0.592v1.224h1.272V4.243z"/>
		<path fill="#4D4D4D" d="M102.643,7.228l0.232-0.023l0.016,0.472c-0.608,0.085-1.128,0.128-1.56,0.128
			c-0.576,0-0.984-0.167-1.225-0.5s-0.359-0.853-0.359-1.556c0-1.403,0.557-2.104,1.672-2.104c0.538,0,0.941,0.15,1.208,0.452
			s0.399,0.774,0.399,1.42l-0.031,0.456h-2.641c0,0.442,0.08,0.771,0.24,0.984c0.16,0.213,0.438,0.319,0.836,0.319
			S102.231,7.26,102.643,7.228z M102.427,5.491c0-0.49-0.079-0.837-0.236-1.04c-0.157-0.202-0.413-0.304-0.768-0.304
			s-0.621,0.106-0.8,0.32c-0.179,0.213-0.271,0.555-0.276,1.023H102.427z"/>
		<path fill="#4D4D4D" d="M104.562,7.724h-0.6v-4h0.592v0.28c0.432-0.24,0.846-0.36,1.24-0.36c0.533,0,0.892,0.145,1.076,0.432
			c0.184,0.288,0.275,0.801,0.275,1.536v2.112h-0.592V5.628c0-0.555-0.055-0.935-0.164-1.141c-0.109-0.205-0.343-0.308-0.7-0.308
			c-0.171,0-0.351,0.025-0.54,0.076s-0.334,0.1-0.436,0.147l-0.152,0.072V7.724z"/>
		<path fill="#4D4D4D" d="M111.274,4.18c-0.581,0-0.872,0.203-0.872,0.608c0,0.187,0.066,0.318,0.2,0.396
			c0.133,0.077,0.438,0.157,0.912,0.24s0.811,0.198,1.008,0.348s0.296,0.43,0.296,0.84c0,0.411-0.132,0.712-0.396,0.904
			c-0.265,0.192-0.649,0.288-1.156,0.288c-0.331,0-0.721-0.037-1.168-0.112l-0.24-0.04l0.032-0.52
			c0.607,0.091,1.066,0.136,1.376,0.136c0.309,0,0.545-0.049,0.708-0.147c0.162-0.099,0.244-0.265,0.244-0.496
			c0-0.232-0.069-0.39-0.208-0.473c-0.139-0.082-0.443-0.161-0.912-0.235c-0.47-0.075-0.803-0.185-1-0.328
			c-0.197-0.145-0.296-0.411-0.296-0.8c0-0.39,0.137-0.678,0.412-0.864c0.274-0.187,0.617-0.28,1.027-0.28
			c0.325,0,0.733,0.037,1.225,0.112l0.224,0.04l-0.016,0.512C112.082,4.223,111.615,4.18,111.274,4.18z"/>
		<path fill="#4D4D4D" d="M116.458,7.228l0.232-0.023l0.016,0.472c-0.608,0.085-1.128,0.128-1.56,0.128
			c-0.576,0-0.984-0.167-1.225-0.5s-0.359-0.853-0.359-1.556c0-1.403,0.557-2.104,1.672-2.104c0.538,0,0.941,0.15,1.208,0.452
			s0.399,0.774,0.399,1.42l-0.031,0.456h-2.641c0,0.442,0.08,0.771,0.24,0.984c0.16,0.213,0.438,0.319,0.836,0.319
			S116.047,7.26,116.458,7.228z M116.242,5.491c0-0.49-0.079-0.837-0.236-1.04c-0.157-0.202-0.413-0.304-0.768-0.304
			s-0.621,0.106-0.8,0.32c-0.179,0.213-0.271,0.555-0.276,1.023H116.242z"/>
		<path fill="#4D4D4D" d="M117.778,2.819V2.124h0.6v0.695H117.778z M117.778,7.724v-4h0.6v4H117.778z"/>
		<path fill="#4D4D4D" d="M121.603,4.243h-1.272v1.912c0,0.459,0.033,0.761,0.1,0.904c0.067,0.145,0.226,0.216,0.477,0.216
			l0.712-0.048l0.04,0.496c-0.357,0.059-0.63,0.088-0.816,0.088c-0.416,0-0.704-0.102-0.863-0.304c-0.16-0.203-0.24-0.59-0.24-1.16
			V4.243h-0.568v-0.52h0.568V2.5h0.592v1.224h1.272V4.243z"/>
		<path fill="#4D4D4D" d="M126.635,2.443v5.28h-0.616V3.132l-1.36,0.896l-0.279-0.464l1.68-1.12H126.635z"/>
		<path fill="#4D4D4D" d="M129.978,7.26c0.966,0,1.451-0.613,1.456-1.84c-0.533,0.202-0.991,0.304-1.376,0.304
			c-1.151,0-1.728-0.536-1.728-1.608c0-0.538,0.165-0.965,0.496-1.279c0.33-0.314,0.775-0.473,1.336-0.473
			c0.646,0,1.125,0.239,1.439,0.717c0.315,0.477,0.473,1.179,0.473,2.104c0,0.926-0.178,1.594-0.532,2.004
			c-0.354,0.411-0.876,0.616-1.564,0.616c-0.399,0-0.812-0.037-1.239-0.112l-0.208-0.032l0.056-0.495
			C129.066,7.228,129.53,7.26,129.978,7.26z M130.105,5.18c0.326,0,0.702-0.072,1.129-0.216l0.208-0.072
			c-0.017-1.322-0.443-1.984-1.28-1.984c-0.373,0-0.666,0.108-0.876,0.324c-0.211,0.216-0.316,0.511-0.316,0.884
			C128.97,4.825,129.349,5.18,130.105,5.18z"/>
		<path fill="#4D4D4D" d="M133.326,2.704c0.334-0.232,0.794-0.349,1.38-0.349c0.587,0,1.053,0.116,1.396,0.349
			c0.344,0.231,0.516,0.574,0.516,1.027c0,0.331-0.066,0.583-0.2,0.756c-0.133,0.174-0.359,0.332-0.68,0.477
			c0.32,0.144,0.561,0.313,0.72,0.508c0.16,0.194,0.24,0.468,0.24,0.82c0,1.008-0.66,1.512-1.979,1.512
			c-1.32,0-1.98-0.475-1.98-1.424c0-0.379,0.073-0.667,0.22-0.864c0.147-0.197,0.378-0.381,0.692-0.552
			c-0.288-0.145-0.497-0.309-0.628-0.492s-0.196-0.434-0.196-0.748C132.826,3.275,132.993,2.936,133.326,2.704z M133.395,6.275
			c0,0.646,0.441,0.968,1.324,0.968c0.882,0,1.323-0.338,1.323-1.016c0-0.282-0.078-0.492-0.235-0.628s-0.391-0.249-0.7-0.34h-0.84
			c-0.294,0.08-0.512,0.198-0.656,0.355C133.467,5.773,133.395,5.993,133.395,6.275z M135.963,3.804c0-0.592-0.414-0.888-1.24-0.888
			c-0.827,0-1.24,0.293-1.24,0.88c0,0.234,0.064,0.424,0.192,0.567c0.128,0.145,0.325,0.265,0.592,0.36h0.84
			c0.288-0.091,0.503-0.208,0.644-0.352C135.892,4.228,135.963,4.038,135.963,3.804z"/>
		<path fill="#4D4D4D" d="M137.806,2.704c0.334-0.232,0.794-0.349,1.38-0.349c0.587,0,1.053,0.116,1.396,0.349
			c0.344,0.231,0.516,0.574,0.516,1.027c0,0.331-0.066,0.583-0.2,0.756c-0.133,0.174-0.359,0.332-0.68,0.477
			c0.32,0.144,0.561,0.313,0.72,0.508c0.16,0.194,0.24,0.468,0.24,0.82c0,1.008-0.66,1.512-1.979,1.512
			c-1.32,0-1.98-0.475-1.98-1.424c0-0.379,0.073-0.667,0.22-0.864c0.147-0.197,0.378-0.381,0.692-0.552
			c-0.288-0.145-0.497-0.309-0.628-0.492s-0.196-0.434-0.196-0.748C137.306,3.275,137.473,2.936,137.806,2.704z M137.874,6.275
			c0,0.646,0.441,0.968,1.324,0.968c0.882,0,1.323-0.338,1.323-1.016c0-0.282-0.078-0.492-0.235-0.628s-0.391-0.249-0.7-0.34h-0.84
			c-0.294,0.08-0.512,0.198-0.656,0.355C137.946,5.773,137.874,5.993,137.874,6.275z M140.442,3.804c0-0.592-0.414-0.888-1.24-0.888
			c-0.827,0-1.24,0.293-1.24,0.88c0,0.234,0.064,0.424,0.192,0.567c0.128,0.145,0.325,0.265,0.592,0.36h0.84
			c0.288-0.091,0.503-0.208,0.644-0.352C140.371,4.228,140.442,4.038,140.442,3.804z"/>
	</g>
</g>
</svg>
