<?xml version="1.0" encoding="utf-8"?>
<!-- Generator: Adobe Illustrator 21.1.0, SVG Export Plug-In . SVG Version: 6.00 Build 0)  -->
<svg version="1.1" id="Ebene_1" xmlns="http://www.w3.org/2000/svg" xmlns:xlink="http://www.w3.org/1999/xlink" x="0px" y="0px"
	 viewBox="0 0 200 200" enable-background="new 0 0 200 200" xml:space="preserve">
<rect x="0.333" y="0.333" fill="#FFFFFF" width="200" height="200.667"/>
<line fill="none" stroke="#4D4D4D" stroke-miterlimit="10" x1="22.75" y1="163.396" x2="188" y2="163.396"/>
<line fill="none" stroke="#4D4D4D" stroke-miterlimit="10" x1="27.736" y1="163.644" x2="27.736" y2="38.25"/>
<g>
	<g>
		<path fill="#4D4D4D" d="M43.299,173.289c0,1.767-0.655,2.742-1.807,2.742c-1.016,0-1.703-0.951-1.719-2.671
			c0-1.742,0.751-2.702,1.807-2.702C42.676,170.658,43.299,171.634,43.299,173.289z M40.477,173.369
			c0,1.351,0.416,2.118,1.056,2.118c0.72,0,1.063-0.839,1.063-2.167c0-1.279-0.328-2.118-1.056-2.118
			C40.925,171.202,40.477,171.953,40.477,173.369z"/>
		<path fill="#4D4D4D" d="M45.476,171.402H45.46l-0.903,0.487l-0.136-0.536l1.135-0.607h0.6v5.197h-0.68V171.402z"/>
	</g>
</g>
<g>
	<g>
		<path fill="#4D4D4D" d="M6.628,163.329c0.966,0,1.451-0.613,1.456-1.84c-0.533,0.202-0.991,0.304-1.376,0.304
			c-1.151,0-1.728-0.536-1.728-1.608c0-0.538,0.165-0.965,0.496-1.279c0.33-0.314,0.775-0.473,1.336-0.473
			c0.646,0,1.125,0.239,1.439,0.717c0.315,0.477,0.473,1.179,0.473,2.104c0,0.926-0.178,1.594-0.532,2.004
			c-0.354,0.411-0.876,0.616-1.564,0.616c-0.399,0-0.812-0.037-1.239-0.112l-0.208-0.032l0.056-0.495
			C5.717,163.297,6.181,163.329,6.628,163.329z M6.756,161.249c0.326,0,0.702-0.072,1.129-0.216l0.208-0.072
			c-0.017-1.322-0.443-1.984-1.28-1.984c-0.373,0-0.666,0.108-0.876,0.324c-0.211,0.216-0.316,0.511-0.316,0.884
			C5.62,160.895,5.999,161.249,6.756,161.249z"/>
		<path fill="#4D4D4D" d="M11.365,158.425c0.437,0,0.792,0.083,1.063,0.248c0.576,0.342,0.864,1.195,0.864,2.561
			c0,0.965-0.16,1.646-0.48,2.044c-0.319,0.397-0.8,0.596-1.439,0.596c-0.641,0-1.122-0.196-1.444-0.588
			c-0.322-0.393-0.484-1.091-0.484-2.096c0-1.006,0.159-1.718,0.477-2.137C10.238,158.635,10.72,158.425,11.365,158.425z
			 M11.373,158.977c-0.305,0-0.544,0.064-0.721,0.192c-0.378,0.262-0.567,0.952-0.567,2.072c0,0.789,0.104,1.335,0.312,1.636
			c0.208,0.302,0.533,0.452,0.977,0.452c0.442,0,0.768-0.152,0.976-0.456s0.312-0.868,0.312-1.692c0-0.823-0.101-1.396-0.301-1.72
			C12.161,159.139,11.831,158.977,11.373,158.977z"/>
		<path fill="#4D4D4D" d="M15.846,158.425c0.437,0,0.792,0.083,1.063,0.248c0.576,0.342,0.864,1.195,0.864,2.561
			c0,0.965-0.16,1.646-0.48,2.044c-0.319,0.397-0.8,0.596-1.439,0.596c-0.641,0-1.122-0.196-1.444-0.588
			c-0.322-0.393-0.484-1.091-0.484-2.096c0-1.006,0.159-1.718,0.477-2.137C14.719,158.635,15.2,158.425,15.846,158.425z
			 M15.854,158.977c-0.305,0-0.544,0.064-0.721,0.192c-0.378,0.262-0.567,0.952-0.567,2.072c0,0.789,0.104,1.335,0.312,1.636
			c0.208,0.302,0.533,0.452,0.977,0.452c0.442,0,0.768-0.152,0.976-0.456s0.312-0.868,0.312-1.692c0-0.823-0.101-1.396-0.301-1.72
			C16.642,159.139,16.312,158.977,15.854,158.977z"/>
		<path fill="#4D4D4D" d="M20.326,158.425c0.437,0,0.792,0.083,1.063,0.248c0.576,0.342,0.864,1.195,0.864,2.561
			c0,0.965-0.16,1.646-0.48,2.044c-0.319,0.397-0.8,0.596-1.439,0.596c-0.641,0-1.122-0.196-1.444-0.588
			c-0.322-0.393-0.484-1.091-0.484-2.096c0-1.006,0.159-1.718,0.477-2.137C19.199,158.635,19.681,158.425,20.326,158.425z
			 M20.334,158.977c-0.305,0-0.544,0.064-0.721,0.192c-0.378,0.262-0.567,0.952-0.567,2.072c0,0.789,0.104,1.335,0.312,1.636
			c0.208,0.302,0.533,0.452,0.977,0.452c0.442,0,0.768-0.152,0.976-0.456s0.312-0.868,0.312-1.692c0-0.823-0.101-1.396-0.301-1.72
			C21.122,159.139,20.792,158.977,20.334,158.977z"/>
	</g>
</g>
<g>
	<g>
		<path fill="#4D4D4D" d="M2.765,81.657v5.28H2.148v-4.592l-1.36,0.896l-0.279-0.464l1.68-1.12H2.765z"/>
		<path fill="#4D4D4D" d="M8.061,86.938H4.685v-0.52l1.544-1.624c0.267-0.277,0.462-0.488,0.584-0.633
			c0.123-0.144,0.233-0.314,0.332-0.512s0.148-0.395,0.148-0.592c0-0.342-0.094-0.581-0.28-0.72S6.535,82.13,6.141,82.13
			c-0.347,0-0.733,0.045-1.16,0.136l-0.208,0.04l-0.048-0.512c0.507-0.145,1.029-0.217,1.568-0.217c0.538,0,0.945,0.113,1.22,0.341
			c0.274,0.227,0.412,0.585,0.412,1.075c0,0.374-0.083,0.699-0.248,0.977s-0.451,0.61-0.855,1l-1.408,1.432h2.647V86.938z"/>
		<path fill="#4D4D4D" d="M10.846,81.569c0.437,0,0.792,0.083,1.063,0.248c0.576,0.342,0.864,1.195,0.864,2.561
			c0,0.965-0.16,1.646-0.48,2.044c-0.319,0.397-0.8,0.596-1.439,0.596c-0.641,0-1.122-0.196-1.444-0.588
			c-0.322-0.393-0.484-1.091-0.484-2.096c0-1.006,0.159-1.718,0.477-2.137C9.719,81.779,10.2,81.569,10.846,81.569z M10.854,82.121
			c-0.305,0-0.544,0.064-0.721,0.192c-0.378,0.262-0.567,0.952-0.567,2.072c0,0.789,0.104,1.335,0.312,1.636
			c0.208,0.302,0.533,0.452,0.977,0.452c0.442,0,0.768-0.152,0.976-0.456s0.312-0.868,0.312-1.692c0-0.823-0.101-1.396-0.301-1.72
			C11.642,82.283,11.312,82.121,10.854,82.121z"/>
		<path fill="#4D4D4D" d="M15.326,81.569c0.437,0,0.792,0.083,1.063,0.248c0.576,0.342,0.864,1.195,0.864,2.561
			c0,0.965-0.16,1.646-0.48,2.044c-0.319,0.397-0.8,0.596-1.439,0.596c-0.641,0-1.122-0.196-1.444-0.588
			c-0.322-0.393-0.484-1.091-0.484-2.096c0-1.006,0.159-1.718,0.477-2.137C14.199,81.779,14.681,81.569,15.326,81.569z
			 M15.334,82.121c-0.305,0-0.544,0.064-0.721,0.192c-0.378,0.262-0.567,0.952-0.567,2.072c0,0.789,0.104,1.335,0.312,1.636
			c0.208,0.302,0.533,0.452,0.977,0.452c0.442,0,0.768-0.152,0.976-0.456s0.312-0.868,0.312-1.692c0-0.823-0.101-1.396-0.301-1.72
			C16.122,82.283,15.792,82.121,15.334,82.121z"/>
		<path fill="#4D4D4D" d="M19.807,81.569c0.437,0,0.792,0.083,1.063,0.248c0.576,0.342,0.864,1.195,0.864,2.561
			c0,0.965-0.16,1.646-0.48,2.044c-0.319,0.397-0.8,0.596-1.439,0.596c-0.641,0-1.122-0.196-1.444-0.588
			c-0.322-0.393-0.484-1.091-0.484-2.096c0-1.006,0.159-1.718,0.477-2.137C18.68,81.779,19.161,81.569,19.807,81.569z
			 M19.814,82.121c-0.305,0-0.544,0.064-0.721,0.192c-0.378,0.262-0.567,0.952-0.567,2.072c0,0.789,0.104,1.335,0.312,1.636
			c0.208,0.302,0.533,0.452,0.977,0.452c0.442,0,0.768-0.152,0.976-0.456s0.312-0.868,0.312-1.692c0-0.823-0.101-1.396-0.301-1.72
			C20.603,82.283,20.272,82.121,19.814,82.121z"/>
	</g>
</g>
<g>
	<g>
		<path fill="#4D4D4D" d="M68.092,173.289c0,1.767-0.655,2.742-1.807,2.742c-1.016,0-1.703-0.951-1.719-2.671
			c0-1.742,0.751-2.702,1.807-2.702C67.469,170.658,68.092,171.634,68.092,173.289z M65.27,173.369c0,1.351,0.416,2.118,1.056,2.118
			c0.72,0,1.063-0.839,1.063-2.167c0-1.279-0.328-2.118-1.056-2.118C65.718,171.202,65.27,171.953,65.27,173.369z"/>
		<path fill="#4D4D4D" d="M68.741,175.943v-0.432l0.552-0.536c1.327-1.263,1.928-1.935,1.936-2.718c0-0.528-0.256-1.016-1.031-1.016
			c-0.472,0-0.864,0.239-1.104,0.439l-0.225-0.496c0.36-0.304,0.872-0.527,1.472-0.527c1.119,0,1.591,0.768,1.591,1.512
			c0,0.959-0.695,1.734-1.791,2.79l-0.415,0.384v0.016h2.334v0.584H68.741z"/>
	</g>
</g>
<g>
	<g>
		<path fill="#4D4D4D" d="M93.174,173.289c0,1.767-0.655,2.742-1.807,2.742c-1.016,0-1.703-0.951-1.719-2.671
			c0-1.742,0.751-2.702,1.807-2.702C92.551,170.658,93.174,171.634,93.174,173.289z M90.352,173.369
			c0,1.351,0.416,2.118,1.056,2.118c0.72,0,1.063-0.839,1.063-2.167c0-1.279-0.328-2.118-1.056-2.118
			C90.8,171.202,90.352,171.953,90.352,173.369z"/>
		<path fill="#4D4D4D" d="M93.991,175.136c0.2,0.128,0.664,0.328,1.151,0.328c0.904,0,1.184-0.576,1.176-1.008
			c-0.008-0.728-0.664-1.039-1.344-1.039h-0.392v-0.528h0.392c0.512,0,1.16-0.264,1.16-0.879c0-0.416-0.265-0.784-0.912-0.784
			c-0.415,0-0.815,0.185-1.039,0.344L94,171.058c0.271-0.199,0.799-0.399,1.358-0.399c1.023,0,1.487,0.607,1.487,1.239
			c0,0.536-0.319,0.991-0.959,1.224v0.016c0.64,0.128,1.159,0.607,1.159,1.336c0,0.831-0.647,1.559-1.895,1.559
			c-0.584,0-1.096-0.184-1.352-0.352L93.991,175.136z"/>
	</g>
</g>
<g>
	<g>
		<path fill="#4D4D4D" d="M118.468,173.289c0,1.767-0.655,2.742-1.807,2.742c-1.016,0-1.703-0.951-1.719-2.671
			c0-1.742,0.751-2.702,1.807-2.702C117.845,170.658,118.468,171.634,118.468,173.289z M115.646,173.369
			c0,1.351,0.416,2.118,1.056,2.118c0.72,0,1.063-0.839,1.063-2.167c0-1.279-0.328-2.118-1.056-2.118
			C116.094,171.202,115.646,171.953,115.646,173.369z"/>
		<path fill="#4D4D4D" d="M121.292,175.943v-1.415h-2.414v-0.464l2.318-3.318h0.76v3.23h0.728v0.552h-0.728v1.415H121.292z
			 M121.292,173.977v-1.735c0-0.271,0.009-0.544,0.024-0.815h-0.024c-0.159,0.304-0.287,0.527-0.432,0.768l-1.271,1.768v0.016
			H121.292z"/>
	</g>
</g>
<g>
	<g>
		<path fill="#4D4D4D" d="M143.851,173.289c0,1.767-0.655,2.742-1.807,2.742c-1.016,0-1.703-0.951-1.719-2.671
			c0-1.742,0.751-2.702,1.807-2.702C143.228,170.658,143.851,171.634,143.851,173.289z M141.028,173.369
			c0,1.351,0.416,2.118,1.056,2.118c0.72,0,1.063-0.839,1.063-2.167c0-1.279-0.328-2.118-1.056-2.118
			C141.477,171.202,141.028,171.953,141.028,173.369z"/>
		<path fill="#4D4D4D" d="M147.603,171.338h-1.982l-0.2,1.335c0.12-0.016,0.231-0.031,0.424-0.031c0.399,0,0.8,0.088,1.119,0.279
			c0.408,0.232,0.744,0.68,0.744,1.335c0,1.016-0.808,1.775-1.936,1.775c-0.567,0-1.047-0.16-1.295-0.319l0.176-0.536
			c0.216,0.128,0.64,0.288,1.111,0.288c0.664,0,1.231-0.432,1.231-1.128c-0.008-0.671-0.456-1.151-1.495-1.151
			c-0.296,0-0.527,0.032-0.72,0.057l0.336-2.495h2.486V171.338z"/>
	</g>
</g>
<g>
	<g>
		<path fill="#4D4D4D" d="M168.099,173.289c0,1.767-0.655,2.742-1.807,2.742c-1.016,0-1.703-0.951-1.719-2.671
			c0-1.742,0.751-2.702,1.807-2.702C167.476,170.658,168.099,171.634,168.099,173.289z M165.276,173.369
			c0,1.351,0.416,2.118,1.056,2.118c0.72,0,1.063-0.839,1.063-2.167c0-1.279-0.328-2.118-1.056-2.118
			C165.725,171.202,165.276,171.953,165.276,173.369z"/>
		<path fill="#4D4D4D" d="M171.715,171.242c-0.144-0.008-0.328,0-0.527,0.031c-1.104,0.185-1.688,0.992-1.808,1.848h0.024
			c0.248-0.328,0.68-0.6,1.255-0.6c0.92,0,1.567,0.663,1.567,1.679c0,0.951-0.647,1.831-1.727,1.831c-1.112,0-1.84-0.863-1.84-2.215
			c0-1.023,0.368-1.831,0.88-2.343c0.432-0.424,1.008-0.688,1.663-0.768c0.208-0.032,0.384-0.04,0.512-0.04V171.242z
			 M171.515,174.24c0-0.743-0.424-1.191-1.071-1.191c-0.424,0-0.815,0.264-1.007,0.64c-0.049,0.08-0.08,0.184-0.08,0.312
			c0.016,0.855,0.407,1.487,1.144,1.487C171.107,175.487,171.515,174.984,171.515,174.24z"/>
	</g>
</g>
<g>
	<g>
		<path fill="#4D4D4D" d="M2.332,6.724V1.188h1.112l1.568,4.68l1.567-4.68h1.112v5.536H7.076v-4.88H6.964l-1.607,4.68H4.668
			l-1.607-4.68H2.948v4.88H2.332z"/>
		<path fill="#4D4D4D" d="M8.732,4.716c0-0.73,0.13-1.259,0.392-1.584s0.702-0.488,1.324-0.488c0.621,0,1.062,0.163,1.319,0.488
			c0.259,0.325,0.389,0.854,0.389,1.584s-0.123,1.261-0.368,1.592s-0.693,0.496-1.344,0.496c-0.651,0-1.099-0.165-1.345-0.496
			C8.854,5.977,8.732,5.447,8.732,4.716z M9.348,4.705c0,0.584,0.071,0.993,0.212,1.228c0.142,0.234,0.438,0.352,0.889,0.352
			c0.45,0,0.745-0.115,0.884-0.348c0.139-0.231,0.208-0.642,0.208-1.228c0-0.587-0.077-0.991-0.232-1.212
			c-0.154-0.222-0.441-0.332-0.859-0.332c-0.419,0-0.707,0.11-0.864,0.332C9.427,3.717,9.348,4.121,9.348,4.705z"/>
		<path fill="#4D4D4D" d="M13.732,6.724h-0.6v-4h0.592v0.28c0.432-0.24,0.846-0.36,1.24-0.36c0.533,0,0.892,0.145,1.076,0.432
			c0.184,0.288,0.275,0.801,0.275,1.536v2.112h-0.592V4.628c0-0.555-0.055-0.935-0.164-1.141c-0.109-0.205-0.343-0.308-0.7-0.308
			c-0.171,0-0.351,0.025-0.54,0.076s-0.334,0.1-0.436,0.147l-0.152,0.072V6.724z"/>
		<path fill="#4D4D4D" d="M20.253,3.932V5.98c0.016,0.197,0.17,0.314,0.464,0.353l-0.024,0.472c-0.421,0-0.738-0.106-0.952-0.32
			c-0.479,0.214-0.96,0.32-1.439,0.32c-0.368,0-0.648-0.104-0.84-0.312c-0.192-0.208-0.288-0.506-0.288-0.896
			s0.099-0.676,0.296-0.86c0.197-0.184,0.507-0.297,0.928-0.34l1.256-0.12V3.932c0-0.272-0.059-0.467-0.176-0.584
			s-0.277-0.176-0.48-0.176c-0.427,0-0.869,0.026-1.327,0.08l-0.248,0.023L17.396,2.82c0.587-0.117,1.106-0.176,1.56-0.176
			c0.454,0,0.783,0.104,0.988,0.312S20.253,3.49,20.253,3.932z M17.788,5.564c0,0.491,0.203,0.736,0.608,0.736
			c0.362,0,0.72-0.062,1.072-0.185l0.184-0.063v-1.32l-1.184,0.112c-0.24,0.021-0.414,0.091-0.521,0.208S17.788,5.34,17.788,5.564z"
			/>
		<path fill="#4D4D4D" d="M23.509,3.244h-1.272v1.912c0,0.459,0.033,0.761,0.1,0.904c0.067,0.145,0.226,0.216,0.477,0.216
			l0.712-0.048l0.04,0.496c-0.357,0.059-0.63,0.088-0.816,0.088c-0.416,0-0.704-0.102-0.863-0.304c-0.16-0.203-0.24-0.59-0.24-1.16
			V3.244h-0.568v-0.52h0.568V1.5h0.592v1.224h1.272V3.244z"/>
		<path fill="#4D4D4D" d="M24.292,6.724V0.98h0.6v5.744H24.292z"/>
		<path fill="#4D4D4D" d="M26.092,1.82V1.125h0.6V1.82H26.092z M26.092,6.724v-4h0.6v4H26.092z"/>
		<path fill="#4D4D4D" d="M29.34,2.644c0.176,0,0.475,0.032,0.896,0.096l0.192,0.024l-0.024,0.488
			C29.977,3.205,29.662,3.18,29.46,3.18c-0.454,0-0.762,0.108-0.925,0.324c-0.162,0.216-0.243,0.616-0.243,1.2
			s0.075,0.99,0.228,1.22s0.468,0.344,0.948,0.344l0.943-0.072l0.024,0.496c-0.496,0.075-0.867,0.112-1.112,0.112
			c-0.624,0-1.055-0.16-1.292-0.48c-0.237-0.319-0.355-0.859-0.355-1.619c0-0.761,0.128-1.294,0.384-1.601S28.742,2.644,29.34,2.644
			z"/>
		<path fill="#4D4D4D" d="M31.932,6.724h-0.6V0.98h0.6v1.968c0.427-0.202,0.838-0.304,1.232-0.304c0.533,0,0.892,0.145,1.076,0.432
			c0.184,0.288,0.275,0.801,0.275,1.536v2.112h-0.6V4.628c0-0.555-0.055-0.935-0.164-1.141c-0.109-0.205-0.34-0.308-0.692-0.308
			c-0.336,0-0.661,0.062-0.976,0.184L31.932,3.42V6.724z"/>
		<path fill="#4D4D4D" d="M38.348,6.228l0.232-0.023l0.016,0.472c-0.608,0.085-1.128,0.128-1.56,0.128
			c-0.576,0-0.984-0.167-1.225-0.5s-0.359-0.853-0.359-1.556c0-1.403,0.557-2.104,1.672-2.104c0.538,0,0.941,0.15,1.208,0.452
			s0.399,0.774,0.399,1.42L38.7,4.972H36.06c0,0.442,0.08,0.771,0.24,0.984c0.16,0.213,0.438,0.319,0.836,0.319
			S37.937,6.26,38.348,6.228z M38.132,4.492c0-0.49-0.079-0.837-0.236-1.04c-0.157-0.202-0.413-0.304-0.768-0.304
			s-0.621,0.106-0.8,0.32c-0.179,0.213-0.271,0.555-0.276,1.023H38.132z"/>
		<path fill="#4D4D4D" d="M41.531,6.724V1.188h3.368v0.544h-2.752v1.912h2.272V4.18h-2.272v2h2.752v0.544H41.531z"/>
		<path fill="#4D4D4D" d="M46.451,6.724h-0.6v-4h0.592v0.28c0.432-0.24,0.846-0.36,1.24-0.36c0.533,0,0.892,0.145,1.076,0.432
			c0.184,0.288,0.275,0.801,0.275,1.536v2.112h-0.592V4.628c0-0.555-0.055-0.935-0.164-1.141c-0.109-0.205-0.343-0.308-0.7-0.308
			c-0.171,0-0.351,0.025-0.54,0.076s-0.334,0.1-0.436,0.147l-0.152,0.072V6.724z"/>
		<path fill="#4D4D4D" d="M52.196,3.244h-1.272v1.912c0,0.459,0.033,0.761,0.1,0.904c0.067,0.145,0.226,0.216,0.477,0.216
			l0.712-0.048l0.04,0.496c-0.357,0.059-0.63,0.088-0.816,0.088c-0.416,0-0.704-0.102-0.863-0.304c-0.16-0.203-0.24-0.59-0.24-1.16
			V3.244h-0.568v-0.52h0.568V1.5h0.592v1.224h1.272V3.244z"/>
		<path fill="#4D4D4D" d="M52.604,2.724h0.6l0.809,3.48h0.128l0.952-3.4h0.624l0.951,3.4h0.137l0.8-3.48h0.6l-0.951,4h-1
			l-0.849-3.128l-0.848,3.128h-1L52.604,2.724z"/>
		<path fill="#4D4D4D" d="M59.027,1.82V1.125h0.6V1.82H59.027z M59.027,6.724v-4h0.6v4H59.027z"/>
		<path fill="#4D4D4D" d="M62.275,2.644c0.176,0,0.475,0.032,0.896,0.096l0.192,0.024l-0.024,0.488
			c-0.427-0.048-0.741-0.072-0.943-0.072c-0.454,0-0.762,0.108-0.925,0.324c-0.162,0.216-0.243,0.616-0.243,1.2
			s0.075,0.99,0.228,1.22s0.468,0.344,0.948,0.344l0.943-0.072l0.024,0.496c-0.496,0.075-0.867,0.112-1.112,0.112
			c-0.624,0-1.055-0.16-1.292-0.48c-0.237-0.319-0.355-0.859-0.355-1.619c0-0.761,0.128-1.294,0.384-1.601
			S61.678,2.644,62.275,2.644z"/>
		<path fill="#4D4D4D" d="M64.867,6.724h-0.6V0.98h0.6v3.393l0.624-0.032l1.145-1.616h0.68l-1.304,1.84l1.359,2.16h-0.68
			l-1.192-1.856l-0.632,0.024V6.724z"/>
		<path fill="#4D4D4D" d="M68.147,6.724V0.98h0.6v5.744H68.147z"/>
		<path fill="#4D4D4D" d="M72.443,2.724h0.6v4h-0.6v-0.28c-0.4,0.24-0.795,0.36-1.185,0.36c-0.544,0-0.905-0.142-1.084-0.424
			c-0.179-0.283-0.268-0.806-0.268-1.568V2.724h0.6v2.08c0,0.581,0.051,0.971,0.152,1.168s0.33,0.296,0.688,0.296
			c0.177,0,0.355-0.025,0.536-0.076c0.182-0.051,0.32-0.1,0.416-0.147l0.145-0.072V2.724z"/>
		<path fill="#4D4D4D" d="M74.795,6.724h-0.6v-4h0.592v0.28c0.432-0.24,0.846-0.36,1.24-0.36c0.533,0,0.892,0.145,1.076,0.432
			c0.184,0.288,0.275,0.801,0.275,1.536v2.112h-0.592V4.628c0-0.555-0.055-0.935-0.164-1.141c-0.109-0.205-0.343-0.308-0.7-0.308
			c-0.171,0-0.351,0.025-0.54,0.076s-0.334,0.1-0.436,0.147l-0.152,0.072V6.724z"/>
		<path fill="#4D4D4D" d="M80.035,8.604c-0.64,0-1.087-0.087-1.34-0.26c-0.254-0.174-0.38-0.489-0.38-0.948
			c0-0.219,0.048-0.396,0.144-0.532c0.096-0.136,0.259-0.289,0.488-0.46c-0.149-0.101-0.225-0.285-0.225-0.552
			c0-0.091,0.067-0.259,0.2-0.504l0.072-0.128c-0.422-0.192-0.632-0.595-0.632-1.208c0-0.912,0.498-1.368,1.496-1.368
			c0.256,0,0.493,0.026,0.712,0.08l0.12,0.024l1.184-0.032v0.512l-0.76-0.016c0.176,0.176,0.264,0.442,0.264,0.8
			c0,0.501-0.124,0.852-0.372,1.052s-0.639,0.3-1.172,0.3c-0.144,0-0.274-0.011-0.392-0.031c-0.097,0.234-0.145,0.387-0.145,0.456
			c0,0.165,0.051,0.268,0.152,0.308s0.408,0.06,0.92,0.06s0.88,0.08,1.104,0.24c0.225,0.16,0.337,0.472,0.337,0.937
			C81.812,8.18,81.219,8.604,80.035,8.604z M78.907,7.348c0,0.282,0.078,0.479,0.235,0.588S79.591,8.1,80.015,8.1
			c0.425,0,0.729-0.059,0.912-0.176c0.185-0.117,0.276-0.313,0.276-0.588c0-0.275-0.066-0.452-0.2-0.532
			c-0.133-0.08-0.395-0.12-0.784-0.12l-0.863-0.04c-0.177,0.128-0.295,0.24-0.356,0.336S78.907,7.199,78.907,7.348z M78.963,4.012
			c0,0.314,0.07,0.539,0.212,0.672c0.142,0.134,0.375,0.2,0.7,0.2s0.558-0.066,0.696-0.2c0.139-0.133,0.208-0.358,0.208-0.676
			s-0.069-0.543-0.208-0.676c-0.139-0.134-0.371-0.2-0.696-0.2s-0.559,0.067-0.7,0.204C79.033,3.472,78.963,3.698,78.963,4.012z"/>
		<path fill="#4D4D4D" d="M87.436,0.98v5.744h-0.593V6.452c-0.41,0.235-0.815,0.353-1.216,0.353c-0.213,0-0.399-0.026-0.56-0.08
			s-0.31-0.149-0.448-0.288c-0.288-0.288-0.432-0.82-0.432-1.596c0-0.776,0.129-1.336,0.388-1.681
			c0.259-0.344,0.687-0.516,1.284-0.516c0.309,0,0.637,0.035,0.983,0.104V0.98H87.436z M85.355,6.212
			c0.096,0.037,0.22,0.056,0.372,0.056c0.151,0,0.322-0.025,0.512-0.076s0.337-0.1,0.444-0.147l0.159-0.072V3.26
			c-0.341-0.064-0.658-0.096-0.952-0.096c-0.405,0-0.688,0.129-0.848,0.388s-0.24,0.66-0.24,1.204c0,0.618,0.094,1.034,0.28,1.248
			C85.168,6.106,85.259,6.175,85.355,6.212z"/>
		<path fill="#4D4D4D" d="M91.314,6.228l0.232-0.023l0.016,0.472c-0.608,0.085-1.128,0.128-1.56,0.128
			c-0.576,0-0.984-0.167-1.225-0.5s-0.359-0.853-0.359-1.556c0-1.403,0.557-2.104,1.672-2.104c0.538,0,0.941,0.15,1.208,0.452
			s0.399,0.774,0.399,1.42l-0.031,0.456h-2.641c0,0.442,0.08,0.771,0.24,0.984c0.16,0.213,0.438,0.319,0.836,0.319
			S90.903,6.26,91.314,6.228z M91.099,4.492c0-0.49-0.079-0.837-0.236-1.04c-0.157-0.202-0.413-0.304-0.768-0.304
			s-0.621,0.106-0.8,0.32c-0.179,0.213-0.271,0.555-0.276,1.023H91.099z"/>
		<path fill="#4D4D4D" d="M93.891,3.18c-0.581,0-0.872,0.203-0.872,0.608c0,0.187,0.066,0.318,0.2,0.396
			c0.133,0.077,0.438,0.157,0.912,0.24s0.811,0.198,1.008,0.348s0.296,0.43,0.296,0.84c0,0.411-0.132,0.712-0.396,0.904
			c-0.265,0.192-0.649,0.288-1.156,0.288c-0.331,0-0.721-0.037-1.168-0.112l-0.24-0.04l0.032-0.52
			c0.607,0.091,1.066,0.136,1.376,0.136c0.309,0,0.545-0.049,0.708-0.147c0.162-0.099,0.244-0.265,0.244-0.496
			c0-0.232-0.069-0.39-0.208-0.473c-0.139-0.082-0.443-0.161-0.912-0.235c-0.47-0.075-0.803-0.185-1-0.328
			c-0.197-0.145-0.296-0.411-0.296-0.8c0-0.39,0.137-0.678,0.412-0.864c0.274-0.187,0.617-0.28,1.027-0.28
			c0.325,0,0.733,0.037,1.225,0.112l0.224,0.04l-0.016,0.512C94.698,3.223,94.231,3.18,93.891,3.18z"/>
		<path fill="#4D4D4D" d="M100.195,6.724h-1.977V1.188h1.977c0.901,0,1.498,0.357,1.792,1.072c0.17,0.41,0.256,0.949,0.256,1.616
			c0,1.392-0.347,2.269-1.04,2.632C100.926,6.652,100.59,6.724,100.195,6.724z M101.611,3.876c0-1.062-0.237-1.723-0.712-1.984
			c-0.192-0.106-0.427-0.16-0.704-0.16h-1.36V6.18h1.36C101.139,6.18,101.611,5.413,101.611,3.876z"/>
		<path fill="#4D4D4D" d="M102.779,6.724l1.52-5.536h1.344l1.521,5.536h-0.608L106.155,5.3h-2.368l-0.4,1.424H102.779z
			 M104.763,1.716l-0.84,3.032h2.096l-0.84-3.032H104.763z"/>
		<path fill="#4D4D4D" d="M108.202,1.188l1.4,2.368l1.408-2.368h0.664l-1.704,2.809l1.704,2.728h-0.696l-1.392-2.296l-1.416,2.296
			h-0.664l1.712-2.712l-1.712-2.824H108.202z"/>
		<path fill="#4D4D4D" d="M2.893,17.324c-0.555-1.248-0.832-2.384-0.832-3.408c0-0.512,0.069-1.067,0.208-1.668
			c0.139-0.6,0.277-1.07,0.416-1.412l0.208-0.512h0.576c-0.188,0.491-0.36,1.098-0.521,1.82s-0.24,1.312-0.24,1.768
			s0.064,0.968,0.192,1.536s0.256,1.022,0.384,1.364l0.185,0.512H2.893z"/>
		<path fill="#4D4D4D" d="M7.732,11.244c-0.8,0-1.2,0.302-1.2,0.904c0,0.336,0.092,0.566,0.276,0.691
			c0.184,0.126,0.557,0.251,1.12,0.376c0.562,0.126,0.961,0.288,1.195,0.488c0.235,0.2,0.353,0.529,0.353,0.988
			c0,1.136-0.59,1.704-1.769,1.704c-0.389,0-0.877-0.046-1.464-0.137L5.956,16.22l0.064-0.513c0.726,0.097,1.277,0.145,1.656,0.145
			c0.789,0,1.184-0.371,1.184-1.112c0-0.299-0.087-0.514-0.26-0.644c-0.174-0.131-0.497-0.242-0.973-0.332
			c-0.623-0.134-1.066-0.306-1.327-0.517c-0.262-0.211-0.393-0.563-0.393-1.06c0-0.992,0.595-1.488,1.784-1.488
			c0.39,0,0.856,0.04,1.4,0.12l0.271,0.04l-0.056,0.52C8.567,11.29,8.042,11.244,7.732,11.244z"/>
		<path fill="#4D4D4D" d="M11.933,12.244c0.176,0,0.475,0.032,0.896,0.096l0.192,0.024l-0.024,0.488
			c-0.427-0.048-0.741-0.072-0.943-0.072c-0.454,0-0.762,0.108-0.925,0.324c-0.162,0.216-0.243,0.616-0.243,1.2
			s0.075,0.99,0.228,1.22s0.468,0.344,0.948,0.344l0.943-0.072l0.024,0.496c-0.496,0.075-0.867,0.112-1.112,0.112
			c-0.624,0-1.055-0.16-1.292-0.48c-0.237-0.319-0.355-0.859-0.355-1.619c0-0.761,0.128-1.294,0.384-1.601
			S11.335,12.244,11.933,12.244z"/>
		<path fill="#4D4D4D" d="M14.523,16.324h-0.6V10.58h0.6v1.968c0.427-0.202,0.838-0.304,1.232-0.304
			c0.533,0,0.892,0.145,1.076,0.432c0.184,0.288,0.275,0.801,0.275,1.536v2.112h-0.6v-2.096c0-0.555-0.055-0.935-0.164-1.141
			c-0.109-0.205-0.34-0.308-0.692-0.308c-0.336,0-0.661,0.062-0.976,0.184l-0.152,0.057V16.324z"/>
		<path fill="#4D4D4D" d="M18.268,16.324V10.58h0.6v5.744H18.268z"/>
		<path fill="#4D4D4D" d="M22.564,12.324h0.6v4h-0.6v-0.28c-0.4,0.24-0.795,0.36-1.185,0.36c-0.544,0-0.905-0.142-1.084-0.424
			c-0.179-0.283-0.268-0.806-0.268-1.568v-2.088h0.6v2.08c0,0.581,0.051,0.971,0.152,1.168s0.33,0.296,0.688,0.296
			c0.177,0,0.355-0.025,0.536-0.076c0.182-0.051,0.32-0.1,0.416-0.147l0.145-0.072V12.324z"/>
		<path fill="#4D4D4D" d="M25.572,12.78c-0.581,0-0.872,0.203-0.872,0.608c0,0.187,0.066,0.318,0.2,0.396
			c0.133,0.077,0.438,0.157,0.912,0.24s0.811,0.198,1.008,0.348s0.296,0.43,0.296,0.84c0,0.411-0.132,0.712-0.396,0.904
			c-0.265,0.192-0.649,0.288-1.156,0.288c-0.331,0-0.721-0.037-1.168-0.112l-0.24-0.04l0.032-0.52
			c0.607,0.091,1.066,0.136,1.376,0.136c0.309,0,0.545-0.049,0.708-0.147c0.162-0.099,0.244-0.265,0.244-0.496
			c0-0.232-0.069-0.39-0.208-0.473c-0.139-0.082-0.443-0.161-0.912-0.235c-0.47-0.075-0.803-0.185-1-0.328
			c-0.197-0.145-0.296-0.411-0.296-0.8c0-0.39,0.137-0.678,0.412-0.864c0.274-0.187,0.617-0.28,1.027-0.28
			c0.325,0,0.733,0.037,1.225,0.112l0.224,0.04l-0.016,0.512C26.38,12.823,25.913,12.78,25.572,12.78z"/>
		<path fill="#4D4D4D" d="M29.292,12.78c-0.581,0-0.872,0.203-0.872,0.608c0,0.187,0.066,0.318,0.2,0.396
			c0.133,0.077,0.438,0.157,0.912,0.24s0.811,0.198,1.008,0.348s0.296,0.43,0.296,0.84c0,0.411-0.132,0.712-0.396,0.904
			c-0.265,0.192-0.649,0.288-1.156,0.288c-0.331,0-0.721-0.037-1.168-0.112l-0.24-0.04l0.032-0.52
			c0.607,0.091,1.066,0.136,1.376,0.136c0.309,0,0.545-0.049,0.708-0.147c0.162-0.099,0.244-0.265,0.244-0.496
			c0-0.232-0.069-0.39-0.208-0.473c-0.139-0.082-0.443-0.161-0.912-0.235c-0.47-0.075-0.803-0.185-1-0.328
			c-0.197-0.145-0.296-0.411-0.296-0.8c0-0.39,0.137-0.678,0.412-0.864c0.274-0.187,0.617-0.28,1.027-0.28
			c0.325,0,0.733,0.037,1.225,0.112l0.224,0.04l-0.016,0.512C30.1,12.823,29.633,12.78,29.292,12.78z"/>
		<path fill="#4D4D4D" d="M33.012,12.78c-0.581,0-0.872,0.203-0.872,0.608c0,0.187,0.066,0.318,0.2,0.396
			c0.133,0.077,0.438,0.157,0.912,0.24s0.811,0.198,1.008,0.348s0.296,0.43,0.296,0.84c0,0.411-0.132,0.712-0.396,0.904
			c-0.265,0.192-0.649,0.288-1.156,0.288c-0.331,0-0.721-0.037-1.168-0.112l-0.24-0.04l0.032-0.52
			c0.607,0.091,1.066,0.136,1.376,0.136c0.309,0,0.545-0.049,0.708-0.147c0.162-0.099,0.244-0.265,0.244-0.496
			c0-0.232-0.069-0.39-0.208-0.473c-0.139-0.082-0.443-0.161-0.912-0.235c-0.47-0.075-0.803-0.185-1-0.328
			c-0.197-0.145-0.296-0.411-0.296-0.8c0-0.39,0.137-0.678,0.412-0.864c0.274-0.187,0.617-0.28,1.027-0.28
			c0.325,0,0.733,0.037,1.225,0.112l0.224,0.04l-0.016,0.512C33.819,12.823,33.353,12.78,33.012,12.78z"/>
		<path fill="#4D4D4D" d="M37.548,12.843h-1.272v1.912c0,0.459,0.033,0.761,0.1,0.904c0.067,0.145,0.226,0.216,0.477,0.216
			l0.712-0.048l0.04,0.496c-0.357,0.059-0.63,0.088-0.816,0.088c-0.416,0-0.704-0.102-0.863-0.304c-0.16-0.203-0.24-0.59-0.24-1.16
			v-2.104h-0.568v-0.52h0.568V11.1h0.592v1.224h1.272V12.843z"/>
		<path fill="#4D4D4D" d="M41.108,13.532v2.048c0.016,0.197,0.17,0.314,0.464,0.353l-0.024,0.472c-0.421,0-0.738-0.106-0.952-0.32
			c-0.479,0.214-0.96,0.32-1.439,0.32c-0.368,0-0.648-0.104-0.84-0.312c-0.192-0.208-0.288-0.506-0.288-0.896
			s0.099-0.676,0.296-0.86c0.197-0.184,0.507-0.297,0.928-0.34l1.256-0.12v-0.344c0-0.272-0.059-0.467-0.176-0.584
			s-0.277-0.176-0.48-0.176c-0.427,0-0.869,0.026-1.327,0.08l-0.248,0.023l-0.024-0.456c0.587-0.117,1.106-0.176,1.56-0.176
			c0.454,0,0.783,0.104,0.988,0.312S41.108,13.089,41.108,13.532z M38.548,11.356v-0.721h0.576v0.721H38.548z M38.644,15.164
			c0,0.491,0.203,0.736,0.608,0.736c0.362,0,0.72-0.062,1.072-0.185l0.184-0.063v-1.32l-1.184,0.112
			c-0.24,0.021-0.414,0.091-0.521,0.208S38.644,14.94,38.644,15.164z M40.148,11.356v-0.721h0.584v0.721H40.148z"/>
		<path fill="#4D4D4D" d="M42.892,16.324h-0.6v-4h0.592v0.28c0.432-0.24,0.846-0.36,1.24-0.36c0.533,0,0.892,0.145,1.076,0.432
			c0.184,0.288,0.275,0.801,0.275,1.536v2.112h-0.592v-2.096c0-0.555-0.055-0.935-0.164-1.141c-0.109-0.205-0.343-0.308-0.7-0.308
			c-0.171,0-0.351,0.025-0.54,0.076s-0.334,0.1-0.436,0.147l-0.152,0.072V16.324z"/>
		<path fill="#4D4D4D" d="M49.66,10.58v5.744h-0.593v-0.272c-0.41,0.235-0.815,0.353-1.216,0.353c-0.213,0-0.399-0.026-0.56-0.08
			s-0.31-0.149-0.448-0.288c-0.288-0.288-0.432-0.82-0.432-1.596c0-0.776,0.129-1.336,0.388-1.681
			c0.259-0.344,0.687-0.516,1.284-0.516c0.309,0,0.637,0.035,0.983,0.104V10.58H49.66z M47.58,15.812
			c0.096,0.037,0.22,0.056,0.372,0.056c0.151,0,0.322-0.025,0.512-0.076s0.337-0.1,0.444-0.147l0.159-0.072V12.86
			c-0.341-0.064-0.658-0.096-0.952-0.096c-0.405,0-0.688,0.129-0.848,0.388s-0.24,0.66-0.24,1.204c0,0.618,0.094,1.034,0.28,1.248
			C47.393,15.706,47.483,15.775,47.58,15.812z"/>
		<path fill="#4D4D4D" d="M53.539,15.828l0.232-0.023l0.016,0.472c-0.608,0.085-1.128,0.128-1.56,0.128
			c-0.576,0-0.984-0.167-1.225-0.5s-0.359-0.853-0.359-1.556c0-1.403,0.557-2.104,1.672-2.104c0.538,0,0.941,0.15,1.208,0.452
			s0.399,0.774,0.399,1.42l-0.031,0.456h-2.641c0,0.442,0.08,0.771,0.24,0.984c0.16,0.213,0.438,0.319,0.836,0.319
			S53.128,15.86,53.539,15.828z M53.323,14.091c0-0.49-0.079-0.837-0.236-1.04c-0.157-0.202-0.413-0.304-0.768-0.304
			s-0.621,0.106-0.8,0.32c-0.179,0.213-0.271,0.555-0.276,1.023H53.323z"/>
		<path fill="#4D4D4D" d="M59.971,16.324h-3.376v-0.52l1.544-1.624c0.267-0.277,0.462-0.488,0.584-0.633
			c0.123-0.144,0.233-0.314,0.332-0.512s0.148-0.395,0.148-0.592c0-0.342-0.094-0.581-0.28-0.72s-0.478-0.208-0.872-0.208
			c-0.347,0-0.733,0.045-1.16,0.136l-0.208,0.04l-0.048-0.512c0.507-0.145,1.029-0.217,1.568-0.217c0.538,0,0.945,0.113,1.22,0.341
			c0.274,0.227,0.412,0.585,0.412,1.075c0,0.374-0.083,0.699-0.248,0.977s-0.451,0.61-0.855,1l-1.408,1.432h2.647V16.324z"/>
		<path fill="#4D4D4D" d="M62.756,10.956c0.437,0,0.792,0.083,1.063,0.248c0.576,0.342,0.864,1.195,0.864,2.561
			c0,0.965-0.16,1.646-0.48,2.044c-0.319,0.397-0.8,0.596-1.439,0.596c-0.641,0-1.122-0.196-1.444-0.588
			c-0.322-0.393-0.484-1.091-0.484-2.096c0-1.006,0.159-1.718,0.477-2.137C61.629,11.166,62.11,10.956,62.756,10.956z
			 M62.764,11.507c-0.305,0-0.544,0.064-0.721,0.192c-0.378,0.262-0.567,0.952-0.567,2.072c0,0.789,0.104,1.335,0.312,1.636
			c0.208,0.302,0.533,0.452,0.977,0.452c0.442,0,0.768-0.152,0.976-0.456s0.312-0.868,0.312-1.692c0-0.823-0.101-1.396-0.301-1.72
			C63.552,11.669,63.222,11.507,62.764,11.507z"/>
		<path fill="#4D4D4D" d="M68.115,11.043v5.28h-0.616v-4.592l-1.36,0.896l-0.279-0.464l1.68-1.12H68.115z"/>
		<path fill="#4D4D4D" d="M70.1,11.604v-0.561h3.28v0.809l-2.032,4.552l-0.584-0.184l1.992-4.408v-0.208H70.1z"/>
		<path fill="#4D4D4D" d="M75.579,12.875c0.059,0.374,0.088,0.769,0.088,1.185s-0.069,0.907-0.208,1.476s-0.277,1.007-0.416,1.316
			l-0.208,0.472h-0.576c0.182-0.427,0.354-0.988,0.516-1.684c0.163-0.696,0.244-1.272,0.244-1.729s-0.062-0.982-0.188-1.58
			c-0.126-0.597-0.252-1.08-0.38-1.448l-0.192-0.56h0.576C75.187,11.119,75.435,11.969,75.579,12.875z"/>
	</g>
</g>
<g>
	<g>
		<g>
			<line fill="none" stroke="#4D4D4D" stroke-miterlimit="10" x1="66.686" y1="92.382" x2="41.816" y2="101.057"/>
			<line fill="none" stroke="#4D4D4D" stroke-miterlimit="10" x1="66.686" y1="92.382" x2="91.557" y2="78.505"/>
			<line fill="none" stroke="#4D4D4D" stroke-miterlimit="10" x1="116.427" y1="74.877" x2="91.557" y2="78.505"/>
			<line fill="none" stroke="#4D4D4D" stroke-miterlimit="10" x1="141.298" y1="69.74" x2="116.427" y2="74.877"/>
			<line fill="none" stroke="#4D4D4D" stroke-miterlimit="10" x1="166.169" y1="68.806" x2="141.298" y2="69.74"/>
		</g>
	</g>
</g>
<g>
	<rect x="39.804" y="99.046" fill="#00B8FA" width="4.022" height="4.022"/>
	<rect x="64.675" y="89.901" fill="#00B8FA" width="4.022" height="4.022"/>
	<rect x="89.546" y="76.494" fill="#00B8FA" width="4.022" height="4.022"/>
	<rect x="114.416" y="73.059" fill="#00B8FA" width="4.022" height="4.022"/>
	<rect x="139.287" y="67.729" fill="#00B8FA" width="4.022" height="4.022"/>
	<rect x="164.157" y="66.795" fill="#00B8FA" width="4.022" height="4.022"/>
</g>
<line fill="none" stroke="#4D4D4D" stroke-miterlimit="10" x1="27.736" y1="86.938" x2="22.486" y2="86.938"/>
<line fill="none" stroke="#4D4D4D" stroke-miterlimit="10" x1="41.5" y1="163.515" x2="41.5" y2="168.765"/>
<line fill="none" stroke="#4D4D4D" stroke-miterlimit="10" x1="66.667" y1="163.515" x2="66.667" y2="168.765"/>
<line fill="none" stroke="#4D4D4D" stroke-miterlimit="10" x1="91.5" y1="163.515" x2="91.5" y2="168.765"/>
<line fill="none" stroke="#4D4D4D" stroke-miterlimit="10" x1="116.333" y1="163.515" x2="116.333" y2="168.765"/>
<line fill="none" stroke="#4D4D4D" stroke-miterlimit="10" x1="141.5" y1="163.515" x2="141.5" y2="168.765"/>
<line fill="none" stroke="#4D4D4D" stroke-miterlimit="10" x1="166.333" y1="163.515" x2="166.333" y2="168.765"/>
<g>
	<polygon fill="#4D4D4D" points="27.604,31.896 22.321,41.047 32.887,41.047 	"/>
</g>
</svg>
