<?xml version="1.0" encoding="utf-8"?>
<!-- Generator: Adobe Illustrator 21.1.0, SVG Export Plug-In . SVG Version: 6.00 Build 0)  -->
<svg version="1.1" id="Ebene_1" xmlns="http://www.w3.org/2000/svg" xmlns:xlink="http://www.w3.org/1999/xlink" x="0px" y="0px"
	 viewBox="0 0 200 200" enable-background="new 0 0 200 200" xml:space="preserve">
<rect x="0.333" y="0.333" fill="#FFFFFF" width="200" height="200.667"/>
<polyline fill="none" stroke="#00B8FA" stroke-miterlimit="10" points="59.893,11.75 48.893,11.75 31.393,97.25 "/>
<g>
	<path fill="#00B8FA" d="M68.505,6.066c0,1.768-0.296,3.104-0.889,4.007c-0.592,0.904-1.462,1.355-2.609,1.355
		c-1.085,0-1.927-0.461-2.527-1.384c-0.6-0.923-0.9-2.249-0.9-3.978c0-1.761,0.288-3.086,0.865-3.979
		c0.577-0.891,1.431-1.338,2.562-1.338c1.123,0,1.987,0.462,2.591,1.384C68.203,3.057,68.505,4.368,68.505,6.066z M63.183,6.066
		c0,1.318,0.143,2.307,0.43,2.966c0.286,0.659,0.751,0.989,1.394,0.989c1.27,0,1.906-1.318,1.906-3.955
		c0-2.621-0.635-3.932-1.906-3.932c-0.643,0-1.108,0.326-1.394,0.977C63.327,3.763,63.183,4.748,63.183,6.066z M75.745,0.994
		l-9.424,17.006h-1.708l9.424-17.006H75.745z M78.743,12.882c0,1.761-0.296,3.092-0.889,3.996c-0.592,0.903-1.462,1.355-2.609,1.355
		c-1.1,0-1.947-0.461-2.539-1.384c-0.592-0.923-0.889-2.245-0.889-3.967c0-1.76,0.289-3.086,0.866-3.978
		c0.577-0.891,1.431-1.338,2.562-1.338c1.1,0,1.958,0.456,2.574,1.367C78.435,9.845,78.743,11.161,78.743,12.882z M73.409,12.882
		c0,1.326,0.143,2.317,0.43,2.972c0.286,0.656,0.755,0.983,1.406,0.983c0.651,0,1.131-0.324,1.441-0.971
		c0.31-0.647,0.465-1.642,0.465-2.984c0-1.326-0.155-2.309-0.465-2.949c-0.31-0.64-0.79-0.96-1.441-0.96
		c-0.651,0-1.12,0.32-1.406,0.96C73.552,10.574,73.409,11.557,73.409,12.882z"/>
</g>
<g>
	<path fill="#4D4D4D" d="M82.717,9.119l1.52-5.536h1.344l1.52,5.536h-0.607l-0.4-1.424h-2.367l-0.4,1.424H82.717z M84.699,4.111
		l-0.84,3.032h2.096l-0.84-3.032H84.699z"/>
	<path fill="#4D4D4D" d="M88.467,9.119h-0.6v-4h0.592v0.28c0.432-0.24,0.846-0.36,1.24-0.36c0.533,0,0.893,0.145,1.076,0.432
		c0.184,0.288,0.275,0.801,0.275,1.536v2.112h-0.592V7.023c0-0.555-0.055-0.935-0.164-1.141c-0.109-0.205-0.342-0.308-0.699-0.308
		c-0.172,0-0.352,0.025-0.541,0.076s-0.334,0.1-0.436,0.147l-0.152,0.072V9.119z"/>
	<path fill="#4D4D4D" d="M94.213,5.639h-1.273v1.912c0,0.459,0.033,0.761,0.1,0.904c0.068,0.145,0.227,0.216,0.477,0.216
		l0.713-0.048l0.039,0.496c-0.357,0.059-0.629,0.088-0.816,0.088c-0.416,0-0.703-0.102-0.863-0.304c-0.16-0.203-0.24-0.59-0.24-1.16
		V5.639h-0.568v-0.52h0.568V3.896h0.592v1.224h1.273V5.639z"/>
	<path fill="#4D4D4D" d="M97.668,8.623L97.9,8.6l0.016,0.472c-0.609,0.085-1.129,0.128-1.561,0.128c-0.576,0-0.984-0.167-1.225-0.5
		s-0.359-0.853-0.359-1.556c0-1.403,0.557-2.104,1.672-2.104c0.539,0,0.941,0.15,1.209,0.452c0.266,0.302,0.398,0.774,0.398,1.42
		L98.02,7.367h-2.641c0,0.442,0.08,0.771,0.24,0.984c0.16,0.213,0.439,0.319,0.836,0.319C96.854,8.671,97.256,8.655,97.668,8.623z
		 M97.451,6.887c0-0.49-0.078-0.837-0.236-1.04c-0.156-0.202-0.412-0.304-0.768-0.304c-0.354,0-0.621,0.106-0.799,0.32
		c-0.18,0.213-0.271,0.555-0.277,1.023H97.451z"/>
	<path fill="#4D4D4D" d="M98.988,4.215V3.52h0.6v0.695H98.988z M98.988,9.119v-4h0.6v4H98.988z"/>
	<path fill="#4D4D4D" d="M100.787,9.119V3.375h0.6v5.744H100.787z"/>
	<path fill="#4D4D4D" d="M107.42,3.375v5.744h-0.594V8.847c-0.41,0.235-0.814,0.353-1.215,0.353c-0.213,0-0.4-0.026-0.561-0.08
		s-0.309-0.149-0.447-0.288c-0.289-0.288-0.432-0.82-0.432-1.596c0-0.776,0.129-1.336,0.387-1.681
		c0.26-0.344,0.688-0.516,1.285-0.516c0.309,0,0.637,0.035,0.982,0.104V3.375H107.42z M105.34,8.607
		c0.096,0.037,0.219,0.056,0.371,0.056s0.322-0.025,0.512-0.076s0.338-0.1,0.445-0.147l0.158-0.072V5.655
		c-0.34-0.064-0.658-0.096-0.951-0.096c-0.406,0-0.688,0.129-0.848,0.388c-0.16,0.259-0.24,0.66-0.24,1.204
		c0,0.618,0.094,1.034,0.279,1.248C105.152,8.501,105.242,8.57,105.34,8.607z"/>
	<path fill="#4D4D4D" d="M111.299,8.623l0.232-0.023l0.016,0.472c-0.607,0.085-1.127,0.128-1.559,0.128
		c-0.576,0-0.984-0.167-1.225-0.5s-0.359-0.853-0.359-1.556c0-1.403,0.557-2.104,1.672-2.104c0.537,0,0.941,0.15,1.207,0.452
		c0.268,0.302,0.4,0.774,0.4,1.42l-0.031,0.456h-2.641c0,0.442,0.08,0.771,0.24,0.984c0.16,0.213,0.438,0.319,0.836,0.319
		C110.484,8.671,110.889,8.655,111.299,8.623z M111.084,6.887c0-0.49-0.08-0.837-0.236-1.04c-0.158-0.202-0.414-0.304-0.768-0.304
		c-0.355,0-0.621,0.106-0.801,0.32c-0.178,0.213-0.271,0.555-0.275,1.023H111.084z"/>
	<path fill="#4D4D4D" d="M113.875,5.575c-0.58,0-0.871,0.203-0.871,0.608c0,0.187,0.066,0.318,0.199,0.396s0.438,0.157,0.912,0.24
		s0.811,0.198,1.008,0.348s0.297,0.43,0.297,0.84c0,0.411-0.133,0.712-0.396,0.904s-0.648,0.288-1.156,0.288
		c-0.33,0-0.721-0.037-1.168-0.112l-0.24-0.04l0.033-0.52c0.607,0.091,1.066,0.136,1.375,0.136s0.545-0.049,0.709-0.147
		c0.162-0.099,0.244-0.265,0.244-0.496c0-0.232-0.07-0.39-0.209-0.473c-0.139-0.082-0.443-0.161-0.912-0.235
		c-0.469-0.075-0.803-0.185-1-0.328c-0.197-0.145-0.295-0.411-0.295-0.8c0-0.39,0.137-0.678,0.412-0.864
		c0.273-0.187,0.617-0.28,1.027-0.28c0.324,0,0.732,0.037,1.225,0.112l0.223,0.04l-0.016,0.512
		C114.684,5.618,114.217,5.575,113.875,5.575z"/>
	<path fill="#4D4D4D" d="M117.715,9.119l1.52-5.536h1.344l1.521,5.536h-0.609l-0.398-1.424h-2.369l-0.4,1.424H117.715z
		 M119.699,4.111l-0.84,3.032h2.096l-0.84-3.032H119.699z"/>
	<path fill="#4D4D4D" d="M123.467,9.119h-0.6V3.375h0.6v3.393l0.625-0.032l1.145-1.616h0.68l-1.305,1.84l1.359,2.16h-0.68
		L124.1,7.263l-0.633,0.024V9.119z"/>
	<path fill="#4D4D4D" d="M128.771,5.639h-1.273v1.912c0,0.459,0.033,0.761,0.1,0.904c0.068,0.145,0.227,0.216,0.477,0.216
		l0.713-0.048l0.039,0.496c-0.357,0.059-0.629,0.088-0.816,0.088c-0.416,0-0.703-0.102-0.863-0.304c-0.16-0.203-0.24-0.59-0.24-1.16
		V5.639h-0.568v-0.52h0.568V3.896h0.592v1.224h1.273V5.639z"/>
	<path fill="#4D4D4D" d="M129.508,4.215V3.52h0.6v0.695H129.508z M129.508,9.119v-4h0.6v4H129.508z"/>
	<path fill="#4D4D4D" d="M131.084,7.111c0-0.73,0.129-1.259,0.391-1.584s0.703-0.488,1.324-0.488s1.062,0.163,1.32,0.488
		s0.389,0.854,0.389,1.584s-0.123,1.261-0.369,1.592c-0.244,0.331-0.693,0.496-1.344,0.496s-1.098-0.165-1.344-0.496
		S131.084,7.842,131.084,7.111z M131.699,7.1c0,0.584,0.07,0.993,0.211,1.228c0.143,0.234,0.438,0.352,0.889,0.352
		s0.746-0.115,0.885-0.348c0.139-0.231,0.207-0.642,0.207-1.228c0-0.587-0.076-0.991-0.232-1.212
		c-0.154-0.222-0.441-0.332-0.859-0.332s-0.707,0.11-0.863,0.332C131.777,6.112,131.699,6.516,131.699,7.1z"/>
	<path fill="#4D4D4D" d="M136.082,9.119h-0.6v-4h0.592v0.28c0.432-0.24,0.846-0.36,1.24-0.36c0.533,0,0.893,0.145,1.076,0.432
		c0.184,0.288,0.275,0.801,0.275,1.536v2.112h-0.592V7.023c0-0.555-0.055-0.935-0.164-1.141c-0.109-0.205-0.342-0.308-0.699-0.308
		c-0.172,0-0.352,0.025-0.541,0.076s-0.334,0.1-0.436,0.147l-0.152,0.072V9.119z"/>
	<path fill="#4D4D4D" d="M142.604,6.327v2.048c0.016,0.197,0.17,0.314,0.463,0.353l-0.023,0.472c-0.422,0-0.738-0.106-0.953-0.32
		c-0.479,0.214-0.959,0.32-1.439,0.32c-0.367,0-0.648-0.104-0.84-0.312s-0.287-0.506-0.287-0.896s0.098-0.676,0.295-0.86
		c0.197-0.184,0.508-0.297,0.928-0.34l1.256-0.12V6.327c0-0.272-0.059-0.467-0.176-0.584s-0.277-0.176-0.48-0.176
		c-0.426,0-0.869,0.026-1.326,0.08l-0.248,0.023l-0.025-0.456c0.588-0.117,1.107-0.176,1.561-0.176s0.783,0.104,0.988,0.312
		S142.604,5.885,142.604,6.327z M140.043,4.151V3.431h0.576v0.721H140.043z M140.139,7.959c0,0.491,0.203,0.736,0.607,0.736
		c0.363,0,0.721-0.062,1.072-0.185l0.184-0.063v-1.32l-1.184,0.112c-0.24,0.021-0.414,0.091-0.52,0.208
		C140.191,7.564,140.139,7.735,140.139,7.959z M141.643,4.151V3.431h0.584v0.721H141.643z"/>
	<path fill="#4D4D4D" d="M143.787,9.119v-4h0.592v0.544c0.463-0.32,0.951-0.53,1.463-0.632v0.607
		c-0.223,0.043-0.457,0.109-0.699,0.2s-0.428,0.171-0.557,0.24l-0.199,0.104v2.936H143.787z"/>
	<path fill="#4D4D4D" d="M147.811,5.575c-0.58,0-0.871,0.203-0.871,0.608c0,0.187,0.066,0.318,0.199,0.396s0.438,0.157,0.912,0.24
		s0.811,0.198,1.008,0.348s0.297,0.43,0.297,0.84c0,0.411-0.133,0.712-0.396,0.904s-0.648,0.288-1.156,0.288
		c-0.33,0-0.721-0.037-1.168-0.112l-0.24-0.04l0.033-0.52c0.607,0.091,1.066,0.136,1.375,0.136s0.545-0.049,0.709-0.147
		c0.162-0.099,0.244-0.265,0.244-0.496c0-0.232-0.07-0.39-0.209-0.473c-0.139-0.082-0.443-0.161-0.912-0.235
		c-0.469-0.075-0.803-0.185-1-0.328c-0.197-0.145-0.295-0.411-0.295-0.8c0-0.39,0.137-0.678,0.412-0.864
		c0.273-0.187,0.617-0.28,1.027-0.28c0.324,0,0.732,0.037,1.225,0.112l0.223,0.04l-0.016,0.512
		C148.619,5.618,148.152,5.575,147.811,5.575z"/>
	<path fill="#4D4D4D" d="M85.924,15.927v2.048c0.016,0.197,0.17,0.314,0.465,0.353l-0.025,0.472c-0.42,0-0.738-0.106-0.951-0.32
		c-0.48,0.214-0.961,0.32-1.439,0.32c-0.369,0-0.648-0.104-0.84-0.312c-0.193-0.208-0.289-0.506-0.289-0.896s0.1-0.676,0.297-0.86
		c0.197-0.184,0.506-0.297,0.928-0.34l1.256-0.12v-0.344c0-0.272-0.059-0.467-0.176-0.584s-0.277-0.176-0.48-0.176
		c-0.428,0-0.869,0.026-1.328,0.08l-0.248,0.023l-0.023-0.456c0.586-0.117,1.105-0.176,1.559-0.176c0.455,0,0.783,0.104,0.988,0.312
		S85.924,15.484,85.924,15.927z M83.459,17.559c0,0.491,0.203,0.736,0.609,0.736c0.361,0,0.719-0.062,1.072-0.185l0.184-0.063v-1.32
		l-1.184,0.112c-0.24,0.021-0.414,0.091-0.521,0.208C83.514,17.164,83.459,17.335,83.459,17.559z"/>
	<path fill="#4D4D4D" d="M87.707,18.719h-0.6v-4h0.592v0.28c0.432-0.24,0.846-0.36,1.24-0.36c0.533,0,0.893,0.145,1.076,0.432
		c0.184,0.288,0.275,0.801,0.275,1.536v2.112h-0.592v-2.096c0-0.555-0.055-0.935-0.164-1.141c-0.109-0.205-0.342-0.308-0.699-0.308
		c-0.172,0-0.352,0.025-0.541,0.076s-0.334,0.1-0.436,0.147l-0.152,0.072V18.719z"/>
	<path fill="#4D4D4D" d="M95.883,18.223l0.232-0.023l0.016,0.472c-0.607,0.085-1.127,0.128-1.559,0.128
		c-0.576,0-0.984-0.167-1.225-0.5s-0.359-0.853-0.359-1.556c0-1.403,0.557-2.104,1.672-2.104c0.537,0,0.941,0.15,1.207,0.452
		c0.268,0.302,0.4,0.774,0.4,1.42l-0.031,0.456h-2.641c0,0.442,0.08,0.771,0.24,0.984c0.16,0.213,0.438,0.319,0.836,0.319
		C95.068,18.271,95.473,18.255,95.883,18.223z M95.668,16.486c0-0.49-0.08-0.837-0.236-1.04c-0.158-0.202-0.414-0.304-0.768-0.304
		c-0.355,0-0.621,0.106-0.801,0.32c-0.178,0.213-0.271,0.555-0.275,1.023H95.668z"/>
	<path fill="#4D4D4D" d="M97.203,13.814v-0.695h0.6v0.695H97.203z M97.203,18.719v-4h0.6v4H97.203z"/>
	<path fill="#4D4D4D" d="M99.555,18.719h-0.6v-4h0.592v0.28c0.432-0.24,0.846-0.36,1.24-0.36c0.533,0,0.893,0.145,1.076,0.432
		c0.184,0.288,0.275,0.801,0.275,1.536v2.112h-0.592v-2.096c0-0.555-0.055-0.935-0.164-1.141c-0.109-0.205-0.342-0.308-0.699-0.308
		c-0.172,0-0.352,0.025-0.541,0.076s-0.334,0.1-0.436,0.147l-0.152,0.072V18.719z"/>
	<path fill="#4D4D4D" d="M105.971,18.223l0.232-0.023l0.016,0.472c-0.607,0.085-1.127,0.128-1.559,0.128
		c-0.576,0-0.984-0.167-1.225-0.5s-0.359-0.853-0.359-1.556c0-1.403,0.557-2.104,1.672-2.104c0.537,0,0.941,0.15,1.207,0.452
		c0.268,0.302,0.4,0.774,0.4,1.42l-0.031,0.456h-2.641c0,0.442,0.08,0.771,0.24,0.984c0.16,0.213,0.438,0.319,0.836,0.319
		C105.156,18.271,105.561,18.255,105.971,18.223z M105.756,16.486c0-0.49-0.08-0.837-0.236-1.04
		c-0.158-0.202-0.414-0.304-0.768-0.304c-0.355,0-0.621,0.106-0.801,0.32c-0.178,0.213-0.271,0.555-0.275,1.023H105.756z"/>
	<path fill="#4D4D4D" d="M107.891,18.719h-0.6v-4h0.592v0.28c0.4-0.24,0.789-0.36,1.168-0.36c0.496,0,0.844,0.136,1.041,0.408
		c0.176-0.106,0.404-0.201,0.684-0.284s0.527-0.124,0.74-0.124c0.533,0,0.893,0.143,1.076,0.428c0.184,0.286,0.275,0.799,0.275,1.54
		v2.112h-0.6v-2.096c0-0.555-0.053-0.935-0.16-1.141c-0.107-0.205-0.334-0.308-0.68-0.308c-0.176,0-0.357,0.025-0.545,0.076
		c-0.186,0.051-0.33,0.1-0.432,0.147l-0.152,0.072c0.07,0.176,0.105,0.565,0.105,1.168v2.08h-0.602v-2.064
		c0-0.575-0.051-0.966-0.156-1.172c-0.104-0.205-0.332-0.308-0.684-0.308c-0.17,0-0.346,0.025-0.523,0.076
		c-0.18,0.051-0.316,0.1-0.412,0.147l-0.137,0.072V18.719z"/>
	<path fill="#4D4D4D" d="M116.42,17.055c0,0.8,0.432,1.2,1.295,1.2c0.449,0,0.785-0.095,1.014-0.284
		c0.227-0.189,0.34-0.494,0.34-0.916v-3.872h0.607v3.856c0,0.618-0.164,1.066-0.492,1.344s-0.812,0.416-1.451,0.416
		c-0.641,0-1.123-0.139-1.445-0.416s-0.484-0.726-0.484-1.344v-3.856h0.617V17.055z"/>
	<path fill="#4D4D4D" d="M121.49,18.719h-0.6v-4h0.592v0.28c0.432-0.24,0.846-0.36,1.24-0.36c0.533,0,0.893,0.145,1.076,0.432
		c0.184,0.288,0.275,0.801,0.275,1.536v2.112h-0.592v-2.096c0-0.555-0.055-0.935-0.164-1.141c-0.109-0.205-0.342-0.308-0.699-0.308
		c-0.172,0-0.352,0.025-0.541,0.076s-0.334,0.1-0.436,0.147l-0.152,0.072V18.719z"/>
	<path fill="#4D4D4D" d="M127.236,15.238h-1.273v1.912c0,0.459,0.033,0.761,0.1,0.904c0.068,0.145,0.227,0.216,0.477,0.216
		l0.713-0.048l0.039,0.496c-0.357,0.059-0.629,0.088-0.816,0.088c-0.416,0-0.703-0.102-0.863-0.304c-0.16-0.203-0.24-0.59-0.24-1.16
		v-2.104h-0.568v-0.52h0.568v-1.224h0.592v1.224h1.273V15.238z"/>
	<path fill="#4D4D4D" d="M130.691,18.223l0.232-0.023l0.016,0.472c-0.609,0.085-1.129,0.128-1.561,0.128
		c-0.576,0-0.984-0.167-1.225-0.5s-0.359-0.853-0.359-1.556c0-1.403,0.557-2.104,1.672-2.104c0.539,0,0.941,0.15,1.209,0.452
		c0.266,0.302,0.398,0.774,0.398,1.42l-0.031,0.456h-2.641c0,0.442,0.08,0.771,0.24,0.984c0.16,0.213,0.439,0.319,0.836,0.319
		C129.877,18.271,130.279,18.255,130.691,18.223z M130.475,16.486c0-0.49-0.078-0.837-0.236-1.04
		c-0.156-0.202-0.412-0.304-0.768-0.304c-0.354,0-0.621,0.106-0.799,0.32c-0.18,0.213-0.271,0.555-0.277,1.023H130.475z"/>
	<path fill="#4D4D4D" d="M132.012,18.719v-4h0.592v0.544c0.463-0.32,0.951-0.53,1.463-0.632v0.607
		c-0.223,0.043-0.457,0.109-0.699,0.2s-0.428,0.171-0.557,0.24l-0.199,0.104v2.936H132.012z"/>
	<path fill="#4D4D4D" d="M135.379,18.719h-0.6v-4h0.592v0.28c0.432-0.24,0.846-0.36,1.24-0.36c0.533,0,0.891,0.145,1.076,0.432
		c0.184,0.288,0.275,0.801,0.275,1.536v2.112h-0.592v-2.096c0-0.555-0.055-0.935-0.164-1.141c-0.109-0.205-0.344-0.308-0.701-0.308
		c-0.17,0-0.35,0.025-0.539,0.076s-0.334,0.1-0.436,0.147l-0.152,0.072V18.719z"/>
	<path fill="#4D4D4D" d="M141.795,18.223l0.232-0.023l0.016,0.472c-0.609,0.085-1.129,0.128-1.561,0.128
		c-0.576,0-0.984-0.167-1.225-0.5s-0.359-0.853-0.359-1.556c0-1.403,0.557-2.104,1.672-2.104c0.539,0,0.941,0.15,1.209,0.452
		c0.266,0.302,0.398,0.774,0.398,1.42l-0.031,0.456h-2.641c0,0.442,0.08,0.771,0.24,0.984c0.16,0.213,0.439,0.319,0.836,0.319
		C140.98,18.271,141.383,18.255,141.795,18.223z M141.578,16.486c0-0.49-0.078-0.837-0.236-1.04
		c-0.156-0.202-0.412-0.304-0.768-0.304c-0.354,0-0.621,0.106-0.799,0.32c-0.18,0.213-0.271,0.555-0.277,1.023H141.578z"/>
	<path fill="#4D4D4D" d="M143.715,18.719h-0.6v-5.744h0.6v1.968c0.426-0.202,0.838-0.304,1.232-0.304
		c0.533,0,0.891,0.145,1.076,0.432c0.184,0.288,0.275,0.801,0.275,1.536v2.112h-0.6v-2.096c0-0.555-0.055-0.935-0.164-1.141
		c-0.109-0.205-0.34-0.308-0.693-0.308c-0.336,0-0.66,0.062-0.975,0.184l-0.152,0.057V18.719z"/>
	<path fill="#4D4D4D" d="M148.01,18.719h-0.6v-4h0.592v0.28c0.4-0.24,0.789-0.36,1.168-0.36c0.496,0,0.844,0.136,1.041,0.408
		c0.176-0.106,0.404-0.201,0.684-0.284s0.527-0.124,0.74-0.124c0.533,0,0.893,0.143,1.076,0.428c0.184,0.286,0.275,0.799,0.275,1.54
		v2.112h-0.6v-2.096c0-0.555-0.053-0.935-0.16-1.141c-0.107-0.205-0.334-0.308-0.68-0.308c-0.176,0-0.357,0.025-0.545,0.076
		c-0.186,0.051-0.33,0.1-0.432,0.147l-0.152,0.072c0.07,0.176,0.105,0.565,0.105,1.168v2.08h-0.602v-2.064
		c0-0.575-0.051-0.966-0.156-1.172c-0.104-0.205-0.332-0.308-0.684-0.308c-0.17,0-0.346,0.025-0.523,0.076
		c-0.18,0.051-0.316,0.1-0.412,0.147l-0.137,0.072V18.719z"/>
	<path fill="#4D4D4D" d="M156.818,18.223l0.232-0.023l0.016,0.472c-0.607,0.085-1.127,0.128-1.559,0.128
		c-0.576,0-0.984-0.167-1.225-0.5s-0.359-0.853-0.359-1.556c0-1.403,0.557-2.104,1.672-2.104c0.537,0,0.941,0.15,1.207,0.452
		c0.268,0.302,0.4,0.774,0.4,1.42l-0.031,0.456h-2.641c0,0.442,0.08,0.771,0.24,0.984c0.16,0.213,0.438,0.319,0.836,0.319
		C156.004,18.271,156.408,18.255,156.818,18.223z M156.604,16.486c0-0.49-0.08-0.837-0.236-1.04
		c-0.158-0.202-0.414-0.304-0.768-0.304c-0.355,0-0.621,0.106-0.801,0.32c-0.178,0.213-0.271,0.555-0.275,1.023H156.604z"/>
	<path fill="#4D4D4D" d="M158.738,18.719h-0.6v-4h0.592v0.28c0.432-0.24,0.846-0.36,1.24-0.36c0.533,0,0.893,0.145,1.076,0.432
		c0.184,0.288,0.275,0.801,0.275,1.536v2.112h-0.592v-2.096c0-0.555-0.055-0.935-0.164-1.141c-0.109-0.205-0.342-0.308-0.699-0.308
		c-0.172,0-0.352,0.025-0.541,0.076s-0.334,0.1-0.436,0.147l-0.152,0.072V18.719z"/>
</g>
<rect x="29.25" y="93.75" fill="#00B8FA" width="6" height="6"/>
<path fill="#4D4D4D" stroke="#4D4D4D" stroke-width="0.245" stroke-miterlimit="10" d="M147.25,64.75h-6l-1,1v6h-6l-1,1v6h-6l-1,1v6
	h-6l-1,1v6h-6l-1,1v6h-6v-6v-1v-6v-1v-6v-1v-6v-1v-6v-1h-1h-6l-1,1v6h-6l-1,1v6h-6l-1,1v6h-6l-1,1v6h-6l-1,1v6h-6v-4v-2v-1v-6v-1v-6
	v-1v-6v-1v-6v-1h-1h-5.907l-1.093,1.107v5.893h-5.815l-1.185,1.201v5.799h-5.722l-1.278,1.295v5.705h-5.63l-1.37,1.388v5.612h-5.537
	l-1.463,1.482v5.518h-6v-6v-1v-6v-1v-6v-1v-6v-1v-6v-1v-6v-1v-6v-1v-6v-1v-6v-1v-6v-1v-6v-1v-6v-1v-6v-1v-6v-1h-22v1v133h1h6h1h6h1
	h6h1h6h1h6h1h6h1h6h1h6h1h6h1h6h1h6h1h6h1h6h1h6h1h6h1h6h1h6h1h6h1h6h1h6h1h6h1v-1v-6v-1v-6v-1v-6v-1v-6v-1v-6v-1v-6v-1v-6v-1v-6v-1
	v-6v-1v-6v-1H147.25z M7.25,134.75h-6v-6h6V134.75z M7.25,127.75h-6v-6h6V127.75z M7.25,120.75h-6v-6h6V120.75z M7.25,113.75h-6v-6
	h6V113.75z M7.25,106.75h-6v-6h6V106.75z M7.25,99.75h-6v-6h6V99.75z M7.25,92.75h-6v-6h6V92.75z M7.25,85.75h-6v-6h6V85.75z
	 M7.25,78.75h-6v-6h6V78.75z M7.25,71.75h-6v-6h6V71.75z M7.25,64.75h-6v-6h6V64.75z M7.25,57.75h-6v-6h6V57.75z M7.25,50.75h-6v-6
	h6V50.75z M7.25,43.75h-6v-6h6V43.75z M7.25,36.75h-6v-6h6V36.75z M7.25,29.75h-6v-6h6V29.75z M7.25,22.75h-6v-6h6V22.75z
	 M7.25,15.75h-6v-6h6V15.75z M7.25,8.75h-6v-6h6V8.75z M14.25,134.75h-6v-6h6V134.75z M14.25,127.75h-6v-6h6V127.75z M14.25,120.75
	h-6v-6h6V120.75z M14.25,113.75h-6v-6h6V113.75z M14.25,106.75h-6v-6h6V106.75z M14.25,99.75h-6v-6h6V99.75z M14.25,92.75h-6v-6h6
	V92.75z M14.25,85.75h-6v-6h6V85.75z M14.25,78.75h-6v-6h6V78.75z M14.25,71.75h-6v-6h6V71.75z M14.25,64.75h-6v-6h6V64.75z
	 M14.25,57.75h-6v-6h6V57.75z M14.25,50.75h-6v-6h6V50.75z M14.25,43.75h-6v-6h6V43.75z M14.25,36.75h-6v-6h6V36.75z M14.25,29.75
	h-6v-6h6V29.75z M14.25,22.75h-6v-6h6V22.75z M14.25,15.75h-6v-6h6V15.75z M14.25,8.75h-6v-6h6V8.75z M21.25,134.75h-6v-6h6V134.75z
	 M21.25,127.75h-6v-6h6V127.75z M21.25,120.75h-6v-6h6V120.75z M21.25,113.75h-6v-6h6V113.75z M21.25,106.75h-6v-6h6V106.75z
	 M21.25,99.75h-6v-6h6V99.75z M21.25,92.75h-6v-6h6V92.75z M21.25,85.75h-6v-6h6V85.75z M21.25,78.75h-6v-6h6V78.75z M21.25,71.75
	h-6v-6h6V71.75z M21.25,64.75h-6v-6h6V64.75z M21.25,57.75h-6v-6h6V57.75z M21.25,50.75h-6v-6h6V50.75z M21.25,43.75h-6v-6h6V43.75z
	 M21.25,36.75h-6v-6h6V36.75z M21.25,29.75h-6v-6h6V29.75z M21.25,22.75h-6v-6h6V22.75z M21.25,15.75h-6v-6h6V15.75z M21.25,8.75h-6
	v-6h6V8.75z M28.25,134.75h-6v-6h6V134.75z M28.25,127.75h-6v-6h6V127.75z M28.25,120.75h-6v-6h6V120.75z M28.25,113.75h-6v-6h6
	V113.75z M28.25,106.75h-6v-6h6V106.75z M35.25,134.75h-6v-6h6V134.75z M35.25,127.75h-6v-6h6V127.75z M35.25,120.75h-6v-6h6V120.75
	z M35.25,113.75h-6v-6h6V113.75z M35.25,106.75h-6v-6h6V106.75z M35.25,99.75h-6v-6h6V99.75z M42.25,134.75h-6v-6h6V134.75z
	 M42.25,127.75h-6v-6h6V127.75z M42.25,120.75h-6v-6h6V120.75z M42.25,113.75h-6v-6h6V113.75z M42.25,106.75h-6v-6h6V106.75z
	 M42.25,99.75h-6v-6h6V99.75z M42.25,92.75h-6v-6h6V92.75z M49.25,134.75h-6v-6h6V134.75z M49.25,127.75h-6v-6h6V127.75z
	 M49.25,120.75h-6v-6h6V120.75z M49.25,113.75h-6v-6h6V113.75z M49.25,106.75h-6v-6h6V106.75z M49.25,99.75h-6v-6h6V99.75z
	 M49.25,92.75h-6v-6h6V92.75z M49.25,85.75h-6v-6h6V85.75z M56.25,134.75h-6v-6h6V134.75z M56.25,127.75h-6v-6h6V127.75z
	 M56.25,120.75h-6v-6h6V120.75z M56.25,113.75h-6v-6h6V113.75z M56.25,106.75h-6v-6h6V106.75z M56.25,99.75h-6v-6h6V99.75z
	 M56.25,92.75h-6v-6h6V92.75z M56.25,85.75h-6v-6h6V85.75z M56.25,78.75h-6v-6h6V78.75z M63.25,134.75h-6v-6h6V134.75z
	 M63.25,127.75h-6v-6h6V127.75z M63.25,120.75h-6v-6h6V120.75z M63.25,113.75h-6v-6h6V113.75z M63.25,106.75h-6v-6h6V106.75z
	 M63.25,99.75h-6v-6h6V99.75z M63.25,92.75h-6v-6h6V92.75z M63.25,85.75h-6v-6h6V85.75z M63.25,78.75h-6v-6h6V78.75z M63.25,71.75
	h-6v-6h6V71.75z M70.25,134.75h-6v-6h6V134.75z M70.25,127.75h-6v-6h6V127.75z M70.25,120.75h-6v-6h6V120.75z M70.25,113.75h-6v-6h6
	V113.75z M70.25,106.75h-6v-6h6V106.75z M77.25,134.75h-6v-6h6V134.75z M77.25,127.75h-6v-6h6V127.75z M77.25,120.75h-6v-6h6V120.75
	z M77.25,113.75h-6v-6h6V113.75z M77.25,106.75h-6v-6h6V106.75z M77.25,99.75h-6v-6h6V99.75z M84.25,134.75h-6v-6h6V134.75z
	 M84.25,127.75h-6v-6h6V127.75z M84.25,120.75h-6v-6h6V120.75z M84.25,113.75h-6v-6h6V113.75z M84.25,106.75h-6v-6h6V106.75z
	 M84.25,99.75h-6v-6h6V99.75z M84.25,92.75h-6v-6h6V92.75z M91.25,134.75h-6v-6h6V134.75z M91.25,127.75h-6v-6h6V127.75z
	 M91.25,120.75h-6v-6h6V120.75z M91.25,113.75h-6v-6h6V113.75z M91.25,106.75h-6v-6h6V106.75z M91.25,99.75h-6v-6h6V99.75z
	 M91.25,92.75h-6v-6h6V92.75z M91.25,85.75h-6v-6h6V85.75z M98.25,134.75h-6v-6h6V134.75z M98.25,127.75h-6v-6h6V127.75z
	 M98.25,120.75h-6v-6h6V120.75z M98.25,113.75h-6v-6h6V113.75z M98.25,106.75h-6v-6h6V106.75z M98.25,99.75h-6v-6h6V99.75z
	 M98.25,92.75h-6v-6h6V92.75z M98.25,85.75h-6v-6h6V85.75z M98.25,78.75h-6v-6h6V78.75z M105.25,134.75h-6v-6h6V134.75z
	 M105.25,127.75h-6v-6h6V127.75z M105.25,120.75h-6v-6h6V120.75z M105.25,113.75h-6v-6h6V113.75z M105.25,106.75h-6v-6h6V106.75z
	 M105.25,99.75h-6v-6h6V99.75z M105.25,92.75h-6v-6h6V92.75z M105.25,85.75h-6v-6h6V85.75z M105.25,78.75h-6v-6h6V78.75z
	 M105.25,71.75h-6v-6h6V71.75z M112.25,134.75h-6v-6h6V134.75z M112.25,127.75h-6v-6h6V127.75z M112.25,120.75h-6v-6h6V120.75z
	 M112.25,113.75h-6v-6h6V113.75z M112.25,106.75h-6v-6h6V106.75z M119.25,134.75h-6v-6h6V134.75z M119.25,127.75h-6v-6h6V127.75z
	 M119.25,120.75h-6v-6h6V120.75z M119.25,113.75h-6v-6h6V113.75z M119.25,106.75h-6v-6h6V106.75z M119.25,99.75h-6v-6h6V99.75z
	 M126.25,134.75h-6v-6h6V134.75z M126.25,127.75h-6v-6h6V127.75z M126.25,120.75h-6v-6h6V120.75z M126.25,113.75h-6v-6h6V113.75z
	 M126.25,106.75h-6v-6h6V106.75z M126.25,99.75h-6v-6h6V99.75z M126.25,92.75h-6v-6h6V92.75z M133.25,134.75h-6v-6h6V134.75z
	 M133.25,127.75h-6v-6h6V127.75z M133.25,120.75h-6v-6h6V120.75z M133.25,113.75h-6v-6h6V113.75z M133.25,106.75h-6v-6h6V106.75z
	 M133.25,99.75h-6v-6h6V99.75z M133.25,92.75h-6v-6h6V92.75z M133.25,85.75h-6v-6h6V85.75z M140.25,134.75h-6v-6h6V134.75z
	 M140.25,127.75h-6v-6h6V127.75z M140.25,120.75h-6v-6h6V120.75z M140.25,113.75h-6v-6h6V113.75z M140.25,106.75h-6v-6h6V106.75z
	 M140.25,99.75h-6v-6h6V99.75z M140.25,92.75h-6v-6h6V92.75z M140.25,85.75h-6v-6h6V85.75z M140.25,78.75h-6v-6h6V78.75z
	 M147.25,134.75h-6v-6h6V134.75z M147.25,127.75h-6v-6h6V127.75z M147.25,120.75h-6v-6h6V120.75z M147.25,113.75h-6v-6h6V113.75z
	 M147.25,106.75h-6v-6h6V106.75z M147.25,99.75h-6v-6h6V99.75z M147.25,92.75h-6v-6h6V92.75z M147.25,85.75h-6v-6h6V85.75z
	 M147.25,78.75h-6v-6h6V78.75z M147.25,71.75h-6v-6h6V71.75z"/>
</svg>
