<?xml version="1.0" encoding="utf-8"?>
<!-- Generator: Adobe Illustrator 21.1.0, SVG Export Plug-In . SVG Version: 6.00 Build 0)  -->
<svg version="1.1" id="Ebene_1" xmlns="http://www.w3.org/2000/svg" xmlns:xlink="http://www.w3.org/1999/xlink" x="0px" y="0px"
	 viewBox="0 0 200 200" enable-background="new 0 0 200 200" xml:space="preserve">
<rect x="0.333" y="0.333" fill="#FFFFFF" width="200" height="200.667"/>
<g>
	<g>
		<path fill="#4D4D4D" d="M137.661,66.641h-0.6v-4h0.592v0.28c0.432-0.24,0.846-0.36,1.24-0.36c0.533,0,0.892,0.145,1.076,0.432
			c0.184,0.288,0.275,0.801,0.275,1.536v2.112h-0.592v-2.096c0-0.555-0.055-0.935-0.164-1.141c-0.109-0.205-0.343-0.308-0.7-0.308
			c-0.171,0-0.351,0.025-0.54,0.076s-0.334,0.1-0.436,0.147l-0.152,0.072V66.641z"/>
		<path fill="#4D4D4D" d="M144.182,63.849v2.048c0.016,0.197,0.17,0.314,0.464,0.353l-0.024,0.472c-0.421,0-0.738-0.106-0.952-0.32
			c-0.479,0.214-0.96,0.32-1.439,0.32c-0.368,0-0.648-0.104-0.84-0.312c-0.192-0.208-0.288-0.506-0.288-0.896
			s0.099-0.676,0.296-0.86c0.197-0.184,0.507-0.297,0.928-0.34l1.256-0.12v-0.344c0-0.272-0.059-0.467-0.176-0.584
			s-0.277-0.176-0.48-0.176c-0.427,0-0.869,0.026-1.327,0.08l-0.248,0.023l-0.024-0.456c0.587-0.117,1.106-0.176,1.56-0.176
			c0.454,0,0.783,0.104,0.988,0.312S144.182,63.406,144.182,63.849z M141.717,65.48c0,0.491,0.203,0.736,0.608,0.736
			c0.362,0,0.72-0.062,1.072-0.185l0.184-0.063v-1.32l-1.184,0.112c-0.24,0.021-0.414,0.091-0.521,0.208
			S141.717,65.257,141.717,65.48z"/>
		<path fill="#4D4D4D" d="M146.861,62.561c0.176,0,0.475,0.032,0.896,0.096l0.192,0.024l-0.024,0.488
			c-0.427-0.048-0.741-0.072-0.943-0.072c-0.454,0-0.762,0.108-0.925,0.324c-0.162,0.216-0.243,0.616-0.243,1.2
			s0.075,0.99,0.228,1.22s0.468,0.344,0.948,0.344l0.943-0.072l0.024,0.496c-0.496,0.075-0.867,0.112-1.112,0.112
			c-0.624,0-1.055-0.16-1.292-0.48c-0.237-0.319-0.355-0.859-0.355-1.619c0-0.761,0.128-1.294,0.384-1.601
			S146.264,62.561,146.861,62.561z"/>
		<path fill="#4D4D4D" d="M149.453,66.641h-0.6v-5.744h0.6v1.968c0.427-0.202,0.838-0.304,1.232-0.304
			c0.533,0,0.892,0.145,1.076,0.432c0.184,0.288,0.275,0.801,0.275,1.536v2.112h-0.6v-2.096c0-0.555-0.055-0.935-0.164-1.141
			c-0.109-0.205-0.34-0.308-0.692-0.308c-0.336,0-0.661,0.062-0.976,0.184l-0.152,0.057V66.641z"/>
		<path fill="#4D4D4D" d="M157.629,66.145l0.232-0.023l0.016,0.472c-0.608,0.085-1.128,0.128-1.56,0.128
			c-0.576,0-0.984-0.167-1.225-0.5s-0.359-0.853-0.359-1.556c0-1.403,0.557-2.104,1.672-2.104c0.538,0,0.941,0.15,1.208,0.452
			s0.399,0.774,0.399,1.42l-0.031,0.456h-2.641c0,0.442,0.08,0.771,0.24,0.984c0.16,0.213,0.438,0.319,0.836,0.319
			S157.218,66.177,157.629,66.145z M157.413,64.408c0-0.49-0.079-0.837-0.236-1.04c-0.157-0.202-0.413-0.304-0.768-0.304
			s-0.621,0.106-0.8,0.32c-0.179,0.213-0.271,0.555-0.276,1.023H157.413z"/>
		<path fill="#4D4D4D" d="M158.949,61.736v-0.695h0.6v0.695H158.949z M158.949,66.641v-4h0.6v4H158.949z"/>
		<path fill="#4D4D4D" d="M161.301,66.641h-0.6v-4h0.592v0.28c0.432-0.24,0.846-0.36,1.24-0.36c0.533,0,0.892,0.145,1.076,0.432
			c0.184,0.288,0.275,0.801,0.275,1.536v2.112h-0.592v-2.096c0-0.555-0.055-0.935-0.164-1.141c-0.109-0.205-0.343-0.308-0.7-0.308
			c-0.171,0-0.351,0.025-0.54,0.076s-0.334,0.1-0.436,0.147l-0.152,0.072V66.641z"/>
		<path fill="#4D4D4D" d="M167.717,66.145l0.232-0.023l0.016,0.472c-0.608,0.085-1.128,0.128-1.56,0.128
			c-0.576,0-0.984-0.167-1.225-0.5s-0.359-0.853-0.359-1.556c0-1.403,0.557-2.104,1.672-2.104c0.538,0,0.941,0.15,1.208,0.452
			s0.399,0.774,0.399,1.42l-0.031,0.456h-2.641c0,0.442,0.08,0.771,0.24,0.984c0.16,0.213,0.438,0.319,0.836,0.319
			S167.306,66.177,167.717,66.145z M167.501,64.408c0-0.49-0.079-0.837-0.236-1.04c-0.157-0.202-0.413-0.304-0.768-0.304
			s-0.621,0.106-0.8,0.32c-0.179,0.213-0.271,0.555-0.276,1.023H167.501z"/>
		<path fill="#4D4D4D" d="M169.637,66.641h-0.6v-4h0.592v0.28c0.4-0.24,0.789-0.36,1.168-0.36c0.496,0,0.843,0.136,1.04,0.408
			c0.176-0.106,0.404-0.201,0.684-0.284c0.28-0.083,0.527-0.124,0.74-0.124c0.533,0,0.893,0.143,1.076,0.428
			c0.184,0.286,0.276,0.799,0.276,1.54v2.112h-0.601v-2.096c0-0.555-0.053-0.935-0.16-1.141c-0.106-0.205-0.333-0.308-0.68-0.308
			c-0.176,0-0.357,0.025-0.544,0.076s-0.331,0.1-0.432,0.147l-0.152,0.072c0.069,0.176,0.104,0.565,0.104,1.168v2.08h-0.601v-2.064
			c0-0.575-0.052-0.966-0.156-1.172c-0.104-0.205-0.332-0.308-0.684-0.308c-0.171,0-0.346,0.025-0.524,0.076s-0.315,0.1-0.412,0.147
			l-0.136,0.072V66.641z"/>
		<path fill="#4D4D4D" d="M137.661,76.24h-0.6v-5.744h0.6v1.968c0.427-0.202,0.838-0.304,1.232-0.304
			c0.533,0,0.892,0.145,1.076,0.432c0.184,0.288,0.275,0.801,0.275,1.536v2.112h-0.6v-2.096c0-0.555-0.055-0.935-0.164-1.141
			c-0.109-0.205-0.34-0.308-0.692-0.308c-0.336,0-0.661,0.062-0.976,0.184l-0.152,0.057V76.24z"/>
		<path fill="#4D4D4D" d="M144.182,73.448v2.048c0.016,0.197,0.17,0.314,0.464,0.353l-0.024,0.472c-0.421,0-0.738-0.106-0.952-0.32
			c-0.479,0.214-0.96,0.32-1.439,0.32c-0.368,0-0.648-0.104-0.84-0.312c-0.192-0.208-0.288-0.506-0.288-0.896
			s0.099-0.676,0.296-0.86c0.197-0.184,0.507-0.297,0.928-0.34l1.256-0.12v-0.344c0-0.272-0.059-0.467-0.176-0.584
			s-0.277-0.176-0.48-0.176c-0.427,0-0.869,0.026-1.327,0.08l-0.248,0.023l-0.024-0.456c0.587-0.117,1.106-0.176,1.56-0.176
			c0.454,0,0.783,0.104,0.988,0.312S144.182,73.006,144.182,73.448z M141.717,75.08c0,0.491,0.203,0.736,0.608,0.736
			c0.362,0,0.72-0.062,1.072-0.185l0.184-0.063v-1.32l-1.184,0.112c-0.24,0.021-0.414,0.091-0.521,0.208
			S141.717,74.856,141.717,75.08z"/>
		<path fill="#4D4D4D" d="M145.413,76.24v-5.744h0.6v5.744H145.413z"/>
		<path fill="#4D4D4D" d="M148.98,72.16c0.539,0,0.916,0.153,1.132,0.46c0.217,0.307,0.324,0.844,0.324,1.612
			c0,0.768-0.135,1.308-0.403,1.62c-0.27,0.312-0.765,0.468-1.484,0.468c-0.224,0-0.595-0.021-1.112-0.064l-0.224-0.023v-5.736
			h0.592v1.944C148.21,72.254,148.602,72.16,148.98,72.16z M148.541,75.784c0.522,0,0.868-0.118,1.036-0.355
			s0.252-0.639,0.252-1.204s-0.067-0.962-0.2-1.188c-0.134-0.227-0.371-0.34-0.712-0.34c-0.31,0-0.627,0.059-0.952,0.176
			l-0.16,0.057v2.815C148.151,75.771,148.396,75.784,148.541,75.784z"/>
		<path fill="#4D4D4D" d="M154.141,75.744l0.232-0.023l0.016,0.472c-0.608,0.085-1.128,0.128-1.56,0.128
			c-0.576,0-0.984-0.167-1.225-0.5s-0.359-0.853-0.359-1.556c0-1.403,0.557-2.104,1.672-2.104c0.538,0,0.941,0.15,1.208,0.452
			s0.399,0.774,0.399,1.42l-0.031,0.456h-2.641c0,0.442,0.08,0.771,0.24,0.984c0.16,0.213,0.438,0.319,0.836,0.319
			S153.729,75.776,154.141,75.744z M153.925,74.008c0-0.49-0.079-0.837-0.236-1.04c-0.157-0.202-0.413-0.304-0.768-0.304
			s-0.621,0.106-0.8,0.32c-0.179,0.213-0.271,0.555-0.276,1.023H153.925z"/>
		<path fill="#4D4D4D" d="M156.061,76.24h-0.6v-4h0.592v0.28c0.432-0.24,0.846-0.36,1.24-0.36c0.533,0,0.892,0.145,1.076,0.432
			c0.184,0.288,0.275,0.801,0.275,1.536v2.112h-0.592v-2.096c0-0.555-0.055-0.935-0.164-1.141c-0.109-0.205-0.343-0.308-0.7-0.308
			c-0.171,0-0.351,0.025-0.54,0.076s-0.334,0.1-0.436,0.147l-0.152,0.072V76.24z"/>
		<path fill="#4D4D4D" d="M161.084,76.816v-0.552c0.385,0,0.631-0.047,0.74-0.141c0.109-0.093,0.164-0.337,0.164-0.731v-4.688h0.608
			l0.008,4.776c0,0.448-0.075,0.775-0.224,0.983c-0.123,0.177-0.366,0.285-0.729,0.328
			C161.509,76.809,161.319,76.816,161.084,76.816z"/>
		<path fill="#4D4D4D" d="M166.653,73.448v2.048c0.016,0.197,0.17,0.314,0.464,0.353l-0.024,0.472c-0.421,0-0.738-0.106-0.952-0.32
			c-0.479,0.214-0.96,0.32-1.439,0.32c-0.368,0-0.648-0.104-0.84-0.312c-0.192-0.208-0.288-0.506-0.288-0.896
			s0.099-0.676,0.296-0.86c0.197-0.184,0.507-0.297,0.928-0.34l1.256-0.12v-0.344c0-0.272-0.059-0.467-0.176-0.584
			s-0.277-0.176-0.48-0.176c-0.427,0-0.869,0.026-1.327,0.08l-0.248,0.023l-0.024-0.456c0.587-0.117,1.106-0.176,1.56-0.176
			c0.454,0,0.783,0.104,0.988,0.312S166.653,73.006,166.653,73.448z M164.188,75.08c0,0.491,0.203,0.736,0.608,0.736
			c0.362,0,0.72-0.062,1.072-0.185l0.184-0.063v-1.32l-1.184,0.112c-0.24,0.021-0.414,0.091-0.521,0.208
			S164.188,74.856,164.188,75.08z"/>
		<path fill="#4D4D4D" d="M168.437,76.24h-0.6v-5.744h0.6v1.968c0.427-0.202,0.838-0.304,1.232-0.304
			c0.533,0,0.892,0.145,1.076,0.432c0.184,0.288,0.275,0.801,0.275,1.536v2.112h-0.6v-2.096c0-0.555-0.055-0.935-0.164-1.141
			c-0.109-0.205-0.34-0.308-0.692-0.308c-0.336,0-0.661,0.062-0.976,0.184l-0.152,0.057V76.24z"/>
		<path fill="#4D4D4D" d="M172.133,76.24v-4h0.592v0.544c0.464-0.32,0.952-0.53,1.464-0.632v0.607c-0.224,0.043-0.457,0.109-0.7,0.2
			c-0.242,0.091-0.428,0.171-0.556,0.24l-0.2,0.104v2.936H172.133z"/>
		<path fill="#4D4D4D" d="M137.741,84.177c0,0.8,0.433,1.2,1.296,1.2c0.448,0,0.785-0.095,1.013-0.284
			c0.227-0.189,0.34-0.494,0.34-0.916v-3.872h0.607v3.856c0,0.618-0.164,1.066-0.492,1.344c-0.327,0.277-0.812,0.416-1.451,0.416
			c-0.641,0-1.122-0.139-1.444-0.416c-0.323-0.277-0.484-0.726-0.484-1.344v-3.856h0.616V84.177z"/>
		<path fill="#4D4D4D" d="M142.813,85.841h-0.6v-4h0.592v0.28c0.4-0.24,0.789-0.36,1.168-0.36c0.496,0,0.843,0.136,1.04,0.408
			c0.176-0.106,0.404-0.201,0.684-0.284c0.28-0.083,0.527-0.124,0.74-0.124c0.533,0,0.893,0.143,1.076,0.428
			c0.184,0.286,0.276,0.799,0.276,1.54v2.112h-0.601v-2.096c0-0.555-0.053-0.935-0.16-1.141c-0.106-0.205-0.333-0.308-0.68-0.308
			c-0.176,0-0.357,0.025-0.544,0.076s-0.331,0.1-0.432,0.147l-0.152,0.072c0.069,0.176,0.104,0.565,0.104,1.168v2.08h-0.601v-2.064
			c0-0.575-0.052-0.966-0.156-1.172c-0.104-0.205-0.332-0.308-0.684-0.308c-0.171,0-0.346,0.025-0.524,0.076s-0.315,0.1-0.412,0.147
			l-0.136,0.072V85.841z"/>
		<path fill="#4D4D4D" d="M150.157,82.297c-0.581,0-0.872,0.203-0.872,0.608c0,0.187,0.066,0.318,0.2,0.396
			c0.133,0.077,0.438,0.157,0.912,0.24s0.811,0.198,1.008,0.348s0.296,0.43,0.296,0.84c0,0.411-0.132,0.712-0.396,0.904
			c-0.265,0.192-0.649,0.288-1.156,0.288c-0.331,0-0.721-0.037-1.168-0.112l-0.24-0.04l0.032-0.52
			c0.607,0.091,1.066,0.136,1.376,0.136c0.309,0,0.545-0.049,0.708-0.147c0.162-0.099,0.244-0.265,0.244-0.496
			c0-0.232-0.069-0.39-0.208-0.473c-0.139-0.082-0.443-0.161-0.912-0.235c-0.47-0.075-0.803-0.185-1-0.328
			c-0.197-0.145-0.296-0.411-0.296-0.8c0-0.39,0.137-0.678,0.412-0.864c0.274-0.187,0.617-0.28,1.027-0.28
			c0.325,0,0.733,0.037,1.225,0.112l0.224,0.04l-0.016,0.512C150.965,82.34,150.498,82.297,150.157,82.297z"/>
		<path fill="#4D4D4D" d="M154.117,81.761c0.176,0,0.475,0.032,0.896,0.096l0.192,0.024l-0.024,0.488
			c-0.427-0.048-0.741-0.072-0.943-0.072c-0.454,0-0.762,0.108-0.925,0.324c-0.162,0.216-0.243,0.616-0.243,1.2
			s0.075,0.99,0.228,1.22s0.468,0.344,0.948,0.344l0.943-0.072l0.024,0.496c-0.496,0.075-0.867,0.112-1.112,0.112
			c-0.624,0-1.055-0.16-1.292-0.48c-0.237-0.319-0.355-0.859-0.355-1.619c0-0.761,0.128-1.294,0.384-1.601
			S153.52,81.761,154.117,81.761z"/>
		<path fill="#4D4D4D" d="M156.709,85.841h-0.6v-5.744h0.6v1.968c0.427-0.202,0.838-0.304,1.232-0.304
			c0.533,0,0.892,0.145,1.076,0.432c0.184,0.288,0.275,0.801,0.275,1.536v2.112h-0.6v-2.096c0-0.555-0.055-0.935-0.164-1.141
			c-0.109-0.205-0.34-0.308-0.692-0.308c-0.336,0-0.661,0.062-0.976,0.184l-0.152,0.057V85.841z"/>
		<path fill="#4D4D4D" d="M160.405,80.937v-0.695h0.6v0.695H160.405z M160.405,85.841v-4h0.6v4H160.405z"/>
		<path fill="#4D4D4D" d="M163.653,81.761c0.176,0,0.475,0.032,0.896,0.096l0.192,0.024l-0.024,0.488
			c-0.427-0.048-0.741-0.072-0.943-0.072c-0.454,0-0.762,0.108-0.925,0.324c-0.162,0.216-0.243,0.616-0.243,1.2
			s0.075,0.99,0.228,1.22s0.468,0.344,0.948,0.344l0.943-0.072l0.024,0.496c-0.496,0.075-0.867,0.112-1.112,0.112
			c-0.624,0-1.055-0.16-1.292-0.48c-0.237-0.319-0.355-0.859-0.355-1.619c0-0.761,0.128-1.294,0.384-1.601
			S163.056,81.761,163.653,81.761z"/>
		<path fill="#4D4D4D" d="M166.245,85.841h-0.6v-5.744h0.6v1.968c0.427-0.202,0.838-0.304,1.232-0.304
			c0.533,0,0.892,0.145,1.076,0.432c0.184,0.288,0.275,0.801,0.275,1.536v2.112h-0.6v-2.096c0-0.555-0.055-0.935-0.164-1.141
			c-0.109-0.205-0.34-0.308-0.692-0.308c-0.336,0-0.661,0.062-0.976,0.184l-0.152,0.057V85.841z"/>
		<path fill="#4D4D4D" d="M171.989,82.36h-1.272v1.912c0,0.459,0.033,0.761,0.1,0.904c0.067,0.145,0.226,0.216,0.477,0.216
			l0.712-0.048l0.04,0.496c-0.357,0.059-0.63,0.088-0.816,0.088c-0.416,0-0.704-0.102-0.863-0.304c-0.16-0.203-0.24-0.59-0.24-1.16
			V82.36h-0.568v-0.52h0.568v-1.224h0.592v1.224h1.272V82.36z"/>
		<path fill="#4D4D4D" d="M175.222,81.841h0.6v4h-0.6v-0.28c-0.4,0.24-0.795,0.36-1.185,0.36c-0.544,0-0.905-0.142-1.084-0.424
			c-0.179-0.283-0.268-0.806-0.268-1.568v-2.088h0.6v2.08c0,0.581,0.051,0.971,0.152,1.168s0.33,0.296,0.688,0.296
			c0.177,0,0.355-0.025,0.536-0.076c0.182-0.051,0.32-0.1,0.416-0.147l0.145-0.072V81.841z"/>
		<path fill="#4D4D4D" d="M177.572,85.841h-0.6v-4h0.592v0.28c0.432-0.24,0.846-0.36,1.24-0.36c0.533,0,0.892,0.145,1.076,0.432
			c0.184,0.288,0.275,0.801,0.275,1.536v2.112h-0.592v-2.096c0-0.555-0.055-0.935-0.164-1.141c-0.109-0.205-0.343-0.308-0.7-0.308
			c-0.171,0-0.351,0.025-0.54,0.076s-0.334,0.1-0.436,0.147l-0.152,0.072V85.841z"/>
		<path fill="#4D4D4D" d="M182.812,87.721c-0.64,0-1.087-0.087-1.34-0.26c-0.254-0.174-0.38-0.489-0.38-0.948
			c0-0.219,0.048-0.396,0.144-0.532c0.096-0.136,0.259-0.289,0.488-0.46c-0.149-0.101-0.225-0.285-0.225-0.552
			c0-0.091,0.067-0.259,0.2-0.504l0.072-0.128c-0.422-0.192-0.632-0.595-0.632-1.208c0-0.912,0.498-1.368,1.496-1.368
			c0.256,0,0.493,0.026,0.712,0.08l0.12,0.024l1.184-0.032v0.512l-0.76-0.016c0.176,0.176,0.264,0.442,0.264,0.8
			c0,0.501-0.124,0.852-0.372,1.052s-0.639,0.3-1.172,0.3c-0.144,0-0.274-0.011-0.392-0.031c-0.097,0.234-0.145,0.387-0.145,0.456
			c0,0.165,0.051,0.268,0.152,0.308s0.408,0.06,0.92,0.06s0.88,0.08,1.104,0.24c0.225,0.16,0.337,0.472,0.337,0.937
			C184.589,87.297,183.996,87.721,182.812,87.721z M181.685,86.465c0,0.282,0.078,0.479,0.235,0.588s0.448,0.164,0.872,0.164
			c0.425,0,0.729-0.059,0.912-0.176c0.185-0.117,0.276-0.313,0.276-0.588c0-0.275-0.066-0.452-0.2-0.532
			c-0.133-0.08-0.395-0.12-0.784-0.12l-0.863-0.04c-0.177,0.128-0.295,0.24-0.356,0.336S181.685,86.315,181.685,86.465z
			 M181.74,83.129c0,0.314,0.07,0.539,0.212,0.672c0.142,0.134,0.375,0.2,0.7,0.2s0.558-0.066,0.696-0.2
			c0.139-0.133,0.208-0.358,0.208-0.676s-0.069-0.543-0.208-0.676c-0.139-0.134-0.371-0.2-0.696-0.2s-0.559,0.067-0.7,0.204
			C181.811,82.589,181.74,82.814,181.74,83.129z"/>
	</g>
</g>
<rect x="3.747" y="32.997" fill="none" stroke="#01B7FA" stroke-miterlimit="10" width="18.753" height="18.753"/>
<rect x="25.756" y="32.997" fill="none" stroke="#01B7FA" stroke-miterlimit="10" width="18.753" height="18.753"/>
<rect x="48.34" y="32.997" fill="none" stroke="#01B7FA" stroke-miterlimit="10" width="18.753" height="18.753"/>
<rect x="70.923" y="32.997" fill="none" stroke="#01B7FA" stroke-miterlimit="10" width="18.753" height="18.753"/>
<rect x="93.506" y="32.997" fill="none" stroke="#01B7FA" stroke-miterlimit="10" width="18.753" height="18.753"/>
<g>
	<g>
		<path fill="#4D4D4D" d="M64.665,15.141V9.604h0.616v5.536H64.665z"/>
		<path fill="#4D4D4D" d="M67.129,15.141h-0.6v-4h0.592v0.28c0.432-0.24,0.846-0.36,1.24-0.36c0.533,0,0.892,0.145,1.076,0.432
			c0.184,0.288,0.275,0.801,0.275,1.536v2.112h-0.592v-2.096c0-0.555-0.055-0.935-0.164-1.141c-0.109-0.205-0.343-0.308-0.7-0.308
			c-0.171,0-0.351,0.025-0.54,0.076s-0.334,0.1-0.436,0.147l-0.152,0.072V15.141z"/>
		<path fill="#4D4D4D" d="M70.409,11.141h0.64l0.937,3.48h0.296l0.968-3.48h0.616l-1.128,4h-1.2L70.409,11.141z"/>
		<path fill="#4D4D4D" d="M77.281,14.645l0.232-0.023l0.016,0.472c-0.608,0.085-1.128,0.128-1.56,0.128
			c-0.576,0-0.984-0.167-1.225-0.5s-0.359-0.853-0.359-1.556c0-1.403,0.557-2.104,1.672-2.104c0.538,0,0.941,0.15,1.208,0.452
			s0.399,0.774,0.399,1.42l-0.031,0.456h-2.641c0,0.442,0.08,0.771,0.24,0.984c0.16,0.213,0.438,0.319,0.836,0.319
			S76.87,14.677,77.281,14.645z M77.065,12.908c0-0.49-0.079-0.837-0.236-1.04c-0.157-0.202-0.413-0.304-0.768-0.304
			s-0.621,0.106-0.8,0.32c-0.179,0.213-0.271,0.555-0.276,1.023H77.065z"/>
		<path fill="#4D4D4D" d="M79.857,11.597c-0.581,0-0.872,0.203-0.872,0.608c0,0.187,0.066,0.318,0.2,0.396
			c0.133,0.077,0.438,0.157,0.912,0.24s0.811,0.198,1.008,0.348s0.296,0.43,0.296,0.84c0,0.411-0.132,0.712-0.396,0.904
			c-0.265,0.192-0.649,0.288-1.156,0.288c-0.331,0-0.721-0.037-1.168-0.112l-0.24-0.04l0.032-0.52
			c0.607,0.091,1.066,0.136,1.376,0.136c0.309,0,0.545-0.049,0.708-0.147c0.162-0.099,0.244-0.265,0.244-0.496
			c0-0.232-0.069-0.39-0.208-0.473c-0.139-0.082-0.443-0.161-0.912-0.235c-0.47-0.075-0.803-0.185-1-0.328
			c-0.197-0.145-0.296-0.411-0.296-0.8c0-0.39,0.137-0.678,0.412-0.864c0.274-0.187,0.617-0.28,1.027-0.28
			c0.325,0,0.733,0.037,1.225,0.112l0.224,0.04l-0.016,0.512C80.665,11.64,80.198,11.597,79.857,11.597z"/>
		<path fill="#4D4D4D" d="M84.394,11.66h-1.272v1.912c0,0.459,0.033,0.761,0.1,0.904c0.067,0.145,0.226,0.216,0.477,0.216
			l0.712-0.048l0.04,0.496c-0.357,0.059-0.63,0.088-0.816,0.088c-0.416,0-0.704-0.102-0.863-0.304c-0.16-0.203-0.24-0.59-0.24-1.16
			V11.66h-0.568v-0.52h0.568V9.917h0.592v1.224h1.272V11.66z"/>
		<path fill="#4D4D4D" d="M85.129,10.236V9.541h0.6v0.695H85.129z M85.129,15.141v-4h0.6v4H85.129z"/>
		<path fill="#4D4D4D" d="M88.953,11.66h-1.272v1.912c0,0.459,0.033,0.761,0.1,0.904c0.067,0.145,0.226,0.216,0.477,0.216
			l0.712-0.048l0.04,0.496c-0.357,0.059-0.63,0.088-0.816,0.088c-0.416,0-0.704-0.102-0.863-0.304c-0.16-0.203-0.24-0.59-0.24-1.16
			V11.66h-0.568v-0.52h0.568V9.917h0.592v1.224h1.272V11.66z"/>
		<path fill="#4D4D4D" d="M89.689,10.236V9.541h0.6v0.695H89.689z M89.689,15.141v-4h0.6v4H89.689z"/>
		<path fill="#4D4D4D" d="M91.266,13.133c0-0.73,0.13-1.259,0.392-1.584s0.702-0.488,1.324-0.488c0.621,0,1.062,0.163,1.319,0.488
			c0.259,0.325,0.389,0.854,0.389,1.584s-0.123,1.261-0.368,1.592s-0.693,0.496-1.344,0.496c-0.651,0-1.099-0.165-1.345-0.496
			C91.388,14.394,91.266,13.863,91.266,13.133z M91.881,13.121c0,0.584,0.071,0.993,0.212,1.228
			c0.142,0.234,0.438,0.352,0.889,0.352c0.45,0,0.745-0.115,0.884-0.348c0.139-0.231,0.208-0.642,0.208-1.228
			c0-0.587-0.077-0.991-0.232-1.212c-0.154-0.222-0.441-0.332-0.859-0.332c-0.419,0-0.707,0.11-0.864,0.332
			C91.96,12.134,91.881,12.537,91.881,13.121z"/>
		<path fill="#4D4D4D" d="M96.265,15.141h-0.6v-4h0.592v0.28c0.432-0.24,0.846-0.36,1.24-0.36c0.533,0,0.892,0.145,1.076,0.432
			c0.184,0.288,0.275,0.801,0.275,1.536v2.112h-0.592v-2.096c0-0.555-0.055-0.935-0.164-1.141c-0.109-0.205-0.343-0.308-0.7-0.308
			c-0.171,0-0.351,0.025-0.54,0.076s-0.334,0.1-0.436,0.147l-0.152,0.072V15.141z"/>
		<path fill="#4D4D4D" d="M101.721,10.236V9.541h0.6v0.695H101.721z M101.721,15.141v-4h0.6v4H101.721z"/>
		<path fill="#4D4D4D" d="M104.072,15.141h-0.6v-4h0.592v0.28c0.432-0.24,0.846-0.36,1.24-0.36c0.533,0,0.892,0.145,1.076,0.432
			c0.184,0.288,0.275,0.801,0.275,1.536v2.112h-0.592v-2.096c0-0.555-0.055-0.935-0.164-1.141c-0.109-0.205-0.343-0.308-0.7-0.308
			c-0.171,0-0.351,0.025-0.54,0.076s-0.334,0.1-0.436,0.147l-0.152,0.072V15.141z"/>
		<path fill="#4D4D4D" d="M110.296,11.66v3.48h-0.6v-3.48h-0.504v-0.52h0.504v-0.36c0-0.564,0.08-0.95,0.24-1.155
			c0.159-0.206,0.439-0.309,0.84-0.309l0.808,0.057l-0.008,0.495c-0.299-0.01-0.545-0.016-0.74-0.016
			c-0.194,0-0.333,0.064-0.416,0.192s-0.124,0.376-0.124,0.744v0.352h1.16v0.52H110.296z"/>
		<path fill="#4D4D4D" d="M115.272,11.141v4h-0.6v-0.28l-0.168,0.088c-0.112,0.064-0.267,0.126-0.464,0.185
			c-0.198,0.059-0.382,0.088-0.553,0.088c-0.544,0-0.905-0.142-1.084-0.424c-0.179-0.283-0.268-0.806-0.268-1.568v-2.088h0.6v2.08
			c0,0.581,0.051,0.971,0.152,1.168s0.34,0.296,0.716,0.296s0.732-0.099,1.068-0.296v-3.248H115.272z M112.656,10.173V9.452h0.576
			v0.721H112.656z M114.257,10.173V9.452h0.584v0.721H114.257z"/>
		<path fill="#4D4D4D" d="M117.024,15.141h-0.6v-4h0.592v0.28c0.432-0.24,0.846-0.36,1.24-0.36c0.533,0,0.892,0.145,1.076,0.432
			c0.184,0.288,0.275,0.801,0.275,1.536v2.112h-0.592v-2.096c0-0.555-0.055-0.935-0.164-1.141c-0.109-0.205-0.343-0.308-0.7-0.308
			c-0.171,0-0.351,0.025-0.54,0.076s-0.334,0.1-0.436,0.147l-0.152,0.072V15.141z"/>
		<path fill="#4D4D4D" d="M121.488,11.66v3.48h-0.6v-3.48h-0.504v-0.52h0.504v-0.36c0-0.564,0.08-0.95,0.24-1.155
			c0.159-0.206,0.439-0.309,0.84-0.309l0.808,0.057l-0.008,0.495c-0.299-0.01-0.545-0.016-0.74-0.016
			c-0.194,0-0.333,0.064-0.416,0.192s-0.124,0.376-0.124,0.744v0.352h1.16v0.52H121.488z"/>
		<path fill="#4D4D4D" d="M66.105,26.62c-0.64,0-1.087-0.087-1.34-0.26c-0.254-0.174-0.38-0.489-0.38-0.948
			c0-0.219,0.048-0.396,0.144-0.532c0.096-0.136,0.259-0.289,0.488-0.46c-0.149-0.101-0.225-0.285-0.225-0.552
			c0-0.091,0.067-0.259,0.2-0.504l0.072-0.128c-0.422-0.192-0.632-0.595-0.632-1.208c0-0.912,0.498-1.368,1.496-1.368
			c0.256,0,0.493,0.026,0.712,0.08l0.12,0.024l1.184-0.032v0.512l-0.76-0.016c0.176,0.176,0.264,0.442,0.264,0.8
			c0,0.501-0.124,0.852-0.372,1.052s-0.639,0.3-1.172,0.3c-0.144,0-0.274-0.011-0.392-0.031c-0.097,0.234-0.145,0.387-0.145,0.456
			c0,0.165,0.051,0.268,0.152,0.308s0.408,0.06,0.92,0.06s0.88,0.08,1.104,0.24c0.225,0.16,0.337,0.472,0.337,0.937
			C67.882,26.196,67.289,26.62,66.105,26.62z M64.978,25.364c0,0.282,0.078,0.479,0.235,0.588s0.448,0.164,0.872,0.164
			c0.425,0,0.729-0.059,0.912-0.176c0.185-0.117,0.276-0.313,0.276-0.588c0-0.275-0.066-0.452-0.2-0.532
			c-0.133-0.08-0.395-0.12-0.784-0.12l-0.863-0.04c-0.177,0.128-0.295,0.24-0.356,0.336S64.978,25.215,64.978,25.364z
			 M65.033,22.028c0,0.314,0.07,0.539,0.212,0.672c0.142,0.134,0.375,0.2,0.7,0.2s0.558-0.066,0.696-0.2
			c0.139-0.133,0.208-0.358,0.208-0.676s-0.069-0.543-0.208-0.676c-0.139-0.134-0.371-0.2-0.696-0.2s-0.559,0.067-0.7,0.204
			C65.104,21.488,65.033,21.714,65.033,22.028z"/>
		<path fill="#4D4D4D" d="M68.722,24.74v-5.744h0.6v5.744H68.722z"/>
		<path fill="#4D4D4D" d="M73.241,24.244l0.232-0.023l0.016,0.472c-0.608,0.085-1.128,0.128-1.56,0.128
			c-0.576,0-0.984-0.167-1.225-0.5s-0.359-0.853-0.359-1.556c0-1.403,0.557-2.104,1.672-2.104c0.538,0,0.941,0.15,1.208,0.452
			s0.399,0.774,0.399,1.42l-0.031,0.456h-2.641c0,0.442,0.08,0.771,0.24,0.984c0.16,0.213,0.438,0.319,0.836,0.319
			S72.83,24.276,73.241,24.244z M73.025,22.508c0-0.49-0.079-0.837-0.236-1.04c-0.157-0.202-0.413-0.304-0.768-0.304
			s-0.621,0.106-0.8,0.32c-0.179,0.213-0.271,0.555-0.276,1.023H73.025z"/>
		<path fill="#4D4D4D" d="M74.562,19.836v-0.695h0.6v0.695H74.562z M74.562,24.74v-4h0.6v4H74.562z"/>
		<path fill="#4D4D4D" d="M77.81,20.66c0.176,0,0.475,0.032,0.896,0.096l0.192,0.024l-0.024,0.488
			c-0.427-0.048-0.741-0.072-0.943-0.072c-0.454,0-0.762,0.108-0.925,0.324c-0.162,0.216-0.243,0.616-0.243,1.2
			s0.075,0.99,0.228,1.22s0.468,0.344,0.948,0.344l0.943-0.072l0.024,0.496c-0.496,0.075-0.867,0.112-1.112,0.112
			c-0.624,0-1.055-0.16-1.292-0.48c-0.237-0.319-0.355-0.859-0.355-1.619c0-0.761,0.128-1.294,0.384-1.601S77.212,20.66,77.81,20.66
			z"/>
		<path fill="#4D4D4D" d="M80.4,24.74h-0.6v-5.744h0.6v1.968c0.427-0.202,0.838-0.304,1.232-0.304c0.533,0,0.892,0.145,1.076,0.432
			c0.184,0.288,0.275,0.801,0.275,1.536v2.112h-0.6v-2.096c0-0.555-0.055-0.935-0.164-1.141c-0.109-0.205-0.34-0.308-0.692-0.308
			c-0.336,0-0.661,0.062-0.976,0.184L80.4,21.437V24.74z"/>
		<path fill="#4D4D4D" d="M86.816,24.244l0.232-0.023l0.016,0.472c-0.608,0.085-1.128,0.128-1.56,0.128
			c-0.576,0-0.984-0.167-1.225-0.5s-0.359-0.853-0.359-1.556c0-1.403,0.557-2.104,1.672-2.104c0.538,0,0.941,0.15,1.208,0.452
			s0.399,0.774,0.399,1.42l-0.031,0.456h-2.641c0,0.442,0.08,0.771,0.24,0.984c0.16,0.213,0.438,0.319,0.836,0.319
			S86.405,24.276,86.816,24.244z M86.601,22.508c0-0.49-0.079-0.837-0.236-1.04c-0.157-0.202-0.413-0.304-0.768-0.304
			s-0.621,0.106-0.8,0.32c-0.179,0.213-0.271,0.555-0.276,1.023H86.601z"/>
		<path fill="#4D4D4D" d="M89.424,19.756v-0.552h4v0.552h-1.688v4.984h-0.608v-4.984H89.424z"/>
		<path fill="#4D4D4D" d="M96.097,24.244l0.232-0.023l0.016,0.472c-0.608,0.085-1.128,0.128-1.56,0.128
			c-0.576,0-0.984-0.167-1.225-0.5s-0.359-0.853-0.359-1.556c0-1.403,0.557-2.104,1.672-2.104c0.538,0,0.941,0.15,1.208,0.452
			s0.399,0.774,0.399,1.42l-0.031,0.456h-2.641c0,0.442,0.08,0.771,0.24,0.984c0.16,0.213,0.438,0.319,0.836,0.319
			S95.686,24.276,96.097,24.244z M95.881,22.508c0-0.49-0.079-0.837-0.236-1.04c-0.157-0.202-0.413-0.304-0.768-0.304
			s-0.621,0.106-0.8,0.32c-0.179,0.213-0.271,0.555-0.276,1.023H95.881z"/>
		<path fill="#4D4D4D" d="M97.417,19.836v-0.695h0.6v0.695H97.417z M97.417,24.74v-4h0.6v4H97.417z"/>
		<path fill="#4D4D4D" d="M99.217,24.74v-5.744h0.6v5.744H99.217z"/>
		<path fill="#4D4D4D" d="M103.736,24.244l0.232-0.023l0.016,0.472c-0.608,0.085-1.128,0.128-1.56,0.128
			c-0.576,0-0.984-0.167-1.225-0.5s-0.359-0.853-0.359-1.556c0-1.403,0.557-2.104,1.672-2.104c0.538,0,0.941,0.15,1.208,0.452
			s0.399,0.774,0.399,1.42l-0.031,0.456h-2.641c0,0.442,0.08,0.771,0.24,0.984c0.16,0.213,0.438,0.319,0.836,0.319
			S103.325,24.276,103.736,24.244z M103.521,22.508c0-0.49-0.079-0.837-0.236-1.04c-0.157-0.202-0.413-0.304-0.768-0.304
			s-0.621,0.106-0.8,0.32c-0.179,0.213-0.271,0.555-0.276,1.023H103.521z"/>
	</g>
</g>
<g>
	<path fill="#4D4D4D" d="M7.668,55.012c-1.201,0-1.951,0.615-2.248,1.846h2.881v0.591h-2.96L5.329,57.71v0.293l0.011,0.206h2.616
		v0.591H5.431c0.139,0.55,0.4,0.975,0.782,1.276c0.382,0.301,0.894,0.451,1.534,0.451c0.588,0,1.17-0.101,1.746-0.302v0.687
		c-0.55,0.199-1.147,0.298-1.791,0.298c-0.893,0-1.611-0.205-2.155-0.616c-0.544-0.411-0.903-1.008-1.076-1.793H3.533V58.21h0.859
		L4.38,58.017v-0.202l0.011-0.366H3.533v-0.591h0.926c0.147-0.797,0.495-1.419,1.045-1.865c0.55-0.446,1.271-0.669,2.164-0.669
		c0.757,0,1.446,0.148,2.068,0.444l-0.401,0.637C8.71,55.144,8.154,55.012,7.668,55.012z"/>
</g>
<g>
	<path fill="#4D4D4D" d="M30.085,55.012c-1.201,0-1.951,0.615-2.248,1.846h2.881v0.591h-2.96l-0.011,0.261v0.293l0.011,0.206h2.616
		v0.591h-2.525c0.139,0.55,0.4,0.975,0.782,1.276c0.382,0.301,0.894,0.451,1.534,0.451c0.588,0,1.17-0.101,1.746-0.302v0.687
		c-0.55,0.199-1.147,0.298-1.791,0.298c-0.893,0-1.611-0.205-2.155-0.616c-0.544-0.411-0.903-1.008-1.076-1.793H25.95V58.21h0.859
		l-0.011-0.192v-0.202l0.011-0.366H25.95v-0.591h0.926c0.147-0.797,0.495-1.419,1.045-1.865c0.55-0.446,1.271-0.669,2.164-0.669
		c0.757,0,1.446,0.148,2.068,0.444l-0.401,0.637C31.127,55.144,30.571,55.012,30.085,55.012z"/>
</g>
<g>
	<path fill="#4D4D4D" d="M52.647,55.012c-1.201,0-1.951,0.615-2.248,1.846h2.881v0.591h-2.96l-0.011,0.261v0.293l0.011,0.206h2.616
		v0.591H50.41c0.139,0.55,0.4,0.975,0.782,1.276c0.382,0.301,0.894,0.451,1.534,0.451c0.588,0,1.17-0.101,1.746-0.302v0.687
		c-0.55,0.199-1.147,0.298-1.791,0.298c-0.893,0-1.611-0.205-2.155-0.616c-0.544-0.411-0.903-1.008-1.076-1.793h-0.938V58.21h0.859
		l-0.011-0.192v-0.202l0.011-0.366h-0.859v-0.591h0.926c0.147-0.797,0.495-1.419,1.045-1.865c0.55-0.446,1.271-0.669,2.164-0.669
		c0.757,0,1.446,0.148,2.068,0.444l-0.401,0.637C53.689,55.144,53.133,55.012,52.647,55.012z"/>
</g>
<g>
	<path fill="#4D4D4D" d="M75.282,55.012c-1.201,0-1.951,0.615-2.248,1.846h2.881v0.591h-2.96l-0.011,0.261v0.293l0.011,0.206h2.616
		v0.591h-2.525c0.139,0.55,0.4,0.975,0.782,1.276c0.382,0.301,0.894,0.451,1.534,0.451c0.588,0,1.17-0.101,1.746-0.302v0.687
		c-0.55,0.199-1.147,0.298-1.791,0.298c-0.893,0-1.611-0.205-2.155-0.616c-0.544-0.411-0.903-1.008-1.076-1.793h-0.938V58.21h0.859
		l-0.011-0.192v-0.202l0.011-0.366h-0.859v-0.591h0.926c0.147-0.797,0.495-1.419,1.045-1.865c0.55-0.446,1.271-0.669,2.164-0.669
		c0.757,0,1.446,0.148,2.068,0.444l-0.401,0.637C76.323,55.144,75.768,55.012,75.282,55.012z"/>
</g>
<g>
	<path fill="#4D4D4D" d="M97.554,55.012c-1.201,0-1.951,0.615-2.248,1.846h2.881v0.591h-2.96l-0.011,0.261v0.293l0.011,0.206h2.616
		v0.591h-2.525c0.139,0.55,0.4,0.975,0.782,1.276c0.382,0.301,0.894,0.451,1.534,0.451c0.588,0,1.17-0.101,1.746-0.302v0.687
		c-0.55,0.199-1.147,0.298-1.791,0.298c-0.893,0-1.611-0.205-2.155-0.616c-0.544-0.411-0.903-1.008-1.076-1.793h-0.938V58.21h0.859
		l-0.011-0.192v-0.202l0.011-0.366h-0.859v-0.591h0.926c0.147-0.797,0.495-1.419,1.045-1.865c0.55-0.446,1.271-0.669,2.164-0.669
		c0.757,0,1.446,0.148,2.068,0.444l-0.401,0.637C98.596,55.144,98.04,55.012,97.554,55.012z"/>
</g>
<polyline fill="none" stroke="#01B7FA" stroke-miterlimit="10" points="3.688,35.359 8.75,41.917 11.667,40.417 18.417,47 
	19.833,45.917 22.547,49.359 "/>
<polyline fill="none" stroke="#01B7FA" stroke-miterlimit="10" points="25.688,35.359 30.75,41.917 33.667,40.417 40.417,47 
	41.833,45.917 44.547,49.359 "/>
<polyline fill="none" stroke="#01B7FA" stroke-miterlimit="10" points="48.25,35.359 53.312,41.917 56.229,40.417 62.979,47 
	64.396,45.917 67.109,49.359 "/>
<polyline fill="none" stroke="#01B7FA" stroke-miterlimit="10" points="70.844,35.359 75.906,41.917 78.823,40.417 85.573,47 
	86.99,45.917 89.703,49.359 "/>
<polyline fill="none" stroke="#01B7FA" stroke-miterlimit="10" points="93.375,35.359 98.438,41.917 101.354,40.417 108.104,47 
	109.521,45.917 112.234,49.359 "/>
<rect x="3.747" y="93.831" fill="none" stroke="#01B7FA" stroke-miterlimit="10" width="18.753" height="18.753"/>
<rect x="25.756" y="93.831" fill="none" stroke="#01B7FA" stroke-miterlimit="10" width="18.753" height="18.753"/>
<rect x="48.34" y="93.831" fill="none" stroke="#01B7FA" stroke-miterlimit="10" width="18.753" height="18.753"/>
<rect x="70.923" y="93.831" fill="none" stroke="#01B7FA" stroke-miterlimit="10" width="18.753" height="18.753"/>
<rect x="93.506" y="93.831" fill="none" stroke="#01B7FA" stroke-miterlimit="10" width="18.753" height="18.753"/>
<g>
	<path fill="#4D4D4D" d="M7.668,115.846c-1.201,0-1.951,0.615-2.248,1.846h2.881v0.591h-2.96l-0.011,0.261v0.293l0.011,0.206h2.616
		v0.591H5.431c0.139,0.55,0.4,0.975,0.782,1.276c0.382,0.301,0.894,0.451,1.534,0.451c0.588,0,1.17-0.101,1.746-0.302v0.687
		c-0.55,0.199-1.147,0.298-1.791,0.298c-0.893,0-1.611-0.205-2.155-0.616c-0.544-0.411-0.903-1.008-1.076-1.793H3.533v-0.591h0.859
		l-0.011-0.192v-0.202l0.011-0.366H3.533v-0.591h0.926c0.147-0.797,0.495-1.419,1.045-1.865c0.55-0.446,1.271-0.669,2.164-0.669
		c0.757,0,1.446,0.148,2.068,0.444l-0.401,0.637C8.71,115.977,8.154,115.846,7.668,115.846z"/>
</g>
<g>
	<path fill="#4D4D4D" d="M30.085,115.846c-1.201,0-1.951,0.615-2.248,1.846h2.881v0.591h-2.96l-0.011,0.261v0.293l0.011,0.206h2.616
		v0.591h-2.525c0.139,0.55,0.4,0.975,0.782,1.276c0.382,0.301,0.894,0.451,1.534,0.451c0.588,0,1.17-0.101,1.746-0.302v0.687
		c-0.55,0.199-1.147,0.298-1.791,0.298c-0.893,0-1.611-0.205-2.155-0.616c-0.544-0.411-0.903-1.008-1.076-1.793H25.95v-0.591h0.859
		l-0.011-0.192v-0.202l0.011-0.366H25.95v-0.591h0.926c0.147-0.797,0.495-1.419,1.045-1.865c0.55-0.446,1.271-0.669,2.164-0.669
		c0.757,0,1.446,0.148,2.068,0.444l-0.401,0.637C31.127,115.977,30.571,115.846,30.085,115.846z"/>
</g>
<g>
	<path fill="#4D4D4D" d="M52.647,115.846c-1.201,0-1.951,0.615-2.248,1.846h2.881v0.591h-2.96l-0.011,0.261v0.293l0.011,0.206h2.616
		v0.591H50.41c0.139,0.55,0.4,0.975,0.782,1.276c0.382,0.301,0.894,0.451,1.534,0.451c0.588,0,1.17-0.101,1.746-0.302v0.687
		c-0.55,0.199-1.147,0.298-1.791,0.298c-0.893,0-1.611-0.205-2.155-0.616c-0.544-0.411-0.903-1.008-1.076-1.793h-0.938v-0.591h0.859
		l-0.011-0.192v-0.202l0.011-0.366h-0.859v-0.591h0.926c0.147-0.797,0.495-1.419,1.045-1.865c0.55-0.446,1.271-0.669,2.164-0.669
		c0.757,0,1.446,0.148,2.068,0.444l-0.401,0.637C53.689,115.977,53.133,115.846,52.647,115.846z"/>
</g>
<g>
	<path fill="#4D4D4D" d="M75.282,115.846c-1.201,0-1.951,0.615-2.248,1.846h2.881v0.591h-2.96l-0.011,0.261v0.293l0.011,0.206h2.616
		v0.591h-2.525c0.139,0.55,0.4,0.975,0.782,1.276c0.382,0.301,0.894,0.451,1.534,0.451c0.588,0,1.17-0.101,1.746-0.302v0.687
		c-0.55,0.199-1.147,0.298-1.791,0.298c-0.893,0-1.611-0.205-2.155-0.616c-0.544-0.411-0.903-1.008-1.076-1.793h-0.938v-0.591h0.859
		l-0.011-0.192v-0.202l0.011-0.366h-0.859v-0.591h0.926c0.147-0.797,0.495-1.419,1.045-1.865c0.55-0.446,1.271-0.669,2.164-0.669
		c0.757,0,1.446,0.148,2.068,0.444l-0.401,0.637C76.323,115.977,75.768,115.846,75.282,115.846z"/>
</g>
<g>
	<path fill="#4D4D4D" d="M97.554,115.846c-1.201,0-1.951,0.615-2.248,1.846h2.881v0.591h-2.96l-0.011,0.261v0.293l0.011,0.206h2.616
		v0.591h-2.525c0.139,0.55,0.4,0.975,0.782,1.276c0.382,0.301,0.894,0.451,1.534,0.451c0.588,0,1.17-0.101,1.746-0.302v0.687
		c-0.55,0.199-1.147,0.298-1.791,0.298c-0.893,0-1.611-0.205-2.155-0.616c-0.544-0.411-0.903-1.008-1.076-1.793h-0.938v-0.591h0.859
		l-0.011-0.192v-0.202l0.011-0.366h-0.859v-0.591h0.926c0.147-0.797,0.495-1.419,1.045-1.865c0.55-0.446,1.271-0.669,2.164-0.669
		c0.757,0,1.446,0.148,2.068,0.444l-0.401,0.637C98.596,115.977,98.04,115.846,97.554,115.846z"/>
</g>
<polyline fill="none" stroke="#01B7FA" stroke-miterlimit="10" points="3.688,110.221 8.75,103.664 11.667,105.164 18.417,98.581 
	19.833,99.664 22.547,96.221 "/>
<polyline fill="none" stroke="#01B7FA" stroke-miterlimit="10" points="25.688,110.221 30.75,103.664 33.667,105.164 40.417,98.581 
	41.833,99.664 44.547,96.221 "/>
<polyline fill="none" stroke="#01B7FA" stroke-miterlimit="10" points="48.25,110.221 53.312,103.664 56.229,105.164 62.979,98.581 
	64.396,99.664 67.109,96.221 "/>
<polyline fill="none" stroke="#01B7FA" stroke-miterlimit="10" points="70.844,110.221 75.906,103.664 78.823,105.164 
	85.573,98.581 86.99,99.664 89.703,96.221 "/>
<polyline fill="none" stroke="#01B7FA" stroke-miterlimit="10" points="93.375,110.221 98.438,103.664 101.354,105.164 
	108.104,98.581 109.521,99.664 112.234,96.221 "/>
<g>
	<path fill="#4D4D4D" d="M55.095,158.182c-5.974,0-9.701,3.059-11.18,9.179h14.327v2.938h-14.72l-0.056,1.298v1.458l0.056,1.025
		h13.007v2.939H43.971c0.693,2.733,1.99,4.848,3.891,6.343c1.901,1.496,4.443,2.244,7.627,2.244c2.922,0,5.815-0.502,8.681-1.504
		v3.417c-2.735,0.988-5.703,1.481-8.905,1.481c-4.438,0-8.01-1.021-10.717-3.064c-2.706-2.042-4.49-5.014-5.351-8.917h-4.663v-2.939
		h4.269l-0.056-0.956v-1.002l0.056-1.822h-4.269v-2.938h4.607c0.73-3.963,2.463-7.053,5.197-9.271
		c2.734-2.216,6.321-3.325,10.759-3.325c3.765,0,7.192,0.737,10.282,2.209l-1.995,3.166
		C60.273,158.835,57.512,158.182,55.095,158.182z"/>
</g>
<g>
	<path fill="#4D4D4D" d="M17.889,3.234c-4.171,0-6.773,2.136-7.805,6.409h10.002v2.051H9.809l-0.039,0.906v1.018l0.039,0.715h9.081
		v2.052h-8.767c0.483,1.908,1.389,3.384,2.716,4.429c1.327,1.045,3.102,1.567,5.325,1.567c2.04,0,4.06-0.35,6.06-1.05v2.385
		c-1.909,0.69-3.981,1.034-6.217,1.034c-3.099,0-5.593-0.713-7.482-2.139c-1.89-1.426-3.135-3.501-3.736-6.225H3.533v-2.052h2.981
		l-0.039-0.668v-0.7l0.039-1.272H3.533V9.643h3.216c0.51-2.767,1.719-4.924,3.628-6.473c1.909-1.547,4.413-2.321,7.511-2.321
		c2.628,0,5.021,0.514,7.178,1.543l-1.393,2.211C21.504,3.69,19.576,3.234,17.889,3.234z"/>
</g>
<g>
	<polyline fill="none" stroke="#4D4D4D" stroke-miterlimit="10" points="36.167,8.835 53.592,8.835 53.592,18.75 	"/>
	<polygon fill="#4D4D4D" points="53.717,24.621 48.434,15.47 59,15.47 	"/>
</g>
<g>
	<polyline fill="none" stroke="#4D4D4D" stroke-miterlimit="10" points="189.915,60.167 189.915,101.57 180,101.57 	"/>
	<polygon fill="#4D4D4D" points="174.129,101.695 183.279,96.412 183.279,106.978 	"/>
</g>
<g>
	<line fill="none" stroke="#4D4D4D" stroke-miterlimit="10" x1="53.75" y1="80.25" x2="53.75" y2="67.208"/>
	<polygon fill="#4D4D4D" points="53.625,86.121 58.908,76.971 48.342,76.971 	"/>
</g>
<g>
	<line fill="none" stroke="#4D4D4D" stroke-miterlimit="10" x1="53.75" y1="142.25" x2="53.75" y2="129.208"/>
	<polygon fill="#4D4D4D" points="53.625,148.121 58.908,138.971 48.342,138.971 	"/>
</g>
</svg>
