<?xml version="1.0" encoding="utf-8"?>
<!-- Generator: Adobe Illustrator 21.1.0, SVG Export Plug-In . SVG Version: 6.00 Build 0)  -->
<svg version="1.1" id="Ebene_1" xmlns="http://www.w3.org/2000/svg" xmlns:xlink="http://www.w3.org/1999/xlink" x="0px" y="0px"
	 viewBox="0 0 200 200" enable-background="new 0 0 200 200" xml:space="preserve">
<rect x="0.333" y="0.333" fill="#FFFFFF" width="200" height="200.667"/>
<g>
	<path fill="#4D4D4D" d="M0.461,129.982v-5.536h3.312v0.544H1.077v2.16h2.28v0.544h-2.28v2.288H0.461z"/>
	<path fill="#4D4D4D" d="M4.397,129.982v-4h0.592v0.544c0.464-0.32,0.952-0.53,1.464-0.632v0.607c-0.224,0.043-0.457,0.109-0.7,0.2
		c-0.242,0.091-0.428,0.171-0.556,0.24l-0.2,0.104v2.936H4.397z"/>
	<path fill="#4D4D4D" d="M9.989,127.19v2.048c0.016,0.197,0.17,0.314,0.464,0.353l-0.024,0.472c-0.421,0-0.738-0.106-0.952-0.32
		c-0.479,0.214-0.96,0.32-1.439,0.32c-0.368,0-0.648-0.104-0.84-0.312c-0.192-0.208-0.288-0.506-0.288-0.896s0.099-0.676,0.296-0.86
		c0.197-0.184,0.507-0.297,0.928-0.34l1.256-0.12v-0.344c0-0.272-0.059-0.467-0.176-0.584s-0.277-0.176-0.48-0.176
		c-0.427,0-0.869,0.026-1.327,0.08l-0.248,0.023l-0.024-0.456c0.587-0.117,1.106-0.176,1.56-0.176c0.454,0,0.783,0.104,0.988,0.312
		S9.989,126.748,9.989,127.19z M7.524,128.822c0,0.491,0.203,0.736,0.608,0.736c0.362,0,0.72-0.062,1.072-0.185l0.184-0.063v-1.32
		l-1.184,0.112c-0.24,0.021-0.414,0.091-0.521,0.208S7.524,128.599,7.524,128.822z"/>
	<path fill="#4D4D4D" d="M11.772,129.982h-0.6v-4h0.592v0.28c0.432-0.24,0.846-0.36,1.24-0.36c0.533,0,0.892,0.145,1.076,0.432
		c0.184,0.288,0.275,0.801,0.275,1.536v2.112h-0.592v-2.096c0-0.555-0.055-0.935-0.164-1.141c-0.109-0.205-0.343-0.308-0.7-0.308
		c-0.171,0-0.351,0.025-0.54,0.076s-0.334,0.1-0.436,0.147l-0.152,0.072V129.982z"/>
	<path fill="#4D4D4D" d="M16.068,129.982h-0.6v-5.744h0.6v3.393l0.624-0.032l1.145-1.616h0.68l-1.304,1.84l1.359,2.16h-0.68
		l-1.192-1.856l-0.632,0.024V129.982z"/>
	<path fill="#4D4D4D" d="M20.068,126.502v3.48h-0.6v-3.48h-0.504v-0.52h0.504v-0.36c0-0.564,0.08-0.95,0.24-1.155
		c0.159-0.206,0.439-0.309,0.84-0.309l0.808,0.057l-0.008,0.495c-0.299-0.01-0.545-0.016-0.74-0.016
		c-0.194,0-0.333,0.064-0.416,0.192s-0.124,0.376-0.124,0.744v0.352h1.16v0.52H20.068z"/>
	<path fill="#4D4D4D" d="M24.445,125.982h0.6v4h-0.6v-0.28c-0.4,0.24-0.795,0.36-1.185,0.36c-0.544,0-0.905-0.142-1.084-0.424
		c-0.179-0.283-0.268-0.806-0.268-1.568v-2.088h0.6v2.08c0,0.581,0.051,0.971,0.152,1.168s0.33,0.296,0.688,0.296
		c0.177,0,0.355-0.025,0.536-0.076c0.182-0.051,0.32-0.1,0.416-0.147l0.145-0.072V125.982z"/>
	<path fill="#4D4D4D" d="M26.197,129.982v-4h0.592v0.544c0.464-0.32,0.952-0.53,1.464-0.632v0.607c-0.224,0.043-0.457,0.109-0.7,0.2
		c-0.242,0.091-0.428,0.171-0.556,0.24l-0.2,0.104v2.936H26.197z"/>
	<path fill="#4D4D4D" d="M31.037,126.502h-1.272v1.912c0,0.459,0.033,0.761,0.1,0.904c0.067,0.145,0.226,0.216,0.477,0.216
		l0.712-0.048l0.04,0.496c-0.357,0.059-0.63,0.088-0.816,0.088c-0.416,0-0.704-0.102-0.863-0.304c-0.16-0.203-0.24-0.59-0.24-1.16
		v-2.104h-0.568v-0.52h0.568v-1.224h0.592v1.224h1.272V126.502z"/>
</g>
<g>
	<path fill="#4D4D4D" d="M1.954,140.707c-0.601,0-0.9,0.226-0.9,0.678c0,0.252,0.069,0.425,0.207,0.519
		c0.138,0.095,0.418,0.188,0.84,0.282s0.722,0.216,0.897,0.366c0.176,0.149,0.264,0.396,0.264,0.741
		c0,0.852-0.442,1.277-1.326,1.277c-0.292,0-0.658-0.034-1.098-0.102l-0.216-0.03l0.048-0.384c0.544,0.072,0.958,0.108,1.242,0.108
		c0.592,0,0.888-0.278,0.888-0.835c0-0.224-0.065-0.385-0.195-0.482s-0.373-0.181-0.729-0.249c-0.468-0.1-0.8-0.229-0.996-0.387
		c-0.196-0.158-0.294-0.424-0.294-0.795c0-0.744,0.446-1.116,1.338-1.116c0.292,0,0.642,0.029,1.05,0.09l0.204,0.03l-0.042,0.39
		C2.58,140.74,2.186,140.707,1.954,140.707z"/>
	<path fill="#4D4D4D" d="M5.482,141.906H4.528v1.435c0,0.344,0.024,0.569,0.075,0.678c0.05,0.108,0.169,0.162,0.356,0.162
		l0.534-0.036l0.03,0.372c-0.269,0.044-0.473,0.066-0.612,0.066c-0.312,0-0.528-0.076-0.648-0.229
		c-0.119-0.152-0.18-0.441-0.18-0.87v-1.578H3.658v-0.39h0.426v-0.918h0.444v0.918h0.954V141.906z"/>
	<path fill="#4D4D4D" d="M7.905,141.517h0.45v3h-0.45v-0.21c-0.3,0.18-0.596,0.27-0.888,0.27c-0.408,0-0.679-0.105-0.813-0.317
		c-0.134-0.212-0.2-0.604-0.2-1.176v-1.566h0.449v1.56c0,0.437,0.038,0.729,0.114,0.876c0.076,0.148,0.248,0.223,0.517,0.223
		c0.132,0,0.266-0.02,0.401-0.058c0.136-0.037,0.24-0.074,0.312-0.11l0.107-0.055V141.517z"/>
	<path fill="#4D4D4D" d="M10.774,141.906H9.82v1.435c0,0.344,0.024,0.569,0.075,0.678c0.05,0.108,0.169,0.162,0.356,0.162
		l0.534-0.036l0.03,0.372c-0.269,0.044-0.473,0.066-0.612,0.066c-0.312,0-0.528-0.076-0.648-0.229
		c-0.119-0.152-0.18-0.441-0.18-0.87v-1.578H8.95v-0.39h0.426v-0.918H9.82v0.918h0.954V141.906z"/>
	<path fill="#4D4D4D" d="M12.88,141.906h-0.954v1.435c0,0.344,0.024,0.569,0.075,0.678c0.05,0.108,0.169,0.162,0.356,0.162
		l0.534-0.036l0.03,0.372c-0.269,0.044-0.473,0.066-0.612,0.066c-0.312,0-0.528-0.076-0.648-0.229
		c-0.119-0.152-0.18-0.441-0.18-0.87v-1.578h-0.426v-0.39h0.426v-0.918h0.444v0.918h0.954V141.906z"/>
	<path fill="#4D4D4D" d="M14.59,145.927c-0.479,0-0.814-0.065-1.005-0.195s-0.285-0.367-0.285-0.711
		c0-0.164,0.036-0.297,0.108-0.398c0.072-0.103,0.193-0.218,0.366-0.346c-0.112-0.076-0.168-0.214-0.168-0.414
		c0-0.067,0.05-0.193,0.149-0.378l0.054-0.096c-0.315-0.145-0.474-0.446-0.474-0.906c0-0.684,0.374-1.025,1.122-1.025
		c0.192,0,0.37,0.02,0.534,0.06l0.09,0.018l0.888-0.023v0.384l-0.569-0.012c0.132,0.132,0.197,0.332,0.197,0.6
		c0,0.376-0.093,0.64-0.278,0.789c-0.187,0.15-0.479,0.226-0.879,0.226c-0.108,0-0.206-0.009-0.294-0.024
		c-0.072,0.176-0.108,0.29-0.108,0.342c0,0.124,0.038,0.201,0.114,0.231c0.075,0.029,0.306,0.045,0.689,0.045s0.66,0.06,0.828,0.18
		s0.252,0.354,0.252,0.702C15.922,145.608,15.478,145.927,14.59,145.927z M13.744,144.984c0,0.212,0.059,0.359,0.177,0.441
		s0.336,0.123,0.654,0.123c0.317,0,0.546-0.044,0.684-0.132c0.139-0.089,0.207-0.235,0.207-0.441s-0.05-0.339-0.149-0.399
		c-0.101-0.06-0.297-0.09-0.589-0.09l-0.647-0.029c-0.132,0.096-0.221,0.18-0.267,0.252
		C13.767,144.78,13.744,144.873,13.744,144.984z M13.786,142.482c0,0.236,0.053,0.404,0.159,0.504c0.105,0.101,0.28,0.15,0.524,0.15
		s0.418-0.05,0.522-0.15c0.104-0.1,0.156-0.269,0.156-0.507s-0.053-0.407-0.156-0.507c-0.104-0.1-0.278-0.15-0.522-0.15
		s-0.419,0.052-0.524,0.153C13.839,142.077,13.786,142.247,13.786,142.482z"/>
	<path fill="#4D4D4D" d="M18.634,142.423v1.536c0.012,0.147,0.128,0.235,0.349,0.264l-0.019,0.354c-0.315,0-0.554-0.079-0.714-0.239
		c-0.36,0.16-0.72,0.239-1.08,0.239c-0.276,0-0.486-0.077-0.63-0.233c-0.145-0.156-0.216-0.38-0.216-0.672s0.074-0.507,0.222-0.646
		c0.148-0.138,0.38-0.223,0.696-0.255l0.941-0.09v-0.258c0-0.204-0.044-0.351-0.132-0.438s-0.208-0.132-0.359-0.132
		c-0.32,0-0.652,0.021-0.996,0.061l-0.187,0.018l-0.018-0.342c0.439-0.088,0.83-0.132,1.17-0.132s0.587,0.077,0.741,0.233
		C18.557,141.847,18.634,142.091,18.634,142.423z M16.786,143.646c0,0.368,0.151,0.552,0.456,0.552c0.271,0,0.54-0.046,0.804-0.138
		l0.138-0.048v-0.99l-0.888,0.084c-0.18,0.017-0.31,0.068-0.39,0.156S16.786,143.479,16.786,143.646z"/>
	<path fill="#4D4D4D" d="M19.521,144.517v-3h0.444v0.408c0.348-0.24,0.714-0.398,1.098-0.475v0.456
		c-0.168,0.032-0.343,0.082-0.524,0.15c-0.183,0.068-0.321,0.128-0.417,0.18l-0.15,0.078v2.202H19.521z"/>
	<path fill="#4D4D4D" d="M23.152,141.906h-0.954v1.435c0,0.344,0.024,0.569,0.075,0.678c0.05,0.108,0.169,0.162,0.356,0.162
		l0.534-0.036l0.03,0.372c-0.269,0.044-0.473,0.066-0.612,0.066c-0.312,0-0.528-0.076-0.648-0.229
		c-0.119-0.152-0.18-0.441-0.18-0.87v-1.578h-0.426v-0.39h0.426v-0.918h0.444v0.918h0.954V141.906z"/>
</g>
<g>
	<g>
		<path fill="#00B8FA" d="M120.547,176.836h-0.678c-0.342,0-0.604-0.143-1.25-0.99l-0.113-0.147l-0.031-0.185
			c-0.042-0.252-0.097-0.525-0.143-0.713c-0.152-0.08-0.325-0.192-0.528-0.339c-0.15-0.048-0.301-0.138-0.424-0.284
			c-0.166-0.197-0.326-0.553-0.148-1.131c0.106-0.347,0.177-0.481,0.287-0.637c0.014-0.02,0.027-0.039,0.049-0.081
			c-0.202-0.129-0.372-0.273-0.495-0.389c-0.488-0.181-0.899-0.676-0.853-1.418c0.012-0.201,0.011-0.357,0.006-0.471
			c-0.241-0.045-0.449-0.111-0.611-0.163c-0.072-0.022-0.134-0.045-0.184-0.055c-0.219-0.041-0.519-0.098-0.799-0.202l-1.668,0.284
			c-0.024,0.107-0.048,0.22-0.068,0.316c-0.116,0.562-0.187,0.864-0.367,1.091c-0.094,0.118-0.281,0.294-0.5,0.489
			c-0.183,0.163-0.392,0.348-0.548,0.522l-0.183,0.211c-0.273,0.321-0.558,0.653-1.031,0.653c-0.141,0-0.334,0-1.509-0.564
			l-0.264-0.126l-0.108-0.271c-0.132-0.329-0.36-0.918-0.407-1.155c-0.001-0.005-0.074-0.404-0.017-0.832l-0.693-0.74
			c-0.356-0.425-0.77-0.903-0.918-1.054l-0.009-0.004c-0.37-0.2-0.595-0.299-0.727-0.348c-0.148,0.146-0.326,0.338-0.411,0.429
			l-0.147,0.156c-0.109,0.11-0.422,0.446-0.936,0.407c-0.301-0.023-0.575-0.185-0.772-0.453c-0.266-0.363-0.482-0.907-0.52-1.004
			c-0.003,0-0.063-0.122-0.125-0.224c-0.004-0.002-0.008-0.005-0.013-0.007c-1.14-0.569-1.487-0.594-1.563-0.578
			c-0.615,0.237-1.232-0.075-1.661-0.567c-0.172,0.017-0.323,0.035-0.412,0.052c-0.344,0.214-0.845,0.306-1.024,0.306
			c-0.385,0-0.661-0.174-1.38-1.253l-0.211-0.316l0.131-0.357c0.001-0.002,0.028-0.076,0.062-0.17
			c-0.059-0.042-0.115-0.079-0.161-0.103c-0.402,0.062-1.04,0.062-1.346,0.054c-0.118,0.45-0.341,1.124-0.643,1.325
			c-0.206,0.14-0.447,0.153-0.696,0.14c-0.134,0.002-0.354-0.001-0.498,0.016c0.132,0.138,0.265,0.252,0.367,0.314
			c0.034,0.007,0.256,0.024,0.375,0.035c0.395,0.032,0.886,0.073,1.094,0.557c0.116,0.27,0.083,0.567-0.1,0.886
			c-0.174,0.305-0.62,0.839-1.19,0.91c-0.018,0.023-0.215,0.223-0.283,0.318c-0.2,0.336-0.463,0.435-2.001,0.482
			c-0.882,0.153-1.275,0.092-1.539-0.235c-0.173-0.216-0.623-0.756-0.944-1.12c-0.084,0.044-0.161,0.082-0.222,0.111l0,0
			c-0.097,0.06-0.768,0.529-2.05,1.443c-0.48,0.342-2.367,0.212-2.485,0.173c-0.018-0.007-0.098-0.039-0.217-0.098
			c-0.573-0.279-0.862-0.392-1.004-0.438c-0.089,0.062-0.231,0.168-0.319,0.233c-0.403,0.299-0.86,0.638-1.35,0.271
			c-0.442-0.336-0.374-0.772-0.038-2.036l-0.01-0.039c-0.053-0.022-0.102-0.044-0.146-0.062c-0.104,0.052-0.23,0.118-0.33,0.171
			c-0.162,0.212-0.414,0.439-0.763,0.465c-0.289,0.01-0.557-0.105-0.735-0.334c-0.085-0.104-0.591-0.602-1.009-1.001l-0.152-0.146
			l-0.054-0.204c-0.177-0.662-0.13-1.154,0.14-1.462c0.063-0.072,0.182-0.18,0.319-0.299c0.052-0.043,0.125-0.106,0.19-0.166
			c-0.008-0.02-0.017-0.038-0.025-0.056c-1.248-0.672-1.141-1.202-1.104-1.382c0.021-0.102,0.038-0.189,0.935-2.11l0.703-1.217
			c0,0,0.409-0.436,0.591-0.628c0.021-0.048,0.046-0.107,0.069-0.17l-0.501-0.835l-0.253-1.495l1.559-2.613l1.093-2.81
			c0.054-0.334,0.26-1.616,0.278-1.707c0.013-0.062,0.033-0.165,0.404-1.124l0.586-2.268l0.525-1.782l1.231-1.352l0.257-1.101
			l1.362-0.73l0.252,0.042c0.091,0.016,0.186,0.03,0.276,0.043c0.018-0.201,0.03-0.404,0.032-0.527
			c-0.078-0.269,0.008-0.695,0.359-1.924l0.053-0.187l1.189-1.189c-0.134-0.123-0.229-0.222-0.283-0.294
			c-0.09-0.121-0.197-0.309-0.271-0.443c-0.174-0.148-0.306-0.323-0.415-0.498c-0.005,0.004-0.01,0.007-0.016,0.01
			c-0.255,0.17-0.546,0.225-0.819,0.15c-0.218-0.058-0.372-0.179-0.476-0.292c-0.028-0.018-0.057-0.035-0.085-0.052l-0.094,0.197
			l-2.528,0.195l-0.239-0.391c-0.188-0.307-0.701-1.12-1.024-1.545c-0.035,0.014-0.071,0.029-0.099,0.041
			c-0.247,0.106-0.621,0.268-1.023,0.067c-0.418-0.209-0.95-0.549-1.18-1.001c-0.148-0.161-0.714-0.592-1.273-0.969
			c-0.066-0.043-0.218-0.157-0.386-0.3c-0.265-0.015-0.333-0.027-0.399-0.044c-0.002,0.011-0.057,0.019-0.15,0.021
			c-0.126,0.05-0.396,0.205-0.6,0.337c-0.072,0.065-0.227,0.204-0.336,0.306c-0.036,0.118-0.086,0.341-0.118,0.53l-0.114,0.681
			l-0.688-0.058c0,0-0.518-0.043-0.82-0.087c-0.695-0.1-0.929-0.564-1.054-0.813c-0.014-0.027-0.025-0.05-0.034-0.067
			c-0.01-0.001-0.019-0.001-0.028-0.002c-0.391-0.028-0.981-0.071-1.399-0.441c-0.275-0.245-0.368-0.491-0.385-0.692
			c-0.476,0.312-1.053,0.106-1.417-0.177l-0.261-0.203l-0.026-0.33c-0.001-0.016-0.002-0.03-0.004-0.046
			c-0.155,0.015-0.314,0.033-0.412,0.045c-0.021,0.003-0.041,0.005-0.061,0.007c-0.037,0.104-0.068,0.23-0.068,0.304
			c0,0.184-0.055,0.748-0.705,0.945l-0.024,0.06l-0.427,0.154c-0.415,0.096-0.705-0.149-0.844-0.27
			c-0.087-0.074-0.176-0.151-0.311-0.219c-0.622-0.311-0.94-0.919-1.111-1.245l-0.055-0.101c-0.221-0.368-0.557-1.878-0.557-2.268
			c0-0.326,0.179-0.735,0.533-1.219c-0.039-0.132-0.082-0.277-0.117-0.399c-0.136-0.071-0.338-0.162-0.44-0.207
			c-0.103-0.046-0.192-0.086-0.254-0.117c-0.237-0.119-0.78-0.548-1.025-0.976c-0.163-0.107-0.526-0.29-0.651-0.339
			c-0.132-0.044-0.268-0.13-0.636-0.37c-0.205-0.133-0.448-0.292-0.674-0.424c-0.753-0.439-0.84-0.927-0.819-1.188l0.04-0.961
			c-0.001-0.083,0.008-0.14,0.229-1.232c0.107-0.524,0.286-1.404,0.303-1.561c-0.002-0.517,0.474-0.778,1.263-1.213
			c0.166-0.091,0.398-0.219,0.534-0.305c0.029-0.184,0.026-0.553-0.004-0.913c-0.684-0.564-1.578-1.283-1.799-1.416
			c-0.402-0.241-0.9-0.997-1.479-2.248l-0.066-0.144l-0.003-0.158c-0.02-1.099-0.054-2.348-0.076-2.536
			c-0.033-0.266,0.042-0.768,0.405-2.685c0.083-0.438,0.151-0.793,0.164-0.9c-0.003-0.428,0.35-0.677,1.122-1.224
			c0.111-0.078,0.214-0.149,0.286-0.204c0.043-0.114,0.143-0.381,0.249-0.67c-0.012-0.194-0.017-0.378,0.014-0.54
			c-0.003-0.065-0.066-0.456-0.094-0.623c-0.027-0.164-0.048-0.3-0.053-0.366c-0.037-0.104-0.414-0.938-0.504-1.096
			c-0.051-0.078-0.343-0.633-0.601-1.127c-0.176-0.336-0.334-0.641-0.376-0.713c-0.146-0.25-0.18-0.575-0.131-1.285
			c0.002-0.191,0.039-0.285,0.24-0.775c-0.065-0.066-0.128-0.13-0.17-0.172l-1.062-0.707L60.355,97.5
			c-0.433-1.438-0.445-1.499-0.453-1.54c-0.31-1.361-0.316-1.631-0.296-1.811c0.002-0.072-0.016-0.215-0.03-0.362
			c-0.049-0.494-0.081-0.82,0.074-1.108c0.069-0.127,0.188-0.278,0.753-0.956c0.096-0.114,0.188-0.226,0.268-0.321
			c-0.049-0.081-0.104-0.163-0.144-0.217c-0.03-0.022-0.064-0.048-0.104-0.076c-0.396-0.294-0.643-0.466-0.734-0.509
			c-0.747-0.337-0.769-1.481-0.769-1.61c0-0.452,0.357-0.739,0.703-1.018c0.161-0.132,0.251-0.206,1.425-0.535
			c0.514-0.086,1.002-0.185,1.215-0.245c0.046-0.049,0.098-0.104,0.155-0.162c0.087-0.088,0.254-0.259,0.37-0.393
			c-0.006-0.005-0.014-0.01-0.021-0.016c-0.334-0.233-0.575-0.73-0.93-1.625l-0.063-0.159c-0.215-0.372-0.035-0.745,0.29-1.424
			l0.181-0.38c0.238-0.51,0.469-0.791,0.656-0.947c0.067-0.086,0.174-0.221,0.252-0.317c0.063-0.13,0.198-0.438,0.317-0.71
			c0.108-0.246,0.205-0.465,0.238-0.532c0.03-0.107,0.149-0.815,0.178-1.075c-0.068-0.258-0.297-1.007-0.346-1.136l0,0
			c-0.005,0-0.131-0.216-0.279-0.473c-0.45-0.774-0.606-1.045-0.67-1.176c-0.051-0.084-0.178-0.278-0.319-0.495
			c-0.257-0.394-0.553-0.853-0.617-0.982c-0.166-0.333-0.248-1.152-0.28-1.585c-0.037-0.03-0.078-0.063-0.12-0.098
			c-0.412-0.341-0.925-0.764-0.905-1.388c0.016-0.485,0.316-0.746,0.594-0.828c0.446-0.129,0.813,0.143,1.058,0.414
			c0.196-0.011,0.38-0.024,0.51-0.038c0.022-0.046,0.044-0.094,0.064-0.137c0.046-0.095,0.088-0.181,0.123-0.241
			c0.061-0.108,0.211-0.483,0.252-0.646c-0.014-0.231,0.072-0.466,0.254-0.699c0.201-0.258,0.603-0.69,1.028-0.69
			c0.249,0,0.385,0.077,0.965,0.47l0.799,0.544c0.202,0.03,0.334,0.052,0.423,0.069c0.005-0.002,0.011-0.004,0.016-0.006
			c0.156-0.182,0.485-0.584,0.486-0.585l0.246-0.301l0.388,0.028c0.667,0.048,1.485,0.102,1.668,0.088
			c0.148-0.029,0.399-0.075,0.682-0.122c0.343-0.057,0.957-0.159,1.162-0.207c0.186-0.085,0.415-0.104,0.781-0.134
			c0.061-0.005,0.119-0.01,0.173-0.015c0.037-0.04,0.081-0.09,0.122-0.135c0.009-0.052,0.016-0.11,0.024-0.17
			c0.049-0.339,0.086-0.559,0.188-0.75c0.08-0.148,0.236-0.354,0.448-0.625c-0.029-0.102-0.064-0.221-0.101-0.329
			c-0.209-0.161-0.538-0.438-0.502-0.915c0.015-0.197,0.093-0.447,0.22-0.838c0.045-0.141,0.09-0.276,0.117-0.376
			c0.127-0.464,0.486-0.969,0.643-1.124c0.189-0.19,0.439-0.264,0.682-0.29c-0.001-0.025-0.002-0.043-0.002-0.052
			c0-0.427,0.891-1.778,0.899-1.79c0.054-0.067,0.105-0.131,1.006-0.852l0.217-0.248c-0.032-0.043-0.183-0.287-0.288-0.466
			l-0.115-0.198c-0.289-0.502-0.055-1.181,0.277-1.57c-0.001-0.008-0.003-0.016-0.003-0.022c-0.002-0.011-0.003-0.021-0.004-0.03
			c-0.06-0.084-0.147-0.184-0.23-0.283l-0.031-0.037c-0.208,0.195-0.518,0.244-0.758,0.282c-0.068,0.011-0.139,0.019-0.193,0.035
			c-0.321,0.121-0.686,0.104-1.035-0.04c-0.158-0.014-0.414,0.004-0.414,0.003l-0.129,0.008l-0.114-0.036
			c-1.028-0.299-1.176-0.445-1.273-0.542c-0.853-0.857-0.97-1.01-1.039-1.125c-0.27-0.449-0.157-1.465-0.155-1.475
			c0.025-0.177,0.102-0.361,0.223-0.648c0.049-0.114,0.101-0.229,0.128-0.312c0.033-0.431,0.312-1.001,0.745-1.514
			c0.588-0.697,1.427-0.646,1.739-0.622c0.28-0.033,0.536,0.054,0.907,0.191l0.11,0.039c0.075,0.014,0.166,0.037,0.311,0.075
			c0.17,0.044,0.618,0.161,0.756,0.165c0.146-0.037,0.405-0.026,0.656-0.003c0.041-0.056,0.08-0.108,0.108-0.149
			c0.067-0.224,0.207-0.83,0.222-0.97c-0.002-0.128,0.109-1.807,0.109-1.807l0.032-0.175c0,0,0.411-1.311,0.453-1.463
			c0.064-0.26,0.632-1.281,0.674-1.344c0.032-0.08,0.287-0.752,0.344-0.945c0.021-0.241,0.078-0.777,0.099-0.969
			c-0.133-1.922-0.133-1.996-0.133-2.028c-0.008-0.138-0.134-1.482-0.134-1.483l-0.027-1.5l-0.249-0.635
			c-0.24-0.601,0.334-1.389,0.576-1.553c0.022-0.015,0.048-0.029,0.076-0.044c-0.022-0.003-0.043-0.005-0.062-0.008
			c-0.188-0.026-0.8-0.106-0.809-0.107c-0.012-0.002-0.305-0.038-0.438-0.071c-0.201-0.05-0.362-0.166-0.681-0.402
			c-0.075-0.056-0.145-0.108-0.188-0.136c-0.423-0.212-0.48-0.717-0.553-1.355l-0.012-0.102c-0.024-0.197,0.007-0.395,0.039-0.603
			c0.027-0.17,0.061-0.381,0.044-0.511c-0.062-0.465,0.066-0.804,0.143-1.007c0.052-0.256,0.166-0.445,0.342-0.577
			c0.099-0.073,0.255-0.188,0.72-0.2c-0.129-0.188-0.174-0.398-0.215-0.586c-0.023-0.109-0.053-0.246-0.088-0.309
			c-0.131-0.24-0.149-0.52-0.052-0.767c0.186-0.471,0.683-0.636,1.012-0.745l0.026-0.01c0.124-0.133,0.378-0.438,0.378-0.438
			c0.299-0.29,0.607-0.603,0.682-0.702c0.3-0.397,0.818-0.467,1.275-0.528c0.096-0.013,0.184-0.021,0.243-0.037
			c0.126-0.044,0.479-0.159,1.582,0.265c0.192,0.039,0.76,0.15,0.932,0.164c0.052-0.001,0.426-0.041,0.936-0.169
			c0.021-0.005,0.04-0.01,0.058-0.015c0.198-0.332,0.675-0.703,0.818-0.811c0.239-0.18,0.512-0.193,1.007-0.219
			c0.184-0.01,0.376-0.014,0.485-0.037c0.099-0.034,0.351-0.096,0.6-0.153c0.17-0.04,0.337-0.078,0.433-0.106
			c0.155-0.074,0.5-0.148,2.09-0.389l0.122-0.019l0.584,0.104c0.678,0.082,0.969,0.199,1.154,0.479
			c0.009,0.013,0.493,0.786,0.493,1.314c0.005,0.02,0.04,0.143,0.169,0.452c0.029,0.07,0.05,0.123,0.059,0.148
			c0.033,0.051,0.258,0.391,0.301,0.455c0.104,0.154,0.135,0.313,0.182,0.556c0.021,0.104,0.062,0.319,0.091,0.388
			c0.037,0.048,0.079,0.128,0.126,0.237l0.011-0.026l0.244-0.122c0.977-0.488,1.068-0.488,1.235-0.488
			c0.281,0,0.509,0.14,0.824,0.353c0.118,0.079,0.782,0.647,0.782,0.647l0.899,0.609l1.211,0.486l0.095,0.368
			c0.042,0.165,0.083,0.396,0.065,0.634c0.305,0.019,0.594,0.175,0.816,0.446l0.22,0.231c0.178,0.007,0.269,0.02,0.38-0.002
			c0-0.068,0.002-0.126,0.008-0.184c0-0.052-0.037-0.23-0.06-0.337c-0.04-0.188-0.081-0.383-0.081-0.568
			c-0.004,0.031-0.028,0.002-0.048-0.034c-0.069-0.122-0.154-0.272-0.187-0.469c-0.056-0.332,0.013-0.979,0.021-1.052
			c0.006-0.059,0.018-0.114,0.033-0.167l-0.092-0.014c-0.002,0-0.723-0.095-0.879-0.103h-0.001c-0.318,0-0.606-0.193-0.824-0.561
			l-0.764-0.731l-0.033-0.265c-0.043-0.343-0.114-0.944-0.114-1.128c0-0.144,0.034-0.31,0.104-0.643
			c0.048-0.226,0.107-0.48,0.113-0.615c0-0.341,0.062-0.683,0.201-1.103c0.178-0.531,0.73-0.932,0.896-1.042l1.709-1.264
			l1.248,1.093l1.037,0.496l1.037,0.09c0.255-0.033,0.515-0.074,0.738-0.114l-0.607-0.452c-0.136-0.102-0.276-0.207-0.609-1.288
			c-0.12-0.16-0.461-0.533-0.566-0.623l-0.328-0.205l0.016-0.377c-0.021-0.354,0.208-0.726,0.68-1.104
			c0.207-0.164,0.419-0.182,0.712-0.206c0.002-0.001,0.005-0.001,0.008-0.001c0.013-0.056,0.027-0.123,0.043-0.201
			c-0.01-0.051-0.027-0.126-0.05-0.209l-1.284-0.794l-0.092-0.228c-0.312-0.774-0.326-0.916-0.287-1.125l0.02-0.183
			c0.129-1.157,0.179-1.374,0.294-1.565c0.068-0.115,0.282-0.475,1.479-0.928c0.078-0.029,0.103-0.052,0.104-0.052
			c0.003-0.03,0.007-0.061,0.012-0.093c-0.012-0.052-0.032-0.12-0.054-0.188c-0.049-0.008-0.098-0.013-0.137-0.014
			c-0.075,0.095-0.145,0.178-0.247,0.274c-0.255,0.241-0.477,0.36-0.583,0.417c-0.137,0.101-0.356,0.21-1.061,0.107
			c-0.148-0.022-0.361-0.056-0.505-0.071c-0.336,0.131-0.541,0.219-0.61,0.263c-0.198,0.153-0.461,0.219-0.717,0.178
			c-0.286-0.048-0.527-0.22-0.718-0.511c-0.146-0.218-0.294-0.733-0.312-1.095c-0.013-0.254,0.047-0.721,0.581-1.009
			c0.029-0.023,0.062-0.05,0.098-0.077c-0.048-0.418-0.016-0.626,0.139-0.832c0.303-0.403,1.715-0.681,1.771-0.681
			c0.089-0.009,1.108-0.127,1.254-0.15v0.001c0.057-0.013,0.134-0.03,0.225-0.048c0.244-0.049,0.985-0.198,1.14-0.25
			c0.028-0.02,0.086-0.064,0.152-0.118c-0.037-0.179-0.076-0.368-0.101-0.476c-0.128-0.218-0.496-0.776-0.699-1.087
			c-0.089-0.135-0.15-0.23-0.161-0.248c-0.085-0.095-0.971-1.05-0.971-1.05L101,8.826l-1.1-1.974
			c-0.635-1.723-1.37-3.679-1.481-3.909c-0.22-0.319-0.153-0.799,0.299-1.838l0.135-0.309l0.381-0.157
			c0.13-0.041,0.523-0.171,1.394,0.335c0.059,0.038,1.042,0.749,1.331,0.943c0.31,0.085,1.848,0.492,1.848,0.492
			c1.752,0.692,1.811,0.728,1.873,0.766c0.084,0.049,0.123,0.08,0.824,0.719c0.155,0.142,0.286,0.263,0.326,0.296
			c0.048,0.031,0.554,0.361,0.814,0.531c0.281,0.028,0.576,0.054,0.808,0.072c0.114-0.293,0.203-0.501,0.318-0.659
			c0.27-0.369,0.741-0.643,0.795-0.673c0.039-0.032,0.271-0.253,0.329-0.33c0.068-0.091,0.215-0.288,1.226-0.856l0.298-0.167
			l1.154,0.414l0.131,0.292c0,0,0.143,0.317,0.251,0.56c0.182,0.056,0.44,0.131,0.672,0.195c0.974,0.133,1.14,0.263,1.25,0.349
			c0.16,0.124,0.265,0.292,0.407,0.57c0.26-0.354,0.616-0.522,0.765-0.581c0.512-0.206,0.903,0.17,1.396,0.651l0.203,0.197
			l0.148,1.869l0.232,0.465c0.307,0.613,0.342,0.805,0.354,0.868c0.034,0.199,0.017,0.438-0.016,0.781l-0.016,0.181
			c-0.012,0.18-0.012,0.421-0.012,0.426c0.048,1.263,0.033,1.331-0.114,1.55c-0.02,0.028-0.272,0.383-0.407,0.57
			c0.061-0.047,0.127-0.104,0.155-0.136c0.096-0.133,0.178-0.205,0.266-0.277c0.035-0.028,0.083-0.068,0.168-0.153
			c0.457-0.458,0.987-0.33,1.186-0.284c0.488-0.04,0.865,0.262,1.114,0.924c0.079,0.122,0.12,0.271,0.119,0.467
			c0.132-0.126,0.258-0.234,0.347-0.279c0.42-0.206,0.739-0.032,1.593,0.433l0.12,0.065c0.006-0.009,0.03,0.003,0.927,0.543
			c0.24,0.056,0.771,0.179,0.848,0.201c0.13,0.037,0.256,0.104,0.688,0.352l0.172,0.098c0.124,0.056,0.222,0.136,0.323,0.22
			c0.124,0.1,0.539,0.497,0.585,0.543c0.002,0.001,0.233,0.273,0.401,0.591c0.088,0.026,0.187,0.052,0.259,0.069
			c0.039-0.005,0.1-0.012,0.163-0.02l0.298-0.389c0.059-0.067,0.541-0.562,0.761-0.782c0.232-0.233,0.389-0.315,0.517-0.375
			c0.223-0.148,0.475-0.131,0.9-0.103c0.135,0.01,0.272,0.02,0.368,0.017c0.354-0.041,0.647,0.079,0.801,0.144
			c0.052,0.013,0.274,0.007,0.4,0.012c0.044-0.013,0.098-0.031,0.152-0.05c0.197-0.064,0.411-0.127,0.553-0.146l0.151-0.019
			c0.102-0.012,0.178-0.018,0.237-0.033c0.362-0.094,0.881,0.06,1.125,0.79c0.086,0.256,0.025,0.454-0.097,0.848v0.619l-1.267,0.245
			c0.002,0.029,0.004,0.058,0.005,0.084l0.004,0.092c0.02,0.049,0.047,0.101,0.067,0.142c0.045,0.092,0.081,0.164,0.104,0.258
			c0.02,0.068,0.149,0.469,0.149,0.47c0.254,0.73,0.254,0.769,0.254,0.897c0,0.206-0.041,0.306-0.402,0.981l-0.237,0.307
			c-0.209,0.224-0.411,0.456-0.483,0.552c-0.179,0.385-0.641,0.69-0.646,0.694c-0.04,0.027-0.331,0.234-0.467,0.33l-0.845,0.945
			l-0.468-0.156c-0.298-0.1-0.487-0.176-0.623-0.285c-0.06-0.033-0.145-0.075-0.212-0.106l-0.269-0.037l-0.121,0.277l-0.461,0.41
			c-0.01,0.029-0.02,0.06-0.028,0.09l0.467,0.338c0.344,0.053,0.413,0.088,0.485,0.124c0.186,0.093,0.311,0.231,0.508,0.571
			l0.425-0.425l1.133-0.357l1.238-0.762l0.308,0.064c0.111,0.024,1.105,0.235,1.581,0.414c0.63,0.235,0.955,0.688,1.014,0.776
			l0.179,0.269l-0.072,0.315c-0.017,0.076-0.032,0.161-0.044,0.244c0.186,0.067,0.407,0.165,0.581,0.296
			c0.151,0.112,0.353,0.276,0.473,0.374l0.169,0.062c0.1-0.053,0.21-0.112,0.315-0.171c-0.021-0.096-0.033-0.201-0.033-0.319v-0.763
			c0-0.227,0.082-0.427,0.257-0.611h-0.009l-0.275-0.509c-0.258-0.625,0.343-1.249,0.412-1.318c0.061-0.065,0.27-0.364,0.441-0.635
			l0.125-0.195l0.911-0.391l0.904-0.604l1.054-0.14l1.527,0.068c0.289,0.051,0.643,0.104,0.885,0.132
			c0.283-0.354,0.843-0.67,1.488-0.572l0.022,0.003c0.083-0.011,0.153-0.011,0.198-0.011c0.229,0,0.428,0.069,0.595,0.182
			l0.037-0.483l0.145-0.18c0.001-0.001,0.613-0.764,0.723-0.927c0.071-0.107,0.173-0.259,0.381-0.354
			c0.117-0.104,0.233-0.304,0.297-0.413c0.107-0.184,0.208-0.357,0.343-0.492c0.066-0.067,0.153-0.179,0.242-0.29
			c0.13-0.162,0.262-0.324,0.36-0.421c0.075-0.076,0.252-0.32,0.401-0.62c0.067-0.136,0.143-0.25,0.219-0.346
			c-0.05-0.306-0.056-0.688,0.108-1.017c0.084-0.167,0.148-0.349,0.218-0.537c0.062-0.168,0.125-0.34,0.199-0.513l0.146-0.221
			c1.132-1.194,1.391-1.258,1.562-1.301c0.26-0.065,0.47-0.048,0.638-0.033c0.059,0.005,0.122,0.011,0.196,0.011
			c0.486,0,0.911,0.205,1.298,0.426c0.05,0.028,0.089,0.05,0.121,0.067l0.052-0.002c0.094,0,0.201,0.011,0.326,0.026
			c0.104,0.013,0.228,0.029,0.382,0.029h1.308c0.562,0,0.983,0.167,1.254,0.498c0.129,0.157,0.202,0.33,0.237,0.495
			c0.251-0.167,0.495-0.196,0.678-0.182c0.446,0.037,0.757,0.354,0.899,0.638l0.739,1.48l-0.039,0.97l0.366,0.107l1.287,0.306
			l1.451,1.277l1.195,0.751c0,0,0.692,0.747,0.853,0.907c0.02,0.015,0.068,0.046,0.136,0.085c0.129-0.13,0.269-0.263,0.39-0.36
			c0.297-0.238,0.651-0.301,0.96-0.271c0.171-0.127,0.451-0.345,0.885-0.702c0.216-0.177,0.87-0.718,1.457-0.271
			c0.26,0.199,0.495,0.593,0.193,1.357c-0.016,0.196-0.043,0.594-0.043,0.855c0,0.114,0.103,0.407,0.194,0.592l0.272,0.552
			l-0.902,0.696v0.194l0.129,0.048c0.278,0.11,0.455,0.288,0.598,0.431c0.103,0.103,0.191,0.191,0.337,0.282
			c0.325,0.203,0.505,0.388,0.617,0.638c0.029,0.022,0.058,0.04,0.085,0.059c0.119,0.079,0.236,0.162,0.355,0.28
			c0.338,0.337,0.363,0.854,0.079,1.434l-0.164,0.875c0.002,0.004,0.003,0.008,0.004,0.013c0.004,0.011,0.008,0.021,0.011,0.032
			c0.03,0.017,0.062,0.031,0.079,0.037l0.177,0.096c0.003,0.002,0.586,0.427,1.063,0.745c0.282,0.188,0.501,0.361,0.65,0.487
			c0.332,0.016,0.879,0.04,1.059,0.04c0.261,0,0.456,0.048,0.601,0.121l0.863,0.277l0.666,0.313l0.967-0.289l0.448,1.343
			l0.312,1.188l0.723,1.146l-0.018,0.246c0,0.006-0.047,0.65-0.052,1.16l0.189,0.035l0.203,0.196
			c0.462,0.485,1.038,1.072,1.164,1.174c0.469,0.351,0.491,0.875,0.06,1.553c-0.04,0.063-0.083,0.129-0.116,0.194
			c-0.054,0.131-0.147,0.699-0.196,1.208l-0.139,1.442l-0.636-0.547c-0.177,0.383-0.389,0.837-0.544,1.147
			c0.003,0.002,0.007,0.004,0.01,0.007c0.087,0.067,0.163,0.129,0.216,0.182c0.171,0.171,0.258,0.367,0.351,0.574
			c0.084,0.189,0.188,0.426,0.397,0.737c0.545,0.819,0.229,1.633-0.15,2.039l-1.018,1.525l-1.494,1.052
			c-0.15,0.202-0.349,0.518-0.39,0.704c-0.052,0.229-0.028,0.489-0.006,0.741c0.013,0.148,0.023,0.284,0.023,0.402
			c0,0.373-0.082,0.541-0.238,0.829c-0.056,0.102-0.131,0.241-0.235,0.451c0.108,0.056,0.211,0.141,0.295,0.269
			c-0.012-0.018,0.201,0.117,0.338,0.193l1.162,0.535l1.328,0.95l0.081,0.214c0.003,0.008,0.304,0.801,0.685,1.373
			c0.166,0.249,0.284,0.364,0.339,0.41l0.104,0.021l2.085,1.975l1.152,1.473l-0.079,1.593l-0.644,0.869
			c-0.061,0.061-0.316,0.314-0.544,0.513c0.009,0.035,0.02,0.069,0.03,0.091c0.107,0.215,0.479,0.905,0.48,0.906l0.517,1.28
			l1.373,1.259l0.205,1.235c0.052,0.308-0.005,0.823-0.06,1.195l0.207,0.297c0.397,0.698,0.605,1.127,0.658,1.336l0.031,0.122
			c0.091,0.348,0.154,0.609,0.154,0.823c0.012,0.092,0.142,0.736,0.255,1.258l0.074,0.338l-1.197,1.575
			c-0.275,0.582-0.53,1.22-0.555,1.391c-0.032,0.259-0.006,0.293,0.019,0.326c0.04,0.052,0.09,0.096,0.136,0.141
			c0.168,0.161,0.396,0.383,0.483,0.727c0.016,0.019,0.138,0.175,0.25,0.309c0.309,0.181,0.787,0.443,1.028,0.534
			c0.244,0.092,0.695,0.262,0.686,0.802l-0.011,0.529l-0.113,0.038c-0.112,0.337-0.381,0.598-0.54,0.753
			c-0.046,0.045-0.091,0.085-0.122,0.122l-0.073,0.106c-0.056,0.087-0.109,0.164-0.204,0.274l0.407,0.571l0.7,0.363l0.316,0.501
			l1.421,0.636l0.122,0.239c0.532,1.043,0.709,1.477,0.755,1.718c0.087,0.142,0.278,0.397,0.369,0.501
			c0.3,0.234,0.347,0.574,0.347,2.044l-0.016,0.15c0,0.001-0.233,1.138-0.26,1.354c0-0.001,0-0.002,0.001-0.002
			s-0.008,0.195-0.132,1.692l0.159,2.43l-0.338,0.243c-0.132,0.095-0.518,0.403-0.724,0.694c-0.014,0.021-0.078,0.144,0.022,0.627
			l0.033,0.248c0,0.423-0.29,0.676-0.691,1.027c-0.065,0.058-0.263,0.303-0.54,0.823c-0.016,0.083,0.051,0.438,0.126,0.649
			l0.068,0.191l-0.039,0.2c-0.001,0.005-0.03,0.153-0.051,0.29c0.127,0.363-0.102,0.649-0.325,0.847l0.001,0.001l-0.008,0.006
			c-0.073,0.063-0.146,0.117-0.203,0.161l-0.388,0.29l-1.514-0.833c-0.482-0.266-0.708-0.601-0.668-0.997
			c-0.186-0.276-0.376-0.6-0.489-0.903c-0.015-0.007-0.029-0.014-0.044-0.021c-0.235-0.112-0.66-0.313-0.81-0.759
			c-0.016-0.022-0.07-0.097-0.12-0.169c-0.03-0.044-0.06-0.087-0.087-0.128c-0.038-0.011-0.079-0.021-0.119-0.031
			c-0.244-0.064-0.476-0.126-0.665-0.251c-0.122-0.036-0.429-0.086-0.686-0.111c-0.497-0.094-0.773-0.167-0.935-0.223
			c-0.011,0.002-0.021,0.004-0.032,0.006c0.136,0.104,0.264,0.199,0.325,0.238l0.445,0.223l-0.06,0.491
			c-0.023,0.372-0.267,0.582-0.557,0.727c-0.03,0.521-0.078,1.235-0.12,1.468c-0.064,0.358-0.171,0.558-0.249,0.703
			c-0.28,0.555-0.843,0.667-1.693,0.838c-0.451,0.09-0.78,0.167-1.023,0.224l-0.251,0.059c-0.01,0.002-0.993,0.212-1.603,0.155
			c-0.195,0.061-0.698,0.346-1.101,0.627l-1.069,0.826c-0.154,0.238-0.531,0.819-0.698,1.11c-0.153,0.269-0.406,0.457-0.713,0.529
			c-0.526,0.124-1.05-0.115-1.273-0.237c-0.16-0.023-0.505-0.037-0.79-0.04l-0.011,0.114c-0.024,0.286-0.06,0.626-0.104,0.806
			c-0.018,0.068-0.029,0.165-0.044,0.268c-0.033,0.234-0.067,0.478-0.144,0.683c-0.285,0.757-1.466,0.815-1.82,0.815
			c-0.434,0-0.722-0.032-0.997-0.111c-0.221-0.063-0.372-0.158-0.519-0.251c-0.008-0.005-0.016-0.009-0.022-0.014
			c-0.161,0.094-0.396,0.268-0.555,0.407l-1.025,0.923c-0.202,0.277-0.403,0.58-0.445,0.671c-0.013,0.037-0.021,0.09-0.03,0.142
			c-0.05,0.252-0.183,0.921-0.861,1.006c-0.081,0.01-0.176,0.012-0.246,0.014c-0.013,0.02-0.025,0.039-0.036,0.057
			c-0.038,0.175-0.097,0.591-0.097,0.766c0,0.297-0.094,0.534-0.278,0.705c-0.281,0.26-0.604,0.236-0.819,0.218
			c-0.096-0.006-0.226-0.017-0.411-0.011c-0.312,0.014-0.35,0.041-0.412,0.086c-0.046,0.033-0.093,0.066-0.146,0.1
			c-0.345,0.216-0.919,0.343-1.7-0.258l-0.147-0.109l-0.75,0.455c-0.129,0.078-0.285,0.192-0.351,0.255
			c-0.152,0.304-0.482,0.571-0.984,0.796l-0.418,0.187l-0.314-0.251c-0.499,0.416-0.871,0.667-1.106,0.745
			c-0.023,0.023-0.201,0.206-0.287,0.294c-0.102,0.104-0.19,0.19-0.246,0.234c-0.021,0.02-0.05,0.053-0.085,0.09
			c-0.132,0.141-0.331,0.354-0.605,0.529c-0.159,0.101-0.315,0.177-0.462,0.246c0.032,0.027,0.065,0.057,0.098,0.089
			c0.363,0.363,0.347,0.946,0.332,1.414l-0.003,0.151c0,0.47-0.201,0.714-0.376,0.874c-0.396,0.492-1.13,0.397-1.646,0.104
			c-0.407-0.234-0.968-0.997-1.096-1.188c-0.259-0.389-0.526-0.988-0.645-1.281c-0.063-0.161-0.106-0.358-0.135-0.557l-0.113-0.019
			c-0.021-0.004-0.041-0.007-0.062-0.01v0.833l-0.518,0.075c0.041,0.042,0.085,0.086,0.135,0.136
			c0.198,0.198,0.397,0.375,0.484,0.452c0.227,0.143,0.675,0.497,0.675,1.059c0.081,0.204,0.077,0.434-0.026,0.811
			c-0.02,0.072-0.042,0.138-0.064,0.196c0.03,0.019,0.061,0.037,0.091,0.055c0.281,0.169,0.631,0.379,0.798,0.767
			c0.041,0.097,0.071,0.188,0.1,0.274c0.015,0.043,0.025,0.085,0.044,0.122c0.22,0.102,1.911,1.242,2.533,1.663l4.202,0.401
			l-2.857,0.951c0.212,0.069,0.342,0.2,0.42,0.319c0.288,0.437,0.053,0.907-0.048,1.108c-0.151,0.303-0.201,0.497-0.241,0.652
			c-0.03,0.118-0.062,0.24-0.124,0.366c-0.111,0.22-0.255,0.399-0.421,0.531c0.149,0.286,0.276,0.669,0.153,1.027l-0.111,0.325
			l-0.304,0.155c-0.057,0.064-0.119,0.135-0.192,0.201c0.058,0.103,0.13,0.188,0.224,0.299c0.086,0.101,0.174,0.205,0.262,0.329
			c0.079,0.11,0.204,0.266,0.328,0.422c0.302,0.379,0.433,0.548,0.508,0.698c0.077,0.154,0.129,0.374,0.318,1.25
			c0.099,0.454,0.197,0.928,0.254,1.096c0.086,0.258,0.068,0.502,0.037,0.704c0.104,0.015,0.213,0.029,0.307,0.041
			c0.687,0.089,1.229,0.159,1.439,0.687c0.047,0.116,0.097,0.313,0.152,0.553c0.049,0.213,0.107,0.469,0.189,0.715
			c0.097,0.288,0.454,0.665,0.614,0.794c-0.023-0.024,0.018-0.018,0.061-0.008c0.215,0.049,0.72,0.164,0.854,0.697
			c0.022,0.09,0.031,0.162,0.041,0.249c0.01,0.088,0.024,0.207,0.111,0.49c0.064,0.21,0.173,0.296,0.722,0.57
			c0.294,0.147,0.556,0.17,0.747,0.188c0.115,0.01,0.224,0.02,0.34,0.058c0.136,0.046,0.252,0.121,0.398,0.215
			c0.052,0.033,0.107,0.072,0.16,0.103c0.299-0.02,0.727,0.049,1.126,0.617c0.333,0.23,0.486,0.452,0.664,0.957
			c0.116,0.33,0.154,0.409,0.198,0.494c0.047,0.094,0.099,0.192,0.204,0.468c0.049,0.126,0.077,0.24,0.093,0.344
			c0.069,0.024,0.095,0.027,0.125,0.029c0.139,0.014,0.287,0.032,0.57,0.119c0.351,0.108,1.239,0.275,1.707,0.358
			c1.076-0.263,1.51,0.083,1.684,0.433c0.168,0.332,0.396,1.049,0.459,1.271l0.05,0.161c0.056,0.177,0.095,0.315,0.101,0.55
			c0.151,0.039,0.286,0.057,0.391,0.069c0.119,0.016,0.214,0.033,0.278,0.05c0.251-0.234,0.486-0.295,0.672-0.277
			c0.769-0.178,1.224-0.095,1.493,0.267c0.238,0.214,0.457,0.479,0.548,1.021c0.075,0.453,0.086,0.58,0.115,0.942l0.028,0.365
			c0.477,0.02,0.686,0.311,0.775,0.526c0.16,0.146,0.605,0.459,1.021,0.715l0.812,0.498l-0.673,0.672
			c-0.14,0.14-0.299,0.314-0.365,0.401c-0.021,0.054-0.048,0.111-0.087,0.168c0.073,0.076,0.141,0.131,0.177,0.15
			c0.397,0.033,0.682,0.3,0.799,0.775c0.026,0.102,0.093,0.271,0.162,0.454c0.223,0.591,0.343,0.931,0.307,1.235
			c0.031,0.361-0.11,0.622-0.37,0.922c-0.011,0.236-0.096,0.426-0.252,0.574c-0.315,0.297-0.699,0.251-1.231,0.191
			c-1.106-0.127-1.581-0.302-1.665-0.335l-0.318-0.128l-0.044-0.128c-0.575,0.714-1.437,1.216-2.074,1.548
			c-0.017,0.01-0.032,0.02-0.049,0.028c0.021,0.043,0.046,0.089,0.074,0.142c0.166,0.311,0.394,0.735,0.455,1.455
			c0.019,0.215,0.082,0.331,0.161,0.479c0.257,0.477,0.399,1.014-0.296,1.71c-0.416,0.416-1.237,1.005-1.896,1.478
			c-0.162,0.115-0.344,0.246-0.492,0.355l0.188,0.625l-1.107-0.103c0.034,0.005-0.033,0.02-0.144,0.048
			c-0.465,0.116-1.559,0.259-2.284,0.347c-0.029,0.258-0.104,0.508-0.253,0.701c-0.154,0.2-0.373,0.327-0.617,0.357
			c-0.14,0.018-0.442,0.017-0.786,0.018c-0.155-0.002-0.382-0.004-0.584,0.001c0.174,0.724-0.21,1.044-0.475,1.176
			c-0.163,0.089-0.672,0.487-0.866,0.694c-0.003,0.014-0.005,0.027-0.007,0.04c0.132,0.248,0.31,0.657,0.572,1.312
			c0.08,0.149,0.682,1.005,1.188,1.704l0.114,0.237c0.111,0.396,0.256,0.868,0.348,1.126c0.315,0.127,0.834,0.36,0.96,0.925
			c0.059,0.264,0.04,0.671-0.38,1.117c-0.397,0.423-0.46,0.558-0.469,0.58c0.032,0.114,0.2,0.607,0.338,0.968l0.194,0.512
			l-0.427,0.342c0.017,0.137,0.03,0.249,0.042,0.344c0.011-0.007,0.022-0.015,0.032-0.021c0.03-0.016,0.052-0.068,0.075-0.124
			c0.154-0.366,0.41-0.972,1.066-0.866c0.296,0.051,0.656,0.262,0.698,0.979c0.026,0.457-0.115,0.877-0.223,1.188
			c0.756,0.128,0.919,0.556,0.919,0.898c0,0.324-0.175,0.612-0.396,0.978c-0.101,0.166-0.287,0.475-0.312,0.589
			c-0.035,0.195-0.077,0.341-0.114,0.467c-0.046,0.156-0.05,0.173-0.041,0.253c0.009,0.077,0.027,0.172,0.045,0.272
			c0.099,0.544,0.222,1.22-0.281,1.622c-0.015,0.016-0.042,0.05-0.073,0.086c-0.22,0.256-0.629,0.732-1.334,0.732
			c-0.724,0-1.834-0.481-2.092-0.61c-0.343-0.171-0.803-0.718-1.365-1.624l-0.154-0.249l0.056-0.287
			c0.063-0.334,0.103-0.739,0.089-0.9c-0.207-0.36-0.334-0.555-0.412-0.66l-0.476-0.037c-0.255,0.056-0.311,0.094-0.335,0.11
			c-0.312,0.212-0.569,0.238-1.067,0.212c-0.334-0.017-0.497-0.004-0.613,0.005c-0.234,0.021-0.398,0.022-0.758-0.067
			c-0.016-0.003-0.03-0.002-0.113,0.018c-0.765,0.187-1.129-0.258-1.296-0.661c-0.087-0.207-0.119-0.377-0.13-0.508
			c-0.144-0.1-0.253-0.199-0.337-0.286c-0.702,0.15-1.477-0.213-1.722-0.342l-0.155-0.081c-0.007,0-0.013,0.001-0.02,0.001
			c-0.194,0.014-0.335,0.162-0.451,0.315c-0.062,0.241-0.172,0.948-0.244,1.521c-0.032,0.309-0.151,0.894-0.569,1.188
			c-0.226,0.159-0.499,0.212-0.764,0.143l-0.231-0.052c-0.266-0.056-0.537-0.113-0.755-0.266c-0.356-0.068-1.356-0.15-1.693-0.15
			h-2.084c-0.277,0-0.534,0.028-0.685,0.056l-0.061,0.091l-0.35,0.063c-0.367,0.05-0.618-0.146-0.803-0.295
			c-0.115,0.128-0.221,0.277-0.253,0.354c-0.116,0.354-0.435,1.323-1.363,1.323c-0.25,0-0.472-0.069-0.65-0.125
			c-0.026-0.008-0.059-0.019-0.09-0.027c-0.234,0.308-0.417,0.603-0.475,0.729c-0.05,0.61-0.541,1.095-0.915,1.411
			c-0.078,0.066-0.085,0.083-0.105,0.138c-0.231,0.611-0.714,0.693-1.155,0.693h-0.374c-0.603,0.49-0.938,0.49-1.057,0.49
			c-0.472,0-0.794-0.291-0.957-0.864c-0.01-0.032-0.013-0.045-0.01-0.045l0,0c-0.018-0.021-0.033-0.043-0.048-0.064
			c-0.638,0.128-1.328,0.098-1.67,0.08l-0.135-0.005c-0.062,0.001-0.187,0.018-0.312,0.039v0.011l-0.514,0.225
			c-0.463,0.18-1.35-0.052-1.703-0.438c-0.245-0.269-0.302-0.646-0.145-0.961c0.039-0.104,0.088-0.362,0.142-0.618
			c0.104-0.491,0.168-0.779,0.269-0.979c0.021-0.048,0.064-0.173,0.115-0.336c-0.096,0-0.211-0.01-0.313-0.023
			c-0.011-0.002-0.022-0.003-0.034-0.005c-0.122,0.099-0.263,0.188-0.415,0.285c-0.116,0.074-0.243,0.154-0.357,0.24
			c-0.385,0.288-1.227,0.639-1.392,0.707l-0.774,0.317l-0.23-0.805c-0.183-0.037-0.383-0.11-0.575-0.182
			c-0.33-0.121-0.551-0.204-0.713-0.292c-0.006,0.198-0.058,0.522-0.38,0.728c-0.181,0.114-0.48,0.21-0.889,0.006
			c-0.288-0.145-0.718-0.286-0.718-0.286c-0.338-0.139-1.004-0.488-1.004-1.161c0-0.205,0.053-0.395,0.121-0.56
			c-0.178,0.171-0.33,0.284-0.456,0.376c0.006,0.181-0.011,0.345-0.026,0.487c0.292,0.195,0.399,0.538,0.49,0.903
			c0.131,0.524,0.107,0.782,0.072,1.001c-0.006,0.025-0.002,0.063,0.034,0.17c0.254,0.759,0.165,1.551,0.117,1.977
			c-0.003,0.057,0.004,0.101,0.008,0.146c0.104,1.077-0.553,1.416-1.122,1.511c-0.602,0.101-1.09,0.358-1.192,0.449L120.547,176.836
			z M120.257,175.457L120.257,175.457L120.257,175.457z M119.922,175.077c0.04,0.049,0.08,0.098,0.118,0.144l0.359-0.359
			c0.351-0.349,1.12-0.691,1.869-0.84c-0.009-0.103-0.014-0.22,0.001-0.348c0.036-0.329,0.102-0.908-0.048-1.354
			c-0.146-0.438-0.127-0.669-0.092-0.885c0.01-0.062,0.02-0.121-0.036-0.354c-0.095-0.044-0.183-0.106-0.263-0.187
			c-0.382-0.381-0.321-0.896-0.281-1.235c0.017-0.134,0.032-0.272,0.023-0.37c-0.065-0.718,0.358-1.028,0.611-1.214
			c0.092-0.067,0.207-0.15,0.341-0.284c0.501-0.501,0.775-0.657,1.082-0.809c0.44-0.221,1.019-0.248,1.562,0.717
			c0.366,0.611,0.082,1.15-0.024,1.353l-0.11,0.203c0.006,0.002,0.013,0.005,0.019,0.007c0.121-0.274,0.299-0.532,0.686-0.647
			c0.064-0.071,0.703-0.536,1.378,0.229c0.099,0.073,0.303,0.143,0.515,0.221c0.226,0.083,0.459,0.17,0.634,0.247
			c0.143,0.063,0.263,0.139,0.364,0.219c0.244-0.115,0.464-0.229,0.556-0.298c0.145-0.108,0.304-0.21,0.451-0.305
			c0.116-0.074,0.225-0.136,0.29-0.196c0.304-0.416,0.858-0.344,1.156-0.307l0.001,0.018c0.13-0.028,0.395-0.05,1.161-0.012
			l0.937,0.045l-0.25,0.903c-0.129,0.469-0.366,1.295-0.501,1.564c-0.039,0.104-0.088,0.362-0.142,0.618
			c-0.008,0.036-0.015,0.07-0.022,0.104c0.433-0.157,0.927-0.171,1.086-0.171l0.203,0.007c0.296,0.014,0.913,0.042,1.381-0.068
			c0.946-0.229,1.329,0.23,1.483,0.664c0.004,0.005,0.007,0.009,0.01,0.014c0.004-0.003,0.007-0.006,0.01-0.009l0.216-0.199h0.829
			c0.082-0.141,0.208-0.305,0.41-0.476c0.34-0.289,0.394-0.421,0.396-0.427c-0.009-0.318,0.294-0.889,0.891-1.636
			c0.541-0.671,1.29-0.438,1.608-0.338c0.017,0.005,0.034,0.011,0.053,0.017c0.032-0.079,0.062-0.17,0.077-0.216
			c0.147-0.446,0.617-1.08,1.105-1.387c0.534-0.335,1.055-0.054,1.355,0.165c0.26-0.067,0.621-0.115,1.126-0.115h2.084
			c1.265,0,2.104,0.131,2.507,0.391c0.008,0.003,0.016,0.005,0.024,0.008c0.226-1.783,0.358-1.96,0.466-2.103
			c0.18-0.245,0.682-0.93,1.611-0.991c0.338-0.024,0.824-0.013,1.141,0.326c0.209,0.085,0.436,0.148,0.522,0.134
			c0.749-0.351,1.172,0.141,1.331,0.325c0.064,0.075,0.115,0.135,0.209,0.197c0.395,0.264,0.58,0.519,0.618,0.872
			c0.112,0.002,0.262,0.008,0.415,0.046c0.148,0.037,0.152,0.036,0.276,0.027c0.152-0.012,0.365-0.027,0.803-0.008
			c0.093,0.004,0.165,0.009,0.212,0.007c0.176-0.111,0.406-0.22,0.913-0.32c0.564-0.114,0.958-0.167,1.281,0.083l0.055,0.043
			c0.396,0.201,0.704,0.692,1.063,1.323c0.099,0.174,0.299,0.523,0.13,1.619c0.266,0.404,0.55,0.78,0.66,0.868
			c0.298,0.144,1.09,0.421,1.37,0.421c0.031-0.018,0.139-0.143,0.196-0.21c0.026-0.03,0.052-0.059,0.076-0.087
			c-0.013-0.115-0.041-0.275-0.06-0.375c-0.025-0.139-0.048-0.269-0.06-0.375c-0.043-0.381,0.029-0.626,0.092-0.841
			c0.025-0.085,0.055-0.182,0.078-0.314c0.054-0.293,0.206-0.59,0.367-0.866c-0.14-0.06-0.28-0.145-0.404-0.269
			c-0.146-0.146-0.229-0.306-0.269-0.468c-0.154,0.058-0.337,0.084-0.538,0.026c-0.421-0.121-0.546-0.495-0.588-0.618
			c-0.001-0.004-0.002-0.006-0.002-0.008c-0.335-0.308-0.395-0.594-0.427-0.86c-0.008-0.062-0.017-0.139-0.045-0.245
			c-0.119-0.433-0.01-0.817,0.16-1.108c-0.109-0.311-0.229-0.683-0.261-0.901c-0.082-0.568,0.12-0.978,0.588-1.517
			c-0.146-0.066-0.291-0.154-0.404-0.306c-0.07-0.094-0.198-0.265-0.576-1.589c-1.164-1.609-1.243-1.807-1.277-1.893
			c-0.345-0.858-0.477-1.126-0.526-1.211c-0.224-0.394-0.203-0.675-0.147-0.92c0.005-0.603,0.786-1.239,1.283-1.583
			c-0.015-0.05-0.027-0.096-0.036-0.138c-0.125-0.621,0.065-1.055,0.562-1.305c0.287-0.144,0.686-0.157,1.615-0.15
			c0.054,0,0.105,0.001,0.155,0.001c-0.002-0.051-0.007-0.102-0.013-0.147l-0.096-0.755l0.757-0.086
			c0.601-0.067,2.267-0.267,2.762-0.391c0.062-0.016,0.12-0.029,0.174-0.041c0.156-0.135,0.413-0.319,0.873-0.649
			c0.583-0.417,1.381-0.989,1.71-1.318c0.001-0.001,0.001-0.001,0.002-0.002c-0.108-0.205-0.26-0.524-0.301-0.996
			c-0.036-0.414-0.146-0.618-0.284-0.878c-0.114-0.214-0.244-0.457-0.314-0.788c-0.081-0.378-0.035-0.699,0.138-0.953
			c0.222-0.325,0.556-0.403,0.716-0.432c0.021-0.011,0.043-0.023,0.066-0.035c0.9-0.469,1.486-0.926,1.74-1.361
			c0.405-0.697,0.919-0.757,1.181-0.732c0.518,0.051,0.846,0.469,1.029,0.812c0.202,0.047,0.526,0.109,0.996,0.164
			c0.041-0.067,0.091-0.136,0.153-0.204c0.017-0.02,0.032-0.036,0.046-0.052c0-0.014,0.001-0.028,0.003-0.042
			c-0.036-0.138-0.148-0.436-0.212-0.604c-0.05-0.134-0.098-0.264-0.137-0.377c-0.029-0.012-0.06-0.025-0.091-0.041
			c-0.377-0.188-0.892-0.672-1.139-1.291c-0.16-0.401-0.07-0.697,0.034-0.875c0.088-0.151,0.204-0.251,0.321-0.317
			c-0.285-0.207-0.471-0.372-0.593-0.507c-0.117-0.011-0.246-0.038-0.384-0.097c-0.664-0.283-0.7-0.861-0.724-1.243l-0.029-0.385
			c-0.025-0.314-0.034-0.425-0.1-0.818c-0.01-0.058-0.02-0.091-0.025-0.107c-0.087,0.014-0.191,0.036-0.288,0.06
			c-0.206,0.206-0.574,0.436-1.102,0.311l-0.673,0.192l0.154-0.308c-0.279-0.043-0.627-0.122-0.971-0.294
			c-0.169-0.085-0.565-0.282-0.644-0.728c-0.037-0.206,0.003-0.402,0.119-0.585c-0.001-0.003-0.003-0.006-0.004-0.01l-0.062-0.205
			c-0.054-0.187-0.144-0.46-0.225-0.683c-0.083,0.016-0.171,0.035-0.237,0.054l-0.164,0.048l-0.169-0.029
			c-0.151-0.026-1.493-0.258-2.054-0.431c-0.158-0.049-0.206-0.053-0.267-0.059c-0.215-0.02-0.382-0.057-0.749-0.214
			c-0.253-0.108-0.928-0.397-0.721-1.163c-0.084-0.144-0.118-0.212-0.151-0.276c-0.06-0.117-0.116-0.225-0.275-0.677
			c-0.032-0.089-0.055-0.146-0.07-0.181c-0.122-0.083-0.246-0.19-0.385-0.381c-0.336-0.007-0.618-0.176-0.893-0.353
			c-0.022-0.015-0.043-0.028-0.062-0.04c-0.329-0.031-0.776-0.087-1.282-0.34c-0.571-0.286-1.22-0.61-1.484-1.473
			c-0.062-0.2-0.1-0.35-0.124-0.471c-0.155-0.049-0.307-0.114-0.446-0.227c-0.032-0.025-0.824-0.665-1.1-1.49
			c-0.098-0.293-0.169-0.599-0.228-0.852c-0.004-0.016-0.008-0.031-0.011-0.047c-0.104-0.016-0.22-0.03-0.312-0.042
			c-0.338-0.044-0.688-0.089-0.955-0.187c-0.579-0.21-0.802-0.702-0.661-1.462c0.012-0.062,0.028-0.122,0.027-0.181
			c-0.054-0.133-0.143-0.539-0.282-1.183c-0.09-0.417-0.174-0.819-0.219-0.955c-0.021-0.012-0.169-0.192-0.314-0.376
			c-0.144-0.179-0.286-0.358-0.376-0.485c-0.062-0.087-0.125-0.159-0.186-0.23c-0.142-0.168-0.303-0.358-0.447-0.646
			c-0.181-0.363-0.242-0.485-0.242-0.785c0-0.246,0.085-0.479,0.229-0.666c-0.39-0.349-0.69-1.048-0.416-1.706
			c0.163-0.392,0.433-0.553,0.63-0.619c0.286-0.094,0.544-0.043,0.749,0.039c0.032-0.116,0.078-0.263,0.148-0.439
			c-0.227-0.201-0.535-0.535-0.68-0.921c-0.013-0.035-0.024-0.07-0.033-0.106l-0.017-0.001l-0.159-0.107
			c-0.989-0.671-2.465-1.662-2.646-1.767c-0.464-0.266-0.595-0.663-0.673-0.9c-0.009-0.027-0.018-0.057-0.028-0.086
			c-0.054-0.039-0.149-0.096-0.217-0.137c-0.189-0.113-0.403-0.242-0.59-0.429c-0.579-0.581-0.288-1.133-0.192-1.314
			c0.035-0.067,0.062-0.116,0.081-0.188c0.008-0.029,0.015-0.055,0.02-0.075c-0.01-0.035-0.02-0.075-0.027-0.122l-0.124-0.1
			c0,0-0.307-0.263-0.613-0.568c-0.296-0.295-0.508-0.508-0.76-0.908c-0.177-0.283-0.229-0.558-0.155-0.819
			c0.088-0.318,0.32-0.477,0.447-0.547c0.061-0.059,0.139-0.115,0.246-0.169l-0.123-0.219l-0.385-0.327l0.892-1.202
			c0.151,0.098,0.294,0.17,0.35,0.193c0.004,0.002,0.009,0.003,0.014,0.005l0.917-1.823v2.196c0.021,0.003,0.043,0.005,0.065,0.008
			c0.688-0.311,1.021-0.116,1.138-0.047c0.262,0.153,0.418,0.432,0.418,0.743c0,0.41,0.048,0.751,0.083,0.839
			c0.075,0.188,0.222,0.517,0.365,0.78c-0.01-0.056-0.015-0.113-0.015-0.176c-0.025-0.339-0.067-0.848,0.371-1.224
			c0.182-0.155,0.385-0.251,0.563-0.336c0.099-0.047,0.206-0.096,0.312-0.163c0.114-0.073,0.217-0.183,0.316-0.289
			c0.092-0.098,0.174-0.181,0.243-0.236c0.021-0.02,0.062-0.062,0.108-0.11c0.297-0.304,0.568-0.563,0.888-0.669
			c0.051-0.028,0.259-0.184,0.485-0.365l0.037-0.671l0.482-0.161c0.276-0.095,0.711-0.068,1.062,0.28
			c0.163-0.226,0.433-0.452,0.807-0.676l0.652-0.396c0.192-0.216,0.507-0.478,0.903-0.478c0.002,0,0.003,0,0.005,0
			c0.279,0.002,0.536,0.133,0.706,0.359l-0.437,0.636l0.512-0.555c0.054,0.039,0.13,0.094,0.246,0.185
			c0.049,0.037,0.089,0.064,0.12,0.084c0.308-0.201,0.597-0.299,1.16-0.322c0.042-0.002,0.082-0.003,0.12-0.004
			c0.041-0.336,0.114-0.727,0.24-0.916c0.053-0.079,0.315-0.499,0.315-0.499l0.265-0.423l0.448,0.073
			c0.021-0.078,0.047-0.159,0.083-0.239c0.127-0.287,0.5-0.804,0.654-1.013l0.101-0.111l1.089-0.98
			c1.304-1.144,1.872-0.83,2.06-0.729c0.132,0.072,0.229,0.134,0.313,0.187c0.053,0.033,0.117,0.074,0.134,0.079
			c0.091,0.026,0.231,0.053,0.583,0.053c0.155,0,0.33-0.024,0.458-0.053c0.007-0.051,0.014-0.104,0.021-0.156
			c0.023-0.161,0.047-0.314,0.074-0.423c0.032-0.127,0.048-0.367,0.064-0.568l0.027-0.285c0.017-0.154,0.131-0.947,0.726-1.146
			c0.218-0.074,1.822-0.123,2.262,0.171c0.022,0.015,0.062,0.032,0.104,0.048c0.267-0.436,0.677-1.062,0.677-1.062l0.168-0.183
			l1.198-0.926c1.442-1.008,1.953-0.937,2.118-0.912c0.213,0.03,0.83-0.055,1.147-0.126l0.235-0.054
			c0.255-0.061,0.602-0.142,1.007-0.222c0.26-0.052,0.591-0.118,0.773-0.173c0.022-0.049,0.036-0.094,0.051-0.177
			c0.029-0.163,0.088-1.039,0.126-1.761l0.013-0.229l-0.259-0.101c-0.262-0.017-0.686-0.104-0.825-0.564l-0.161-0.533l0.476-0.327
			c0.083-0.056,0.914-0.582,0.914-0.582l0.186-0.085c1.052-0.314,1.337-0.219,1.557-0.086h0.001c0.025,0,0.329,0.071,0.598,0.123
			c0.838,0.077,1.145,0.229,1.282,0.328c0.065,0.024,0.152,0.044,0.237,0.066c0.393,0.104,0.799,0.212,0.968,0.633
			c0.01,0.012,0.051,0.068,0.092,0.128c0.074,0.109,0.151,0.221,0.214,0.336c0.2-0.014,0.375,0.045,0.53,0.155
			c0.233,0.167,0.364,0.431,0.388,0.783c0.031,0.113,0.312,0.573,0.584,0.93l0.037,0.049c-0.04-0.348-0.023-0.741,0.149-1.064
			c0.318-0.598,0.613-1.017,0.875-1.246c0.044-0.038,0.088-0.075,0.129-0.111c-0.062-0.418-0.084-1.026,0.271-1.527
			c0.22-0.311,0.512-0.589,0.736-0.781l-0.113-1.734l0.005-0.056c0,0,0.126-1.516,0.133-1.697c0-0.061,0-0.165,0.272-1.503
			c-0.002-0.384-0.013-0.827-0.029-1.057c-0.256-0.283-0.604-0.734-0.667-1.148c-0.052-0.154-0.271-0.623-0.49-1.062l-1.356-0.617
			l-0.338-0.534l-0.661-0.344l-0.119-0.167l-1.986,0.239l1.072-1.314c-0.168-0.686,0.134-1.095,0.298-1.258
			c0.213-0.214,0.242-0.259,0.287-0.327c0.034-0.053,0.072-0.111,0.134-0.192c0.046-0.062,0.11-0.133,0.185-0.207
			c-0.375-0.195-0.731-0.407-0.789-0.441l-0.175-0.146c-0.334-0.376-0.547-0.693-0.634-0.946c-0.027-0.03-0.061-0.06-0.094-0.091
			c-0.104-0.101-0.208-0.205-0.293-0.319c-0.294-0.39-0.384-0.8-0.308-1.413c0.063-0.504,0.525-1.511,0.722-1.921l0.08-0.13
			l0.826-1.087c-0.217-1.024-0.217-1.171-0.217-1.237c-0.01-0.096-0.065-0.291-0.105-0.445l-0.035-0.135
			c-0.035-0.097-0.278-0.562-0.471-0.903l-0.521-0.738l0.055-0.307c0.071-0.405,0.121-0.875,0.107-1.004l-0.12-0.721l-1.243-1.139
			l-0.606-1.516c-0.005-0.001-0.362-0.664-0.468-0.876c-0.239-0.478-0.38-1.354,0.222-1.806c0.153-0.115,0.427-0.384,0.531-0.487
			l0.27-0.372l0.03-0.587l-0.773-0.988l-1.717-1.615c-0.245-0.13-0.558-0.396-0.912-0.926c-0.343-0.517-0.619-1.137-0.754-1.46
			l-0.904-0.646l-1.021-0.46c-0.259-0.142-0.461-0.272-0.615-0.395c-0.284,0.004-0.652-0.046-0.898-0.398
			c-0.35-0.504-0.057-1.122,0.054-1.355c0.2-0.423,0.331-0.663,0.416-0.819c0.033-0.062,0.058-0.104,0.073-0.139
			c-0.017-0.054-0.025-0.146-0.035-0.245c-0.027-0.314-0.065-0.744,0.036-1.199c0.142-0.632,0.65-1.278,0.751-1.401l0.149-0.139
			l1.356-0.954l1.024-1.496c0.059-0.063,0.03-0.106-0.013-0.171c-0.279-0.418-0.425-0.745-0.521-0.961
			c-0.031-0.069-0.054-0.127-0.08-0.171c-0.574-0.429-0.739-0.836-0.724-1.177l-0.724,1.25l0.191-3.166
			c0.018-0.282,0.144-0.531,0.354-0.7c0.344-0.275,0.822-0.581,1.501-0.482c0.071,0.01,0.144,0.018,0.212,0.023
			c0.057-0.337,0.135-0.666,0.236-0.87c0.036-0.073,0.079-0.146,0.123-0.219c-0.259-0.253-0.582-0.587-0.837-0.854
			c-0.494-0.187-0.945-0.636-0.945-1.316c0-0.368,0.023-0.833,0.041-1.113l-0.615-1.04l-0.305-1.168l-0.119,0.036l-1.139-0.536
			l-0.886-0.276c-0.402-0.008-1.386-0.056-1.386-0.056l-0.29-0.014l-0.204-0.206c0,0-0.234-0.229-0.647-0.505
			c-0.396-0.265-0.862-0.599-1.04-0.727c-0.273-0.12-0.731-0.386-0.851-0.859l-0.033-0.108c-0.06-0.183-0.214-0.656,0.003-1.047
			l0.182-0.864c-0.076-0.056-0.151-0.118-0.229-0.195c-0.12-0.119-0.188-0.235-0.232-0.338c-0.019-0.014-0.042-0.028-0.068-0.045
			c-0.291-0.181-0.472-0.361-0.604-0.494c-0.042-0.041-0.075-0.081-0.116-0.109l-0.102-0.034c-0.259-0.091-0.948-0.333-0.948-1.087
			v-1.241l0.554-0.426c-0.065-0.21-0.118-0.451-0.118-0.676c0-0.035,0-0.071,0.001-0.109c-0.289,0.22-0.413,0.298-0.445,0.317
			l-0.328,0.196l-0.317-0.136c-0.168,0.151-0.41,0.409-0.541,0.557l-0.382,0.43l-0.514-0.257c-0.348-0.174-0.806-0.424-1.012-0.63
			c-0.136-0.136-0.631-0.667-0.818-0.869l-1.108-0.679l-1.223-1.075l-0.962-0.229l-1.525-0.447l0.07-1.754l-0.283-0.565
			c-0.058,0.086-0.102,0.155-0.141,0.217c-0.104,0.162-0.183,0.285-0.304,0.437c-0.222,0.277-0.467,0.386-0.631,0.438
			c-0.528,0.603-1.178,0.291-1.375,0.172c-0.318-0.189-0.713-0.526-0.757-0.564l-0.109-0.091h-0.101l-0.853,0.568l-0.545-0.055
			l-0.311,0.208c-0.424,0.609-0.641,0.854-0.764,0.967l-0.002,0.573c0.018,0.228-0.041,0.515-0.255,0.736
			c-0.13,0.131-0.414,0.342-0.891,0.262c-0.495-0.083-0.874-0.37-0.945-0.426l-0.131-0.136c-0.141-0.188-0.243-0.371-0.309-0.546
			c-0.111,0.138-0.221,0.27-0.304,0.354c-0.02,0.029-0.061,0.105-0.108,0.188c-0.15,0.257-0.337,0.578-0.608,0.795
			c-0.065,0.052-0.124,0.095-0.178,0.131c-0.152,0.206-0.427,0.555-0.595,0.768l-0.024,0.316c0.017,0.044,0.037,0.095,0.058,0.15
			c0.112,0.287,0.25,0.651,0.29,0.81l0.144,0.572l-1.033,1.33l-1.668-1.112l-0.138-0.827c-0.059-0.005-0.11-0.013-0.154-0.019
			c-0.03-0.005-0.056,0.004-0.078,0.015c-0.115,0.294-0.373,0.592-0.959,0.592c-0.345,0-1.09-0.124-1.333-0.166l-1.247-0.05
			l-0.581,0.078l-0.821,0.526l0.123,1.354l-0.763,1.102l-0.188,0.086c-0.052,0.023-0.108,0.052-0.161,0.081v0.435
			c0,0.017,0.003,0.027,0.033,0.099c0.304,0.706-0.101,1.11-0.367,1.288c-0.355,0.237-0.989,0.556-1.061,0.592l-0.289,0.145
			l-1.125-0.457c-0.004-0.002-0.311-0.258-0.515-0.411c-0.011-0.008-0.026-0.017-0.046-0.025c-0.086,0.031-0.177,0.047-0.272,0.047
			h-0.001c-0.14,0-0.612-0.048-0.815-0.658c-0.102-0.303-0.085-0.693-0.043-1.008c-0.032-0.019-0.067-0.037-0.107-0.052
			c-0.215-0.081-0.682-0.197-1.058-0.283l-0.062,0.041l-0.952,0.527l-0.704,0.223l0.029,0.014l0.535,0.891l-0.945,1.211
			c-0.115,0.086-0.406,0.277-0.741,0.308l0.473,0.643l-1.188-0.231l-0.015,0.011l-1.315-0.279l-0.093-0.515l-1.219-1.654
			l1.411,0.502l0.338-0.308l0.177-0.357c-0.046-0.091-0.086-0.191-0.121-0.304c-0.063-0.009-0.112-0.016-0.114-0.016l-0.211-0.028
			l-0.504-0.413l-0.708-0.425l-0.068-0.318c-0.099-0.459-0.099-0.508-0.099-0.58c0-0.113,0-0.159,0.199-0.775l0.063-0.194
			l0.521-0.462l0.228-0.521l0.768-0.417l1.17,0.192c0.144,0.067,0.259,0.123,0.352,0.172l0.325-0.336c0,0,0.535-0.379,0.577-0.408
			c0.018-0.014,0.084-0.073,0.128-0.117c0.071-0.144,0.239-0.372,0.706-0.873l0.073-0.088c0.035-0.065,0.089-0.167,0.138-0.261
			c-0.058-0.17-0.125-0.365-0.125-0.365c-0.006-0.016-0.167-0.521-0.183-0.58c-0.114-0.204-0.214-0.425-0.214-0.674l-0.005-0.108
			c-0.018-0.349-0.033-0.65,0.141-0.916c0.003-0.004,0.006-0.008,0.009-0.012c-0.088-0.005-0.164-0.014-0.235-0.029
			c-0.076-0.017-0.163-0.048-0.259-0.088c-0.027-0.011-0.058-0.028-0.094-0.036c-0.109,0.016-0.357,0.005-0.596-0.011
			c-0.07-0.005-0.138-0.01-0.196-0.013c-0.017,0.013-0.034,0.031-0.057,0.053c-0.217,0.216-0.688,0.702-0.689,0.702l-0.626,0.826
			l-0.312,0.035c0,0-0.655,0.074-0.701,0.074c-0.015,0-1.327-0.065-1.518-0.831c-0.05-0.094-0.163-0.272-0.207-0.331v0
			c-0.007,0-0.294-0.278-0.373-0.345l-0.124-0.1c-0.062-0.032-0.138-0.072-0.22-0.119c-0.148-0.085-0.339-0.197-0.423-0.235
			c-0.045-0.006-0.818-0.183-0.818-0.183l-0.22-0.089c-0.001,0-0.784-0.474-0.916-0.544l0.001-0.002
			c-0.046-0.022-0.106-0.053-0.177-0.09c-0.143-0.078-0.265-0.144-0.366-0.197c-0.142,0.151-0.288,0.311-0.331,0.361
			c-0.034,0.041-0.118,0.122-0.232,0.217c-0.081,0.069-0.252,0.211-0.302,0.288c-0.086,0.128-0.173,0.239-0.252,0.339
			c-0.027,0.035-0.054,0.066-0.077,0.097c-0.031,0.238-0.174,0.579-0.704,0.719l-0.111,0.032c-0.229,0.068-0.703,0.209-1.128-0.173
			c-0.102-0.092-0.195-0.167-0.258-0.216c-0.259-0.208-0.327-0.454-0.372-0.643l-0.029-0.071c-0.198-0.486,0.128-0.804,0.39-1.061
			l0.164-0.173c0.118-0.131,0.276-0.305,0.427-0.451c-0.211,0.18-0.458,0.34-0.641,0.406c-0.068,0.035-0.43,0.274-0.529,0.347
			c-0.062,0.046-0.613,0.372-0.613,0.372l-0.364,0.215l-0.487-0.228c-0.269-0.005-0.77-0.015-1.035-0.445
			c-0.185-0.259-0.662-0.934-0.123-1.471l0.105-0.112c0.09-0.098,0.187-0.202,0.288-0.294c0.036-0.034,0.087-0.09,0.143-0.15
			c0.283-0.307,0.512-0.555,0.85-0.595c0.052-0.015,0.122-0.04,0.188-0.064c0.068-0.095,0.15-0.21,0.218-0.303
			c-0.002-0.306-0.023-0.847-0.023-0.849c-0.001-0.023-0.001-0.225,0.007-0.421l-0.005,0.007c-0.844,1.137-1.111,1.478-1.256,1.614
			c-0.072,0.097-0.281,0.4-0.884,1.352l-0.073,0.114c-0.302,0.452-1.186,0.48-1.194,0.48c-0.057,0-0.375-0.042-0.731-0.098
			c-0.331-0.051-0.704-0.112-0.829-0.12l-0.257,0.009c-0.713,0.024-0.839,0.024-1.018-0.046c-0.194-0.079-0.584-0.237-0.584-1.407
			c0-0.227,0.422-1.444,1.172-1.444c0.144,0,0.219,0,1.383,0.458l0.296-0.011l1.025-1.172l1.271-1.219l1.095-1.264l-0.033-0.417
			L116.1,5.974c-0.15,0.228-0.405,0.367-0.697,0.38c-0.396,0.006-0.841-0.19-1.07-0.48c-0.092-0.114-0.166-0.262-0.291-0.514
			c-0.036-0.074-0.073-0.151-0.107-0.219c-0.154-0.032-0.381-0.069-0.558-0.093l-0.099-0.02c-1.198-0.327-1.382-0.396-1.549-0.726
			c-0.016-0.032-0.13-0.285-0.231-0.511c-0.218,0.132-0.401,0.252-0.458,0.302c-0.111,0.158-0.521,0.551-0.733,0.672
			c-0.102,0.058-0.279,0.193-0.325,0.254c-0.043,0.075-0.102,0.241-0.16,0.39c-0.162,0.417-0.26,0.669-0.56,0.819
			c-0.201,0.101-0.276,0.139-1.951-0.034l-0.181-0.019l-0.152-0.1c0,0-1.019-0.667-1.075-0.709c-0.025-0.019-0.201-0.175-0.41-0.367
			c-0.215-0.196-0.475-0.435-0.601-0.543c-0.335-0.143-1.554-0.627-1.554-0.627c-1.865-0.487-1.924-0.511-1.976-0.532
			c-0.099-0.039-0.15-0.059-1.49-1.025c-0.021,0.06-0.035,0.109-0.046,0.149c0.154,0.362,0.518,1.292,1.462,3.855l0.977,1.737
			c1.018,1.1,1.051,1.157,1.097,1.235l0.128,0.195c0.822,1.254,0.834,1.296,0.874,1.436c0.029,0.102,0.232,1.093,0.232,1.093
			l0.091,0.443l-0.351,0.286c-0.271,0.224-0.638,0.51-0.835,0.609c-0.157,0.078-0.401,0.144-1.463,0.356l-0.205,0.042
			c-0.107,0.036-1.068,0.135-1.431,0.171c-0.079,0.019-0.301,0.085-0.515,0.152C99.895,14.08,99.9,14.11,99.9,14.11l0.08,0.456
			l-0.124,0.089c0.192-0.015,0.431,0.018,0.843,0.08c0.07,0.011,0.169,0.023,0.253,0.029c0.057-0.033,0.122-0.078,0.2-0.151
			c0.05-0.047,0.079-0.087,0.104-0.121c0.144-0.185,0.315-0.375,0.701-0.498c0.41-0.13,1.567-0.063,1.864,0.529
			c0.049,0.098,0.445,0.915,0.25,1.464c-0.052,0.258-0.2,0.877-1.038,1.194c-0.349,0.132-0.574,0.249-0.695,0.322
			c-0.043,0.267-0.097,0.75-0.117,0.933c-0.004,0.04-0.009,0.076-0.013,0.109c0.024,0.073,0.058,0.163,0.09,0.246l1.349,0.833
			l0.083,0.267c0.249,0.797,0.208,1,0.184,1.121c-0.143,0.71-0.234,0.932-0.354,1.092c-0.16,0.217-0.383,0.307-0.634,0.353
			c0.164,0.201,0.301,0.401,0.345,0.548c0.035,0.118,0.168,0.511,0.248,0.721l0.358,0.267c0.188,0.077,0.629,0.258,0.815,0.327
			c0.045,0.004,0.097,0.008,0.154,0.014c0.247,0.021,0.625,0.057,0.743,0.058c0.168,0,0.962,0.051,1.269,0.139
			c0.209,0.06,1.702,0.693,1.857,0.788c0.112,0.067,0.165,0.099,1.332,1.426c0.048,0.062,0.394,0.562,0.532,0.753l0.067,0.05
			c0.322,0.238,0.495,0.374,0.608,0.5c0.021,0.023,0.062,0.06,0.107,0.103c0.285,0.267,0.531,0.512,0.653,0.806l0.1,0.238
			c0.105,0.248,0.221,0.53,0.253,0.641c0.017,0.054,0.058,0.17,0.1,0.289c0.026,0.075,0.053,0.151,0.075,0.219
			c0.131,0.108,0.396,0.304,0.643,0.471l0.169,0.157l0.324,0.41l-0.003,0.041c0.054,0.027,0.108,0.055,0.161,0.082
			c0.207,0.104,0.389,0.207,0.461,0.263c0.061,0.038,0.346,0.183,0.477,0.238c0.099,0.015,0.252,0.045,0.547,0.105
			c0.079,0.016,0.152,0.031,0.205,0.041c0.274-0.034,0.588-0.048,0.856,0.049c0.038,0.014,0.088,0.026,0.136,0.039l0.291,0.076
			l0.158,0.256c0.206,0.336,0.159,0.752-0.117,1.035c-0.347,0.351-0.672,0.519-1.408,0.47c-0.397-0.028-0.593-0.057-0.788-0.086
			c-0.092-0.013-0.184-0.026-0.304-0.04c-0.496-0.055-0.777-0.228-0.982-0.354c-0.044-0.026-0.104-0.053-0.172-0.078l-0.162,1.28
			l-1.265-1.584l-0.239-0.559c-1.027-0.16-1.236-0.438-1.332-0.565c-0.183-0.244-0.638-1.173-0.894-1.706l0,0
			c-0.001,0-0.357-0.662-0.512-0.92c-0.107-0.11-0.919-0.722-1.586-1.188l-0.177-0.124l-0.397-0.945l-1.344-0.537
			c-0.345-0.084-0.857-0.18-1.039-0.155c-0.422,0.175-1.299,0.304-1.804,0.366l-0.078,0.01l-1.593-0.186l-1.422-0.712l-0.418-0.365
			l-0.768,0.567c-0.151,0.104-0.309,0.249-0.344,0.312c-0.076,0.235-0.114,0.431-0.114,0.609c0,0.216-0.058,0.505-0.146,0.921
			c-0.033,0.156-0.065,0.297-0.074,0.373c0.005,0.084,0.043,0.402,0.071,0.637l0.56,0.539c0.121,0.013,0.284,0.032,0.505,0.061
			c0.37-0.12,0.505-0.12,0.567-0.12c0.345-0.021,0.803-0.046,1.101,0.298l0.241,0.278l-0.009,0.059
			c0.291,0.395,0.205,0.761,0.115,0.964c-0.127,0.287-0.35,0.456-0.503,0.569c-0.012,0.155-0.018,0.309-0.017,0.398
			c0.124,0.223,0.257,0.479,0.257,0.799c0.004,0.066,0.027,0.16,0.049,0.259c0.052,0.247,0.111,0.527,0.084,0.797
			c-0.004,0.043,0.001,0.087,0.003,0.129c0.011,0.234,0.037,0.782-0.487,1.111c-0.396,0.25-0.945,0.306-1.106,0.306
			c-0.115,0-0.666-0.028-0.666-0.028l-0.3-0.016l-0.225-0.239c-0.05,0.238-0.16,0.621-0.374,1.301l0.12,0.483l-0.006,0.112
			c-0.021,0.369-0.035,0.841-0.024,0.953c0.034,0.274-0.063,0.526-0.168,0.793c-0.021,0.053-0.05,0.128-0.071,0.191
			c0.142,0.277,0.345,0.715,0.49,1.034l0.217,0.109l0.01,0.531c-0.026,0.312-0.065,0.642-0.102,0.804l-0.217,0.945L96.185,41.7
			l-1.013-0.919l-0.476-1.364l0.104-0.261c0.077-0.192,0.149-0.426,0.182-0.578c-0.197-0.372-0.065-0.896,0.029-1.276
			c0.027-0.15,0.106-0.924,0.106-0.926l-0.024-1.096c-0.026-0.378,0.003-0.947,0.304-1.298c0.046-0.054,0.125-0.161,0.216-0.284
			c0.112-0.15,0.21-0.28,0.297-0.392l-0.463-0.205l-1.035-0.708c-0.068-0.053-0.575-0.492-0.691-0.581
			c-0.015-0.009-0.029-0.019-0.045-0.029c-0.09,0.042-0.188,0.09-0.275,0.132c-0.07,0.167-0.156,0.374-0.194,0.486
			c-0.006,0.037-0.014,0.072-0.021,0.108c0.02,0.024,0.038,0.049,0.054,0.073c0.092,0.004,0.181,0.022,0.267,0.058
			c0.341,0.139,0.463,0.444,0.503,0.545c0.018,0.044,0.039,0.078,0.057,0.108c0.092,0.159,0.283,0.489,0.122,0.977
			c0.014-0.039,0.023-0.01,0.025,0.031c0.024,0.229,0.07,0.656-0.228,1.038c-0.067,0.087-0.153,0.189-0.239,0.291
			c-0.07,0.084-0.142,0.166-0.191,0.231c-0.078,0.248-0.256,0.501-0.528,0.635c-0.33,0.16-0.711,0.113-1.019-0.127
			c-0.223-0.173-0.396-0.436-0.516-0.656l-0.398-0.111l-0.847-0.336l-0.252-1.069l0.171-1.16l0.771-0.529l0.11-0.006
			c0.006-0.156,0.011-0.316,0.014-0.419c-0.084-0.302-0.187-0.61-0.231-0.694c-0.146-0.199-0.215-0.507-0.288-0.885
			c-0.007-0.037-0.014-0.072-0.02-0.104c-0.353-0.536-0.396-0.662-0.414-0.718c-0.195-0.47-0.304-0.788-0.304-1.075
			c-0.011-0.032-0.07-0.157-0.131-0.277c-0.118-0.02-0.233-0.032-0.239-0.033l-0.38-0.066c-0.655,0.101-1.393,0.222-1.6,0.269
			c-0.128,0.054-0.311,0.098-0.683,0.186c-0.197,0.046-0.399,0.092-0.497,0.124c-0.2,0.067-0.457,0.084-0.855,0.104
			c-0.11,0.006-0.219,0.01-0.305,0.017c-0.132,0.108-0.274,0.238-0.317,0.297c-0.156,0.484-0.59,0.593-0.973,0.688
			c-0.586,0.147-1.088,0.213-1.326,0.213c-0.059,0-0.237,0-1.264-0.205l-0.128-0.037c-0.269-0.105-0.601-0.207-0.743-0.229
			c-0.107,0.024-0.246,0.047-0.396,0.067c-0.101,0.013-0.27,0.036-0.371,0.06c-0.217,0.252-0.576,0.598-0.694,0.71
			c-0.434,0.522-0.562,0.619-0.611,0.655c-0.1,0.074-0.201,0.117-0.314,0.157c0.009,0.039,0.018,0.076,0.024,0.111
			c0.009,0.037,0.015,0.073,0.022,0.104c0.136,0.186,0.34,0.5,0.34,0.5l0.173,0.268l-0.394,1.692l-0.686-0.104
			c-0.139-0.021-0.292-0.037-0.426-0.047c-0.003,0.025-0.003,0.05,0.001,0.077c0.046,0.348-0.009,0.691-0.049,0.942
			c-0.013,0.085-0.028,0.16-0.029,0.22l0.011,0.081c0.01,0.081,0.029,0.256,0.051,0.388c0.031,0.021,0.062,0.045,0.095,0.068
			c0.077,0.058,0.16,0.121,0.226,0.165c0.081,0.013,0.176,0.022,0.18,0.023c0.015,0.001,0.648,0.084,0.841,0.112
			c0.188,0.022,0.868,0.018,0.874,0.02h0.143l1.176,0.463l0.11,0.11c0.433,0.433,0.497,0.528,0.528,0.573
			c0.063,0.091,0.337,0.427,0.428,0.52c0.36,0.35,0.653,0.635,0.653,1.045c0.005,0.204,0.014,0.624-0.229,1.068
			c-0.016,0.548-0.396,0.798-0.746,0.846c-0.665,0.086-1.142-0.564-1.293-0.877c-0.043-0.073-0.145-0.215-0.235-0.346
			c-0.098-0.14-0.187-0.27-0.224-0.331c-0.072-0.119-0.265-0.383-0.265-0.383l-0.014-0.018c-0.086,0.026-0.164,0.053-0.227,0.075
			l0.262,0.797l0.027,1.579c0.137,1.449,0.137,1.525,0.137,1.565c0.006,0.148,0.134,1.991,0.134,1.991l0.005,0.068l-0.008,0.068
			c0,0.001-0.096,0.837-0.104,0.997c0,0.31-0.5,1.517-0.589,1.649c-0.065,0.11-0.435,0.814-0.489,0.949
			c-0.007,0.04-0.331,1.08-0.428,1.389c-0.022,0.333-0.099,1.493-0.102,1.662c0,0.18-0.24,1.415-0.426,1.693
			c-0.056,0.083-0.456,0.628-0.456,0.628l-0.271,0.367l-0.45-0.072c-0.26-0.041-0.581-0.066-0.671-0.059
			c-0.272,0.063-0.64-0.009-1.346-0.193c-0.07-0.019-0.13-0.034-0.169-0.044c-0.124-0.015-0.239-0.058-0.396-0.116
			c-0.085-0.031-0.186-0.072-0.267-0.094c-0.075,0.002-0.146-0.002-0.217-0.007c-0.265-0.016-0.408-0.008-0.492,0.092
			c-0.289,0.343-0.388,0.612-0.399,0.68c0.003,0.184-0.085,0.401-0.24,0.767c-0.052,0.122-0.105,0.24-0.127,0.317
			c-0.007,0.066-0.004,0.337,0.01,0.494c0.078,0.084,0.271,0.289,0.697,0.718c0.113,0.048,0.352,0.128,0.588,0.2
			c0.66-0.028,0.817,0.06,0.917,0.108c0.11-0.035,0.281-0.062,0.433-0.085c0.005-0.001,0.01-0.002,0.016-0.003
			c0.066-0.083,0.155-0.188,0.276-0.318l0.312-0.34l0.444,0.126c0.103,0.029,0.63,0.196,0.979,0.634l0.146,0.178
			c0.327,0.393,0.563,0.677,0.563,1.054c0.035,0.259,0.113,0.865-0.356,1.235l0.007,0.011c0.097,0.164,0.175,0.297,0.236,0.408
			l1.401,0.016l-1.868,2.185c-0.002,0.001-0.617,0.491-0.828,0.674c-0.117,0.196-0.418,0.728-0.556,0.986
			c0.012,0.148,0.027,0.349,0.027,0.35l0.04,0.484l-0.427,0.233c-0.542,0.297-0.689,0.329-0.865,0.324
			c-0.065,0.104-0.139,0.238-0.161,0.319c-0.032,0.117-0.084,0.278-0.138,0.444c-0.025,0.079-0.052,0.158-0.076,0.233
			c0.125,0.119,0.247,0.272,0.321,0.482c0.367,1.057,0.276,1.237,0.181,1.429c-0.018,0.035-0.113,0.177-0.247,0.348
			c-0.123,0.156-0.291,0.365-0.354,0.47c0.01,0.007-0.004,0.13-0.021,0.247c-0.05,0.352-0.087,0.605-0.27,0.818
			c-0.004,0.004-0.393,0.457-0.599,0.597c-0.204,0.135-0.407,0.152-0.812,0.186c-0.117,0.009-0.238,0.017-0.323,0.029
			c-0.188,0.074-0.536,0.136-1.497,0.296c-0.296,0.049-0.549,0.091-0.632,0.109c-0.097,0.032-0.201,0.07-1.686-0.031
			c-0.128,0.154-0.27,0.324-0.333,0.395c-0.272,0.303-0.946,0.553-1.367,0.414c-0.085-0.018-0.52-0.078-0.522-0.079l-0.172-0.024
			l-1.033-0.704c-0.115,0.507-0.406,1.039-0.411,1.046c-0.019,0.033-0.041,0.082-0.066,0.135c-0.129,0.27-0.275,0.574-0.537,0.763
			c-0.084,0.062-0.188,0.137-0.555,0.194c0.014,0.061,0.021,0.124,0.021,0.191c0.001,0.194,0.095,1.043,0.158,1.235
			c0.044,0.075,0.297,0.458,0.513,0.79c0.302,0.462,0.391,0.599,0.432,0.695c0.085,0.158,0.37,0.647,0.599,1.042
			c0.181,0.311,0.328,0.568,0.345,0.602c0.08,0.157,0.458,1.396,0.482,1.613c0.03,0.272-0.188,1.603-0.334,1.891
			c-0.027,0.055-0.112,0.25-0.208,0.468c-0.394,0.893-0.408,0.922-0.523,1.04c-0.048,0.057-0.296,0.381-0.297,0.383l-0.18,0.174
			c-0.039,0.047-0.126,0.166-0.239,0.408l-0.188,0.395c-0.072,0.15-0.138,0.28-0.184,0.383c0.224,0.565,0.38,0.904,0.465,1.009
			c0.583,0.396,0.832,1.073,0.564,1.666c-0.137,0.299-0.419,0.599-0.774,0.961c-0.074,0.075-0.138,0.138-0.171,0.178
			c-0.133,0.189-0.262,0.373-1.949,0.641c-0.262,0.078-0.664,0.199-0.827,0.258c-0.031,0.025-0.062,0.049-0.09,0.072
			c0.007,0.032,0.014,0.062,0.021,0.089c0.211,0.122,0.482,0.315,0.847,0.586l0.127,0.094c0.284,0.172,0.719,0.933,0.797,1.269
			c0.074,0.318-0.013,0.548-0.1,0.685c-0.05,0.077-0.308,0.396-0.587,0.73c-0.193,0.232-0.396,0.475-0.52,0.629
			c0.006,0.097,0.021,0.215,0.031,0.329c0.03,0.307,0.048,0.503,0.028,0.676c0-0.001-0.031-0.003,0.255,1.255
			c0.039,0.154,0.247,0.854,0.362,1.239l0.789,0.543c0.613,0.613,0.778,0.778,0.778,1.13c0,0.167-0.028,0.236-0.215,0.689
			c-0.055,0.134-0.113,0.274-0.146,0.363c-0.02,0.293-0.019,0.437-0.015,0.505c0.077,0.143,0.211,0.399,0.356,0.677
			c0.227,0.435,0.479,0.922,0.545,1.03c0.075,0.118,0.694,1.363,0.726,1.771c0.004,0.045,0.02,0.134,0.037,0.24
			c0.099,0.606,0.133,0.899,0.088,1.141c-0.004,0.062,0.01,0.184,0.018,0.297l0.013,0.163l-0.056,0.174
			c-0.384,1.035-0.426,1.099-0.484,1.185c-0.107,0.161-0.254,0.266-0.646,0.544c-0.146,0.103-0.388,0.273-0.533,0.39
			c-0.027,0.156-0.072,0.396-0.146,0.788c-0.124,0.655-0.382,2.019-0.387,2.275c0.035,0.262,0.068,1.804,0.081,2.479
			c0.321,0.673,0.711,1.344,0.863,1.48c0.396,0.233,1.885,1.469,2.179,1.714l0.225,0.187l0.039,0.289
			c0.258,1.911-0.217,2.326-0.372,2.463c-0.186,0.161-0.46,0.317-0.891,0.554c-0.153,0.085-0.382,0.21-0.531,0.303
			c-0.043,0.248-0.127,0.672-0.286,1.456c-0.1,0.485-0.189,0.922-0.205,1.039l-0.028,0.705c0.019,0.013,0.042,0.027,0.068,0.043
			c0.246,0.144,0.513,0.316,0.736,0.462c0.163,0.106,0.297,0.196,0.371,0.234l0,0c0.01,0,1.138,0.395,1.408,1.004
			c0.076,0.104,0.299,0.312,0.389,0.363l0.191,0.087c0.614,0.274,1.099,0.49,1.218,0.974c0.039,0.155,0.275,0.943,0.276,0.944
			l0.115,0.386l-0.257,0.31c-0.2,0.241-0.415,0.563-0.45,0.676c0.02,0.136,0.273,1.213,0.373,1.438
			c0.007,0.007,0.039,0.068,0.077,0.141c0.093,0.177,0.266,0.506,0.453,0.6c0.081,0.04,0.153,0.082,0.22,0.123
			c0.139-0.55,0.474-1.224,1.12-1.224c0.04-0.002,0.138-0.015,0.254-0.028c0.926-0.108,1.594-0.189,1.889,0.403
			c0.029,0.06,0.057,0.133,0.081,0.218c0.254-0.154,0.516-0.306,0.632-0.372l0.579-0.331l0.396,0.537
			c0.437,0.593,0.636,1.028,0.616,1.383c0.319,0.023,0.62,0.046,0.863,0.289c0.176,0.176,0.264,0.28,0.426,0.603
			c0.003,0.005,0.005,0.009,0.007,0.013c0.001,0,0.002,0,0.003,0.001c0.116-0.389,0.229-0.502,0.3-0.573
			c0.135-0.134,0.523-0.48,0.523-0.48l0.083-0.064c0.924-0.616,1.268-0.616,1.396-0.616c0.059,0,0.093-0.004,0.119-0.007
			c0.123-0.015,0.261-0.025,0.472,0.029c0.013-0.002,0.17,0.004,0.367,0.013l0.279,0.011l0.204,0.191
			c0.165,0.155,0.341,0.294,0.402,0.336c1.573,1.058,1.718,1.394,1.788,1.556c0.018,0.018,0.126,0.104,0.294,0.205
			c0.304-0.131,1.121-0.451,1.717,0.266c0.295,0.353,0.732,1.023,1.005,1.454l0.801-0.06c0.272-0.342,0.623-0.494,0.994-0.425
			c0.188,0.038,0.458,0.162,0.804,0.37c0.196-0.19,0.484-0.396,0.865-0.362c0.166,0.017,0.477,0.097,0.698,0.452
			c0.062,0.1,0.122,0.209,0.183,0.321c0.075,0.141,0.203,0.377,0.275,0.423l0.177,0.111l0.094,0.187
			c0.004,0.008,0.125,0.255,0.218,0.38c0.051,0.056,0.312,0.281,0.546,0.476l1.113,0.382l-2.429,2.31
			c-0.13,0.468-0.261,0.984-0.274,1.117l-0.015-0.002c0.078,0.68-0.065,1.816-0.324,2.071c-0.263,0.268-0.549,0.282-1.437,0.146
			l-0.315,0.169l-0.192,0.819l-1.261,1.387l-0.422,1.429l-0.606,2.325c-0.026,0.083-0.318,0.834-0.368,1
			c-0.016,0.097-0.271,1.687-0.271,1.688l-0.041,0.152l-1.198,3.055l-1.31,2.194l0.114,0.671l0.723,1.204l-0.119,0.334
			c-0.281,0.789-0.362,0.872-0.458,0.969c-0.06,0.061-0.43,0.454-0.578,0.614l-0.527,0.941c-0.216,0.467-0.459,0.994-0.625,1.362
			c0.132,0.088,0.265,0.172,0.323,0.204c0.429,0.217,0.801,1.173,0.709,1.627c-0.073,0.363-0.348,0.622-0.758,0.975
			c-0.011,0.009-0.021,0.018-0.03,0.025c0.001,0.009,0.002,0.017,0.004,0.024c0.163,0.157,0.352,0.34,0.521,0.51
			c0.631-0.334,0.753-0.375,0.8-0.391c0.25-0.084,0.494-0.102,1.434,0.367l0.309,0.154l0.271,1.09
			c0.36-0.028,0.845,0.138,1.811,0.608c0.294,0.008,1,0.008,1.29-0.021c2.035-1.449,2.065-1.459,2.198-1.504
			c0.038-0.021,0.279-0.154,0.395-0.228l0.16-0.214l0.373-0.01c0.318-0.007,0.496-0.009,1.815,1.62
			c0.112-0.013,0.249-0.031,0.369-0.053l0.109-0.012c0.362-0.011,0.803-0.035,1.051-0.062c0.096-0.109,0.22-0.236,0.363-0.354
			c-0.418-0.258-0.829-0.708-1.078-1.047c-0.17-0.233-0.237-0.513-0.188-0.787c0.093-0.522,0.552-0.827,0.827-1.009
			c0.316-0.212,0.692-0.253,1.143-0.261c0.073-0.206,0.147-0.439,0.161-0.529c0.046-0.553,0.553-0.909,1.354-0.937
			c0.513,0.011,1.043-0.008,1.174-0.039c0.789-0.198,1.812,0.743,1.932,1.101c0.07,0.209,0.062,0.377-0.079,0.803
			c0.052,0.071,0.102,0.139,0.147,0.199c0.153-0.126,0.436-0.239,1.527-0.305l0.464-0.027l0.231,0.404
			c0.06,0.101,0.169,0.225,0.241,0.277c0.563-0.175,1.342,0.029,2.642,0.679l0.085,0.042c0.302,0.11,0.483,0.386,0.749,0.918
			c0.032,0.081,0.071,0.174,0.113,0.267c0.211-0.222,0.417-0.427,0.585-0.553c0.5-0.374,1.172-0.142,2.159,0.391
			c0.19,0.097,0.318,0.161,1.338,1.386l0.601,0.639l2.413-0.511l-1.955,1.81c-0.012,0.108-0.011,0.268,0.001,0.338
			c0.019,0.076,0.115,0.342,0.22,0.614c0.161,0.074,0.322,0.146,0.455,0.202c0.01-0.012,0.021-0.024,0.031-0.037l0.203-0.234
			c0.191-0.216,0.444-0.444,0.668-0.644c0.111-0.101,0.215-0.188,0.284-0.259c0.04-0.124,0.074-0.313,0.115-0.509
			c0.071-0.345,0.146-0.7,0.252-0.958l0.159-0.383l3.016-0.514l0.227,0.121c0.138,0.074,0.44,0.131,0.569,0.155
			c0.166,0.033,0.283,0.067,0.418,0.11c0.176,0.056,0.375,0.119,0.566,0.139c0.462,0.046,0.714,0.26,0.845,0.43
			c0.114,0.15,0.183,0.333,0.196,0.516c0.032,0.168,0.07,0.488,0.045,0.99l0.089,0.007l0.199,0.216
			c0.158,0.17,0.402,0.358,0.5,0.387c0.171,0.034,0.578,0.116,0.755,0.526c0.171,0.399-0.037,0.729-0.125,0.87
			c-0.035,0.056-0.085,0.131-0.13,0.239c-0.115,0.274-0.194,0.396-0.266,0.497c-0.001,0.003-0.003,0.006-0.005,0.009
			c0.063,0.044,0.126,0.086,0.181,0.12l0.059-0.02l0.316,0.182C119.542,173.716,119.712,173.898,119.922,175.077z M119.071,173.492
			L119.071,173.492L119.071,173.492z M135.272,173.061L135.272,173.061L135.272,173.061z M109.33,170.562l-0.05,0.04
			C109.299,170.59,109.314,170.576,109.33,170.562z M162.668,170.271c-0.003,0.002-0.005,0.005-0.008,0.007
			C162.663,170.275,162.665,170.272,162.668,170.271z M131.094,169.669c-0.004,0.006-0.008,0.011-0.012,0.016
			C131.086,169.68,131.09,169.675,131.094,169.669z M116.187,169.506c-0.004,0.022-0.007,0.044-0.008,0.064L116.187,169.506z
			 M82.979,169.269L82.979,169.269L82.979,169.269z M123.924,168.544c0,0.001,0.001,0.002,0.001,0.003L123.924,168.544
			L123.924,168.544z M149.271,168.033c0.007,0.009,0.014,0.017,0.02,0.025C149.283,168.05,149.277,168.042,149.271,168.033
			L149.271,168.033z M149.112,167.892c0.003,0.002,0.005,0.004,0.008,0.006v-0.001C149.117,167.895,149.114,167.894,149.112,167.892
			z M149.08,167.876L149.08,167.876L149.08,167.876z M157.729,167.163c0.002,0.048,0.01,0.093,0.021,0.136L157.729,167.163z
			 M159.223,167.032l0.005,0.053C159.227,167.067,159.225,167.05,159.223,167.032z M150.816,166.647
			c-0.002,0.003-0.004,0.005-0.005,0.007C150.812,166.652,150.814,166.65,150.816,166.647z M158.562,166.429
			C158.562,166.429,158.562,166.429,158.562,166.429C158.562,166.429,158.562,166.429,158.562,166.429z M98.273,165.038
			L98.273,165.038L98.273,165.038z M96.619,164.393c-0.002,0-0.004,0.001-0.006,0.001C96.615,164.394,96.617,164.393,96.619,164.393
			z M95.223,164.054c0,0.003-0.011,0.058-0.03,0.146C95.208,164.156,95.219,164.107,95.223,164.054z M159.858,153.965
			c-0.022,0.011-0.044,0.023-0.063,0.037C159.834,153.979,159.857,153.966,159.858,153.965z M167.795,145.238
			c-0.015,0.008-0.029,0.017-0.045,0.027C167.76,145.259,167.775,145.25,167.795,145.238z M171.034,144.469L171.034,144.469
			L171.034,144.469z M174.579,143.907c0,0.001,0,0.002,0,0.004C174.579,143.909,174.579,143.908,174.579,143.907z M173.285,140.785
			c0,0.022-0.002,0.093-0.024,0.183C173.274,140.919,173.285,140.857,173.285,140.785z M172.498,138.983
			C172.498,138.983,172.498,138.983,172.498,138.983S172.498,138.983,172.498,138.983z M172.498,138.981
			C172.498,138.981,172.498,138.981,172.498,138.981S172.498,138.981,172.498,138.981z M172.497,138.979
			C172.497,138.979,172.497,138.98,172.497,138.979C172.497,138.979,172.497,138.979,172.497,138.979z M169.77,136.821
			c0,0.001,0.001,0.002,0.002,0.003C169.771,136.823,169.77,136.822,169.77,136.821z M166.186,134.502
			C166.186,134.502,166.186,134.502,166.186,134.502S166.186,134.502,166.186,134.502z M69.854,131.441
			c-0.015,0.001-0.026,0.001-0.037,0.001C69.83,131.442,69.842,131.442,69.854,131.441z M66.434,126.91
			c0.001,0.004,0.002,0.008,0.003,0.012C66.436,126.918,66.435,126.914,66.434,126.91z M64.677,125.604
			c0.006,0.024,0.014,0.048,0.021,0.069C64.689,125.65,64.683,125.628,64.677,125.604z M153.263,119.672l-0.061,0.031
			C153.228,119.692,153.248,119.682,153.263,119.672z M150.922,108.878c0.006,0.008,0.012,0.015,0.019,0.021
			c0-0.003-0.001-0.006-0.001-0.009C150.934,108.887,150.928,108.883,150.922,108.878z M150.927,108.771L150.927,108.771
			L150.927,108.771z M156.555,104.844c-0.001,0.002-0.002,0.004-0.003,0.006C156.553,104.848,156.554,104.846,156.555,104.844z
			 M160.031,103.486c0,0.003,0,0.005,0,0.008C160.031,103.492,160.031,103.49,160.031,103.486z M62.91,100.087L62.91,100.087
			L62.91,100.087z M62.851,99.94c0.002,0.003,0.004,0.007,0.006,0.011C62.854,99.947,62.853,99.944,62.851,99.94z M174.049,94.374
			c0.001,0,0.001,0,0.002,0C174.05,94.374,174.05,94.374,174.049,94.374z M182.982,89.687c0.001,0.001,0.001,0.002,0.001,0.003
			C182.983,89.688,182.983,89.688,182.982,89.687z M182.953,89.541c0.011,0.005,0.021,0.009,0.028,0.013
			C182.973,89.549,182.963,89.545,182.953,89.541z M180.486,89.525c0.005,0.004,0.01,0.008,0.015,0.011
			C180.496,89.532,180.491,89.529,180.486,89.525z M62.154,87.314c-0.014,0.016-0.028,0.034-0.042,0.053
			C62.123,87.354,62.137,87.335,62.154,87.314z M63.101,84.138c0.009,0.015,0.024,0.048,0.045,0.095
			C63.134,84.201,63.119,84.169,63.101,84.138z M184.483,74.065l-0.004,0.002C184.481,74.066,184.482,74.066,184.483,74.065z
			 M61.479,73.699L61.479,73.699L61.479,73.699z M61.358,73.327c0,0.025,0.001,0.05,0.004,0.073
			C61.359,73.355,61.358,73.329,61.358,73.327z M184.872,73.253c0,0.001,0.001,0.002,0.001,0.003
			C184.873,73.255,184.872,73.254,184.872,73.253z M184.007,72.644c-0.024,0.009-0.05,0.019-0.074,0.03L184.007,72.644z
			 M62.973,70.792c0.001,0.003,0.001,0.006,0.002,0.008C62.974,70.798,62.974,70.795,62.973,70.792z M77.44,60.238
			c0.007,0.024,0.013,0.048,0.018,0.071C77.453,60.285,77.448,60.262,77.44,60.238z M76.948,59.374
			c-0.002,0.001-0.004,0.002-0.006,0.004C76.944,59.376,76.946,59.375,76.948,59.374L76.948,59.374z M75.836,58.117L75.836,58.117
			L75.836,58.117z M75.836,58.116L75.836,58.116L75.836,58.116z M74.421,57.063c-0.002,0.004-0.004,0.008-0.006,0.012
			C74.417,57.072,74.419,57.068,74.421,57.063z M73.394,53.492L73.394,53.492L73.394,53.492z M172.983,48.128
			c0.008,0.012,0.017,0.023,0.025,0.035C173,48.151,172.991,48.14,172.983,48.128z M173.715,47.523L173.715,47.523L173.715,47.523z
			 M95.344,38.91c0.003,0.002,0.007,0.003,0.01,0.005C95.351,38.913,95.348,38.912,95.344,38.91z M97.093,38.834
			c0.001,0.001,0.002,0.002,0.002,0.004C97.095,38.836,97.094,38.835,97.093,38.834z M79.088,38.58L79.088,38.58L79.088,38.58z
			 M78.944,38.442l0.004,0.009C78.947,38.448,78.945,38.445,78.944,38.442z M92.101,35.521c-0.003,0.027-0.003,0.051-0.003,0.066
			C92.098,35.565,92.099,35.543,92.101,35.521z M76.737,35.355c0.02,0.011,0.048,0.027,0.081,0.049
			C76.794,35.388,76.767,35.371,76.737,35.355z M97.287,34.741c0.002,0.002,0.004,0.005,0.007,0.007L97.287,34.741z M91.527,34.165
			l0.047,0.019l1.011,0.278l0.059,0.149c0.028-0.034,0.057-0.067,0.083-0.1c-0.002-0.018-0.004-0.035-0.006-0.053
			c-0.011-0.101-0.023-0.225-0.015-0.361c-0.25-0.074-0.414-0.227-0.523-0.371c-0.191,0.144-0.435,0.208-0.638,0.238l-0.025,0.168
			L91.527,34.165z M177.132,33.977c0.002,0.002,0.004,0.004,0.007,0.006C177.136,33.98,177.134,33.979,177.132,33.977z
			 M100.041,31.77L100.041,31.77L100.041,31.77z M93.92,31.678L93.92,31.678L93.92,31.678z M100.484,30.44l-0.01,0.065
			C100.479,30.483,100.482,30.462,100.484,30.44z M110.449,29.348c0.107,0.197,0.192,0.355,0.192,0.355
			c0.104,0.216,0.216,0.443,0.321,0.655c-0.014-0.039-0.024-0.072-0.031-0.097c-0.03-0.095-0.119-0.301-0.197-0.484l-0.105-0.252
			C110.611,29.503,110.527,29.423,110.449,29.348z M79.533,29.802L79.533,29.802L79.533,29.802z M80.326,29.652L80.326,29.652
			L80.326,29.652z M108.246,27.172c0.187,0.132,0.354,0.252,0.503,0.362c-0.227-0.255-0.476-0.532-0.659-0.734L108.246,27.172z
			 M104.224,26.516L104.224,26.516L104.224,26.516z M104.324,26.479c-0.001,0.001-0.002,0.002-0.003,0.002
			C104.322,26.481,104.323,26.48,104.324,26.479z M168.528,21.735c0.001,0.001,0.001,0.001,0.002,0.002
			C168.529,21.736,168.529,21.736,168.528,21.735z M130.209,18.866c-0.001,0.004-0.002,0.007-0.003,0.011
			C130.207,18.874,130.208,18.87,130.209,18.866z M102.237,17.573L102.237,17.573L102.237,17.573z M132.159,15.825l0.002,0.042
			C132.161,15.852,132.16,15.838,132.159,15.825z M149.341,15.762c-0.001,0.001-0.002,0.003-0.003,0.004
			C149.339,15.765,149.34,15.764,149.341,15.762z M102.772,15.494L102.772,15.494L102.772,15.494z M126.96,15.083
			c0.024,0.081,0.04,0.161,0.04,0.236C127,15.233,126.984,15.154,126.96,15.083z M98.98,15.296l-0.012,0.007
			C98.973,15.302,98.977,15.299,98.98,15.296z M132.753,14.551c-0.002,0-0.004,0.001-0.006,0.001
			C132.749,14.552,132.751,14.552,132.753,14.551z M150.435,13.108c-0.013,0.043-0.026,0.087-0.041,0.13l0.2-0.134
			C150.54,13.105,150.486,13.106,150.435,13.108z M154.305,12.73c0.069,0.057,0.15,0.121,0.23,0.181
			c0.137-0.088,0.265-0.123,0.337-0.143c0.024-0.037,0.053-0.082,0.086-0.135C154.723,12.709,154.495,12.729,154.305,12.73z
			 M116.162,12.768l-0.031,0.033C116.142,12.79,116.152,12.779,116.162,12.768z M119.248,12.16c-0.022,0.02-0.043,0.036-0.061,0.051
			c-0.041,0.055-0.091,0.112-0.147,0.169C119.112,12.311,119.187,12.229,119.248,12.16z M116.866,12.03
			c-0.014,0.014-0.027,0.029-0.042,0.045c0.009-0.007,0.037-0.027,0.079-0.056C116.891,12.023,116.879,12.026,116.866,12.03z
			 M150.544,11.337c-0.075,0.062-0.185,0.161-0.307,0.278c0.137-0.008,0.289-0.011,0.462-0.012c0.04-0.082,0.097-0.167,0.176-0.245
			c-0.091-0.002-0.172-0.009-0.249-0.015C150.598,11.341,150.569,11.339,150.544,11.337z M152.281,10.356c-0.002,0-0.005,0-0.007,0
			H152.281z M99.725,2.207c0.008,0.013,0.017,0.029,0.027,0.051C99.744,2.242,99.735,2.225,99.725,2.207z"/>
	</g>
	<g>
		<polygon fill="#00B8FA" points="87.797,170.111 87.189,168.399 88.982,168.54 89.084,169.853 		"/>
	</g>
</g>
<g>
	<rect x="101.416" y="136.096" fill="#4D4D4D" width="11.3" height="11.3"/>
	<g>
		<g>
			<g>
				<path fill="#FFFFFF" d="M105.658,143.38h-0.912v-2.724h0.912V143.38z M104.803,143.323h0.799v-2.611h-0.799V143.323z"/>
			</g>
			<g>
				<path fill="#FFFFFF" d="M105.661,143.383h-0.918v-2.73h0.918V143.383z M104.806,143.32h0.793v-2.604h-0.793V143.32z"/>
			</g>
		</g>
	</g>
	<g>
		<rect x="105.756" y="144.081" fill="#FFFFFF" width="2.592" height="0.201"/>
	</g>
	<g>
		<rect x="105.102" y="144.61" fill="#FFFFFF" width="3.9" height="0.201"/>
	</g>
	<g>
		<g>
			<g>
				<path fill="#FFFFFF" d="M107.515,143.38h-0.912v-2.724h0.912V143.38z M106.659,143.323h0.799v-2.611h-0.799V143.323z"/>
			</g>
			<g>
				<path fill="#FFFFFF" d="M107.518,143.383h-0.918v-2.73h0.918V143.383z M106.662,143.32h0.793v-2.604h-0.793V143.32z"/>
			</g>
		</g>
	</g>
	<g>
		<g>
			<g>
				<path fill="#FFFFFF" d="M109.382,143.38h-0.912v-2.724h0.912V143.38z M108.527,143.323h0.799v-2.611h-0.799V143.323z"/>
			</g>
			<g>
				<path fill="#FFFFFF" d="M109.385,143.383h-0.918v-2.73h0.918V143.383z M108.53,143.32h0.793v-2.604h-0.793V143.32z"/>
			</g>
		</g>
	</g>
	<g>
		<path fill="#FFFFFF" d="M109.832,140.156h-5.561v-0.693l2.789-1.331l2.772,1.332V140.156z M104.473,139.955h5.158v-0.364
			l-2.571-1.235l-2.587,1.235V139.955z"/>
	</g>
</g>
<g>
	<rect x="138.376" y="148.748" fill="#36B1E6" width="5.639" height="5.639"/>
	<g>
		<g>
			<g>
				<path fill="#FFFFFF" d="M140.493,152.383h-0.455v-1.359h0.455V152.383z M140.066,152.355h0.399v-1.303h-0.399V152.355z"/>
			</g>
			<g>
				<path fill="#FFFFFF" d="M140.495,152.385h-0.458v-1.362h0.458V152.385z M140.068,152.353h0.396v-1.3h-0.396V152.353z"/>
			</g>
		</g>
	</g>
	<g>
		<rect x="140.542" y="152.733" fill="#FFFFFF" width="1.293" height="0.1"/>
	</g>
	<g>
		<rect x="140.216" y="152.997" fill="#FFFFFF" width="1.946" height="0.1"/>
	</g>
	<g>
		<g>
			<g>
				<path fill="#FFFFFF" d="M141.42,152.383h-0.455v-1.359h0.455V152.383z M140.993,152.355h0.399v-1.303h-0.399V152.355z"/>
			</g>
			<g>
				<path fill="#FFFFFF" d="M141.421,152.385h-0.458v-1.362h0.458V152.385z M140.994,152.353h0.396v-1.3h-0.396V152.353z"/>
			</g>
		</g>
	</g>
	<g>
		<g>
			<g>
				<path fill="#FFFFFF" d="M142.352,152.383h-0.455v-1.359h0.455V152.383z M141.925,152.355h0.399v-1.303h-0.399V152.355z"/>
			</g>
			<g>
				<path fill="#FFFFFF" d="M142.354,152.385h-0.458v-1.362h0.458V152.385z M141.927,152.353h0.396v-1.3h-0.396V152.353z"/>
			</g>
		</g>
	</g>
	<g>
		<path fill="#FFFFFF" d="M142.577,150.774h-2.775v-0.346l1.392-0.664l1.384,0.665V150.774z M139.902,150.674h2.574v-0.182
			l-1.283-0.616l-1.291,0.616V150.674z"/>
	</g>
</g>
<g>
	<rect x="77.055" y="92.144" fill="#36B1E6" width="5.639" height="5.639"/>
	<g>
		<g>
			<g>
				<path fill="#FFFFFF" d="M79.173,95.779h-0.455V94.42h0.455V95.779z M78.746,95.751h0.399v-1.303h-0.399V95.751z"/>
			</g>
			<g>
				<path fill="#FFFFFF" d="M79.174,95.781h-0.458v-1.362h0.458V95.781z M78.747,95.75h0.396v-1.3h-0.396V95.75z"/>
			</g>
		</g>
	</g>
	<g>
		<rect x="79.221" y="96.129" fill="#FFFFFF" width="1.293" height="0.1"/>
	</g>
	<g>
		<rect x="78.895" y="96.393" fill="#FFFFFF" width="1.946" height="0.1"/>
	</g>
	<g>
		<g>
			<g>
				<path fill="#FFFFFF" d="M80.099,95.779h-0.455V94.42h0.455V95.779z M79.672,95.751h0.399v-1.303h-0.399V95.751z"/>
			</g>
			<g>
				<path fill="#FFFFFF" d="M80.101,95.781h-0.458v-1.362h0.458V95.781z M79.674,95.75h0.396v-1.3h-0.396V95.75z"/>
			</g>
		</g>
	</g>
	<g>
		<g>
			<g>
				<path fill="#FFFFFF" d="M81.031,95.779h-0.455V94.42h0.455V95.779z M80.604,95.751h0.399v-1.303h-0.399V95.751z"/>
			</g>
			<g>
				<path fill="#FFFFFF" d="M81.033,95.781h-0.458v-1.362h0.458V95.781z M80.606,95.75h0.396v-1.3h-0.396V95.75z"/>
			</g>
		</g>
	</g>
	<g>
		<path fill="#FFFFFF" d="M81.256,94.17h-2.775v-0.346l1.392-0.664l1.384,0.665V94.17z M78.581,94.07h2.574v-0.182l-1.283-0.616
			l-1.291,0.616V94.07z"/>
	</g>
</g>
<g>
	<rect x="97.81" y="43.088" fill="#36B1E6" width="5.639" height="5.639"/>
	<g>
		<g>
			<g>
				<path fill="#FFFFFF" d="M99.927,46.723h-0.455v-1.359h0.455V46.723z M99.5,46.695h0.399v-1.303H99.5V46.695z"/>
			</g>
			<g>
				<path fill="#FFFFFF" d="M99.929,46.724h-0.458v-1.362h0.458V46.724z M99.502,46.693h0.396v-1.3h-0.396V46.693z"/>
			</g>
		</g>
	</g>
	<g>
		<rect x="99.976" y="47.073" fill="#FFFFFF" width="1.293" height="0.1"/>
	</g>
	<g>
		<rect x="99.65" y="47.337" fill="#FFFFFF" width="1.946" height="0.1"/>
	</g>
	<g>
		<g>
			<g>
				<path fill="#FFFFFF" d="M100.854,46.723h-0.455v-1.359h0.455V46.723z M100.427,46.695h0.399v-1.303h-0.399V46.695z"/>
			</g>
			<g>
				<path fill="#FFFFFF" d="M100.855,46.724h-0.458v-1.362h0.458V46.724z M100.428,46.693h0.396v-1.3h-0.396V46.693z"/>
			</g>
		</g>
	</g>
	<g>
		<g>
			<g>
				<path fill="#FFFFFF" d="M101.786,46.723h-0.455v-1.359h0.455V46.723z M101.359,46.695h0.399v-1.303h-0.399V46.695z"/>
			</g>
			<g>
				<path fill="#FFFFFF" d="M101.788,46.724h-0.458v-1.362h0.458V46.724z M101.361,46.693h0.396v-1.3h-0.396V46.693z"/>
			</g>
		</g>
	</g>
	<g>
		<path fill="#FFFFFF" d="M102.01,45.114h-2.775v-0.346l1.392-0.664l1.384,0.665V45.114z M99.336,45.013h2.574v-0.182l-1.283-0.616
			l-1.291,0.616V45.013z"/>
	</g>
</g>
<g>
	<rect x="116.152" y="35.391" fill="#36B1E6" width="5.639" height="5.639"/>
	<g>
		<g>
			<g>
				<path fill="#FFFFFF" d="M118.27,39.026h-0.455v-1.359h0.455V39.026z M117.843,38.998h0.399v-1.303h-0.399V38.998z"/>
			</g>
			<g>
				<path fill="#FFFFFF" d="M118.271,39.028h-0.458v-1.362h0.458V39.028z M117.844,38.996h0.396v-1.3h-0.396V38.996z"/>
			</g>
		</g>
	</g>
	<g>
		<rect x="118.319" y="39.376" fill="#FFFFFF" width="1.293" height="0.1"/>
	</g>
	<g>
		<rect x="117.992" y="39.64" fill="#FFFFFF" width="1.946" height="0.1"/>
	</g>
	<g>
		<g>
			<g>
				<path fill="#FFFFFF" d="M119.196,39.026h-0.455v-1.359h0.455V39.026z M118.769,38.998h0.399v-1.303h-0.399V38.998z"/>
			</g>
			<g>
				<path fill="#FFFFFF" d="M119.198,39.028h-0.458v-1.362h0.458V39.028z M118.771,38.996h0.396v-1.3h-0.396V38.996z"/>
			</g>
		</g>
	</g>
	<g>
		<g>
			<g>
				<path fill="#FFFFFF" d="M120.128,39.026h-0.455v-1.359h0.455V39.026z M119.701,38.998h0.399v-1.303h-0.399V38.998z"/>
			</g>
			<g>
				<path fill="#FFFFFF" d="M120.13,39.028h-0.458v-1.362h0.458V39.028z M119.703,38.996h0.396v-1.3h-0.396V38.996z"/>
			</g>
		</g>
	</g>
	<g>
		<path fill="#FFFFFF" d="M120.353,37.417h-2.775v-0.346l1.392-0.664l1.384,0.665V37.417z M117.678,37.317h2.574v-0.182
			l-1.283-0.616l-1.291,0.616V37.317z"/>
	</g>
</g>
<g>
	<rect x="150.63" y="55.992" fill="#36B1E6" width="5.639" height="5.639"/>
	<g>
		<g>
			<g>
				<path fill="#FFFFFF" d="M152.747,59.627h-0.455v-1.359h0.455V59.627z M152.32,59.598h0.399v-1.303h-0.399V59.598z"/>
			</g>
			<g>
				<path fill="#FFFFFF" d="M152.749,59.628h-0.458v-1.362h0.458V59.628z M152.322,59.597h0.396v-1.3h-0.396V59.597z"/>
			</g>
		</g>
	</g>
	<g>
		<rect x="152.796" y="59.977" fill="#FFFFFF" width="1.293" height="0.1"/>
	</g>
	<g>
		<rect x="152.469" y="60.24" fill="#FFFFFF" width="1.946" height="0.1"/>
	</g>
	<g>
		<g>
			<g>
				<path fill="#FFFFFF" d="M153.674,59.627h-0.455v-1.359h0.455V59.627z M153.247,59.598h0.399v-1.303h-0.399V59.598z"/>
			</g>
			<g>
				<path fill="#FFFFFF" d="M153.675,59.628h-0.458v-1.362h0.458V59.628z M153.248,59.597h0.396v-1.3h-0.396V59.597z"/>
			</g>
		</g>
	</g>
	<g>
		<g>
			<g>
				<path fill="#FFFFFF" d="M154.606,59.627h-0.455v-1.359h0.455V59.627z M154.179,59.598h0.399v-1.303h-0.399V59.598z"/>
			</g>
			<g>
				<path fill="#FFFFFF" d="M154.607,59.628h-0.458v-1.362h0.458V59.628z M154.18,59.597h0.396v-1.3h-0.396V59.597z"/>
			</g>
		</g>
	</g>
	<g>
		<path fill="#FFFFFF" d="M154.83,58.018h-2.775v-0.346l1.392-0.664l1.384,0.665V58.018z M152.155,57.917h2.574v-0.182l-1.283-0.616
			l-1.291,0.616V57.917z"/>
	</g>
</g>
<g>
	<rect x="147.81" y="77.993" fill="#36B1E6" width="5.639" height="5.639"/>
	<g>
		<g>
			<g>
				<path fill="#FFFFFF" d="M149.927,81.628h-0.455v-1.359h0.455V81.628z M149.5,81.6h0.399v-1.303H149.5V81.6z"/>
			</g>
			<g>
				<path fill="#FFFFFF" d="M149.929,81.63h-0.458v-1.362h0.458V81.63z M149.502,81.599h0.396v-1.3h-0.396V81.599z"/>
			</g>
		</g>
	</g>
	<g>
		<rect x="149.976" y="81.979" fill="#FFFFFF" width="1.293" height="0.1"/>
	</g>
	<g>
		<rect x="149.65" y="82.242" fill="#FFFFFF" width="1.946" height="0.1"/>
	</g>
	<g>
		<g>
			<g>
				<path fill="#FFFFFF" d="M150.854,81.628h-0.455v-1.359h0.455V81.628z M150.427,81.6h0.399v-1.303h-0.399V81.6z"/>
			</g>
			<g>
				<path fill="#FFFFFF" d="M150.855,81.63h-0.458v-1.362h0.458V81.63z M150.428,81.599h0.396v-1.3h-0.396V81.599z"/>
			</g>
		</g>
	</g>
	<g>
		<g>
			<g>
				<path fill="#FFFFFF" d="M151.786,81.628h-0.455v-1.359h0.455V81.628z M151.359,81.6h0.399v-1.303h-0.399V81.6z"/>
			</g>
			<g>
				<path fill="#FFFFFF" d="M151.788,81.63h-0.458v-1.362h0.458V81.63z M151.361,81.599h0.396v-1.3h-0.396V81.599z"/>
			</g>
		</g>
	</g>
	<g>
		<path fill="#FFFFFF" d="M152.01,80.02h-2.775v-0.346l1.392-0.664l1.384,0.665V80.02z M149.336,79.919h2.574v-0.182l-1.283-0.616
			l-1.291,0.616V79.919z"/>
	</g>
</g>
<g>
	<rect x="87.265" y="98.748" fill="#4D4D4D" width="33.941" height="33.941"/>
	<g>
		<g>
			<g>
				<g>
					<path fill="#FFFFFF" d="M100.008,120.626h-2.739v-8.181h2.739V120.626z M97.439,120.456h2.4v-7.842h-2.4V120.456z"/>
					<path fill="#FFFFFF" d="M100.134,120.751h-2.989v-8.432h2.989V120.751z M97.563,120.331h2.15v-7.592h-2.15V120.331z"/>
				</g>
			</g>
			<g>
				<g>
					<path fill="#FFFFFF" d="M100.018,120.635H97.26v-8.2h2.758V120.635z M97.448,120.447h2.381v-7.823h-2.381V120.447z"/>
					<path fill="#FFFFFF" d="M100.143,120.76h-3.008v-8.449h3.008V120.76z M97.573,120.321h2.131v-7.572h-2.131V120.321z"/>
				</g>
			</g>
		</g>
	</g>
	<g>
		<rect x="100.301" y="122.733" fill="#FFFFFF" width="7.785" height="0.605"/>
	</g>
	<g>
		<rect x="98.336" y="124.32" fill="#FFFFFF" width="11.715" height="0.605"/>
	</g>
	<g>
		<g>
			<g>
				<g>
					<path fill="#FFFFFF" d="M105.584,120.626h-2.739v-8.181h2.739V120.626z M103.014,120.456h2.4v-7.842h-2.4V120.456z"/>
					<path fill="#FFFFFF" d="M105.709,120.751h-2.989v-8.432h2.989V120.751z M103.14,120.331h2.15v-7.592h-2.15V120.331z"/>
				</g>
			</g>
			<g>
				<g>
					<path fill="#FFFFFF" d="M105.594,120.635h-2.758v-8.2h2.758V120.635z M103.024,120.447h2.381v-7.823h-2.381V120.447z"/>
					<path fill="#FFFFFF" d="M105.719,120.76h-3.008v-8.449h3.008V120.76z M103.148,120.321h2.132v-7.572h-2.132V120.321z"/>
				</g>
			</g>
		</g>
	</g>
	<g>
		<g>
			<g>
				<g>
					<path fill="#FFFFFF" d="M111.194,120.626h-2.739v-8.181h2.739V120.626z M108.624,120.456h2.4v-7.842h-2.4V120.456z"/>
					<path fill="#FFFFFF" d="M111.319,120.751h-2.989v-8.432h2.989V120.751z M108.749,120.331h2.15v-7.592h-2.15V120.331z"/>
				</g>
			</g>
			<g>
				<g>
					<path fill="#FFFFFF" d="M111.204,120.635h-2.758v-8.2h2.758V120.635z M108.634,120.447h2.381v-7.823h-2.381V120.447z"/>
					<path fill="#FFFFFF" d="M111.328,120.76h-3.008v-8.449h3.008V120.76z M108.759,120.321h2.131v-7.572h-2.131V120.321z"/>
				</g>
			</g>
		</g>
	</g>
	<g>
		<path fill="#FFFFFF" d="M112.545,110.942H95.842v-2.08l8.376-3.999l8.327,4V110.942z M96.447,110.338h15.494v-1.095l-7.723-3.71
			l-7.771,3.71V110.338z"/>
	</g>
</g>
<g>
	<rect x="111.961" y="56.272" fill="#4D4D4D" width="9.413" height="9.413"/>
	<g>
		<g>
			<g>
				<path fill="#FFFFFF" d="M115.495,62.34h-0.76v-2.269h0.76V62.34z M114.783,62.293h0.666v-2.175h-0.666V62.293z"/>
			</g>
			<g>
				<path fill="#FFFFFF" d="M115.498,62.342h-0.765v-2.274h0.765V62.342z M114.785,62.29h0.66v-2.17h-0.66V62.29z"/>
			</g>
		</g>
	</g>
	<g>
		<rect x="115.576" y="62.924" fill="#FFFFFF" width="2.159" height="0.168"/>
	</g>
	<g>
		<rect x="115.032" y="63.364" fill="#FFFFFF" width="3.249" height="0.168"/>
	</g>
	<g>
		<g>
			<g>
				<path fill="#FFFFFF" d="M117.042,62.34h-0.76v-2.269h0.76V62.34z M116.329,62.293h0.666v-2.175h-0.666V62.293z"/>
			</g>
			<g>
				<path fill="#FFFFFF" d="M117.044,62.342h-0.765v-2.274h0.765V62.342z M116.332,62.29h0.66v-2.17h-0.66V62.29z"/>
			</g>
		</g>
	</g>
	<g>
		<g>
			<g>
				<path fill="#FFFFFF" d="M118.597,62.34h-0.76v-2.269h0.76V62.34z M117.885,62.293h0.666v-2.175h-0.666V62.293z"/>
			</g>
			<g>
				<path fill="#FFFFFF" d="M118.6,62.342h-0.765v-2.274h0.765V62.342z M117.887,62.29h0.66v-2.17h-0.66V62.29z"/>
			</g>
		</g>
	</g>
	<g>
		<path fill="#FFFFFF" d="M118.972,59.654h-4.632v-0.577l2.323-1.109l2.309,1.109V59.654z M114.507,59.487h4.297v-0.304
			l-2.142-1.029l-2.155,1.029V59.487z"/>
	</g>
</g>
<g>
	<path fill="#4D4D4D" d="M3.382,62.242v-1.878H1.27v1.878H0.808V58.09H1.27v1.86h2.112v-1.86h0.456v4.152H3.382z"/>
	<path fill="#4D4D4D" d="M6.897,60.148v1.536c0.012,0.147,0.128,0.235,0.349,0.264l-0.019,0.354c-0.315,0-0.554-0.079-0.714-0.239
		c-0.36,0.16-0.72,0.239-1.08,0.239c-0.276,0-0.486-0.077-0.63-0.233c-0.145-0.156-0.216-0.38-0.216-0.672s0.074-0.507,0.222-0.646
		c0.148-0.138,0.38-0.223,0.696-0.255l0.941-0.09v-0.258c0-0.204-0.044-0.351-0.132-0.438s-0.208-0.132-0.359-0.132
		c-0.32,0-0.652,0.021-0.996,0.061l-0.187,0.018l-0.018-0.342c0.439-0.088,0.83-0.132,1.17-0.132s0.587,0.077,0.741,0.233
		C6.82,59.572,6.897,59.816,6.897,60.148z M5.05,61.372c0,0.368,0.151,0.552,0.456,0.552c0.271,0,0.54-0.046,0.804-0.138
		l0.138-0.048v-0.99L5.56,60.832c-0.18,0.017-0.31,0.068-0.39,0.156S5.05,61.204,5.05,61.372z"/>
	<path fill="#4D4D4D" d="M8.235,62.242h-0.45v-3h0.444v0.21c0.3-0.18,0.592-0.27,0.876-0.27c0.372,0,0.632,0.102,0.78,0.306
		c0.132-0.08,0.303-0.151,0.513-0.213c0.21-0.062,0.396-0.093,0.555-0.093c0.4,0,0.669,0.106,0.808,0.32
		c0.138,0.214,0.207,0.6,0.207,1.155v1.584h-0.45V60.67c0-0.416-0.04-0.701-0.12-0.854c-0.08-0.154-0.25-0.231-0.51-0.231
		c-0.132,0-0.269,0.02-0.408,0.058s-0.248,0.074-0.324,0.11l-0.113,0.055c0.052,0.132,0.077,0.424,0.077,0.876v1.56H9.67v-1.548
		c0-0.433-0.039-0.726-0.117-0.879c-0.078-0.154-0.249-0.231-0.514-0.231c-0.128,0-0.259,0.02-0.393,0.058s-0.237,0.074-0.309,0.11
		l-0.103,0.055V62.242z"/>
	<path fill="#4D4D4D" d="M14.128,59.183c0.404,0,0.688,0.114,0.85,0.345c0.161,0.229,0.242,0.633,0.242,1.209
		s-0.101,0.98-0.303,1.215s-0.573,0.351-1.113,0.351c-0.168,0-0.445-0.016-0.834-0.048l-0.168-0.018v-4.302h0.444v1.458
		C13.55,59.252,13.844,59.183,14.128,59.183z M13.798,61.9c0.393,0,0.651-0.089,0.777-0.268c0.126-0.178,0.188-0.479,0.188-0.902
		s-0.05-0.722-0.149-0.892c-0.101-0.17-0.278-0.255-0.534-0.255c-0.232,0-0.47,0.044-0.714,0.132l-0.12,0.042v2.112
		C13.506,61.891,13.69,61.9,13.798,61.9z"/>
	<path fill="#4D4D4D" d="M17.829,59.242h0.45v3h-0.45v-0.21c-0.3,0.18-0.596,0.27-0.888,0.27c-0.408,0-0.679-0.105-0.813-0.317
		c-0.134-0.212-0.2-0.604-0.2-1.176v-1.566h0.449v1.56c0,0.437,0.038,0.729,0.114,0.876c0.076,0.148,0.248,0.223,0.517,0.223
		c0.132,0,0.266-0.02,0.401-0.058c0.136-0.037,0.24-0.074,0.312-0.11l0.107-0.055V59.242z"/>
	<path fill="#4D4D4D" d="M19.144,62.242v-3h0.444v0.408c0.348-0.24,0.714-0.398,1.098-0.475v0.456
		c-0.168,0.032-0.343,0.082-0.524,0.15c-0.183,0.068-0.321,0.128-0.417,0.18l-0.15,0.078v2.202H19.144z"/>
	<path fill="#4D4D4D" d="M22.336,63.652c-0.479,0-0.814-0.065-1.005-0.195s-0.285-0.367-0.285-0.711
		c0-0.164,0.036-0.297,0.108-0.398c0.072-0.103,0.193-0.218,0.366-0.346c-0.112-0.076-0.168-0.214-0.168-0.414
		c0-0.067,0.05-0.193,0.149-0.378l0.054-0.096c-0.315-0.145-0.474-0.446-0.474-0.906c0-0.684,0.374-1.025,1.122-1.025
		c0.192,0,0.37,0.02,0.534,0.06l0.09,0.018l0.888-0.023v0.384l-0.569-0.012c0.132,0.132,0.197,0.332,0.197,0.6
		c0,0.376-0.093,0.64-0.278,0.789c-0.187,0.15-0.479,0.226-0.879,0.226c-0.108,0-0.206-0.009-0.294-0.024
		c-0.072,0.176-0.108,0.29-0.108,0.342c0,0.124,0.038,0.201,0.114,0.231c0.075,0.029,0.306,0.045,0.689,0.045s0.66,0.06,0.828,0.18
		s0.252,0.354,0.252,0.702C23.668,63.334,23.224,63.652,22.336,63.652z M21.49,62.71c0,0.212,0.059,0.359,0.177,0.441
		s0.336,0.123,0.654,0.123c0.317,0,0.546-0.044,0.684-0.132c0.139-0.089,0.207-0.235,0.207-0.441s-0.05-0.339-0.149-0.399
		c-0.101-0.06-0.297-0.09-0.589-0.09l-0.647-0.029c-0.132,0.096-0.221,0.18-0.267,0.252C21.513,62.506,21.49,62.599,21.49,62.71z
		 M21.532,60.208c0,0.236,0.053,0.404,0.159,0.504c0.105,0.101,0.28,0.15,0.524,0.15s0.418-0.05,0.522-0.15
		c0.104-0.1,0.156-0.269,0.156-0.507s-0.053-0.407-0.156-0.507c-0.104-0.1-0.278-0.15-0.522-0.15s-0.419,0.052-0.524,0.153
		C21.585,59.803,21.532,59.973,21.532,60.208z"/>
	<path fill="#4D4D4D" d="M25.342,62.183l1.691-4.188l0.402,0.15l-1.692,4.182L25.342,62.183z"/>
	<path fill="#4D4D4D" d="M32.025,62.242v-1.878h-2.112v1.878h-0.462V58.09h0.462v1.86h2.112v-1.86h0.456v4.152H32.025z"/>
	<path fill="#4D4D4D" d="M35.541,60.148v1.536c0.012,0.147,0.128,0.235,0.349,0.264l-0.019,0.354c-0.315,0-0.554-0.079-0.714-0.239
		c-0.36,0.16-0.72,0.239-1.08,0.239c-0.276,0-0.486-0.077-0.63-0.233c-0.145-0.156-0.216-0.38-0.216-0.672s0.074-0.507,0.222-0.646
		c0.148-0.138,0.38-0.223,0.696-0.255l0.941-0.09v-0.258c0-0.204-0.044-0.351-0.132-0.438s-0.208-0.132-0.359-0.132
		c-0.32,0-0.652,0.021-0.996,0.061l-0.187,0.018l-0.018-0.342c0.439-0.088,0.83-0.132,1.17-0.132s0.587,0.077,0.741,0.233
		C35.464,59.572,35.541,59.816,35.541,60.148z M33.693,61.372c0,0.368,0.151,0.552,0.456,0.552c0.271,0,0.54-0.046,0.804-0.138
		l0.138-0.048v-0.99l-0.888,0.084c-0.18,0.017-0.31,0.068-0.39,0.156S33.693,61.204,33.693,61.372z"/>
	<path fill="#4D4D4D" d="M36.879,62.242h-0.45v-3h0.444v0.21c0.324-0.18,0.634-0.27,0.93-0.27c0.4,0,0.669,0.107,0.808,0.323
		c0.138,0.217,0.207,0.601,0.207,1.152v1.584h-0.444V60.67c0-0.416-0.041-0.701-0.123-0.854c-0.082-0.154-0.257-0.231-0.525-0.231
		c-0.128,0-0.263,0.02-0.404,0.058c-0.143,0.038-0.251,0.074-0.327,0.11l-0.114,0.055V62.242z"/>
	<path fill="#4D4D4D" d="M40.101,62.242h-0.45v-3h0.444v0.21c0.324-0.18,0.634-0.27,0.93-0.27c0.4,0,0.669,0.107,0.808,0.323
		c0.138,0.217,0.207,0.601,0.207,1.152v1.584h-0.444V60.67c0-0.416-0.041-0.701-0.123-0.854c-0.082-0.154-0.257-0.231-0.525-0.231
		c-0.128,0-0.263,0.02-0.404,0.058c-0.143,0.038-0.251,0.074-0.327,0.11l-0.114,0.055V62.242z"/>
	<path fill="#4D4D4D" d="M42.741,60.736c0-0.548,0.099-0.944,0.294-1.188c0.196-0.243,0.527-0.365,0.993-0.365
		c0.466,0,0.796,0.122,0.99,0.365c0.193,0.244,0.291,0.641,0.291,1.188s-0.092,0.946-0.276,1.194
		c-0.184,0.248-0.52,0.371-1.008,0.371s-0.824-0.123-1.008-0.371C42.833,61.683,42.741,61.284,42.741,60.736z M43.203,60.728
		c0,0.438,0.054,0.745,0.159,0.921c0.106,0.176,0.328,0.264,0.666,0.264s0.559-0.087,0.663-0.261
		c0.104-0.174,0.156-0.481,0.156-0.921c0-0.44-0.059-0.743-0.174-0.909c-0.116-0.166-0.331-0.249-0.646-0.249
		s-0.53,0.083-0.647,0.249C43.263,59.987,43.203,60.289,43.203,60.728z"/>
	<path fill="#4D4D4D" d="M45.705,59.242h0.479l0.702,2.61h0.222l0.727-2.61h0.462l-0.846,3h-0.9L45.705,59.242z"/>
	<path fill="#4D4D4D" d="M50.858,61.87l0.175-0.018l0.012,0.354c-0.456,0.064-0.847,0.096-1.17,0.096
		c-0.433,0-0.738-0.125-0.918-0.375c-0.181-0.249-0.271-0.639-0.271-1.167c0-1.052,0.418-1.577,1.254-1.577
		c0.404,0,0.706,0.112,0.906,0.339c0.2,0.226,0.3,0.581,0.3,1.064l-0.023,0.342h-1.98c0,0.332,0.061,0.578,0.18,0.738
		c0.12,0.16,0.329,0.24,0.628,0.24C50.248,61.906,50.551,61.895,50.858,61.87z M50.696,60.568c0-0.368-0.059-0.628-0.177-0.78
		s-0.31-0.228-0.576-0.228c-0.266,0-0.466,0.08-0.6,0.239c-0.134,0.16-0.203,0.416-0.207,0.769H50.696z"/>
	<path fill="#4D4D4D" d="M51.849,62.242v-3h0.444v0.408c0.348-0.24,0.714-0.398,1.098-0.475v0.456
		c-0.168,0.032-0.343,0.082-0.524,0.15c-0.183,0.068-0.321,0.128-0.417,0.18l-0.15,0.078v2.202H51.849z"/>
</g>
<g>
	<rect x="0.16" y="64.661" fill="#4D4D4D" width="112.458" height="1"/>
</g>
<g>
	<rect x="0.202" y="131.661" fill="#4D4D4D" width="112.458" height="1"/>
</g>
<g>
	<rect x="0.16" y="146.412" fill="#4D4D4D" width="112.458" height="1"/>
</g>
</svg>
