<?xml version="1.0" encoding="utf-8"?>
<!-- Generator: Adobe Illustrator 21.1.0, SVG Export Plug-In . SVG Version: 6.00 Build 0)  -->
<svg version="1.1" id="Ebene_1" xmlns="http://www.w3.org/2000/svg" xmlns:xlink="http://www.w3.org/1999/xlink" x="0px" y="0px"
	 viewBox="0 0 200 200" enable-background="new 0 0 200 200" xml:space="preserve">
<rect x="0.333" y="0.333" fill="#FFFFFF" width="200" height="200.667"/>
<g>
	<path fill="#4D4D4D" d="M185.458,98.238h-43.916v-5.469l22.022-10.514l21.894,10.516V98.238z M143.132,96.648h40.736V93.77
		l-20.306-9.753l-20.431,9.754V96.648z"/>
</g>
<g>
	<path fill="#4D4D4D" d="M182.215,124.007h-7.821v-22.129h7.821V124.007z M175.954,122.447h4.7v-19.008h-4.7V122.447z"/>
</g>
<g>
	<path fill="#4D4D4D" d="M152.805,124.007h-7.821v-22.129h7.821V124.007z M146.544,122.447h4.7v-19.008h-4.7V122.447z"/>
</g>
<g>
	<path fill="#4D4D4D" d="M185.457,98.405h-43.916v-5.469l22.022-10.514l21.894,10.516V98.405z M143.131,96.815h40.736v-2.878
		l-20.306-9.753l-20.431,9.754V96.815z"/>
</g>
<g>
	<path fill="#4D4D4D" d="M165.266,107.061c-2.527,0-4.103,1.294-4.728,3.882h6.059v1.243h-6.225l-0.024,0.549v0.617l0.024,0.433
		h5.501v1.243h-5.311c0.293,1.156,0.842,2.05,1.645,2.683c0.804,0.633,1.879,0.949,3.226,0.949c1.236,0,2.459-0.212,3.671-0.636
		v1.445c-1.157,0.418-2.412,0.626-3.766,0.626c-1.877,0-3.388-0.432-4.532-1.296c-1.145-0.864-1.899-2.121-2.263-3.771h-1.972
		v-1.243h1.806l-0.024-0.404v-0.424l0.024-0.771h-1.806v-1.243h1.948c0.309-1.676,1.041-2.983,2.198-3.921
		c1.156-0.937,2.673-1.406,4.55-1.406c1.592,0,3.042,0.312,4.348,0.934l-0.844,1.339
		C167.456,107.337,166.288,107.061,165.266,107.061z"/>
</g>
<g>
	<path fill="#4D4D4D" d="M25.046,95.811c-2.527,0-4.103,1.294-4.728,3.882h6.059v1.243h-6.225l-0.024,0.549v0.617l0.024,0.433h5.501
		v1.243h-5.311c0.293,1.156,0.842,2.05,1.645,2.683c0.804,0.633,1.879,0.949,3.226,0.949c1.236,0,2.459-0.212,3.671-0.636v1.445
		c-1.157,0.418-2.412,0.626-3.766,0.626c-1.877,0-3.388-0.432-4.532-1.296c-1.145-0.864-1.899-2.121-2.263-3.771H16.35v-1.243h1.806
		l-0.024-0.404v-0.424l0.024-0.771H16.35v-1.243h1.948c0.309-1.676,1.041-2.983,2.198-3.921c1.156-0.937,2.673-1.406,4.55-1.406
		c1.592,0,3.042,0.312,4.348,0.934l-0.844,1.339C27.236,96.087,26.068,95.811,25.046,95.811z"/>
</g>
<rect x="1.205" y="85.333" fill="none" stroke="#4D4D4D" stroke-width="1.5" stroke-miterlimit="10" width="45" height="32.5"/>
<path fill="none" stroke="#4D4D4D" stroke-width="1.5" stroke-miterlimit="10" d="M18.226,118l-5.458,5.458h21.875l-5.563-5.562
	C29.08,117.896,18.101,117.875,18.226,118z"/>
<rect x="6.299" y="89.754" fill="none" stroke="#4D4D4D" stroke-width="1.5" stroke-miterlimit="10" width="34.813" height="23.658"/>
<g>
	<g>
		<path fill="#4D4D4D" d="M148.674,137.724v-2.504h-2.816v2.504h-0.616v-5.536h0.616v2.48h2.816v-2.48h0.607v5.536H148.674z"/>
		<path fill="#4D4D4D" d="M153.362,134.932v2.048c0.016,0.197,0.17,0.314,0.464,0.353l-0.024,0.472c-0.421,0-0.738-0.106-0.952-0.32
			c-0.479,0.214-0.96,0.32-1.439,0.32c-0.368,0-0.648-0.104-0.84-0.312c-0.192-0.208-0.288-0.506-0.288-0.896
			s0.099-0.676,0.296-0.86c0.197-0.184,0.507-0.297,0.928-0.34l1.256-0.12v-0.344c0-0.272-0.059-0.467-0.176-0.584
			s-0.277-0.176-0.48-0.176c-0.427,0-0.869,0.026-1.327,0.08l-0.248,0.023l-0.024-0.456c0.587-0.117,1.106-0.176,1.56-0.176
			c0.454,0,0.783,0.104,0.988,0.312S153.362,134.489,153.362,134.932z M150.897,136.563c0,0.491,0.203,0.736,0.608,0.736
			c0.362,0,0.72-0.062,1.072-0.185l0.184-0.063v-1.32l-1.184,0.112c-0.24,0.021-0.414,0.091-0.521,0.208
			S150.897,136.34,150.897,136.563z"/>
		<path fill="#4D4D4D" d="M157.042,133.724h0.6v4h-0.6v-0.28c-0.4,0.24-0.795,0.36-1.185,0.36c-0.544,0-0.905-0.142-1.084-0.424
			c-0.179-0.283-0.268-0.806-0.268-1.568v-2.088h0.6v2.08c0,0.581,0.051,0.971,0.152,1.168s0.33,0.296,0.688,0.296
			c0.177,0,0.355-0.025,0.536-0.076c0.182-0.051,0.32-0.1,0.416-0.147l0.145-0.072V133.724z"/>
		<path fill="#4D4D4D" d="M160.05,134.18c-0.581,0-0.872,0.203-0.872,0.608c0,0.187,0.066,0.318,0.2,0.396
			c0.133,0.077,0.438,0.157,0.912,0.24s0.811,0.198,1.008,0.348s0.296,0.43,0.296,0.84c0,0.411-0.132,0.712-0.396,0.904
			c-0.265,0.192-0.649,0.288-1.156,0.288c-0.331,0-0.721-0.037-1.168-0.112l-0.24-0.04l0.032-0.52
			c0.607,0.091,1.066,0.136,1.376,0.136c0.309,0,0.545-0.049,0.708-0.147c0.162-0.099,0.244-0.265,0.244-0.496
			c0-0.232-0.069-0.39-0.208-0.473c-0.139-0.082-0.443-0.161-0.912-0.235c-0.47-0.075-0.803-0.185-1-0.328
			c-0.197-0.145-0.296-0.411-0.296-0.8c0-0.39,0.137-0.678,0.412-0.864c0.274-0.187,0.617-0.28,1.027-0.28
			c0.325,0,0.733,0.037,1.225,0.112l0.224,0.04l-0.016,0.512C160.857,134.223,160.391,134.18,160.05,134.18z"/>
		<path fill="#4D4D4D" d="M164.281,133.644c0.539,0,0.916,0.153,1.132,0.46c0.217,0.307,0.324,0.844,0.324,1.612
			c0,0.768-0.135,1.308-0.403,1.62c-0.27,0.312-0.765,0.468-1.484,0.468c-0.224,0-0.595-0.021-1.112-0.064l-0.224-0.023v-5.736
			h0.592v1.944C163.511,133.737,163.902,133.644,164.281,133.644z M163.842,137.268c0.522,0,0.868-0.118,1.036-0.355
			s0.252-0.639,0.252-1.204s-0.067-0.962-0.2-1.188c-0.134-0.227-0.371-0.34-0.712-0.34c-0.31,0-0.627,0.059-0.952,0.176
			l-0.16,0.057v2.815C163.452,137.254,163.697,137.268,163.842,137.268z"/>
		<path fill="#4D4D4D" d="M169.546,134.932v2.048c0.016,0.197,0.17,0.314,0.464,0.353l-0.024,0.472c-0.421,0-0.738-0.106-0.952-0.32
			c-0.479,0.214-0.96,0.32-1.439,0.32c-0.368,0-0.648-0.104-0.84-0.312c-0.192-0.208-0.288-0.506-0.288-0.896
			s0.099-0.676,0.296-0.86c0.197-0.184,0.507-0.297,0.928-0.34l1.256-0.12v-0.344c0-0.272-0.059-0.467-0.176-0.584
			s-0.277-0.176-0.48-0.176c-0.427,0-0.869,0.026-1.327,0.08l-0.248,0.023l-0.024-0.456c0.587-0.117,1.106-0.176,1.56-0.176
			c0.454,0,0.783,0.104,0.988,0.312S169.546,134.489,169.546,134.932z M167.081,136.563c0,0.491,0.203,0.736,0.608,0.736
			c0.362,0,0.72-0.062,1.072-0.185l0.184-0.063v-1.32l-1.184,0.112c-0.24,0.021-0.414,0.091-0.521,0.208
			S167.081,136.34,167.081,136.563z"/>
		<path fill="#4D4D4D" d="M171.329,137.724h-0.6v-4h0.592v0.28c0.432-0.24,0.846-0.36,1.24-0.36c0.533,0,0.892,0.145,1.076,0.432
			c0.184,0.288,0.275,0.801,0.275,1.536v2.112h-0.592v-2.096c0-0.555-0.055-0.935-0.164-1.141c-0.109-0.205-0.343-0.308-0.7-0.308
			c-0.171,0-0.351,0.025-0.54,0.076s-0.334,0.1-0.436,0.147l-0.152,0.072V137.724z"/>
		<path fill="#4D4D4D" d="M175.625,137.724h-0.6v-5.744h0.6v3.393l0.624-0.032l1.145-1.616h0.68l-1.304,1.84l1.359,2.16h-0.68
			l-1.192-1.856l-0.632,0.024V137.724z"/>
	</g>
</g>
<g>
	<g>
		<path fill="#4D4D4D" d="M5.384,134.996c0,0.986-0.157,1.701-0.472,2.144c-0.315,0.442-0.887,0.664-1.717,0.664
			c-0.829,0-1.401-0.227-1.716-0.68c-0.314-0.454-0.472-1.167-0.472-2.141c0-0.973,0.16-1.695,0.479-2.168
			c0.32-0.472,0.889-0.708,1.704-0.708c0.816,0,1.386,0.235,1.708,0.704C5.223,133.281,5.384,134.009,5.384,134.996z M1.64,134.979
			c0,0.811,0.106,1.394,0.32,1.748c0.213,0.354,0.625,0.532,1.235,0.532c0.611,0,1.021-0.174,1.232-0.521s0.316-0.928,0.316-1.743
			c0-0.816-0.109-1.411-0.328-1.784s-0.628-0.561-1.229-0.561c-0.6,0-1.008,0.186-1.224,0.557
			C1.748,133.578,1.64,134.169,1.64,134.979z"/>
		<path fill="#4D4D4D" d="M7.008,137.724h-0.6v-4H7v0.28c0.432-0.24,0.846-0.36,1.24-0.36c0.533,0,0.892,0.145,1.076,0.432
			c0.184,0.288,0.275,0.801,0.275,1.536v2.112H9v-2.096c0-0.555-0.055-0.935-0.164-1.141c-0.109-0.205-0.343-0.308-0.7-0.308
			c-0.171,0-0.351,0.025-0.54,0.076s-0.334,0.1-0.436,0.147l-0.152,0.072V137.724z"/>
		<path fill="#4D4D4D" d="M10.752,137.724v-5.744h0.6v5.744H10.752z"/>
		<path fill="#4D4D4D" d="M12.552,132.819v-0.695h0.6v0.695H12.552z M12.552,137.724v-4h0.6v4H12.552z"/>
		<path fill="#4D4D4D" d="M14.903,137.724h-0.6v-4h0.592v0.28c0.432-0.24,0.846-0.36,1.24-0.36c0.533,0,0.892,0.145,1.076,0.432
			c0.184,0.288,0.275,0.801,0.275,1.536v2.112h-0.592v-2.096c0-0.555-0.055-0.935-0.164-1.141c-0.109-0.205-0.343-0.308-0.7-0.308
			c-0.171,0-0.351,0.025-0.54,0.076s-0.334,0.1-0.436,0.147l-0.152,0.072V137.724z"/>
		<path fill="#4D4D4D" d="M21.319,137.228l0.232-0.023l0.016,0.472c-0.608,0.085-1.128,0.128-1.56,0.128
			c-0.576,0-0.984-0.167-1.225-0.5s-0.359-0.853-0.359-1.556c0-1.403,0.557-2.104,1.672-2.104c0.538,0,0.941,0.15,1.208,0.452
			s0.399,0.774,0.399,1.42l-0.031,0.456h-2.641c0,0.442,0.08,0.771,0.24,0.984c0.16,0.213,0.438,0.319,0.836,0.319
			S20.908,137.26,21.319,137.228z M21.104,135.491c0-0.49-0.079-0.837-0.236-1.04c-0.157-0.202-0.413-0.304-0.768-0.304
			s-0.621,0.106-0.8,0.32c-0.179,0.213-0.271,0.555-0.276,1.023H21.104z"/>
		<path fill="#4D4D4D" d="M22.607,135.804v-0.561h2.424v0.561H22.607z"/>
		<path fill="#4D4D4D" d="M28.224,137.724h-1.977v-5.536h1.977c0.901,0,1.498,0.357,1.792,1.072c0.17,0.41,0.256,0.949,0.256,1.616
			c0,1.392-0.347,2.269-1.04,2.632C28.954,137.651,28.618,137.724,28.224,137.724z M29.64,134.876c0-1.062-0.237-1.723-0.712-1.984
			c-0.192-0.106-0.427-0.16-0.704-0.16h-1.36v4.448h1.36C29.167,137.18,29.64,136.412,29.64,134.876z"/>
		<path fill="#4D4D4D" d="M34.023,137.228l0.232-0.023l0.016,0.472c-0.608,0.085-1.128,0.128-1.56,0.128
			c-0.576,0-0.984-0.167-1.225-0.5s-0.359-0.853-0.359-1.556c0-1.403,0.557-2.104,1.672-2.104c0.538,0,0.941,0.15,1.208,0.452
			s0.399,0.774,0.399,1.42l-0.031,0.456h-2.641c0,0.442,0.08,0.771,0.24,0.984c0.16,0.213,0.438,0.319,0.836,0.319
			S33.612,137.26,34.023,137.228z M33.808,135.491c0-0.49-0.079-0.837-0.236-1.04c-0.157-0.202-0.413-0.304-0.768-0.304
			s-0.621,0.106-0.8,0.32c-0.179,0.213-0.271,0.555-0.276,1.023H33.808z"/>
		<path fill="#4D4D4D" d="M35.343,139.5v-5.776h0.592v0.288c0.405-0.245,0.806-0.368,1.2-0.368c0.507,0,0.874,0.161,1.104,0.484
			c0.229,0.322,0.345,0.854,0.345,1.596s-0.135,1.273-0.404,1.596c-0.27,0.323-0.716,0.484-1.34,0.484
			c-0.325,0-0.624-0.029-0.896-0.088v1.784H35.343z M37.047,134.18c-0.16,0-0.332,0.026-0.517,0.08
			c-0.184,0.054-0.329,0.106-0.436,0.16l-0.152,0.08v2.695c0.379,0.059,0.667,0.088,0.864,0.088c0.432,0,0.734-0.122,0.908-0.367
			c0.173-0.246,0.26-0.646,0.26-1.2s-0.079-0.949-0.236-1.185C37.581,134.297,37.351,134.18,37.047,134.18z"/>
		<path fill="#4D4D4D" d="M39.384,135.716c0-0.73,0.13-1.259,0.392-1.584s0.702-0.488,1.324-0.488c0.621,0,1.062,0.163,1.319,0.488
			c0.259,0.325,0.389,0.854,0.389,1.584s-0.123,1.261-0.368,1.592s-0.693,0.496-1.344,0.496c-0.651,0-1.099-0.165-1.345-0.496
			C39.506,136.977,39.384,136.446,39.384,135.716z M39.999,135.704c0,0.584,0.071,0.993,0.212,1.228
			c0.142,0.234,0.438,0.352,0.889,0.352c0.45,0,0.745-0.115,0.884-0.348c0.139-0.231,0.208-0.642,0.208-1.228
			c0-0.587-0.077-0.991-0.232-1.212c-0.154-0.222-0.441-0.332-0.859-0.332c-0.419,0-0.707,0.11-0.864,0.332
			C40.078,134.717,39.999,135.12,39.999,135.704z"/>
		<path fill="#4D4D4D" d="M45.823,134.243h-1.272v1.912c0,0.459,0.033,0.761,0.1,0.904c0.067,0.145,0.226,0.216,0.477,0.216
			l0.712-0.048l0.04,0.496c-0.357,0.059-0.63,0.088-0.816,0.088c-0.416,0-0.704-0.102-0.863-0.304c-0.16-0.203-0.24-0.59-0.24-1.16
			v-2.104h-0.568v-0.52h0.568V132.5h0.592v1.224h1.272V134.243z"/>
	</g>
</g>
<g>
	<g>
		<path fill="#4D4D4D" d="M63.458,49.224h-1.977v-5.536h1.977c0.901,0,1.498,0.357,1.792,1.072c0.17,0.41,0.256,0.949,0.256,1.616
			c0,1.392-0.347,2.269-1.04,2.632C64.188,49.151,63.853,49.224,63.458,49.224z M64.874,46.376c0-1.062-0.237-1.723-0.712-1.984
			c-0.192-0.106-0.427-0.16-0.704-0.16h-1.36v4.448h1.36C64.401,48.68,64.874,47.912,64.874,46.376z"/>
		<path fill="#4D4D4D" d="M69.258,48.728l0.232-0.023l0.016,0.472c-0.608,0.085-1.128,0.128-1.56,0.128
			c-0.576,0-0.984-0.167-1.225-0.5s-0.359-0.853-0.359-1.556c0-1.403,0.557-2.104,1.672-2.104c0.538,0,0.941,0.15,1.208,0.452
			s0.399,0.774,0.399,1.42l-0.031,0.456H66.97c0,0.442,0.08,0.771,0.24,0.984c0.16,0.213,0.438,0.319,0.836,0.319
			S68.847,48.76,69.258,48.728z M69.042,46.991c0-0.49-0.079-0.837-0.236-1.04c-0.157-0.202-0.413-0.304-0.768-0.304
			s-0.621,0.106-0.8,0.32c-0.179,0.213-0.271,0.555-0.276,1.023H69.042z"/>
		<path fill="#4D4D4D" d="M70.578,51v-5.776h0.592v0.288c0.405-0.245,0.806-0.368,1.2-0.368c0.507,0,0.874,0.161,1.104,0.484
			c0.229,0.322,0.345,0.854,0.345,1.596s-0.135,1.273-0.404,1.596c-0.27,0.323-0.716,0.484-1.34,0.484
			c-0.325,0-0.624-0.029-0.896-0.088V51H70.578z M72.282,45.68c-0.16,0-0.332,0.026-0.517,0.08c-0.184,0.054-0.329,0.106-0.436,0.16
			L71.178,46v2.695c0.379,0.059,0.667,0.088,0.864,0.088c0.432,0,0.734-0.122,0.908-0.367c0.173-0.246,0.26-0.646,0.26-1.2
			s-0.079-0.949-0.236-1.185C72.816,45.797,72.586,45.68,72.282,45.68z"/>
		<path fill="#4D4D4D" d="M74.618,47.216c0-0.73,0.13-1.259,0.392-1.584s0.702-0.488,1.324-0.488c0.621,0,1.062,0.163,1.319,0.488
			c0.259,0.325,0.389,0.854,0.389,1.584s-0.123,1.261-0.368,1.592s-0.693,0.496-1.344,0.496c-0.651,0-1.099-0.165-1.345-0.496
			C74.74,48.477,74.618,47.946,74.618,47.216z M75.233,47.204c0,0.584,0.071,0.993,0.212,1.228c0.142,0.234,0.438,0.352,0.889,0.352
			c0.45,0,0.745-0.115,0.884-0.348c0.139-0.231,0.208-0.642,0.208-1.228c0-0.587-0.077-0.991-0.232-1.212
			c-0.154-0.222-0.441-0.332-0.859-0.332c-0.419,0-0.707,0.11-0.864,0.332C75.312,46.217,75.233,46.62,75.233,47.204z"/>
		<path fill="#4D4D4D" d="M81.058,45.743h-1.272v1.912c0,0.459,0.033,0.761,0.1,0.904c0.067,0.145,0.226,0.216,0.477,0.216
			l0.712-0.048l0.04,0.496c-0.357,0.059-0.63,0.088-0.816,0.088c-0.416,0-0.704-0.102-0.863-0.304c-0.16-0.203-0.24-0.59-0.24-1.16
			v-2.104h-0.568v-0.52h0.568V44h0.592v1.224h1.272V45.743z"/>
	</g>
</g>
<g>
	<g>
		<path fill="#4D4D4D" stroke="#4D4D4D" stroke-width="0.25" stroke-miterlimit="10" d="M88.159,17.693H74.303v4.121h13.856V17.693z
			 M87.093,20.748H75.369v-1.989h11.724V20.748z"/>
		<path fill="#4D4D4D" stroke="#4D4D4D" stroke-width="0.25" stroke-miterlimit="10" d="M88.201,21.855H74.262v-4.204h13.939V21.855
			z M74.345,21.772h13.773v-4.038H74.345V21.772z M87.135,20.79H75.328v-2.072h11.807V20.79z M75.411,20.707h11.641V18.8H75.411
			V20.707z"/>
	</g>
	<path fill="#4D4D4D" stroke="#4D4D4D" stroke-width="0.25" stroke-miterlimit="10" d="M73.427,0.842H73.41L61.308,12.891h-0.027
		v25.426h39.842l0.019,0.017l12.104-12.126l0.012-0.012V1.646l0.002-0.813L73.427,0.842z M62.986,12.891L73.074,2.803v10.087H62.986
		z M112.11,2.795V25.72l-10.929,10.929V13.723L112.11,2.795z M74.222,12.891v-10.9l37.075-0.008l-10.908,10.908H74.222z
		 M62.43,37.168V14.039h37.602v23.128H62.43z"/>
</g>
<g>
	<polyline fill="none" stroke="#4D4D4D" stroke-miterlimit="10" points="50.5,20.833 14,20.833 14,59.75 	"/>
	<polygon fill="#4D4D4D" points="13.875,65.621 19.158,56.471 8.592,56.471 	"/>
</g>
<g>
	<polyline fill="none" stroke="#4D4D4D" stroke-miterlimit="10" points="122.259,20.833 158.759,20.833 158.759,59.75 	"/>
	<polygon fill="#4D4D4D" points="158.884,65.621 153.6,56.471 164.167,56.471 	"/>
</g>
</svg>
