<?xml version="1.0" encoding="utf-8"?>
<!-- Generator: Adobe Illustrator 21.1.0, SVG Export Plug-In . SVG Version: 6.00 Build 0)  -->
<svg version="1.1" xmlns="http://www.w3.org/2000/svg" xmlns:xlink="http://www.w3.org/1999/xlink" x="0px" y="0px"
	 viewBox="0 0 400 400" style="enable-background:new 0 0 400 400;" xml:space="preserve">
<style type="text/css">
	.st0{fill:#01B7FA;}
	.st1{fill:#FFFFFF;}
	.st2{fill:#01B7FA;stroke:#FFFFFF;stroke-width:3;stroke-miterlimit:10;}
	.st3{fill:#FFFFFF;stroke:#01B7FA;stroke-width:2;stroke-miterlimit:10;}
	.st4{fill:none;stroke:#000000;stroke-miterlimit:10;}
	.st5{fill:#606060;stroke:#000000;stroke-width:0.5;stroke-miterlimit:10;}
	.st6{fill:#BFBFBF;stroke:#000000;stroke-width:0.5;stroke-miterlimit:10;}
	.st7{fill:#202020;stroke:#000000;stroke-width:0.5;stroke-miterlimit:10;}
	.st8{fill:#9F9F9F;stroke:#000000;stroke-width:0.5;stroke-miterlimit:10;}
	.st9{fill:#404040;stroke:#000000;stroke-width:0.5;stroke-miterlimit:10;}
	.st10{fill:#808080;stroke:#000000;stroke-width:0.5;stroke-miterlimit:10;}
	.st11{fill:#DFDFDF;stroke:#000000;stroke-width:0.5;stroke-miterlimit:10;}
	.st12{stroke:#000000;stroke-width:0.5;stroke-miterlimit:10;}
	.st13{fill:none;stroke:#FFFFFF;stroke-width:5;stroke-miterlimit:10;}
	.st14{fill:#FFFFFF;stroke:#01B7FA;stroke-width:6;stroke-miterlimit:10;}
	.st15{fill:none;stroke:#FFFFFF;stroke-width:4.1;stroke-miterlimit:10;}
	.st16{fill:#01B7FA;stroke:#FFFFFF;stroke-width:8;stroke-miterlimit:10;}
</style>
<g id="Ebene_2">
	<rect x="0.3" y="-0.2" class="st0" width="400.3" height="400.3"/>
</g>
<g id="Ebene_1">
	<g>
		<g>
			<path class="st1" d="M358.6,308.2H42.3V100.9h316.3V308.2z M49.3,301.2h302.3V107.9H49.3V301.2z"/>
		</g>
		<g>
			<path class="st1" d="M324.9,274.4H75.7V134.6h249.2V274.4z M82.7,267.4h235.2V141.6H82.7V267.4z"/>
		</g>
		<g>
			<rect x="80.4" y="208.7" class="st1" width="83.6" height="7"/>
		</g>
		<g>
			<rect x="80.4" y="222.6" class="st1" width="83.6" height="7"/>
		</g>
		<g>
			<rect x="80.4" y="236.5" class="st1" width="83.6" height="7"/>
		</g>
		<circle class="st1" cx="321.4" cy="136.9" r="11.1"/>
		<circle class="st1" cx="321.4" cy="270.9" r="11.1"/>
		<circle class="st1" cx="79.2" cy="136.9" r="11.1"/>
		<circle class="st1" cx="79.2" cy="270.9" r="11.1"/>
		<g>
			<path class="st1" d="M260,170.9c-14.6,0-23.8,7.5-27.4,22.5h35.1v7.2h-36.1l-0.1,3.2v3.6l0.1,2.5h31.9v7.2h-30.8
				c1.7,6.7,4.9,11.9,9.5,15.5c4.7,3.7,10.9,5.5,18.7,5.5c7.2,0,14.3-1.2,21.3-3.7v8.4c-6.7,2.4-14,3.6-21.8,3.6
				c-10.9,0-19.6-2.5-26.3-7.5c-6.6-5-11-12.3-13.1-21.9h-11.4v-7.2h10.5l-0.1-2.3v-2.5l0.1-4.5h-10.5v-7.2h11.3
				c1.8-9.7,6-17.3,12.7-22.7c6.7-5.4,15.5-8.2,26.4-8.2c9.2,0,17.6,1.8,25.2,5.4l-4.9,7.8C272.7,172.5,265.9,170.9,260,170.9z"/>
		</g>
	</g>
</g>
</svg>
