<?xml version="1.0" encoding="utf-8"?>
<!-- Generator: Adobe Illustrator 21.1.0, SVG Export Plug-In . SVG Version: 6.00 Build 0)  -->
<svg version="1.1" id="Ebene_1" xmlns="http://www.w3.org/2000/svg" xmlns:xlink="http://www.w3.org/1999/xlink" x="0px" y="0px"
	 viewBox="0 0 200 200" enable-background="new 0 0 200 200" xml:space="preserve">
<rect x="0.333" y="0.333" fill="#FFFFFF" width="200" height="200.667"/>
<g>
	<g>
		<path fill="#4D4D4D" d="M2.703,12.869V7.333h1.152l2.121,4.992h0.168V7.333h0.607v5.536H5.623l-2.15-4.992H3.32v4.992H2.703z"/>
		<path fill="#4D4D4D" d="M9.896,12.869H9.279v-2.328L7.512,7.333h0.697l1.375,2.592l1.377-2.592h0.695l-1.76,3.208V12.869z"/>
		<path fill="#4D4D4D" d="M13.801,7.789C13,7.789,12.6,8.091,12.6,8.693c0,0.336,0.092,0.566,0.277,0.691
			c0.184,0.126,0.557,0.251,1.119,0.376c0.562,0.126,0.961,0.288,1.195,0.488c0.236,0.2,0.354,0.529,0.354,0.988
			c0,1.136-0.59,1.704-1.77,1.704c-0.389,0-0.877-0.046-1.463-0.137l-0.289-0.039l0.064-0.513c0.727,0.097,1.277,0.145,1.656,0.145
			c0.789,0,1.184-0.371,1.184-1.112c0-0.299-0.086-0.514-0.26-0.644c-0.174-0.131-0.496-0.242-0.973-0.332
			c-0.623-0.134-1.066-0.306-1.326-0.517c-0.262-0.211-0.393-0.563-0.393-1.06c0-0.992,0.594-1.488,1.783-1.488
			c0.391,0,0.857,0.04,1.4,0.12l0.271,0.04l-0.055,0.52C14.635,7.835,14.109,7.789,13.801,7.789z"/>
		<path fill="#4D4D4D" d="M16.607,12.869V7.333h3.369v0.544h-2.752v1.912h2.271v0.536h-2.271v2h2.752v0.544H16.607z"/>
		<path fill="#4D4D4D" d="M22.791,12.869V7.333h3.369v0.544h-2.752v1.912h2.271v0.536h-2.271v2h2.752v0.544H22.791z"/>
		<path fill="#4D4D4D" d="M29.545,8.869h0.6v4h-0.6v-0.28c-0.4,0.24-0.795,0.36-1.186,0.36c-0.543,0-0.904-0.142-1.084-0.424
			c-0.178-0.283-0.268-0.806-0.268-1.568V8.869h0.6v2.08c0,0.581,0.051,0.971,0.152,1.168s0.33,0.296,0.688,0.296
			c0.178,0,0.355-0.025,0.537-0.076s0.32-0.1,0.416-0.147l0.145-0.072V8.869z"/>
		<path fill="#4D4D4D" d="M31.295,12.869v-4h0.592v0.544c0.465-0.32,0.953-0.53,1.465-0.632v0.607
			c-0.225,0.043-0.457,0.109-0.701,0.2c-0.242,0.091-0.428,0.171-0.555,0.24l-0.201,0.104v2.936H31.295z"/>
		<path fill="#4D4D4D" d="M33.809,10.861c0-0.73,0.129-1.259,0.391-1.584s0.703-0.488,1.324-0.488s1.062,0.163,1.32,0.488
			s0.389,0.854,0.389,1.584s-0.123,1.261-0.369,1.592c-0.244,0.331-0.693,0.496-1.344,0.496s-1.098-0.165-1.344-0.496
			S33.809,11.592,33.809,10.861z M34.424,10.85c0,0.584,0.07,0.993,0.211,1.228c0.143,0.234,0.438,0.352,0.889,0.352
			s0.746-0.115,0.885-0.348c0.139-0.231,0.207-0.642,0.207-1.228c0-0.587-0.076-0.991-0.232-1.212
			C36.229,9.42,35.941,9.31,35.523,9.31s-0.707,0.11-0.863,0.332C34.502,9.862,34.424,10.266,34.424,10.85z"/>
		<path fill="#4D4D4D" d="M38.807,12.869h-0.6v-4h0.592v0.28c0.432-0.24,0.846-0.36,1.24-0.36c0.533,0,0.893,0.145,1.076,0.432
			c0.184,0.288,0.275,0.801,0.275,1.536v2.112h-0.592v-2.096c0-0.555-0.055-0.935-0.164-1.141c-0.109-0.205-0.342-0.308-0.699-0.308
			c-0.172,0-0.352,0.025-0.541,0.076s-0.334,0.1-0.436,0.147l-0.152,0.072V12.869z"/>
		<path fill="#4D4D4D" d="M45.223,12.373l0.232-0.023l0.016,0.472c-0.607,0.085-1.127,0.128-1.559,0.128
			c-0.576,0-0.984-0.167-1.225-0.5s-0.359-0.853-0.359-1.556c0-1.403,0.557-2.104,1.672-2.104c0.537,0,0.941,0.15,1.207,0.452
			c0.268,0.302,0.4,0.774,0.4,1.42l-0.031,0.456h-2.641c0,0.442,0.08,0.771,0.24,0.984c0.16,0.213,0.438,0.319,0.836,0.319
			C44.408,12.421,44.812,12.405,45.223,12.373z M45.008,10.637c0-0.49-0.08-0.837-0.236-1.04c-0.158-0.202-0.414-0.304-0.768-0.304
			c-0.355,0-0.621,0.106-0.801,0.32c-0.178,0.213-0.271,0.555-0.275,1.023H45.008z"/>
		<path fill="#4D4D4D" d="M46.111,8.869h0.656l0.975,1.568l0.977-1.568h0.656l-1.271,1.984l1.264,2.016h-0.656l-0.969-1.56
			l-0.975,1.56h-0.656l1.256-2L46.111,8.869z"/>
		<path fill="#4D4D4D" d="M52.199,9.389h-1.271v1.912c0,0.459,0.033,0.761,0.1,0.904c0.066,0.145,0.225,0.216,0.477,0.216
			l0.711-0.048l0.041,0.496c-0.357,0.059-0.631,0.088-0.816,0.088c-0.416,0-0.705-0.102-0.863-0.304
			c-0.16-0.203-0.24-0.59-0.24-1.16V9.389h-0.568v-0.52h0.568V7.646h0.592v1.224h1.271V9.389z"/>
		<path fill="#4D4D4D" d="M55.375,11.205c0,0.8,0.434,1.2,1.297,1.2c0.447,0,0.785-0.095,1.012-0.284s0.34-0.494,0.34-0.916V7.333
			h0.607v3.856c0,0.618-0.164,1.066-0.492,1.344c-0.326,0.277-0.811,0.416-1.451,0.416s-1.121-0.139-1.443-0.416
			c-0.324-0.277-0.484-0.726-0.484-1.344V7.333h0.615V11.205z"/>
		<path fill="#4D4D4D" d="M61.479,7.789c-0.799,0-1.199,0.302-1.199,0.904c0,0.336,0.092,0.566,0.275,0.691
			c0.184,0.126,0.557,0.251,1.121,0.376c0.562,0.126,0.961,0.288,1.195,0.488s0.352,0.529,0.352,0.988
			c0,1.136-0.59,1.704-1.768,1.704c-0.389,0-0.877-0.046-1.465-0.137l-0.287-0.039l0.064-0.513c0.725,0.097,1.277,0.145,1.656,0.145
			c0.789,0,1.184-0.371,1.184-1.112c0-0.299-0.088-0.514-0.26-0.644c-0.174-0.131-0.498-0.242-0.973-0.332
			c-0.623-0.134-1.066-0.306-1.328-0.517s-0.393-0.563-0.393-1.06c0-0.992,0.596-1.488,1.785-1.488c0.389,0,0.855,0.04,1.4,0.12
			l0.271,0.04l-0.057,0.52C62.314,7.835,61.789,7.789,61.479,7.789z"/>
	</g>
</g>
<g>
	<g>
		<path fill="#4D4D4D" d="M169.137,7.589v5.28h-0.617V8.277l-1.359,0.896l-0.279-0.464l1.68-1.12H169.137z"/>
		<path fill="#4D4D4D" d="M171.348,7.85c0.334-0.232,0.793-0.349,1.379-0.349c0.588,0,1.053,0.116,1.396,0.349
			c0.344,0.231,0.516,0.574,0.516,1.027c0,0.331-0.066,0.583-0.199,0.756c-0.133,0.174-0.359,0.332-0.68,0.477
			c0.32,0.144,0.561,0.313,0.719,0.508c0.16,0.194,0.24,0.468,0.24,0.82c0,1.008-0.66,1.512-1.979,1.512
			c-1.32,0-1.98-0.475-1.98-1.424c0-0.379,0.072-0.667,0.219-0.864c0.148-0.197,0.379-0.381,0.693-0.552
			c-0.289-0.145-0.498-0.309-0.629-0.492s-0.195-0.434-0.195-0.748C170.848,8.421,171.014,8.081,171.348,7.85z M171.416,11.421
			c0,0.646,0.441,0.968,1.324,0.968c0.881,0,1.322-0.338,1.322-1.016c0-0.282-0.078-0.492-0.234-0.628
			c-0.158-0.136-0.391-0.249-0.701-0.34h-0.84c-0.293,0.08-0.512,0.198-0.656,0.355C171.488,10.919,171.416,11.139,171.416,11.421z
			 M173.984,8.949c0-0.592-0.414-0.888-1.24-0.888c-0.828,0-1.24,0.293-1.24,0.88c0,0.234,0.064,0.424,0.191,0.567
			c0.129,0.145,0.326,0.265,0.592,0.36h0.84c0.289-0.091,0.504-0.208,0.645-0.352C173.912,9.373,173.984,9.184,173.984,8.949z"/>
		<path fill="#4D4D4D" d="M175.52,12.869v-0.912h0.656v0.912H175.52z"/>
		<path fill="#4D4D4D" d="M179.592,12.869v-1.032h-2.561v-0.479l1.504-3.769h0.672l-1.527,3.704h1.912V9.646h0.615v1.647h0.672
			v0.544h-0.672v1.032H179.592z"/>
		<path fill="#4D4D4D" d="M182.035,7.85c0.334-0.232,0.795-0.349,1.381-0.349s1.053,0.116,1.396,0.349
			c0.344,0.231,0.516,0.574,0.516,1.027c0,0.331-0.066,0.583-0.201,0.756c-0.133,0.174-0.359,0.332-0.68,0.477
			c0.32,0.144,0.561,0.313,0.721,0.508s0.24,0.468,0.24,0.82c0,1.008-0.66,1.512-1.98,1.512s-1.98-0.475-1.98-1.424
			c0-0.379,0.074-0.667,0.221-0.864s0.377-0.381,0.691-0.552c-0.287-0.145-0.496-0.309-0.627-0.492s-0.197-0.434-0.197-0.748
			C181.535,8.421,181.703,8.081,182.035,7.85z M182.104,11.421c0,0.646,0.441,0.968,1.324,0.968s1.324-0.338,1.324-1.016
			c0-0.282-0.078-0.492-0.236-0.628c-0.156-0.136-0.391-0.249-0.699-0.34h-0.84c-0.295,0.08-0.512,0.198-0.656,0.355
			C182.176,10.919,182.104,11.139,182.104,11.421z M184.672,8.949c0-0.592-0.414-0.888-1.24-0.888s-1.24,0.293-1.24,0.88
			c0,0.234,0.064,0.424,0.193,0.567c0.127,0.145,0.324,0.265,0.592,0.36h0.84c0.287-0.091,0.502-0.208,0.643-0.352
			C184.602,9.373,184.672,9.184,184.672,8.949z"/>
		<path fill="#4D4D4D" d="M189.527,8.149c-0.48-0.064-0.947-0.097-1.4-0.097s-0.803,0.158-1.047,0.473
			c-0.246,0.314-0.369,0.765-0.369,1.352l0.201-0.08c0.133-0.048,0.311-0.099,0.531-0.151c0.221-0.054,0.418-0.08,0.588-0.08
			c1.184,0,1.775,0.547,1.775,1.64c0,0.561-0.16,0.991-0.482,1.292c-0.324,0.302-0.777,0.452-1.365,0.452
			c-1.258,0-1.887-0.915-1.887-2.744c0-0.923,0.18-1.603,0.539-2.04s0.867-0.656,1.523-0.656c0.434,0,0.844,0.032,1.232,0.097
			l0.217,0.04L189.527,8.149z M187.992,10.117c-0.182,0-0.381,0.025-0.598,0.076c-0.215,0.051-0.385,0.1-0.508,0.147l-0.184,0.08
			c0.006,0.608,0.107,1.091,0.309,1.448c0.199,0.357,0.506,0.536,0.916,0.536s0.719-0.103,0.928-0.309
			c0.207-0.205,0.312-0.495,0.312-0.871s-0.104-0.655-0.309-0.837C188.654,10.208,188.365,10.117,187.992,10.117z"/>
	</g>
</g>
<g>
	<g>
		<path fill="#4D4D4D" d="M113.641,34.149v-0.561h3.279v0.809l-2.031,4.552l-0.584-0.184l1.992-4.408v-0.208H113.641z"/>
		<path fill="#4D4D4D" d="M118.039,38.869v-0.912h0.656v0.912H118.039z"/>
		<path fill="#4D4D4D" d="M122.111,38.869v-1.032h-2.559v-0.479l1.504-3.769h0.672l-1.529,3.704h1.912v-1.647h0.617v1.647h0.672
			v0.544h-0.672v1.032H122.111z"/>
		<path fill="#4D4D4D" d="M126.592,38.869v-1.032h-2.561v-0.479l1.504-3.769h0.672l-1.527,3.704h1.912v-1.647h0.615v1.647h0.672
			v0.544h-0.672v1.032H126.592z"/>
		<path fill="#4D4D4D" d="M130.168,38.405c0.965,0,1.451-0.613,1.455-1.84c-0.533,0.202-0.99,0.304-1.375,0.304
			c-1.152,0-1.729-0.536-1.729-1.608c0-0.538,0.166-0.965,0.496-1.279s0.775-0.473,1.336-0.473c0.646,0,1.125,0.239,1.439,0.717
			c0.316,0.477,0.473,1.179,0.473,2.104c0,0.926-0.178,1.594-0.531,2.004c-0.355,0.411-0.877,0.616-1.564,0.616
			c-0.4,0-0.812-0.037-1.24-0.112l-0.207-0.032l0.055-0.495C129.256,38.373,129.721,38.405,130.168,38.405z M130.295,36.325
			c0.326,0,0.703-0.072,1.129-0.216l0.209-0.072c-0.018-1.322-0.443-1.984-1.281-1.984c-0.373,0-0.666,0.108-0.875,0.324
			c-0.211,0.216-0.316,0.511-0.316,0.884C129.16,35.971,129.539,36.325,130.295,36.325z"/>
	</g>
</g>
<g>
	<g>
		<path fill="#4D4D4D" d="M105.904,64.869v-1.032h-2.561v-0.479l1.504-3.769h0.672l-1.527,3.704h1.912v-1.647h0.615v1.647h0.672
			v0.544h-0.672v1.032H105.904z"/>
		<path fill="#4D4D4D" d="M108.039,64.869v-0.912h0.656v0.912H108.039z"/>
		<path fill="#4D4D4D" d="M111.207,64.405c0.967,0,1.451-0.613,1.457-1.84c-0.533,0.202-0.992,0.304-1.377,0.304
			c-1.15,0-1.727-0.536-1.727-1.608c0-0.538,0.164-0.965,0.496-1.279c0.33-0.314,0.775-0.473,1.336-0.473
			c0.645,0,1.125,0.239,1.439,0.717c0.314,0.477,0.473,1.179,0.473,2.104c0,0.926-0.178,1.594-0.533,2.004
			c-0.354,0.411-0.875,0.616-1.564,0.616c-0.398,0-0.812-0.037-1.238-0.112l-0.209-0.032l0.057-0.495
			C110.297,64.373,110.76,64.405,111.207,64.405z M111.336,62.325c0.326,0,0.701-0.072,1.129-0.216l0.207-0.072
			c-0.016-1.322-0.443-1.984-1.279-1.984c-0.373,0-0.666,0.108-0.877,0.324s-0.316,0.511-0.316,0.884
			C110.199,61.971,110.578,62.325,111.336,62.325z"/>
		<path fill="#4D4D4D" d="M116.824,59.589v5.28h-0.617v-4.592l-1.359,0.896l-0.279-0.464l1.68-1.12H116.824z"/>
		<path fill="#4D4D4D" d="M120.424,59.501c0.438,0,0.793,0.083,1.064,0.248c0.576,0.342,0.863,1.195,0.863,2.561
			c0,0.965-0.16,1.646-0.48,2.044c-0.318,0.397-0.799,0.596-1.439,0.596s-1.121-0.196-1.443-0.588
			c-0.322-0.393-0.484-1.091-0.484-2.096c0-1.006,0.158-1.718,0.477-2.137C119.297,59.711,119.779,59.501,120.424,59.501z
			 M120.432,60.053c-0.305,0-0.543,0.064-0.721,0.192c-0.377,0.262-0.566,0.952-0.566,2.072c0,0.789,0.104,1.335,0.311,1.636
			c0.209,0.302,0.533,0.452,0.977,0.452s0.768-0.152,0.977-0.456c0.207-0.304,0.312-0.868,0.312-1.692
			c0-0.823-0.102-1.396-0.301-1.72C121.221,60.215,120.891,60.053,120.432,60.053z"/>
	</g>
</g>
<g>
	<g>
		<path fill="#4D4D4D" d="M2.703,38.869v-5.536h1.152l2.121,4.992h0.168v-4.992h0.607v5.536H5.623l-2.15-4.992H3.32v4.992H2.703z"/>
		<path fill="#4D4D4D" d="M7.625,38.869l1.52-5.536h1.344l1.52,5.536H11.4L11,37.445H8.633l-0.4,1.424H7.625z M9.607,33.861
			l-0.84,3.032h2.096l-0.84-3.032H9.607z"/>
		<path fill="#4D4D4D" d="M14.352,33.789c-0.799,0-1.199,0.302-1.199,0.904c0,0.336,0.092,0.566,0.275,0.691
			c0.184,0.126,0.557,0.251,1.121,0.376c0.562,0.126,0.961,0.288,1.195,0.488s0.352,0.529,0.352,0.988
			c0,1.136-0.59,1.704-1.768,1.704c-0.389,0-0.877-0.046-1.465-0.137l-0.287-0.039l0.064-0.513c0.725,0.097,1.277,0.145,1.656,0.145
			c0.789,0,1.184-0.371,1.184-1.112c0-0.299-0.088-0.514-0.26-0.644c-0.174-0.131-0.498-0.242-0.973-0.332
			c-0.623-0.134-1.066-0.306-1.328-0.517s-0.393-0.563-0.393-1.06c0-0.992,0.596-1.488,1.785-1.488c0.389,0,0.855,0.04,1.4,0.12
			l0.271,0.04l-0.057,0.52C15.188,33.835,14.662,33.789,14.352,33.789z"/>
		<path fill="#4D4D4D" d="M19.137,38.869H17.16v-5.536h1.977c0.9,0,1.498,0.357,1.791,1.072c0.17,0.41,0.256,0.949,0.256,1.616
			c0,1.392-0.346,2.269-1.039,2.632C19.867,38.797,19.531,38.869,19.137,38.869z M20.553,36.021c0-1.062-0.238-1.723-0.713-1.984
			c-0.191-0.106-0.426-0.16-0.703-0.16h-1.361v4.448h1.361C20.08,38.325,20.553,37.558,20.553,36.021z"/>
		<path fill="#4D4D4D" d="M21.721,38.869l1.52-5.536h1.344l1.52,5.536h-0.607l-0.4-1.424h-2.367l-0.4,1.424H21.721z M23.703,33.861
			l-0.84,3.032h2.096l-0.84-3.032H23.703z"/>
		<path fill="#4D4D4D" d="M28.84,38.949c-0.826,0-1.398-0.227-1.713-0.68c-0.314-0.454-0.471-1.167-0.471-2.141
			c0-0.973,0.16-1.695,0.479-2.168c0.32-0.472,0.889-0.708,1.705-0.708s1.385,0.235,1.707,0.704c0.324,0.47,0.484,1.192,0.484,2.168
			c0,0.678-0.068,1.22-0.207,1.628s-0.377,0.711-0.713,0.908l0.68,1.096l-0.576,0.272l-0.703-1.152
			C29.336,38.925,29.111,38.949,28.84,38.949z M27.287,36.125c0,0.811,0.107,1.394,0.32,1.748s0.625,0.532,1.236,0.532
			s1.021-0.172,1.232-0.517c0.211-0.344,0.316-0.925,0.316-1.743c0-0.819-0.109-1.415-0.328-1.788s-0.629-0.561-1.229-0.561
			s-1.008,0.186-1.225,0.557C27.396,34.724,27.287,35.314,27.287,36.125z"/>
		<path fill="#4D4D4D" d="M38.072,36.142c0,0.986-0.158,1.701-0.473,2.144s-0.887,0.664-1.717,0.664c-0.828,0-1.4-0.227-1.715-0.68
			c-0.314-0.454-0.473-1.167-0.473-2.141c0-0.973,0.16-1.695,0.48-2.168c0.32-0.472,0.889-0.708,1.703-0.708
			c0.816,0,1.387,0.235,1.709,0.704C37.91,34.427,38.072,35.154,38.072,36.142z M34.328,36.125c0,0.811,0.105,1.394,0.32,1.748
			c0.213,0.354,0.625,0.532,1.234,0.532c0.611,0,1.021-0.174,1.232-0.521s0.316-0.928,0.316-1.743c0-0.816-0.109-1.411-0.328-1.784
			s-0.627-0.561-1.229-0.561c-0.6,0-1.008,0.186-1.223,0.557C34.436,34.724,34.328,35.314,34.328,36.125z"/>
		<path fill="#4D4D4D" d="M39.199,38.869v-5.536h1.111l1.568,4.68l1.568-4.68h1.111v5.536h-0.615v-4.88H43.83l-1.607,4.68h-0.688
			l-1.607-4.68h-0.113v4.88H39.199z"/>
		<path fill="#4D4D4D" d="M46.088,33.333l1.4,2.368l1.408-2.368h0.664l-1.705,2.809l1.705,2.728h-0.697l-1.391-2.296l-1.416,2.296
			h-0.664l1.711-2.712l-1.711-2.824H46.088z"/>
		<path fill="#4D4D4D" d="M52.719,37.205c0,0.8,0.434,1.2,1.297,1.2c0.447,0,0.785-0.095,1.012-0.284s0.34-0.494,0.34-0.916v-3.872
			h0.607v3.856c0,0.618-0.164,1.066-0.492,1.344c-0.326,0.277-0.811,0.416-1.451,0.416s-1.121-0.139-1.443-0.416
			c-0.324-0.277-0.484-0.726-0.484-1.344v-3.856h0.615V37.205z"/>
		<path fill="#4D4D4D" d="M58.824,33.789c-0.801,0-1.201,0.302-1.201,0.904c0,0.336,0.092,0.566,0.277,0.691
			c0.184,0.126,0.557,0.251,1.119,0.376c0.562,0.126,0.961,0.288,1.195,0.488c0.236,0.2,0.354,0.529,0.354,0.988
			c0,1.136-0.59,1.704-1.77,1.704c-0.389,0-0.877-0.046-1.463-0.137l-0.289-0.039l0.064-0.513c0.727,0.097,1.277,0.145,1.656,0.145
			c0.789,0,1.184-0.371,1.184-1.112c0-0.299-0.086-0.514-0.26-0.644c-0.174-0.131-0.496-0.242-0.973-0.332
			c-0.623-0.134-1.066-0.306-1.326-0.517C57.131,35.582,57,35.229,57,34.733c0-0.992,0.594-1.488,1.783-1.488
			c0.391,0,0.857,0.04,1.4,0.12l0.271,0.04l-0.055,0.52C59.658,33.835,59.133,33.789,58.824,33.789z"/>
	</g>
</g>
<g>
	<path fill="#00B8FA" d="M75.891,1.662c0.352,0.032,0.693,0.112,1.023,0.24c0.33,0.128,0.628,0.301,0.895,0.52
		c0.266,0.219,0.493,0.485,0.679,0.8c0.187,0.315,0.317,0.679,0.392,1.095h-1.103c-0.298-0.927-0.927-1.46-1.886-1.599v3.838
		c0.394,0.16,0.781,0.33,1.159,0.511c0.378,0.181,0.72,0.389,1.023,0.623c0.303,0.235,0.549,0.512,0.735,0.832
		c0.186,0.32,0.28,0.698,0.28,1.135c0,0.501-0.096,0.93-0.288,1.287c-0.192,0.357-0.44,0.655-0.744,0.896
		c-0.304,0.24-0.645,0.426-1.023,0.559c-0.378,0.133-0.759,0.216-1.143,0.248v1.807H74.82v-1.839
		c-0.789-0.149-1.463-0.53-2.023-1.143c-0.559-0.613-0.908-1.367-1.047-2.263h1.151c0.106,0.576,0.322,1.071,0.647,1.487
		c0.325,0.416,0.749,0.688,1.271,0.815V7.354c-0.362-0.16-0.715-0.328-1.056-0.504c-0.341-0.176-0.645-0.381-0.911-0.616
		C72.587,6,72.373,5.731,72.214,5.427c-0.16-0.304-0.24-0.658-0.24-1.064c0-0.362,0.075-0.701,0.224-1.015
		c0.149-0.314,0.352-0.589,0.608-0.823c0.256-0.234,0.557-0.426,0.903-0.576c0.347-0.149,0.717-0.245,1.112-0.287V0.494h1.071V1.662
		z M73.109,4.316c0,0.437,0.162,0.797,0.487,1.079s0.733,0.53,1.223,0.744V2.733c-0.533,0.086-0.952,0.274-1.255,0.567
		C73.261,3.594,73.109,3.932,73.109,4.316z M77.954,9.688c0-0.213-0.059-0.41-0.176-0.592c-0.117-0.181-0.274-0.352-0.472-0.511
		c-0.197-0.16-0.418-0.304-0.663-0.432c-0.245-0.128-0.496-0.25-0.752-0.368v3.789c0.64-0.064,1.143-0.274,1.511-0.632
		C77.77,10.587,77.954,10.168,77.954,9.688z"/>
</g>
<g>
	<path fill="#00B8FA" d="M85.553,1.662c0.352,0.032,0.693,0.112,1.023,0.24c0.33,0.128,0.628,0.301,0.895,0.52
		c0.266,0.219,0.493,0.485,0.679,0.8c0.187,0.315,0.317,0.679,0.392,1.095h-1.103c-0.298-0.927-0.927-1.46-1.886-1.599v3.838
		c0.394,0.16,0.781,0.33,1.159,0.511c0.378,0.181,0.72,0.389,1.023,0.623c0.303,0.235,0.549,0.512,0.735,0.832
		c0.186,0.32,0.28,0.698,0.28,1.135c0,0.501-0.096,0.93-0.288,1.287c-0.192,0.357-0.44,0.655-0.744,0.896
		c-0.304,0.24-0.645,0.426-1.023,0.559c-0.378,0.133-0.759,0.216-1.143,0.248v1.807h-1.071v-1.839
		c-0.789-0.149-1.463-0.53-2.023-1.143c-0.559-0.613-0.908-1.367-1.047-2.263h1.151c0.106,0.576,0.322,1.071,0.647,1.487
		c0.325,0.416,0.749,0.688,1.271,0.815V7.354c-0.362-0.16-0.715-0.328-1.056-0.504s-0.645-0.381-0.911-0.616
		C82.249,6,82.035,5.731,81.876,5.427c-0.16-0.304-0.24-0.658-0.24-1.064c0-0.362,0.075-0.701,0.224-1.015
		c0.149-0.314,0.352-0.589,0.608-0.823c0.256-0.234,0.557-0.426,0.903-0.576c0.347-0.149,0.717-0.245,1.112-0.287V0.494h1.071V1.662
		z M82.771,4.316c0,0.437,0.162,0.797,0.488,1.079s0.733,0.53,1.223,0.744V2.733C83.948,2.819,83.53,3.007,83.227,3.3
		C82.923,3.594,82.771,3.932,82.771,4.316z M87.616,9.688c0-0.213-0.058-0.41-0.176-0.592c-0.117-0.181-0.274-0.352-0.472-0.511
		c-0.197-0.16-0.418-0.304-0.663-0.432c-0.245-0.128-0.496-0.25-0.752-0.368v3.789c0.64-0.064,1.143-0.274,1.511-0.632
		C87.432,10.587,87.616,10.168,87.616,9.688z"/>
</g>
<g>
	<path fill="#00B8FA" d="M95.215,1.662c0.352,0.032,0.693,0.112,1.023,0.24c0.33,0.128,0.628,0.301,0.895,0.52
		c0.266,0.219,0.493,0.485,0.679,0.8C98,3.535,98.13,3.9,98.205,4.316h-1.103c-0.298-0.927-0.927-1.46-1.886-1.599v3.838
		c0.394,0.16,0.781,0.33,1.159,0.511c0.378,0.181,0.72,0.389,1.023,0.623c0.303,0.235,0.549,0.512,0.735,0.832
		c0.186,0.32,0.28,0.698,0.28,1.135c0,0.501-0.096,0.93-0.288,1.287c-0.192,0.357-0.44,0.655-0.744,0.896
		c-0.304,0.24-0.645,0.426-1.023,0.559c-0.378,0.133-0.759,0.216-1.143,0.248v1.807h-1.071v-1.839
		c-0.789-0.149-1.463-0.53-2.023-1.143c-0.559-0.613-0.908-1.367-1.047-2.263h1.151c0.106,0.576,0.322,1.071,0.647,1.487
		c0.325,0.416,0.749,0.688,1.271,0.815V7.354c-0.362-0.16-0.715-0.328-1.056-0.504c-0.341-0.176-0.645-0.381-0.911-0.616
		C91.911,6,91.697,5.731,91.538,5.427c-0.16-0.304-0.24-0.658-0.24-1.064c0-0.362,0.075-0.701,0.224-1.015
		c0.149-0.314,0.352-0.589,0.608-0.823c0.256-0.234,0.557-0.426,0.903-0.576c0.347-0.149,0.717-0.245,1.112-0.287V0.494h1.071V1.662
		z M92.433,4.316c0,0.437,0.162,0.797,0.488,1.079s0.733,0.53,1.223,0.744V2.733C93.61,2.819,93.192,3.007,92.889,3.3
		C92.585,3.594,92.433,3.932,92.433,4.316z M97.277,9.688c0-0.213-0.059-0.41-0.176-0.592c-0.117-0.181-0.274-0.352-0.472-0.511
		c-0.197-0.16-0.418-0.304-0.663-0.432c-0.245-0.128-0.496-0.25-0.752-0.368v3.789c0.64-0.064,1.143-0.274,1.511-0.632
		C97.094,10.587,97.277,10.168,97.277,9.688z"/>
</g>
<g>
	<path fill="#00B8FA" d="M104.877,1.662c0.352,0.032,0.693,0.112,1.023,0.24c0.33,0.128,0.628,0.301,0.895,0.52
		c0.266,0.219,0.493,0.485,0.679,0.8c0.187,0.315,0.317,0.679,0.392,1.095h-1.103c-0.298-0.927-0.927-1.46-1.886-1.599v3.838
		c0.394,0.16,0.781,0.33,1.159,0.511c0.378,0.181,0.72,0.389,1.023,0.623c0.303,0.235,0.549,0.512,0.735,0.832
		c0.186,0.32,0.28,0.698,0.28,1.135c0,0.501-0.096,0.93-0.288,1.287c-0.192,0.357-0.44,0.655-0.744,0.896
		c-0.304,0.24-0.645,0.426-1.023,0.559c-0.378,0.133-0.759,0.216-1.143,0.248v1.807h-1.071v-1.839
		c-0.789-0.149-1.463-0.53-2.023-1.143c-0.559-0.613-0.908-1.367-1.047-2.263h1.151c0.106,0.576,0.322,1.071,0.647,1.487
		c0.325,0.416,0.749,0.688,1.271,0.815V7.354c-0.362-0.16-0.715-0.328-1.056-0.504s-0.645-0.381-0.911-0.616
		C101.573,6,101.359,5.731,101.2,5.427c-0.16-0.304-0.24-0.658-0.24-1.064c0-0.362,0.075-0.701,0.224-1.015
		c0.149-0.314,0.352-0.589,0.608-0.823c0.256-0.234,0.557-0.426,0.903-0.576c0.347-0.149,0.717-0.245,1.112-0.287V0.494h1.071V1.662
		z M102.095,4.316c0,0.437,0.162,0.797,0.488,1.079s0.733,0.53,1.223,0.744V2.733c-0.533,0.086-0.952,0.274-1.255,0.567
		C102.247,3.594,102.095,3.932,102.095,4.316z M106.939,9.688c0-0.213-0.058-0.41-0.176-0.592c-0.117-0.181-0.274-0.352-0.472-0.511
		c-0.197-0.16-0.418-0.304-0.663-0.432c-0.245-0.128-0.496-0.25-0.752-0.368v3.789c0.64-0.064,1.143-0.274,1.511-0.632
		C106.756,10.587,106.939,10.168,106.939,9.688z"/>
</g>
<g>
	<path fill="#00B8FA" d="M113.895,1.662c0.352,0.032,0.693,0.112,1.023,0.24c0.33,0.128,0.628,0.301,0.895,0.52
		c0.266,0.219,0.493,0.485,0.679,0.8c0.187,0.315,0.317,0.679,0.392,1.095h-1.103c-0.298-0.927-0.927-1.46-1.886-1.599v3.838
		c0.394,0.16,0.781,0.33,1.159,0.511c0.378,0.181,0.72,0.389,1.023,0.623c0.303,0.235,0.549,0.512,0.735,0.832
		c0.186,0.32,0.28,0.698,0.28,1.135c0,0.501-0.096,0.93-0.288,1.287c-0.192,0.357-0.44,0.655-0.744,0.896
		c-0.304,0.24-0.645,0.426-1.023,0.559c-0.378,0.133-0.759,0.216-1.143,0.248v1.807h-1.071v-1.839
		c-0.789-0.149-1.463-0.53-2.023-1.143c-0.559-0.613-0.908-1.367-1.047-2.263h1.151c0.106,0.576,0.322,1.071,0.647,1.487
		c0.325,0.416,0.749,0.688,1.271,0.815V7.354c-0.362-0.16-0.715-0.328-1.056-0.504s-0.645-0.381-0.911-0.616
		c-0.266-0.234-0.479-0.503-0.639-0.807c-0.16-0.304-0.24-0.658-0.24-1.064c0-0.362,0.075-0.701,0.224-1.015
		c0.149-0.314,0.352-0.589,0.608-0.823c0.256-0.234,0.557-0.426,0.903-0.576c0.347-0.149,0.717-0.245,1.112-0.287V0.494h1.071V1.662
		z M111.112,4.316c0,0.437,0.162,0.797,0.488,1.079s0.733,0.53,1.223,0.744V2.733c-0.533,0.086-0.952,0.274-1.255,0.567
		C111.265,3.594,111.112,3.932,111.112,4.316z M115.957,9.688c0-0.213-0.058-0.41-0.176-0.592c-0.117-0.181-0.274-0.352-0.472-0.511
		c-0.197-0.16-0.418-0.304-0.663-0.432c-0.245-0.128-0.496-0.25-0.752-0.368v3.789c0.64-0.064,1.143-0.274,1.511-0.632
		C115.774,10.587,115.957,10.168,115.957,9.688z"/>
</g>
<g>
	<path fill="#00B8FA" d="M123.557,1.662c0.352,0.032,0.693,0.112,1.023,0.24c0.33,0.128,0.628,0.301,0.895,0.52
		c0.266,0.219,0.493,0.485,0.679,0.8c0.187,0.315,0.317,0.679,0.392,1.095h-1.103c-0.298-0.927-0.927-1.46-1.886-1.599v3.838
		c0.394,0.16,0.781,0.33,1.159,0.511c0.378,0.181,0.72,0.389,1.023,0.623c0.303,0.235,0.549,0.512,0.735,0.832
		c0.186,0.32,0.28,0.698,0.28,1.135c0,0.501-0.096,0.93-0.288,1.287c-0.192,0.357-0.44,0.655-0.744,0.896
		c-0.304,0.24-0.645,0.426-1.023,0.559c-0.378,0.133-0.759,0.216-1.143,0.248v1.807h-1.071v-1.839
		c-0.789-0.149-1.463-0.53-2.023-1.143c-0.559-0.613-0.908-1.367-1.047-2.263h1.151c0.106,0.576,0.322,1.071,0.647,1.487
		c0.325,0.416,0.749,0.688,1.271,0.815V7.354c-0.362-0.16-0.715-0.328-1.056-0.504c-0.341-0.176-0.645-0.381-0.911-0.616
		c-0.266-0.234-0.479-0.503-0.639-0.807c-0.16-0.304-0.24-0.658-0.24-1.064c0-0.362,0.075-0.701,0.224-1.015
		c0.149-0.314,0.352-0.589,0.608-0.823c0.256-0.234,0.557-0.426,0.903-0.576c0.347-0.149,0.717-0.245,1.112-0.287V0.494h1.071V1.662
		z M120.774,4.316c0,0.437,0.162,0.797,0.488,1.079s0.733,0.53,1.223,0.744V2.733c-0.533,0.086-0.952,0.274-1.255,0.567
		C120.927,3.594,120.774,3.932,120.774,4.316z M125.619,9.688c0-0.213-0.059-0.41-0.176-0.592c-0.117-0.181-0.274-0.352-0.472-0.511
		c-0.197-0.16-0.418-0.304-0.663-0.432c-0.245-0.128-0.496-0.25-0.752-0.368v3.789c0.64-0.064,1.143-0.274,1.511-0.632
		C125.436,10.587,125.619,10.168,125.619,9.688z"/>
</g>
<g>
	<path fill="#00B8FA" d="M133.219,1.662c0.352,0.032,0.693,0.112,1.023,0.24c0.33,0.128,0.628,0.301,0.895,0.52
		c0.266,0.219,0.493,0.485,0.679,0.8c0.187,0.315,0.317,0.679,0.392,1.095h-1.103c-0.298-0.927-0.927-1.46-1.886-1.599v3.838
		c0.394,0.16,0.781,0.33,1.159,0.511c0.378,0.181,0.72,0.389,1.023,0.623c0.303,0.235,0.549,0.512,0.735,0.832
		c0.186,0.32,0.28,0.698,0.28,1.135c0,0.501-0.096,0.93-0.288,1.287c-0.192,0.357-0.44,0.655-0.744,0.896
		c-0.304,0.24-0.645,0.426-1.023,0.559c-0.378,0.133-0.759,0.216-1.143,0.248v1.807h-1.071v-1.839
		c-0.789-0.149-1.463-0.53-2.023-1.143c-0.559-0.613-0.908-1.367-1.047-2.263h1.151c0.106,0.576,0.322,1.071,0.647,1.487
		c0.325,0.416,0.749,0.688,1.271,0.815V7.354c-0.362-0.16-0.715-0.328-1.056-0.504c-0.341-0.176-0.645-0.381-0.911-0.616
		c-0.266-0.234-0.479-0.503-0.639-0.807c-0.16-0.304-0.24-0.658-0.24-1.064c0-0.362,0.075-0.701,0.224-1.015
		c0.149-0.314,0.352-0.589,0.608-0.823c0.256-0.234,0.557-0.426,0.903-0.576c0.347-0.149,0.717-0.245,1.111-0.287V0.494h1.071V1.662
		z M130.436,4.316c0,0.437,0.162,0.797,0.488,1.079s0.733,0.53,1.223,0.744V2.733c-0.533,0.086-0.952,0.274-1.255,0.567
		C130.589,3.594,130.436,3.932,130.436,4.316z M135.281,9.688c0-0.213-0.059-0.41-0.176-0.592c-0.117-0.181-0.274-0.352-0.472-0.511
		c-0.197-0.16-0.418-0.304-0.663-0.432c-0.245-0.128-0.496-0.25-0.752-0.368v3.789c0.64-0.064,1.143-0.274,1.511-0.632
		C135.098,10.587,135.281,10.168,135.281,9.688z"/>
</g>
<g>
	<path fill="#00B8FA" d="M142.881,1.662c0.352,0.032,0.693,0.112,1.023,0.24c0.33,0.128,0.628,0.301,0.895,0.52
		c0.266,0.219,0.493,0.485,0.679,0.8c0.187,0.315,0.317,0.679,0.392,1.095h-1.103c-0.298-0.927-0.927-1.46-1.886-1.599v3.838
		c0.394,0.16,0.781,0.33,1.159,0.511c0.378,0.181,0.72,0.389,1.023,0.623c0.303,0.235,0.549,0.512,0.735,0.832
		c0.186,0.32,0.28,0.698,0.28,1.135c0,0.501-0.096,0.93-0.288,1.287c-0.192,0.357-0.44,0.655-0.744,0.896
		c-0.304,0.24-0.645,0.426-1.023,0.559c-0.378,0.133-0.759,0.216-1.143,0.248v1.807h-1.071v-1.839
		c-0.789-0.149-1.463-0.53-2.023-1.143c-0.559-0.613-0.908-1.367-1.047-2.263h1.151c0.106,0.576,0.322,1.071,0.647,1.487
		c0.325,0.416,0.749,0.688,1.271,0.815V7.354c-0.362-0.16-0.715-0.328-1.056-0.504c-0.341-0.176-0.645-0.381-0.911-0.616
		c-0.266-0.234-0.479-0.503-0.639-0.807c-0.16-0.304-0.24-0.658-0.24-1.064c0-0.362,0.075-0.701,0.224-1.015
		c0.149-0.314,0.352-0.589,0.608-0.823c0.256-0.234,0.557-0.426,0.903-0.576c0.347-0.149,0.717-0.245,1.111-0.287V0.494h1.071V1.662
		z M140.098,4.316c0,0.437,0.162,0.797,0.488,1.079s0.733,0.53,1.223,0.744V2.733c-0.533,0.086-0.952,0.274-1.255,0.567
		C140.251,3.594,140.098,3.932,140.098,4.316z M144.943,9.688c0-0.213-0.059-0.41-0.176-0.592c-0.117-0.181-0.274-0.352-0.472-0.511
		c-0.197-0.16-0.418-0.304-0.663-0.432c-0.245-0.128-0.496-0.25-0.752-0.368v3.789c0.64-0.064,1.143-0.274,1.511-0.632
		C144.76,10.587,144.943,10.168,144.943,9.688z"/>
</g>
<g>
	<path fill="#00B8FA" d="M151.898,1.662c0.352,0.032,0.693,0.112,1.023,0.24c0.33,0.128,0.628,0.301,0.895,0.52
		c0.266,0.219,0.493,0.485,0.679,0.8c0.187,0.315,0.317,0.679,0.392,1.095h-1.103c-0.298-0.927-0.927-1.46-1.886-1.599v3.838
		c0.394,0.16,0.781,0.33,1.159,0.511c0.378,0.181,0.72,0.389,1.023,0.623c0.303,0.235,0.549,0.512,0.735,0.832
		c0.186,0.32,0.28,0.698,0.28,1.135c0,0.501-0.096,0.93-0.288,1.287c-0.192,0.357-0.44,0.655-0.744,0.896
		c-0.304,0.24-0.645,0.426-1.023,0.559c-0.378,0.133-0.759,0.216-1.143,0.248v1.807h-1.071v-1.839
		c-0.789-0.149-1.463-0.53-2.023-1.143c-0.559-0.613-0.908-1.367-1.047-2.263h1.151c0.106,0.576,0.322,1.071,0.647,1.487
		c0.325,0.416,0.749,0.688,1.271,0.815V7.354c-0.362-0.16-0.715-0.328-1.056-0.504c-0.341-0.176-0.645-0.381-0.911-0.616
		c-0.266-0.234-0.479-0.503-0.639-0.807c-0.16-0.304-0.24-0.658-0.24-1.064c0-0.362,0.075-0.701,0.224-1.015
		c0.149-0.314,0.352-0.589,0.608-0.823c0.256-0.234,0.557-0.426,0.903-0.576c0.347-0.149,0.717-0.245,1.112-0.287V0.494h1.071V1.662
		z M149.116,4.316c0,0.437,0.162,0.797,0.488,1.079s0.733,0.53,1.223,0.744V2.733c-0.533,0.086-0.952,0.274-1.255,0.567
		C149.268,3.594,149.116,3.932,149.116,4.316z M153.961,9.688c0-0.213-0.059-0.41-0.176-0.592c-0.117-0.181-0.274-0.352-0.472-0.511
		c-0.197-0.16-0.418-0.304-0.663-0.432c-0.245-0.128-0.496-0.25-0.752-0.368v3.789c0.64-0.064,1.143-0.274,1.511-0.632
		C153.777,10.587,153.961,10.168,153.961,9.688z"/>
</g>
<g>
	<path fill="#00B8FA" d="M161.56,1.662c0.352,0.032,0.693,0.112,1.023,0.24c0.33,0.128,0.628,0.301,0.895,0.52
		c0.266,0.219,0.493,0.485,0.679,0.8c0.187,0.315,0.317,0.679,0.392,1.095h-1.103c-0.298-0.927-0.927-1.46-1.886-1.599v3.838
		c0.394,0.16,0.781,0.33,1.159,0.511c0.378,0.181,0.72,0.389,1.023,0.623c0.303,0.235,0.549,0.512,0.735,0.832
		c0.186,0.32,0.28,0.698,0.28,1.135c0,0.501-0.096,0.93-0.288,1.287c-0.192,0.357-0.44,0.655-0.744,0.896
		c-0.304,0.24-0.645,0.426-1.023,0.559c-0.378,0.133-0.759,0.216-1.143,0.248v1.807h-1.071v-1.839
		c-0.789-0.149-1.463-0.53-2.023-1.143c-0.559-0.613-0.908-1.367-1.047-2.263h1.151c0.106,0.576,0.322,1.071,0.647,1.487
		c0.325,0.416,0.749,0.688,1.271,0.815V7.354c-0.362-0.16-0.715-0.328-1.056-0.504c-0.341-0.176-0.645-0.381-0.911-0.616
		c-0.266-0.234-0.479-0.503-0.639-0.807c-0.16-0.304-0.24-0.658-0.24-1.064c0-0.362,0.075-0.701,0.224-1.015
		c0.149-0.314,0.352-0.589,0.608-0.823c0.256-0.234,0.557-0.426,0.903-0.576c0.347-0.149,0.717-0.245,1.111-0.287V0.494h1.071V1.662
		z M158.778,4.316c0,0.437,0.162,0.797,0.488,1.079s0.733,0.53,1.223,0.744V2.733c-0.533,0.086-0.952,0.274-1.255,0.567
		C158.93,3.594,158.778,3.932,158.778,4.316z M163.623,9.688c0-0.213-0.059-0.41-0.176-0.592c-0.117-0.181-0.274-0.352-0.472-0.511
		c-0.197-0.16-0.418-0.304-0.663-0.432c-0.245-0.128-0.496-0.25-0.752-0.368v3.789c0.64-0.064,1.143-0.274,1.511-0.632
		C163.439,10.587,163.623,10.168,163.623,9.688z"/>
</g>
<rect x="155.8" y="7.38" fill="#FFFFFF" width="10.95" height="11.594"/>
<g>
	<path fill="#00B8FA" d="M75.894,27.706c0.352,0.032,0.693,0.112,1.023,0.24c0.33,0.128,0.628,0.301,0.895,0.52
		c0.266,0.219,0.493,0.485,0.679,0.8c0.187,0.315,0.317,0.679,0.392,1.095h-1.103c-0.298-0.927-0.927-1.46-1.886-1.599v3.838
		c0.394,0.16,0.781,0.33,1.159,0.511c0.378,0.181,0.72,0.389,1.023,0.623c0.303,0.235,0.549,0.512,0.735,0.832
		c0.186,0.32,0.28,0.698,0.28,1.135c0,0.501-0.096,0.93-0.288,1.287c-0.192,0.357-0.44,0.655-0.744,0.896
		c-0.304,0.24-0.645,0.426-1.023,0.559c-0.378,0.133-0.759,0.216-1.143,0.248v1.807h-1.071v-1.839
		c-0.789-0.149-1.463-0.53-2.023-1.143c-0.559-0.613-0.908-1.367-1.047-2.263h1.151c0.106,0.576,0.322,1.071,0.647,1.487
		c0.325,0.416,0.749,0.688,1.271,0.815v-4.157c-0.362-0.16-0.715-0.328-1.056-0.504c-0.341-0.176-0.645-0.381-0.911-0.616
		c-0.266-0.234-0.479-0.503-0.639-0.807c-0.16-0.304-0.24-0.658-0.24-1.064c0-0.362,0.075-0.701,0.224-1.015
		c0.149-0.314,0.352-0.589,0.608-0.823c0.256-0.234,0.557-0.426,0.903-0.576c0.347-0.149,0.717-0.245,1.112-0.287v-1.167h1.071
		V27.706z M73.112,30.36c0,0.437,0.162,0.797,0.488,1.079s0.733,0.53,1.223,0.744v-3.406c-0.533,0.086-0.952,0.274-1.255,0.567
		C73.264,29.638,73.112,29.976,73.112,30.36z M77.957,35.733c0-0.213-0.058-0.41-0.176-0.592c-0.117-0.181-0.274-0.352-0.472-0.511
		c-0.197-0.16-0.418-0.304-0.663-0.432c-0.245-0.128-0.496-0.25-0.752-0.368v3.789c0.64-0.064,1.143-0.274,1.511-0.632
		C77.773,36.631,77.957,36.212,77.957,35.733z"/>
</g>
<g>
	<path fill="#00B8FA" d="M85.556,27.706c0.352,0.032,0.693,0.112,1.023,0.24c0.33,0.128,0.628,0.301,0.895,0.52
		c0.266,0.219,0.493,0.485,0.679,0.8c0.187,0.315,0.317,0.679,0.392,1.095h-1.103c-0.298-0.927-0.927-1.46-1.886-1.599v3.838
		c0.394,0.16,0.781,0.33,1.159,0.511c0.378,0.181,0.72,0.389,1.023,0.623c0.303,0.235,0.549,0.512,0.735,0.832
		c0.186,0.32,0.28,0.698,0.28,1.135c0,0.501-0.096,0.93-0.288,1.287c-0.192,0.357-0.44,0.655-0.744,0.896
		c-0.304,0.24-0.645,0.426-1.023,0.559c-0.378,0.133-0.759,0.216-1.143,0.248v1.807h-1.071v-1.839
		c-0.789-0.149-1.463-0.53-2.023-1.143c-0.559-0.613-0.908-1.367-1.047-2.263h1.151c0.106,0.576,0.322,1.071,0.647,1.487
		c0.325,0.416,0.749,0.688,1.271,0.815v-4.157c-0.362-0.16-0.715-0.328-1.056-0.504c-0.341-0.176-0.645-0.381-0.911-0.616
		c-0.266-0.234-0.479-0.503-0.639-0.807c-0.16-0.304-0.24-0.658-0.24-1.064c0-0.362,0.075-0.701,0.224-1.015
		c0.149-0.314,0.352-0.589,0.608-0.823c0.256-0.234,0.557-0.426,0.903-0.576c0.347-0.149,0.717-0.245,1.112-0.287v-1.167h1.071
		V27.706z M82.774,30.36c0,0.437,0.162,0.797,0.488,1.079s0.733,0.53,1.223,0.744v-3.406c-0.533,0.086-0.952,0.274-1.255,0.567
		C82.926,29.638,82.774,29.976,82.774,30.36z M87.619,35.733c0-0.213-0.059-0.41-0.176-0.592c-0.117-0.181-0.274-0.352-0.472-0.511
		c-0.197-0.16-0.418-0.304-0.663-0.432c-0.245-0.128-0.496-0.25-0.752-0.368v3.789c0.64-0.064,1.143-0.274,1.511-0.632
		C87.435,36.631,87.619,36.212,87.619,35.733z"/>
</g>
<g>
	<path fill="#00B8FA" d="M95.218,27.706c0.352,0.032,0.693,0.112,1.023,0.24c0.33,0.128,0.628,0.301,0.895,0.52
		c0.266,0.219,0.493,0.485,0.679,0.8c0.187,0.315,0.317,0.679,0.392,1.095h-1.103c-0.298-0.927-0.927-1.46-1.886-1.599v3.838
		c0.394,0.16,0.781,0.33,1.159,0.511c0.378,0.181,0.72,0.389,1.023,0.623c0.303,0.235,0.549,0.512,0.735,0.832
		c0.186,0.32,0.28,0.698,0.28,1.135c0,0.501-0.096,0.93-0.288,1.287c-0.192,0.357-0.44,0.655-0.744,0.896
		c-0.304,0.24-0.645,0.426-1.023,0.559c-0.378,0.133-0.759,0.216-1.143,0.248v1.807h-1.071v-1.839
		c-0.789-0.149-1.463-0.53-2.023-1.143c-0.559-0.613-0.908-1.367-1.047-2.263h1.151c0.106,0.576,0.322,1.071,0.647,1.487
		c0.325,0.416,0.749,0.688,1.271,0.815v-4.157c-0.362-0.16-0.715-0.328-1.056-0.504c-0.341-0.176-0.645-0.381-0.911-0.616
		c-0.266-0.234-0.479-0.503-0.639-0.807c-0.16-0.304-0.24-0.658-0.24-1.064c0-0.362,0.075-0.701,0.224-1.015
		c0.149-0.314,0.352-0.589,0.608-0.823c0.256-0.234,0.557-0.426,0.903-0.576c0.347-0.149,0.717-0.245,1.112-0.287v-1.167h1.071
		V27.706z M92.436,30.36c0,0.437,0.162,0.797,0.488,1.079s0.733,0.53,1.223,0.744v-3.406c-0.533,0.086-0.952,0.274-1.255,0.567
		C92.588,29.638,92.436,29.976,92.436,30.36z M97.281,35.733c0-0.213-0.059-0.41-0.176-0.592c-0.117-0.181-0.274-0.352-0.472-0.511
		c-0.197-0.16-0.418-0.304-0.663-0.432c-0.245-0.128-0.496-0.25-0.752-0.368v3.789c0.64-0.064,1.143-0.274,1.511-0.632
		C97.097,36.631,97.281,36.212,97.281,35.733z"/>
</g>
<g>
	<path fill="#00B8FA" d="M104.88,27.706c0.352,0.032,0.693,0.112,1.023,0.24c0.33,0.128,0.628,0.301,0.895,0.52
		c0.266,0.219,0.493,0.485,0.679,0.8c0.187,0.315,0.317,0.679,0.392,1.095h-1.103c-0.298-0.927-0.927-1.46-1.886-1.599v3.838
		c0.394,0.16,0.781,0.33,1.159,0.511c0.378,0.181,0.72,0.389,1.023,0.623c0.303,0.235,0.549,0.512,0.735,0.832
		c0.186,0.32,0.28,0.698,0.28,1.135c0,0.501-0.096,0.93-0.288,1.287c-0.192,0.357-0.44,0.655-0.744,0.896
		c-0.304,0.24-0.645,0.426-1.023,0.559c-0.378,0.133-0.759,0.216-1.143,0.248v1.807h-1.071v-1.839
		c-0.789-0.149-1.463-0.53-2.023-1.143c-0.559-0.613-0.908-1.367-1.047-2.263h1.151c0.106,0.576,0.322,1.071,0.647,1.487
		c0.325,0.416,0.749,0.688,1.271,0.815v-4.157c-0.362-0.16-0.715-0.328-1.056-0.504c-0.341-0.176-0.645-0.381-0.911-0.616
		c-0.266-0.234-0.479-0.503-0.639-0.807c-0.16-0.304-0.24-0.658-0.24-1.064c0-0.362,0.075-0.701,0.224-1.015
		c0.149-0.314,0.352-0.589,0.608-0.823c0.256-0.234,0.557-0.426,0.903-0.576c0.347-0.149,0.717-0.245,1.112-0.287v-1.167h1.071
		V27.706z M102.098,30.36c0,0.437,0.162,0.797,0.488,1.079s0.733,0.53,1.223,0.744v-3.406c-0.533,0.086-0.952,0.274-1.255,0.567
		C102.25,29.638,102.098,29.976,102.098,30.36z M106.943,35.733c0-0.213-0.059-0.41-0.176-0.592
		c-0.117-0.181-0.274-0.352-0.472-0.511c-0.197-0.16-0.418-0.304-0.663-0.432c-0.245-0.128-0.496-0.25-0.752-0.368v3.789
		c0.64-0.064,1.143-0.274,1.511-0.632C106.759,36.631,106.943,36.212,106.943,35.733z"/>
</g>
<g>
	<path fill="#00B8FA" d="M75.891,53.709c0.352,0.032,0.693,0.112,1.023,0.24c0.33,0.128,0.628,0.301,0.895,0.52
		c0.266,0.219,0.493,0.485,0.679,0.8c0.187,0.315,0.317,0.679,0.392,1.095h-1.103c-0.298-0.927-0.927-1.46-1.886-1.599v3.838
		c0.394,0.16,0.781,0.33,1.159,0.511c0.378,0.181,0.72,0.389,1.023,0.623c0.303,0.235,0.549,0.512,0.735,0.832
		c0.186,0.32,0.28,0.698,0.28,1.135c0,0.501-0.096,0.93-0.288,1.287c-0.192,0.357-0.44,0.655-0.744,0.896
		c-0.304,0.24-0.645,0.426-1.023,0.559c-0.378,0.133-0.759,0.216-1.143,0.248V66.5H74.82v-1.839
		c-0.789-0.149-1.463-0.53-2.023-1.143c-0.559-0.613-0.908-1.367-1.047-2.263h1.151c0.106,0.576,0.322,1.071,0.647,1.487
		c0.325,0.416,0.749,0.688,1.271,0.815v-4.157c-0.362-0.16-0.715-0.328-1.056-0.504c-0.341-0.176-0.645-0.381-0.911-0.616
		c-0.266-0.234-0.479-0.503-0.639-0.807c-0.16-0.304-0.24-0.658-0.24-1.064c0-0.362,0.075-0.701,0.224-1.015
		c0.149-0.314,0.352-0.589,0.608-0.823c0.256-0.234,0.557-0.426,0.903-0.576c0.347-0.149,0.717-0.245,1.112-0.287v-1.167h1.071
		V53.709z M73.109,56.363c0,0.437,0.162,0.797,0.487,1.079c0.325,0.282,0.733,0.53,1.223,0.744V54.78
		c-0.533,0.086-0.952,0.274-1.255,0.567C73.261,55.641,73.109,55.979,73.109,56.363z M77.954,61.736c0-0.213-0.059-0.41-0.176-0.592
		c-0.117-0.181-0.274-0.352-0.472-0.511c-0.197-0.16-0.418-0.304-0.663-0.432c-0.245-0.128-0.496-0.25-0.752-0.368v3.789
		c0.64-0.064,1.143-0.274,1.511-0.632C77.77,62.634,77.954,62.215,77.954,61.736z"/>
</g>
<g>
	<path fill="#00B8FA" d="M85.553,53.709c0.352,0.032,0.693,0.112,1.023,0.24c0.33,0.128,0.628,0.301,0.895,0.52
		c0.266,0.219,0.493,0.485,0.679,0.8c0.187,0.315,0.317,0.679,0.392,1.095h-1.103c-0.298-0.927-0.927-1.46-1.886-1.599v3.838
		c0.394,0.16,0.781,0.33,1.159,0.511c0.378,0.181,0.72,0.389,1.023,0.623c0.303,0.235,0.549,0.512,0.735,0.832
		c0.186,0.32,0.28,0.698,0.28,1.135c0,0.501-0.096,0.93-0.288,1.287c-0.192,0.357-0.44,0.655-0.744,0.896
		c-0.304,0.24-0.645,0.426-1.023,0.559c-0.378,0.133-0.759,0.216-1.143,0.248V66.5h-1.071v-1.839
		c-0.789-0.149-1.463-0.53-2.023-1.143c-0.559-0.613-0.908-1.367-1.047-2.263h1.151c0.106,0.576,0.322,1.071,0.647,1.487
		c0.325,0.416,0.749,0.688,1.271,0.815v-4.157c-0.362-0.16-0.715-0.328-1.056-0.504s-0.645-0.381-0.911-0.616
		c-0.266-0.234-0.479-0.503-0.639-0.807c-0.16-0.304-0.24-0.658-0.24-1.064c0-0.362,0.075-0.701,0.224-1.015
		c0.149-0.314,0.352-0.589,0.608-0.823c0.256-0.234,0.557-0.426,0.903-0.576c0.347-0.149,0.717-0.245,1.112-0.287v-1.167h1.071
		V53.709z M82.771,56.363c0,0.437,0.162,0.797,0.488,1.079c0.325,0.282,0.733,0.53,1.223,0.744V54.78
		c-0.533,0.086-0.952,0.274-1.255,0.567C82.923,55.641,82.771,55.979,82.771,56.363z M87.616,61.736c0-0.213-0.058-0.41-0.176-0.592
		c-0.117-0.181-0.274-0.352-0.472-0.511c-0.197-0.16-0.418-0.304-0.663-0.432c-0.245-0.128-0.496-0.25-0.752-0.368v3.789
		c0.64-0.064,1.143-0.274,1.511-0.632C87.432,62.634,87.616,62.215,87.616,61.736z"/>
</g>
<g>
	<path fill="#00B8FA" d="M95.215,53.709c0.352,0.032,0.693,0.112,1.023,0.24c0.33,0.128,0.628,0.301,0.895,0.52
		c0.266,0.219,0.493,0.485,0.679,0.8c0.187,0.315,0.317,0.679,0.392,1.095h-1.103c-0.298-0.927-0.927-1.46-1.886-1.599v3.838
		c0.394,0.16,0.781,0.33,1.159,0.511c0.378,0.181,0.72,0.389,1.023,0.623c0.303,0.235,0.549,0.512,0.735,0.832
		c0.186,0.32,0.28,0.698,0.28,1.135c0,0.501-0.096,0.93-0.288,1.287c-0.192,0.357-0.44,0.655-0.744,0.896
		c-0.304,0.24-0.645,0.426-1.023,0.559c-0.378,0.133-0.759,0.216-1.143,0.248V66.5h-1.071v-1.839
		c-0.789-0.149-1.463-0.53-2.023-1.143c-0.559-0.613-0.908-1.367-1.047-2.263h1.151c0.106,0.576,0.322,1.071,0.647,1.487
		c0.325,0.416,0.749,0.688,1.271,0.815v-4.157c-0.362-0.16-0.715-0.328-1.056-0.504c-0.341-0.176-0.645-0.381-0.911-0.616
		c-0.266-0.234-0.479-0.503-0.639-0.807c-0.16-0.304-0.24-0.658-0.24-1.064c0-0.362,0.075-0.701,0.224-1.015
		c0.149-0.314,0.352-0.589,0.608-0.823c0.256-0.234,0.557-0.426,0.903-0.576c0.347-0.149,0.717-0.245,1.112-0.287v-1.167h1.071
		V53.709z M92.433,56.363c0,0.437,0.162,0.797,0.488,1.079c0.325,0.282,0.733,0.53,1.223,0.744V54.78
		c-0.533,0.086-0.952,0.274-1.255,0.567C92.585,55.641,92.433,55.979,92.433,56.363z M97.277,61.736c0-0.213-0.059-0.41-0.176-0.592
		c-0.117-0.181-0.274-0.352-0.472-0.511c-0.197-0.16-0.418-0.304-0.663-0.432c-0.245-0.128-0.496-0.25-0.752-0.368v3.789
		c0.64-0.064,1.143-0.274,1.511-0.632C97.094,62.634,97.277,62.215,97.277,61.736z"/>
</g>
<g>
	<path fill="#00B8FA" d="M75.891,79.709c0.352,0.032,0.693,0.112,1.023,0.24c0.33,0.128,0.628,0.301,0.895,0.52
		c0.266,0.219,0.493,0.485,0.679,0.799c0.187,0.315,0.317,0.679,0.392,1.095h-1.103c-0.298-0.927-0.927-1.46-1.886-1.599v3.838
		c0.394,0.16,0.781,0.33,1.159,0.511c0.378,0.181,0.72,0.389,1.023,0.623c0.303,0.235,0.549,0.512,0.735,0.832
		c0.186,0.32,0.28,0.698,0.28,1.135c0,0.501-0.096,0.93-0.288,1.287c-0.192,0.357-0.44,0.655-0.744,0.896
		c-0.304,0.24-0.645,0.426-1.023,0.559c-0.378,0.133-0.759,0.216-1.143,0.248V92.5H74.82v-1.839
		c-0.789-0.149-1.463-0.53-2.023-1.143c-0.559-0.613-0.908-1.367-1.047-2.263h1.151c0.106,0.576,0.322,1.071,0.647,1.487
		s0.749,0.688,1.271,0.815v-4.157c-0.362-0.16-0.715-0.328-1.056-0.504c-0.341-0.176-0.645-0.381-0.911-0.616
		c-0.266-0.234-0.479-0.503-0.639-0.807c-0.16-0.304-0.24-0.658-0.24-1.064c0-0.362,0.075-0.701,0.224-1.015
		c0.149-0.314,0.352-0.589,0.608-0.823c0.256-0.234,0.557-0.426,0.903-0.576c0.347-0.149,0.717-0.245,1.112-0.287v-1.167h1.071
		V79.709z M73.109,82.363c0,0.437,0.162,0.797,0.487,1.079c0.325,0.282,0.733,0.53,1.223,0.744V80.78
		c-0.533,0.086-0.952,0.274-1.255,0.567C73.261,81.641,73.109,81.979,73.109,82.363z M77.954,87.736c0-0.213-0.059-0.41-0.176-0.592
		c-0.117-0.181-0.274-0.352-0.472-0.511c-0.197-0.16-0.418-0.304-0.663-0.432c-0.245-0.128-0.496-0.25-0.752-0.368v3.789
		c0.64-0.064,1.143-0.274,1.511-0.632C77.77,88.634,77.954,88.215,77.954,87.736z"/>
</g>
<g>
	<path fill="#00B8FA" d="M85.553,79.709c0.352,0.032,0.693,0.112,1.023,0.24c0.33,0.128,0.628,0.301,0.895,0.52
		c0.266,0.219,0.493,0.485,0.679,0.799c0.187,0.315,0.317,0.679,0.392,1.095h-1.103c-0.298-0.927-0.927-1.46-1.886-1.599v3.838
		c0.394,0.16,0.781,0.33,1.159,0.511c0.378,0.181,0.72,0.389,1.023,0.623c0.303,0.235,0.549,0.512,0.735,0.832
		c0.186,0.32,0.28,0.698,0.28,1.135c0,0.501-0.096,0.93-0.288,1.287c-0.192,0.357-0.44,0.655-0.744,0.896
		c-0.304,0.24-0.645,0.426-1.023,0.559c-0.378,0.133-0.759,0.216-1.143,0.248V92.5h-1.071v-1.839
		c-0.789-0.149-1.463-0.53-2.023-1.143c-0.559-0.613-0.908-1.367-1.047-2.263h1.151c0.106,0.576,0.322,1.071,0.647,1.487
		s0.749,0.688,1.271,0.815v-4.157c-0.362-0.16-0.715-0.328-1.056-0.504s-0.645-0.381-0.911-0.616
		c-0.266-0.234-0.479-0.503-0.639-0.807c-0.16-0.304-0.24-0.658-0.24-1.064c0-0.362,0.075-0.701,0.224-1.015
		c0.149-0.314,0.352-0.589,0.608-0.823c0.256-0.234,0.557-0.426,0.903-0.576c0.347-0.149,0.717-0.245,1.112-0.287v-1.167h1.071
		V79.709z M82.771,82.363c0,0.437,0.162,0.797,0.488,1.079c0.325,0.282,0.733,0.53,1.223,0.744V80.78
		c-0.533,0.086-0.952,0.274-1.255,0.567C82.923,81.641,82.771,81.979,82.771,82.363z M87.616,87.736c0-0.213-0.058-0.41-0.176-0.592
		c-0.117-0.181-0.274-0.352-0.472-0.511c-0.197-0.16-0.418-0.304-0.663-0.432c-0.245-0.128-0.496-0.25-0.752-0.368v3.789
		c0.64-0.064,1.143-0.274,1.511-0.632C87.432,88.634,87.616,88.215,87.616,87.736z"/>
</g>
<g>
	<path fill="#00B8FA" d="M95.215,79.709c0.352,0.032,0.693,0.112,1.023,0.24c0.33,0.128,0.628,0.301,0.895,0.52
		c0.266,0.219,0.493,0.485,0.679,0.799c0.187,0.315,0.317,0.679,0.392,1.095h-1.103c-0.298-0.927-0.927-1.46-1.886-1.599v3.838
		c0.394,0.16,0.781,0.33,1.159,0.511c0.378,0.181,0.72,0.389,1.023,0.623c0.303,0.235,0.549,0.512,0.735,0.832
		c0.186,0.32,0.28,0.698,0.28,1.135c0,0.501-0.096,0.93-0.288,1.287c-0.192,0.357-0.44,0.655-0.744,0.896
		c-0.304,0.24-0.645,0.426-1.023,0.559c-0.378,0.133-0.759,0.216-1.143,0.248V92.5h-1.071v-1.839
		c-0.789-0.149-1.463-0.53-2.023-1.143c-0.559-0.613-0.908-1.367-1.047-2.263h1.151c0.106,0.576,0.322,1.071,0.647,1.487
		c0.325,0.416,0.749,0.688,1.271,0.815v-4.157c-0.362-0.16-0.715-0.328-1.056-0.504c-0.341-0.176-0.645-0.381-0.911-0.616
		c-0.266-0.234-0.479-0.503-0.639-0.807c-0.16-0.304-0.24-0.658-0.24-1.064c0-0.362,0.075-0.701,0.224-1.015
		c0.149-0.314,0.352-0.589,0.608-0.823c0.256-0.234,0.557-0.426,0.903-0.576c0.347-0.149,0.717-0.245,1.112-0.287v-1.167h1.071
		V79.709z M92.433,82.363c0,0.437,0.162,0.797,0.488,1.079c0.325,0.282,0.733,0.53,1.223,0.744V80.78
		c-0.533,0.086-0.952,0.274-1.255,0.567C92.585,81.641,92.433,81.979,92.433,82.363z M97.277,87.736c0-0.213-0.059-0.41-0.176-0.592
		c-0.117-0.181-0.274-0.352-0.472-0.511c-0.197-0.16-0.418-0.304-0.663-0.432c-0.245-0.128-0.496-0.25-0.752-0.368v3.789
		c0.64-0.064,1.143-0.274,1.511-0.632C97.094,88.634,97.277,88.215,97.277,87.736z"/>
</g>
<g>
	<path fill="#00B8FA" d="M75.891,105.709c0.352,0.032,0.693,0.112,1.023,0.24c0.33,0.128,0.628,0.301,0.895,0.52
		c0.266,0.219,0.493,0.485,0.679,0.799c0.187,0.315,0.317,0.679,0.392,1.095h-1.103c-0.298-0.927-0.927-1.46-1.886-1.599v3.838
		c0.394,0.16,0.781,0.33,1.159,0.511c0.378,0.181,0.72,0.389,1.023,0.623c0.303,0.235,0.549,0.512,0.735,0.832
		c0.186,0.32,0.28,0.698,0.28,1.135c0,0.501-0.096,0.93-0.288,1.287c-0.192,0.357-0.44,0.655-0.744,0.896
		c-0.304,0.24-0.645,0.426-1.023,0.559c-0.378,0.133-0.759,0.216-1.143,0.248v1.807H74.82v-1.839
		c-0.789-0.149-1.463-0.53-2.023-1.143c-0.559-0.613-0.908-1.367-1.047-2.263h1.151c0.106,0.576,0.322,1.071,0.647,1.487
		s0.749,0.688,1.271,0.815v-4.157c-0.362-0.16-0.715-0.328-1.056-0.504c-0.341-0.176-0.645-0.381-0.911-0.616
		c-0.266-0.234-0.479-0.503-0.639-0.807c-0.16-0.304-0.24-0.658-0.24-1.064c0-0.362,0.075-0.701,0.224-1.015
		c0.149-0.314,0.352-0.589,0.608-0.823c0.256-0.234,0.557-0.426,0.903-0.576c0.347-0.149,0.717-0.245,1.112-0.287v-1.167h1.071
		V105.709z M73.109,108.363c0,0.437,0.162,0.797,0.487,1.079c0.325,0.282,0.733,0.53,1.223,0.744v-3.406
		c-0.533,0.086-0.952,0.274-1.255,0.567C73.261,107.641,73.109,107.979,73.109,108.363z M77.954,113.736
		c0-0.213-0.059-0.41-0.176-0.592c-0.117-0.181-0.274-0.352-0.472-0.511c-0.197-0.16-0.418-0.304-0.663-0.432
		c-0.245-0.128-0.496-0.25-0.752-0.368v3.789c0.64-0.064,1.143-0.274,1.511-0.632C77.77,114.634,77.954,114.215,77.954,113.736z"/>
</g>
<g>
	<path fill="#00B8FA" d="M85.553,105.709c0.352,0.032,0.693,0.112,1.023,0.24c0.33,0.128,0.628,0.301,0.895,0.52
		c0.266,0.219,0.493,0.485,0.679,0.799c0.187,0.315,0.317,0.679,0.392,1.095h-1.103c-0.298-0.927-0.927-1.46-1.886-1.599v3.838
		c0.394,0.16,0.781,0.33,1.159,0.511c0.378,0.181,0.72,0.389,1.023,0.623c0.303,0.235,0.549,0.512,0.735,0.832
		c0.186,0.32,0.28,0.698,0.28,1.135c0,0.501-0.096,0.93-0.288,1.287c-0.192,0.357-0.44,0.655-0.744,0.896
		c-0.304,0.24-0.645,0.426-1.023,0.559c-0.378,0.133-0.759,0.216-1.143,0.248v1.807h-1.071v-1.839
		c-0.789-0.149-1.463-0.53-2.023-1.143c-0.559-0.613-0.908-1.367-1.047-2.263h1.151c0.106,0.576,0.322,1.071,0.647,1.487
		s0.749,0.688,1.271,0.815v-4.157c-0.362-0.16-0.715-0.328-1.056-0.504s-0.645-0.381-0.911-0.616
		c-0.266-0.234-0.479-0.503-0.639-0.807c-0.16-0.304-0.24-0.658-0.24-1.064c0-0.362,0.075-0.701,0.224-1.015
		c0.149-0.314,0.352-0.589,0.608-0.823c0.256-0.234,0.557-0.426,0.903-0.576c0.347-0.149,0.717-0.245,1.112-0.287v-1.167h1.071
		V105.709z M82.771,108.363c0,0.437,0.162,0.797,0.488,1.079c0.325,0.282,0.733,0.53,1.223,0.744v-3.406
		c-0.533,0.086-0.952,0.274-1.255,0.567C82.923,107.641,82.771,107.979,82.771,108.363z M87.616,113.736
		c0-0.213-0.058-0.41-0.176-0.592c-0.117-0.181-0.274-0.352-0.472-0.511c-0.197-0.16-0.418-0.304-0.663-0.432
		c-0.245-0.128-0.496-0.25-0.752-0.368v3.789c0.64-0.064,1.143-0.274,1.511-0.632C87.432,114.634,87.616,114.215,87.616,113.736z"/>
</g>
<g>
	<path fill="#00B8FA" d="M75.891,131.709c0.352,0.032,0.693,0.112,1.023,0.24c0.33,0.128,0.628,0.301,0.895,0.52
		c0.266,0.219,0.493,0.485,0.679,0.8c0.187,0.315,0.317,0.679,0.392,1.095h-1.103c-0.298-0.927-0.927-1.46-1.886-1.599v3.838
		c0.394,0.16,0.781,0.33,1.159,0.511c0.378,0.181,0.72,0.389,1.023,0.623c0.303,0.235,0.549,0.512,0.735,0.832
		c0.186,0.32,0.28,0.698,0.28,1.135c0,0.501-0.096,0.93-0.288,1.287c-0.192,0.357-0.44,0.655-0.744,0.896
		c-0.304,0.24-0.645,0.426-1.023,0.559c-0.378,0.133-0.759,0.216-1.143,0.248v1.807H74.82v-1.839
		c-0.789-0.149-1.463-0.53-2.023-1.143c-0.559-0.613-0.908-1.367-1.047-2.263h1.151c0.106,0.576,0.322,1.071,0.647,1.487
		c0.325,0.416,0.749,0.688,1.271,0.815v-4.157c-0.362-0.16-0.715-0.328-1.056-0.504c-0.341-0.176-0.645-0.381-0.911-0.616
		c-0.266-0.234-0.479-0.503-0.639-0.807c-0.16-0.304-0.24-0.658-0.24-1.064c0-0.362,0.075-0.701,0.224-1.015
		c0.149-0.314,0.352-0.589,0.608-0.823c0.256-0.234,0.557-0.426,0.903-0.576c0.347-0.149,0.717-0.245,1.112-0.287v-1.167h1.071
		V131.709z M73.109,134.363c0,0.437,0.162,0.797,0.487,1.079c0.325,0.282,0.733,0.53,1.223,0.744v-3.406
		c-0.533,0.086-0.952,0.274-1.255,0.567C73.261,133.641,73.109,133.979,73.109,134.363z M77.954,139.736
		c0-0.213-0.059-0.41-0.176-0.592c-0.117-0.181-0.274-0.352-0.472-0.511c-0.197-0.16-0.418-0.304-0.663-0.432
		c-0.245-0.128-0.496-0.25-0.752-0.368v3.789c0.64-0.064,1.143-0.274,1.511-0.632C77.77,140.634,77.954,140.215,77.954,139.736z"/>
</g>
<g>
	<path fill="#00B8FA" d="M85.553,131.709c0.352,0.032,0.693,0.112,1.023,0.24c0.33,0.128,0.628,0.301,0.895,0.52
		c0.266,0.219,0.493,0.485,0.679,0.8c0.187,0.315,0.317,0.679,0.392,1.095h-1.103c-0.298-0.927-0.927-1.46-1.886-1.599v3.838
		c0.394,0.16,0.781,0.33,1.159,0.511c0.378,0.181,0.72,0.389,1.023,0.623c0.303,0.235,0.549,0.512,0.735,0.832
		c0.186,0.32,0.28,0.698,0.28,1.135c0,0.501-0.096,0.93-0.288,1.287c-0.192,0.357-0.44,0.655-0.744,0.896
		c-0.304,0.24-0.645,0.426-1.023,0.559c-0.378,0.133-0.759,0.216-1.143,0.248v1.807h-1.071v-1.839
		c-0.789-0.149-1.463-0.53-2.023-1.143c-0.559-0.613-0.908-1.367-1.047-2.263h1.151c0.106,0.576,0.322,1.071,0.647,1.487
		c0.325,0.416,0.749,0.688,1.271,0.815v-4.157c-0.362-0.16-0.715-0.328-1.056-0.504c-0.341-0.176-0.645-0.381-0.911-0.616
		c-0.266-0.234-0.479-0.503-0.639-0.807c-0.16-0.304-0.24-0.658-0.24-1.064c0-0.362,0.075-0.701,0.224-1.015
		c0.149-0.314,0.352-0.589,0.608-0.823c0.256-0.234,0.557-0.426,0.903-0.576c0.347-0.149,0.717-0.245,1.112-0.287v-1.167h1.071
		V131.709z M82.771,134.363c0,0.437,0.162,0.797,0.488,1.079c0.325,0.282,0.733,0.53,1.223,0.744v-3.406
		c-0.533,0.086-0.952,0.274-1.255,0.567C82.923,133.641,82.771,133.979,82.771,134.363z M87.616,139.736
		c0-0.213-0.058-0.41-0.176-0.592c-0.117-0.181-0.274-0.352-0.472-0.511c-0.197-0.16-0.418-0.304-0.663-0.432
		c-0.245-0.128-0.496-0.25-0.752-0.368v3.789c0.64-0.064,1.143-0.274,1.511-0.632C87.432,140.634,87.616,140.215,87.616,139.736z"/>
</g>
<rect x="89.913" y="51.183" fill="#FFFFFF" width="12.496" height="7.637"/>
<rect x="99.835" y="24.904" fill="#FFFFFF" width="12.496" height="7.637"/>
<rect x="89.913" y="77.892" fill="#FFFFFF" width="12.496" height="9.025"/>
<rect x="78.805" y="103.212" fill="#FFFFFF" width="12.496" height="5.554"/>
<rect x="79.5" y="129.921" fill="#FFFFFF" width="12.496" height="5.554"/>
<line fill="none" stroke="#4D4D4D" stroke-miterlimit="10" x1="-0.25" y1="15" x2="189.75" y2="15"/>
<line fill="none" stroke="#4D4D4D" stroke-miterlimit="10" x1="-0.25" y1="41" x2="132.75" y2="41"/>
<g>
	<g>
		<path fill="#4D4D4D" d="M2.168,65.445v-0.552c0.385,0,0.631-0.047,0.74-0.141c0.109-0.093,0.164-0.337,0.164-0.731v-4.688H3.68
			l0.008,4.776c0,0.448-0.074,0.775-0.223,0.983c-0.123,0.177-0.367,0.285-0.729,0.328C2.592,65.438,2.402,65.445,2.168,65.445z"/>
		<path fill="#4D4D4D" d="M7.736,62.077v2.048c0.016,0.197,0.17,0.314,0.463,0.353l-0.023,0.472c-0.422,0-0.738-0.106-0.953-0.32
			c-0.479,0.214-0.959,0.32-1.439,0.32c-0.367,0-0.648-0.104-0.84-0.312s-0.287-0.506-0.287-0.896s0.098-0.676,0.295-0.86
			c0.197-0.184,0.508-0.297,0.928-0.34l1.256-0.12v-0.344c0-0.272-0.059-0.467-0.176-0.584s-0.277-0.176-0.48-0.176
			c-0.426,0-0.869,0.026-1.326,0.08l-0.248,0.023l-0.025-0.456c0.588-0.117,1.107-0.176,1.561-0.176s0.783,0.104,0.988,0.312
			S7.736,61.635,7.736,62.077z M5.271,63.709c0,0.491,0.203,0.736,0.607,0.736c0.363,0,0.721-0.062,1.072-0.185l0.184-0.063v-1.32
			l-1.184,0.112c-0.24,0.021-0.414,0.091-0.52,0.208C5.324,63.314,5.271,63.485,5.271,63.709z"/>
		<path fill="#4D4D4D" d="M8.92,66.646v-5.776h0.592v0.288c0.404-0.245,0.805-0.368,1.199-0.368c0.508,0,0.875,0.161,1.104,0.484
			c0.23,0.322,0.346,0.854,0.346,1.596s-0.135,1.273-0.404,1.596c-0.27,0.323-0.717,0.484-1.34,0.484
			c-0.326,0-0.625-0.029-0.896-0.088v1.784H8.92z M10.623,61.325c-0.16,0-0.332,0.026-0.516,0.08s-0.33,0.106-0.436,0.16
			l-0.152,0.08v2.695c0.379,0.059,0.666,0.088,0.863,0.088c0.432,0,0.734-0.122,0.908-0.367c0.174-0.246,0.26-0.646,0.26-1.2
			s-0.078-0.949-0.236-1.185C11.158,61.442,10.928,61.325,10.623,61.325z"/>
		<path fill="#4D4D4D" d="M15.961,62.077v2.048c0.016,0.197,0.17,0.314,0.463,0.353L16.4,64.949c-0.422,0-0.738-0.106-0.953-0.32
			c-0.479,0.214-0.959,0.32-1.439,0.32c-0.367,0-0.648-0.104-0.84-0.312s-0.287-0.506-0.287-0.896s0.098-0.676,0.295-0.86
			c0.197-0.184,0.508-0.297,0.928-0.34l1.256-0.12v-0.344c0-0.272-0.059-0.467-0.176-0.584s-0.277-0.176-0.48-0.176
			c-0.426,0-0.869,0.026-1.326,0.08l-0.248,0.023l-0.025-0.456c0.588-0.117,1.107-0.176,1.561-0.176s0.783,0.104,0.988,0.312
			S15.961,61.635,15.961,62.077z M13.496,63.709c0,0.491,0.203,0.736,0.607,0.736c0.363,0,0.721-0.062,1.072-0.185l0.184-0.063
			v-1.32l-1.184,0.112c-0.24,0.021-0.414,0.091-0.52,0.208C13.549,63.314,13.496,63.485,13.496,63.709z"/>
		<path fill="#4D4D4D" d="M17.744,64.869h-0.6v-4h0.592v0.28c0.432-0.24,0.846-0.36,1.24-0.36c0.533,0,0.891,0.145,1.076,0.432
			c0.184,0.288,0.275,0.801,0.275,1.536v2.112h-0.592v-2.096c0-0.555-0.055-0.935-0.164-1.141c-0.109-0.205-0.344-0.308-0.701-0.308
			c-0.17,0-0.35,0.025-0.539,0.076s-0.334,0.1-0.436,0.147l-0.152,0.072V64.869z"/>
		<path fill="#4D4D4D" d="M23.303,64.869v-5.536h3.369v0.544H23.92v1.912h2.271v0.536H23.92v2h2.752v0.544H23.303z"/>
		<path fill="#4D4D4D" d="M27.223,60.869h0.656l0.977,1.568l0.977-1.568h0.656l-1.273,1.984l1.264,2.016h-0.654l-0.969-1.56
			l-0.977,1.56h-0.656l1.256-2L27.223,60.869z"/>
		<path fill="#4D4D4D" d="M32.641,60.789c0.176,0,0.475,0.032,0.895,0.096l0.193,0.024l-0.025,0.488
			c-0.426-0.048-0.74-0.072-0.943-0.072c-0.453,0-0.762,0.108-0.924,0.324s-0.244,0.616-0.244,1.2s0.076,0.99,0.229,1.22
			s0.467,0.344,0.947,0.344l0.943-0.072l0.025,0.496c-0.496,0.075-0.867,0.112-1.113,0.112c-0.623,0-1.055-0.16-1.291-0.48
			c-0.238-0.319-0.355-0.859-0.355-1.619c0-0.761,0.127-1.294,0.383-1.601S32.043,60.789,32.641,60.789z"/>
		<path fill="#4D4D4D" d="M35.23,64.869h-0.6v-5.744h0.6v1.968c0.428-0.202,0.838-0.304,1.232-0.304
			c0.533,0,0.893,0.145,1.076,0.432c0.184,0.288,0.275,0.801,0.275,1.536v2.112h-0.6v-2.096c0-0.555-0.055-0.935-0.164-1.141
			c-0.109-0.205-0.34-0.308-0.691-0.308c-0.336,0-0.662,0.062-0.977,0.184l-0.152,0.057V64.869z"/>
		<path fill="#4D4D4D" d="M41.752,62.077v2.048c0.016,0.197,0.17,0.314,0.463,0.353l-0.023,0.472c-0.422,0-0.738-0.106-0.953-0.32
			c-0.479,0.214-0.959,0.32-1.439,0.32c-0.367,0-0.648-0.104-0.84-0.312s-0.287-0.506-0.287-0.896s0.098-0.676,0.295-0.86
			c0.197-0.184,0.508-0.297,0.928-0.34l1.256-0.12v-0.344c0-0.272-0.059-0.467-0.176-0.584s-0.277-0.176-0.48-0.176
			c-0.426,0-0.869,0.026-1.326,0.08l-0.248,0.023l-0.025-0.456c0.588-0.117,1.107-0.176,1.561-0.176s0.783,0.104,0.988,0.312
			S41.752,61.635,41.752,62.077z M39.287,63.709c0,0.491,0.203,0.736,0.607,0.736c0.363,0,0.721-0.062,1.072-0.185l0.184-0.063
			v-1.32l-1.184,0.112c-0.24,0.021-0.414,0.091-0.52,0.208C39.34,63.314,39.287,63.485,39.287,63.709z"/>
		<path fill="#4D4D4D" d="M43.535,64.869h-0.6v-4h0.592v0.28c0.432-0.24,0.846-0.36,1.24-0.36c0.533,0,0.891,0.145,1.076,0.432
			c0.184,0.288,0.275,0.801,0.275,1.536v2.112h-0.592v-2.096c0-0.555-0.055-0.935-0.164-1.141c-0.109-0.205-0.344-0.308-0.701-0.308
			c-0.17,0-0.35,0.025-0.539,0.076s-0.334,0.1-0.436,0.147l-0.152,0.072V64.869z"/>
		<path fill="#4D4D4D" d="M48.775,66.749c-0.641,0-1.088-0.087-1.34-0.26c-0.254-0.174-0.381-0.489-0.381-0.948
			c0-0.219,0.049-0.396,0.145-0.532c0.096-0.136,0.258-0.289,0.488-0.46c-0.15-0.101-0.225-0.285-0.225-0.552
			c0-0.091,0.066-0.259,0.199-0.504l0.072-0.128c-0.422-0.192-0.631-0.595-0.631-1.208c0-0.912,0.498-1.368,1.496-1.368
			c0.256,0,0.492,0.026,0.711,0.08l0.121,0.024l1.184-0.032v0.512l-0.76-0.016c0.176,0.176,0.264,0.442,0.264,0.8
			c0,0.501-0.125,0.852-0.373,1.052s-0.639,0.3-1.172,0.3c-0.143,0-0.273-0.011-0.391-0.031c-0.098,0.234-0.145,0.387-0.145,0.456
			c0,0.165,0.051,0.268,0.152,0.308s0.408,0.06,0.92,0.06s0.879,0.08,1.104,0.24s0.336,0.472,0.336,0.937
			C50.551,66.325,49.959,66.749,48.775,66.749z M47.646,65.493c0,0.282,0.078,0.479,0.236,0.588
			c0.156,0.109,0.447,0.164,0.871,0.164c0.426,0,0.729-0.059,0.912-0.176c0.186-0.117,0.277-0.313,0.277-0.588
			c0-0.275-0.066-0.452-0.201-0.532c-0.133-0.08-0.395-0.12-0.783-0.12l-0.863-0.04c-0.178,0.128-0.295,0.24-0.357,0.336
			C47.678,65.221,47.646,65.344,47.646,65.493z M47.703,62.157c0,0.314,0.07,0.539,0.211,0.672c0.143,0.134,0.375,0.2,0.701,0.2
			c0.324,0,0.557-0.066,0.695-0.2c0.139-0.133,0.209-0.358,0.209-0.676s-0.07-0.543-0.209-0.676c-0.139-0.134-0.371-0.2-0.695-0.2
			c-0.326,0-0.559,0.067-0.701,0.204C47.773,61.617,47.703,61.843,47.703,62.157z"/>
		<path fill="#4D4D4D" d="M54.062,64.373l0.232-0.023l0.016,0.472c-0.607,0.085-1.127,0.128-1.559,0.128
			c-0.576,0-0.984-0.167-1.225-0.5s-0.359-0.853-0.359-1.556c0-1.403,0.557-2.104,1.672-2.104c0.537,0,0.941,0.15,1.207,0.452
			c0.268,0.302,0.4,0.774,0.4,1.42l-0.031,0.456h-2.641c0,0.442,0.08,0.771,0.24,0.984c0.16,0.213,0.438,0.319,0.836,0.319
			C53.248,64.421,53.652,64.405,54.062,64.373z M53.848,62.637c0-0.49-0.08-0.837-0.236-1.04c-0.158-0.202-0.414-0.304-0.768-0.304
			c-0.355,0-0.621,0.106-0.801,0.32c-0.178,0.213-0.271,0.555-0.275,1.023H53.848z"/>
		<path fill="#4D4D4D" d="M4.896,72.188v-0.552h1.527v2.72c-0.672,0.128-1.271,0.192-1.801,0.192c-0.805,0-1.363-0.232-1.676-0.696
			c-0.311-0.464-0.467-1.18-0.467-2.147c0-0.969,0.156-1.686,0.467-2.152c0.312-0.467,0.865-0.7,1.66-0.7
			c0.496,0,1.012,0.054,1.545,0.16l0.271,0.048L6.4,69.572c-0.662-0.111-1.234-0.168-1.721-0.168c-0.613,0-1.027,0.178-1.24,0.532
			s-0.32,0.944-0.32,1.769c0,0.823,0.107,1.413,0.32,1.768s0.625,0.532,1.232,0.532c0.373,0,0.754-0.037,1.145-0.112v-1.704H4.896z"
			/>
		<path fill="#4D4D4D" d="M7.527,74.469v-4h0.592v0.544c0.465-0.32,0.953-0.53,1.465-0.632v0.607
			c-0.225,0.043-0.457,0.109-0.701,0.2c-0.242,0.091-0.428,0.171-0.555,0.24l-0.201,0.104v2.936H7.527z"/>
		<path fill="#4D4D4D" d="M10.041,72.461c0-0.73,0.129-1.259,0.391-1.584s0.703-0.488,1.324-0.488s1.062,0.163,1.32,0.488
			s0.389,0.854,0.389,1.584s-0.123,1.261-0.369,1.592c-0.244,0.331-0.693,0.496-1.344,0.496s-1.098-0.165-1.344-0.496
			S10.041,73.191,10.041,72.461z M10.656,72.449c0,0.584,0.07,0.993,0.211,1.228c0.143,0.234,0.438,0.352,0.889,0.352
			s0.746-0.115,0.885-0.348c0.139-0.231,0.207-0.642,0.207-1.228c0-0.587-0.076-0.991-0.232-1.212
			c-0.154-0.222-0.441-0.332-0.859-0.332s-0.707,0.11-0.863,0.332C10.734,71.462,10.656,71.865,10.656,72.449z"/>
		<path fill="#4D4D4D" d="M16.936,70.469h0.6v4h-0.6v-0.28c-0.4,0.24-0.795,0.36-1.184,0.36c-0.545,0-0.906-0.142-1.084-0.424
			c-0.18-0.283-0.268-0.806-0.268-1.568v-2.088H15v2.08c0,0.581,0.051,0.971,0.152,1.168s0.33,0.296,0.688,0.296
			c0.176,0,0.355-0.025,0.535-0.076c0.182-0.051,0.32-0.1,0.416-0.147l0.145-0.072V70.469z"/>
		<path fill="#4D4D4D" d="M18.688,76.245v-5.776h0.592v0.288c0.406-0.245,0.807-0.368,1.201-0.368c0.506,0,0.873,0.161,1.104,0.484
			c0.229,0.322,0.344,0.854,0.344,1.596s-0.135,1.273-0.404,1.596c-0.27,0.323-0.715,0.484-1.34,0.484
			c-0.324,0-0.623-0.029-0.896-0.088v1.784H18.688z M20.393,70.925c-0.16,0-0.332,0.026-0.518,0.08
			c-0.184,0.054-0.328,0.106-0.436,0.16l-0.152,0.08v2.695c0.379,0.059,0.668,0.088,0.865,0.088c0.432,0,0.734-0.122,0.908-0.367
			c0.172-0.246,0.26-0.646,0.26-1.2s-0.08-0.949-0.236-1.185C20.926,71.042,20.695,70.925,20.393,70.925z"/>
	</g>
</g>
<line fill="none" stroke="#4D4D4D" stroke-miterlimit="10" x1="-0.25" y1="67" x2="122.75" y2="67"/>
<g>
	<g>
		<path fill="#4D4D4D" d="M105.904,90.869v-1.032h-2.561v-0.479l1.504-3.769h0.672l-1.527,3.704h1.912v-1.647h0.615v1.647h0.672
			v0.544h-0.672v1.032H105.904z"/>
		<path fill="#4D4D4D" d="M108.039,90.869v-0.912h0.656v0.912H108.039z"/>
		<path fill="#4D4D4D" d="M112.111,90.869v-1.032h-2.559v-0.479l1.504-3.769h0.672l-1.529,3.704h1.912v-1.647h0.617v1.647h0.672
			v0.544h-0.672v1.032H112.111z"/>
		<path fill="#4D4D4D" d="M117.568,86.149c-0.48-0.064-0.947-0.097-1.4-0.097s-0.803,0.158-1.049,0.473
			c-0.244,0.314-0.367,0.765-0.367,1.352l0.199-0.08c0.133-0.048,0.311-0.099,0.533-0.151c0.221-0.054,0.416-0.08,0.588-0.08
			c1.184,0,1.775,0.547,1.775,1.64c0,0.561-0.162,0.991-0.484,1.292c-0.322,0.302-0.777,0.452-1.363,0.452
			c-1.26,0-1.889-0.915-1.889-2.744c0-0.923,0.18-1.603,0.541-2.04c0.359-0.438,0.867-0.656,1.523-0.656
			c0.432,0,0.842,0.032,1.232,0.097l0.215,0.04L117.568,86.149z M116.031,88.117c-0.182,0-0.379,0.025-0.596,0.076
			s-0.385,0.1-0.508,0.147l-0.184,0.08c0.004,0.608,0.107,1.091,0.307,1.448c0.201,0.357,0.506,0.536,0.916,0.536
			c0.412,0,0.721-0.103,0.928-0.309c0.209-0.205,0.312-0.495,0.312-0.871s-0.102-0.655-0.307-0.837
			C116.693,88.208,116.404,88.117,116.031,88.117z"/>
		<path fill="#4D4D4D" d="M120.424,85.501c0.438,0,0.793,0.083,1.064,0.248c0.576,0.342,0.863,1.195,0.863,2.561
			c0,0.965-0.16,1.646-0.48,2.044c-0.318,0.397-0.799,0.596-1.439,0.596s-1.121-0.196-1.443-0.588
			c-0.322-0.393-0.484-1.091-0.484-2.096c0-1.006,0.158-1.718,0.477-2.137C119.297,85.711,119.779,85.501,120.424,85.501z
			 M120.432,86.053c-0.305,0-0.543,0.064-0.721,0.192c-0.377,0.262-0.566,0.952-0.566,2.072c0,0.789,0.104,1.335,0.311,1.636
			c0.209,0.302,0.533,0.452,0.977,0.452s0.768-0.152,0.977-0.456c0.207-0.304,0.312-0.868,0.312-1.692
			c0-0.823-0.102-1.396-0.301-1.72C121.221,86.215,120.891,86.053,120.432,86.053z"/>
	</g>
</g>
<g>
	<g>
		<path fill="#4D4D4D" d="M4.232,85.789c-0.801,0-1.201,0.302-1.201,0.904c0,0.336,0.092,0.566,0.277,0.691
			c0.184,0.126,0.557,0.251,1.119,0.376c0.562,0.126,0.961,0.288,1.195,0.488c0.236,0.2,0.354,0.529,0.354,0.988
			c0,1.136-0.59,1.704-1.77,1.704c-0.389,0-0.877-0.046-1.463-0.137l-0.289-0.039l0.064-0.513c0.727,0.097,1.277,0.145,1.656,0.145
			c0.789,0,1.184-0.371,1.184-1.112c0-0.299-0.086-0.514-0.26-0.644c-0.174-0.131-0.496-0.242-0.973-0.332
			c-0.623-0.134-1.066-0.306-1.326-0.517c-0.262-0.211-0.393-0.563-0.393-1.06c0-0.992,0.594-1.488,1.783-1.488
			c0.391,0,0.857,0.04,1.4,0.12l0.271,0.04l-0.055,0.52C5.066,85.835,4.541,85.789,4.232,85.789z"/>
		<path fill="#4D4D4D" d="M7.535,90.869h-0.6v-5.744h0.6v1.968c0.428-0.202,0.838-0.304,1.232-0.304
			c0.533,0,0.893,0.145,1.076,0.432c0.184,0.288,0.275,0.801,0.275,1.536v2.112h-0.6v-2.096c0-0.555-0.055-0.935-0.164-1.141
			c-0.109-0.205-0.34-0.308-0.691-0.308c-0.336,0-0.662,0.062-0.977,0.184l-0.152,0.057V90.869z"/>
		<path fill="#4D4D4D" d="M14.057,88.077v2.048c0.016,0.197,0.17,0.314,0.463,0.353l-0.023,0.472c-0.422,0-0.738-0.106-0.953-0.32
			c-0.479,0.214-0.959,0.32-1.439,0.32c-0.367,0-0.648-0.104-0.84-0.312s-0.287-0.506-0.287-0.896s0.098-0.676,0.295-0.86
			c0.197-0.184,0.508-0.297,0.928-0.34l1.256-0.12v-0.344c0-0.272-0.059-0.467-0.176-0.584s-0.277-0.176-0.48-0.176
			c-0.426,0-0.869,0.026-1.326,0.08l-0.248,0.023l-0.025-0.456c0.588-0.117,1.107-0.176,1.561-0.176s0.783,0.104,0.988,0.312
			S14.057,87.635,14.057,88.077z M11.592,89.709c0,0.491,0.203,0.736,0.607,0.736c0.363,0,0.721-0.062,1.072-0.185l0.184-0.063
			v-1.32l-1.184,0.112c-0.24,0.021-0.414,0.091-0.52,0.208C11.645,89.314,11.592,89.485,11.592,89.709z"/>
		<path fill="#4D4D4D" d="M15.84,90.869h-0.6v-4h0.592v0.28c0.432-0.24,0.846-0.36,1.24-0.36c0.533,0,0.891,0.145,1.076,0.432
			c0.184,0.288,0.275,0.801,0.275,1.536v2.112h-0.592v-2.096c0-0.555-0.055-0.935-0.164-1.141c-0.109-0.205-0.344-0.308-0.701-0.308
			c-0.17,0-0.35,0.025-0.539,0.076s-0.334,0.1-0.436,0.147l-0.152,0.072V90.869z"/>
		<path fill="#4D4D4D" d="M21.08,92.749c-0.641,0-1.088-0.087-1.34-0.26c-0.254-0.174-0.381-0.489-0.381-0.948
			c0-0.219,0.049-0.396,0.145-0.532c0.096-0.136,0.258-0.289,0.488-0.46c-0.15-0.101-0.225-0.285-0.225-0.552
			c0-0.091,0.066-0.259,0.199-0.504l0.072-0.128c-0.422-0.192-0.631-0.595-0.631-1.208c0-0.912,0.498-1.368,1.496-1.368
			c0.256,0,0.492,0.026,0.711,0.08l0.121,0.024l1.184-0.032v0.512l-0.76-0.016c0.176,0.176,0.264,0.442,0.264,0.8
			c0,0.501-0.125,0.852-0.373,1.052s-0.639,0.3-1.172,0.3c-0.143,0-0.273-0.011-0.391-0.031c-0.098,0.234-0.145,0.387-0.145,0.456
			c0,0.165,0.051,0.268,0.152,0.308s0.408,0.06,0.92,0.06s0.879,0.08,1.104,0.24s0.336,0.472,0.336,0.937
			C22.855,92.325,22.264,92.749,21.08,92.749z M19.951,91.493c0,0.282,0.078,0.479,0.236,0.588c0.156,0.109,0.447,0.164,0.871,0.164
			c0.426,0,0.729-0.059,0.912-0.176c0.186-0.117,0.277-0.313,0.277-0.588c0-0.275-0.066-0.452-0.201-0.532
			c-0.133-0.08-0.395-0.12-0.783-0.12l-0.863-0.04c-0.178,0.128-0.295,0.24-0.357,0.336C19.982,91.221,19.951,91.344,19.951,91.493z
			 M20.008,88.157c0,0.314,0.07,0.539,0.211,0.672c0.143,0.134,0.375,0.2,0.701,0.2c0.324,0,0.557-0.066,0.695-0.2
			c0.139-0.133,0.209-0.358,0.209-0.676s-0.07-0.543-0.209-0.676c-0.139-0.134-0.371-0.2-0.695-0.2
			c-0.326,0-0.559,0.067-0.701,0.204C20.078,87.617,20.008,87.843,20.008,88.157z"/>
		<path fill="#4D4D4D" d="M24.248,90.869h-0.6v-5.744h0.6v1.968c0.426-0.202,0.838-0.304,1.232-0.304
			c0.533,0,0.891,0.145,1.076,0.432c0.184,0.288,0.275,0.801,0.275,1.536v2.112h-0.6v-2.096c0-0.555-0.055-0.935-0.164-1.141
			c-0.109-0.205-0.34-0.308-0.693-0.308c-0.336,0-0.66,0.062-0.975,0.184l-0.152,0.057V90.869z"/>
		<path fill="#4D4D4D" d="M30.768,88.077v2.048c0.016,0.197,0.17,0.314,0.465,0.353l-0.025,0.472c-0.42,0-0.738-0.106-0.951-0.32
			c-0.48,0.214-0.961,0.32-1.439,0.32c-0.369,0-0.648-0.104-0.84-0.312c-0.193-0.208-0.289-0.506-0.289-0.896s0.1-0.676,0.297-0.86
			c0.197-0.184,0.506-0.297,0.928-0.34l1.256-0.12v-0.344c0-0.272-0.059-0.467-0.176-0.584s-0.277-0.176-0.48-0.176
			c-0.428,0-0.869,0.026-1.328,0.08l-0.248,0.023l-0.023-0.456c0.586-0.117,1.105-0.176,1.559-0.176
			c0.455,0,0.783,0.104,0.988,0.312S30.768,87.635,30.768,88.077z M28.303,89.709c0,0.491,0.203,0.736,0.609,0.736
			c0.361,0,0.719-0.062,1.072-0.185l0.184-0.063v-1.32l-1.184,0.112c-0.24,0.021-0.414,0.091-0.521,0.208
			C28.357,89.314,28.303,89.485,28.303,89.709z"/>
		<path fill="#4D4D4D" d="M31.951,85.965V85.27h0.6v0.695H31.951z M31.951,90.869v-4h0.6v4H31.951z"/>
		<path fill="#4D4D4D" d="M37.096,85.789c-0.801,0-1.201,0.302-1.201,0.904c0,0.336,0.092,0.566,0.277,0.691
			c0.184,0.126,0.557,0.251,1.119,0.376c0.562,0.126,0.961,0.288,1.195,0.488c0.236,0.2,0.354,0.529,0.354,0.988
			c0,1.136-0.59,1.704-1.77,1.704c-0.389,0-0.877-0.046-1.463-0.137l-0.289-0.039l0.064-0.513c0.727,0.097,1.277,0.145,1.656,0.145
			c0.789,0,1.184-0.371,1.184-1.112c0-0.299-0.086-0.514-0.26-0.644c-0.174-0.131-0.496-0.242-0.973-0.332
			c-0.623-0.134-1.066-0.306-1.326-0.517c-0.262-0.211-0.393-0.563-0.393-1.06c0-0.992,0.594-1.488,1.783-1.488
			c0.391,0,0.857,0.04,1.4,0.12l0.271,0.04l-0.055,0.52C37.93,85.835,37.404,85.789,37.096,85.789z"/>
		<path fill="#4D4D4D" d="M41.799,87.389h-1.271v1.912c0,0.459,0.033,0.761,0.1,0.904c0.066,0.145,0.225,0.216,0.477,0.216
			l0.711-0.048l0.041,0.496c-0.357,0.059-0.631,0.088-0.816,0.088c-0.416,0-0.705-0.102-0.863-0.304
			c-0.16-0.203-0.24-0.59-0.24-1.16v-2.104h-0.568v-0.52h0.568v-1.224h0.592v1.224h1.271V87.389z"/>
		<path fill="#4D4D4D" d="M42.359,88.861c0-0.73,0.131-1.259,0.393-1.584s0.701-0.488,1.324-0.488c0.621,0,1.061,0.163,1.318,0.488
			c0.26,0.325,0.389,0.854,0.389,1.584s-0.123,1.261-0.367,1.592c-0.246,0.331-0.693,0.496-1.344,0.496
			c-0.652,0-1.1-0.165-1.346-0.496C42.482,90.122,42.359,89.592,42.359,88.861z M42.975,88.85c0,0.584,0.072,0.993,0.213,1.228
			s0.438,0.352,0.889,0.352c0.449,0,0.744-0.115,0.883-0.348c0.139-0.231,0.209-0.642,0.209-1.228c0-0.587-0.078-0.991-0.232-1.212
			c-0.154-0.222-0.441-0.332-0.859-0.332c-0.42,0-0.707,0.11-0.865,0.332C43.055,87.862,42.975,88.266,42.975,88.85z"/>
		<path fill="#4D4D4D" d="M48.256,86.789c0.176,0,0.475,0.032,0.895,0.096l0.193,0.024l-0.025,0.488
			c-0.426-0.048-0.74-0.072-0.943-0.072c-0.453,0-0.762,0.108-0.924,0.324s-0.244,0.616-0.244,1.2s0.076,0.99,0.229,1.22
			s0.467,0.344,0.947,0.344l0.943-0.072l0.025,0.496c-0.496,0.075-0.867,0.112-1.113,0.112c-0.623,0-1.055-0.16-1.291-0.48
			c-0.238-0.319-0.355-0.859-0.355-1.619c0-0.761,0.127-1.294,0.383-1.601S47.658,86.789,48.256,86.789z"/>
		<path fill="#4D4D4D" d="M50.848,90.869h-0.6v-5.744h0.6v3.393l0.623-0.032l1.145-1.616h0.68l-1.303,1.84l1.359,2.16h-0.68
			l-1.193-1.856l-0.631,0.024V90.869z"/>
		<path fill="#4D4D4D" d="M2.703,100.469v-5.536h3.369v0.544H3.32v1.912h2.271v0.536H3.32v2h2.752v0.544H2.703z"/>
		<path fill="#4D4D4D" d="M6.623,96.469h0.656l0.977,1.568l0.977-1.568h0.656l-1.273,1.984l1.264,2.016H9.225l-0.969-1.56
			l-0.977,1.56H6.623l1.256-2L6.623,96.469z"/>
		<path fill="#4D4D4D" d="M12.041,96.389c0.176,0,0.475,0.032,0.895,0.096l0.193,0.024l-0.025,0.488
			c-0.426-0.048-0.74-0.072-0.943-0.072c-0.453,0-0.762,0.108-0.924,0.324s-0.244,0.616-0.244,1.2s0.076,0.99,0.229,1.22
			s0.467,0.344,0.947,0.344l0.943-0.072l0.025,0.496c-0.496,0.075-0.867,0.112-1.113,0.112c-0.623,0-1.055-0.16-1.291-0.48
			c-0.238-0.319-0.355-0.859-0.355-1.619c0-0.761,0.127-1.294,0.383-1.601S11.443,96.389,12.041,96.389z"/>
		<path fill="#4D4D4D" d="M14.631,100.469h-0.6v-5.744h0.6v1.968c0.428-0.202,0.838-0.304,1.232-0.304
			c0.533,0,0.893,0.145,1.076,0.432c0.184,0.288,0.275,0.801,0.275,1.536v2.112h-0.6v-2.096c0-0.555-0.055-0.935-0.164-1.141
			c-0.109-0.205-0.34-0.308-0.691-0.308c-0.336,0-0.662,0.062-0.977,0.184l-0.152,0.057V100.469z"/>
		<path fill="#4D4D4D" d="M21.152,97.677v2.048c0.016,0.197,0.17,0.314,0.463,0.353l-0.023,0.472c-0.422,0-0.738-0.106-0.953-0.32
			c-0.479,0.214-0.959,0.32-1.439,0.32c-0.367,0-0.648-0.104-0.84-0.312s-0.287-0.506-0.287-0.896s0.098-0.676,0.295-0.86
			c0.197-0.184,0.508-0.297,0.928-0.34l1.256-0.12v-0.344c0-0.272-0.059-0.467-0.176-0.584s-0.277-0.176-0.48-0.176
			c-0.426,0-0.869,0.026-1.326,0.08l-0.248,0.023l-0.025-0.456c0.588-0.117,1.107-0.176,1.561-0.176s0.783,0.104,0.988,0.312
			S21.152,97.234,21.152,97.677z M18.688,99.309c0,0.491,0.203,0.736,0.607,0.736c0.363,0,0.721-0.062,1.072-0.185l0.184-0.063
			v-1.32l-1.184,0.112c-0.24,0.021-0.414,0.091-0.52,0.208C18.74,98.914,18.688,99.085,18.688,99.309z"/>
		<path fill="#4D4D4D" d="M22.936,100.469h-0.6v-4h0.592v0.28c0.432-0.24,0.846-0.36,1.24-0.36c0.533,0,0.891,0.145,1.076,0.432
			c0.184,0.288,0.275,0.801,0.275,1.536v2.112h-0.592v-2.096c0-0.555-0.055-0.935-0.164-1.141c-0.109-0.205-0.344-0.308-0.701-0.308
			c-0.17,0-0.35,0.025-0.539,0.076s-0.334,0.1-0.436,0.147l-0.152,0.072V100.469z"/>
		<path fill="#4D4D4D" d="M28.176,102.349c-0.641,0-1.088-0.087-1.34-0.26c-0.254-0.174-0.381-0.489-0.381-0.948
			c0-0.219,0.049-0.396,0.145-0.532c0.096-0.136,0.258-0.289,0.488-0.46c-0.15-0.101-0.225-0.285-0.225-0.552
			c0-0.091,0.066-0.259,0.199-0.504l0.072-0.128c-0.422-0.192-0.631-0.595-0.631-1.208c0-0.912,0.498-1.368,1.496-1.368
			c0.256,0,0.492,0.026,0.711,0.08l0.121,0.024l1.184-0.032v0.512l-0.76-0.016c0.176,0.176,0.264,0.442,0.264,0.8
			c0,0.501-0.125,0.852-0.373,1.052s-0.639,0.3-1.172,0.3c-0.143,0-0.273-0.011-0.391-0.031c-0.098,0.234-0.145,0.387-0.145,0.456
			c0,0.165,0.051,0.268,0.152,0.308S28,99.9,28.512,99.9s0.879,0.08,1.104,0.24s0.336,0.472,0.336,0.937
			C29.951,101.925,29.359,102.349,28.176,102.349z M27.047,101.093c0,0.282,0.078,0.479,0.236,0.588
			c0.156,0.109,0.447,0.164,0.871,0.164c0.426,0,0.729-0.059,0.912-0.176c0.186-0.117,0.277-0.313,0.277-0.588
			c0-0.275-0.066-0.452-0.201-0.532c-0.133-0.08-0.395-0.12-0.783-0.12l-0.863-0.04c-0.178,0.128-0.295,0.24-0.357,0.336
			C27.078,100.82,27.047,100.943,27.047,101.093z M27.104,97.757c0,0.314,0.07,0.539,0.211,0.672c0.143,0.134,0.375,0.2,0.701,0.2
			c0.324,0,0.557-0.066,0.695-0.2c0.139-0.133,0.209-0.358,0.209-0.676s-0.07-0.543-0.209-0.676c-0.139-0.134-0.371-0.2-0.695-0.2
			c-0.326,0-0.559,0.067-0.701,0.204C27.174,97.217,27.104,97.442,27.104,97.757z"/>
		<path fill="#4D4D4D" d="M33.463,99.973l0.232-0.023l0.016,0.472c-0.607,0.085-1.127,0.128-1.559,0.128
			c-0.576,0-0.984-0.167-1.225-0.5s-0.359-0.853-0.359-1.556c0-1.403,0.557-2.104,1.672-2.104c0.537,0,0.941,0.15,1.207,0.452
			c0.268,0.302,0.4,0.774,0.4,1.42l-0.031,0.456h-2.641c0,0.442,0.08,0.771,0.24,0.984c0.16,0.213,0.438,0.319,0.836,0.319
			C32.648,100.021,33.053,100.005,33.463,99.973z M33.248,98.236c0-0.49-0.08-0.837-0.236-1.04
			c-0.158-0.202-0.414-0.304-0.768-0.304c-0.355,0-0.621,0.106-0.801,0.32c-0.178,0.213-0.271,0.555-0.275,1.023H33.248z"/>
	</g>
</g>
<line fill="none" stroke="#4D4D4D" stroke-miterlimit="10" x1="-0.25" y1="93" x2="122.75" y2="93"/>
<g>
	<g>
		<path fill="#4D4D4D" d="M93.326,111.726c0.502-0.149,1.039-0.225,1.613-0.225c0.572,0,0.986,0.109,1.242,0.328
			c0.258,0.219,0.385,0.568,0.385,1.048c0,0.245-0.033,0.423-0.1,0.532s-0.121,0.193-0.16,0.252
			c-0.041,0.059-0.092,0.115-0.156,0.168c-0.117,0.091-0.211,0.155-0.279,0.192l-0.088,0.056c0.309,0.112,0.537,0.255,0.688,0.428
			c0.148,0.174,0.225,0.458,0.225,0.853c0,0.538-0.139,0.938-0.412,1.2c-0.275,0.261-0.709,0.392-1.301,0.392
			c-0.469,0-0.965-0.054-1.488-0.16l-0.248-0.056l0.057-0.504c0.576,0.117,1.115,0.176,1.615,0.176
			c0.764-0.006,1.145-0.347,1.145-1.024c0-0.635-0.363-0.965-1.088-0.992H93.91v-0.527h1.064c0.225,0,0.439-0.09,0.648-0.269
			c0.207-0.179,0.311-0.414,0.311-0.708c0-0.293-0.082-0.505-0.248-0.636c-0.164-0.131-0.441-0.196-0.832-0.196
			c-0.426,0-0.848,0.04-1.264,0.12l-0.207,0.04L93.326,111.726z"/>
		<path fill="#4D4D4D" d="M97.766,116.869v-0.912h0.656v0.912H97.766z"/>
		<path fill="#4D4D4D" d="M101.838,116.869v-1.032h-2.559v-0.479l1.504-3.769h0.672l-1.529,3.704h1.912v-1.647h0.617v1.647h0.672
			v0.544h-0.672v1.032H101.838z"/>
		<path fill="#4D4D4D" d="M107.365,116.869h-3.375v-0.52l1.543-1.624c0.268-0.277,0.463-0.488,0.584-0.633
			c0.123-0.144,0.234-0.314,0.332-0.512c0.1-0.197,0.148-0.395,0.148-0.592c0-0.342-0.094-0.581-0.279-0.72
			c-0.188-0.139-0.479-0.208-0.873-0.208c-0.346,0-0.732,0.045-1.16,0.136l-0.207,0.04l-0.049-0.512
			c0.508-0.145,1.029-0.217,1.568-0.217s0.945,0.113,1.221,0.341c0.273,0.227,0.412,0.585,0.412,1.075
			c0,0.374-0.084,0.699-0.248,0.977c-0.166,0.277-0.451,0.61-0.855,1l-1.408,1.432h2.646V116.869z"/>
		<path fill="#4D4D4D" d="M110.799,116.869v-1.032h-2.561v-0.479l1.504-3.769h0.672l-1.527,3.704h1.912v-1.647h0.615v1.647h0.672
			v0.544h-0.672v1.032H110.799z"/>
	</g>
</g>
<g>
	<g>
		<path fill="#4D4D4D" d="M4.232,111.789c-0.801,0-1.201,0.302-1.201,0.904c0,0.336,0.092,0.566,0.277,0.691
			c0.184,0.126,0.557,0.251,1.119,0.376c0.562,0.126,0.961,0.288,1.195,0.488c0.236,0.2,0.354,0.529,0.354,0.988
			c0,1.136-0.59,1.704-1.77,1.704c-0.389,0-0.877-0.046-1.463-0.137l-0.289-0.039l0.064-0.513c0.727,0.097,1.277,0.145,1.656,0.145
			c0.789,0,1.184-0.371,1.184-1.112c0-0.299-0.086-0.514-0.26-0.644c-0.174-0.131-0.496-0.242-0.973-0.332
			c-0.623-0.134-1.066-0.306-1.326-0.517c-0.262-0.211-0.393-0.563-0.393-1.06c0-0.992,0.594-1.488,1.783-1.488
			c0.391,0,0.857,0.04,1.4,0.12l0.271,0.04l-0.055,0.52C5.066,111.835,4.541,111.789,4.232,111.789z"/>
		<path fill="#4D4D4D" d="M7.535,116.869h-0.6v-5.744h0.6v1.968c0.428-0.202,0.838-0.304,1.232-0.304
			c0.533,0,0.893,0.145,1.076,0.432c0.184,0.288,0.275,0.801,0.275,1.536v2.112h-0.6v-2.096c0-0.555-0.055-0.935-0.164-1.141
			c-0.109-0.205-0.34-0.308-0.691-0.308c-0.336,0-0.662,0.062-0.977,0.184l-0.152,0.057V116.869z"/>
		<path fill="#4D4D4D" d="M13.951,116.373l0.232-0.023l0.016,0.472c-0.607,0.085-1.127,0.128-1.559,0.128
			c-0.576,0-0.984-0.167-1.225-0.5s-0.359-0.853-0.359-1.556c0-1.403,0.557-2.104,1.672-2.104c0.537,0,0.941,0.15,1.207,0.452
			c0.268,0.302,0.4,0.774,0.4,1.42l-0.031,0.456h-2.641c0,0.442,0.08,0.771,0.24,0.984c0.16,0.213,0.438,0.319,0.836,0.319
			C13.137,116.421,13.541,116.405,13.951,116.373z M13.736,114.637c0-0.49-0.08-0.837-0.236-1.04
			c-0.158-0.202-0.414-0.304-0.768-0.304c-0.355,0-0.621,0.106-0.801,0.32c-0.178,0.213-0.271,0.555-0.275,1.023H13.736z"/>
		<path fill="#4D4D4D" d="M15.871,116.869h-0.6v-4h0.592v0.28c0.432-0.24,0.846-0.36,1.24-0.36c0.533,0,0.893,0.145,1.076,0.432
			c0.184,0.288,0.275,0.801,0.275,1.536v2.112h-0.592v-2.096c0-0.555-0.055-0.935-0.164-1.141c-0.109-0.205-0.342-0.308-0.699-0.308
			c-0.172,0-0.352,0.025-0.541,0.076s-0.334,0.1-0.436,0.147l-0.152,0.072V116.869z"/>
		<path fill="#4D4D4D" d="M19.328,113.405v-0.536h2.967v0.536l-2.238,2.928h2.238v0.536h-2.967v-0.536l2.24-2.928H19.328z"/>
		<path fill="#4D4D4D" d="M23.807,116.869h-0.6v-5.744h0.6v1.968c0.428-0.202,0.838-0.304,1.232-0.304
			c0.533,0,0.893,0.145,1.076,0.432c0.184,0.288,0.275,0.801,0.275,1.536v2.112h-0.6v-2.096c0-0.555-0.055-0.935-0.164-1.141
			c-0.109-0.205-0.34-0.308-0.691-0.308c-0.336,0-0.662,0.062-0.977,0.184l-0.152,0.057V116.869z"/>
		<path fill="#4D4D4D" d="M30.223,116.373l0.232-0.023l0.016,0.472c-0.607,0.085-1.127,0.128-1.559,0.128
			c-0.576,0-0.984-0.167-1.225-0.5s-0.359-0.853-0.359-1.556c0-1.403,0.557-2.104,1.672-2.104c0.537,0,0.941,0.15,1.207,0.452
			c0.268,0.302,0.4,0.774,0.4,1.42l-0.031,0.456h-2.641c0,0.442,0.08,0.771,0.24,0.984c0.16,0.213,0.438,0.319,0.836,0.319
			C29.408,116.421,29.812,116.405,30.223,116.373z M30.008,114.637c0-0.49-0.08-0.837-0.236-1.04
			c-0.158-0.202-0.414-0.304-0.768-0.304c-0.355,0-0.621,0.106-0.801,0.32c-0.178,0.213-0.271,0.555-0.275,1.023H30.008z"/>
		<path fill="#4D4D4D" d="M32.143,116.869h-0.6v-4h0.592v0.28c0.432-0.24,0.846-0.36,1.24-0.36c0.533,0,0.893,0.145,1.076,0.432
			c0.184,0.288,0.275,0.801,0.275,1.536v2.112h-0.592v-2.096c0-0.555-0.055-0.935-0.164-1.141c-0.109-0.205-0.342-0.308-0.699-0.308
			c-0.172,0-0.352,0.025-0.541,0.076s-0.334,0.1-0.436,0.147l-0.152,0.072V116.869z"/>
		<path fill="#4D4D4D" d="M39.23,111.789c-0.799,0-1.199,0.302-1.199,0.904c0,0.336,0.092,0.566,0.275,0.691
			c0.184,0.126,0.557,0.251,1.121,0.376c0.562,0.126,0.961,0.288,1.195,0.488s0.352,0.529,0.352,0.988
			c0,1.136-0.59,1.704-1.768,1.704c-0.389,0-0.877-0.046-1.465-0.137l-0.287-0.039l0.064-0.513c0.725,0.097,1.277,0.145,1.656,0.145
			c0.789,0,1.184-0.371,1.184-1.112c0-0.299-0.088-0.514-0.26-0.644c-0.174-0.131-0.498-0.242-0.973-0.332
			c-0.623-0.134-1.066-0.306-1.328-0.517s-0.393-0.563-0.393-1.06c0-0.992,0.596-1.488,1.785-1.488c0.389,0,0.855,0.04,1.4,0.12
			l0.271,0.04l-0.057,0.52C40.066,111.835,39.541,111.789,39.23,111.789z"/>
		<path fill="#4D4D4D" d="M43.936,113.389h-1.273v1.912c0,0.459,0.033,0.761,0.1,0.904c0.068,0.145,0.227,0.216,0.477,0.216
			l0.713-0.048l0.039,0.496c-0.357,0.059-0.629,0.088-0.816,0.088c-0.416,0-0.703-0.102-0.863-0.304
			c-0.16-0.203-0.24-0.59-0.24-1.16v-2.104h-0.568v-0.52h0.568v-1.224h0.592v1.224h1.273V113.389z"/>
		<path fill="#4D4D4D" d="M44.496,114.861c0-0.73,0.129-1.259,0.391-1.584s0.703-0.488,1.324-0.488s1.062,0.163,1.32,0.488
			s0.389,0.854,0.389,1.584s-0.123,1.261-0.369,1.592c-0.244,0.331-0.693,0.496-1.344,0.496s-1.098-0.165-1.344-0.496
			S44.496,115.592,44.496,114.861z M45.111,114.85c0,0.584,0.07,0.993,0.211,1.228c0.143,0.234,0.438,0.352,0.889,0.352
			s0.746-0.115,0.885-0.348c0.139-0.231,0.207-0.642,0.207-1.228c0-0.587-0.076-0.991-0.232-1.212
			c-0.154-0.222-0.441-0.332-0.859-0.332s-0.707,0.11-0.863,0.332C45.189,113.862,45.111,114.266,45.111,114.85z"/>
		<path fill="#4D4D4D" d="M50.391,112.789c0.176,0,0.475,0.032,0.896,0.096l0.191,0.024l-0.023,0.488
			c-0.428-0.048-0.742-0.072-0.943-0.072c-0.455,0-0.762,0.108-0.926,0.324c-0.162,0.216-0.242,0.616-0.242,1.2
			s0.074,0.99,0.227,1.22s0.469,0.344,0.949,0.344l0.943-0.072l0.023,0.496c-0.496,0.075-0.867,0.112-1.111,0.112
			c-0.625,0-1.055-0.16-1.293-0.48c-0.236-0.319-0.355-0.859-0.355-1.619c0-0.761,0.129-1.294,0.385-1.601
			S49.793,112.789,50.391,112.789z"/>
		<path fill="#4D4D4D" d="M52.982,116.869h-0.6v-5.744h0.6v3.393l0.625-0.032l1.145-1.616h0.68l-1.305,1.84l1.359,2.16h-0.68
			l-1.191-1.856l-0.633,0.024V116.869z"/>
		<path fill="#4D4D4D" d="M2.703,126.469v-5.536h3.369v0.544H3.32v1.912h2.271v0.536H3.32v2h2.752v0.544H2.703z"/>
		<path fill="#4D4D4D" d="M6.623,122.469h0.656l0.977,1.568l0.977-1.568h0.656l-1.273,1.984l1.264,2.016H9.225l-0.969-1.56
			l-0.977,1.56H6.623l1.256-2L6.623,122.469z"/>
		<path fill="#4D4D4D" d="M12.041,122.389c0.176,0,0.475,0.032,0.895,0.096l0.193,0.024l-0.025,0.488
			c-0.426-0.048-0.74-0.072-0.943-0.072c-0.453,0-0.762,0.108-0.924,0.324s-0.244,0.616-0.244,1.2s0.076,0.99,0.229,1.22
			s0.467,0.344,0.947,0.344l0.943-0.072l0.025,0.496c-0.496,0.075-0.867,0.112-1.113,0.112c-0.623,0-1.055-0.16-1.291-0.48
			c-0.238-0.319-0.355-0.859-0.355-1.619c0-0.761,0.127-1.294,0.383-1.601S11.443,122.389,12.041,122.389z"/>
		<path fill="#4D4D4D" d="M14.631,126.469h-0.6v-5.744h0.6v1.968c0.428-0.202,0.838-0.304,1.232-0.304
			c0.533,0,0.893,0.145,1.076,0.432c0.184,0.288,0.275,0.801,0.275,1.536v2.112h-0.6v-2.096c0-0.555-0.055-0.935-0.164-1.141
			c-0.109-0.205-0.34-0.308-0.691-0.308c-0.336,0-0.662,0.062-0.977,0.184l-0.152,0.057V126.469z"/>
		<path fill="#4D4D4D" d="M21.152,123.677v2.048c0.016,0.197,0.17,0.314,0.463,0.353l-0.023,0.472c-0.422,0-0.738-0.106-0.953-0.32
			c-0.479,0.214-0.959,0.32-1.439,0.32c-0.367,0-0.648-0.104-0.84-0.312s-0.287-0.506-0.287-0.896s0.098-0.676,0.295-0.86
			c0.197-0.184,0.508-0.297,0.928-0.34l1.256-0.12v-0.344c0-0.272-0.059-0.467-0.176-0.584s-0.277-0.176-0.48-0.176
			c-0.426,0-0.869,0.026-1.326,0.08l-0.248,0.023l-0.025-0.456c0.588-0.117,1.107-0.176,1.561-0.176s0.783,0.104,0.988,0.312
			S21.152,123.234,21.152,123.677z M18.688,125.309c0,0.491,0.203,0.736,0.607,0.736c0.363,0,0.721-0.062,1.072-0.185l0.184-0.063
			v-1.32l-1.184,0.112c-0.24,0.021-0.414,0.091-0.52,0.208C18.74,124.914,18.688,125.085,18.688,125.309z"/>
		<path fill="#4D4D4D" d="M22.936,126.469h-0.6v-4h0.592v0.28c0.432-0.24,0.846-0.36,1.24-0.36c0.533,0,0.891,0.145,1.076,0.432
			c0.184,0.288,0.275,0.801,0.275,1.536v2.112h-0.592v-2.096c0-0.555-0.055-0.935-0.164-1.141c-0.109-0.205-0.344-0.308-0.701-0.308
			c-0.17,0-0.35,0.025-0.539,0.076s-0.334,0.1-0.436,0.147l-0.152,0.072V126.469z"/>
		<path fill="#4D4D4D" d="M28.176,128.349c-0.641,0-1.088-0.087-1.34-0.26c-0.254-0.174-0.381-0.489-0.381-0.948
			c0-0.219,0.049-0.396,0.145-0.532c0.096-0.136,0.258-0.289,0.488-0.46c-0.15-0.101-0.225-0.285-0.225-0.552
			c0-0.091,0.066-0.259,0.199-0.504l0.072-0.128c-0.422-0.192-0.631-0.595-0.631-1.208c0-0.912,0.498-1.368,1.496-1.368
			c0.256,0,0.492,0.026,0.711,0.08l0.121,0.024l1.184-0.032v0.512l-0.76-0.016c0.176,0.176,0.264,0.442,0.264,0.8
			c0,0.501-0.125,0.852-0.373,1.052s-0.639,0.3-1.172,0.3c-0.143,0-0.273-0.011-0.391-0.031c-0.098,0.234-0.145,0.387-0.145,0.456
			c0,0.165,0.051,0.268,0.152,0.308s0.408,0.06,0.92,0.06s0.879,0.08,1.104,0.24s0.336,0.472,0.336,0.937
			C29.951,127.925,29.359,128.349,28.176,128.349z M27.047,127.093c0,0.282,0.078,0.479,0.236,0.588
			c0.156,0.109,0.447,0.164,0.871,0.164c0.426,0,0.729-0.059,0.912-0.176c0.186-0.117,0.277-0.313,0.277-0.588
			c0-0.275-0.066-0.452-0.201-0.532c-0.133-0.08-0.395-0.12-0.783-0.12l-0.863-0.04c-0.178,0.128-0.295,0.24-0.357,0.336
			C27.078,126.82,27.047,126.943,27.047,127.093z M27.104,123.757c0,0.314,0.07,0.539,0.211,0.672c0.143,0.134,0.375,0.2,0.701,0.2
			c0.324,0,0.557-0.066,0.695-0.2c0.139-0.133,0.209-0.358,0.209-0.676s-0.07-0.543-0.209-0.676c-0.139-0.134-0.371-0.2-0.695-0.2
			c-0.326,0-0.559,0.067-0.701,0.204C27.174,123.217,27.104,123.442,27.104,123.757z"/>
		<path fill="#4D4D4D" d="M33.463,125.973l0.232-0.023l0.016,0.472c-0.607,0.085-1.127,0.128-1.559,0.128
			c-0.576,0-0.984-0.167-1.225-0.5s-0.359-0.853-0.359-1.556c0-1.403,0.557-2.104,1.672-2.104c0.537,0,0.941,0.15,1.207,0.452
			c0.268,0.302,0.4,0.774,0.4,1.42l-0.031,0.456h-2.641c0,0.442,0.08,0.771,0.24,0.984c0.16,0.213,0.438,0.319,0.836,0.319
			C32.648,126.021,33.053,126.005,33.463,125.973z M33.248,124.236c0-0.49-0.08-0.837-0.236-1.04
			c-0.158-0.202-0.414-0.304-0.768-0.304c-0.355,0-0.621,0.106-0.801,0.32c-0.178,0.213-0.271,0.555-0.275,1.023H33.248z"/>
	</g>
</g>
<line fill="none" stroke="#4D4D4D" stroke-miterlimit="10" x1="-0.25" y1="119" x2="112.477" y2="119"/>
<g>
	<g>
		<path fill="#4D4D4D" d="M93.326,137.726c0.502-0.149,1.039-0.225,1.613-0.225c0.572,0,0.986,0.109,1.242,0.328
			c0.258,0.219,0.385,0.568,0.385,1.048c0,0.245-0.033,0.423-0.1,0.532s-0.121,0.193-0.16,0.252
			c-0.041,0.059-0.092,0.115-0.156,0.168c-0.117,0.091-0.211,0.155-0.279,0.192l-0.088,0.056c0.309,0.112,0.537,0.255,0.688,0.428
			c0.148,0.174,0.225,0.458,0.225,0.853c0,0.538-0.139,0.938-0.412,1.2c-0.275,0.261-0.709,0.392-1.301,0.392
			c-0.469,0-0.965-0.054-1.488-0.16l-0.248-0.056l0.057-0.504c0.576,0.117,1.115,0.176,1.615,0.176
			c0.764-0.006,1.145-0.347,1.145-1.024c0-0.635-0.363-0.965-1.088-0.992H93.91v-0.527h1.064c0.225,0,0.439-0.09,0.648-0.269
			c0.207-0.179,0.311-0.414,0.311-0.708c0-0.293-0.082-0.505-0.248-0.636c-0.164-0.131-0.441-0.196-0.832-0.196
			c-0.426,0-0.848,0.04-1.264,0.12l-0.207,0.04L93.326,137.726z"/>
		<path fill="#4D4D4D" d="M97.766,142.869v-0.912h0.656v0.912H97.766z"/>
		<path fill="#4D4D4D" d="M99.535,137.726c0.5-0.149,1.037-0.225,1.611-0.225s0.988,0.109,1.244,0.328s0.385,0.568,0.385,1.048
			c0,0.245-0.035,0.423-0.102,0.532s-0.119,0.193-0.16,0.252c-0.039,0.059-0.092,0.115-0.154,0.168
			c-0.119,0.091-0.211,0.155-0.281,0.192l-0.088,0.056c0.309,0.112,0.539,0.255,0.688,0.428c0.15,0.174,0.225,0.458,0.225,0.853
			c0,0.538-0.137,0.938-0.412,1.2c-0.275,0.261-0.707,0.392-1.299,0.392c-0.471,0-0.967-0.054-1.488-0.16l-0.248-0.056l0.055-0.504
			c0.576,0.117,1.115,0.176,1.617,0.176c0.762-0.006,1.143-0.347,1.143-1.024c0-0.635-0.361-0.965-1.088-0.992h-1.062v-0.527h1.062
			c0.225,0,0.441-0.09,0.648-0.269c0.209-0.179,0.312-0.414,0.312-0.708c0-0.293-0.082-0.505-0.248-0.636s-0.443-0.196-0.832-0.196
			c-0.426,0-0.848,0.04-1.264,0.12l-0.209,0.04L99.535,137.726z"/>
		<path fill="#4D4D4D" d="M104.055,138.149v-0.561h3.279v0.809l-2.031,4.552l-0.584-0.184l1.992-4.408v-0.208H104.055z"/>
		<path fill="#4D4D4D" d="M109.895,142.405c0.965,0,1.451-0.613,1.455-1.84c-0.533,0.202-0.99,0.304-1.375,0.304
			c-1.152,0-1.729-0.536-1.729-1.608c0-0.538,0.166-0.965,0.496-1.279s0.775-0.473,1.336-0.473c0.646,0,1.125,0.239,1.439,0.717
			c0.316,0.477,0.473,1.179,0.473,2.104c0,0.926-0.178,1.594-0.531,2.004c-0.355,0.411-0.877,0.616-1.564,0.616
			c-0.4,0-0.812-0.037-1.24-0.112l-0.207-0.032l0.055-0.495C108.982,142.373,109.447,142.405,109.895,142.405z M110.021,140.325
			c0.326,0,0.703-0.072,1.129-0.216l0.209-0.072c-0.018-1.322-0.443-1.984-1.281-1.984c-0.373,0-0.666,0.108-0.875,0.324
			c-0.211,0.216-0.316,0.511-0.316,0.884C108.887,139.971,109.266,140.325,110.021,140.325z"/>
	</g>
</g>
<g>
	<g>
		<path fill="#4D4D4D" d="M2.703,142.869v-5.536h1.152l2.121,4.992h0.168v-4.992h0.607v5.536H5.623l-2.15-4.992H3.32v4.992H2.703z"
			/>
		<path fill="#4D4D4D" d="M9.896,142.869H9.279v-2.328l-1.768-3.208h0.697l1.375,2.592l1.377-2.592h0.695l-1.76,3.208V142.869z"/>
		<path fill="#4D4D4D" d="M13.801,137.789c-0.801,0-1.201,0.302-1.201,0.904c0,0.336,0.092,0.566,0.277,0.691
			c0.184,0.126,0.557,0.251,1.119,0.376c0.562,0.126,0.961,0.288,1.195,0.488c0.236,0.2,0.354,0.529,0.354,0.988
			c0,1.136-0.59,1.704-1.77,1.704c-0.389,0-0.877-0.046-1.463-0.137l-0.289-0.039l0.064-0.513c0.727,0.097,1.277,0.145,1.656,0.145
			c0.789,0,1.184-0.371,1.184-1.112c0-0.299-0.086-0.514-0.26-0.644c-0.174-0.131-0.496-0.242-0.973-0.332
			c-0.623-0.134-1.066-0.306-1.326-0.517c-0.262-0.211-0.393-0.563-0.393-1.06c0-0.992,0.594-1.488,1.783-1.488
			c0.391,0,0.857,0.04,1.4,0.12l0.271,0.04l-0.055,0.52C14.635,137.835,14.109,137.789,13.801,137.789z"/>
		<path fill="#4D4D4D" d="M16.607,142.869v-5.536h3.369v0.544h-2.752v1.912h2.271v0.536h-2.271v2h2.752v0.544H16.607z"/>
		<path fill="#4D4D4D" d="M22.791,142.869v-5.536h3.369v0.544h-2.752v1.912h2.271v0.536h-2.271v2h2.752v0.544H22.791z"/>
		<path fill="#4D4D4D" d="M29.545,138.869h0.6v4h-0.6v-0.28c-0.4,0.24-0.795,0.36-1.186,0.36c-0.543,0-0.904-0.142-1.084-0.424
			c-0.178-0.283-0.268-0.806-0.268-1.568v-2.088h0.6v2.08c0,0.581,0.051,0.971,0.152,1.168s0.33,0.296,0.688,0.296
			c0.178,0,0.355-0.025,0.537-0.076s0.32-0.1,0.416-0.147l0.145-0.072V138.869z"/>
		<path fill="#4D4D4D" d="M31.295,142.869v-4h0.592v0.544c0.465-0.32,0.953-0.53,1.465-0.632v0.607
			c-0.225,0.043-0.457,0.109-0.701,0.2c-0.242,0.091-0.428,0.171-0.555,0.24l-0.201,0.104v2.936H31.295z"/>
		<path fill="#4D4D4D" d="M33.809,140.861c0-0.73,0.129-1.259,0.391-1.584s0.703-0.488,1.324-0.488s1.062,0.163,1.32,0.488
			s0.389,0.854,0.389,1.584s-0.123,1.261-0.369,1.592c-0.244,0.331-0.693,0.496-1.344,0.496s-1.098-0.165-1.344-0.496
			S33.809,141.592,33.809,140.861z M34.424,140.85c0,0.584,0.07,0.993,0.211,1.228c0.143,0.234,0.438,0.352,0.889,0.352
			s0.746-0.115,0.885-0.348c0.139-0.231,0.207-0.642,0.207-1.228c0-0.587-0.076-0.991-0.232-1.212
			c-0.154-0.222-0.441-0.332-0.859-0.332s-0.707,0.11-0.863,0.332C34.502,139.862,34.424,140.266,34.424,140.85z"/>
		<path fill="#4D4D4D" d="M38.807,142.869h-0.6v-4h0.592v0.28c0.432-0.24,0.846-0.36,1.24-0.36c0.533,0,0.893,0.145,1.076,0.432
			c0.184,0.288,0.275,0.801,0.275,1.536v2.112h-0.592v-2.096c0-0.555-0.055-0.935-0.164-1.141c-0.109-0.205-0.342-0.308-0.699-0.308
			c-0.172,0-0.352,0.025-0.541,0.076s-0.334,0.1-0.436,0.147l-0.152,0.072V142.869z"/>
		<path fill="#4D4D4D" d="M45.223,142.373l0.232-0.023l0.016,0.472c-0.607,0.085-1.127,0.128-1.559,0.128
			c-0.576,0-0.984-0.167-1.225-0.5s-0.359-0.853-0.359-1.556c0-1.403,0.557-2.104,1.672-2.104c0.537,0,0.941,0.15,1.207,0.452
			c0.268,0.302,0.4,0.774,0.4,1.42l-0.031,0.456h-2.641c0,0.442,0.08,0.771,0.24,0.984c0.16,0.213,0.438,0.319,0.836,0.319
			C44.408,142.421,44.812,142.405,45.223,142.373z M45.008,140.637c0-0.49-0.08-0.837-0.236-1.04
			c-0.158-0.202-0.414-0.304-0.768-0.304c-0.355,0-0.621,0.106-0.801,0.32c-0.178,0.213-0.271,0.555-0.275,1.023H45.008z"/>
		<path fill="#4D4D4D" d="M46.111,138.869h0.656l0.975,1.568l0.977-1.568h0.656l-1.271,1.984l1.264,2.016h-0.656l-0.969-1.56
			l-0.975,1.56h-0.656l1.256-2L46.111,138.869z"/>
		<path fill="#4D4D4D" d="M52.199,139.389h-1.271v1.912c0,0.459,0.033,0.761,0.1,0.904c0.066,0.145,0.225,0.216,0.477,0.216
			l0.711-0.048l0.041,0.496c-0.357,0.059-0.631,0.088-0.816,0.088c-0.416,0-0.705-0.102-0.863-0.304
			c-0.16-0.203-0.24-0.59-0.24-1.16v-2.104h-0.568v-0.52h0.568v-1.224h0.592v1.224h1.271V139.389z"/>
		<path fill="#4D4D4D" d="M2.703,152.469v-5.536h3.369v0.544H3.32v1.912h2.271v0.536H3.32v2h2.752v0.544H2.703z"/>
		<path fill="#4D4D4D" d="M9.457,148.469h0.6v4h-0.6v-0.28c-0.4,0.24-0.795,0.36-1.186,0.36c-0.543,0-0.904-0.142-1.084-0.424
			c-0.178-0.283-0.268-0.806-0.268-1.568v-2.088h0.6v2.08c0,0.581,0.051,0.971,0.152,1.168s0.33,0.296,0.688,0.296
			c0.178,0,0.355-0.025,0.537-0.076s0.32-0.1,0.416-0.147l0.145-0.072V148.469z"/>
		<path fill="#4D4D4D" d="M11.209,152.469v-4h0.592v0.544c0.463-0.32,0.951-0.53,1.463-0.632v0.607
			c-0.223,0.043-0.457,0.109-0.699,0.2s-0.428,0.171-0.557,0.24l-0.199,0.104v2.936H11.209z"/>
		<path fill="#4D4D4D" d="M13.721,150.461c0-0.73,0.129-1.259,0.391-1.584s0.703-0.488,1.324-0.488s1.062,0.163,1.32,0.488
			s0.389,0.854,0.389,1.584s-0.123,1.261-0.369,1.592c-0.244,0.331-0.693,0.496-1.344,0.496s-1.098-0.165-1.344-0.496
			S13.721,151.191,13.721,150.461z M14.336,150.449c0,0.584,0.07,0.993,0.211,1.228c0.143,0.234,0.438,0.352,0.889,0.352
			s0.746-0.115,0.885-0.348c0.139-0.231,0.207-0.642,0.207-1.228c0-0.587-0.076-0.991-0.232-1.212
			c-0.154-0.222-0.441-0.332-0.859-0.332s-0.707,0.11-0.863,0.332C14.414,149.462,14.336,149.865,14.336,150.449z"/>
		<path fill="#4D4D4D" d="M18.119,154.245v-5.776h0.592v0.288c0.406-0.245,0.807-0.368,1.201-0.368c0.506,0,0.873,0.161,1.104,0.484
			c0.229,0.322,0.344,0.854,0.344,1.596s-0.135,1.273-0.404,1.596c-0.27,0.323-0.715,0.484-1.34,0.484
			c-0.324,0-0.623-0.029-0.896-0.088v1.784H18.119z M19.824,148.925c-0.16,0-0.332,0.026-0.518,0.08
			c-0.184,0.054-0.328,0.106-0.436,0.16l-0.152,0.08v2.695c0.379,0.059,0.668,0.088,0.865,0.088c0.432,0,0.734-0.122,0.908-0.367
			c0.172-0.246,0.26-0.646,0.26-1.2s-0.08-0.949-0.236-1.185C20.357,149.042,20.127,148.925,19.824,148.925z"/>
		<path fill="#4D4D4D" d="M25.055,151.973l0.232-0.023l0.016,0.472c-0.607,0.085-1.127,0.128-1.559,0.128
			c-0.576,0-0.984-0.167-1.225-0.5s-0.359-0.853-0.359-1.556c0-1.403,0.557-2.104,1.672-2.104c0.537,0,0.941,0.15,1.207,0.452
			c0.268,0.302,0.4,0.774,0.4,1.42l-0.031,0.456h-2.641c0,0.442,0.08,0.771,0.24,0.984c0.16,0.213,0.438,0.319,0.836,0.319
			C24.24,152.021,24.645,152.005,25.055,151.973z M24.84,150.236c0-0.49-0.08-0.837-0.236-1.04
			c-0.158-0.202-0.414-0.304-0.768-0.304c-0.355,0-0.621,0.106-0.801,0.32c-0.178,0.213-0.271,0.555-0.275,1.023H24.84z"/>
	</g>
</g>
<line fill="none" stroke="#4D4D4D" stroke-miterlimit="10" x1="-0.25" y1="145" x2="112.477" y2="145"/>
</svg>
