<?xml version="1.0" encoding="utf-8"?>
<!-- Generator: Adobe Illustrator 21.1.0, SVG Export Plug-In . SVG Version: 6.00 Build 0)  -->
<svg version="1.1" id="Ebene_1" xmlns="http://www.w3.org/2000/svg" xmlns:xlink="http://www.w3.org/1999/xlink" x="0px" y="0px"
	 viewBox="0 0 200 200" enable-background="new 0 0 200 200" xml:space="preserve">
<rect x="0.333" y="0.333" fill="#FFFFFF" width="200" height="200.667"/>
<g>
	<rect x="147.347" y="124.166" fill="#4D4D4D" width="20.468" height="1.59"/>
</g>
<g>
	<rect x="142.18" y="128.339" fill="#4D4D4D" width="30.801" height="1.59"/>
</g>
<g>
	<path fill="#4D4D4D" d="M179.539,93.166h-43.916v-5.469l22.022-10.514l21.894,10.516V93.166z M137.212,91.577h40.736v-2.878
		l-20.306-9.753L137.212,88.7V91.577z"/>
</g>
<g>
	<path fill="#4D4D4D" d="M175.546,118.935h-7.821V96.807h7.821V118.935z M169.285,117.375h4.7V98.367h-4.7V117.375z"/>
</g>
<g>
	<path fill="#4D4D4D" d="M161.546,118.935h-7.821V96.807h7.821V118.935z M155.285,117.375h4.7V98.367h-4.7V117.375z"/>
</g>
<g>
	<path fill="#4D4D4D" d="M146.886,118.935h-7.821V96.807h7.821V118.935z M140.625,117.375h4.7V98.367h-4.7V117.375z"/>
</g>
<path fill="#4D4D4D" d="M4.935,92.059c-1.029,0-1.911,0.415-2.655,1.217c-0.747,0.838-1.131,1.813-1.131,2.898v10.034
	c0,0.376,0.118,0.716,0.384,0.991c0.246,0.272,0.553,0.394,0.9,0.394c0.4,0,0.706-0.123,0.953-0.394
	c0.214-0.275,0.326-0.615,0.326-0.991v-8.973h0.665v24.841c0,0.478,0.191,0.92,0.556,1.261c0.342,0.376,0.742,0.537,1.202,0.537
	c0.498,0,0.898-0.161,1.223-0.537c0.345-0.34,0.501-0.782,0.501-1.261v-14.4h0.744v14.4c0,0.478,0.172,0.92,0.496,1.261
	c0.326,0.376,0.747,0.537,1.262,0.537c0.438,0,0.822-0.161,1.166-0.537c0.323-0.34,0.471-0.782,0.471-1.261V97.235h0.695v8.973
	c0,0.376,0.109,0.716,0.339,0.991c0.274,0.272,0.591,0.394,0.936,0.394c0.405,0,0.712-0.123,0.942-0.394
	c0.208-0.275,0.339-0.615,0.339-0.991V96.174c0-1.082-0.362-2.061-1.109-2.895c-0.728-0.805-1.601-1.217-2.672-1.217H4.935V92.059z"
	/>
<path fill="#4D4D4D" d="M8.22,91.125c0.803,0,1.511-0.264,2.081-0.816c0.569-0.567,0.86-1.267,0.86-2.111
	c0-0.805-0.293-1.495-0.862-2.064c-0.572-0.586-1.278-0.878-2.078-0.878c-0.843,0-1.552,0.292-2.086,0.878
	c-0.569,0.569-0.837,1.259-0.837,2.064c0,0.846,0.268,1.546,0.837,2.111C6.671,90.861,7.38,91.125,8.22,91.125z"/>
<g>
	<g>
		<path fill="#4D4D4D" d="M55.656,136H53.68v-5.536h1.977c0.901,0,1.498,0.357,1.792,1.072c0.17,0.41,0.256,0.949,0.256,1.616
			c0,1.392-0.347,2.269-1.04,2.632C56.387,135.928,56.051,136,55.656,136z M57.072,133.152c0-1.062-0.237-1.723-0.712-1.984
			c-0.192-0.106-0.427-0.16-0.704-0.16h-1.36v4.448h1.36C56.6,135.456,57.072,134.688,57.072,133.152z"/>
		<path fill="#4D4D4D" d="M61.456,135.504l0.232-0.023l0.016,0.472c-0.608,0.085-1.128,0.128-1.56,0.128
			c-0.576,0-0.984-0.167-1.225-0.5s-0.359-0.853-0.359-1.556c0-1.403,0.557-2.104,1.672-2.104c0.538,0,0.941,0.15,1.208,0.452
			s0.399,0.774,0.399,1.42l-0.031,0.456h-2.641c0,0.442,0.08,0.771,0.24,0.984c0.16,0.213,0.438,0.319,0.836,0.319
			S61.045,135.536,61.456,135.504z M61.24,133.768c0-0.49-0.079-0.837-0.236-1.04c-0.157-0.202-0.413-0.304-0.768-0.304
			s-0.621,0.106-0.8,0.32c-0.179,0.213-0.271,0.555-0.276,1.023H61.24z"/>
		<path fill="#4D4D4D" d="M62.776,137.776V132h0.592v0.288c0.405-0.245,0.806-0.368,1.2-0.368c0.507,0,0.874,0.161,1.104,0.484
			c0.229,0.322,0.345,0.854,0.345,1.596s-0.135,1.273-0.404,1.596c-0.27,0.323-0.716,0.484-1.34,0.484
			c-0.325,0-0.624-0.029-0.896-0.088v1.784H62.776z M64.48,132.456c-0.16,0-0.332,0.026-0.517,0.08
			c-0.184,0.054-0.329,0.106-0.436,0.16l-0.152,0.08v2.695c0.379,0.059,0.667,0.088,0.864,0.088c0.432,0,0.734-0.122,0.908-0.367
			c0.173-0.246,0.26-0.646,0.26-1.2s-0.079-0.949-0.236-1.185C65.015,132.573,64.784,132.456,64.48,132.456z"/>
		<path fill="#4D4D4D" d="M66.816,133.992c0-0.73,0.13-1.259,0.392-1.584s0.702-0.488,1.324-0.488c0.621,0,1.062,0.163,1.319,0.488
			c0.259,0.325,0.389,0.854,0.389,1.584s-0.123,1.261-0.368,1.592s-0.693,0.496-1.344,0.496c-0.651,0-1.099-0.165-1.345-0.496
			C66.938,135.253,66.816,134.723,66.816,133.992z M67.432,133.98c0,0.584,0.071,0.993,0.212,1.228
			c0.142,0.234,0.438,0.352,0.889,0.352c0.45,0,0.745-0.115,0.884-0.348c0.139-0.231,0.208-0.642,0.208-1.228
			c0-0.587-0.077-0.991-0.232-1.212c-0.154-0.222-0.441-0.332-0.859-0.332c-0.419,0-0.707,0.11-0.864,0.332
			C67.511,132.993,67.432,133.396,67.432,133.98z"/>
		<path fill="#4D4D4D" d="M73.256,132.52h-1.272v1.912c0,0.459,0.033,0.761,0.1,0.904c0.067,0.145,0.226,0.216,0.477,0.216
			l0.712-0.048l0.04,0.496c-0.357,0.059-0.63,0.088-0.816,0.088c-0.416,0-0.704-0.102-0.863-0.304c-0.16-0.203-0.24-0.59-0.24-1.16
			v-2.104h-0.568V132h0.568v-1.224h0.592V132h1.272V132.52z"/>
		<path fill="#4D4D4D" d="M77.52,131.92c0.539,0,0.916,0.153,1.132,0.46c0.217,0.307,0.324,0.844,0.324,1.612
			c0,0.768-0.135,1.308-0.403,1.62c-0.27,0.312-0.765,0.468-1.484,0.468c-0.224,0-0.595-0.021-1.112-0.064l-0.224-0.023v-5.736
			h0.592v1.944C76.749,132.014,77.141,131.92,77.52,131.92z M77.08,135.544c0.522,0,0.868-0.118,1.036-0.355
			s0.252-0.639,0.252-1.204s-0.067-0.962-0.2-1.188c-0.134-0.227-0.371-0.34-0.712-0.34c-0.31,0-0.627,0.059-0.952,0.176
			l-0.16,0.057v2.815C76.69,135.53,76.936,135.544,77.08,135.544z"/>
		<path fill="#4D4D4D" d="M82.68,135.504l0.232-0.023l0.016,0.472c-0.608,0.085-1.128,0.128-1.56,0.128
			c-0.576,0-0.984-0.167-1.225-0.5s-0.359-0.853-0.359-1.556c0-1.403,0.557-2.104,1.672-2.104c0.538,0,0.941,0.15,1.208,0.452
			s0.399,0.774,0.399,1.42l-0.031,0.456h-2.641c0,0.442,0.08,0.771,0.24,0.984c0.16,0.213,0.438,0.319,0.836,0.319
			S82.269,135.536,82.68,135.504z M82.464,133.768c0-0.49-0.079-0.837-0.236-1.04c-0.157-0.202-0.413-0.304-0.768-0.304
			s-0.621,0.106-0.8,0.32c-0.179,0.213-0.271,0.555-0.276,1.023H82.464z"/>
		<path fill="#4D4D4D" d="M84,131.096V130.4h0.6v0.695H84z M84,136v-4h0.6v4H84z"/>
		<path fill="#4D4D4D" d="M53.68,140.063h2.009c0.549,0,0.961,0.113,1.235,0.34s0.412,0.583,0.412,1.068
			c0,0.347-0.06,0.617-0.18,0.812c-0.12,0.195-0.298,0.349-0.532,0.46c0.587,0.203,0.88,0.638,0.88,1.305
			c0,0.555-0.146,0.952-0.439,1.191c-0.294,0.24-0.718,0.36-1.272,0.36H53.68V140.063z M55.664,140.607h-1.368v1.912h1.424
			c0.342,0,0.591-0.081,0.748-0.244c0.157-0.162,0.236-0.408,0.236-0.735c0-0.328-0.084-0.565-0.252-0.713
			C56.284,140.681,56.021,140.607,55.664,140.607z M55.728,143.056h-1.432v2h1.472c0.363,0,0.639-0.076,0.828-0.229
			c0.189-0.151,0.284-0.42,0.284-0.804c0-0.202-0.039-0.373-0.116-0.512s-0.18-0.237-0.308-0.296
			C56.222,143.109,55.979,143.056,55.728,143.056z"/>
		<path fill="#4D4D4D" d="M61.328,142.808v2.048c0.016,0.197,0.17,0.314,0.464,0.353l-0.024,0.472c-0.421,0-0.738-0.106-0.952-0.32
			c-0.479,0.214-0.96,0.32-1.439,0.32c-0.368,0-0.648-0.104-0.84-0.312c-0.192-0.208-0.288-0.506-0.288-0.896
			s0.099-0.676,0.296-0.86c0.197-0.184,0.507-0.297,0.928-0.34l1.256-0.12v-0.344c0-0.272-0.059-0.467-0.176-0.584
			s-0.277-0.176-0.48-0.176c-0.427,0-0.869,0.026-1.327,0.08l-0.248,0.023l-0.024-0.456c0.587-0.117,1.106-0.176,1.56-0.176
			c0.454,0,0.783,0.104,0.988,0.312S61.328,142.365,61.328,142.808z M58.863,144.439c0,0.491,0.203,0.736,0.608,0.736
			c0.362,0,0.72-0.062,1.072-0.185l0.184-0.063v-1.32l-1.184,0.112c-0.24,0.021-0.414,0.091-0.521,0.208
			S58.863,144.216,58.863,144.439z"/>
		<path fill="#4D4D4D" d="M63.111,145.6h-0.6v-4h0.592v0.28c0.432-0.24,0.846-0.36,1.24-0.36c0.533,0,0.892,0.145,1.076,0.432
			c0.184,0.288,0.275,0.801,0.275,1.536v2.112h-0.592v-2.096c0-0.555-0.055-0.935-0.164-1.141c-0.109-0.205-0.343-0.308-0.7-0.308
			c-0.171,0-0.351,0.025-0.54,0.076s-0.334,0.1-0.436,0.147l-0.152,0.072V145.6z"/>
		<path fill="#4D4D4D" d="M67.407,145.6h-0.6v-5.744h0.6v3.393l0.624-0.032l1.145-1.616h0.68l-1.304,1.84l1.359,2.16h-0.68
			l-1.192-1.856l-0.632,0.024V145.6z"/>
		<path fill="#4D4D4D" d="M70.319,145.52l2.256-5.584l0.536,0.2l-2.256,5.576L70.319,145.52z"/>
		<path fill="#4D4D4D" d="M74.039,140.063h2.009c0.549,0,0.961,0.113,1.235,0.34s0.412,0.583,0.412,1.068
			c0,0.347-0.06,0.617-0.18,0.812c-0.12,0.195-0.298,0.349-0.532,0.46c0.587,0.203,0.88,0.638,0.88,1.305
			c0,0.555-0.146,0.952-0.439,1.191c-0.294,0.24-0.718,0.36-1.272,0.36h-2.112V140.063z M76.023,140.607h-1.368v1.912h1.424
			c0.342,0,0.591-0.081,0.748-0.244c0.157-0.162,0.236-0.408,0.236-0.735c0-0.328-0.084-0.565-0.252-0.713
			C76.644,140.681,76.381,140.607,76.023,140.607z M76.087,143.056h-1.432v2h1.472c0.363,0,0.639-0.076,0.828-0.229
			c0.189-0.151,0.284-0.42,0.284-0.804c0-0.202-0.039-0.373-0.116-0.512s-0.18-0.237-0.308-0.296
			C76.581,143.109,76.338,143.056,76.087,143.056z"/>
		<path fill="#4D4D4D" d="M78.863,145.6v-4h0.592v0.544c0.464-0.32,0.952-0.53,1.464-0.632v0.607c-0.224,0.043-0.457,0.109-0.7,0.2
			c-0.242,0.091-0.428,0.171-0.556,0.24l-0.2,0.104v2.936H78.863z"/>
		<path fill="#4D4D4D" d="M81.376,143.592c0-0.73,0.13-1.259,0.392-1.584s0.702-0.488,1.324-0.488c0.621,0,1.062,0.163,1.319,0.488
			c0.259,0.325,0.389,0.854,0.389,1.584s-0.123,1.261-0.368,1.592s-0.693,0.496-1.344,0.496c-0.651,0-1.099-0.165-1.345-0.496
			C81.498,144.853,81.376,144.322,81.376,143.592z M81.991,143.58c0,0.584,0.071,0.993,0.212,1.228
			c0.142,0.234,0.438,0.352,0.889,0.352c0.45,0,0.745-0.115,0.884-0.348c0.139-0.231,0.208-0.642,0.208-1.228
			c0-0.587-0.077-0.991-0.232-1.212c-0.154-0.222-0.441-0.332-0.859-0.332c-0.419,0-0.707,0.11-0.864,0.332
			C82.07,142.593,81.991,142.996,81.991,143.58z"/>
		<path fill="#4D4D4D" d="M86.375,145.6h-0.6v-5.744h0.6v3.393l0.624-0.032l1.145-1.616h0.68l-1.304,1.84l1.359,2.16h-0.68
			l-1.192-1.856l-0.632,0.024V145.6z"/>
		<path fill="#4D4D4D" d="M92.224,145.104l0.232-0.023l0.016,0.472c-0.608,0.085-1.128,0.128-1.56,0.128
			c-0.576,0-0.984-0.167-1.225-0.5s-0.359-0.853-0.359-1.556c0-1.403,0.557-2.104,1.672-2.104c0.538,0,0.941,0.15,1.208,0.452
			s0.399,0.774,0.399,1.42l-0.031,0.456h-2.641c0,0.442,0.08,0.771,0.24,0.984c0.16,0.213,0.438,0.319,0.836,0.319
			S91.812,145.136,92.224,145.104z M92.008,143.367c0-0.49-0.079-0.837-0.236-1.04c-0.157-0.202-0.413-0.304-0.768-0.304
			s-0.621,0.106-0.8,0.32c-0.179,0.213-0.271,0.555-0.276,1.023H92.008z"/>
		<path fill="#4D4D4D" d="M93.544,145.6v-4h0.592v0.544c0.464-0.32,0.952-0.53,1.464-0.632v0.607c-0.224,0.043-0.457,0.109-0.7,0.2
			c-0.242,0.091-0.428,0.171-0.556,0.24l-0.2,0.104v2.936H93.544z"/>
	</g>
</g>
<g>
	<g>
		<path fill="#4D4D4D" d="M53.692,6l1.52-5.536h1.344L58.076,6h-0.608l-0.399-1.424H54.7L54.3,6H53.692z M55.676,0.992l-0.84,3.032
			h2.096l-0.84-3.032H55.676z"/>
		<path fill="#4D4D4D" d="M59.443,6h-0.6V0.256h0.6v3.393l0.624-0.032L61.212,2h0.68l-1.304,1.84L61.947,6h-0.68l-1.192-1.856
			l-0.632,0.024V6z"/>
		<path fill="#4D4D4D" d="M64.748,2.52h-1.272v1.912c0,0.459,0.033,0.761,0.1,0.904c0.067,0.145,0.226,0.216,0.477,0.216
			l0.712-0.048L64.804,6c-0.357,0.059-0.63,0.088-0.816,0.088c-0.416,0-0.704-0.102-0.863-0.304c-0.16-0.203-0.24-0.59-0.24-1.16
			V2.52h-0.568V2h0.568V0.776h0.592V2h1.272V2.52z"/>
		<path fill="#4D4D4D" d="M65.484,1.096V0.4h0.6v0.695H65.484z M65.484,6V2h0.6v4H65.484z"/>
		<path fill="#4D4D4D" d="M69.956,5.504l0.232-0.023l0.016,0.472c-0.608,0.085-1.128,0.128-1.56,0.128
			c-0.576,0-0.984-0.167-1.225-0.5s-0.359-0.853-0.359-1.556c0-1.403,0.557-2.104,1.672-2.104c0.538,0,0.941,0.15,1.208,0.452
			s0.399,0.774,0.399,1.42l-0.031,0.456h-2.641c0,0.442,0.08,0.771,0.24,0.984c0.16,0.213,0.438,0.319,0.836,0.319
			S69.545,5.536,69.956,5.504z M69.74,3.768c0-0.49-0.079-0.837-0.236-1.04c-0.157-0.202-0.413-0.304-0.768-0.304
			s-0.621,0.106-0.8,0.32c-0.179,0.213-0.271,0.555-0.276,1.023H69.74z"/>
	</g>
</g>
<g>
	<g>
		<path fill="#4D4D4D" d="M107.111,47.405H52.543V11.651h54.568V47.405z M53.751,46.197h52.152V12.858H53.751V46.197z"/>
	</g>
	<g>
		<path fill="#4D4D4D" d="M101.301,41.587H58.301v-24.13h42.999V41.587z M59.509,40.379h40.584V18.665H59.509V40.379z"/>
	</g>
	<g>
		<rect x="59.111" y="30.248" fill="#4D4D4D" width="14.427" height="1.208"/>
	</g>
	<g>
		<rect x="59.111" y="32.641" fill="#4D4D4D" width="14.427" height="1.208"/>
	</g>
	<g>
		<rect x="59.111" y="35.034" fill="#4D4D4D" width="14.427" height="1.208"/>
	</g>
	<circle fill="#4D4D4D" cx="100.697" cy="17.855" r="1.916"/>
	<circle fill="#4D4D4D" cx="100.697" cy="40.983" r="1.916"/>
	<circle fill="#4D4D4D" cx="58.905" cy="17.855" r="1.916"/>
	<circle fill="#4D4D4D" cx="58.905" cy="40.983" r="1.916"/>
	<g>
		<path fill="#4D4D4D" d="M90.1,23.728c-2.527,0-4.103,1.294-4.728,3.882h6.059v1.243h-6.225l-0.024,0.549v0.617l0.024,0.433h5.501
			v1.243h-5.311c0.293,1.156,0.842,2.05,1.645,2.683c0.804,0.633,1.879,0.949,3.226,0.949c1.236,0,2.459-0.212,3.671-0.636v1.445
			c-1.157,0.418-2.412,0.626-3.766,0.626c-1.877,0-3.388-0.432-4.532-1.296c-1.145-0.864-1.899-2.121-2.263-3.771h-1.972v-1.243
			h1.806l-0.024-0.404v-0.424l0.024-0.771h-1.806V27.61h1.948c0.309-1.676,1.041-2.983,2.198-3.921
			c1.156-0.937,2.673-1.406,4.55-1.406c1.592,0,3.042,0.312,4.348,0.934l-0.844,1.339C92.29,24.004,91.122,23.728,90.1,23.728z"/>
	</g>
</g>
<g>
	<polyline fill="none" stroke="#4D4D4D" stroke-miterlimit="10" points="43.5,27.25 7,27.25 7,66.167 	"/>
	<polygon fill="#4D4D4D" points="6.875,72.038 12.158,62.887 1.592,62.887 	"/>
</g>
<g>
	<line fill="none" stroke="#4D4D4D" stroke-miterlimit="10" x1="39.46" y1="104.331" x2="26.419" y2="104.331"/>
	<polygon fill="#4D4D4D" points="45.331,104.456 36.181,99.173 36.181,109.74 	"/>
</g>
<g>
	<line fill="none" stroke="#4D4D4D" stroke-miterlimit="10" x1="125.085" y1="104.331" x2="112.044" y2="104.331"/>
	<polygon fill="#4D4D4D" points="130.956,104.456 121.806,99.173 121.806,109.74 	"/>
</g>
<g>
	<polyline fill="none" stroke="#4D4D4D" stroke-miterlimit="10" points="115.258,27.25 151.758,27.25 151.758,66.167 	"/>
	<polygon fill="#4D4D4D" points="151.883,72.038 146.6,62.887 157.167,62.887 	"/>
</g>
<g>
	<g>
		<path fill="#4D4D4D" stroke="#4D4D4D" stroke-width="0.25" stroke-miterlimit="10" d="M79.659,99.193H65.803v4.121h13.856V99.193z
			 M78.593,102.248H66.869v-1.989h11.724V102.248z"/>
		<path fill="#4D4D4D" stroke="#4D4D4D" stroke-width="0.25" stroke-miterlimit="10" d="M79.701,103.355H65.762v-4.204h13.939
			V103.355z M65.845,103.272h13.773v-4.038H65.845V103.272z M78.635,102.29H66.828v-2.072h11.807V102.29z M66.911,102.207h11.641
			V100.3H66.911V102.207z"/>
	</g>
	<path fill="#4D4D4D" stroke="#4D4D4D" stroke-width="0.25" stroke-miterlimit="10" d="M64.927,82.342H64.91L52.808,94.391h-0.027
		v25.426h39.842l0.019,0.017l12.104-12.126l0.012-0.012V83.146l0.002-0.813L64.927,82.342z M54.486,94.391l10.087-10.087v10.087
		H54.486z M103.61,84.295v22.925l-10.929,10.929V95.223L103.61,84.295z M65.722,94.391v-10.9l37.075-0.008L91.889,94.391H65.722z
		 M53.93,118.668V95.539h37.602v23.128H53.93z"/>
</g>
</svg>
