<?xml version="1.0" encoding="utf-8"?>
<!-- Generator: Adobe Illustrator 21.1.0, SVG Export Plug-In . SVG Version: 6.00 Build 0)  -->
<svg version="1.1" id="Ebene_1" xmlns="http://www.w3.org/2000/svg" xmlns:xlink="http://www.w3.org/1999/xlink" x="0px" y="0px"
	 viewBox="0 0 200 200" enable-background="new 0 0 200 200" xml:space="preserve">
<rect x="0.333" y="0.333" fill="#FFFFFF" width="200" height="200.667"/>
<g>
	<g>
		<path fill="#4D4D4D" d="M4.957,37.974H2.98v-5.536h1.977c0.901,0,1.498,0.357,1.792,1.072c0.17,0.41,0.256,0.949,0.256,1.616
			c0,1.392-0.347,2.269-1.04,2.632C5.688,37.901,5.352,37.974,4.957,37.974z M6.373,35.126c0-1.062-0.237-1.723-0.712-1.984
			c-0.192-0.106-0.427-0.16-0.704-0.16h-1.36v4.448h1.36C5.9,37.43,6.373,36.662,6.373,35.126z"/>
		<path fill="#4D4D4D" d="M7.678,32.438h0.64l0.944,4.992h0.231l1.128-4.944h0.721l1.128,4.944h0.231l0.944-4.992h0.632l-1.12,5.536
			h-1.128l-1.048-4.728l-1.048,4.728H8.806L7.678,32.438z"/>
		<path fill="#4D4D4D" d="M16.733,32.894c-0.8,0-1.2,0.302-1.2,0.904c0,0.336,0.092,0.566,0.276,0.691
			c0.184,0.126,0.557,0.251,1.12,0.376c0.562,0.126,0.961,0.288,1.195,0.488c0.235,0.2,0.353,0.529,0.353,0.988
			c0,1.136-0.59,1.704-1.769,1.704c-0.389,0-0.877-0.046-1.464-0.137l-0.288-0.039l0.064-0.513c0.726,0.097,1.277,0.145,1.656,0.145
			c0.789,0,1.184-0.371,1.184-1.112c0-0.299-0.087-0.514-0.26-0.644c-0.174-0.131-0.497-0.242-0.973-0.332
			c-0.623-0.134-1.066-0.306-1.327-0.517c-0.262-0.211-0.393-0.563-0.393-1.06c0-0.992,0.595-1.488,1.784-1.488
			c0.39,0,0.856,0.04,1.4,0.12l0.271,0.04l-0.056,0.52C17.568,32.939,17.043,32.894,16.733,32.894z"/>
		<path fill="#4D4D4D" d="M20.877,37.894l2.256-5.584l0.536,0.2l-2.256,5.576L20.877,37.894z"/>
		<path fill="#4D4D4D" d="M28.332,37.974h-1.977v-5.536h1.977c0.901,0,1.498,0.357,1.792,1.072c0.17,0.41,0.256,0.949,0.256,1.616
			c0,1.392-0.347,2.269-1.04,2.632C29.062,37.901,28.727,37.974,28.332,37.974z M29.748,35.126c0-1.062-0.237-1.723-0.712-1.984
			c-0.192-0.106-0.427-0.16-0.704-0.16h-1.36v4.448h1.36C29.275,37.43,29.748,36.662,29.748,35.126z"/>
		<path fill="#4D4D4D" d="M34.132,37.478l0.232-0.023l0.016,0.472c-0.608,0.085-1.128,0.128-1.56,0.128
			c-0.576,0-0.984-0.167-1.225-0.5s-0.359-0.853-0.359-1.556c0-1.403,0.557-2.104,1.672-2.104c0.538,0,0.941,0.15,1.208,0.452
			s0.399,0.774,0.399,1.42l-0.031,0.456h-2.641c0,0.442,0.08,0.771,0.24,0.984c0.16,0.213,0.438,0.319,0.836,0.319
			S33.721,37.51,34.132,37.478z M33.916,35.741c0-0.49-0.079-0.837-0.236-1.04c-0.157-0.202-0.413-0.304-0.768-0.304
			s-0.621,0.106-0.8,0.32c-0.179,0.213-0.271,0.555-0.276,1.023H33.916z"/>
		<path fill="#4D4D4D" d="M35.069,37.974l1.52-5.536h1.344l1.521,5.536h-0.608l-0.399-1.424h-2.368l-0.4,1.424H35.069z
			 M37.053,32.966l-0.84,3.032h2.096l-0.84-3.032H37.053z"/>
		<path fill="#4D4D4D" d="M39.708,32.438h0.64l0.944,4.992h0.231l1.128-4.944h0.721L44.5,37.43h0.231l0.944-4.992h0.632l-1.12,5.536
			H44.06l-1.048-4.728l-1.048,4.728h-1.128L39.708,32.438z"/>
		<path fill="#4D4D4D" d="M47.235,37.974v-5.536h1.112l1.568,4.68l1.567-4.68h1.112v5.536h-0.616v-4.88h-0.112l-1.607,4.68h-0.688
			l-1.607-4.68h-0.112v4.88H47.235z"/>
		<path fill="#4D4D4D" d="M57.907,35.693v-0.552h1.528v2.72c-0.673,0.128-1.272,0.192-1.801,0.192c-0.805,0-1.363-0.232-1.676-0.696
			c-0.312-0.464-0.468-1.18-0.468-2.147c0-0.969,0.156-1.686,0.468-2.152c0.312-0.467,0.865-0.7,1.66-0.7
			c0.496,0,1.011,0.054,1.544,0.16l0.272,0.048l-0.024,0.512c-0.661-0.111-1.234-0.168-1.72-0.168c-0.613,0-1.027,0.178-1.24,0.532
			c-0.214,0.354-0.32,0.944-0.32,1.769c0,0.823,0.106,1.413,0.32,1.768c0.213,0.354,0.624,0.532,1.232,0.532
			c0.373,0,0.754-0.037,1.144-0.112v-1.704H57.907z"/>
		<path fill="#4D4D4D" d="M60.539,37.974v-4h0.592v0.544c0.464-0.32,0.952-0.53,1.464-0.632v0.607c-0.224,0.043-0.457,0.109-0.7,0.2
			c-0.242,0.091-0.428,0.171-0.556,0.24l-0.2,0.104v2.936H60.539z"/>
		<path fill="#4D4D4D" d="M65.803,33.974h0.6v4h-0.6v-0.28c-0.4,0.24-0.795,0.36-1.185,0.36c-0.544,0-0.905-0.142-1.084-0.424
			c-0.179-0.283-0.268-0.806-0.268-1.568v-2.088h0.6v2.08c0,0.581,0.051,0.971,0.152,1.168s0.33,0.296,0.688,0.296
			c0.177,0,0.355-0.025,0.536-0.076c0.182-0.051,0.32-0.1,0.416-0.147l0.145-0.072V33.974z"/>
		<path fill="#4D4D4D" d="M67.555,39.75v-5.776h0.592v0.288c0.405-0.245,0.806-0.368,1.2-0.368c0.507,0,0.874,0.161,1.104,0.484
			c0.229,0.322,0.345,0.854,0.345,1.596s-0.135,1.273-0.404,1.596c-0.27,0.323-0.716,0.484-1.34,0.484
			c-0.325,0-0.624-0.029-0.896-0.088v1.784H67.555z M69.259,34.43c-0.16,0-0.332,0.026-0.517,0.08
			c-0.184,0.054-0.329,0.106-0.436,0.16l-0.152,0.08v2.695c0.379,0.059,0.667,0.088,0.864,0.088c0.432,0,0.734-0.122,0.908-0.367
			c0.173-0.246,0.26-0.646,0.26-1.2s-0.079-0.949-0.236-1.185C69.793,34.547,69.562,34.43,69.259,34.43z"/>
		<path fill="#4D4D4D" d="M71.771,39.75v-5.776h0.592v0.288c0.405-0.245,0.806-0.368,1.2-0.368c0.507,0,0.874,0.161,1.104,0.484
			c0.229,0.322,0.345,0.854,0.345,1.596s-0.135,1.273-0.404,1.596c-0.27,0.323-0.716,0.484-1.34,0.484
			c-0.325,0-0.624-0.029-0.896-0.088v1.784H71.771z M73.475,34.43c-0.16,0-0.332,0.026-0.517,0.08
			c-0.184,0.054-0.329,0.106-0.436,0.16l-0.152,0.08v2.695c0.379,0.059,0.667,0.088,0.864,0.088c0.432,0,0.734-0.122,0.908-0.367
			c0.173-0.246,0.26-0.646,0.26-1.2s-0.079-0.949-0.236-1.185C74.009,34.547,73.778,34.43,73.475,34.43z"/>
		<path fill="#4D4D4D" d="M78.706,37.478l0.232-0.023l0.016,0.472c-0.608,0.085-1.128,0.128-1.56,0.128
			c-0.576,0-0.984-0.167-1.225-0.5s-0.359-0.853-0.359-1.556c0-1.403,0.557-2.104,1.672-2.104c0.538,0,0.941,0.15,1.208,0.452
			s0.399,0.774,0.399,1.42l-0.031,0.456h-2.641c0,0.442,0.08,0.771,0.24,0.984c0.16,0.213,0.438,0.319,0.836,0.319
			S78.295,37.51,78.706,37.478z M78.49,35.741c0-0.49-0.079-0.837-0.236-1.04c-0.157-0.202-0.413-0.304-0.768-0.304
			s-0.621,0.106-0.8,0.32c-0.179,0.213-0.271,0.555-0.276,1.023H78.49z"/>
		<path fill="#4D4D4D" d="M113.387,37.974h-3.376v-0.52l1.544-1.624c0.267-0.277,0.462-0.488,0.584-0.633
			c0.123-0.144,0.233-0.314,0.332-0.512s0.148-0.395,0.148-0.592c0-0.342-0.094-0.581-0.28-0.72s-0.478-0.208-0.872-0.208
			c-0.347,0-0.733,0.045-1.16,0.136l-0.208,0.04l-0.048-0.512c0.507-0.145,1.029-0.217,1.568-0.217c0.538,0,0.945,0.113,1.22,0.341
			c0.274,0.227,0.412,0.585,0.412,1.075c0,0.374-0.083,0.699-0.248,0.977s-0.451,0.61-0.855,1l-1.408,1.432h2.647V37.974z"/>
		<path fill="#4D4D4D" d="M117.052,32.693v5.28h-0.616v-4.592l-1.36,0.896l-0.279-0.464l1.68-1.12H117.052z"/>
		<path fill="#4D4D4D" d="M119.036,33.254v-0.561h3.28v0.809l-2.032,4.552L119.7,37.87l1.992-4.408v-0.208H119.036z"/>
		<path fill="#4D4D4D" d="M123.173,38.958l0.367-1.841h0.664l-0.536,1.841H123.173z"/>
		<path fill="#4D4D4D" d="M125.528,32.954c0.334-0.232,0.794-0.349,1.38-0.349c0.587,0,1.053,0.116,1.396,0.349
			c0.344,0.231,0.516,0.574,0.516,1.027c0,0.331-0.066,0.583-0.2,0.756c-0.133,0.174-0.359,0.332-0.68,0.477
			c0.32,0.144,0.561,0.313,0.72,0.508c0.16,0.194,0.24,0.468,0.24,0.82c0,1.008-0.66,1.512-1.979,1.512
			c-1.32,0-1.98-0.475-1.98-1.424c0-0.379,0.073-0.667,0.22-0.864c0.147-0.197,0.378-0.381,0.692-0.552
			c-0.288-0.145-0.497-0.309-0.628-0.492s-0.196-0.434-0.196-0.748C125.028,33.525,125.195,33.186,125.528,32.954z M125.597,36.525
			c0,0.646,0.441,0.968,1.324,0.968c0.882,0,1.323-0.338,1.323-1.016c0-0.282-0.078-0.492-0.235-0.628s-0.391-0.249-0.7-0.34h-0.84
			c-0.294,0.08-0.512,0.198-0.656,0.355C125.669,36.023,125.597,36.243,125.597,36.525z M128.165,34.054
			c0-0.592-0.414-0.888-1.24-0.888c-0.827,0-1.24,0.293-1.24,0.88c0,0.234,0.064,0.424,0.192,0.567
			c0.128,0.145,0.325,0.265,0.592,0.36h0.84c0.288-0.091,0.503-0.208,0.644-0.352C128.094,34.478,128.165,34.288,128.165,34.054z"/>
		<path fill="#4D4D4D" d="M131.604,37.974v-5.536h1.112l1.568,4.68l1.567-4.68h1.112v5.536h-0.616v-4.88h-0.112l-1.607,4.68h-0.688
			l-1.607-4.68h-0.112v4.88H131.604z"/>
		<path fill="#4D4D4D" d="M138.22,37.974v-4h0.592v0.544c0.464-0.32,0.952-0.53,1.464-0.632v0.607c-0.224,0.043-0.457,0.109-0.7,0.2
			c-0.242,0.091-0.428,0.171-0.556,0.24l-0.2,0.104v2.936H138.22z"/>
		<path fill="#4D4D4D" d="M143.956,32.229v5.744h-0.593v-0.272c-0.41,0.235-0.815,0.353-1.216,0.353c-0.213,0-0.399-0.026-0.56-0.08
			s-0.31-0.149-0.448-0.288c-0.288-0.288-0.432-0.82-0.432-1.596c0-0.776,0.129-1.336,0.388-1.681
			c0.259-0.344,0.687-0.516,1.284-0.516c0.309,0,0.637,0.035,0.983,0.104v-1.769H143.956z M141.876,37.462
			c0.096,0.037,0.22,0.056,0.372,0.056c0.151,0,0.322-0.025,0.512-0.076s0.337-0.1,0.444-0.147l0.159-0.072V34.51
			c-0.341-0.064-0.658-0.096-0.952-0.096c-0.405,0-0.688,0.129-0.848,0.388s-0.24,0.66-0.24,1.204c0,0.618,0.094,1.034,0.28,1.248
			C141.688,37.355,141.779,37.425,141.876,37.462z"/>
		<path fill="#4D4D4D" d="M146.539,34.949v-0.487h0.512c0.064-0.635,0.238-1.102,0.524-1.4c0.285-0.299,0.742-0.448,1.372-0.448
			c0.447,0,0.933,0.057,1.455,0.168l-0.023,0.496c-0.485-0.091-0.947-0.136-1.384-0.136c-0.438,0-0.756,0.104-0.956,0.312
			s-0.324,0.544-0.372,1.008h2.288v0.487h-2.32c-0.005,0.086-0.008,0.219-0.008,0.4v0.36h2.328v0.487h-2.296
			c0.048,0.465,0.172,0.802,0.372,1.013c0.199,0.21,0.521,0.315,0.964,0.315c0.442,0,0.903-0.048,1.384-0.144l0.023,0.504
			c-0.527,0.112-1.013,0.168-1.455,0.168c-0.63,0-1.087-0.152-1.372-0.456c-0.286-0.304-0.463-0.771-0.532-1.4h-0.504V35.71h0.479
			c-0.005-0.075-0.008-0.199-0.008-0.372c0-0.174,0.003-0.303,0.008-0.389H146.539z"/>
	</g>
</g>
<g>
	<g>
		<path fill="#4D4D4D" d="M2.41,62.974l1.52-5.536h1.344l1.521,5.536H6.186L5.786,61.55H3.418l-0.4,1.424H2.41z M4.394,57.966
			l-0.84,3.032h2.096l-0.84-3.032H4.394z"/>
		<path fill="#4D4D4D" d="M7.609,62.974v-5.744h0.6v5.744H7.609z"/>
		<path fill="#4D4D4D" d="M9.458,62.974v-5.744h0.6v5.744H9.458z"/>
		<path fill="#4D4D4D" d="M11.258,58.069v-0.695h0.6v0.695H11.258z M11.258,62.974v-4h0.6v4H11.258z"/>
		<path fill="#4D4D4D" d="M15.834,60.182v2.048c0.016,0.197,0.17,0.314,0.464,0.353l-0.024,0.472c-0.421,0-0.738-0.106-0.952-0.32
			c-0.479,0.214-0.96,0.32-1.439,0.32c-0.368,0-0.648-0.104-0.84-0.312c-0.192-0.208-0.288-0.506-0.288-0.896
			s0.099-0.676,0.296-0.86c0.197-0.184,0.507-0.297,0.928-0.34l1.256-0.12v-0.344c0-0.272-0.059-0.467-0.176-0.584
			s-0.277-0.176-0.48-0.176c-0.427,0-0.869,0.026-1.327,0.08l-0.248,0.023l-0.024-0.456c0.587-0.117,1.106-0.176,1.56-0.176
			c0.454,0,0.783,0.104,0.988,0.312S15.834,59.739,15.834,60.182z M13.369,61.813c0,0.491,0.203,0.736,0.608,0.736
			c0.362,0,0.72-0.062,1.072-0.185l0.184-0.063v-1.32l-1.184,0.112c-0.24,0.021-0.414,0.091-0.521,0.208S13.369,61.59,13.369,61.813
			z"/>
		<path fill="#4D4D4D" d="M17.617,62.974h-0.6v-4h0.592v0.28c0.432-0.24,0.846-0.36,1.24-0.36c0.533,0,0.892,0.145,1.076,0.432
			c0.184,0.288,0.275,0.801,0.275,1.536v2.112h-0.592v-2.096c0-0.555-0.055-0.935-0.164-1.141c-0.109-0.205-0.343-0.308-0.7-0.308
			c-0.171,0-0.351,0.025-0.54,0.076s-0.334,0.1-0.436,0.147l-0.152,0.072V62.974z"/>
		<path fill="#4D4D4D" d="M21.073,59.51v-0.536h2.968v0.536l-2.239,2.928h2.239v0.536h-2.968v-0.536l2.24-2.928H21.073z"/>
		<path fill="#4D4D4D" d="M26.329,62.974l1.52-5.536h1.344l1.521,5.536h-0.608l-0.399-1.424h-2.368l-0.4,1.424H26.329z
			 M28.312,57.966l-0.84,3.032h2.096l-0.84-3.032H28.312z"/>
		<path fill="#4D4D4D" d="M32.737,59.43c-0.581,0-0.872,0.203-0.872,0.608c0,0.187,0.066,0.318,0.2,0.396
			c0.133,0.077,0.438,0.157,0.912,0.24s0.811,0.198,1.008,0.348s0.296,0.43,0.296,0.84c0,0.411-0.132,0.712-0.396,0.904
			c-0.265,0.192-0.649,0.288-1.156,0.288c-0.331,0-0.721-0.037-1.168-0.112l-0.24-0.04l0.032-0.52
			c0.607,0.091,1.066,0.136,1.376,0.136c0.309,0,0.545-0.049,0.708-0.147c0.162-0.099,0.244-0.265,0.244-0.496
			c0-0.232-0.069-0.39-0.208-0.473c-0.139-0.082-0.443-0.161-0.912-0.235c-0.47-0.075-0.803-0.185-1-0.328
			c-0.197-0.145-0.296-0.411-0.296-0.8c0-0.39,0.137-0.678,0.412-0.864c0.274-0.187,0.617-0.28,1.027-0.28
			c0.325,0,0.733,0.037,1.225,0.112l0.224,0.04l-0.016,0.512C33.545,59.473,33.078,59.43,32.737,59.43z"/>
		<path fill="#4D4D4D" d="M36.457,59.43c-0.581,0-0.872,0.203-0.872,0.608c0,0.187,0.066,0.318,0.2,0.396
			c0.133,0.077,0.438,0.157,0.912,0.24s0.811,0.198,1.008,0.348s0.296,0.43,0.296,0.84c0,0.411-0.132,0.712-0.396,0.904
			c-0.265,0.192-0.649,0.288-1.156,0.288c-0.331,0-0.721-0.037-1.168-0.112l-0.24-0.04l0.032-0.52
			c0.607,0.091,1.066,0.136,1.376,0.136c0.309,0,0.545-0.049,0.708-0.147c0.162-0.099,0.244-0.265,0.244-0.496
			c0-0.232-0.069-0.39-0.208-0.473c-0.139-0.082-0.443-0.161-0.912-0.235c-0.47-0.075-0.803-0.185-1-0.328
			c-0.197-0.145-0.296-0.411-0.296-0.8c0-0.39,0.137-0.678,0.412-0.864c0.274-0.187,0.617-0.28,1.027-0.28
			c0.325,0,0.733,0.037,1.225,0.112l0.224,0.04l-0.016,0.512C37.265,59.473,36.798,59.43,36.457,59.43z"/>
		<path fill="#4D4D4D" d="M41.641,62.478l0.232-0.023l0.016,0.472c-0.608,0.085-1.128,0.128-1.56,0.128
			c-0.576,0-0.984-0.167-1.225-0.5s-0.359-0.853-0.359-1.556c0-1.403,0.557-2.104,1.672-2.104c0.538,0,0.941,0.15,1.208,0.452
			s0.399,0.774,0.399,1.42l-0.031,0.456h-2.641c0,0.442,0.08,0.771,0.24,0.984c0.16,0.213,0.438,0.319,0.836,0.319
			S41.229,62.51,41.641,62.478z M41.425,60.741c0-0.49-0.079-0.837-0.236-1.04c-0.157-0.202-0.413-0.304-0.768-0.304
			s-0.621,0.106-0.8,0.32c-0.179,0.213-0.271,0.555-0.276,1.023H41.425z"/>
		<path fill="#4D4D4D" d="M45.01,59.493h-1.272v1.912c0,0.459,0.033,0.761,0.1,0.904c0.067,0.145,0.226,0.216,0.477,0.216
			l0.712-0.048l0.04,0.496c-0.357,0.059-0.63,0.088-0.816,0.088c-0.416,0-0.704-0.102-0.863-0.304c-0.16-0.203-0.24-0.59-0.24-1.16
			v-2.104h-0.568v-0.52h0.568V57.75h0.592v1.224h1.272V59.493z"/>
		<path fill="#4D4D4D" d="M2.897,72.573v-5.536H4.01l1.568,4.68l1.567-4.68h1.112v5.536H7.642v-4.88H7.529l-1.607,4.68H5.233
			l-1.607-4.68H3.514v4.88H2.897z"/>
		<path fill="#4D4D4D" d="M12.338,69.781v2.048c0.016,0.197,0.17,0.314,0.464,0.353l-0.024,0.472c-0.421,0-0.738-0.106-0.952-0.32
			c-0.479,0.214-0.96,0.32-1.439,0.32c-0.368,0-0.648-0.104-0.84-0.312c-0.192-0.208-0.288-0.506-0.288-0.896
			s0.099-0.676,0.296-0.86c0.197-0.184,0.507-0.297,0.928-0.34l1.256-0.12v-0.344c0-0.272-0.059-0.467-0.176-0.584
			s-0.277-0.176-0.48-0.176c-0.427,0-0.869,0.026-1.327,0.08l-0.248,0.023l-0.024-0.456c0.587-0.117,1.106-0.176,1.56-0.176
			c0.454,0,0.783,0.104,0.988,0.312S12.338,69.339,12.338,69.781z M9.873,71.413c0,0.491,0.203,0.736,0.608,0.736
			c0.362,0,0.72-0.062,1.072-0.185l0.184-0.063v-1.32l-1.184,0.112c-0.24,0.021-0.414,0.091-0.521,0.208S9.873,71.189,9.873,71.413z
			"/>
		<path fill="#4D4D4D" d="M14.121,72.573h-0.6v-4h0.592v0.28c0.432-0.24,0.846-0.36,1.24-0.36c0.533,0,0.892,0.145,1.076,0.432
			c0.184,0.288,0.275,0.801,0.275,1.536v2.112h-0.592v-2.096c0-0.555-0.055-0.935-0.164-1.141c-0.109-0.205-0.343-0.308-0.7-0.308
			c-0.171,0-0.351,0.025-0.54,0.076s-0.334,0.1-0.436,0.147l-0.152,0.072V72.573z"/>
		<path fill="#4D4D4D" d="M20.642,69.781v2.048c0.016,0.197,0.17,0.314,0.464,0.353l-0.024,0.472c-0.421,0-0.738-0.106-0.952-0.32
			c-0.479,0.214-0.96,0.32-1.439,0.32c-0.368,0-0.648-0.104-0.84-0.312c-0.192-0.208-0.288-0.506-0.288-0.896
			s0.099-0.676,0.296-0.86c0.197-0.184,0.507-0.297,0.928-0.34l1.256-0.12v-0.344c0-0.272-0.059-0.467-0.176-0.584
			s-0.277-0.176-0.48-0.176c-0.427,0-0.869,0.026-1.327,0.08l-0.248,0.023l-0.024-0.456c0.587-0.117,1.106-0.176,1.56-0.176
			c0.454,0,0.783,0.104,0.988,0.312S20.642,69.339,20.642,69.781z M18.177,71.413c0,0.491,0.203,0.736,0.608,0.736
			c0.362,0,0.72-0.062,1.072-0.185l0.184-0.063v-1.32l-1.184,0.112c-0.24,0.021-0.414,0.091-0.521,0.208
			S18.177,71.189,18.177,71.413z"/>
		<path fill="#4D4D4D" d="M23.369,74.453c-0.64,0-1.087-0.087-1.34-0.26c-0.254-0.174-0.38-0.489-0.38-0.948
			c0-0.219,0.048-0.396,0.144-0.532c0.096-0.136,0.259-0.289,0.488-0.46c-0.149-0.101-0.225-0.285-0.225-0.552
			c0-0.091,0.067-0.259,0.2-0.504l0.072-0.128c-0.422-0.192-0.632-0.595-0.632-1.208c0-0.912,0.498-1.368,1.496-1.368
			c0.256,0,0.493,0.026,0.712,0.08l0.12,0.024l1.184-0.032v0.512l-0.76-0.016c0.176,0.176,0.264,0.442,0.264,0.8
			c0,0.501-0.124,0.852-0.372,1.052s-0.639,0.3-1.172,0.3c-0.144,0-0.274-0.011-0.392-0.031c-0.097,0.234-0.145,0.387-0.145,0.456
			c0,0.165,0.051,0.268,0.152,0.308s0.408,0.06,0.92,0.06s0.88,0.08,1.104,0.24c0.225,0.16,0.337,0.472,0.337,0.937
			C25.146,74.029,24.553,74.453,23.369,74.453z M22.241,73.197c0,0.282,0.078,0.479,0.235,0.588s0.448,0.164,0.872,0.164
			c0.425,0,0.729-0.059,0.912-0.176c0.185-0.117,0.276-0.313,0.276-0.588c0-0.275-0.066-0.452-0.2-0.532
			c-0.133-0.08-0.395-0.12-0.784-0.12l-0.863-0.04c-0.177,0.128-0.295,0.24-0.356,0.336S22.241,73.048,22.241,73.197z
			 M22.297,69.861c0,0.314,0.07,0.539,0.212,0.672c0.142,0.134,0.375,0.2,0.7,0.2s0.558-0.066,0.696-0.2
			c0.139-0.133,0.208-0.358,0.208-0.676s-0.069-0.543-0.208-0.676c-0.139-0.134-0.371-0.2-0.696-0.2s-0.559,0.067-0.7,0.204
			C22.367,69.321,22.297,69.547,22.297,69.861z"/>
		<path fill="#4D4D4D" d="M28.657,72.077l0.232-0.023l0.016,0.472c-0.608,0.085-1.128,0.128-1.56,0.128
			c-0.576,0-0.984-0.167-1.225-0.5s-0.359-0.853-0.359-1.556c0-1.403,0.557-2.104,1.672-2.104c0.538,0,0.941,0.15,1.208,0.452
			s0.399,0.774,0.399,1.42l-0.031,0.456h-2.641c0,0.442,0.08,0.771,0.24,0.984c0.16,0.213,0.438,0.319,0.836,0.319
			S28.246,72.109,28.657,72.077z M28.441,70.341c0-0.49-0.079-0.837-0.236-1.04c-0.157-0.202-0.413-0.304-0.768-0.304
			s-0.621,0.106-0.8,0.32c-0.179,0.213-0.271,0.555-0.276,1.023H28.441z"/>
		<path fill="#4D4D4D" d="M30.577,72.573h-0.6v-4h0.592v0.28c0.4-0.24,0.789-0.36,1.168-0.36c0.496,0,0.843,0.136,1.04,0.408
			c0.176-0.106,0.404-0.201,0.684-0.284c0.28-0.083,0.527-0.124,0.74-0.124c0.533,0,0.893,0.143,1.076,0.428
			c0.184,0.286,0.276,0.799,0.276,1.54v2.112h-0.601v-2.096c0-0.555-0.053-0.935-0.16-1.141c-0.106-0.205-0.333-0.308-0.68-0.308
			c-0.176,0-0.357,0.025-0.544,0.076s-0.331,0.1-0.432,0.147l-0.152,0.072c0.069,0.176,0.104,0.565,0.104,1.168v2.08h-0.601v-2.064
			c0-0.575-0.052-0.966-0.156-1.172c-0.104-0.205-0.332-0.308-0.684-0.308c-0.171,0-0.346,0.025-0.524,0.076s-0.315,0.1-0.412,0.147
			l-0.136,0.072V72.573z"/>
		<path fill="#4D4D4D" d="M39.385,72.077l0.232-0.023l0.016,0.472c-0.608,0.085-1.128,0.128-1.56,0.128
			c-0.576,0-0.984-0.167-1.225-0.5s-0.359-0.853-0.359-1.556c0-1.403,0.557-2.104,1.672-2.104c0.538,0,0.941,0.15,1.208,0.452
			s0.399,0.774,0.399,1.42l-0.031,0.456h-2.641c0,0.442,0.08,0.771,0.24,0.984c0.16,0.213,0.438,0.319,0.836,0.319
			S38.974,72.109,39.385,72.077z M39.169,70.341c0-0.49-0.079-0.837-0.236-1.04c-0.157-0.202-0.413-0.304-0.768-0.304
			s-0.621,0.106-0.8,0.32c-0.179,0.213-0.271,0.555-0.276,1.023H39.169z"/>
		<path fill="#4D4D4D" d="M41.305,72.573h-0.6v-4h0.592v0.28c0.432-0.24,0.846-0.36,1.24-0.36c0.533,0,0.892,0.145,1.076,0.432
			c0.184,0.288,0.275,0.801,0.275,1.536v2.112h-0.592v-2.096c0-0.555-0.055-0.935-0.164-1.141c-0.109-0.205-0.343-0.308-0.7-0.308
			c-0.171,0-0.351,0.025-0.54,0.076s-0.334,0.1-0.436,0.147l-0.152,0.072V72.573z"/>
		<path fill="#4D4D4D" d="M47.05,69.093h-1.272v1.912c0,0.459,0.033,0.761,0.1,0.904c0.067,0.145,0.226,0.216,0.477,0.216
			l0.712-0.048l0.04,0.496c-0.357,0.059-0.63,0.088-0.816,0.088c-0.416,0-0.704-0.102-0.863-0.304c-0.16-0.203-0.24-0.59-0.24-1.16
			v-2.104h-0.568v-0.52h0.568V67.35h0.592v1.224h1.272V69.093z"/>
		<path fill="#4D4D4D" d="M51.84,70.293v-0.552h1.528v2.72c-0.673,0.128-1.272,0.192-1.801,0.192c-0.805,0-1.363-0.232-1.676-0.696
			c-0.312-0.464-0.468-1.18-0.468-2.147c0-0.969,0.156-1.686,0.468-2.152c0.312-0.467,0.865-0.7,1.66-0.7
			c0.496,0,1.011,0.054,1.544,0.16l0.272,0.048l-0.024,0.512c-0.661-0.111-1.234-0.168-1.72-0.168c-0.613,0-1.027,0.178-1.24,0.532
			c-0.214,0.354-0.32,0.944-0.32,1.769c0,0.823,0.106,1.413,0.32,1.768c0.213,0.354,0.624,0.532,1.232,0.532
			c0.373,0,0.754-0.037,1.144-0.112v-1.704H51.84z"/>
		<path fill="#4D4D4D" d="M54.472,72.573v-4h0.592v0.544c0.464-0.32,0.952-0.53,1.464-0.632v0.607c-0.224,0.043-0.457,0.109-0.7,0.2
			c-0.242,0.091-0.428,0.171-0.556,0.24l-0.2,0.104v2.936H54.472z"/>
		<path fill="#4D4D4D" d="M59.735,68.573h0.6v4h-0.6v-0.28c-0.4,0.24-0.795,0.36-1.185,0.36c-0.544,0-0.905-0.142-1.084-0.424
			c-0.179-0.283-0.268-0.806-0.268-1.568v-2.088h0.6v2.08c0,0.581,0.051,0.971,0.152,1.168s0.33,0.296,0.688,0.296
			c0.177,0,0.355-0.025,0.536-0.076c0.182-0.051,0.32-0.1,0.416-0.147l0.145-0.072V68.573z"/>
		<path fill="#4D4D4D" d="M61.487,74.35v-5.776h0.592v0.288c0.405-0.245,0.806-0.368,1.2-0.368c0.507,0,0.874,0.161,1.104,0.484
			c0.229,0.322,0.345,0.854,0.345,1.596s-0.135,1.273-0.404,1.596c-0.27,0.323-0.716,0.484-1.34,0.484
			c-0.325,0-0.624-0.029-0.896-0.088v1.784H61.487z M63.191,69.029c-0.16,0-0.332,0.026-0.517,0.08
			c-0.184,0.054-0.329,0.106-0.436,0.16l-0.152,0.08v2.695c0.379,0.059,0.667,0.088,0.864,0.088c0.432,0,0.734-0.122,0.908-0.367
			c0.173-0.246,0.26-0.646,0.26-1.2s-0.079-0.949-0.236-1.185C63.726,69.146,63.495,69.029,63.191,69.029z"/>
		<path fill="#4D4D4D" d="M65.704,74.35v-5.776h0.592v0.288c0.405-0.245,0.806-0.368,1.2-0.368c0.507,0,0.874,0.161,1.104,0.484
			c0.229,0.322,0.345,0.854,0.345,1.596s-0.135,1.273-0.404,1.596c-0.27,0.323-0.716,0.484-1.34,0.484
			c-0.325,0-0.624-0.029-0.896-0.088v1.784H65.704z M67.408,69.029c-0.16,0-0.332,0.026-0.517,0.08
			c-0.184,0.054-0.329,0.106-0.436,0.16l-0.152,0.08v2.695c0.379,0.059,0.667,0.088,0.864,0.088c0.432,0,0.734-0.122,0.908-0.367
			c0.173-0.246,0.26-0.646,0.26-1.2s-0.079-0.949-0.236-1.185C67.942,69.146,67.712,69.029,67.408,69.029z"/>
		<path fill="#4D4D4D" d="M72.639,72.077l0.232-0.023l0.016,0.472c-0.608,0.085-1.128,0.128-1.56,0.128
			c-0.576,0-0.984-0.167-1.225-0.5s-0.359-0.853-0.359-1.556c0-1.403,0.557-2.104,1.672-2.104c0.538,0,0.941,0.15,1.208,0.452
			s0.399,0.774,0.399,1.42l-0.031,0.456h-2.641c0,0.442,0.08,0.771,0.24,0.984c0.16,0.213,0.438,0.319,0.836,0.319
			S72.228,72.109,72.639,72.077z M72.423,70.341c0-0.49-0.079-0.837-0.236-1.04c-0.157-0.202-0.413-0.304-0.768-0.304
			s-0.621,0.106-0.8,0.32c-0.179,0.213-0.271,0.555-0.276,1.023H72.423z"/>
		<path fill="#4D4D4D" d="M112.488,67.293v5.28h-0.616v-4.592l-1.36,0.896l-0.279-0.464l1.68-1.12H112.488z"/>
		<path fill="#4D4D4D" d="M116.969,67.293v5.28h-0.616v-4.592l-1.36,0.896l-0.279-0.464l1.68-1.12H116.969z"/>
		<path fill="#4D4D4D" d="M122.193,67.854c-0.48-0.064-0.947-0.097-1.4-0.097s-0.803,0.158-1.048,0.473s-0.368,0.765-0.368,1.352
			l0.2-0.08c0.133-0.048,0.311-0.099,0.532-0.151c0.221-0.054,0.417-0.08,0.588-0.08c1.184,0,1.775,0.547,1.775,1.64
			c0,0.561-0.161,0.991-0.483,1.292c-0.323,0.302-0.777,0.452-1.364,0.452c-1.259,0-1.888-0.915-1.888-2.744
			c0-0.923,0.18-1.603,0.54-2.04c0.359-0.438,0.867-0.656,1.523-0.656c0.433,0,0.843,0.032,1.232,0.097l0.216,0.04L122.193,67.854z
			 M120.657,69.821c-0.182,0-0.38,0.025-0.597,0.076c-0.216,0.051-0.385,0.1-0.508,0.147l-0.184,0.08
			c0.005,0.608,0.107,1.091,0.308,1.448s0.506,0.536,0.916,0.536c0.411,0,0.72-0.103,0.928-0.309
			c0.208-0.205,0.312-0.495,0.312-0.871s-0.103-0.655-0.308-0.837C121.319,69.912,121.03,69.821,120.657,69.821z"/>
		<path fill="#4D4D4D" d="M123.09,73.558l0.367-1.841h0.664l-0.536,1.841H123.09z"/>
		<path fill="#4D4D4D" d="M126.576,72.109c0.966,0,1.451-0.613,1.456-1.84c-0.533,0.202-0.991,0.304-1.376,0.304
			c-1.151,0-1.728-0.536-1.728-1.608c0-0.538,0.165-0.965,0.496-1.279c0.33-0.314,0.775-0.473,1.336-0.473
			c0.646,0,1.125,0.239,1.439,0.717c0.315,0.477,0.473,1.179,0.473,2.104c0,0.926-0.178,1.594-0.532,2.004
			c-0.354,0.411-0.876,0.616-1.564,0.616c-0.399,0-0.812-0.037-1.239-0.112l-0.208-0.032l0.056-0.495
			C125.665,72.077,126.129,72.109,126.576,72.109z M126.704,70.029c0.326,0,0.702-0.072,1.129-0.216l0.208-0.072
			c-0.017-1.322-0.443-1.984-1.28-1.984c-0.373,0-0.666,0.108-0.876,0.324c-0.211,0.216-0.316,0.511-0.316,0.884
			C125.568,69.675,125.947,70.029,126.704,70.029z"/>
		<path fill="#4D4D4D" d="M131.521,72.573v-5.536h1.112l1.568,4.68l1.567-4.68h1.112v5.536h-0.616v-4.88h-0.112l-1.607,4.68h-0.688
			l-1.607-4.68h-0.112v4.88H131.521z"/>
		<path fill="#4D4D4D" d="M138.136,72.573v-4h0.592v0.544c0.464-0.32,0.952-0.53,1.464-0.632v0.607
			c-0.224,0.043-0.457,0.109-0.7,0.2c-0.242,0.091-0.428,0.171-0.556,0.24l-0.2,0.104v2.936H138.136z"/>
		<path fill="#4D4D4D" d="M143.872,66.829v5.744h-0.593v-0.272c-0.41,0.235-0.815,0.353-1.216,0.353c-0.213,0-0.399-0.026-0.56-0.08
			s-0.31-0.149-0.448-0.288c-0.288-0.288-0.432-0.82-0.432-1.596c0-0.776,0.129-1.336,0.388-1.681
			c0.259-0.344,0.687-0.516,1.284-0.516c0.309,0,0.637,0.035,0.983,0.104v-1.769H143.872z M141.792,72.062
			c0.096,0.037,0.22,0.056,0.372,0.056c0.151,0,0.322-0.025,0.512-0.076s0.337-0.1,0.444-0.147l0.159-0.072v-2.712
			c-0.341-0.064-0.658-0.096-0.952-0.096c-0.405,0-0.688,0.129-0.848,0.388s-0.24,0.66-0.24,1.204c0,0.618,0.094,1.034,0.28,1.248
			C141.604,71.955,141.695,72.024,141.792,72.062z"/>
		<path fill="#4D4D4D" d="M146.455,69.549v-0.487h0.512c0.064-0.635,0.238-1.102,0.524-1.4c0.285-0.299,0.742-0.448,1.372-0.448
			c0.447,0,0.933,0.057,1.455,0.168l-0.023,0.496c-0.485-0.091-0.947-0.136-1.384-0.136c-0.438,0-0.756,0.104-0.956,0.312
			s-0.324,0.544-0.372,1.008h2.288v0.487h-2.32c-0.005,0.086-0.008,0.219-0.008,0.4v0.36h2.328v0.487h-2.296
			c0.048,0.465,0.172,0.802,0.372,1.013c0.199,0.21,0.521,0.315,0.964,0.315c0.442,0,0.903-0.048,1.384-0.144l0.023,0.504
			c-0.527,0.112-1.013,0.168-1.455,0.168c-0.63,0-1.087-0.152-1.372-0.456c-0.286-0.304-0.463-0.771-0.532-1.4h-0.504V70.31h0.479
			c-0.005-0.075-0.008-0.199-0.008-0.372c0-0.174,0.003-0.303,0.008-0.389H146.455z"/>
	</g>
</g>
<g>
	<g>
		<path fill="#4D4D4D" d="M192.705,15.443h-39.468v-4.982l19.792-9.578l19.676,9.579V15.443z M154.666,13.995h36.61v-2.622
			l-18.249-8.885l-18.361,8.886V13.995z"/>
	</g>
	<g>
		<path fill="#4D4D4D" d="M189.79,38.918h-7.029V18.76h7.029V38.918z M184.164,37.497h4.224V20.181h-4.224V37.497z"/>
	</g>
	<g>
		<path fill="#4D4D4D" d="M163.359,38.918h-7.029V18.76h7.029V38.918z M157.733,37.497h4.224V20.181h-4.224V37.497z"/>
	</g>
	<g>
		<path fill="#4D4D4D" d="M171.461,22.218c-0.533,0-0.989,0.218-1.375,0.638c-0.387,0.44-0.585,0.951-0.585,1.521v5.265
			c0,0.197,0.061,0.376,0.199,0.52c0.128,0.143,0.286,0.207,0.466,0.207c0.207,0,0.366-0.064,0.493-0.207
			c0.111-0.144,0.169-0.323,0.169-0.52v-4.708h0.344v13.034c0,0.251,0.099,0.483,0.288,0.661c0.177,0.197,0.384,0.282,0.622,0.282
			c0.258,0,0.465-0.084,0.633-0.282c0.178-0.179,0.259-0.41,0.259-0.661v-7.556h0.385v7.556c0,0.251,0.089,0.483,0.257,0.661
			c0.169,0.197,0.387,0.282,0.653,0.282c0.227,0,0.425-0.084,0.604-0.282c0.167-0.179,0.244-0.41,0.244-0.661V24.934h0.36v4.708
			c0,0.197,0.057,0.376,0.176,0.52c0.142,0.143,0.306,0.207,0.485,0.207c0.21,0,0.368-0.064,0.487-0.207
			c0.108-0.144,0.176-0.323,0.176-0.52v-5.265c0-0.568-0.187-1.081-0.574-1.519c-0.377-0.422-0.829-0.638-1.383-0.638h-3.382V22.218
			z"/>
		<path fill="#4D4D4D" d="M173.162,21.728c0.415,0,0.782-0.139,1.077-0.428c0.295-0.297,0.445-0.665,0.445-1.108
			c0-0.422-0.152-0.784-0.446-1.083c-0.296-0.307-0.662-0.46-1.076-0.46c-0.436,0-0.803,0.153-1.08,0.46
			c-0.295,0.299-0.433,0.661-0.433,1.083c0,0.444,0.139,0.811,0.433,1.108C172.36,21.589,172.727,21.728,173.162,21.728z"/>
	</g>
</g>
<g>
	<g>
		<path fill="#4D4D4D" d="M176.94,59.977h-22.943V57.08l11.505-5.568l11.438,5.569V59.977z M154.827,59.135h21.282v-1.524
			l-10.609-5.165l-10.674,5.166V59.135z"/>
	</g>
	<g>
		<path fill="#4D4D4D" d="M175.246,73.623h-4.086V61.905h4.086V73.623z M171.975,72.797h2.456V62.731h-2.456V72.797z"/>
	</g>
	<g>
		<path fill="#4D4D4D" d="M159.881,73.623h-4.086V61.905h4.086V73.623z M156.61,72.797h2.456V62.731h-2.456V72.797z"/>
	</g>
	<g>
		<path fill="#4D4D4D" d="M164.591,63.915c-0.31,0-0.575,0.127-0.799,0.371c-0.225,0.256-0.34,0.553-0.34,0.884v3.061
			c0,0.115,0.035,0.218,0.115,0.302c0.074,0.083,0.166,0.12,0.271,0.12c0.12,0,0.213-0.037,0.287-0.12
			c0.064-0.084,0.098-0.188,0.098-0.302v-2.737h0.2v7.577c0,0.146,0.058,0.281,0.167,0.385c0.103,0.115,0.223,0.164,0.362,0.164
			c0.15,0,0.27-0.049,0.368-0.164c0.104-0.104,0.151-0.239,0.151-0.385v-4.392h0.224v4.392c0,0.146,0.052,0.281,0.149,0.385
			c0.098,0.115,0.225,0.164,0.38,0.164c0.132,0,0.247-0.049,0.351-0.164c0.097-0.104,0.142-0.239,0.142-0.385v-7.577h0.209v2.737
			c0,0.115,0.033,0.218,0.102,0.302c0.082,0.083,0.178,0.12,0.282,0.12c0.122,0,0.214-0.037,0.283-0.12
			c0.063-0.084,0.102-0.188,0.102-0.302v-3.06c0-0.33-0.109-0.629-0.334-0.883c-0.219-0.246-0.482-0.371-0.804-0.371h-1.966V63.915z
			"/>
		<path fill="#4D4D4D" d="M165.579,63.63c0.241,0,0.455-0.081,0.626-0.249c0.171-0.173,0.259-0.387,0.259-0.644
			c0-0.245-0.088-0.456-0.259-0.63c-0.172-0.179-0.385-0.268-0.625-0.268c-0.254,0-0.467,0.089-0.628,0.268
			c-0.171,0.174-0.252,0.384-0.252,0.63c0,0.258,0.081,0.472,0.252,0.644C165.113,63.549,165.327,63.63,165.579,63.63z"/>
	</g>
</g>
<line fill="none" stroke="#4D4D4D" stroke-miterlimit="10" x1="0" y1="39.833" x2="196.25" y2="39.833"/>
<line fill="none" stroke="#4D4D4D" stroke-miterlimit="10" x1="0.111" y1="74.833" x2="176.625" y2="74.833"/>
<g>
	<g>
		<path fill="#4D4D4D" d="M3.474,96.643c0,0.8,0.433,1.2,1.296,1.2c0.448,0,0.785-0.095,1.013-0.284
			c0.227-0.189,0.34-0.494,0.34-0.916v-3.872h0.607v3.856c0,0.618-0.164,1.066-0.492,1.344c-0.327,0.277-0.812,0.416-1.451,0.416
			c-0.641,0-1.122-0.139-1.444-0.416c-0.323-0.277-0.484-0.726-0.484-1.344v-3.856h0.616V96.643z"/>
		<path fill="#4D4D4D" d="M8.546,98.307h-0.6v-4h0.592v0.28c0.432-0.24,0.846-0.36,1.24-0.36c0.533,0,0.892,0.145,1.076,0.432
			c0.184,0.288,0.275,0.801,0.275,1.536v2.112h-0.592v-2.096c0-0.555-0.055-0.935-0.164-1.141c-0.109-0.205-0.343-0.308-0.7-0.308
			c-0.171,0-0.351,0.025-0.54,0.076s-0.334,0.1-0.436,0.147l-0.152,0.072V98.307z"/>
		<path fill="#4D4D4D" d="M12.242,93.402v-0.695h0.6v0.695H12.242z M12.242,98.307v-4h0.6v4H12.242z"/>
		<path fill="#4D4D4D" d="M13.818,96.299c0-0.73,0.13-1.259,0.392-1.584s0.702-0.488,1.324-0.488c0.621,0,1.062,0.163,1.319,0.488
			c0.259,0.325,0.389,0.854,0.389,1.584s-0.123,1.261-0.368,1.592s-0.693,0.496-1.344,0.496c-0.651,0-1.099-0.165-1.345-0.496
			C13.94,97.56,13.818,97.029,13.818,96.299z M14.434,96.287c0,0.584,0.071,0.993,0.212,1.228c0.142,0.234,0.438,0.352,0.889,0.352
			c0.45,0,0.745-0.115,0.884-0.348c0.139-0.231,0.208-0.642,0.208-1.228c0-0.587-0.077-0.991-0.232-1.212
			c-0.154-0.222-0.441-0.332-0.859-0.332c-0.419,0-0.707,0.11-0.864,0.332C14.513,95.3,14.434,95.703,14.434,96.287z"/>
		<path fill="#4D4D4D" d="M18.817,98.307h-0.6v-4h0.592v0.28c0.432-0.24,0.846-0.36,1.24-0.36c0.533,0,0.892,0.145,1.076,0.432
			c0.184,0.288,0.275,0.801,0.275,1.536v2.112H20.81v-2.096c0-0.555-0.055-0.935-0.164-1.141c-0.109-0.205-0.343-0.308-0.7-0.308
			c-0.171,0-0.351,0.025-0.54,0.076s-0.334,0.1-0.436,0.147l-0.152,0.072V98.307z"/>
		<path fill="#4D4D4D" d="M24.377,98.307v-5.536h0.616v5.536H24.377z"/>
		<path fill="#4D4D4D" d="M26.841,98.307h-0.6v-4h0.592v0.28c0.432-0.24,0.846-0.36,1.24-0.36c0.533,0,0.892,0.145,1.076,0.432
			c0.184,0.288,0.275,0.801,0.275,1.536v2.112h-0.592v-2.096c0-0.555-0.055-0.935-0.164-1.141c-0.109-0.205-0.343-0.308-0.7-0.308
			c-0.171,0-0.351,0.025-0.54,0.076s-0.334,0.1-0.436,0.147l-0.152,0.072V98.307z"/>
		<path fill="#4D4D4D" d="M30.121,94.307h0.64l0.937,3.48h0.296l0.968-3.48h0.616l-1.128,4h-1.2L30.121,94.307z"/>
		<path fill="#4D4D4D" d="M36.993,97.811l0.232-0.023l0.016,0.472c-0.608,0.085-1.128,0.128-1.56,0.128
			c-0.576,0-0.984-0.167-1.225-0.5s-0.359-0.853-0.359-1.556c0-1.403,0.557-2.104,1.672-2.104c0.538,0,0.941,0.15,1.208,0.452
			s0.399,0.774,0.399,1.42l-0.031,0.456h-2.641c0,0.442,0.08,0.771,0.24,0.984c0.16,0.213,0.438,0.319,0.836,0.319
			S36.582,97.843,36.993,97.811z M36.777,96.074c0-0.49-0.079-0.837-0.236-1.04c-0.157-0.202-0.413-0.304-0.768-0.304
			s-0.621,0.106-0.8,0.32c-0.179,0.213-0.271,0.555-0.276,1.023H36.777z"/>
		<path fill="#4D4D4D" d="M39.569,94.763c-0.581,0-0.872,0.203-0.872,0.608c0,0.187,0.066,0.318,0.2,0.396
			c0.133,0.077,0.438,0.157,0.912,0.24s0.811,0.198,1.008,0.348s0.296,0.43,0.296,0.84c0,0.411-0.132,0.712-0.396,0.904
			c-0.265,0.192-0.649,0.288-1.156,0.288c-0.331,0-0.721-0.037-1.168-0.112l-0.24-0.04l0.032-0.52
			c0.607,0.091,1.066,0.136,1.376,0.136c0.309,0,0.545-0.049,0.708-0.147c0.162-0.099,0.244-0.265,0.244-0.496
			c0-0.232-0.069-0.39-0.208-0.473c-0.139-0.082-0.443-0.161-0.912-0.235c-0.47-0.075-0.803-0.185-1-0.328
			c-0.197-0.145-0.296-0.411-0.296-0.8c0-0.39,0.137-0.678,0.412-0.864c0.274-0.187,0.617-0.28,1.027-0.28
			c0.325,0,0.733,0.037,1.225,0.112l0.224,0.04l-0.016,0.512C40.377,94.806,39.91,94.763,39.569,94.763z"/>
		<path fill="#4D4D4D" d="M44.105,94.826h-1.272v1.912c0,0.459,0.033,0.761,0.1,0.904c0.067,0.145,0.226,0.216,0.477,0.216
			l0.712-0.048l0.04,0.496c-0.357,0.059-0.63,0.088-0.816,0.088c-0.416,0-0.704-0.102-0.863-0.304c-0.16-0.203-0.24-0.59-0.24-1.16
			v-2.104h-0.568v-0.52h0.568v-1.224h0.592v1.224h1.272V94.826z"/>
		<path fill="#4D4D4D" d="M45.44,98.307h-0.6v-4h0.592v0.28c0.4-0.24,0.789-0.36,1.168-0.36c0.496,0,0.843,0.136,1.04,0.408
			c0.176-0.106,0.404-0.201,0.684-0.284c0.28-0.083,0.527-0.124,0.74-0.124c0.533,0,0.893,0.143,1.076,0.428
			c0.184,0.286,0.276,0.799,0.276,1.54v2.112h-0.601v-2.096c0-0.555-0.053-0.935-0.16-1.141c-0.106-0.205-0.333-0.308-0.68-0.308
			c-0.176,0-0.357,0.025-0.544,0.076s-0.331,0.1-0.432,0.147l-0.152,0.072c0.069,0.176,0.104,0.565,0.104,1.168v2.08h-0.601v-2.064
			c0-0.575-0.052-0.966-0.156-1.172c-0.104-0.205-0.332-0.308-0.684-0.308c-0.171,0-0.346,0.025-0.524,0.076s-0.315,0.1-0.412,0.147
			l-0.136,0.072V98.307z"/>
		<path fill="#4D4D4D" d="M54.249,97.811l0.232-0.023l0.016,0.472c-0.608,0.085-1.128,0.128-1.56,0.128
			c-0.576,0-0.984-0.167-1.225-0.5s-0.359-0.853-0.359-1.556c0-1.403,0.557-2.104,1.672-2.104c0.538,0,0.941,0.15,1.208,0.452
			s0.399,0.774,0.399,1.42l-0.031,0.456h-2.641c0,0.442,0.08,0.771,0.24,0.984c0.16,0.213,0.438,0.319,0.836,0.319
			S53.838,97.843,54.249,97.811z M54.033,96.074c0-0.49-0.079-0.837-0.236-1.04c-0.157-0.202-0.413-0.304-0.768-0.304
			s-0.621,0.106-0.8,0.32c-0.179,0.213-0.271,0.555-0.276,1.023H54.033z"/>
		<path fill="#4D4D4D" d="M56.169,98.307h-0.6v-4h0.592v0.28c0.432-0.24,0.846-0.36,1.24-0.36c0.533,0,0.892,0.145,1.076,0.432
			c0.184,0.288,0.275,0.801,0.275,1.536v2.112h-0.592v-2.096c0-0.555-0.055-0.935-0.164-1.141c-0.109-0.205-0.343-0.308-0.7-0.308
			c-0.171,0-0.351,0.025-0.54,0.076s-0.334,0.1-0.436,0.147l-0.152,0.072V98.307z"/>
		<path fill="#4D4D4D" d="M61.913,94.826h-1.272v1.912c0,0.459,0.033,0.761,0.1,0.904c0.067,0.145,0.226,0.216,0.477,0.216
			l0.712-0.048l0.04,0.496c-0.357,0.059-0.63,0.088-0.816,0.088c-0.416,0-0.704-0.102-0.863-0.304c-0.16-0.203-0.24-0.59-0.24-1.16
			v-2.104H59.48v-0.52h0.568v-1.224h0.592v1.224h1.272V94.826z"/>
		<path fill="#4D4D4D" d="M5.09,105.626v-0.552h1.528v2.72c-0.673,0.128-1.272,0.192-1.801,0.192c-0.805,0-1.363-0.232-1.676-0.696
			c-0.312-0.464-0.468-1.18-0.468-2.147c0-0.969,0.156-1.686,0.468-2.152c0.312-0.467,0.865-0.7,1.66-0.7
			c0.496,0,1.011,0.054,1.544,0.16l0.272,0.048l-0.024,0.512c-0.661-0.111-1.234-0.168-1.72-0.168c-0.613,0-1.027,0.178-1.24,0.532
			c-0.214,0.354-0.32,0.944-0.32,1.769c0,0.823,0.106,1.413,0.32,1.768c0.213,0.354,0.624,0.532,1.232,0.532
			c0.373,0,0.754-0.037,1.144-0.112v-1.704H5.09z"/>
		<path fill="#4D4D4D" d="M7.722,107.906v-4h0.592v0.544c0.464-0.32,0.952-0.53,1.464-0.632v0.607c-0.224,0.043-0.457,0.109-0.7,0.2
			c-0.242,0.091-0.428,0.171-0.556,0.24l-0.2,0.104v2.936H7.722z"/>
		<path fill="#4D4D4D" d="M12.985,103.906h0.6v4h-0.6v-0.28c-0.4,0.24-0.795,0.36-1.185,0.36c-0.544,0-0.905-0.142-1.084-0.424
			c-0.179-0.283-0.268-0.806-0.268-1.568v-2.088h0.6v2.08c0,0.581,0.051,0.971,0.152,1.168s0.33,0.296,0.688,0.296
			c0.177,0,0.355-0.025,0.536-0.076c0.182-0.051,0.32-0.1,0.416-0.147l0.145-0.072V103.906z"/>
		<path fill="#4D4D4D" d="M14.737,109.683v-5.776h0.592v0.288c0.405-0.245,0.806-0.368,1.2-0.368c0.507,0,0.874,0.161,1.104,0.484
			c0.229,0.322,0.345,0.854,0.345,1.596s-0.135,1.273-0.404,1.596c-0.27,0.323-0.716,0.484-1.34,0.484
			c-0.325,0-0.624-0.029-0.896-0.088v1.784H14.737z M16.441,104.362c-0.16,0-0.332,0.026-0.517,0.08
			c-0.184,0.054-0.329,0.106-0.436,0.16l-0.152,0.08v2.695c0.379,0.059,0.667,0.088,0.864,0.088c0.432,0,0.734-0.122,0.908-0.367
			c0.173-0.246,0.26-0.646,0.26-1.2s-0.079-0.949-0.236-1.185C16.976,104.479,16.745,104.362,16.441,104.362z"/>
		<path fill="#4D4D4D" d="M18.953,109.683v-5.776h0.592v0.288c0.405-0.245,0.806-0.368,1.2-0.368c0.507,0,0.874,0.161,1.104,0.484
			c0.229,0.322,0.345,0.854,0.345,1.596s-0.135,1.273-0.404,1.596c-0.27,0.323-0.716,0.484-1.34,0.484
			c-0.325,0-0.624-0.029-0.896-0.088v1.784H18.953z M20.657,104.362c-0.16,0-0.332,0.026-0.517,0.08
			c-0.184,0.054-0.329,0.106-0.436,0.16l-0.152,0.08v2.695c0.379,0.059,0.667,0.088,0.864,0.088c0.432,0,0.734-0.122,0.908-0.367
			c0.173-0.246,0.26-0.646,0.26-1.2s-0.079-0.949-0.236-1.185C21.191,104.479,20.961,104.362,20.657,104.362z"/>
		<path fill="#4D4D4D" d="M25.889,107.41l0.232-0.023l0.016,0.472c-0.608,0.085-1.128,0.128-1.56,0.128
			c-0.576,0-0.984-0.167-1.225-0.5s-0.359-0.853-0.359-1.556c0-1.403,0.557-2.104,1.672-2.104c0.538,0,0.941,0.15,1.208,0.452
			s0.399,0.774,0.399,1.42l-0.031,0.456h-2.641c0,0.442,0.08,0.771,0.24,0.984c0.16,0.213,0.438,0.319,0.836,0.319
			S25.478,107.442,25.889,107.41z M25.673,105.674c0-0.49-0.079-0.837-0.236-1.04c-0.157-0.202-0.413-0.304-0.768-0.304
			s-0.621,0.106-0.8,0.32c-0.179,0.213-0.271,0.555-0.276,1.023H25.673z"/>
		<path fill="#4D4D4D" d="M112.489,102.626v5.28h-0.616v-4.592l-1.36,0.896l-0.279-0.464l1.68-1.12H112.489z"/>
		<path fill="#4D4D4D" d="M116.969,102.626v5.28h-0.616v-4.592l-1.36,0.896l-0.279-0.464l1.68-1.12H116.969z"/>
		<path fill="#4D4D4D" d="M122.153,102.626v0.561h-2.568l-0.145,1.72c0.411-0.219,0.824-0.328,1.24-0.328
			c1.12,0,1.681,0.521,1.681,1.561c0,0.597-0.155,1.053-0.465,1.367c-0.309,0.315-0.743,0.473-1.304,0.473
			c-0.448,0-0.944-0.059-1.488-0.176l-0.264-0.057l0.072-0.488c0.613,0.118,1.129,0.177,1.548,0.177s0.734-0.108,0.948-0.324
			c0.213-0.216,0.319-0.519,0.319-0.908c0-0.389-0.097-0.665-0.292-0.828c-0.194-0.162-0.471-0.244-0.827-0.244
			c-0.192,0-0.394,0.027-0.604,0.08c-0.211,0.054-0.372,0.107-0.484,0.16l-0.168,0.08l-0.424-0.08l0.145-2.744H122.153z"/>
		<path fill="#4D4D4D" d="M123.09,108.891l0.367-1.841h0.664l-0.536,1.841H123.09z"/>
		<path fill="#4D4D4D" d="M126.577,107.442c0.966,0,1.451-0.613,1.456-1.84c-0.533,0.202-0.991,0.304-1.376,0.304
			c-1.151,0-1.728-0.536-1.728-1.608c0-0.538,0.165-0.965,0.496-1.279c0.33-0.314,0.775-0.473,1.336-0.473
			c0.646,0,1.125,0.239,1.439,0.717c0.315,0.477,0.473,1.179,0.473,2.104c0,0.926-0.178,1.594-0.532,2.004
			c-0.354,0.411-0.876,0.616-1.564,0.616c-0.399,0-0.812-0.037-1.239-0.112l-0.208-0.032l0.056-0.495
			C125.666,107.41,126.13,107.442,126.577,107.442z M126.705,105.362c0.326,0,0.702-0.072,1.129-0.216l0.208-0.072
			c-0.017-1.322-0.443-1.984-1.28-1.984c-0.373,0-0.666,0.108-0.876,0.324c-0.211,0.216-0.316,0.511-0.316,0.884
			C125.569,105.008,125.948,105.362,126.705,105.362z"/>
		<path fill="#4D4D4D" d="M131.521,107.906v-5.536h1.112l1.568,4.68l1.567-4.68h1.112v5.536h-0.616v-4.88h-0.112l-1.607,4.68h-0.688
			l-1.607-4.68h-0.112v4.88H131.521z"/>
		<path fill="#4D4D4D" d="M138.137,107.906v-4h0.592v0.544c0.464-0.32,0.952-0.53,1.464-0.632v0.607
			c-0.224,0.043-0.457,0.109-0.7,0.2c-0.242,0.091-0.428,0.171-0.556,0.24l-0.2,0.104v2.936H138.137z"/>
		<path fill="#4D4D4D" d="M143.873,102.162v5.744h-0.593v-0.272c-0.41,0.235-0.815,0.353-1.216,0.353
			c-0.213,0-0.399-0.026-0.56-0.08s-0.31-0.149-0.448-0.288c-0.288-0.288-0.432-0.82-0.432-1.596c0-0.776,0.129-1.336,0.388-1.681
			c0.259-0.344,0.687-0.516,1.284-0.516c0.309,0,0.637,0.035,0.983,0.104v-1.769H143.873z M141.793,107.395
			c0.096,0.037,0.22,0.056,0.372,0.056c0.151,0,0.322-0.025,0.512-0.076s0.337-0.1,0.444-0.147l0.159-0.072v-2.712
			c-0.341-0.064-0.658-0.096-0.952-0.096c-0.405,0-0.688,0.129-0.848,0.388s-0.24,0.66-0.24,1.204c0,0.618,0.094,1.034,0.28,1.248
			C141.605,107.288,141.696,107.357,141.793,107.395z"/>
		<path fill="#4D4D4D" d="M146.456,104.882v-0.487h0.512c0.064-0.635,0.238-1.102,0.524-1.4c0.285-0.299,0.742-0.448,1.372-0.448
			c0.447,0,0.933,0.057,1.455,0.168l-0.023,0.496c-0.485-0.091-0.947-0.136-1.384-0.136c-0.438,0-0.756,0.104-0.956,0.312
			s-0.324,0.544-0.372,1.008h2.288v0.487h-2.32c-0.005,0.086-0.008,0.219-0.008,0.4v0.36h2.328v0.487h-2.296
			c0.048,0.465,0.172,0.802,0.372,1.013c0.199,0.21,0.521,0.315,0.964,0.315c0.442,0,0.903-0.048,1.384-0.144l0.023,0.504
			c-0.527,0.112-1.013,0.168-1.455,0.168c-0.63,0-1.087-0.152-1.372-0.456c-0.286-0.304-0.463-0.771-0.532-1.4h-0.504v-0.487h0.479
			c-0.005-0.075-0.008-0.199-0.008-0.372c0-0.174,0.003-0.303,0.008-0.389H146.456z"/>
	</g>
</g>
<g>
	<g>
		<path fill="#4D4D4D" d="M175.5,96.167h-21.503v-2.715l10.783-5.218l10.72,5.219V96.167z M154.775,95.378h19.946v-1.428
			l-9.943-4.841l-10.004,4.841V95.378z"/>
	</g>
	<g>
		<path fill="#4D4D4D" d="M173.912,108.956h-3.83V97.974h3.83V108.956z M170.847,108.182h2.301v-9.434h-2.301V108.182z"/>
	</g>
	<g>
		<path fill="#4D4D4D" d="M159.512,108.956h-3.83V97.974h3.83V108.956z M156.446,108.182h2.301v-9.434h-2.301V108.182z"/>
	</g>
	<g>
		<path fill="#4D4D4D" d="M163.926,99.858c-0.29,0-0.539,0.119-0.749,0.348c-0.211,0.24-0.319,0.518-0.319,0.828v2.869
			c0,0.107,0.033,0.205,0.108,0.283c0.069,0.078,0.156,0.113,0.254,0.113c0.113,0,0.199-0.035,0.269-0.113
			c0.06-0.079,0.092-0.176,0.092-0.283v-2.565h0.188v7.101c0,0.137,0.054,0.263,0.157,0.36c0.096,0.107,0.209,0.154,0.339,0.154
			c0.14,0,0.253-0.046,0.345-0.154c0.097-0.097,0.141-0.224,0.141-0.36v-4.117h0.21v4.117c0,0.137,0.049,0.263,0.14,0.36
			c0.092,0.107,0.211,0.154,0.356,0.154c0.123,0,0.232-0.046,0.329-0.154c0.091-0.097,0.133-0.224,0.133-0.36v-7.101h0.196v2.565
			c0,0.107,0.031,0.205,0.096,0.283c0.077,0.078,0.167,0.113,0.264,0.113c0.114,0,0.201-0.035,0.266-0.113
			c0.059-0.079,0.096-0.176,0.096-0.283v-2.868c0-0.309-0.102-0.589-0.313-0.828c-0.205-0.23-0.452-0.348-0.754-0.348
			L163.926,99.858L163.926,99.858z"/>
		<path fill="#4D4D4D" d="M164.852,99.591c0.226,0,0.426-0.076,0.587-0.233c0.161-0.162,0.242-0.362,0.242-0.603
			c0-0.23-0.083-0.427-0.243-0.59c-0.161-0.167-0.361-0.251-0.586-0.251c-0.238,0-0.438,0.083-0.588,0.251
			c-0.161,0.163-0.236,0.36-0.236,0.59c0,0.242,0.076,0.442,0.236,0.603C164.415,99.515,164.615,99.591,164.852,99.591z"/>
	</g>
</g>
<line fill="none" stroke="#4D4D4D" stroke-miterlimit="10" x1="0.111" y1="110.166" x2="175.75" y2="110.166"/>
<g>
	<g>
		<path fill="#4D4D4D" d="M4.874,134.557H2.897v-5.536h1.977c0.901,0,1.498,0.357,1.792,1.072c0.17,0.41,0.256,0.949,0.256,1.616
			c0,1.392-0.347,2.269-1.04,2.632C5.604,134.484,5.269,134.557,4.874,134.557z M6.29,131.709c0-1.062-0.237-1.723-0.712-1.984
			c-0.192-0.106-0.427-0.16-0.704-0.16h-1.36v4.448h1.36C5.817,134.013,6.29,133.245,6.29,131.709z"/>
		<path fill="#4D4D4D" d="M10.674,134.061l0.232-0.023l0.016,0.472c-0.608,0.085-1.128,0.128-1.56,0.128
			c-0.576,0-0.984-0.167-1.225-0.5s-0.359-0.853-0.359-1.556c0-1.403,0.557-2.104,1.672-2.104c0.538,0,0.941,0.15,1.208,0.452
			s0.399,0.774,0.399,1.42l-0.031,0.456H8.386c0,0.442,0.08,0.771,0.24,0.984c0.16,0.213,0.438,0.319,0.836,0.319
			S10.263,134.093,10.674,134.061z M10.458,132.324c0-0.49-0.079-0.837-0.236-1.04c-0.157-0.202-0.413-0.304-0.768-0.304
			s-0.621,0.106-0.8,0.32c-0.179,0.213-0.271,0.555-0.276,1.023H10.458z"/>
		<path fill="#4D4D4D" d="M12.594,134.557h-0.6v-5.744h0.6v3.393l0.624-0.032l1.145-1.616h0.68l-1.304,1.84l1.359,2.16h-0.68
			l-1.192-1.856l-0.632,0.024V134.557z"/>
		<path fill="#4D4D4D" d="M18.626,131.765v2.048c0.016,0.197,0.17,0.314,0.464,0.353l-0.024,0.472c-0.421,0-0.738-0.106-0.952-0.32
			c-0.479,0.214-0.96,0.32-1.439,0.32c-0.368,0-0.648-0.104-0.84-0.312c-0.192-0.208-0.288-0.506-0.288-0.896
			s0.099-0.676,0.296-0.86c0.197-0.184,0.507-0.297,0.928-0.34l1.256-0.12v-0.344c0-0.272-0.059-0.467-0.176-0.584
			s-0.277-0.176-0.48-0.176c-0.427,0-0.869,0.026-1.327,0.08l-0.248,0.023l-0.024-0.456c0.587-0.117,1.106-0.176,1.56-0.176
			c0.454,0,0.783,0.104,0.988,0.312S18.626,131.322,18.626,131.765z M16.161,133.396c0,0.491,0.203,0.736,0.608,0.736
			c0.362,0,0.72-0.062,1.072-0.185l0.184-0.063v-1.32l-1.184,0.112c-0.24,0.021-0.414,0.091-0.521,0.208
			S16.161,133.173,16.161,133.396z"/>
		<path fill="#4D4D4D" d="M19.913,129.021h2.009c0.549,0,0.961,0.113,1.235,0.34s0.412,0.583,0.412,1.068
			c0,0.347-0.06,0.617-0.18,0.812c-0.12,0.195-0.298,0.349-0.532,0.46c0.587,0.203,0.88,0.638,0.88,1.305
			c0,0.555-0.146,0.952-0.439,1.191c-0.294,0.24-0.718,0.36-1.272,0.36h-2.112V129.021z M21.897,129.564h-1.368v1.912h1.424
			c0.342,0,0.591-0.081,0.748-0.244c0.157-0.162,0.236-0.408,0.236-0.735c0-0.328-0.084-0.565-0.252-0.713
			C22.518,129.638,22.255,129.564,21.897,129.564z M21.961,132.013h-1.432v2h1.472c0.363,0,0.639-0.076,0.828-0.229
			c0.189-0.151,0.284-0.42,0.284-0.804c0-0.202-0.039-0.373-0.116-0.512s-0.18-0.237-0.308-0.296
			C22.455,132.066,22.212,132.013,21.961,132.013z"/>
		<path fill="#4D4D4D" d="M27.562,131.765v2.048c0.016,0.197,0.17,0.314,0.464,0.353l-0.024,0.472c-0.421,0-0.738-0.106-0.952-0.32
			c-0.479,0.214-0.96,0.32-1.439,0.32c-0.368,0-0.648-0.104-0.84-0.312c-0.192-0.208-0.288-0.506-0.288-0.896
			s0.099-0.676,0.296-0.86c0.197-0.184,0.507-0.297,0.928-0.34l1.256-0.12v-0.344c0-0.272-0.059-0.467-0.176-0.584
			s-0.277-0.176-0.48-0.176c-0.427,0-0.869,0.026-1.327,0.08l-0.248,0.023l-0.024-0.456c0.587-0.117,1.106-0.176,1.56-0.176
			c0.454,0,0.783,0.104,0.988,0.312S27.562,131.322,27.562,131.765z M25.097,133.396c0,0.491,0.203,0.736,0.608,0.736
			c0.362,0,0.72-0.062,1.072-0.185l0.184-0.063v-1.32l-1.184,0.112c-0.24,0.021-0.414,0.091-0.521,0.208
			S25.097,133.173,25.097,133.396z"/>
		<path fill="#4D4D4D" d="M29.345,134.557h-0.6v-4h0.592v0.28c0.432-0.24,0.846-0.36,1.24-0.36c0.533,0,0.892,0.145,1.076,0.432
			c0.184,0.288,0.275,0.801,0.275,1.536v2.112h-0.592v-2.096c0-0.555-0.055-0.935-0.164-1.141c-0.109-0.205-0.343-0.308-0.7-0.308
			c-0.171,0-0.351,0.025-0.54,0.076s-0.334,0.1-0.436,0.147l-0.152,0.072V134.557z"/>
		<path fill="#4D4D4D" d="M33.642,134.557h-0.6v-5.744h0.6v3.393l0.624-0.032l1.145-1.616h0.68l-1.304,1.84l1.359,2.16h-0.68
			l-1.192-1.856l-0.632,0.024V134.557z"/>
		<path fill="#4D4D4D" d="M5.09,141.876v-0.552h1.528v2.72c-0.673,0.128-1.272,0.192-1.801,0.192c-0.805,0-1.363-0.232-1.676-0.696
			c-0.312-0.464-0.468-1.18-0.468-2.147c0-0.969,0.156-1.686,0.468-2.152c0.312-0.467,0.865-0.7,1.66-0.7
			c0.496,0,1.011,0.054,1.544,0.16l0.272,0.048l-0.024,0.512c-0.661-0.111-1.234-0.168-1.72-0.168c-0.613,0-1.027,0.178-1.24,0.532
			c-0.214,0.354-0.32,0.944-0.32,1.769c0,0.823,0.106,1.413,0.32,1.768c0.213,0.354,0.624,0.532,1.232,0.532
			c0.373,0,0.754-0.037,1.144-0.112v-1.704H5.09z"/>
		<path fill="#4D4D4D" d="M7.722,144.156v-4h0.592v0.544c0.464-0.32,0.952-0.53,1.464-0.632v0.607c-0.224,0.043-0.457,0.109-0.7,0.2
			c-0.242,0.091-0.428,0.171-0.556,0.24l-0.2,0.104v2.936H7.722z"/>
		<path fill="#4D4D4D" d="M12.985,140.156h0.6v4h-0.6v-0.28c-0.4,0.24-0.795,0.36-1.185,0.36c-0.544,0-0.905-0.142-1.084-0.424
			c-0.179-0.283-0.268-0.806-0.268-1.568v-2.088h0.6v2.08c0,0.581,0.051,0.971,0.152,1.168s0.33,0.296,0.688,0.296
			c0.177,0,0.355-0.025,0.536-0.076c0.182-0.051,0.32-0.1,0.416-0.147l0.145-0.072V140.156z"/>
		<path fill="#4D4D4D" d="M14.737,145.933v-5.776h0.592v0.288c0.405-0.245,0.806-0.368,1.2-0.368c0.507,0,0.874,0.161,1.104,0.484
			c0.229,0.322,0.345,0.854,0.345,1.596s-0.135,1.273-0.404,1.596c-0.27,0.323-0.716,0.484-1.34,0.484
			c-0.325,0-0.624-0.029-0.896-0.088v1.784H14.737z M16.441,140.612c-0.16,0-0.332,0.026-0.517,0.08
			c-0.184,0.054-0.329,0.106-0.436,0.16l-0.152,0.08v2.695c0.379,0.059,0.667,0.088,0.864,0.088c0.432,0,0.734-0.122,0.908-0.367
			c0.173-0.246,0.26-0.646,0.26-1.2s-0.079-0.949-0.236-1.185C16.976,140.729,16.745,140.612,16.441,140.612z"/>
		<path fill="#4D4D4D" d="M18.953,145.933v-5.776h0.592v0.288c0.405-0.245,0.806-0.368,1.2-0.368c0.507,0,0.874,0.161,1.104,0.484
			c0.229,0.322,0.345,0.854,0.345,1.596s-0.135,1.273-0.404,1.596c-0.27,0.323-0.716,0.484-1.34,0.484
			c-0.325,0-0.624-0.029-0.896-0.088v1.784H18.953z M20.657,140.612c-0.16,0-0.332,0.026-0.517,0.08
			c-0.184,0.054-0.329,0.106-0.436,0.16l-0.152,0.08v2.695c0.379,0.059,0.667,0.088,0.864,0.088c0.432,0,0.734-0.122,0.908-0.367
			c0.173-0.246,0.26-0.646,0.26-1.2s-0.079-0.949-0.236-1.185C21.191,140.729,20.961,140.612,20.657,140.612z"/>
		<path fill="#4D4D4D" d="M25.889,143.66l0.232-0.023l0.016,0.472c-0.608,0.085-1.128,0.128-1.56,0.128
			c-0.576,0-0.984-0.167-1.225-0.5s-0.359-0.853-0.359-1.556c0-1.403,0.557-2.104,1.672-2.104c0.538,0,0.941,0.15,1.208,0.452
			s0.399,0.774,0.399,1.42l-0.031,0.456h-2.641c0,0.442,0.08,0.771,0.24,0.984c0.16,0.213,0.438,0.319,0.836,0.319
			S25.478,143.692,25.889,143.66z M25.673,141.924c0-0.49-0.079-0.837-0.236-1.04c-0.157-0.202-0.413-0.304-0.768-0.304
			s-0.621,0.106-0.8,0.32c-0.179,0.213-0.271,0.555-0.276,1.023H25.673z"/>
		<path fill="#4D4D4D" d="M112.489,138.876v5.28h-0.616v-4.592l-1.36,0.896l-0.279-0.464l1.68-1.12H112.489z"/>
		<path fill="#4D4D4D" d="M116.969,138.876v5.28h-0.616v-4.592l-1.36,0.896l-0.279-0.464l1.68-1.12H116.969z"/>
		<path fill="#4D4D4D" d="M121.217,144.156v-1.032h-2.56v-0.479l1.504-3.769h0.672l-1.528,3.704h1.912v-1.647h0.616v1.647h0.672
			v0.544h-0.672v1.032H121.217z"/>
		<path fill="#4D4D4D" d="M123.09,145.141l0.367-1.841h0.664l-0.536,1.841H123.09z"/>
		<path fill="#4D4D4D" d="M126.577,143.692c0.966,0,1.451-0.613,1.456-1.84c-0.533,0.202-0.991,0.304-1.376,0.304
			c-1.151,0-1.728-0.536-1.728-1.608c0-0.538,0.165-0.965,0.496-1.279c0.33-0.314,0.775-0.473,1.336-0.473
			c0.646,0,1.125,0.239,1.439,0.717c0.315,0.477,0.473,1.179,0.473,2.104c0,0.926-0.178,1.594-0.532,2.004
			c-0.354,0.411-0.876,0.616-1.564,0.616c-0.399,0-0.812-0.037-1.239-0.112l-0.208-0.032l0.056-0.495
			C125.666,143.66,126.13,143.692,126.577,143.692z M126.705,141.612c0.326,0,0.702-0.072,1.129-0.216l0.208-0.072
			c-0.017-1.322-0.443-1.984-1.28-1.984c-0.373,0-0.666,0.108-0.876,0.324c-0.211,0.216-0.316,0.511-0.316,0.884
			C125.569,141.258,125.948,141.612,126.705,141.612z"/>
		<path fill="#4D4D4D" d="M131.521,144.156v-5.536h1.112l1.568,4.68l1.567-4.68h1.112v5.536h-0.616v-4.88h-0.112l-1.607,4.68h-0.688
			l-1.607-4.68h-0.112v4.88H131.521z"/>
		<path fill="#4D4D4D" d="M138.137,144.156v-4h0.592v0.544c0.464-0.32,0.952-0.53,1.464-0.632v0.607
			c-0.224,0.043-0.457,0.109-0.7,0.2c-0.242,0.091-0.428,0.171-0.556,0.24l-0.2,0.104v2.936H138.137z"/>
		<path fill="#4D4D4D" d="M143.873,138.412v5.744h-0.593v-0.272c-0.41,0.235-0.815,0.353-1.216,0.353
			c-0.213,0-0.399-0.026-0.56-0.08s-0.31-0.149-0.448-0.288c-0.288-0.288-0.432-0.82-0.432-1.596c0-0.776,0.129-1.336,0.388-1.681
			c0.259-0.344,0.687-0.516,1.284-0.516c0.309,0,0.637,0.035,0.983,0.104v-1.769H143.873z M141.793,143.645
			c0.096,0.037,0.22,0.056,0.372,0.056c0.151,0,0.322-0.025,0.512-0.076s0.337-0.1,0.444-0.147l0.159-0.072v-2.712
			c-0.341-0.064-0.658-0.096-0.952-0.096c-0.405,0-0.688,0.129-0.848,0.388s-0.24,0.66-0.24,1.204c0,0.618,0.094,1.034,0.28,1.248
			C141.605,143.538,141.696,143.607,141.793,143.645z"/>
		<path fill="#4D4D4D" d="M146.456,141.132v-0.487h0.512c0.064-0.635,0.238-1.102,0.524-1.4c0.285-0.299,0.742-0.448,1.372-0.448
			c0.447,0,0.933,0.057,1.455,0.168l-0.023,0.496c-0.485-0.091-0.947-0.136-1.384-0.136c-0.438,0-0.756,0.104-0.956,0.312
			s-0.324,0.544-0.372,1.008h2.288v0.487h-2.32c-0.005,0.086-0.008,0.219-0.008,0.4v0.36h2.328v0.487h-2.296
			c0.048,0.465,0.172,0.802,0.372,1.013c0.199,0.21,0.521,0.315,0.964,0.315c0.442,0,0.903-0.048,1.384-0.144l0.023,0.504
			c-0.527,0.112-1.013,0.168-1.455,0.168c-0.63,0-1.087-0.152-1.372-0.456c-0.286-0.304-0.463-0.771-0.532-1.4h-0.504v-0.487h0.479
			c-0.005-0.075-0.008-0.199-0.008-0.372c0-0.174,0.003-0.303,0.008-0.389H146.456z"/>
	</g>
</g>
<g>
	<g>
		<path fill="#4D4D4D" d="M175.25,132.565h-21.253v-2.683l10.658-5.158l10.595,5.158V132.565z M154.766,131.786h19.714v-1.412
			l-9.827-4.784l-9.887,4.785V131.786z"/>
	</g>
	<g>
		<path fill="#4D4D4D" d="M173.681,145.206h-3.785v-10.855h3.785V145.206z M170.651,144.441h2.275v-9.324h-2.275V144.441z"/>
	</g>
	<g>
		<path fill="#4D4D4D" d="M159.448,145.206h-3.785v-10.855h3.785V145.206z M156.418,144.441h2.275v-9.324h-2.275V144.441z"/>
	</g>
	<g>
		<path fill="#4D4D4D" d="M163.811,136.213c-0.287,0-0.533,0.117-0.74,0.344c-0.208,0.237-0.315,0.512-0.315,0.819v2.835
			c0,0.106,0.033,0.202,0.107,0.28c0.069,0.077,0.154,0.111,0.251,0.111c0.111,0,0.197-0.035,0.266-0.111
			c0.06-0.078,0.091-0.174,0.091-0.28v-2.535h0.185v7.019c0,0.135,0.053,0.26,0.155,0.356c0.095,0.106,0.207,0.152,0.335,0.152
			c0.139,0,0.25-0.045,0.341-0.152c0.096-0.096,0.14-0.221,0.14-0.356v-4.069h0.207v4.069c0,0.135,0.048,0.26,0.138,0.356
			c0.091,0.106,0.208,0.152,0.352,0.152c0.122,0,0.229-0.045,0.325-0.152c0.09-0.096,0.131-0.221,0.131-0.356v-7.019h0.194v2.535
			c0,0.106,0.031,0.202,0.095,0.28c0.076,0.077,0.165,0.111,0.261,0.111c0.113,0,0.198-0.035,0.262-0.111
			c0.058-0.078,0.095-0.174,0.095-0.28v-2.835c0-0.306-0.101-0.582-0.309-0.818c-0.203-0.227-0.446-0.344-0.745-0.344
			L163.811,136.213L163.811,136.213z"/>
		<path fill="#4D4D4D" d="M164.726,135.95c0.224,0,0.421-0.075,0.58-0.23c0.159-0.16,0.24-0.358,0.24-0.596
			c0-0.227-0.082-0.422-0.24-0.583c-0.159-0.166-0.356-0.248-0.579-0.248c-0.235,0-0.433,0.082-0.581,0.248
			c-0.159,0.161-0.233,0.356-0.233,0.583c0,0.239,0.075,0.437,0.233,0.596C164.294,135.875,164.492,135.95,164.726,135.95z"/>
	</g>
</g>
<line fill="none" stroke="#4D4D4D" stroke-miterlimit="10" x1="0.111" y1="146.416" x2="175" y2="146.416"/>
<g>
	<g>
		<path fill="#4D4D4D" d="M2.897,165.521h2.009c0.549,0,0.961,0.113,1.235,0.34s0.412,0.583,0.412,1.068
			c0,0.347-0.06,0.617-0.18,0.812c-0.12,0.195-0.298,0.349-0.532,0.46c0.587,0.203,0.88,0.638,0.88,1.305
			c0,0.555-0.146,0.952-0.439,1.191c-0.294,0.24-0.718,0.36-1.272,0.36H2.897V165.521z M4.882,166.064H3.514v1.912h1.424
			c0.342,0,0.591-0.081,0.748-0.244c0.157-0.162,0.236-0.408,0.236-0.735c0-0.328-0.084-0.565-0.252-0.713
			C5.502,166.138,5.239,166.064,4.882,166.064z M4.945,168.513H3.514v2h1.472c0.363,0,0.639-0.076,0.828-0.229
			c0.189-0.151,0.284-0.42,0.284-0.804c0-0.202-0.039-0.373-0.116-0.512s-0.18-0.237-0.308-0.296
			C5.439,168.566,5.196,168.513,4.945,168.513z"/>
		<path fill="#4D4D4D" d="M7.77,171.057v-5.744h0.6v5.744H7.77z"/>
		<path fill="#4D4D4D" d="M12.394,168.265v2.048c0.016,0.197,0.17,0.314,0.464,0.353l-0.024,0.472c-0.421,0-0.738-0.106-0.952-0.32
			c-0.479,0.214-0.96,0.32-1.439,0.32c-0.368,0-0.648-0.104-0.84-0.312c-0.192-0.208-0.288-0.506-0.288-0.896
			s0.099-0.676,0.296-0.86c0.197-0.184,0.507-0.297,0.928-0.34l1.256-0.12v-0.344c0-0.272-0.059-0.467-0.176-0.584
			s-0.277-0.176-0.48-0.176c-0.427,0-0.869,0.026-1.327,0.08l-0.248,0.023l-0.024-0.456c0.587-0.117,1.106-0.176,1.56-0.176
			c0.454,0,0.783,0.104,0.988,0.312S12.394,167.822,12.394,168.265z M9.929,169.896c0,0.491,0.203,0.736,0.608,0.736
			c0.362,0,0.72-0.062,1.072-0.185l0.184-0.063v-1.32l-1.184,0.112c-0.24,0.021-0.414,0.091-0.521,0.208
			S9.929,169.673,9.929,169.896z"/>
		<path fill="#4D4D4D" d="M15.074,166.977c0.176,0,0.475,0.032,0.896,0.096l0.192,0.024l-0.024,0.488
			c-0.427-0.048-0.741-0.072-0.943-0.072c-0.454,0-0.762,0.108-0.925,0.324c-0.162,0.216-0.243,0.616-0.243,1.2
			s0.075,0.99,0.228,1.22s0.468,0.344,0.948,0.344l0.943-0.072l0.024,0.496c-0.496,0.075-0.867,0.112-1.112,0.112
			c-0.624,0-1.055-0.16-1.292-0.48c-0.237-0.319-0.355-0.859-0.355-1.619c0-0.761,0.128-1.294,0.384-1.601
			S14.477,166.977,15.074,166.977z"/>
		<path fill="#4D4D4D" d="M17.665,171.057h-0.6v-5.744h0.6v3.393l0.624-0.032l1.145-1.616h0.68l-1.304,1.84l1.359,2.16h-0.68
			l-1.192-1.856l-0.632,0.024V171.057z"/>
		<path fill="#4D4D4D" d="M21.617,168.937v2.12h-0.616v-5.536h2.048c0.587,0,1.028,0.136,1.324,0.408
			c0.296,0.271,0.444,0.696,0.444,1.271c0,0.854-0.339,1.39-1.016,1.608l1.063,2.248h-0.68l-1-2.12H21.617z M23.058,168.393
			c0.752,0,1.128-0.388,1.128-1.164c0-0.775-0.379-1.164-1.137-1.164h-1.432v2.328H23.058z"/>
		<path fill="#4D4D4D" d="M25.578,169.049c0-0.73,0.13-1.259,0.392-1.584s0.702-0.488,1.324-0.488c0.621,0,1.062,0.163,1.319,0.488
			c0.259,0.325,0.389,0.854,0.389,1.584s-0.123,1.261-0.368,1.592s-0.693,0.496-1.344,0.496c-0.651,0-1.099-0.165-1.345-0.496
			C25.7,170.31,25.578,169.779,25.578,169.049z M26.193,169.037c0,0.584,0.071,0.993,0.212,1.228
			c0.142,0.234,0.438,0.352,0.889,0.352c0.45,0,0.745-0.115,0.884-0.348c0.139-0.231,0.208-0.642,0.208-1.228
			c0-0.587-0.077-0.991-0.232-1.212c-0.154-0.222-0.441-0.332-0.859-0.332c-0.419,0-0.707,0.11-0.864,0.332
			C26.272,168.05,26.193,168.453,26.193,169.037z"/>
		<path fill="#4D4D4D" d="M31.474,166.977c0.176,0,0.475,0.032,0.896,0.096l0.192,0.024l-0.024,0.488
			c-0.427-0.048-0.741-0.072-0.943-0.072c-0.454,0-0.762,0.108-0.925,0.324c-0.162,0.216-0.243,0.616-0.243,1.2
			s0.075,0.99,0.228,1.22s0.468,0.344,0.948,0.344l0.943-0.072l0.024,0.496c-0.496,0.075-0.867,0.112-1.112,0.112
			c-0.624,0-1.055-0.16-1.292-0.48c-0.237-0.319-0.355-0.859-0.355-1.619c0-0.761,0.128-1.294,0.384-1.601
			S30.876,166.977,31.474,166.977z"/>
		<path fill="#4D4D4D" d="M34.065,171.057h-0.6v-5.744h0.6v3.393l0.624-0.032l1.145-1.616h0.68l-1.304,1.84l1.359,2.16h-0.68
			l-1.192-1.856l-0.632,0.024V171.057z"/>
		<path fill="#4D4D4D" d="M38.674,171.057l1.52-5.536h1.344l1.521,5.536h-0.608l-0.399-1.424h-2.368l-0.4,1.424H38.674z
			 M40.657,166.049l-0.84,3.032h2.096l-0.84-3.032H40.657z"/>
		<path fill="#4D4D4D" d="M45.081,167.513c-0.581,0-0.872,0.203-0.872,0.608c0,0.187,0.066,0.318,0.2,0.396
			c0.133,0.077,0.438,0.157,0.912,0.24s0.811,0.198,1.008,0.348s0.296,0.43,0.296,0.84c0,0.411-0.132,0.712-0.396,0.904
			c-0.265,0.192-0.649,0.288-1.156,0.288c-0.331,0-0.721-0.037-1.168-0.112l-0.24-0.04l0.032-0.52
			c0.607,0.091,1.066,0.136,1.376,0.136c0.309,0,0.545-0.049,0.708-0.147c0.162-0.099,0.244-0.265,0.244-0.496
			c0-0.232-0.069-0.39-0.208-0.473c-0.139-0.082-0.443-0.161-0.912-0.235c-0.47-0.075-0.803-0.185-1-0.328
			c-0.197-0.145-0.296-0.411-0.296-0.8c0-0.39,0.137-0.678,0.412-0.864c0.274-0.187,0.617-0.28,1.027-0.28
			c0.325,0,0.733,0.037,1.225,0.112l0.224,0.04l-0.016,0.512C45.889,167.556,45.422,167.513,45.081,167.513z"/>
		<path fill="#4D4D4D" d="M48.801,167.513c-0.581,0-0.872,0.203-0.872,0.608c0,0.187,0.066,0.318,0.2,0.396
			c0.133,0.077,0.438,0.157,0.912,0.24s0.811,0.198,1.008,0.348s0.296,0.43,0.296,0.84c0,0.411-0.132,0.712-0.396,0.904
			c-0.265,0.192-0.649,0.288-1.156,0.288c-0.331,0-0.721-0.037-1.168-0.112l-0.24-0.04l0.032-0.52
			c0.607,0.091,1.066,0.136,1.376,0.136c0.309,0,0.545-0.049,0.708-0.147c0.162-0.099,0.244-0.265,0.244-0.496
			c0-0.232-0.069-0.39-0.208-0.473c-0.139-0.082-0.443-0.161-0.912-0.235c-0.47-0.075-0.803-0.185-1-0.328
			c-0.197-0.145-0.296-0.411-0.296-0.8c0-0.39,0.137-0.678,0.412-0.864c0.274-0.187,0.617-0.28,1.027-0.28
			c0.325,0,0.733,0.037,1.225,0.112l0.224,0.04l-0.016,0.512C49.608,167.556,49.142,167.513,48.801,167.513z"/>
		<path fill="#4D4D4D" d="M53.985,170.561l0.232-0.023l0.016,0.472c-0.608,0.085-1.128,0.128-1.56,0.128
			c-0.576,0-0.984-0.167-1.225-0.5s-0.359-0.853-0.359-1.556c0-1.403,0.557-2.104,1.672-2.104c0.538,0,0.941,0.15,1.208,0.452
			s0.399,0.774,0.399,1.42l-0.031,0.456h-2.641c0,0.442,0.08,0.771,0.24,0.984c0.16,0.213,0.438,0.319,0.836,0.319
			S53.574,170.593,53.985,170.561z M53.77,168.824c0-0.49-0.079-0.837-0.236-1.04c-0.157-0.202-0.413-0.304-0.768-0.304
			s-0.621,0.106-0.8,0.32c-0.179,0.213-0.271,0.555-0.276,1.023H53.77z"/>
		<path fill="#4D4D4D" d="M57.354,167.576h-1.272v1.912c0,0.459,0.033,0.761,0.1,0.904c0.067,0.145,0.226,0.216,0.477,0.216
			l0.712-0.048l0.04,0.496c-0.357,0.059-0.63,0.088-0.816,0.088c-0.416,0-0.704-0.102-0.863-0.304c-0.16-0.203-0.24-0.59-0.24-1.16
			v-2.104h-0.568v-0.52h0.568v-1.224h0.592v1.224h1.272V167.576z"/>
		<path fill="#4D4D4D" d="M59.952,171.057v-5.536h1.112l1.568,4.68l1.567-4.68h1.112v5.536h-0.616v-4.88h-0.112l-1.607,4.68h-0.688
			l-1.607-4.68h-0.112v4.88H59.952z"/>
		<path fill="#4D4D4D" d="M69.394,168.265v2.048c0.016,0.197,0.17,0.314,0.464,0.353l-0.024,0.472c-0.421,0-0.738-0.106-0.952-0.32
			c-0.479,0.214-0.96,0.32-1.439,0.32c-0.368,0-0.648-0.104-0.84-0.312c-0.192-0.208-0.288-0.506-0.288-0.896
			s0.099-0.676,0.296-0.86c0.197-0.184,0.507-0.297,0.928-0.34l1.256-0.12v-0.344c0-0.272-0.059-0.467-0.176-0.584
			s-0.277-0.176-0.48-0.176c-0.427,0-0.869,0.026-1.327,0.08l-0.248,0.023l-0.024-0.456c0.587-0.117,1.106-0.176,1.56-0.176
			c0.454,0,0.783,0.104,0.988,0.312S69.394,167.822,69.394,168.265z M66.929,169.896c0,0.491,0.203,0.736,0.608,0.736
			c0.362,0,0.72-0.062,1.072-0.185l0.184-0.063v-1.32l-1.184,0.112c-0.24,0.021-0.414,0.091-0.521,0.208
			S66.929,169.673,66.929,169.896z"/>
		<path fill="#4D4D4D" d="M71.177,171.057h-0.6v-4h0.592v0.28c0.432-0.24,0.846-0.36,1.24-0.36c0.533,0,0.892,0.145,1.076,0.432
			c0.184,0.288,0.275,0.801,0.275,1.536v2.112h-0.592v-2.096c0-0.555-0.055-0.935-0.164-1.141c-0.109-0.205-0.343-0.308-0.7-0.308
			c-0.171,0-0.351,0.025-0.54,0.076s-0.334,0.1-0.436,0.147l-0.152,0.072V171.057z"/>
		<path fill="#4D4D4D" d="M77.697,168.265v2.048c0.016,0.197,0.17,0.314,0.464,0.353l-0.024,0.472c-0.421,0-0.738-0.106-0.952-0.32
			c-0.479,0.214-0.96,0.32-1.439,0.32c-0.368,0-0.648-0.104-0.84-0.312c-0.192-0.208-0.288-0.506-0.288-0.896
			s0.099-0.676,0.296-0.86c0.197-0.184,0.507-0.297,0.928-0.34l1.256-0.12v-0.344c0-0.272-0.059-0.467-0.176-0.584
			s-0.277-0.176-0.48-0.176c-0.427,0-0.869,0.026-1.327,0.08l-0.248,0.023l-0.024-0.456c0.587-0.117,1.106-0.176,1.56-0.176
			c0.454,0,0.783,0.104,0.988,0.312S77.697,167.822,77.697,168.265z M75.232,169.896c0,0.491,0.203,0.736,0.608,0.736
			c0.362,0,0.72-0.062,1.072-0.185l0.184-0.063v-1.32l-1.184,0.112c-0.24,0.021-0.414,0.091-0.521,0.208
			S75.232,169.673,75.232,169.896z"/>
		<path fill="#4D4D4D" d="M80.425,172.937c-0.64,0-1.087-0.087-1.34-0.26c-0.254-0.174-0.38-0.489-0.38-0.948
			c0-0.219,0.048-0.396,0.144-0.532c0.096-0.136,0.259-0.289,0.488-0.46c-0.149-0.101-0.225-0.285-0.225-0.552
			c0-0.091,0.067-0.259,0.2-0.504l0.072-0.128c-0.422-0.192-0.632-0.595-0.632-1.208c0-0.912,0.498-1.368,1.496-1.368
			c0.256,0,0.493,0.026,0.712,0.08l0.12,0.024l1.184-0.032v0.512l-0.76-0.016c0.176,0.176,0.264,0.442,0.264,0.8
			c0,0.501-0.124,0.852-0.372,1.052s-0.639,0.3-1.172,0.3c-0.144,0-0.274-0.011-0.392-0.031c-0.097,0.234-0.145,0.387-0.145,0.456
			c0,0.165,0.051,0.268,0.152,0.308s0.408,0.06,0.92,0.06s0.88,0.08,1.104,0.24c0.225,0.16,0.337,0.472,0.337,0.937
			C82.201,172.513,81.608,172.937,80.425,172.937z M79.297,171.681c0,0.282,0.078,0.479,0.235,0.588s0.448,0.164,0.872,0.164
			c0.425,0,0.729-0.059,0.912-0.176c0.185-0.117,0.276-0.313,0.276-0.588c0-0.275-0.066-0.452-0.2-0.532
			c-0.133-0.08-0.395-0.12-0.784-0.12l-0.863-0.04c-0.177,0.128-0.295,0.24-0.356,0.336S79.297,171.531,79.297,171.681z
			 M79.353,168.345c0,0.314,0.07,0.539,0.212,0.672c0.142,0.134,0.375,0.2,0.7,0.2s0.558-0.066,0.696-0.2
			c0.139-0.133,0.208-0.358,0.208-0.676s-0.069-0.543-0.208-0.676c-0.139-0.134-0.371-0.2-0.696-0.2s-0.559,0.067-0.7,0.204
			C79.423,167.805,79.353,168.03,79.353,168.345z"/>
		<path fill="#4D4D4D" d="M85.713,170.561l0.232-0.023l0.016,0.472c-0.608,0.085-1.128,0.128-1.56,0.128
			c-0.576,0-0.984-0.167-1.225-0.5s-0.359-0.853-0.359-1.556c0-1.403,0.557-2.104,1.672-2.104c0.538,0,0.941,0.15,1.208,0.452
			s0.399,0.774,0.399,1.42l-0.031,0.456h-2.641c0,0.442,0.08,0.771,0.24,0.984c0.16,0.213,0.438,0.319,0.836,0.319
			S85.302,170.593,85.713,170.561z M85.497,168.824c0-0.49-0.079-0.837-0.236-1.04c-0.157-0.202-0.413-0.304-0.768-0.304
			s-0.621,0.106-0.8,0.32c-0.179,0.213-0.271,0.555-0.276,1.023H85.497z"/>
		<path fill="#4D4D4D" d="M87.632,171.057h-0.6v-4h0.592v0.28c0.4-0.24,0.789-0.36,1.168-0.36c0.496,0,0.843,0.136,1.04,0.408
			c0.176-0.106,0.404-0.201,0.684-0.284c0.28-0.083,0.527-0.124,0.74-0.124c0.533,0,0.893,0.143,1.076,0.428
			c0.184,0.286,0.276,0.799,0.276,1.54v2.112h-0.601v-2.096c0-0.555-0.053-0.935-0.16-1.141c-0.106-0.205-0.333-0.308-0.68-0.308
			c-0.176,0-0.357,0.025-0.544,0.076s-0.331,0.1-0.432,0.147l-0.152,0.072c0.069,0.176,0.104,0.565,0.104,1.168v2.08h-0.601v-2.064
			c0-0.575-0.052-0.966-0.156-1.172c-0.104-0.205-0.332-0.308-0.684-0.308c-0.171,0-0.346,0.025-0.524,0.076s-0.315,0.1-0.412,0.147
			l-0.136,0.072V171.057z"/>
		<path fill="#4D4D4D" d="M96.44,170.561l0.232-0.023l0.016,0.472c-0.608,0.085-1.128,0.128-1.56,0.128
			c-0.576,0-0.984-0.167-1.225-0.5s-0.359-0.853-0.359-1.556c0-1.403,0.557-2.104,1.672-2.104c0.538,0,0.941,0.15,1.208,0.452
			s0.399,0.774,0.399,1.42l-0.031,0.456h-2.641c0,0.442,0.08,0.771,0.24,0.984c0.16,0.213,0.438,0.319,0.836,0.319
			S96.029,170.593,96.44,170.561z M96.225,168.824c0-0.49-0.079-0.837-0.236-1.04c-0.157-0.202-0.413-0.304-0.768-0.304
			s-0.621,0.106-0.8,0.32c-0.179,0.213-0.271,0.555-0.276,1.023H96.225z"/>
		<path fill="#4D4D4D" d="M98.36,171.057h-0.6v-4h0.592v0.28c0.432-0.24,0.846-0.36,1.24-0.36c0.533,0,0.892,0.145,1.076,0.432
			c0.184,0.288,0.275,0.801,0.275,1.536v2.112h-0.592v-2.096c0-0.555-0.055-0.935-0.164-1.141c-0.109-0.205-0.343-0.308-0.7-0.308
			c-0.171,0-0.351,0.025-0.54,0.076s-0.334,0.1-0.436,0.147l-0.152,0.072V171.057z"/>
		<path fill="#4D4D4D" d="M104.104,167.576h-1.272v1.912c0,0.459,0.033,0.761,0.1,0.904c0.067,0.145,0.226,0.216,0.477,0.216
			l0.712-0.048l0.04,0.496c-0.357,0.059-0.63,0.088-0.816,0.088c-0.416,0-0.704-0.102-0.863-0.304c-0.16-0.203-0.24-0.59-0.24-1.16
			v-2.104h-0.568v-0.52h0.568v-1.224h0.592v1.224h1.272V167.576z"/>
		<path fill="#4D4D4D" d="M4.874,180.656H2.897v-5.536h1.977c0.901,0,1.498,0.357,1.792,1.072c0.17,0.41,0.256,0.949,0.256,1.616
			c0,1.392-0.347,2.269-1.04,2.632C5.604,180.584,5.269,180.656,4.874,180.656z M6.29,177.809c0-1.062-0.237-1.723-0.712-1.984
			c-0.192-0.106-0.427-0.16-0.704-0.16h-1.36v4.448h1.36C5.817,180.112,6.29,179.345,6.29,177.809z"/>
		<path fill="#4D4D4D" d="M10.674,180.16l0.232-0.023l0.016,0.472c-0.608,0.085-1.128,0.128-1.56,0.128
			c-0.576,0-0.984-0.167-1.225-0.5s-0.359-0.853-0.359-1.556c0-1.403,0.557-2.104,1.672-2.104c0.538,0,0.941,0.15,1.208,0.452
			s0.399,0.774,0.399,1.42l-0.031,0.456H8.386c0,0.442,0.08,0.771,0.24,0.984c0.16,0.213,0.438,0.319,0.836,0.319
			S10.263,180.192,10.674,180.16z M10.458,178.424c0-0.49-0.079-0.837-0.236-1.04c-0.157-0.202-0.413-0.304-0.768-0.304
			s-0.621,0.106-0.8,0.32c-0.179,0.213-0.271,0.555-0.276,1.023H10.458z"/>
		<path fill="#4D4D4D" d="M14.49,176.656h0.6v4h-0.6v-0.28c-0.4,0.24-0.795,0.36-1.185,0.36c-0.544,0-0.905-0.142-1.084-0.424
			c-0.179-0.283-0.268-0.806-0.268-1.568v-2.088h0.6v2.08c0,0.581,0.051,0.971,0.152,1.168s0.33,0.296,0.688,0.296
			c0.177,0,0.355-0.025,0.536-0.076c0.182-0.051,0.32-0.1,0.416-0.147l0.145-0.072V176.656z"/>
		<path fill="#4D4D4D" d="M18.314,177.176h-1.272v1.912c0,0.459,0.033,0.761,0.1,0.904c0.067,0.145,0.226,0.216,0.477,0.216
			l0.712-0.048l0.04,0.496c-0.357,0.059-0.63,0.088-0.816,0.088c-0.416,0-0.704-0.102-0.863-0.304c-0.16-0.203-0.24-0.59-0.24-1.16
			v-2.104h-0.568v-0.52h0.568v-1.224h0.592v1.224h1.272V177.176z"/>
		<path fill="#4D4D4D" d="M20.306,177.112c-0.581,0-0.872,0.203-0.872,0.608c0,0.187,0.066,0.318,0.2,0.396
			c0.133,0.077,0.438,0.157,0.912,0.24s0.811,0.198,1.008,0.348s0.296,0.43,0.296,0.84c0,0.411-0.132,0.712-0.396,0.904
			c-0.265,0.192-0.649,0.288-1.156,0.288c-0.331,0-0.721-0.037-1.168-0.112l-0.24-0.04l0.032-0.52
			c0.607,0.091,1.066,0.136,1.376,0.136c0.309,0,0.545-0.049,0.708-0.147c0.162-0.099,0.244-0.265,0.244-0.496
			c0-0.232-0.069-0.39-0.208-0.473c-0.139-0.082-0.443-0.161-0.912-0.235c-0.47-0.075-0.803-0.185-1-0.328
			c-0.197-0.145-0.296-0.411-0.296-0.8c0-0.39,0.137-0.678,0.412-0.864c0.274-0.187,0.617-0.28,1.027-0.28
			c0.325,0,0.733,0.037,1.225,0.112l0.224,0.04l-0.016,0.512C21.113,177.155,20.646,177.112,20.306,177.112z"/>
		<path fill="#4D4D4D" d="M24.266,176.576c0.176,0,0.475,0.032,0.896,0.096l0.192,0.024l-0.024,0.488
			c-0.427-0.048-0.741-0.072-0.943-0.072c-0.454,0-0.762,0.108-0.925,0.324c-0.162,0.216-0.243,0.616-0.243,1.2
			s0.075,0.99,0.228,1.22s0.468,0.344,0.948,0.344l0.943-0.072l0.024,0.496c-0.496,0.075-0.867,0.112-1.112,0.112
			c-0.624,0-1.055-0.16-1.292-0.48c-0.237-0.319-0.355-0.859-0.355-1.619c0-0.761,0.128-1.294,0.384-1.601
			S23.668,176.576,24.266,176.576z"/>
		<path fill="#4D4D4D" d="M26.857,180.656h-0.6v-5.744h0.6v1.968c0.427-0.202,0.838-0.304,1.232-0.304
			c0.533,0,0.892,0.145,1.076,0.432c0.184,0.288,0.275,0.801,0.275,1.536v2.112h-0.6v-2.096c0-0.555-0.055-0.935-0.164-1.141
			c-0.109-0.205-0.34-0.308-0.692-0.308c-0.336,0-0.661,0.062-0.976,0.184l-0.152,0.057V180.656z"/>
		<path fill="#4D4D4D" d="M30.602,180.656v-5.744h0.6v5.744H30.602z"/>
		<path fill="#4D4D4D" d="M35.226,177.864v2.048c0.016,0.197,0.17,0.314,0.464,0.353l-0.024,0.472c-0.421,0-0.738-0.106-0.952-0.32
			c-0.479,0.214-0.96,0.32-1.439,0.32c-0.368,0-0.648-0.104-0.84-0.312c-0.192-0.208-0.288-0.506-0.288-0.896
			s0.099-0.676,0.296-0.86c0.197-0.184,0.507-0.297,0.928-0.34l1.256-0.12v-0.344c0-0.272-0.059-0.467-0.176-0.584
			s-0.277-0.176-0.48-0.176c-0.427,0-0.869,0.026-1.327,0.08l-0.248,0.023l-0.024-0.456c0.587-0.117,1.106-0.176,1.56-0.176
			c0.454,0,0.783,0.104,0.988,0.312S35.226,177.422,35.226,177.864z M32.761,179.496c0,0.491,0.203,0.736,0.608,0.736
			c0.362,0,0.72-0.062,1.072-0.185l0.184-0.063v-1.32l-1.184,0.112c-0.24,0.021-0.414,0.091-0.521,0.208
			S32.761,179.272,32.761,179.496z"/>
		<path fill="#4D4D4D" d="M37.009,180.656h-0.6v-4h0.592v0.28c0.432-0.24,0.846-0.36,1.24-0.36c0.533,0,0.892,0.145,1.076,0.432
			c0.184,0.288,0.275,0.801,0.275,1.536v2.112h-0.592v-2.096c0-0.555-0.055-0.935-0.164-1.141c-0.109-0.205-0.343-0.308-0.7-0.308
			c-0.171,0-0.351,0.025-0.54,0.076s-0.334,0.1-0.436,0.147l-0.152,0.072V180.656z"/>
		<path fill="#4D4D4D" d="M43.777,174.912v5.744h-0.593v-0.272c-0.41,0.235-0.815,0.353-1.216,0.353c-0.213,0-0.399-0.026-0.56-0.08
			s-0.31-0.149-0.448-0.288c-0.288-0.288-0.432-0.82-0.432-1.596c0-0.776,0.129-1.336,0.388-1.681
			c0.259-0.344,0.687-0.516,1.284-0.516c0.309,0,0.637,0.035,0.983,0.104v-1.769H43.777z M41.697,180.145
			c0.096,0.037,0.22,0.056,0.372,0.056c0.151,0,0.322-0.025,0.512-0.076s0.337-0.1,0.444-0.147l0.159-0.072v-2.712
			c-0.341-0.064-0.658-0.096-0.952-0.096c-0.405,0-0.688,0.129-0.848,0.388s-0.24,0.66-0.24,1.204c0,0.618,0.094,1.034,0.28,1.248
			C41.51,180.038,41.601,180.107,41.697,180.145z"/>
		<path fill="#4D4D4D" d="M46.312,180.656l1.52-5.536h1.344l1.521,5.536h-0.608l-0.399-1.424H47.32l-0.4,1.424H46.312z
			 M48.296,175.648l-0.84,3.032h2.096l-0.84-3.032H48.296z"/>
		<path fill="#4D4D4D" d="M53.664,178.376v-0.552h1.528v2.72c-0.673,0.128-1.272,0.192-1.801,0.192
			c-0.805,0-1.363-0.232-1.676-0.696c-0.312-0.464-0.468-1.18-0.468-2.147c0-0.969,0.156-1.686,0.468-2.152
			c0.312-0.467,0.865-0.7,1.66-0.7c0.496,0,1.011,0.054,1.544,0.16l0.272,0.048l-0.024,0.512c-0.661-0.111-1.234-0.168-1.72-0.168
			c-0.613,0-1.027,0.178-1.24,0.532c-0.214,0.354-0.32,0.944-0.32,1.769c0,0.823,0.106,1.413,0.32,1.768
			c0.213,0.354,0.624,0.532,1.232,0.532c0.373,0,0.754-0.037,1.144-0.112v-1.704H53.664z"/>
		<path fill="#4D4D4D" d="M58.72,181.656c-0.555-1.248-0.832-2.384-0.832-3.408c0-0.512,0.069-1.067,0.208-1.668
			c0.139-0.6,0.277-1.07,0.416-1.412l0.208-0.512h0.576c-0.188,0.491-0.36,1.098-0.521,1.82s-0.24,1.312-0.24,1.768
			s0.064,0.968,0.192,1.536s0.256,1.022,0.384,1.364l0.185,0.512H58.72z"/>
		<path fill="#4D4D4D" d="M60.168,175.752v-0.695h0.6v0.695H60.168z M60.168,180.656v-4h0.6v4H60.168z"/>
		<path fill="#4D4D4D" d="M63.552,175.576c-0.8,0-1.2,0.302-1.2,0.904c0,0.336,0.092,0.566,0.276,0.691
			c0.184,0.126,0.557,0.251,1.12,0.376c0.562,0.126,0.961,0.288,1.195,0.488c0.235,0.2,0.353,0.529,0.353,0.988
			c0,1.136-0.59,1.704-1.769,1.704c-0.389,0-0.877-0.046-1.464-0.137l-0.288-0.039l0.064-0.513c0.726,0.097,1.277,0.145,1.656,0.145
			c0.789,0,1.184-0.371,1.184-1.112c0-0.299-0.087-0.514-0.26-0.644c-0.174-0.131-0.497-0.242-0.973-0.332
			c-0.623-0.134-1.066-0.306-1.327-0.517c-0.262-0.211-0.393-0.563-0.393-1.06c0-0.992,0.595-1.488,1.784-1.488
			c0.39,0,0.856,0.04,1.4,0.12l0.271,0.04l-0.056,0.52C64.387,175.622,63.861,175.576,63.552,175.576z"/>
		<path fill="#4D4D4D" d="M66.855,180.656h-0.6v-5.744h0.6v1.968c0.427-0.202,0.838-0.304,1.232-0.304
			c0.533,0,0.892,0.145,1.076,0.432c0.184,0.288,0.275,0.801,0.275,1.536v2.112h-0.6v-2.096c0-0.555-0.055-0.935-0.164-1.141
			c-0.109-0.205-0.34-0.308-0.692-0.308c-0.336,0-0.661,0.062-0.976,0.184l-0.152,0.057V180.656z"/>
		<path fill="#4D4D4D" d="M73.376,177.864v2.048c0.016,0.197,0.17,0.314,0.464,0.353l-0.024,0.472c-0.421,0-0.738-0.106-0.952-0.32
			c-0.479,0.214-0.96,0.32-1.439,0.32c-0.368,0-0.648-0.104-0.84-0.312c-0.192-0.208-0.288-0.506-0.288-0.896
			s0.099-0.676,0.296-0.86c0.197-0.184,0.507-0.297,0.928-0.34l1.256-0.12v-0.344c0-0.272-0.059-0.467-0.176-0.584
			s-0.277-0.176-0.48-0.176c-0.427,0-0.869,0.026-1.327,0.08l-0.248,0.023l-0.024-0.456c0.587-0.117,1.106-0.176,1.56-0.176
			c0.454,0,0.783,0.104,0.988,0.312S73.376,177.422,73.376,177.864z M70.911,179.496c0,0.491,0.203,0.736,0.608,0.736
			c0.362,0,0.72-0.062,1.072-0.185l0.184-0.063v-1.32l-1.184,0.112c-0.24,0.021-0.414,0.091-0.521,0.208
			S70.911,179.272,70.911,179.496z"/>
		<path fill="#4D4D4D" d="M74.56,180.656v-4h0.592v0.544c0.464-0.32,0.952-0.53,1.464-0.632v0.607c-0.224,0.043-0.457,0.109-0.7,0.2
			c-0.242,0.091-0.428,0.171-0.556,0.24l-0.2,0.104v2.936H74.56z"/>
		<path fill="#4D4D4D" d="M79.967,180.16l0.232-0.023l0.016,0.472c-0.608,0.085-1.128,0.128-1.56,0.128
			c-0.576,0-0.984-0.167-1.225-0.5s-0.359-0.853-0.359-1.556c0-1.403,0.557-2.104,1.672-2.104c0.538,0,0.941,0.15,1.208,0.452
			s0.399,0.774,0.399,1.42l-0.031,0.456h-2.641c0,0.442,0.08,0.771,0.24,0.984c0.16,0.213,0.438,0.319,0.836,0.319
			S79.556,180.192,79.967,180.16z M79.751,178.424c0-0.49-0.079-0.837-0.236-1.04c-0.157-0.202-0.413-0.304-0.768-0.304
			s-0.621,0.106-0.8,0.32c-0.179,0.213-0.271,0.555-0.276,1.023H79.751z"/>
		<path fill="#4D4D4D" d="M82.543,177.112c-0.581,0-0.872,0.203-0.872,0.608c0,0.187,0.066,0.318,0.2,0.396
			c0.133,0.077,0.438,0.157,0.912,0.24s0.811,0.198,1.008,0.348s0.296,0.43,0.296,0.84c0,0.411-0.132,0.712-0.396,0.904
			c-0.265,0.192-0.649,0.288-1.156,0.288c-0.331,0-0.721-0.037-1.168-0.112l-0.24-0.04l0.032-0.52
			c0.607,0.091,1.066,0.136,1.376,0.136c0.309,0,0.545-0.049,0.708-0.147c0.162-0.099,0.244-0.265,0.244-0.496
			c0-0.232-0.069-0.39-0.208-0.473c-0.139-0.082-0.443-0.161-0.912-0.235c-0.47-0.075-0.803-0.185-1-0.328
			c-0.197-0.145-0.296-0.411-0.296-0.8c0-0.39,0.137-0.678,0.412-0.864c0.274-0.187,0.617-0.28,1.027-0.28
			c0.325,0,0.733,0.037,1.225,0.112l0.224,0.04l-0.016,0.512C83.351,177.155,82.884,177.112,82.543,177.112z"/>
		<path fill="#4D4D4D" d="M86.007,177.208c0.059,0.374,0.088,0.769,0.088,1.185s-0.069,0.907-0.208,1.476s-0.277,1.007-0.416,1.316
			l-0.208,0.472h-0.576c0.182-0.427,0.354-0.988,0.516-1.684c0.163-0.696,0.244-1.272,0.244-1.729s-0.062-0.982-0.188-1.58
			c-0.126-0.597-0.252-1.08-0.38-1.448l-0.192-0.56h0.576C85.614,175.451,85.862,176.302,86.007,177.208z"/>
		<path fill="#4D4D4D" d="M117.535,180.656v-1.032h-2.56v-0.479l1.504-3.769h0.672l-1.528,3.704h1.912v-1.647h0.616v1.647h0.672
			v0.544h-0.672v1.032H117.535z"/>
		<path fill="#4D4D4D" d="M121.367,175.288c0.437,0,0.792,0.083,1.063,0.248c0.576,0.342,0.864,1.195,0.864,2.561
			c0,0.965-0.16,1.646-0.48,2.044c-0.319,0.397-0.8,0.596-1.439,0.596c-0.641,0-1.122-0.196-1.444-0.588
			c-0.322-0.393-0.484-1.091-0.484-2.096c0-1.006,0.159-1.718,0.477-2.137C120.24,175.498,120.722,175.288,121.367,175.288z
			 M121.375,175.84c-0.305,0-0.544,0.064-0.721,0.192c-0.378,0.262-0.567,0.952-0.567,2.072c0,0.789,0.104,1.335,0.312,1.636
			c0.208,0.302,0.533,0.452,0.977,0.452c0.442,0,0.768-0.152,0.976-0.456s0.312-0.868,0.312-1.692c0-0.823-0.101-1.396-0.301-1.72
			C122.163,176.002,121.833,175.84,121.375,175.84z"/>
		<path fill="#4D4D4D" d="M123.888,181.641l0.367-1.841h0.664l-0.536,1.841H123.888z"/>
		<path fill="#4D4D4D" d="M126.016,175.937v-0.561h3.28v0.809l-2.032,4.552l-0.584-0.184l1.992-4.408v-0.208H126.016z"/>
		<path fill="#4D4D4D" d="M132.318,180.656v-5.536h1.112l1.568,4.68l1.567-4.68h1.112v5.536h-0.616v-4.88h-0.112l-1.607,4.68h-0.688
			l-1.607-4.68h-0.112v4.88H132.318z"/>
		<path fill="#4D4D4D" d="M138.935,180.656v-4h0.592v0.544c0.464-0.32,0.952-0.53,1.464-0.632v0.607
			c-0.224,0.043-0.457,0.109-0.7,0.2c-0.242,0.091-0.428,0.171-0.556,0.24l-0.2,0.104v2.936H138.935z"/>
		<path fill="#4D4D4D" d="M144.671,174.912v5.744h-0.593v-0.272c-0.41,0.235-0.815,0.353-1.216,0.353
			c-0.213,0-0.399-0.026-0.56-0.08s-0.31-0.149-0.448-0.288c-0.288-0.288-0.432-0.82-0.432-1.596c0-0.776,0.129-1.336,0.388-1.681
			c0.259-0.344,0.687-0.516,1.284-0.516c0.309,0,0.637,0.035,0.983,0.104v-1.769H144.671z M142.591,180.145
			c0.096,0.037,0.22,0.056,0.372,0.056c0.151,0,0.322-0.025,0.512-0.076s0.337-0.1,0.444-0.147l0.159-0.072v-2.712
			c-0.341-0.064-0.658-0.096-0.952-0.096c-0.405,0-0.688,0.129-0.848,0.388s-0.24,0.66-0.24,1.204c0,0.618,0.094,1.034,0.28,1.248
			C142.403,180.038,142.494,180.107,142.591,180.145z"/>
		<path fill="#4D4D4D" d="M147.254,177.632v-0.487h0.512c0.064-0.635,0.238-1.102,0.524-1.4c0.285-0.299,0.742-0.448,1.372-0.448
			c0.447,0,0.933,0.057,1.455,0.168l-0.023,0.496c-0.485-0.091-0.947-0.136-1.384-0.136c-0.438,0-0.756,0.104-0.956,0.312
			s-0.324,0.544-0.372,1.008h2.288v0.487h-2.32c-0.005,0.086-0.008,0.219-0.008,0.4v0.36h2.328v0.487h-2.296
			c0.048,0.465,0.172,0.802,0.372,1.013c0.199,0.21,0.521,0.315,0.964,0.315c0.442,0,0.903-0.048,1.384-0.144l0.023,0.504
			c-0.527,0.112-1.013,0.168-1.455,0.168c-0.63,0-1.087-0.152-1.372-0.456c-0.286-0.304-0.463-0.771-0.532-1.4h-0.504v-0.487h0.479
			c-0.005-0.075-0.008-0.199-0.008-0.372c0-0.174,0.003-0.303,0.008-0.389H147.254z"/>
	</g>
</g>
<g>
	<g>
		<path fill="#4D4D4D" d="M166,174.567h-12.003v-1.515l6.019-2.913l5.984,2.913V174.567z M154.431,174.127h11.134v-0.797
			l-5.55-2.702l-5.584,2.702V174.127z"/>
	</g>
	<g>
		<path fill="#4D4D4D" d="M165.114,181.706h-2.138v-6.131h2.138V181.706z M163.402,181.274h1.285v-5.266h-1.285V181.274z"/>
	</g>
	<g>
		<path fill="#4D4D4D" d="M157.075,181.706h-2.138v-6.131h2.138V181.706z M155.364,181.274h1.285v-5.266h-1.285V181.274z"/>
	</g>
	<g>
		<path fill="#4D4D4D" d="M159.539,176.627c-0.162,0-0.301,0.066-0.418,0.194c-0.118,0.134-0.178,0.289-0.178,0.462v1.601
			c0,0.06,0.019,0.114,0.06,0.158c0.039,0.043,0.087,0.063,0.142,0.063c0.063,0,0.111-0.02,0.15-0.063
			c0.034-0.044,0.051-0.098,0.051-0.158v-1.432h0.105v3.964c0,0.076,0.03,0.147,0.087,0.201c0.054,0.06,0.117,0.086,0.189,0.086
			c0.078,0,0.141-0.026,0.193-0.086c0.054-0.054,0.079-0.125,0.079-0.201v-2.298h0.117v2.298c0,0.076,0.027,0.147,0.078,0.201
			c0.051,0.06,0.118,0.086,0.199,0.086c0.069,0,0.129-0.026,0.184-0.086c0.051-0.054,0.074-0.125,0.074-0.201v-3.964h0.109v1.432
			c0,0.06,0.017,0.114,0.053,0.158c0.043,0.043,0.093,0.063,0.147,0.063c0.064,0,0.112-0.02,0.148-0.063
			c0.033-0.044,0.053-0.098,0.053-0.158v-1.601c0-0.173-0.057-0.329-0.175-0.462c-0.115-0.128-0.252-0.194-0.421-0.194
			L159.539,176.627L159.539,176.627z"/>
		<path fill="#4D4D4D" d="M160.056,176.478c0.126,0,0.238-0.042,0.328-0.13c0.09-0.09,0.135-0.202,0.135-0.337
			c0-0.128-0.046-0.238-0.136-0.329c-0.09-0.093-0.201-0.14-0.327-0.14c-0.133,0-0.244,0.047-0.328,0.14
			c-0.09,0.091-0.132,0.201-0.132,0.329c0,0.135,0.042,0.247,0.132,0.337C159.813,176.436,159.924,176.478,160.056,176.478z"/>
	</g>
</g>
<line fill="none" stroke="#4D4D4D" stroke-miterlimit="10" x1="0.111" y1="182.916" x2="165.5" y2="182.916"/>
</svg>
