<?xml version="1.0" encoding="utf-8"?>
<!-- Generator: Adobe Illustrator 21.1.0, SVG Export Plug-In . SVG Version: 6.00 Build 0)  -->
<svg version="1.1" id="Ebene_1" xmlns="http://www.w3.org/2000/svg" xmlns:xlink="http://www.w3.org/1999/xlink" x="0px" y="0px"
	 viewBox="0 0 200 200" enable-background="new 0 0 200 200" xml:space="preserve">
<rect x="0.333" y="0.333" fill="#FFFFFF" width="200" height="200.667"/>
<rect x="0.953" y="1.719" fill="#00B8FA" width="94.891" height="28.028"/>
<rect x="0.953" y="77.631" fill="#CCCCCC" width="94.891" height="47.033"/>
<line fill="none" stroke="#4D4D4D" stroke-miterlimit="10" x1="88.894" y1="29.776" x2="191.167" y2="29.776"/>
<g>
	<g>
		<path fill="#4D4D4D" d="M116.293,23.633c0.501-0.149,1.038-0.225,1.612-0.225c0.573,0,0.987,0.109,1.243,0.328
			c0.257,0.219,0.385,0.568,0.385,1.048c0,0.245-0.034,0.423-0.101,0.532s-0.12,0.193-0.16,0.252s-0.092,0.115-0.155,0.168
			c-0.118,0.091-0.211,0.155-0.28,0.192l-0.088,0.056c0.309,0.112,0.538,0.255,0.688,0.428c0.149,0.174,0.225,0.458,0.225,0.853
			c0,0.538-0.138,0.938-0.412,1.2c-0.275,0.261-0.708,0.392-1.3,0.392c-0.47,0-0.966-0.054-1.488-0.16l-0.248-0.056l0.056-0.504
			c0.576,0.117,1.115,0.176,1.616,0.176c0.763-0.006,1.144-0.347,1.144-1.024c0-0.635-0.362-0.965-1.088-0.992h-1.063v-0.527h1.063
			c0.225,0,0.44-0.09,0.648-0.269s0.312-0.414,0.312-0.708c0-0.293-0.082-0.505-0.248-0.636c-0.165-0.131-0.442-0.196-0.832-0.196
			c-0.426,0-0.848,0.04-1.264,0.12l-0.208,0.04L116.293,23.633z"/>
		<path fill="#4D4D4D" d="M122.43,23.408c0.437,0,0.792,0.083,1.063,0.248c0.576,0.342,0.864,1.195,0.864,2.561
			c0,0.965-0.16,1.646-0.48,2.044c-0.319,0.397-0.8,0.596-1.439,0.596c-0.641,0-1.122-0.196-1.444-0.588
			c-0.322-0.393-0.484-1.091-0.484-2.096c0-1.006,0.159-1.718,0.477-2.137C121.303,23.618,121.784,23.408,122.43,23.408z
			 M122.438,23.96c-0.305,0-0.544,0.064-0.721,0.192c-0.378,0.262-0.567,0.952-0.567,2.072c0,0.789,0.104,1.335,0.312,1.636
			c0.208,0.302,0.533,0.452,0.977,0.452c0.442,0,0.768-0.152,0.976-0.456s0.312-0.868,0.312-1.692c0-0.823-0.101-1.396-0.301-1.72
			C123.226,24.122,122.896,23.96,122.438,23.96z"/>
		<path fill="#4D4D4D" d="M129.094,28.776h-1.977V23.24h1.977c0.901,0,1.498,0.357,1.792,1.072c0.17,0.41,0.256,0.949,0.256,1.616
			c0,1.392-0.347,2.269-1.04,2.632C129.824,28.704,129.488,28.776,129.094,28.776z M130.51,25.929c0-1.062-0.237-1.723-0.712-1.984
			c-0.192-0.106-0.427-0.16-0.704-0.16h-1.36v4.448h1.36C130.037,28.232,130.51,27.465,130.51,25.929z"/>
		<path fill="#4D4D4D" d="M131.678,28.776l1.52-5.536h1.344l1.521,5.536h-0.608l-0.399-1.424h-2.368l-0.4,1.424H131.678z
			 M133.661,23.769l-0.84,3.032h2.096l-0.84-3.032H133.661z"/>
		<path fill="#4D4D4D" d="M137.101,23.24l1.4,2.368l1.408-2.368h0.664l-1.704,2.809l1.704,2.728h-0.696l-1.392-2.296l-1.416,2.296
			h-0.664l1.712-2.712l-1.712-2.824H137.101z"/>
		<path fill="#4D4D4D" d="M140.957,26.856v-0.561h2.424v0.561H140.957z"/>
		<path fill="#4D4D4D" d="M145.173,27.112c0,0.8,0.433,1.2,1.296,1.2c0.448,0,0.785-0.095,1.013-0.284
			c0.227-0.189,0.34-0.494,0.34-0.916V23.24h0.607v3.856c0,0.618-0.164,1.066-0.492,1.344c-0.327,0.277-0.812,0.416-1.451,0.416
			c-0.641,0-1.122-0.139-1.444-0.416c-0.323-0.277-0.484-0.726-0.484-1.344V23.24h0.616V27.112z"/>
		<path fill="#4D4D4D" d="M150.245,28.776h-0.6v-4h0.592v0.28c0.432-0.24,0.846-0.36,1.24-0.36c0.533,0,0.892,0.145,1.076,0.432
			c0.184,0.288,0.275,0.801,0.275,1.536v2.112h-0.592v-2.096c0-0.555-0.055-0.935-0.164-1.141c-0.109-0.205-0.343-0.308-0.7-0.308
			c-0.171,0-0.351,0.025-0.54,0.076s-0.334,0.1-0.436,0.147l-0.152,0.072V28.776z"/>
		<path fill="#4D4D4D" d="M155.99,25.296h-1.272v1.912c0,0.459,0.033,0.761,0.1,0.904c0.067,0.145,0.226,0.216,0.477,0.216
			l0.712-0.048l0.04,0.496c-0.357,0.059-0.63,0.088-0.816,0.088c-0.416,0-0.704-0.102-0.863-0.304c-0.16-0.203-0.24-0.59-0.24-1.16
			v-2.104h-0.568v-0.52h0.568v-1.224h0.592v1.224h1.272V25.296z"/>
		<path fill="#4D4D4D" d="M159.445,28.28l0.232-0.023l0.016,0.472c-0.608,0.085-1.128,0.128-1.56,0.128
			c-0.576,0-0.984-0.167-1.225-0.5s-0.359-0.853-0.359-1.556c0-1.403,0.557-2.104,1.672-2.104c0.538,0,0.941,0.15,1.208,0.452
			s0.399,0.774,0.399,1.42l-0.031,0.456h-2.641c0,0.442,0.08,0.771,0.24,0.984c0.16,0.213,0.438,0.319,0.836,0.319
			S159.034,28.312,159.445,28.28z M159.229,26.544c0-0.49-0.079-0.837-0.236-1.04c-0.157-0.202-0.413-0.304-0.768-0.304
			s-0.621,0.106-0.8,0.32c-0.179,0.213-0.271,0.555-0.276,1.023H159.229z"/>
		<path fill="#4D4D4D" d="M160.766,28.776v-4h0.592v0.544c0.464-0.32,0.952-0.53,1.464-0.632v0.607
			c-0.224,0.043-0.457,0.109-0.7,0.2c-0.242,0.091-0.428,0.171-0.556,0.24l-0.2,0.104v2.936H160.766z"/>
		<path fill="#4D4D4D" d="M164.133,28.776h-0.6v-4h0.592v0.28c0.432-0.24,0.846-0.36,1.24-0.36c0.533,0,0.892,0.145,1.076,0.432
			c0.184,0.288,0.275,0.801,0.275,1.536v2.112h-0.592v-2.096c0-0.555-0.055-0.935-0.164-1.141c-0.109-0.205-0.343-0.308-0.7-0.308
			c-0.171,0-0.351,0.025-0.54,0.076s-0.334,0.1-0.436,0.147l-0.152,0.072V28.776z"/>
		<path fill="#4D4D4D" d="M170.549,28.28l0.232-0.023l0.016,0.472c-0.608,0.085-1.128,0.128-1.56,0.128
			c-0.576,0-0.984-0.167-1.225-0.5s-0.359-0.853-0.359-1.556c0-1.403,0.557-2.104,1.672-2.104c0.538,0,0.941,0.15,1.208,0.452
			s0.399,0.774,0.399,1.42l-0.031,0.456h-2.641c0,0.442,0.08,0.771,0.24,0.984c0.16,0.213,0.438,0.319,0.836,0.319
			S170.138,28.312,170.549,28.28z M170.333,26.544c0-0.49-0.079-0.837-0.236-1.04c-0.157-0.202-0.413-0.304-0.768-0.304
			s-0.621,0.106-0.8,0.32c-0.179,0.213-0.271,0.555-0.276,1.023H170.333z"/>
		<path fill="#4D4D4D" d="M172.469,28.776h-0.6v-5.744h0.6V25c0.427-0.202,0.838-0.304,1.232-0.304c0.533,0,0.892,0.145,1.076,0.432
			c0.184,0.288,0.275,0.801,0.275,1.536v2.112h-0.6v-2.096c0-0.555-0.055-0.935-0.164-1.141c-0.109-0.205-0.34-0.308-0.692-0.308
			c-0.336,0-0.661,0.062-0.976,0.184l-0.152,0.057V28.776z"/>
		<path fill="#4D4D4D" d="M176.765,28.776h-0.6v-4h0.592v0.28c0.4-0.24,0.789-0.36,1.168-0.36c0.496,0,0.843,0.136,1.04,0.408
			c0.176-0.106,0.404-0.201,0.684-0.284c0.28-0.083,0.527-0.124,0.74-0.124c0.533,0,0.893,0.143,1.076,0.428
			c0.184,0.286,0.276,0.799,0.276,1.54v2.112h-0.601v-2.096c0-0.555-0.053-0.935-0.16-1.141c-0.106-0.205-0.333-0.308-0.68-0.308
			c-0.176,0-0.357,0.025-0.544,0.076s-0.331,0.1-0.432,0.147l-0.152,0.072c0.069,0.176,0.104,0.565,0.104,1.168v2.08h-0.601v-2.064
			c0-0.575-0.052-0.966-0.156-1.172c-0.104-0.205-0.332-0.308-0.684-0.308c-0.171,0-0.346,0.025-0.524,0.076s-0.315,0.1-0.412,0.147
			l-0.136,0.072V28.776z"/>
		<path fill="#4D4D4D" d="M185.573,28.28l0.232-0.023l0.016,0.472c-0.608,0.085-1.128,0.128-1.56,0.128
			c-0.576,0-0.984-0.167-1.225-0.5s-0.359-0.853-0.359-1.556c0-1.403,0.557-2.104,1.672-2.104c0.538,0,0.941,0.15,1.208,0.452
			s0.399,0.774,0.399,1.42l-0.031,0.456h-2.641c0,0.442,0.08,0.771,0.24,0.984c0.16,0.213,0.438,0.319,0.836,0.319
			S185.162,28.312,185.573,28.28z M185.357,26.544c0-0.49-0.079-0.837-0.236-1.04c-0.157-0.202-0.413-0.304-0.768-0.304
			s-0.621,0.106-0.8,0.32c-0.179,0.213-0.271,0.555-0.276,1.023H185.357z"/>
		<path fill="#4D4D4D" d="M187.493,28.776h-0.6v-4h0.592v0.28c0.432-0.24,0.846-0.36,1.24-0.36c0.533,0,0.892,0.145,1.076,0.432
			c0.184,0.288,0.275,0.801,0.275,1.536v2.112h-0.592v-2.096c0-0.555-0.055-0.935-0.164-1.141c-0.109-0.205-0.343-0.308-0.7-0.308
			c-0.171,0-0.351,0.025-0.54,0.076s-0.334,0.1-0.436,0.147l-0.152,0.072V28.776z"/>
	</g>
</g>
<line fill="none" stroke="#4D4D4D" stroke-miterlimit="10" x1="89.56" y1="77.276" x2="191.708" y2="77.276"/>
<g>
	<g>
		<path fill="#4D4D4D" d="M114.013,70.579v0.561h-2.568l-0.145,1.72c0.411-0.219,0.824-0.328,1.24-0.328
			c1.12,0,1.681,0.521,1.681,1.561c0,0.597-0.155,1.053-0.465,1.367c-0.309,0.315-0.743,0.473-1.304,0.473
			c-0.448,0-0.944-0.059-1.488-0.176l-0.264-0.057l0.072-0.488c0.613,0.118,1.129,0.177,1.548,0.177s0.734-0.108,0.948-0.324
			c0.213-0.216,0.319-0.519,0.319-0.908c0-0.389-0.097-0.665-0.292-0.828c-0.194-0.162-0.471-0.244-0.827-0.244
			c-0.192,0-0.394,0.027-0.604,0.08c-0.211,0.054-0.372,0.107-0.484,0.16l-0.168,0.08l-0.424-0.08l0.145-2.744H114.013z"/>
		<path fill="#4D4D4D" d="M116.909,70.491c0.437,0,0.792,0.083,1.063,0.248c0.576,0.342,0.864,1.195,0.864,2.561
			c0,0.965-0.16,1.646-0.48,2.044c-0.319,0.397-0.8,0.596-1.439,0.596c-0.641,0-1.122-0.196-1.444-0.588
			c-0.322-0.393-0.484-1.091-0.484-2.096c0-1.006,0.159-1.718,0.477-2.137C115.782,70.701,116.264,70.491,116.909,70.491z
			 M116.917,71.043c-0.305,0-0.544,0.064-0.721,0.192c-0.378,0.262-0.567,0.952-0.567,2.072c0,0.789,0.104,1.335,0.312,1.636
			c0.208,0.302,0.533,0.452,0.977,0.452c0.442,0,0.768-0.152,0.976-0.456s0.312-0.868,0.312-1.692c0-0.823-0.101-1.396-0.301-1.72
			C117.705,71.205,117.375,71.043,116.917,71.043z"/>
		<path fill="#4D4D4D" d="M121.597,75.859v-5.536h1.112l1.568,4.68l1.567-4.68h1.112v5.536h-0.616v-4.88h-0.112l-1.607,4.68h-0.688
			l-1.607-4.68h-0.112v4.88H121.597z"/>
		<path fill="#4D4D4D" d="M130.293,75.859h-1.977v-5.536h1.977c0.901,0,1.498,0.357,1.792,1.072c0.17,0.41,0.256,0.949,0.256,1.616
			c0,1.392-0.347,2.269-1.04,2.632C131.023,75.787,130.688,75.859,130.293,75.859z M131.709,73.012c0-1.062-0.237-1.723-0.712-1.984
			c-0.192-0.106-0.427-0.16-0.704-0.16h-1.36v4.448h1.36C131.236,75.315,131.709,74.548,131.709,73.012z"/>
		<path fill="#4D4D4D" d="M132.877,75.859l1.52-5.536h1.344l1.521,5.536h-0.608l-0.399-1.424h-2.368l-0.4,1.424H132.877z
			 M134.86,70.852l-0.84,3.032h2.096l-0.84-3.032H134.86z"/>
		<path fill="#4D4D4D" d="M138.3,70.323l1.4,2.368l1.408-2.368h0.664l-1.704,2.809l1.704,2.728h-0.696l-1.392-2.296l-1.416,2.296
			h-0.664l1.712-2.712l-1.712-2.824H138.3z"/>
		<path fill="#4D4D4D" d="M142.156,73.939v-0.561h2.424v0.561H142.156z"/>
		<path fill="#4D4D4D" d="M146.372,74.195c0,0.8,0.433,1.2,1.296,1.2c0.448,0,0.785-0.095,1.013-0.284
			c0.227-0.189,0.34-0.494,0.34-0.916v-3.872h0.607v3.856c0,0.618-0.164,1.066-0.492,1.344c-0.327,0.277-0.812,0.416-1.451,0.416
			c-0.641,0-1.122-0.139-1.444-0.416c-0.323-0.277-0.484-0.726-0.484-1.344v-3.856h0.616V74.195z"/>
		<path fill="#4D4D4D" d="M151.444,75.859h-0.6v-4h0.592v0.28c0.432-0.24,0.846-0.36,1.24-0.36c0.533,0,0.892,0.145,1.076,0.432
			c0.184,0.288,0.275,0.801,0.275,1.536v2.112h-0.592v-2.096c0-0.555-0.055-0.935-0.164-1.141c-0.109-0.205-0.343-0.308-0.7-0.308
			c-0.171,0-0.351,0.025-0.54,0.076s-0.334,0.1-0.436,0.147l-0.152,0.072V75.859z"/>
		<path fill="#4D4D4D" d="M157.189,72.379h-1.272v1.912c0,0.459,0.033,0.761,0.1,0.904c0.067,0.145,0.226,0.216,0.477,0.216
			l0.712-0.048l0.04,0.496c-0.357,0.059-0.63,0.088-0.816,0.088c-0.416,0-0.704-0.102-0.863-0.304c-0.16-0.203-0.24-0.59-0.24-1.16
			v-2.104h-0.568v-0.52h0.568v-1.224h0.592v1.224h1.272V72.379z"/>
		<path fill="#4D4D4D" d="M160.645,75.363l0.232-0.023l0.016,0.472c-0.608,0.085-1.128,0.128-1.56,0.128
			c-0.576,0-0.984-0.167-1.225-0.5s-0.359-0.853-0.359-1.556c0-1.403,0.557-2.104,1.672-2.104c0.538,0,0.941,0.15,1.208,0.452
			s0.399,0.774,0.399,1.42l-0.031,0.456h-2.641c0,0.442,0.08,0.771,0.24,0.984c0.16,0.213,0.438,0.319,0.836,0.319
			S160.233,75.396,160.645,75.363z M160.429,73.627c0-0.49-0.079-0.837-0.236-1.04c-0.157-0.202-0.413-0.304-0.768-0.304
			s-0.621,0.106-0.8,0.32c-0.179,0.213-0.271,0.555-0.276,1.023H160.429z"/>
		<path fill="#4D4D4D" d="M161.965,75.859v-4h0.592v0.544c0.464-0.32,0.952-0.53,1.464-0.632v0.607
			c-0.224,0.043-0.457,0.109-0.7,0.2c-0.242,0.091-0.428,0.171-0.556,0.24l-0.2,0.104v2.936H161.965z"/>
		<path fill="#4D4D4D" d="M165.332,75.859h-0.6v-4h0.592v0.28c0.432-0.24,0.846-0.36,1.24-0.36c0.533,0,0.892,0.145,1.076,0.432
			c0.184,0.288,0.275,0.801,0.275,1.536v2.112h-0.592v-2.096c0-0.555-0.055-0.935-0.164-1.141c-0.109-0.205-0.343-0.308-0.7-0.308
			c-0.171,0-0.351,0.025-0.54,0.076s-0.334,0.1-0.436,0.147l-0.152,0.072V75.859z"/>
		<path fill="#4D4D4D" d="M171.748,75.363l0.232-0.023l0.016,0.472c-0.608,0.085-1.128,0.128-1.56,0.128
			c-0.576,0-0.984-0.167-1.225-0.5s-0.359-0.853-0.359-1.556c0-1.403,0.557-2.104,1.672-2.104c0.538,0,0.941,0.15,1.208,0.452
			s0.399,0.774,0.399,1.42l-0.031,0.456h-2.641c0,0.442,0.08,0.771,0.24,0.984c0.16,0.213,0.438,0.319,0.836,0.319
			S171.337,75.396,171.748,75.363z M171.532,73.627c0-0.49-0.079-0.837-0.236-1.04c-0.157-0.202-0.413-0.304-0.768-0.304
			s-0.621,0.106-0.8,0.32c-0.179,0.213-0.271,0.555-0.276,1.023H171.532z"/>
		<path fill="#4D4D4D" d="M173.668,75.859h-0.6v-5.744h0.6v1.968c0.427-0.202,0.838-0.304,1.232-0.304
			c0.533,0,0.892,0.145,1.076,0.432c0.184,0.288,0.275,0.801,0.275,1.536v2.112h-0.6v-2.096c0-0.555-0.055-0.935-0.164-1.141
			c-0.109-0.205-0.34-0.308-0.692-0.308c-0.336,0-0.661,0.062-0.976,0.184l-0.152,0.057V75.859z"/>
		<path fill="#4D4D4D" d="M177.964,75.859h-0.6v-4h0.592v0.28c0.4-0.24,0.789-0.36,1.168-0.36c0.496,0,0.843,0.136,1.04,0.408
			c0.176-0.106,0.404-0.201,0.684-0.284c0.28-0.083,0.527-0.124,0.74-0.124c0.533,0,0.893,0.143,1.076,0.428
			c0.184,0.286,0.276,0.799,0.276,1.54v2.112h-0.601v-2.096c0-0.555-0.053-0.935-0.16-1.141c-0.106-0.205-0.333-0.308-0.68-0.308
			c-0.176,0-0.357,0.025-0.544,0.076s-0.331,0.1-0.432,0.147l-0.152,0.072c0.069,0.176,0.104,0.565,0.104,1.168v2.08h-0.601v-2.064
			c0-0.575-0.052-0.966-0.156-1.172c-0.104-0.205-0.332-0.308-0.684-0.308c-0.171,0-0.346,0.025-0.524,0.076s-0.315,0.1-0.412,0.147
			l-0.136,0.072V75.859z"/>
		<path fill="#4D4D4D" d="M186.771,75.363l0.232-0.023l0.016,0.472c-0.608,0.085-1.128,0.128-1.56,0.128
			c-0.576,0-0.984-0.167-1.225-0.5s-0.359-0.853-0.359-1.556c0-1.403,0.557-2.104,1.672-2.104c0.538,0,0.941,0.15,1.208,0.452
			s0.399,0.774,0.399,1.42l-0.031,0.456h-2.641c0,0.442,0.08,0.771,0.24,0.984c0.16,0.213,0.438,0.319,0.836,0.319
			S186.36,75.396,186.771,75.363z M186.556,73.627c0-0.49-0.079-0.837-0.236-1.04c-0.157-0.202-0.413-0.304-0.768-0.304
			s-0.621,0.106-0.8,0.32c-0.179,0.213-0.271,0.555-0.276,1.023H186.556z"/>
		<path fill="#4D4D4D" d="M188.691,75.859h-0.6v-4h0.592v0.28c0.432-0.24,0.846-0.36,1.24-0.36c0.533,0,0.892,0.145,1.076,0.432
			c0.184,0.288,0.275,0.801,0.275,1.536v2.112h-0.592v-2.096c0-0.555-0.055-0.935-0.164-1.141c-0.109-0.205-0.343-0.308-0.7-0.308
			c-0.171,0-0.351,0.025-0.54,0.076s-0.334,0.1-0.436,0.147l-0.152,0.072V75.859z"/>
	</g>
</g>
<line fill="none" stroke="#4D4D4D" stroke-miterlimit="10" x1="89.727" y1="124.172" x2="191.875" y2="124.172"/>
<g>
	<g>
		<path fill="#4D4D4D" d="M116.617,117.892v0.561h-2.568l-0.145,1.72c0.41-0.219,0.824-0.328,1.24-0.328
			c1.119,0,1.68,0.521,1.68,1.561c0,0.597-0.154,1.053-0.465,1.367c-0.309,0.315-0.742,0.473-1.303,0.473
			c-0.449,0-0.945-0.059-1.488-0.176l-0.264-0.057l0.072-0.488c0.613,0.118,1.129,0.177,1.547,0.177c0.42,0,0.734-0.108,0.949-0.324
			c0.213-0.216,0.318-0.519,0.318-0.908c0-0.389-0.096-0.665-0.291-0.828c-0.195-0.162-0.471-0.244-0.828-0.244
			c-0.191,0-0.393,0.027-0.604,0.08c-0.211,0.054-0.373,0.107-0.484,0.16l-0.168,0.08l-0.424-0.08l0.145-2.744H116.617z"/>
		<path fill="#4D4D4D" d="M119.514,117.804c0.436,0,0.791,0.083,1.062,0.248c0.576,0.342,0.865,1.195,0.865,2.561
			c0,0.965-0.16,1.646-0.48,2.044s-0.801,0.596-1.439,0.596c-0.641,0-1.123-0.196-1.445-0.588c-0.322-0.393-0.484-1.091-0.484-2.096
			c0-1.006,0.16-1.718,0.477-2.137C118.387,118.014,118.867,117.804,119.514,117.804z M119.521,118.355
			c-0.305,0-0.545,0.064-0.721,0.192c-0.379,0.262-0.568,0.952-0.568,2.072c0,0.789,0.104,1.335,0.312,1.636
			c0.207,0.302,0.533,0.452,0.977,0.452c0.441,0,0.768-0.152,0.975-0.456c0.209-0.304,0.312-0.868,0.312-1.692
			c0-0.823-0.1-1.396-0.301-1.72C120.309,118.518,119.979,118.355,119.521,118.355z"/>
		<path fill="#4D4D4D" d="M125.729,118.092c-0.799,0-1.199,0.302-1.199,0.904c0,0.336,0.092,0.566,0.275,0.691
			c0.184,0.126,0.557,0.251,1.121,0.376c0.562,0.126,0.961,0.288,1.195,0.488s0.352,0.529,0.352,0.988
			c0,1.136-0.59,1.704-1.768,1.704c-0.389,0-0.877-0.046-1.465-0.137l-0.287-0.039l0.064-0.513c0.725,0.097,1.277,0.145,1.656,0.145
			c0.789,0,1.184-0.371,1.184-1.112c0-0.299-0.088-0.514-0.26-0.644c-0.174-0.131-0.498-0.242-0.973-0.332
			c-0.623-0.134-1.066-0.306-1.328-0.517s-0.393-0.563-0.393-1.06c0-0.992,0.596-1.488,1.785-1.488c0.389,0,0.855,0.04,1.4,0.12
			l0.271,0.04l-0.057,0.52C126.564,118.138,126.039,118.092,125.729,118.092z"/>
		<path fill="#4D4D4D" d="M130.514,123.172h-1.977v-5.536h1.977c0.9,0,1.498,0.357,1.791,1.072c0.17,0.41,0.256,0.949,0.256,1.616
			c0,1.392-0.346,2.269-1.039,2.632C131.244,123.1,130.908,123.172,130.514,123.172z M131.93,120.324
			c0-1.062-0.238-1.723-0.713-1.984c-0.191-0.106-0.426-0.16-0.703-0.16h-1.361v4.448h1.361
			C131.457,122.628,131.93,121.86,131.93,120.324z"/>
		<path fill="#4D4D4D" d="M133.098,123.172l1.52-5.536h1.344l1.52,5.536h-0.607l-0.4-1.424h-2.367l-0.4,1.424H133.098z
			 M135.08,118.164l-0.84,3.032h2.096l-0.84-3.032H135.08z"/>
		<path fill="#4D4D4D" d="M138.52,117.636l1.4,2.368l1.408-2.368h0.664l-1.703,2.809l1.703,2.728h-0.695l-1.393-2.296l-1.416,2.296
			h-0.664l1.713-2.712l-1.713-2.824H138.52z"/>
		<path fill="#4D4D4D" d="M142.377,121.252v-0.561h2.424v0.561H142.377z"/>
		<path fill="#4D4D4D" d="M146.592,121.508c0,0.8,0.434,1.2,1.297,1.2c0.447,0,0.785-0.095,1.012-0.284s0.34-0.494,0.34-0.916
			v-3.872h0.607v3.856c0,0.618-0.164,1.066-0.492,1.344c-0.326,0.277-0.811,0.416-1.451,0.416s-1.121-0.139-1.443-0.416
			c-0.324-0.277-0.484-0.726-0.484-1.344v-3.856h0.615V121.508z"/>
		<path fill="#4D4D4D" d="M151.664,123.172h-0.6v-4h0.592v0.28c0.432-0.24,0.846-0.36,1.24-0.36c0.533,0,0.893,0.145,1.076,0.432
			c0.184,0.288,0.275,0.801,0.275,1.536v2.112h-0.592v-2.096c0-0.555-0.055-0.935-0.164-1.141c-0.109-0.205-0.342-0.308-0.699-0.308
			c-0.172,0-0.352,0.025-0.541,0.076s-0.334,0.1-0.436,0.147l-0.152,0.072V123.172z"/>
		<path fill="#4D4D4D" d="M157.41,119.691h-1.273v1.912c0,0.459,0.033,0.761,0.1,0.904c0.068,0.145,0.227,0.216,0.477,0.216
			l0.713-0.048l0.039,0.496c-0.357,0.059-0.629,0.088-0.816,0.088c-0.416,0-0.703-0.102-0.863-0.304
			c-0.16-0.203-0.24-0.59-0.24-1.16v-2.104h-0.568v-0.52h0.568v-1.224h0.592v1.224h1.273V119.691z"/>
		<path fill="#4D4D4D" d="M160.865,122.676l0.232-0.023l0.016,0.472c-0.609,0.085-1.129,0.128-1.561,0.128
			c-0.576,0-0.984-0.167-1.225-0.5s-0.359-0.853-0.359-1.556c0-1.403,0.557-2.104,1.672-2.104c0.539,0,0.941,0.15,1.209,0.452
			c0.266,0.302,0.398,0.774,0.398,1.42l-0.031,0.456h-2.641c0,0.442,0.08,0.771,0.24,0.984c0.16,0.213,0.439,0.319,0.836,0.319
			C160.051,122.724,160.453,122.708,160.865,122.676z M160.648,120.939c0-0.49-0.078-0.837-0.236-1.04
			c-0.156-0.202-0.412-0.304-0.768-0.304c-0.354,0-0.621,0.106-0.799,0.32c-0.18,0.213-0.271,0.555-0.277,1.023H160.648z"/>
		<path fill="#4D4D4D" d="M162.186,123.172v-4h0.592v0.544c0.463-0.32,0.951-0.53,1.463-0.632v0.607
			c-0.223,0.043-0.457,0.109-0.699,0.2s-0.428,0.171-0.557,0.24l-0.199,0.104v2.936H162.186z"/>
		<path fill="#4D4D4D" d="M165.553,123.172h-0.6v-4h0.592v0.28c0.432-0.24,0.846-0.36,1.24-0.36c0.533,0,0.891,0.145,1.076,0.432
			c0.184,0.288,0.275,0.801,0.275,1.536v2.112h-0.592v-2.096c0-0.555-0.055-0.935-0.164-1.141c-0.109-0.205-0.344-0.308-0.701-0.308
			c-0.17,0-0.35,0.025-0.539,0.076s-0.334,0.1-0.436,0.147l-0.152,0.072V123.172z"/>
		<path fill="#4D4D4D" d="M171.969,122.676l0.232-0.023l0.016,0.472c-0.609,0.085-1.129,0.128-1.561,0.128
			c-0.576,0-0.984-0.167-1.225-0.5s-0.359-0.853-0.359-1.556c0-1.403,0.557-2.104,1.672-2.104c0.539,0,0.941,0.15,1.209,0.452
			c0.266,0.302,0.398,0.774,0.398,1.42l-0.031,0.456h-2.641c0,0.442,0.08,0.771,0.24,0.984c0.16,0.213,0.439,0.319,0.836,0.319
			C171.154,122.724,171.557,122.708,171.969,122.676z M171.752,120.939c0-0.49-0.078-0.837-0.236-1.04
			c-0.156-0.202-0.412-0.304-0.768-0.304c-0.354,0-0.621,0.106-0.799,0.32c-0.18,0.213-0.271,0.555-0.277,1.023H171.752z"/>
		<path fill="#4D4D4D" d="M173.889,123.172h-0.6v-5.744h0.6v1.968c0.426-0.202,0.838-0.304,1.232-0.304
			c0.533,0,0.891,0.145,1.076,0.432c0.184,0.288,0.275,0.801,0.275,1.536v2.112h-0.6v-2.096c0-0.555-0.055-0.935-0.164-1.141
			c-0.109-0.205-0.34-0.308-0.693-0.308c-0.336,0-0.66,0.062-0.975,0.184l-0.152,0.057V123.172z"/>
		<path fill="#4D4D4D" d="M178.184,123.172h-0.6v-4h0.592v0.28c0.4-0.24,0.789-0.36,1.168-0.36c0.496,0,0.844,0.136,1.041,0.408
			c0.176-0.106,0.404-0.201,0.684-0.284s0.527-0.124,0.74-0.124c0.533,0,0.893,0.143,1.076,0.428
			c0.184,0.286,0.275,0.799,0.275,1.54v2.112h-0.6v-2.096c0-0.555-0.053-0.935-0.16-1.141c-0.107-0.205-0.334-0.308-0.68-0.308
			c-0.176,0-0.357,0.025-0.545,0.076c-0.186,0.051-0.33,0.1-0.432,0.147l-0.152,0.072c0.07,0.176,0.105,0.565,0.105,1.168v2.08
			h-0.602v-2.064c0-0.575-0.051-0.966-0.156-1.172c-0.104-0.205-0.332-0.308-0.684-0.308c-0.17,0-0.346,0.025-0.523,0.076
			c-0.18,0.051-0.316,0.1-0.412,0.147l-0.137,0.072V123.172z"/>
		<path fill="#4D4D4D" d="M186.992,122.676l0.232-0.023l0.016,0.472c-0.607,0.085-1.127,0.128-1.559,0.128
			c-0.576,0-0.984-0.167-1.225-0.5s-0.359-0.853-0.359-1.556c0-1.403,0.557-2.104,1.672-2.104c0.537,0,0.941,0.15,1.207,0.452
			c0.268,0.302,0.4,0.774,0.4,1.42l-0.031,0.456h-2.641c0,0.442,0.08,0.771,0.24,0.984c0.16,0.213,0.438,0.319,0.836,0.319
			C186.178,122.724,186.582,122.708,186.992,122.676z M186.777,120.939c0-0.49-0.08-0.837-0.236-1.04
			c-0.158-0.202-0.414-0.304-0.768-0.304c-0.355,0-0.621,0.106-0.801,0.32c-0.178,0.213-0.271,0.555-0.275,1.023H186.777z"/>
		<path fill="#4D4D4D" d="M188.912,123.172h-0.6v-4h0.592v0.28c0.432-0.24,0.846-0.36,1.24-0.36c0.533,0,0.893,0.145,1.076,0.432
			c0.184,0.288,0.275,0.801,0.275,1.536v2.112h-0.592v-2.096c0-0.555-0.055-0.935-0.164-1.141c-0.109-0.205-0.342-0.308-0.699-0.308
			c-0.172,0-0.352,0.025-0.541,0.076s-0.334,0.1-0.436,0.147l-0.152,0.072V123.172z"/>
	</g>
</g>
<path fill="#4D4D4D" d="M96.377,124.704V0.587H0.243v1.356V95.16v1.121v0.344v28.079H96.377z M87.029,1.943h8.023v8.136h-8.023
	V1.943z M87.029,11.435h8.023v8.136h-8.023V11.435z M87.029,20.927h8.023v8.136h-8.023V20.927z M87.029,30.419h8.023v8.136h-8.023
	V30.419z M87.029,39.911h8.023v8.136h-8.023V39.911z M87.029,49.403h8.023v8.136h-8.023V49.403z M87.029,58.895h8.023v8.136h-8.023
	V58.895z M87.029,68.387h8.023v8.136h-8.023V68.387z M87.029,77.88h8.023v8.136h-8.023V77.88z M87.029,87.372h8.023v7.788h-8.023
	V87.372z M87.029,96.625h8.023v7.792h-8.023V96.625z M87.029,105.773h8.023v8.136h-8.023V105.773z M87.029,115.265h8.023v8.136
	h-8.023V115.265z M77.536,1.943h8.039v8.136h-8.039V1.943z M77.536,11.435h8.039v8.136h-8.039V11.435z M77.536,20.927h8.039v8.136
	h-8.039V20.927z M77.536,30.419h8.039v8.136h-8.039V30.419z M77.536,39.911h8.039v8.136h-8.039V39.911z M77.536,49.403h8.039v8.136
	h-8.039V49.403z M77.536,58.895h8.039v8.136h-8.039V58.895z M77.536,68.387h8.039v8.136h-8.039V68.387z M77.536,77.88h8.039v8.136
	h-8.039V77.88z M77.536,87.372h8.039v7.788h-8.039V87.372z M77.536,96.625h8.039v7.792h-8.039V96.625z M77.536,105.773h8.039v8.136
	h-8.039V105.773z M77.536,115.265h8.039v8.136h-8.039V115.265z M68.044,1.943h8.039v8.136h-8.039V1.943z M68.044,11.435h8.039v8.136
	h-8.039V11.435z M68.044,20.927h8.039v8.136h-8.039V20.927z M68.044,30.419h8.039v8.136h-8.039V30.419z M68.044,39.911h8.039v8.136
	h-8.039V39.911z M68.044,49.403h8.039v8.136h-8.039V49.403z M68.044,58.895h8.039v8.136h-8.039V58.895z M68.044,68.387h8.039v8.136
	h-8.039V68.387z M68.044,77.88h8.039v8.136h-8.039V77.88z M68.044,87.372h8.039v7.788h-8.039V87.372z M68.044,96.625h8.039v7.792
	h-8.039V96.625z M68.044,105.773h8.039v8.136h-8.039V105.773z M68.044,115.265h8.039v8.136h-8.039V115.265z M58.552,1.943h8.039
	v8.136h-8.039V1.943z M58.552,11.435h8.039v8.136h-8.039V11.435z M58.552,20.927h8.039v8.136h-8.039V20.927z M58.552,30.419h8.039
	v8.136h-8.039V30.419z M58.552,39.911h8.039v8.136h-8.039V39.911z M58.552,49.403h8.039v8.136h-8.039V49.403z M58.552,58.895h8.039
	v8.136h-8.039V58.895z M58.552,68.387h8.039v8.136h-8.039V68.387z M58.552,77.88h8.039v8.136h-8.039V77.88z M58.552,87.372h8.039
	v7.788h-8.039V87.372z M58.552,96.625h8.039v7.792h-8.039V96.625z M58.552,105.773h8.039v8.136h-8.039V105.773z M58.552,115.265
	h8.039v8.136h-8.039V115.265z M49.06,1.943h8.136v8.136H49.06V1.943z M49.06,11.435h8.136v8.136H49.06V11.435z M49.06,20.927h8.136
	v8.136H49.06V20.927z M49.06,30.419h8.136v8.136H49.06V30.419z M49.06,39.911h8.136v8.136H49.06V39.911z M49.06,49.403h8.136v8.136
	H49.06V49.403z M49.06,58.895h8.136v8.136H49.06V58.895z M49.06,68.387h8.136v8.136H49.06V68.387z M49.06,77.88h8.136v8.136H49.06
	V77.88z M49.06,87.372h8.136v7.788H49.06V87.372z M49.06,96.625h8.136v7.792H49.06V96.625z M49.06,105.773h8.136v8.136H49.06
	V105.773z M49.06,115.265h8.136v8.136H49.06V115.265z M39.568,1.943h8.136v8.136h-8.136V1.943z M39.568,11.435h8.136v8.136h-8.136
	V11.435z M39.568,20.927h8.136v8.136h-8.136V20.927z M39.568,30.419h8.136v8.136h-8.136V30.419z M39.568,39.911h8.136v8.136h-8.136
	V39.911z M39.568,49.403h8.136v8.136h-8.136V49.403z M39.568,58.895h8.136v8.136h-8.136V58.895z M39.568,68.387h8.136v8.136h-8.136
	V68.387z M39.568,77.88h8.136v8.136h-8.136V77.88z M39.568,87.372h8.136v7.788h-8.136V87.372z M39.568,96.625h8.136v7.792h-8.136
	V96.625z M39.568,105.773h8.136v8.136h-8.136V105.773z M39.568,115.265h8.136v8.136h-8.136V115.265z M30.076,1.943h8.136v8.136
	h-8.136V1.943z M30.076,11.435h8.136v8.136h-8.136V11.435z M30.076,20.927h8.136v8.136h-8.136V20.927z M30.076,30.419h8.136v8.136
	h-8.136V30.419z M30.076,39.911h8.136v8.136h-8.136V39.911z M30.076,49.403h8.136v8.136h-8.136V49.403z M30.076,58.895h8.136v8.136
	h-8.136V58.895z M30.076,68.387h8.136v8.136h-8.136V68.387z M30.076,77.88h8.136v8.136h-8.136V77.88z M30.076,87.372h8.136v7.788
	h-8.136V87.372z M30.076,96.625h8.136v7.792h-8.136V96.625z M30.076,105.773h8.136v8.136h-8.136V105.773z M30.076,115.265h8.136
	v8.136h-8.136V115.265z M20.584,1.943h8.136v8.136h-8.136V1.943z M20.584,11.435h8.136v8.136h-8.136V11.435z M20.584,20.927h8.136
	v8.136h-8.136V20.927z M20.584,30.419h8.136v8.136h-8.136V30.419z M20.584,39.911h8.136v8.136h-8.136V39.911z M20.584,49.403h8.136
	v8.136h-8.136V49.403z M20.584,58.895h8.136v8.136h-8.136V58.895z M20.584,68.387h8.136v8.136h-8.136V68.387z M20.584,77.88h8.136
	v8.136h-8.136V77.88z M20.584,87.372h8.136v7.788h-8.136V87.372z M20.584,96.625h8.136v7.792h-8.136V96.625z M20.584,105.773h8.136
	v8.136h-8.136V105.773z M20.584,115.265h8.136v8.136h-8.136V115.265z M11.092,1.943h8.136v8.136h-8.136V1.943z M11.092,11.435h8.136
	v8.136h-8.136V11.435z M11.092,20.927h8.136v8.136h-8.136V20.927z M11.092,30.419h8.136v8.136h-8.136V30.419z M11.092,39.911h8.136
	v8.136h-8.136V39.911z M11.092,49.403h8.136v8.136h-8.136V49.403z M11.092,58.895h8.136v8.136h-8.136V58.895z M11.092,68.387h8.136
	v8.136h-8.136V68.387z M11.092,77.88h8.136v8.136h-8.136V77.88z M11.092,87.372h8.136v7.788h-8.136V87.372z M11.092,96.625h8.136
	v7.792h-8.136V96.625z M11.092,105.773h8.136v8.136h-8.136V105.773z M11.092,115.265h8.136v8.136h-8.136V115.265z M1.599,1.943
	h8.136v8.136H1.599V1.943z M1.599,11.435h8.136v8.136H1.599V11.435z M1.599,20.927h8.136v8.136H1.599V20.927z M1.599,30.419h8.136
	v8.136H1.599V30.419z M1.599,39.911h8.136v8.136H1.599V39.911z M1.599,49.403h8.136v8.136H1.599V49.403z M1.599,58.895h8.136v8.136
	H1.599V58.895z M1.599,68.387h8.136v8.136H1.599V68.387z M1.599,77.88h8.136v8.136H1.599V77.88z M1.599,87.372h8.136v7.788H1.599
	V87.372z M1.599,96.625h8.136v7.792H1.599V96.625z M1.599,105.773h8.136v8.136H1.599V105.773z M1.599,115.265h8.136v8.136H1.599
	V115.265z"/>
</svg>
