<?xml version="1.0" encoding="utf-8"?>
<!-- Generator: Adobe Illustrator 21.1.0, SVG Export Plug-In . SVG Version: 6.00 Build 0)  -->
<svg version="1.1" id="Ebene_1" xmlns="http://www.w3.org/2000/svg" xmlns:xlink="http://www.w3.org/1999/xlink" x="0px" y="0px"
	 viewBox="0 0 200 200" enable-background="new 0 0 200 200" xml:space="preserve">
<rect x="0.333" y="0.333" fill="#FFFFFF" width="200" height="200.667"/>
<g>
	<g>
		<path fill="#4D4D4D" d="M46.573,0.797h0.64l0.944,4.992h0.231l1.128-4.944h0.721l1.128,4.944h0.231l0.944-4.992h0.632l-1.12,5.536
			h-1.128l-1.048-4.728l-1.048,4.728h-1.128L46.573,0.797z"/>
		<path fill="#4D4D4D" d="M56.701,3.542v2.048c0.016,0.197,0.17,0.314,0.464,0.353l-0.024,0.472c-0.421,0-0.738-0.106-0.952-0.32
			c-0.479,0.214-0.96,0.32-1.439,0.32c-0.368,0-0.648-0.104-0.84-0.312c-0.192-0.208-0.288-0.506-0.288-0.896
			s0.099-0.676,0.296-0.86c0.197-0.184,0.507-0.297,0.928-0.34l1.256-0.12V3.542c0-0.272-0.059-0.467-0.176-0.584
			s-0.277-0.176-0.48-0.176c-0.427,0-0.869,0.026-1.327,0.08l-0.248,0.023l-0.024-0.456c0.587-0.117,1.106-0.176,1.56-0.176
			c0.454,0,0.783,0.104,0.988,0.312S56.701,3.099,56.701,3.542z M54.236,5.173c0,0.491,0.203,0.736,0.608,0.736
			c0.362,0,0.72-0.062,1.072-0.185l0.184-0.063v-1.32l-1.184,0.112c-0.24,0.021-0.414,0.091-0.521,0.208S54.236,4.95,54.236,5.173z"
			/>
		<path fill="#4D4D4D" d="M58.484,6.333h-0.6v-4h0.592v0.28c0.432-0.24,0.846-0.36,1.24-0.36c0.533,0,0.892,0.145,1.076,0.432
			c0.184,0.288,0.275,0.801,0.275,1.536v2.112h-0.592V4.238c0-0.555-0.055-0.935-0.164-1.141c-0.109-0.205-0.343-0.308-0.7-0.308
			c-0.171,0-0.351,0.025-0.54,0.076s-0.334,0.1-0.436,0.147l-0.152,0.072V6.333z"/>
		<path fill="#4D4D4D" d="M65.253,0.589v5.744H64.66V6.061c-0.41,0.235-0.815,0.353-1.216,0.353c-0.213,0-0.399-0.026-0.56-0.08
			s-0.31-0.149-0.448-0.288c-0.288-0.288-0.432-0.82-0.432-1.596c0-0.776,0.129-1.336,0.388-1.681
			c0.259-0.344,0.687-0.516,1.284-0.516c0.309,0,0.637,0.035,0.983,0.104V0.589H65.253z M63.173,5.822
			c0.096,0.037,0.22,0.056,0.372,0.056c0.151,0,0.322-0.025,0.512-0.076s0.337-0.1,0.444-0.147l0.159-0.072V2.87
			c-0.341-0.064-0.658-0.096-0.952-0.096c-0.405,0-0.688,0.129-0.848,0.388s-0.24,0.66-0.24,1.204c0,0.618,0.094,1.034,0.28,1.248
			C62.985,5.715,63.076,5.785,63.173,5.822z"/>
		<path fill="#4D4D4D" d="M69.133,5.837l0.232-0.023l0.016,0.472c-0.608,0.085-1.128,0.128-1.56,0.128
			c-0.576,0-0.984-0.167-1.225-0.5s-0.359-0.853-0.359-1.556c0-1.403,0.557-2.104,1.672-2.104c0.538,0,0.941,0.15,1.208,0.452
			s0.399,0.774,0.399,1.42l-0.031,0.456h-2.641c0,0.442,0.08,0.771,0.24,0.984c0.16,0.213,0.438,0.319,0.836,0.319
			S68.722,5.87,69.133,5.837z M68.917,4.101c0-0.49-0.079-0.837-0.236-1.04c-0.157-0.202-0.413-0.304-0.768-0.304
			s-0.621,0.106-0.8,0.32c-0.179,0.213-0.271,0.555-0.276,1.023H68.917z"/>
		<path fill="#4D4D4D" d="M70.501,6.333V0.589h0.6v5.744H70.501z"/>
		<path fill="#4D4D4D" d="M72.269,4.414V3.853h2.424v0.561H72.269z"/>
		<path fill="#4D4D4D" d="M77.244,6.253L79.5,0.669l0.536,0.2L77.78,6.446L77.244,6.253z"/>
		<path fill="#4D4D4D" d="M83.3,4.669c0,0.8,0.433,1.2,1.296,1.2c0.448,0,0.785-0.095,1.013-0.284
			c0.227-0.189,0.34-0.494,0.34-0.916V0.797h0.607v3.856c0,0.618-0.164,1.066-0.492,1.344c-0.327,0.277-0.812,0.416-1.451,0.416
			c-0.641,0-1.122-0.139-1.444-0.416c-0.323-0.277-0.484-0.726-0.484-1.344V0.797H83.3V4.669z"/>
		<path fill="#4D4D4D" d="M88.372,6.333h-0.6v-4h0.592v0.28c0.4-0.24,0.789-0.36,1.168-0.36c0.496,0,0.843,0.136,1.04,0.408
			c0.176-0.106,0.404-0.201,0.684-0.284c0.28-0.083,0.527-0.124,0.74-0.124c0.533,0,0.893,0.143,1.076,0.428
			c0.184,0.286,0.276,0.799,0.276,1.54v2.112h-0.601V4.238c0-0.555-0.053-0.935-0.16-1.141c-0.106-0.205-0.333-0.308-0.68-0.308
			c-0.176,0-0.357,0.025-0.544,0.076s-0.331,0.1-0.432,0.147L90.78,3.085c0.069,0.176,0.104,0.565,0.104,1.168v2.08h-0.601V4.269
			c0-0.575-0.052-0.966-0.156-1.172c-0.104-0.205-0.332-0.308-0.684-0.308c-0.171,0-0.346,0.025-0.524,0.076s-0.315,0.1-0.412,0.147
			l-0.136,0.072V6.333z"/>
		<path fill="#4D4D4D" d="M96.509,2.853h-1.272v1.912c0,0.459,0.033,0.761,0.1,0.904c0.067,0.145,0.226,0.216,0.477,0.216
			l0.712-0.048l0.04,0.496c-0.357,0.059-0.63,0.088-0.816,0.088c-0.416,0-0.704-0.102-0.863-0.304c-0.16-0.203-0.24-0.59-0.24-1.16
			V2.853h-0.568v-0.52h0.568V1.11h0.592v1.224h1.272V2.853z"/>
		<path fill="#4D4D4D" d="M100.068,3.542v2.048c0.016,0.197,0.17,0.314,0.464,0.353l-0.024,0.472c-0.421,0-0.738-0.106-0.952-0.32
			c-0.479,0.214-0.96,0.32-1.439,0.32c-0.368,0-0.648-0.104-0.84-0.312c-0.192-0.208-0.288-0.506-0.288-0.896
			s0.099-0.676,0.296-0.86c0.197-0.184,0.507-0.297,0.928-0.34l1.256-0.12V3.542c0-0.272-0.059-0.467-0.176-0.584
			s-0.277-0.176-0.48-0.176c-0.427,0-0.869,0.026-1.327,0.08l-0.248,0.023l-0.024-0.456c0.587-0.117,1.106-0.176,1.56-0.176
			c0.454,0,0.783,0.104,0.988,0.312S100.068,3.099,100.068,3.542z M97.604,5.173c0,0.491,0.203,0.736,0.608,0.736
			c0.362,0,0.72-0.062,1.072-0.185l0.184-0.063v-1.32l-1.184,0.112c-0.24,0.021-0.414,0.091-0.521,0.208S97.604,4.95,97.604,5.173z"
			/>
		<path fill="#4D4D4D" d="M103.748,2.333h0.6v4h-0.6v-0.28c-0.4,0.24-0.795,0.36-1.185,0.36c-0.544,0-0.905-0.142-1.084-0.424
			c-0.179-0.283-0.268-0.806-0.268-1.568V2.333h0.6v2.08c0,0.581,0.051,0.971,0.152,1.168s0.33,0.296,0.688,0.296
			c0.177,0,0.355-0.025,0.536-0.076c0.182-0.051,0.32-0.1,0.416-0.147l0.145-0.072V2.333z"/>
		<path fill="#4D4D4D" d="M106.756,2.79c-0.581,0-0.872,0.203-0.872,0.608c0,0.187,0.066,0.318,0.2,0.396
			c0.133,0.077,0.438,0.157,0.912,0.24s0.811,0.198,1.008,0.348s0.296,0.43,0.296,0.84c0,0.411-0.132,0.712-0.396,0.904
			c-0.265,0.192-0.649,0.288-1.156,0.288c-0.331,0-0.721-0.037-1.168-0.112l-0.24-0.04l0.032-0.52
			c0.607,0.091,1.066,0.136,1.376,0.136c0.309,0,0.545-0.049,0.708-0.147c0.162-0.099,0.244-0.265,0.244-0.496
			c0-0.232-0.069-0.39-0.208-0.473c-0.139-0.082-0.443-0.161-0.912-0.235c-0.47-0.075-0.803-0.185-1-0.328
			c-0.197-0.145-0.296-0.411-0.296-0.8c0-0.39,0.137-0.678,0.412-0.864c0.274-0.187,0.617-0.28,1.027-0.28
			c0.325,0,0.733,0.037,1.225,0.112l0.224,0.04l-0.016,0.512C107.563,2.833,107.097,2.79,106.756,2.79z"/>
		<path fill="#4D4D4D" d="M110.716,2.253c0.176,0,0.475,0.032,0.896,0.096l0.192,0.024l-0.024,0.488
			c-0.427-0.048-0.741-0.072-0.943-0.072c-0.454,0-0.762,0.108-0.925,0.324c-0.162,0.216-0.243,0.616-0.243,1.2
			s0.075,0.99,0.228,1.22s0.468,0.344,0.948,0.344l0.943-0.072l0.024,0.496c-0.496,0.075-0.867,0.112-1.112,0.112
			c-0.624,0-1.055-0.16-1.292-0.48c-0.237-0.319-0.355-0.859-0.355-1.619c0-0.761,0.128-1.294,0.384-1.601
			S110.118,2.253,110.716,2.253z"/>
		<path fill="#4D4D4D" d="M113.308,6.333h-0.6V0.589h0.6v1.968c0.427-0.202,0.838-0.304,1.232-0.304
			c0.533,0,0.892,0.145,1.076,0.432c0.184,0.288,0.275,0.801,0.275,1.536v2.112h-0.6V4.238c0-0.555-0.055-0.935-0.164-1.141
			c-0.109-0.205-0.34-0.308-0.692-0.308c-0.336,0-0.661,0.062-0.976,0.184l-0.152,0.057V6.333z"/>
		<path fill="#4D4D4D" d="M119.828,3.542v2.048c0.016,0.197,0.17,0.314,0.464,0.353l-0.024,0.472c-0.421,0-0.738-0.106-0.952-0.32
			c-0.479,0.214-0.96,0.32-1.439,0.32c-0.368,0-0.648-0.104-0.84-0.312c-0.192-0.208-0.288-0.506-0.288-0.896
			s0.099-0.676,0.296-0.86c0.197-0.184,0.507-0.297,0.928-0.34l1.256-0.12V3.542c0-0.272-0.059-0.467-0.176-0.584
			s-0.277-0.176-0.48-0.176c-0.427,0-0.869,0.026-1.327,0.08l-0.248,0.023l-0.024-0.456c0.587-0.117,1.106-0.176,1.56-0.176
			c0.454,0,0.783,0.104,0.988,0.312S119.828,3.099,119.828,3.542z M117.363,5.173c0,0.491,0.203,0.736,0.608,0.736
			c0.362,0,0.72-0.062,1.072-0.185l0.184-0.063v-1.32l-1.184,0.112c-0.24,0.021-0.414,0.091-0.521,0.208S117.363,4.95,117.363,5.173
			z"/>
		<path fill="#4D4D4D" d="M121.611,6.333h-0.6v-4h0.592v0.28c0.432-0.24,0.846-0.36,1.24-0.36c0.533,0,0.892,0.145,1.076,0.432
			c0.184,0.288,0.275,0.801,0.275,1.536v2.112h-0.592V4.238c0-0.555-0.055-0.935-0.164-1.141c-0.109-0.205-0.343-0.308-0.7-0.308
			c-0.171,0-0.351,0.025-0.54,0.076s-0.334,0.1-0.436,0.147l-0.152,0.072V6.333z"/>
		<path fill="#4D4D4D" d="M125.355,6.333V0.589h0.6v5.744H125.355z"/>
		<path fill="#4D4D4D" d="M129.875,5.837l0.232-0.023l0.016,0.472c-0.608,0.085-1.128,0.128-1.56,0.128
			c-0.576,0-0.984-0.167-1.225-0.5s-0.359-0.853-0.359-1.556c0-1.403,0.557-2.104,1.672-2.104c0.538,0,0.941,0.15,1.208,0.452
			s0.399,0.774,0.399,1.42l-0.031,0.456h-2.641c0,0.442,0.08,0.771,0.24,0.984c0.16,0.213,0.438,0.319,0.836,0.319
			S129.464,5.87,129.875,5.837z M129.659,4.101c0-0.49-0.079-0.837-0.236-1.04c-0.157-0.202-0.413-0.304-0.768-0.304
			s-0.621,0.106-0.8,0.32c-0.179,0.213-0.271,0.555-0.276,1.023H129.659z"/>
		<path fill="#4D4D4D" d="M131.195,1.429V0.734h0.6v0.695H131.195z M131.195,6.333v-4h0.6v4H131.195z"/>
		<path fill="#4D4D4D" d="M133.547,6.333h-0.6V0.589h0.6v1.968c0.427-0.202,0.838-0.304,1.232-0.304
			c0.533,0,0.892,0.145,1.076,0.432c0.184,0.288,0.275,0.801,0.275,1.536v2.112h-0.6V4.238c0-0.555-0.055-0.935-0.164-1.141
			c-0.109-0.205-0.34-0.308-0.692-0.308c-0.336,0-0.661,0.062-0.976,0.184l-0.152,0.057V6.333z"/>
		<path fill="#4D4D4D" d="M139.963,5.837l0.232-0.023l0.016,0.472c-0.608,0.085-1.128,0.128-1.56,0.128
			c-0.576,0-0.984-0.167-1.225-0.5s-0.359-0.853-0.359-1.556c0-1.403,0.557-2.104,1.672-2.104c0.538,0,0.941,0.15,1.208,0.452
			s0.399,0.774,0.399,1.42l-0.031,0.456h-2.641c0,0.442,0.08,0.771,0.24,0.984c0.16,0.213,0.438,0.319,0.836,0.319
			S139.552,5.87,139.963,5.837z M139.747,4.101c0-0.49-0.079-0.837-0.236-1.04c-0.157-0.202-0.413-0.304-0.768-0.304
			s-0.621,0.106-0.8,0.32c-0.179,0.213-0.271,0.555-0.276,1.023H139.747z"/>
		<path fill="#4D4D4D" d="M141.883,6.333h-0.6v-4h0.592v0.28c0.432-0.24,0.846-0.36,1.24-0.36c0.533,0,0.892,0.145,1.076,0.432
			c0.184,0.288,0.275,0.801,0.275,1.536v2.112h-0.592V4.238c0-0.555-0.055-0.935-0.164-1.141c-0.109-0.205-0.343-0.308-0.7-0.308
			c-0.171,0-0.351,0.025-0.54,0.076s-0.334,0.1-0.436,0.147l-0.152,0.072V6.333z"/>
	</g>
</g>
<g>
	<g>
		<path fill="#4D4D4D" d="M94.387,41.975H51.401V17.853h42.986V41.975z M52.608,40.768H93.18V19.06H52.608V40.768z"/>
	</g>
	<g>
		<path fill="#4D4D4D" d="M80.275,27.421c0,1.357-0.227,2.383-0.683,3.076c-0.455,0.694-1.122,1.041-2.003,1.041
			c-0.833,0-1.48-0.354-1.94-1.063c-0.461-0.708-0.691-1.727-0.691-3.054c0-1.352,0.221-2.37,0.664-3.055
			c0.443-0.684,1.099-1.027,1.967-1.027c0.862,0,1.526,0.354,1.99,1.063C80.043,25.111,80.275,26.117,80.275,27.421z M76.189,27.421
			c0,1.012,0.11,1.771,0.33,2.277c0.22,0.506,0.577,0.759,1.071,0.759c0.975,0,1.463-1.012,1.463-3.036
			c0-2.013-0.488-3.019-1.463-3.019c-0.494,0-0.851,0.25-1.071,0.75C76.299,25.653,76.189,26.409,76.189,27.421z M85.833,23.527
			l-7.235,13.057h-1.312l7.235-13.057H85.833z M88.135,32.655c0,1.352-0.227,2.374-0.683,3.068c-0.455,0.693-1.123,1.04-2.003,1.04
			c-0.845,0-1.495-0.354-1.949-1.063c-0.455-0.709-0.683-1.724-0.683-3.046c0-1.351,0.222-2.37,0.665-3.054
			c0.443-0.684,1.099-1.027,1.967-1.027c0.845,0,1.503,0.35,1.976,1.049C87.898,30.322,88.135,31.333,88.135,32.655z M84.04,32.655
			c0,1.018,0.11,1.779,0.33,2.282c0.22,0.503,0.58,0.755,1.079,0.755c0.5,0,0.868-0.248,1.106-0.746
			c0.238-0.497,0.357-1.261,0.357-2.291c0-1.018-0.119-1.773-0.357-2.264c-0.238-0.491-0.607-0.737-1.106-0.737
			c-0.5,0-0.86,0.246-1.079,0.737C84.15,30.882,84.04,31.637,84.04,32.655z"/>
	</g>
	<g>
		<rect x="52.21" y="30.64" fill="#4D4D4D" width="14.422" height="1.207"/>
	</g>
	<g>
		<rect x="52.21" y="33.032" fill="#4D4D4D" width="14.422" height="1.207"/>
	</g>
	<g>
		<rect x="52.21" y="35.424" fill="#4D4D4D" width="14.422" height="1.207"/>
	</g>
	<circle fill="#4D4D4D" cx="93.783" cy="18.251" r="1.915"/>
	<circle fill="#4D4D4D" cx="93.783" cy="41.371" r="1.915"/>
	<circle fill="#4D4D4D" cx="52.005" cy="18.251" r="1.915"/>
	<circle fill="#4D4D4D" cx="52.005" cy="41.371" r="1.915"/>
	<g>
		<path fill="#4D4D4D" d="M100.199,47.792h-54.55V12.049h54.55V47.792z M46.856,46.584h52.136V13.256H46.856V46.584z"/>
	</g>
</g>
<g>
	<g>
		<path fill="#4D4D4D" d="M121.896,89.495l1.52-5.536h1.344l1.521,5.536h-0.608l-0.399-1.424h-2.368l-0.4,1.424H121.896z
			 M123.879,84.487l-0.84,3.032h2.096l-0.84-3.032H123.879z"/>
		<path fill="#4D4D4D" d="M127.646,89.495h-0.6v-5.744h0.6v3.393l0.624-0.032l1.145-1.616h0.68l-1.304,1.84l1.359,2.16h-0.68
			l-1.192-1.856l-0.632,0.024V89.495z"/>
		<path fill="#4D4D4D" d="M132.951,86.015h-1.272v1.912c0,0.459,0.033,0.761,0.1,0.904c0.067,0.145,0.226,0.216,0.477,0.216
			l0.712-0.048l0.04,0.496c-0.357,0.059-0.63,0.088-0.816,0.088c-0.416,0-0.704-0.102-0.863-0.304c-0.16-0.203-0.24-0.59-0.24-1.16
			v-2.104h-0.568v-0.52h0.568v-1.224h0.592v1.224h1.272V86.015z"/>
		<path fill="#4D4D4D" d="M133.688,84.591v-0.695h0.6v0.695H133.688z M133.688,89.495v-4h0.6v4H133.688z"/>
		<path fill="#4D4D4D" d="M138.159,88.999l0.232-0.023l0.016,0.472c-0.608,0.085-1.128,0.128-1.56,0.128
			c-0.576,0-0.984-0.167-1.225-0.5s-0.359-0.853-0.359-1.556c0-1.403,0.557-2.104,1.672-2.104c0.538,0,0.941,0.15,1.208,0.452
			s0.399,0.774,0.399,1.42l-0.031,0.456h-2.641c0,0.442,0.08,0.771,0.24,0.984c0.16,0.213,0.438,0.319,0.836,0.319
			S137.748,89.031,138.159,88.999z M137.943,87.263c0-0.49-0.079-0.837-0.236-1.04c-0.157-0.202-0.413-0.304-0.768-0.304
			s-0.621,0.106-0.8,0.32c-0.179,0.213-0.271,0.555-0.276,1.023H137.943z"/>
		<path fill="#4D4D4D" d="M140.078,89.495h-0.6v-4h0.592v0.28c0.432-0.24,0.846-0.36,1.24-0.36c0.533,0,0.892,0.145,1.076,0.432
			c0.184,0.288,0.275,0.801,0.275,1.536v2.112h-0.592v-2.096c0-0.555-0.055-0.935-0.164-1.141c-0.109-0.205-0.343-0.308-0.7-0.308
			c-0.171,0-0.351,0.025-0.54,0.076s-0.334,0.1-0.436,0.147l-0.152,0.072V89.495z"/>
		<path fill="#4D4D4D" d="M144.375,89.495h-0.6v-5.744h0.6v3.393l0.624-0.032l1.145-1.616h0.68l-1.304,1.84l1.359,2.16h-0.68
			l-1.192-1.856l-0.632,0.024V89.495z"/>
		<path fill="#4D4D4D" d="M150.103,85.495h0.6v4h-0.6v-0.28c-0.4,0.24-0.795,0.36-1.185,0.36c-0.544,0-0.905-0.142-1.084-0.424
			c-0.179-0.283-0.268-0.806-0.268-1.568v-2.088h0.6v2.08c0,0.581,0.051,0.971,0.152,1.168s0.33,0.296,0.688,0.296
			c0.177,0,0.355-0.025,0.536-0.076c0.182-0.051,0.32-0.1,0.416-0.147l0.145-0.072V85.495z"/>
		<path fill="#4D4D4D" d="M151.854,89.495v-4h0.592v0.544c0.464-0.32,0.952-0.53,1.464-0.632v0.607
			c-0.224,0.043-0.457,0.109-0.7,0.2c-0.242,0.091-0.428,0.171-0.556,0.24l-0.2,0.104v2.936H151.854z"/>
		<path fill="#4D4D4D" d="M155.879,85.951c-0.581,0-0.872,0.203-0.872,0.608c0,0.187,0.066,0.318,0.2,0.396
			c0.133,0.077,0.438,0.157,0.912,0.24s0.811,0.198,1.008,0.348s0.296,0.43,0.296,0.84c0,0.411-0.132,0.712-0.396,0.904
			c-0.265,0.192-0.649,0.288-1.156,0.288c-0.331,0-0.721-0.037-1.168-0.112l-0.24-0.04l0.032-0.52
			c0.607,0.091,1.066,0.136,1.376,0.136c0.309,0,0.545-0.049,0.708-0.147c0.162-0.099,0.244-0.265,0.244-0.496
			c0-0.232-0.069-0.39-0.208-0.473c-0.139-0.082-0.443-0.161-0.912-0.235c-0.47-0.075-0.803-0.185-1-0.328
			c-0.197-0.145-0.296-0.411-0.296-0.8c0-0.39,0.137-0.678,0.412-0.864c0.274-0.187,0.617-0.28,1.027-0.28
			c0.325,0,0.733,0.037,1.225,0.112l0.224,0.04l-0.016,0.512C156.687,85.994,156.22,85.951,155.879,85.951z"/>
		<path fill="#4D4D4D" d="M160.702,89.495h-0.6v-4h0.592v0.28c0.432-0.24,0.846-0.36,1.24-0.36c0.533,0,0.892,0.145,1.076,0.432
			c0.184,0.288,0.275,0.801,0.275,1.536v2.112h-0.592v-2.096c0-0.555-0.055-0.935-0.164-1.141c-0.109-0.205-0.343-0.308-0.7-0.308
			c-0.171,0-0.351,0.025-0.54,0.076s-0.334,0.1-0.436,0.147l-0.152,0.072V89.495z"/>
		<path fill="#4D4D4D" d="M164.398,84.591v-0.695h0.6v0.695H164.398z M164.398,89.495v-4h0.6v4H164.398z"/>
		<path fill="#4D4D4D" d="M168.87,88.999l0.232-0.023l0.016,0.472c-0.608,0.085-1.128,0.128-1.56,0.128
			c-0.576,0-0.984-0.167-1.225-0.5s-0.359-0.853-0.359-1.556c0-1.403,0.557-2.104,1.672-2.104c0.538,0,0.941,0.15,1.208,0.452
			s0.399,0.774,0.399,1.42l-0.031,0.456h-2.641c0,0.442,0.08,0.771,0.24,0.984c0.16,0.213,0.438,0.319,0.836,0.319
			S168.459,89.031,168.87,88.999z M168.654,87.263c0-0.49-0.079-0.837-0.236-1.04c-0.157-0.202-0.413-0.304-0.768-0.304
			s-0.621,0.106-0.8,0.32c-0.179,0.213-0.271,0.555-0.276,1.023H168.654z"/>
		<path fill="#4D4D4D" d="M173.263,83.751v5.744h-0.593v-0.272c-0.41,0.235-0.815,0.353-1.216,0.353c-0.213,0-0.399-0.026-0.56-0.08
			s-0.31-0.149-0.448-0.288c-0.288-0.288-0.432-0.82-0.432-1.596c0-0.776,0.129-1.336,0.388-1.681
			c0.259-0.344,0.687-0.516,1.284-0.516c0.309,0,0.637,0.035,0.983,0.104v-1.769H173.263z M171.183,88.983
			c0.096,0.037,0.22,0.056,0.372,0.056c0.151,0,0.322-0.025,0.512-0.076s0.337-0.1,0.444-0.147l0.159-0.072v-2.712
			c-0.341-0.064-0.658-0.096-0.952-0.096c-0.405,0-0.688,0.129-0.848,0.388s-0.24,0.66-0.24,1.204c0,0.618,0.094,1.034,0.28,1.248
			C170.995,88.877,171.086,88.946,171.183,88.983z"/>
		<path fill="#4D4D4D" d="M174.422,89.495v-4h0.592v0.544c0.464-0.32,0.952-0.53,1.464-0.632v0.607
			c-0.224,0.043-0.457,0.109-0.7,0.2c-0.242,0.091-0.428,0.171-0.556,0.24l-0.2,0.104v2.936H174.422z"/>
		<path fill="#4D4D4D" d="M177.19,84.591v-0.695h0.6v0.695H177.19z M177.19,89.495v-4h0.6v4H177.19z"/>
		<path fill="#4D4D4D" d="M180.486,91.375c-0.64,0-1.087-0.087-1.34-0.26c-0.254-0.174-0.38-0.489-0.38-0.948
			c0-0.219,0.048-0.396,0.144-0.532c0.096-0.136,0.259-0.289,0.488-0.46c-0.149-0.101-0.225-0.285-0.225-0.552
			c0-0.091,0.067-0.259,0.2-0.504l0.072-0.128c-0.422-0.192-0.632-0.595-0.632-1.208c0-0.912,0.498-1.368,1.496-1.368
			c0.256,0,0.493,0.026,0.712,0.08l0.12,0.024l1.184-0.032v0.512l-0.76-0.016c0.176,0.176,0.264,0.442,0.264,0.8
			c0,0.501-0.124,0.852-0.372,1.052s-0.639,0.3-1.172,0.3c-0.144,0-0.274-0.011-0.392-0.031c-0.097,0.234-0.145,0.387-0.145,0.456
			c0,0.165,0.051,0.268,0.152,0.308s0.408,0.06,0.92,0.06s0.88,0.08,1.104,0.24c0.225,0.16,0.337,0.472,0.337,0.937
			C182.263,90.951,181.67,91.375,180.486,91.375z M179.358,90.119c0,0.282,0.078,0.479,0.235,0.588s0.448,0.164,0.872,0.164
			c0.425,0,0.729-0.059,0.912-0.176c0.185-0.117,0.276-0.313,0.276-0.588c0-0.275-0.066-0.452-0.2-0.532
			c-0.133-0.08-0.395-0.12-0.784-0.12l-0.863-0.04c-0.177,0.128-0.295,0.24-0.356,0.336S179.358,89.97,179.358,90.119z
			 M179.414,86.783c0,0.314,0.07,0.539,0.212,0.672c0.142,0.134,0.375,0.2,0.7,0.2s0.558-0.066,0.696-0.2
			c0.139-0.133,0.208-0.358,0.208-0.676s-0.069-0.543-0.208-0.676c-0.139-0.134-0.371-0.2-0.696-0.2s-0.559,0.067-0.7,0.204
			C179.484,86.243,179.414,86.469,179.414,86.783z"/>
		<path fill="#4D4D4D" d="M185.773,88.999l0.232-0.023l0.016,0.472c-0.608,0.085-1.128,0.128-1.56,0.128
			c-0.576,0-0.984-0.167-1.225-0.5s-0.359-0.853-0.359-1.556c0-1.403,0.557-2.104,1.672-2.104c0.538,0,0.941,0.15,1.208,0.452
			s0.399,0.774,0.399,1.42l-0.031,0.456h-2.641c0,0.442,0.08,0.771,0.24,0.984c0.16,0.213,0.438,0.319,0.836,0.319
			S185.362,89.031,185.773,88.999z M185.558,87.263c0-0.49-0.079-0.837-0.236-1.04c-0.157-0.202-0.413-0.304-0.768-0.304
			s-0.621,0.106-0.8,0.32c-0.179,0.213-0.271,0.555-0.276,1.023H185.558z"/>
		<path fill="#4D4D4D" d="M187.094,89.495v-4h0.592v0.544c0.464-0.32,0.952-0.53,1.464-0.632v0.607
			c-0.224,0.043-0.457,0.109-0.7,0.2c-0.242,0.091-0.428,0.171-0.556,0.24l-0.2,0.104v2.936H187.094z"/>
		<path fill="#4D4D4D" d="M125.104,96.303v2.048c0.016,0.197,0.17,0.314,0.464,0.353l-0.024,0.472c-0.421,0-0.738-0.106-0.952-0.32
			c-0.479,0.214-0.96,0.32-1.439,0.32c-0.368,0-0.648-0.104-0.84-0.312c-0.192-0.208-0.288-0.506-0.288-0.896
			s0.099-0.676,0.296-0.86c0.197-0.184,0.507-0.297,0.928-0.34l1.256-0.12v-0.344c0-0.272-0.059-0.467-0.176-0.584
			s-0.277-0.176-0.48-0.176c-0.427,0-0.869,0.026-1.327,0.08l-0.248,0.023l-0.024-0.456c0.587-0.117,1.106-0.176,1.56-0.176
			c0.454,0,0.783,0.104,0.988,0.312S125.104,95.86,125.104,96.303z M122.639,97.935c0,0.491,0.203,0.736,0.608,0.736
			c0.362,0,0.72-0.062,1.072-0.185l0.184-0.063v-1.32l-1.184,0.112c-0.24,0.021-0.414,0.091-0.521,0.208
			S122.639,97.711,122.639,97.935z"/>
		<path fill="#4D4D4D" d="M126.335,99.095v-5.744h0.6v5.744H126.335z"/>
		<path fill="#4D4D4D" d="M129.391,95.551c-0.581,0-0.872,0.203-0.872,0.608c0,0.187,0.066,0.318,0.2,0.396
			c0.133,0.077,0.438,0.157,0.912,0.24s0.811,0.198,1.008,0.348s0.296,0.43,0.296,0.84c0,0.411-0.132,0.712-0.396,0.904
			c-0.265,0.192-0.649,0.288-1.156,0.288c-0.331,0-0.721-0.037-1.168-0.112l-0.24-0.04l0.032-0.52
			c0.607,0.091,1.066,0.136,1.376,0.136c0.309,0,0.545-0.049,0.708-0.147c0.162-0.099,0.244-0.265,0.244-0.496
			c0-0.232-0.069-0.39-0.208-0.473c-0.139-0.082-0.443-0.161-0.912-0.235c-0.47-0.075-0.803-0.185-1-0.328
			c-0.197-0.145-0.296-0.411-0.296-0.8c0-0.39,0.137-0.678,0.412-0.864c0.274-0.187,0.617-0.28,1.027-0.28
			c0.325,0,0.733,0.037,1.225,0.112l0.224,0.04l-0.016,0.512C130.198,95.594,129.731,95.551,129.391,95.551z"/>
		<path fill="#4D4D4D" d="M133.279,93.559h0.64l0.944,4.992h0.231l1.128-4.944h0.721l1.128,4.944h0.231l0.944-4.992h0.632
			l-1.12,5.536h-1.128l-1.048-4.728l-1.048,4.728h-1.128L133.279,93.559z"/>
		<path fill="#4D4D4D" d="M143.407,96.303v2.048c0.016,0.197,0.17,0.314,0.464,0.353l-0.024,0.472c-0.421,0-0.738-0.106-0.952-0.32
			c-0.479,0.214-0.96,0.32-1.439,0.32c-0.368,0-0.648-0.104-0.84-0.312c-0.192-0.208-0.288-0.506-0.288-0.896
			s0.099-0.676,0.296-0.86c0.197-0.184,0.507-0.297,0.928-0.34l1.256-0.12v-0.344c0-0.272-0.059-0.467-0.176-0.584
			s-0.277-0.176-0.48-0.176c-0.427,0-0.869,0.026-1.327,0.08l-0.248,0.023l-0.024-0.456c0.587-0.117,1.106-0.176,1.56-0.176
			c0.454,0,0.783,0.104,0.988,0.312S143.407,95.86,143.407,96.303z M140.942,97.935c0,0.491,0.203,0.736,0.608,0.736
			c0.362,0,0.72-0.062,1.072-0.185l0.184-0.063v-1.32l-1.184,0.112c-0.24,0.021-0.414,0.091-0.521,0.208
			S140.942,97.711,140.942,97.935z"/>
		<path fill="#4D4D4D" d="M145.19,99.095h-0.6v-4h0.592v0.28c0.432-0.24,0.846-0.36,1.24-0.36c0.533,0,0.892,0.145,1.076,0.432
			c0.184,0.288,0.275,0.801,0.275,1.536v2.112h-0.592v-2.096c0-0.555-0.055-0.935-0.164-1.141c-0.109-0.205-0.343-0.308-0.7-0.308
			c-0.171,0-0.351,0.025-0.54,0.076s-0.334,0.1-0.436,0.147l-0.152,0.072V99.095z"/>
		<path fill="#4D4D4D" d="M151.959,93.351v5.744h-0.593v-0.272c-0.41,0.235-0.815,0.353-1.216,0.353c-0.213,0-0.399-0.026-0.56-0.08
			s-0.31-0.149-0.448-0.288c-0.288-0.288-0.432-0.82-0.432-1.596c0-0.776,0.129-1.336,0.388-1.681
			c0.259-0.344,0.687-0.516,1.284-0.516c0.309,0,0.637,0.035,0.983,0.104v-1.769H151.959z M149.879,98.583
			c0.096,0.037,0.22,0.056,0.372,0.056c0.151,0,0.322-0.025,0.512-0.076s0.337-0.1,0.444-0.147l0.159-0.072v-2.712
			c-0.341-0.064-0.658-0.096-0.952-0.096c-0.405,0-0.688,0.129-0.848,0.388s-0.24,0.66-0.24,1.204c0,0.618,0.094,1.034,0.28,1.248
			C149.691,98.477,149.782,98.546,149.879,98.583z"/>
		<path fill="#4D4D4D" d="M153.167,99.095v-5.744h0.6v5.744H153.167z"/>
		<path fill="#4D4D4D" d="M157.463,95.095h0.6v4h-0.6v-0.28c-0.4,0.24-0.795,0.36-1.185,0.36c-0.544,0-0.905-0.142-1.084-0.424
			c-0.179-0.283-0.268-0.806-0.268-1.568v-2.088h0.6v2.08c0,0.581,0.051,0.971,0.152,1.168s0.33,0.296,0.688,0.296
			c0.177,0,0.355-0.025,0.536-0.076c0.182-0.051,0.32-0.1,0.416-0.147l0.145-0.072V95.095z"/>
		<path fill="#4D4D4D" d="M159.814,99.095h-0.6v-4h0.592v0.28c0.432-0.24,0.846-0.36,1.24-0.36c0.533,0,0.892,0.145,1.076,0.432
			c0.184,0.288,0.275,0.801,0.275,1.536v2.112h-0.592v-2.096c0-0.555-0.055-0.935-0.164-1.141c-0.109-0.205-0.343-0.308-0.7-0.308
			c-0.171,0-0.351,0.025-0.54,0.076s-0.334,0.1-0.436,0.147l-0.152,0.072V99.095z"/>
		<path fill="#4D4D4D" d="M165.055,100.975c-0.64,0-1.087-0.087-1.34-0.26c-0.254-0.174-0.38-0.489-0.38-0.948
			c0-0.219,0.048-0.396,0.144-0.532c0.096-0.136,0.259-0.289,0.488-0.46c-0.149-0.101-0.225-0.285-0.225-0.552
			c0-0.091,0.067-0.259,0.2-0.504l0.072-0.128c-0.422-0.192-0.632-0.595-0.632-1.208c0-0.912,0.498-1.368,1.496-1.368
			c0.256,0,0.493,0.026,0.712,0.08l0.12,0.024l1.184-0.032v0.512l-0.76-0.016c0.176,0.176,0.264,0.442,0.264,0.8
			c0,0.501-0.124,0.852-0.372,1.052s-0.639,0.3-1.172,0.3c-0.144,0-0.274-0.011-0.392-0.031c-0.097,0.234-0.145,0.387-0.145,0.456
			c0,0.165,0.051,0.268,0.152,0.308s0.408,0.06,0.92,0.06s0.88,0.08,1.104,0.24c0.225,0.16,0.337,0.472,0.337,0.937
			C166.831,100.551,166.238,100.975,165.055,100.975z M163.927,99.719c0,0.282,0.078,0.479,0.235,0.588s0.448,0.164,0.872,0.164
			c0.425,0,0.729-0.059,0.912-0.176c0.185-0.117,0.276-0.313,0.276-0.588c0-0.275-0.066-0.452-0.2-0.532
			c-0.133-0.08-0.395-0.12-0.784-0.12l-0.863-0.04c-0.177,0.128-0.295,0.24-0.356,0.336S163.927,99.569,163.927,99.719z
			 M163.982,96.383c0,0.314,0.07,0.539,0.212,0.672c0.142,0.134,0.375,0.2,0.7,0.2s0.558-0.066,0.696-0.2
			c0.139-0.133,0.208-0.358,0.208-0.676s-0.069-0.543-0.208-0.676c-0.139-0.134-0.371-0.2-0.696-0.2s-0.559,0.067-0.7,0.204
			C164.053,95.843,163.982,96.068,163.982,96.383z"/>
		<path fill="#4D4D4D" d="M168.878,95.551c-0.581,0-0.872,0.203-0.872,0.608c0,0.187,0.066,0.318,0.2,0.396
			c0.133,0.077,0.438,0.157,0.912,0.24s0.811,0.198,1.008,0.348s0.296,0.43,0.296,0.84c0,0.411-0.132,0.712-0.396,0.904
			c-0.265,0.192-0.649,0.288-1.156,0.288c-0.331,0-0.721-0.037-1.168-0.112l-0.24-0.04l0.032-0.52
			c0.607,0.091,1.066,0.136,1.376,0.136c0.309,0,0.545-0.049,0.708-0.147c0.162-0.099,0.244-0.265,0.244-0.496
			c0-0.232-0.069-0.39-0.208-0.473c-0.139-0.082-0.443-0.161-0.912-0.235c-0.47-0.075-0.803-0.185-1-0.328
			c-0.197-0.145-0.296-0.411-0.296-0.8c0-0.39,0.137-0.678,0.412-0.864c0.274-0.187,0.617-0.28,1.027-0.28
			c0.325,0,0.733,0.037,1.225,0.112l0.224,0.04l-0.016,0.512C169.686,95.594,169.219,95.551,168.878,95.551z"/>
		<path fill="#4D4D4D" d="M171.342,100.871v-5.776h0.592v0.288c0.405-0.245,0.806-0.368,1.2-0.368c0.507,0,0.874,0.161,1.104,0.484
			c0.229,0.322,0.345,0.854,0.345,1.596s-0.135,1.273-0.404,1.596c-0.27,0.323-0.716,0.484-1.34,0.484
			c-0.325,0-0.624-0.029-0.896-0.088v1.784H171.342z M173.046,95.551c-0.16,0-0.332,0.026-0.517,0.08
			c-0.184,0.054-0.329,0.106-0.436,0.16l-0.152,0.08v2.695c0.379,0.059,0.667,0.088,0.864,0.088c0.432,0,0.734-0.122,0.908-0.367
			c0.173-0.246,0.26-0.646,0.26-1.2s-0.079-0.949-0.236-1.185C173.58,95.668,173.35,95.551,173.046,95.551z"/>
		<path fill="#4D4D4D" d="M175.559,99.095v-4h0.592v0.544c0.464-0.32,0.952-0.53,1.464-0.632v0.607
			c-0.224,0.043-0.457,0.109-0.7,0.2c-0.242,0.091-0.428,0.171-0.556,0.24l-0.2,0.104v2.936H175.559z"/>
		<path fill="#4D4D4D" d="M180.966,98.599l0.232-0.023l0.016,0.472c-0.608,0.085-1.128,0.128-1.56,0.128
			c-0.576,0-0.984-0.167-1.225-0.5s-0.359-0.853-0.359-1.556c0-1.403,0.557-2.104,1.672-2.104c0.538,0,0.941,0.15,1.208,0.452
			s0.399,0.774,0.399,1.42l-0.031,0.456h-2.641c0,0.442,0.08,0.771,0.24,0.984c0.16,0.213,0.438,0.319,0.836,0.319
			S180.555,98.631,180.966,98.599z M180.75,96.862c0-0.49-0.079-0.837-0.236-1.04c-0.157-0.202-0.413-0.304-0.768-0.304
			s-0.621,0.106-0.8,0.32c-0.179,0.213-0.271,0.555-0.276,1.023H180.75z"/>
		<path fill="#4D4D4D" d="M182.286,94.19v-0.695h0.6v0.695H182.286z M182.286,99.095v-4h0.6v4H182.286z"/>
		<path fill="#4D4D4D" d="M185.294,95.551c-0.581,0-0.872,0.203-0.872,0.608c0,0.187,0.066,0.318,0.2,0.396
			c0.133,0.077,0.438,0.157,0.912,0.24s0.811,0.198,1.008,0.348s0.296,0.43,0.296,0.84c0,0.411-0.132,0.712-0.396,0.904
			c-0.265,0.192-0.649,0.288-1.156,0.288c-0.331,0-0.721-0.037-1.168-0.112l-0.24-0.04l0.032-0.52
			c0.607,0.091,1.066,0.136,1.376,0.136c0.309,0,0.545-0.049,0.708-0.147c0.162-0.099,0.244-0.265,0.244-0.496
			c0-0.232-0.069-0.39-0.208-0.473c-0.139-0.082-0.443-0.161-0.912-0.235c-0.47-0.075-0.803-0.185-1-0.328
			c-0.197-0.145-0.296-0.411-0.296-0.8c0-0.39,0.137-0.678,0.412-0.864c0.274-0.187,0.617-0.28,1.027-0.28
			c0.325,0,0.733,0.037,1.225,0.112l0.224,0.04l-0.016,0.512C186.102,95.594,185.635,95.551,185.294,95.551z"/>
	</g>
</g>
<polyline fill="none" stroke="#00B8FA" stroke-miterlimit="10" points="129.665,78.615 129.665,64.029 71.147,64.029 "/>
<polyline fill="none" stroke="#00B8FA" stroke-miterlimit="10" points="71.799,52.916 71.799,64.029 10.963,64.029 10.963,78.615 
	"/>
<g>
	<g>
		<path fill="#4D4D4D" d="M0.789,89.495l1.52-5.536h1.344l1.521,5.536H4.564l-0.399-1.424H1.797l-0.4,1.424H0.789z M2.772,84.487
			l-0.84,3.032h2.096l-0.84-3.032H2.772z"/>
		<path fill="#4D4D4D" d="M6.54,89.495h-0.6v-5.744h0.6v3.393l0.624-0.032l1.145-1.616h0.68l-1.304,1.84l1.359,2.16h-0.68
			l-1.192-1.856L6.54,87.663V89.495z"/>
		<path fill="#4D4D4D" d="M11.845,86.015h-1.272v1.912c0,0.459,0.033,0.761,0.1,0.904c0.067,0.145,0.226,0.216,0.477,0.216
			l0.712-0.048l0.04,0.496c-0.357,0.059-0.63,0.088-0.816,0.088c-0.416,0-0.704-0.102-0.863-0.304c-0.16-0.203-0.24-0.59-0.24-1.16
			v-2.104H9.412v-0.52H9.98v-1.224h0.592v1.224h1.272V86.015z"/>
		<path fill="#4D4D4D" d="M12.581,84.591v-0.695h0.6v0.695H12.581z M12.581,89.495v-4h0.6v4H12.581z"/>
		<path fill="#4D4D4D" d="M17.053,88.999l0.232-0.023l0.016,0.472c-0.608,0.085-1.128,0.128-1.56,0.128
			c-0.576,0-0.984-0.167-1.225-0.5s-0.359-0.853-0.359-1.556c0-1.403,0.557-2.104,1.672-2.104c0.538,0,0.941,0.15,1.208,0.452
			s0.399,0.774,0.399,1.42l-0.031,0.456h-2.641c0,0.442,0.08,0.771,0.24,0.984c0.16,0.213,0.438,0.319,0.836,0.319
			S16.642,89.031,17.053,88.999z M16.837,87.263c0-0.49-0.079-0.837-0.236-1.04c-0.157-0.202-0.413-0.304-0.768-0.304
			s-0.621,0.106-0.8,0.32c-0.179,0.213-0.271,0.555-0.276,1.023H16.837z"/>
		<path fill="#4D4D4D" d="M18.972,89.495h-0.6v-4h0.592v0.28c0.432-0.24,0.846-0.36,1.24-0.36c0.533,0,0.892,0.145,1.076,0.432
			c0.184,0.288,0.275,0.801,0.275,1.536v2.112h-0.592v-2.096c0-0.555-0.055-0.935-0.164-1.141c-0.109-0.205-0.343-0.308-0.7-0.308
			c-0.171,0-0.351,0.025-0.54,0.076s-0.334,0.1-0.436,0.147l-0.152,0.072V89.495z"/>
		<path fill="#4D4D4D" d="M23.269,89.495h-0.6v-5.744h0.6v3.393l0.624-0.032l1.145-1.616h0.68l-1.304,1.84l1.359,2.16h-0.68
			L23.9,87.639l-0.632,0.024V89.495z"/>
		<path fill="#4D4D4D" d="M28.996,85.495h0.6v4h-0.6v-0.28c-0.4,0.24-0.795,0.36-1.185,0.36c-0.544,0-0.905-0.142-1.084-0.424
			c-0.179-0.283-0.268-0.806-0.268-1.568v-2.088h0.6v2.08c0,0.581,0.051,0.971,0.152,1.168s0.33,0.296,0.688,0.296
			c0.177,0,0.355-0.025,0.536-0.076c0.182-0.051,0.32-0.1,0.416-0.147l0.145-0.072V85.495z"/>
		<path fill="#4D4D4D" d="M30.748,89.495v-4h0.592v0.544c0.464-0.32,0.952-0.53,1.464-0.632v0.607c-0.224,0.043-0.457,0.109-0.7,0.2
			c-0.242,0.091-0.428,0.171-0.556,0.24l-0.2,0.104v2.936H30.748z"/>
		<path fill="#4D4D4D" d="M34.772,85.951c-0.581,0-0.872,0.203-0.872,0.608c0,0.187,0.066,0.318,0.2,0.396
			c0.133,0.077,0.438,0.157,0.912,0.24s0.811,0.198,1.008,0.348s0.296,0.43,0.296,0.84c0,0.411-0.132,0.712-0.396,0.904
			c-0.265,0.192-0.649,0.288-1.156,0.288c-0.331,0-0.721-0.037-1.168-0.112l-0.24-0.04l0.032-0.52
			c0.607,0.091,1.066,0.136,1.376,0.136c0.309,0,0.545-0.049,0.708-0.147c0.162-0.099,0.244-0.265,0.244-0.496
			c0-0.232-0.069-0.39-0.208-0.473c-0.139-0.082-0.443-0.161-0.912-0.235c-0.47-0.075-0.803-0.185-1-0.328
			c-0.197-0.145-0.296-0.411-0.296-0.8c0-0.39,0.137-0.678,0.412-0.864c0.274-0.187,0.617-0.28,1.027-0.28
			c0.325,0,0.733,0.037,1.225,0.112l0.224,0.04l-0.016,0.512C35.58,85.994,35.113,85.951,34.772,85.951z"/>
		<path fill="#4D4D4D" d="M39.596,89.495h-0.6v-5.744h0.6v1.968c0.427-0.202,0.838-0.304,1.232-0.304
			c0.533,0,0.892,0.145,1.076,0.432c0.184,0.288,0.275,0.801,0.275,1.536v2.112h-0.6v-2.096c0-0.555-0.055-0.935-0.164-1.141
			c-0.109-0.205-0.34-0.308-0.692-0.308c-0.336,0-0.661,0.062-0.976,0.184l-0.152,0.057V89.495z"/>
		<path fill="#4D4D4D" d="M44.832,85.415c0.621,0,1.062,0.163,1.319,0.488c0.259,0.325,0.389,0.854,0.389,1.584
			s-0.123,1.261-0.368,1.592s-0.693,0.496-1.344,0.496c-0.651,0-1.099-0.165-1.345-0.496c-0.245-0.331-0.367-0.861-0.367-1.592
			s0.13-1.259,0.392-1.584S44.21,85.415,44.832,85.415z M43.716,84.527v-0.721h0.576v0.721H43.716z M44.832,89.055
			c0.45,0,0.745-0.115,0.884-0.348c0.139-0.231,0.208-0.642,0.208-1.228c0-0.587-0.077-0.991-0.232-1.212
			c-0.154-0.222-0.441-0.332-0.859-0.332c-0.419,0-0.707,0.11-0.864,0.332c-0.157,0.221-0.236,0.624-0.236,1.208
			s0.071,0.993,0.212,1.228C44.085,88.938,44.381,89.055,44.832,89.055z M45.315,84.527v-0.721h0.584v0.721H45.315z"/>
		<path fill="#4D4D4D" d="M48.115,89.495h-0.6v-5.744h0.6v1.968c0.427-0.202,0.838-0.304,1.232-0.304
			c0.533,0,0.892,0.145,1.076,0.432c0.184,0.288,0.275,0.801,0.275,1.536v2.112h-0.6v-2.096c0-0.555-0.055-0.935-0.164-1.141
			c-0.109-0.205-0.34-0.308-0.692-0.308c-0.336,0-0.661,0.062-0.976,0.184l-0.152,0.057V89.495z"/>
		<path fill="#4D4D4D" d="M54.531,88.999l0.232-0.023l0.016,0.472c-0.608,0.085-1.128,0.128-1.56,0.128
			c-0.576,0-0.984-0.167-1.225-0.5s-0.359-0.853-0.359-1.556c0-1.403,0.557-2.104,1.672-2.104c0.538,0,0.941,0.15,1.208,0.452
			s0.399,0.774,0.399,1.42l-0.031,0.456h-2.641c0,0.442,0.08,0.771,0.24,0.984c0.16,0.213,0.438,0.319,0.836,0.319
			S54.12,89.031,54.531,88.999z M54.315,87.263c0-0.49-0.079-0.837-0.236-1.04c-0.157-0.202-0.413-0.304-0.768-0.304
			s-0.621,0.106-0.8,0.32c-0.179,0.213-0.271,0.555-0.276,1.023H54.315z"/>
		<path fill="#4D4D4D" d="M55.852,89.495v-4h0.592v0.544c0.464-0.32,0.952-0.53,1.464-0.632v0.607c-0.224,0.043-0.457,0.109-0.7,0.2
			c-0.242,0.091-0.428,0.171-0.556,0.24l-0.2,0.104v2.936H55.852z"/>
		<path fill="#4D4D4D" d="M63.204,86.703v2.048c0.016,0.197,0.17,0.314,0.464,0.353l-0.024,0.472c-0.421,0-0.738-0.106-0.952-0.32
			c-0.479,0.214-0.96,0.32-1.439,0.32c-0.368,0-0.648-0.104-0.84-0.312c-0.192-0.208-0.288-0.506-0.288-0.896
			s0.099-0.676,0.296-0.86c0.197-0.184,0.507-0.297,0.928-0.34l1.256-0.12v-0.344c0-0.272-0.059-0.467-0.176-0.584
			s-0.277-0.176-0.48-0.176c-0.427,0-0.869,0.026-1.327,0.08l-0.248,0.023l-0.024-0.456c0.587-0.117,1.106-0.176,1.56-0.176
			c0.454,0,0.783,0.104,0.988,0.312S63.204,86.261,63.204,86.703z M60.739,88.335c0,0.491,0.203,0.736,0.608,0.736
			c0.362,0,0.72-0.062,1.072-0.185l0.184-0.063v-1.32l-1.184,0.112c-0.24,0.021-0.414,0.091-0.521,0.208
			S60.739,88.111,60.739,88.335z"/>
		<path fill="#4D4D4D" d="M64.436,89.495v-5.744h0.6v5.744H64.436z"/>
		<path fill="#4D4D4D" d="M67.491,85.951c-0.581,0-0.872,0.203-0.872,0.608c0,0.187,0.066,0.318,0.2,0.396
			c0.133,0.077,0.438,0.157,0.912,0.24s0.811,0.198,1.008,0.348s0.296,0.43,0.296,0.84c0,0.411-0.132,0.712-0.396,0.904
			c-0.265,0.192-0.649,0.288-1.156,0.288c-0.331,0-0.721-0.037-1.168-0.112l-0.24-0.04l0.032-0.52
			c0.607,0.091,1.066,0.136,1.376,0.136c0.309,0,0.545-0.049,0.708-0.147c0.162-0.099,0.244-0.265,0.244-0.496
			c0-0.232-0.069-0.39-0.208-0.473c-0.139-0.082-0.443-0.161-0.912-0.235c-0.47-0.075-0.803-0.185-1-0.328
			c-0.197-0.145-0.296-0.411-0.296-0.8c0-0.39,0.137-0.678,0.412-0.864c0.274-0.187,0.617-0.28,1.027-0.28
			c0.325,0,0.733,0.037,1.225,0.112l0.224,0.04l-0.016,0.512C68.299,85.994,67.832,85.951,67.491,85.951z"/>
		<path fill="#4D4D4D" d="M0.837,93.559h0.64l0.944,4.992h0.231l1.128-4.944h0.721l1.128,4.944H5.86l0.944-4.992h0.632l-1.12,5.536
			H5.188l-1.048-4.728l-1.048,4.728H1.965L0.837,93.559z"/>
		<path fill="#4D4D4D" d="M10.965,96.303v2.048c0.016,0.197,0.17,0.314,0.464,0.353l-0.024,0.472c-0.421,0-0.738-0.106-0.952-0.32
			c-0.479,0.214-0.96,0.32-1.439,0.32c-0.368,0-0.648-0.104-0.84-0.312c-0.192-0.208-0.288-0.506-0.288-0.896
			s0.099-0.676,0.296-0.86c0.197-0.184,0.507-0.297,0.928-0.34l1.256-0.12v-0.344c0-0.272-0.059-0.467-0.176-0.584
			s-0.277-0.176-0.48-0.176c-0.427,0-0.869,0.026-1.327,0.08l-0.248,0.023L8.108,95.19c0.587-0.117,1.106-0.176,1.56-0.176
			c0.454,0,0.783,0.104,0.988,0.312S10.965,95.86,10.965,96.303z M8.5,97.935c0,0.491,0.203,0.736,0.608,0.736
			c0.362,0,0.72-0.062,1.072-0.185l0.184-0.063v-1.32l-1.184,0.112c-0.24,0.021-0.414,0.091-0.521,0.208S8.5,97.711,8.5,97.935z"/>
		<path fill="#4D4D4D" d="M12.748,99.095h-0.6v-4h0.592v0.28c0.432-0.24,0.846-0.36,1.24-0.36c0.533,0,0.892,0.145,1.076,0.432
			c0.184,0.288,0.275,0.801,0.275,1.536v2.112H14.74v-2.096c0-0.555-0.055-0.935-0.164-1.141c-0.109-0.205-0.343-0.308-0.7-0.308
			c-0.171,0-0.351,0.025-0.54,0.076s-0.334,0.1-0.436,0.147l-0.152,0.072V99.095z"/>
		<path fill="#4D4D4D" d="M19.517,93.351v5.744h-0.593v-0.272c-0.41,0.235-0.815,0.353-1.216,0.353c-0.213,0-0.399-0.026-0.56-0.08
			s-0.31-0.149-0.448-0.288c-0.288-0.288-0.432-0.82-0.432-1.596c0-0.776,0.129-1.336,0.388-1.681
			c0.259-0.344,0.687-0.516,1.284-0.516c0.309,0,0.637,0.035,0.983,0.104v-1.769H19.517z M17.437,98.583
			c0.096,0.037,0.22,0.056,0.372,0.056c0.151,0,0.322-0.025,0.512-0.076s0.337-0.1,0.444-0.147l0.159-0.072v-2.712
			c-0.341-0.064-0.658-0.096-0.952-0.096c-0.405,0-0.688,0.129-0.848,0.388s-0.24,0.66-0.24,1.204c0,0.618,0.094,1.034,0.28,1.248
			C17.249,98.477,17.34,98.546,17.437,98.583z"/>
		<path fill="#4D4D4D" d="M20.725,99.095v-5.744h0.6v5.744H20.725z"/>
		<path fill="#4D4D4D" d="M25.021,95.095h0.6v4h-0.6v-0.28c-0.4,0.24-0.795,0.36-1.185,0.36c-0.544,0-0.905-0.142-1.084-0.424
			c-0.179-0.283-0.268-0.806-0.268-1.568v-2.088h0.6v2.08c0,0.581,0.051,0.971,0.152,1.168s0.33,0.296,0.688,0.296
			c0.177,0,0.355-0.025,0.536-0.076c0.182-0.051,0.32-0.1,0.416-0.147l0.145-0.072V95.095z"/>
		<path fill="#4D4D4D" d="M27.372,99.095h-0.6v-4h0.592v0.28c0.432-0.24,0.846-0.36,1.24-0.36c0.533,0,0.892,0.145,1.076,0.432
			c0.184,0.288,0.275,0.801,0.275,1.536v2.112h-0.592v-2.096c0-0.555-0.055-0.935-0.164-1.141c-0.109-0.205-0.343-0.308-0.7-0.308
			c-0.171,0-0.351,0.025-0.54,0.076s-0.334,0.1-0.436,0.147l-0.152,0.072V99.095z"/>
		<path fill="#4D4D4D" d="M32.612,100.975c-0.64,0-1.087-0.087-1.34-0.26c-0.254-0.174-0.38-0.489-0.38-0.948
			c0-0.219,0.048-0.396,0.144-0.532c0.096-0.136,0.259-0.289,0.488-0.46c-0.149-0.101-0.225-0.285-0.225-0.552
			c0-0.091,0.067-0.259,0.2-0.504l0.072-0.128c-0.422-0.192-0.632-0.595-0.632-1.208c0-0.912,0.498-1.368,1.496-1.368
			c0.256,0,0.493,0.026,0.712,0.08l0.12,0.024l1.184-0.032v0.512l-0.76-0.016c0.176,0.176,0.264,0.442,0.264,0.8
			c0,0.501-0.124,0.852-0.372,1.052s-0.639,0.3-1.172,0.3c-0.144,0-0.274-0.011-0.392-0.031c-0.097,0.234-0.145,0.387-0.145,0.456
			c0,0.165,0.051,0.268,0.152,0.308s0.408,0.06,0.92,0.06s0.88,0.08,1.104,0.24c0.225,0.16,0.337,0.472,0.337,0.937
			C34.389,100.551,33.796,100.975,32.612,100.975z M31.484,99.719c0,0.282,0.078,0.479,0.235,0.588s0.448,0.164,0.872,0.164
			c0.425,0,0.729-0.059,0.912-0.176c0.185-0.117,0.276-0.313,0.276-0.588c0-0.275-0.066-0.452-0.2-0.532
			c-0.133-0.08-0.395-0.12-0.784-0.12l-0.863-0.04c-0.177,0.128-0.295,0.24-0.356,0.336S31.484,99.569,31.484,99.719z M31.54,96.383
			c0,0.314,0.07,0.539,0.212,0.672c0.142,0.134,0.375,0.2,0.7,0.2s0.558-0.066,0.696-0.2c0.139-0.133,0.208-0.358,0.208-0.676
			s-0.069-0.543-0.208-0.676c-0.139-0.134-0.371-0.2-0.696-0.2s-0.559,0.067-0.7,0.204C31.61,95.843,31.54,96.068,31.54,96.383z"/>
		<path fill="#4D4D4D" d="M36.437,95.551c-0.581,0-0.872,0.203-0.872,0.608c0,0.187,0.066,0.318,0.2,0.396
			c0.133,0.077,0.438,0.157,0.912,0.24s0.811,0.198,1.008,0.348s0.296,0.43,0.296,0.84c0,0.411-0.132,0.712-0.396,0.904
			c-0.265,0.192-0.649,0.288-1.156,0.288c-0.331,0-0.721-0.037-1.168-0.112l-0.24-0.04l0.032-0.52
			c0.607,0.091,1.066,0.136,1.376,0.136c0.309,0,0.545-0.049,0.708-0.147c0.162-0.099,0.244-0.265,0.244-0.496
			c0-0.232-0.069-0.39-0.208-0.473c-0.139-0.082-0.443-0.161-0.912-0.235c-0.47-0.075-0.803-0.185-1-0.328
			c-0.197-0.145-0.296-0.411-0.296-0.8c0-0.39,0.137-0.678,0.412-0.864c0.274-0.187,0.617-0.28,1.027-0.28
			c0.325,0,0.733,0.037,1.225,0.112l0.224,0.04l-0.016,0.512C37.244,95.594,36.777,95.551,36.437,95.551z"/>
		<path fill="#4D4D4D" d="M38.9,100.871v-5.776h0.592v0.288c0.405-0.245,0.806-0.368,1.2-0.368c0.507,0,0.874,0.161,1.104,0.484
			c0.229,0.322,0.345,0.854,0.345,1.596s-0.135,1.273-0.404,1.596c-0.27,0.323-0.716,0.484-1.34,0.484
			c-0.325,0-0.624-0.029-0.896-0.088v1.784H38.9z M40.604,95.551c-0.16,0-0.332,0.026-0.517,0.08
			c-0.184,0.054-0.329,0.106-0.436,0.16l-0.152,0.08v2.695c0.379,0.059,0.667,0.088,0.864,0.088c0.432,0,0.734-0.122,0.908-0.367
			c0.173-0.246,0.26-0.646,0.26-1.2s-0.079-0.949-0.236-1.185C41.139,95.668,40.908,95.551,40.604,95.551z"/>
		<path fill="#4D4D4D" d="M43.116,99.095v-4h0.592v0.544c0.464-0.32,0.952-0.53,1.464-0.632v0.607c-0.224,0.043-0.457,0.109-0.7,0.2
			c-0.242,0.091-0.428,0.171-0.556,0.24l-0.2,0.104v2.936H43.116z"/>
		<path fill="#4D4D4D" d="M48.523,98.599l0.232-0.023l0.016,0.472c-0.608,0.085-1.128,0.128-1.56,0.128
			c-0.576,0-0.984-0.167-1.225-0.5s-0.359-0.853-0.359-1.556c0-1.403,0.557-2.104,1.672-2.104c0.538,0,0.941,0.15,1.208,0.452
			s0.399,0.774,0.399,1.42l-0.031,0.456h-2.641c0,0.442,0.08,0.771,0.24,0.984c0.16,0.213,0.438,0.319,0.836,0.319
			S48.112,98.631,48.523,98.599z M48.308,96.862c0-0.49-0.079-0.837-0.236-1.04c-0.157-0.202-0.413-0.304-0.768-0.304
			s-0.621,0.106-0.8,0.32c-0.179,0.213-0.271,0.555-0.276,1.023H48.308z"/>
		<path fill="#4D4D4D" d="M49.844,94.19v-0.695h0.6v0.695H49.844z M49.844,99.095v-4h0.6v4H49.844z"/>
		<path fill="#4D4D4D" d="M52.852,95.551c-0.581,0-0.872,0.203-0.872,0.608c0,0.187,0.066,0.318,0.2,0.396
			c0.133,0.077,0.438,0.157,0.912,0.24s0.811,0.198,1.008,0.348s0.296,0.43,0.296,0.84c0,0.411-0.132,0.712-0.396,0.904
			c-0.265,0.192-0.649,0.288-1.156,0.288c-0.331,0-0.721-0.037-1.168-0.112l-0.24-0.04l0.032-0.52
			c0.607,0.091,1.066,0.136,1.376,0.136c0.309,0,0.545-0.049,0.708-0.147c0.162-0.099,0.244-0.265,0.244-0.496
			c0-0.232-0.069-0.39-0.208-0.473c-0.139-0.082-0.443-0.161-0.912-0.235c-0.47-0.075-0.803-0.185-1-0.328
			c-0.197-0.145-0.296-0.411-0.296-0.8c0-0.39,0.137-0.678,0.412-0.864c0.274-0.187,0.617-0.28,1.027-0.28
			c0.325,0,0.733,0.037,1.225,0.112l0.224,0.04l-0.016,0.512C53.659,95.594,53.192,95.551,52.852,95.551z"/>
	</g>
</g>
<g>
	<g>
		<path fill="#4D4D4D" d="M121.896,176.495l1.52-5.536h1.344l1.521,5.536h-0.608l-0.399-1.424h-2.368l-0.4,1.424H121.896z
			 M123.879,171.487l-0.84,3.032h2.096l-0.84-3.032H123.879z"/>
		<path fill="#4D4D4D" d="M129.543,172.495h0.6v4h-0.6v-0.28c-0.4,0.24-0.795,0.36-1.185,0.36c-0.544,0-0.905-0.142-1.084-0.424
			c-0.179-0.283-0.268-0.806-0.268-1.568v-2.088h0.6v2.08c0,0.581,0.051,0.971,0.152,1.168s0.33,0.296,0.688,0.296
			c0.177,0,0.355-0.025,0.536-0.076c0.182-0.051,0.32-0.1,0.416-0.147l0.145-0.072V172.495z"/>
		<path fill="#4D4D4D" d="M132.551,172.951c-0.581,0-0.872,0.203-0.872,0.608c0,0.187,0.066,0.318,0.2,0.396
			c0.133,0.077,0.438,0.157,0.912,0.24s0.811,0.198,1.008,0.348s0.296,0.43,0.296,0.84c0,0.411-0.132,0.712-0.396,0.904
			c-0.265,0.192-0.649,0.288-1.156,0.288c-0.331,0-0.721-0.037-1.168-0.112l-0.24-0.04l0.032-0.52
			c0.607,0.091,1.066,0.136,1.376,0.136c0.309,0,0.545-0.049,0.708-0.147c0.162-0.099,0.244-0.265,0.244-0.496
			c0-0.232-0.069-0.39-0.208-0.473c-0.139-0.082-0.443-0.161-0.912-0.235c-0.47-0.075-0.803-0.185-1-0.328
			c-0.197-0.145-0.296-0.411-0.296-0.8c0-0.39,0.137-0.678,0.412-0.864c0.274-0.187,0.617-0.28,1.027-0.28
			c0.325,0,0.733,0.037,1.225,0.112l0.224,0.04l-0.016,0.512C133.358,172.994,132.892,172.951,132.551,172.951z"/>
		<path fill="#4D4D4D" d="M134.775,173.031v-0.536h2.968v0.536l-2.239,2.928h2.239v0.536h-2.968v-0.536l2.24-2.928H134.775z"/>
		<path fill="#4D4D4D" d="M141.479,173.703v2.048c0.016,0.197,0.17,0.314,0.464,0.353l-0.024,0.472c-0.421,0-0.738-0.106-0.952-0.32
			c-0.479,0.214-0.96,0.32-1.439,0.32c-0.368,0-0.648-0.104-0.84-0.312c-0.192-0.208-0.288-0.506-0.288-0.896
			s0.099-0.676,0.296-0.86c0.197-0.184,0.507-0.297,0.928-0.34l1.256-0.12v-0.344c0-0.272-0.059-0.467-0.176-0.584
			s-0.277-0.176-0.48-0.176c-0.427,0-0.869,0.026-1.327,0.08l-0.248,0.023l-0.024-0.456c0.587-0.117,1.106-0.176,1.56-0.176
			c0.454,0,0.783,0.104,0.988,0.312S141.479,173.261,141.479,173.703z M139.015,175.335c0,0.491,0.203,0.736,0.608,0.736
			c0.362,0,0.72-0.062,1.072-0.185l0.184-0.063v-1.32l-1.184,0.112c-0.24,0.021-0.414,0.091-0.521,0.208
			S139.015,175.111,139.015,175.335z"/>
		<path fill="#4D4D4D" d="M143.263,176.495h-0.6v-5.744h0.6v1.968c0.427-0.202,0.838-0.304,1.232-0.304
			c0.533,0,0.892,0.145,1.076,0.432c0.184,0.288,0.275,0.801,0.275,1.536v2.112h-0.6v-2.096c0-0.555-0.055-0.935-0.164-1.141
			c-0.109-0.205-0.34-0.308-0.692-0.308c-0.336,0-0.661,0.062-0.976,0.184l-0.152,0.057V176.495z"/>
		<path fill="#4D4D4D" d="M147.007,176.495v-5.744h0.6v5.744H147.007z"/>
		<path fill="#4D4D4D" d="M151.303,172.495h0.6v4h-0.6v-0.28c-0.4,0.24-0.795,0.36-1.185,0.36c-0.544,0-0.905-0.142-1.084-0.424
			c-0.179-0.283-0.268-0.806-0.268-1.568v-2.088h0.6v2.08c0,0.581,0.051,0.971,0.152,1.168s0.33,0.296,0.688,0.296
			c0.177,0,0.355-0.025,0.536-0.076c0.182-0.051,0.32-0.1,0.416-0.147l0.145-0.072V172.495z"/>
		<path fill="#4D4D4D" d="M153.654,176.495h-0.6v-4h0.592v0.28c0.432-0.24,0.846-0.36,1.24-0.36c0.533,0,0.892,0.145,1.076,0.432
			c0.184,0.288,0.275,0.801,0.275,1.536v2.112h-0.592v-2.096c0-0.555-0.055-0.935-0.164-1.141c-0.109-0.205-0.343-0.308-0.7-0.308
			c-0.171,0-0.351,0.025-0.54,0.076s-0.334,0.1-0.436,0.147l-0.152,0.072V176.495z"/>
		<path fill="#4D4D4D" d="M158.895,178.375c-0.64,0-1.087-0.087-1.34-0.26c-0.254-0.174-0.38-0.489-0.38-0.948
			c0-0.219,0.048-0.396,0.144-0.532c0.096-0.136,0.259-0.289,0.488-0.46c-0.149-0.101-0.225-0.285-0.225-0.552
			c0-0.091,0.067-0.259,0.2-0.504l0.072-0.128c-0.422-0.192-0.632-0.595-0.632-1.208c0-0.912,0.498-1.368,1.496-1.368
			c0.256,0,0.493,0.026,0.712,0.08l0.12,0.024l1.184-0.032v0.512l-0.76-0.016c0.176,0.176,0.264,0.442,0.264,0.8
			c0,0.501-0.124,0.852-0.372,1.052s-0.639,0.3-1.172,0.3c-0.144,0-0.274-0.011-0.392-0.031c-0.097,0.234-0.145,0.387-0.145,0.456
			c0,0.165,0.051,0.268,0.152,0.308s0.408,0.06,0.92,0.06s0.88,0.08,1.104,0.24c0.225,0.16,0.337,0.472,0.337,0.937
			C160.671,177.951,160.078,178.375,158.895,178.375z M157.767,177.119c0,0.282,0.078,0.479,0.235,0.588s0.448,0.164,0.872,0.164
			c0.425,0,0.729-0.059,0.912-0.176c0.185-0.117,0.276-0.313,0.276-0.588c0-0.275-0.066-0.452-0.2-0.532
			c-0.133-0.08-0.395-0.12-0.784-0.12l-0.863-0.04c-0.177,0.128-0.295,0.24-0.356,0.336S157.767,176.97,157.767,177.119z
			 M157.822,173.783c0,0.314,0.07,0.539,0.212,0.672c0.142,0.134,0.375,0.2,0.7,0.2s0.558-0.066,0.696-0.2
			c0.139-0.133,0.208-0.358,0.208-0.676s-0.069-0.543-0.208-0.676c-0.139-0.134-0.371-0.2-0.696-0.2s-0.559,0.067-0.7,0.204
			C157.893,173.243,157.822,173.469,157.822,173.783z"/>
		<path fill="#4D4D4D" d="M166.295,170.751v5.744h-0.593v-0.272c-0.41,0.235-0.815,0.353-1.216,0.353
			c-0.213,0-0.399-0.026-0.56-0.08s-0.31-0.149-0.448-0.288c-0.288-0.288-0.432-0.82-0.432-1.596c0-0.776,0.129-1.336,0.388-1.681
			c0.259-0.344,0.687-0.516,1.284-0.516c0.309,0,0.637,0.035,0.983,0.104v-1.769H166.295z M164.215,175.983
			c0.096,0.037,0.22,0.056,0.372,0.056c0.151,0,0.322-0.025,0.512-0.076s0.337-0.1,0.444-0.147l0.159-0.072v-2.712
			c-0.341-0.064-0.658-0.096-0.952-0.096c-0.405,0-0.688,0.129-0.848,0.388s-0.24,0.66-0.24,1.204c0,0.618,0.094,1.034,0.28,1.248
			C164.027,175.877,164.118,175.946,164.215,175.983z"/>
		<path fill="#4D4D4D" d="M170.174,175.999l0.232-0.023l0.016,0.472c-0.608,0.085-1.128,0.128-1.56,0.128
			c-0.576,0-0.984-0.167-1.225-0.5s-0.359-0.853-0.359-1.556c0-1.403,0.557-2.104,1.672-2.104c0.538,0,0.941,0.15,1.208,0.452
			s0.399,0.774,0.399,1.42l-0.031,0.456h-2.641c0,0.442,0.08,0.771,0.24,0.984c0.16,0.213,0.438,0.319,0.836,0.319
			S169.763,176.031,170.174,175.999z M169.958,174.263c0-0.49-0.079-0.837-0.236-1.04c-0.157-0.202-0.413-0.304-0.768-0.304
			s-0.621,0.106-0.8,0.32c-0.179,0.213-0.271,0.555-0.276,1.023H169.958z"/>
		<path fill="#4D4D4D" d="M172.75,172.951c-0.581,0-0.872,0.203-0.872,0.608c0,0.187,0.066,0.318,0.2,0.396
			c0.133,0.077,0.438,0.157,0.912,0.24s0.811,0.198,1.008,0.348s0.296,0.43,0.296,0.84c0,0.411-0.132,0.712-0.396,0.904
			c-0.265,0.192-0.649,0.288-1.156,0.288c-0.331,0-0.721-0.037-1.168-0.112l-0.24-0.04l0.032-0.52
			c0.607,0.091,1.066,0.136,1.376,0.136c0.309,0,0.545-0.049,0.708-0.147c0.162-0.099,0.244-0.265,0.244-0.496
			c0-0.232-0.069-0.39-0.208-0.473c-0.139-0.082-0.443-0.161-0.912-0.235c-0.47-0.075-0.803-0.185-1-0.328
			c-0.197-0.145-0.296-0.411-0.296-0.8c0-0.39,0.137-0.678,0.412-0.864c0.274-0.187,0.617-0.28,1.027-0.28
			c0.325,0,0.733,0.037,1.225,0.112l0.224,0.04l-0.016,0.512C173.558,172.994,173.091,172.951,172.75,172.951z"/>
		<path fill="#4D4D4D" d="M122.383,186.095v-5.536h1.152l2.12,4.992h0.168v-4.992h0.607v5.536h-1.128l-2.151-4.992h-0.152v4.992
			H122.383z"/>
		<path fill="#4D4D4D" d="M127.472,184.087c0-0.73,0.13-1.259,0.392-1.584s0.702-0.488,1.324-0.488c0.621,0,1.062,0.163,1.319,0.488
			c0.259,0.325,0.389,0.854,0.389,1.584s-0.123,1.261-0.368,1.592s-0.693,0.496-1.344,0.496c-0.651,0-1.099-0.165-1.345-0.496
			C127.594,185.348,127.472,184.817,127.472,184.087z M128.087,184.075c0,0.584,0.071,0.993,0.212,1.228
			c0.142,0.234,0.438,0.352,0.889,0.352c0.45,0,0.745-0.115,0.884-0.348c0.139-0.231,0.208-0.642,0.208-1.228
			c0-0.587-0.077-0.991-0.232-1.212c-0.154-0.222-0.441-0.332-0.859-0.332c-0.419,0-0.707,0.11-0.864,0.332
			C128.166,183.088,128.087,183.491,128.087,184.075z"/>
		<path fill="#4D4D4D" d="M132.471,186.095h-0.6v-4h0.592v0.28c0.4-0.24,0.789-0.36,1.168-0.36c0.496,0,0.843,0.136,1.04,0.408
			c0.176-0.106,0.404-0.201,0.684-0.284c0.28-0.083,0.527-0.124,0.74-0.124c0.533,0,0.893,0.143,1.076,0.428
			c0.184,0.286,0.276,0.799,0.276,1.54v2.112h-0.601v-2.096c0-0.555-0.053-0.935-0.16-1.141c-0.106-0.205-0.333-0.308-0.68-0.308
			c-0.176,0-0.357,0.025-0.544,0.076s-0.331,0.1-0.432,0.147l-0.152,0.072c0.069,0.176,0.104,0.565,0.104,1.168v2.08h-0.601v-2.064
			c0-0.575-0.052-0.966-0.156-1.172c-0.104-0.205-0.332-0.308-0.684-0.308c-0.171,0-0.346,0.025-0.524,0.076s-0.315,0.1-0.412,0.147
			l-0.136,0.072V186.095z"/>
		<path fill="#4D4D4D" d="M138.56,181.19v-0.695h0.6v0.695H138.56z M138.56,186.095v-4h0.6v4H138.56z"/>
		<path fill="#4D4D4D" d="M140.911,186.095h-0.6v-4h0.592v0.28c0.432-0.24,0.846-0.36,1.24-0.36c0.533,0,0.892,0.145,1.076,0.432
			c0.184,0.288,0.275,0.801,0.275,1.536v2.112h-0.592v-2.096c0-0.555-0.055-0.935-0.164-1.141c-0.109-0.205-0.343-0.308-0.7-0.308
			c-0.171,0-0.351,0.025-0.54,0.076s-0.334,0.1-0.436,0.147l-0.152,0.072V186.095z"/>
		<path fill="#4D4D4D" d="M147.432,183.303v2.048c0.016,0.197,0.17,0.314,0.464,0.353l-0.024,0.472c-0.421,0-0.738-0.106-0.952-0.32
			c-0.479,0.214-0.96,0.32-1.439,0.32c-0.368,0-0.648-0.104-0.84-0.312c-0.192-0.208-0.288-0.506-0.288-0.896
			s0.099-0.676,0.296-0.86c0.197-0.184,0.507-0.297,0.928-0.34l1.256-0.12v-0.344c0-0.272-0.059-0.467-0.176-0.584
			s-0.277-0.176-0.48-0.176c-0.427,0-0.869,0.026-1.327,0.08l-0.248,0.023l-0.024-0.456c0.587-0.117,1.106-0.176,1.56-0.176
			c0.454,0,0.783,0.104,0.988,0.312S147.432,182.86,147.432,183.303z M144.967,184.935c0,0.491,0.203,0.736,0.608,0.736
			c0.362,0,0.72-0.062,1.072-0.185l0.184-0.063v-1.32l-1.184,0.112c-0.24,0.021-0.414,0.091-0.521,0.208
			S144.967,184.711,144.967,184.935z"/>
		<path fill="#4D4D4D" d="M148.663,186.095v-5.744h0.6v5.744H148.663z"/>
		<path fill="#4D4D4D" d="M150.135,182.095h0.6l0.809,3.48h0.128l0.952-3.4h0.624l0.951,3.4h0.137l0.8-3.48h0.6l-0.951,4h-1
			l-0.849-3.128l-0.848,3.128h-1L150.135,182.095z"/>
		<path fill="#4D4D4D" d="M159.239,185.599l0.232-0.023l0.016,0.472c-0.608,0.085-1.128,0.128-1.56,0.128
			c-0.576,0-0.984-0.167-1.225-0.5s-0.359-0.853-0.359-1.556c0-1.403,0.557-2.104,1.672-2.104c0.538,0,0.941,0.15,1.208,0.452
			s0.399,0.774,0.399,1.42l-0.031,0.456h-2.641c0,0.442,0.08,0.771,0.24,0.984c0.16,0.213,0.438,0.319,0.836,0.319
			S158.828,185.631,159.239,185.599z M159.023,183.862c0-0.49-0.079-0.837-0.236-1.04c-0.157-0.202-0.413-0.304-0.768-0.304
			s-0.621,0.106-0.8,0.32c-0.179,0.213-0.271,0.555-0.276,1.023H159.023z"/>
		<path fill="#4D4D4D" d="M160.559,186.095v-4h0.592v0.544c0.464-0.32,0.952-0.53,1.464-0.632v0.607
			c-0.224,0.043-0.457,0.109-0.7,0.2c-0.242,0.091-0.428,0.171-0.556,0.24l-0.2,0.104v2.936H160.559z"/>
		<path fill="#4D4D4D" d="M165.399,182.614h-1.272v1.912c0,0.459,0.033,0.761,0.1,0.904c0.067,0.145,0.226,0.216,0.477,0.216
			l0.712-0.048l0.04,0.496c-0.357,0.059-0.63,0.088-0.816,0.088c-0.416,0-0.704-0.102-0.863-0.304c-0.16-0.203-0.24-0.59-0.24-1.16
			v-2.104h-0.568v-0.52h0.568v-1.224h0.592v1.224h1.272V182.614z"/>
		<path fill="#4D4D4D" d="M168.854,185.599l0.232-0.023l0.016,0.472c-0.608,0.085-1.128,0.128-1.56,0.128
			c-0.576,0-0.984-0.167-1.225-0.5s-0.359-0.853-0.359-1.556c0-1.403,0.557-2.104,1.672-2.104c0.538,0,0.941,0.15,1.208,0.452
			s0.399,0.774,0.399,1.42l-0.031,0.456h-2.641c0,0.442,0.08,0.771,0.24,0.984c0.16,0.213,0.438,0.319,0.836,0.319
			S168.443,185.631,168.854,185.599z M168.639,183.862c0-0.49-0.079-0.837-0.236-1.04c-0.157-0.202-0.413-0.304-0.768-0.304
			s-0.621,0.106-0.8,0.32c-0.179,0.213-0.271,0.555-0.276,1.023H168.639z"/>
		<path fill="#4D4D4D" d="M171.431,182.551c-0.581,0-0.872,0.203-0.872,0.608c0,0.187,0.066,0.318,0.2,0.396
			c0.133,0.077,0.438,0.157,0.912,0.24s0.811,0.198,1.008,0.348s0.296,0.43,0.296,0.84c0,0.411-0.132,0.712-0.396,0.904
			c-0.265,0.192-0.649,0.288-1.156,0.288c-0.331,0-0.721-0.037-1.168-0.112l-0.24-0.04l0.032-0.52
			c0.607,0.091,1.066,0.136,1.376,0.136c0.309,0,0.545-0.049,0.708-0.147c0.162-0.099,0.244-0.265,0.244-0.496
			c0-0.232-0.069-0.39-0.208-0.473c-0.139-0.082-0.443-0.161-0.912-0.235c-0.47-0.075-0.803-0.185-1-0.328
			c-0.197-0.145-0.296-0.411-0.296-0.8c0-0.39,0.137-0.678,0.412-0.864c0.274-0.187,0.617-0.28,1.027-0.28
			c0.325,0,0.733,0.037,1.225,0.112l0.224,0.04l-0.016,0.512C172.238,182.594,171.771,182.551,171.431,182.551z"/>
	</g>
</g>
<g>
	<g>
		<path fill="#4D4D4D" d="M0.789,176.495l1.52-5.536h1.344l1.521,5.536H4.564l-0.399-1.424H1.797l-0.4,1.424H0.789z M2.772,171.487
			l-0.84,3.032h2.096l-0.84-3.032H2.772z"/>
		<path fill="#4D4D4D" d="M8.437,172.495h0.6v4h-0.6v-0.28c-0.4,0.24-0.795,0.36-1.185,0.36c-0.544,0-0.905-0.142-1.084-0.424
			c-0.179-0.283-0.268-0.806-0.268-1.568v-2.088h0.6v2.08c0,0.581,0.051,0.971,0.152,1.168s0.33,0.296,0.688,0.296
			c0.177,0,0.355-0.025,0.536-0.076c0.182-0.051,0.32-0.1,0.416-0.147l0.145-0.072V172.495z"/>
		<path fill="#4D4D4D" d="M11.444,172.951c-0.581,0-0.872,0.203-0.872,0.608c0,0.187,0.066,0.318,0.2,0.396
			c0.133,0.077,0.438,0.157,0.912,0.24s0.811,0.198,1.008,0.348s0.296,0.43,0.296,0.84c0,0.411-0.132,0.712-0.396,0.904
			c-0.265,0.192-0.649,0.288-1.156,0.288c-0.331,0-0.721-0.037-1.168-0.112l-0.24-0.04l0.032-0.52
			c0.607,0.091,1.066,0.136,1.376,0.136c0.309,0,0.545-0.049,0.708-0.147c0.162-0.099,0.244-0.265,0.244-0.496
			c0-0.232-0.069-0.39-0.208-0.473c-0.139-0.082-0.443-0.161-0.912-0.235c-0.47-0.075-0.803-0.185-1-0.328
			c-0.197-0.145-0.296-0.411-0.296-0.8c0-0.39,0.137-0.678,0.412-0.864c0.274-0.187,0.617-0.28,1.027-0.28
			c0.325,0,0.733,0.037,1.225,0.112l0.224,0.04l-0.016,0.512C12.252,172.994,11.785,172.951,11.444,172.951z"/>
		<path fill="#4D4D4D" d="M13.669,173.031v-0.536h2.968v0.536l-2.239,2.928h2.239v0.536h-2.968v-0.536l2.24-2.928H13.669z"/>
		<path fill="#4D4D4D" d="M20.373,173.703v2.048c0.016,0.197,0.17,0.314,0.464,0.353l-0.024,0.472c-0.421,0-0.738-0.106-0.952-0.32
			c-0.479,0.214-0.96,0.32-1.439,0.32c-0.368,0-0.648-0.104-0.84-0.312c-0.192-0.208-0.288-0.506-0.288-0.896
			s0.099-0.676,0.296-0.86c0.197-0.184,0.507-0.297,0.928-0.34l1.256-0.12v-0.344c0-0.272-0.059-0.467-0.176-0.584
			s-0.277-0.176-0.48-0.176c-0.427,0-0.869,0.026-1.327,0.08l-0.248,0.023l-0.024-0.456c0.587-0.117,1.106-0.176,1.56-0.176
			c0.454,0,0.783,0.104,0.988,0.312S20.373,173.261,20.373,173.703z M17.908,175.335c0,0.491,0.203,0.736,0.608,0.736
			c0.362,0,0.72-0.062,1.072-0.185l0.184-0.063v-1.32l-1.184,0.112c-0.24,0.021-0.414,0.091-0.521,0.208
			S17.908,175.111,17.908,175.335z"/>
		<path fill="#4D4D4D" d="M22.156,176.495h-0.6v-5.744h0.6v1.968c0.427-0.202,0.838-0.304,1.232-0.304
			c0.533,0,0.892,0.145,1.076,0.432c0.184,0.288,0.275,0.801,0.275,1.536v2.112h-0.6v-2.096c0-0.555-0.055-0.935-0.164-1.141
			c-0.109-0.205-0.34-0.308-0.692-0.308c-0.336,0-0.661,0.062-0.976,0.184l-0.152,0.057V176.495z"/>
		<path fill="#4D4D4D" d="M25.9,176.495v-5.744h0.6v5.744H25.9z"/>
		<path fill="#4D4D4D" d="M30.196,172.495h0.6v4h-0.6v-0.28c-0.4,0.24-0.795,0.36-1.185,0.36c-0.544,0-0.905-0.142-1.084-0.424
			c-0.179-0.283-0.268-0.806-0.268-1.568v-2.088h0.6v2.08c0,0.581,0.051,0.971,0.152,1.168s0.33,0.296,0.688,0.296
			c0.177,0,0.355-0.025,0.536-0.076c0.182-0.051,0.32-0.1,0.416-0.147l0.145-0.072V172.495z"/>
		<path fill="#4D4D4D" d="M32.548,176.495h-0.6v-4h0.592v0.28c0.432-0.24,0.846-0.36,1.24-0.36c0.533,0,0.892,0.145,1.076,0.432
			c0.184,0.288,0.275,0.801,0.275,1.536v2.112H34.54v-2.096c0-0.555-0.055-0.935-0.164-1.141c-0.109-0.205-0.343-0.308-0.7-0.308
			c-0.171,0-0.351,0.025-0.54,0.076s-0.334,0.1-0.436,0.147l-0.152,0.072V176.495z"/>
		<path fill="#4D4D4D" d="M37.788,178.375c-0.64,0-1.087-0.087-1.34-0.26c-0.254-0.174-0.38-0.489-0.38-0.948
			c0-0.219,0.048-0.396,0.144-0.532c0.096-0.136,0.259-0.289,0.488-0.46c-0.149-0.101-0.225-0.285-0.225-0.552
			c0-0.091,0.067-0.259,0.2-0.504l0.072-0.128c-0.422-0.192-0.632-0.595-0.632-1.208c0-0.912,0.498-1.368,1.496-1.368
			c0.256,0,0.493,0.026,0.712,0.08l0.12,0.024l1.184-0.032v0.512l-0.76-0.016c0.176,0.176,0.264,0.442,0.264,0.8
			c0,0.501-0.124,0.852-0.372,1.052s-0.639,0.3-1.172,0.3c-0.144,0-0.274-0.011-0.392-0.031c-0.097,0.234-0.145,0.387-0.145,0.456
			c0,0.165,0.051,0.268,0.152,0.308s0.408,0.06,0.92,0.06s0.88,0.08,1.104,0.24c0.225,0.16,0.337,0.472,0.337,0.937
			C39.564,177.951,38.972,178.375,37.788,178.375z M36.66,177.119c0,0.282,0.078,0.479,0.235,0.588s0.448,0.164,0.872,0.164
			c0.425,0,0.729-0.059,0.912-0.176c0.185-0.117,0.276-0.313,0.276-0.588c0-0.275-0.066-0.452-0.2-0.532
			c-0.133-0.08-0.395-0.12-0.784-0.12l-0.863-0.04c-0.177,0.128-0.295,0.24-0.356,0.336S36.66,176.97,36.66,177.119z
			 M36.716,173.783c0,0.314,0.07,0.539,0.212,0.672c0.142,0.134,0.375,0.2,0.7,0.2s0.558-0.066,0.696-0.2
			c0.139-0.133,0.208-0.358,0.208-0.676s-0.069-0.543-0.208-0.676c-0.139-0.134-0.371-0.2-0.696-0.2s-0.559,0.067-0.7,0.204
			C36.786,173.243,36.716,173.469,36.716,173.783z"/>
		<path fill="#4D4D4D" d="M42.116,171.591v-0.695h0.6v0.695H42.116z M42.116,176.495v-4h0.6v4H42.116z"/>
		<path fill="#4D4D4D" d="M44.468,176.495h-0.6v-4h0.592v0.28c0.432-0.24,0.846-0.36,1.24-0.36c0.533,0,0.892,0.145,1.076,0.432
			c0.184,0.288,0.275,0.801,0.275,1.536v2.112H46.46v-2.096c0-0.555-0.055-0.935-0.164-1.141c-0.109-0.205-0.343-0.308-0.7-0.308
			c-0.171,0-0.351,0.025-0.54,0.076s-0.334,0.1-0.436,0.147l-0.152,0.072V176.495z"/>
		<path fill="#4D4D4D" d="M49.54,176.495l1.52-5.536h1.344l1.521,5.536h-0.608l-0.399-1.424h-2.368l-0.4,1.424H49.54z
			 M51.523,171.487l-0.84,3.032h2.096l-0.84-3.032H51.523z"/>
		<path fill="#4D4D4D" d="M55.291,176.495h-0.6v-5.744h0.6v3.393l0.624-0.032l1.145-1.616h0.68l-1.304,1.84l1.359,2.16h-0.68
			l-1.192-1.856l-0.632,0.024V176.495z"/>
		<path fill="#4D4D4D" d="M60.596,173.015h-1.272v1.912c0,0.459,0.033,0.761,0.1,0.904c0.067,0.145,0.226,0.216,0.477,0.216
			l0.712-0.048l0.04,0.496c-0.357,0.059-0.63,0.088-0.816,0.088c-0.416,0-0.704-0.102-0.863-0.304c-0.16-0.203-0.24-0.59-0.24-1.16
			v-2.104h-0.568v-0.52h0.568v-1.224h0.592v1.224h1.272V173.015z"/>
		<path fill="#4D4D4D" d="M61.331,171.591v-0.695h0.6v0.695H61.331z M61.331,176.495v-4h0.6v4H61.331z"/>
		<path fill="#4D4D4D" d="M65.803,175.999l0.232-0.023l0.016,0.472c-0.608,0.085-1.128,0.128-1.56,0.128
			c-0.576,0-0.984-0.167-1.225-0.5s-0.359-0.853-0.359-1.556c0-1.403,0.557-2.104,1.672-2.104c0.538,0,0.941,0.15,1.208,0.452
			s0.399,0.774,0.399,1.42l-0.031,0.456h-2.641c0,0.442,0.08,0.771,0.24,0.984c0.16,0.213,0.438,0.319,0.836,0.319
			S65.392,176.031,65.803,175.999z M65.587,174.263c0-0.49-0.079-0.837-0.236-1.04c-0.157-0.202-0.413-0.304-0.768-0.304
			s-0.621,0.106-0.8,0.32c-0.179,0.213-0.271,0.555-0.276,1.023H65.587z"/>
		<path fill="#4D4D4D" d="M67.723,176.495h-0.6v-4h0.592v0.28c0.432-0.24,0.846-0.36,1.24-0.36c0.533,0,0.892,0.145,1.076,0.432
			c0.184,0.288,0.275,0.801,0.275,1.536v2.112h-0.592v-2.096c0-0.555-0.055-0.935-0.164-1.141c-0.109-0.205-0.343-0.308-0.7-0.308
			c-0.171,0-0.351,0.025-0.54,0.076s-0.334,0.1-0.436,0.147l-0.152,0.072V176.495z"/>
	</g>
</g>
<g>
	<g>
		<path fill="#4D4D4D" d="M56.944,167.238H2.376v-35.754h54.568V167.238z M3.584,166.031h52.152v-33.339H3.584V166.031z"/>
	</g>
	<g>
		<path fill="#4D4D4D" d="M51.134,161.42H8.135v-24.13h42.999V161.42z M9.342,160.212h40.584v-21.714H9.342V160.212z"/>
	</g>
	<g>
		<rect x="8.944" y="150.082" fill="#4D4D4D" width="14.427" height="1.208"/>
	</g>
	<g>
		<rect x="8.944" y="152.474" fill="#4D4D4D" width="14.427" height="1.208"/>
	</g>
	<g>
		<rect x="8.944" y="154.867" fill="#4D4D4D" width="14.427" height="1.208"/>
	</g>
	<circle fill="#4D4D4D" cx="50.53" cy="137.688" r="1.916"/>
	<circle fill="#4D4D4D" cx="50.53" cy="160.816" r="1.916"/>
	<circle fill="#4D4D4D" cx="8.738" cy="137.688" r="1.916"/>
	<circle fill="#4D4D4D" cx="8.738" cy="160.816" r="1.916"/>
	<g>
		<path fill="#4D4D4D" d="M39.934,143.561c-2.527,0-4.103,1.294-4.728,3.882h6.059v1.243h-6.225l-0.024,0.549v0.617l0.024,0.433
			h5.501v1.243h-5.311c0.293,1.156,0.842,2.05,1.645,2.683c0.804,0.633,1.879,0.949,3.226,0.949c1.236,0,2.459-0.212,3.671-0.636
			v1.445c-1.157,0.418-2.412,0.626-3.766,0.626c-1.877,0-3.388-0.432-4.532-1.296c-1.145-0.864-1.899-2.121-2.263-3.771h-1.972
			v-1.243h1.806l-0.024-0.404v-0.424l0.024-0.771h-1.806v-1.243h1.948c0.309-1.676,1.041-2.983,2.198-3.921
			c1.156-0.937,2.673-1.406,4.55-1.406c1.592,0,3.042,0.312,4.348,0.934l-0.844,1.339C42.123,143.837,40.956,143.561,39.934,143.561
			z"/>
	</g>
	<g>
		<path fill="#4D4D4D" d="M131.824,136.634c-5.111,0-8.3,2.617-9.565,7.853h12.257v2.514h-12.594l-0.048,1.111v1.247l0.048,0.877
			h11.128v2.514h-10.744c0.592,2.338,1.703,4.147,3.329,5.427c1.627,1.28,3.802,1.92,6.525,1.92c2.5,0,4.976-0.429,7.427-1.287
			v2.923c-2.34,0.845-4.879,1.267-7.619,1.267c-3.797,0-6.853-0.873-9.169-2.621c-2.316-1.747-3.842-4.29-4.579-7.629h-3.989v-2.514
			h3.653l-0.048-0.818v-0.858l0.048-1.559h-3.653v-2.514h3.941c0.625-3.391,2.107-6.035,4.446-7.932
			c2.339-1.896,5.408-2.845,9.205-2.845c3.221,0,6.153,0.63,8.797,1.89l-1.707,2.709
			C136.254,137.192,133.892,136.634,131.824,136.634z"/>
	</g>
</g>
<g>
	<line fill="none" stroke="#4D4D4D" stroke-miterlimit="10" x1="11.292" y1="119.375" x2="11.292" y2="106.333"/>
	<polygon fill="#4D4D4D" points="11.167,125.246 16.45,116.096 5.884,116.096 	"/>
</g>
<g>
	<line fill="none" stroke="#4D4D4D" stroke-miterlimit="10" x1="129.667" y1="119.375" x2="129.667" y2="106.333"/>
	<polygon fill="#4D4D4D" points="129.542,125.246 134.825,116.096 124.258,116.096 	"/>
</g>
</svg>
