<?xml version="1.0" encoding="utf-8"?>
<!-- Generator: Adobe Illustrator 21.1.0, SVG Export Plug-In . SVG Version: 6.00 Build 0)  -->
<svg version="1.1" id="Ebene_1" xmlns="http://www.w3.org/2000/svg" xmlns:xlink="http://www.w3.org/1999/xlink" x="0px" y="0px"
	 viewBox="0 0 200 200" enable-background="new 0 0 200 200" xml:space="preserve">
<rect x="0.333" y="0.333" fill="#FFFFFF" width="200" height="200.667"/>
<polygon fill="none" stroke="#00B8FA" stroke-miterlimit="10" points="22.597,40.213 17.549,45.261 17.549,40.09 12.377,45.261 
	12.377,45.015 12.377,40.09 7.206,45.261 6.221,45.261 6.221,32.332 3.758,32.332 3.758,48.072 3.758,50.556 22.597,50.556 "/>
<polygon fill="none" stroke="#00B8FA" stroke-miterlimit="10" points="45.093,40.213 40.045,45.261 40.045,40.09 34.873,45.261 
	34.873,45.015 34.873,40.09 29.702,45.261 28.716,45.261 28.716,32.332 26.254,32.332 26.254,48.072 26.254,50.556 45.093,50.556 
	"/>
<polygon fill="none" stroke="#00B8FA" stroke-miterlimit="10" points="67.588,40.213 62.54,45.261 62.54,40.09 57.369,45.261 
	57.369,45.015 57.369,40.09 52.197,45.261 51.212,45.261 51.212,32.332 48.749,32.332 48.749,48.072 48.749,50.556 67.588,50.556 
	"/>
<polygon fill="none" stroke="#00B8FA" stroke-miterlimit="10" points="90.084,40.213 85.036,45.261 85.036,40.09 79.864,45.261 
	79.864,45.015 79.864,40.09 74.693,45.261 73.708,45.261 73.708,32.332 71.245,32.332 71.245,48.072 71.245,50.556 90.084,50.556 
	"/>
<polygon fill="none" stroke="#00B8FA" stroke-miterlimit="10" points="112.58,40.213 107.531,45.261 107.531,40.09 102.36,45.261 
	102.36,45.015 102.36,40.09 97.188,45.261 96.203,45.261 96.203,32.332 93.74,32.332 93.74,48.072 93.74,50.556 112.58,50.556 "/>
<polygon fill="none" stroke="#00B8FA" stroke-miterlimit="10" points="22.597,90.735 17.549,95.783 17.549,90.612 12.377,95.783 
	12.377,95.537 12.377,90.612 7.206,95.783 6.221,95.783 6.221,69.526 3.758,69.526 3.758,98.594 3.758,101.078 22.597,101.078 "/>
<polygon fill="none" stroke="#00B8FA" stroke-miterlimit="10" points="45.093,90.735 40.045,95.783 40.045,90.612 34.873,95.783 
	34.873,95.537 34.873,90.612 29.702,95.783 28.716,95.783 28.716,72.858 26.254,72.858 26.254,98.594 26.254,101.078 
	45.093,101.078 "/>
<polygon fill="none" stroke="#00B8FA" stroke-miterlimit="10" points="67.588,90.735 62.54,95.783 62.54,90.612 57.369,95.783 
	57.369,95.537 57.369,90.612 52.197,95.783 51.212,95.783 51.212,76.19 48.749,76.19 48.749,98.594 48.749,101.078 67.588,101.078 
	"/>
<polygon fill="none" stroke="#00B8FA" stroke-miterlimit="10" points="90.084,90.735 85.036,95.783 85.036,90.612 79.864,95.783 
	79.864,95.537 79.864,90.612 74.693,95.783 73.708,95.783 73.708,82.855 71.245,82.855 71.245,98.594 71.245,101.078 
	90.084,101.078 "/>
<polygon fill="none" stroke="#00B8FA" stroke-miterlimit="10" points="112.58,93.234 107.531,98.282 107.531,93.111 102.36,98.282 
	102.36,98.036 102.36,93.111 97.188,98.282 96.203,98.282 96.203,92.851 93.74,92.851 93.74,98.594 93.74,101.078 112.58,101.078 
	"/>
<g>
	<g>
		<path fill="#4D4D4D" d="M64.665,15.141V9.604h0.616v5.536H64.665z"/>
		<path fill="#4D4D4D" d="M67.129,15.141h-0.6v-4h0.592v0.28c0.432-0.24,0.846-0.36,1.24-0.36c0.533,0,0.892,0.145,1.076,0.432
			c0.184,0.288,0.275,0.801,0.275,1.536v2.112h-0.592v-2.096c0-0.555-0.055-0.935-0.164-1.141c-0.109-0.205-0.343-0.308-0.7-0.308
			c-0.171,0-0.351,0.025-0.54,0.076s-0.334,0.1-0.436,0.147l-0.152,0.072V15.141z"/>
		<path fill="#4D4D4D" d="M70.409,11.141h0.64l0.937,3.48h0.296l0.968-3.48h0.616l-1.128,4h-1.2L70.409,11.141z"/>
		<path fill="#4D4D4D" d="M77.281,14.645l0.232-0.023l0.016,0.472c-0.608,0.085-1.128,0.128-1.56,0.128
			c-0.576,0-0.984-0.167-1.225-0.5s-0.359-0.853-0.359-1.556c0-1.403,0.557-2.104,1.672-2.104c0.538,0,0.941,0.15,1.208,0.452
			s0.399,0.774,0.399,1.42l-0.031,0.456h-2.641c0,0.442,0.08,0.771,0.24,0.984c0.16,0.213,0.438,0.319,0.836,0.319
			S76.87,14.677,77.281,14.645z M77.065,12.908c0-0.49-0.079-0.837-0.236-1.04c-0.157-0.202-0.413-0.304-0.768-0.304
			s-0.621,0.106-0.8,0.32c-0.179,0.213-0.271,0.555-0.276,1.023H77.065z"/>
		<path fill="#4D4D4D" d="M79.857,11.597c-0.581,0-0.872,0.203-0.872,0.608c0,0.187,0.066,0.318,0.2,0.396
			c0.133,0.077,0.438,0.157,0.912,0.24s0.811,0.198,1.008,0.348s0.296,0.43,0.296,0.84c0,0.411-0.132,0.712-0.396,0.904
			c-0.265,0.192-0.649,0.288-1.156,0.288c-0.331,0-0.721-0.037-1.168-0.112l-0.24-0.04l0.032-0.52
			c0.607,0.091,1.066,0.136,1.376,0.136c0.309,0,0.545-0.049,0.708-0.147c0.162-0.099,0.244-0.265,0.244-0.496
			c0-0.232-0.069-0.39-0.208-0.473c-0.139-0.082-0.443-0.161-0.912-0.235c-0.47-0.075-0.803-0.185-1-0.328
			c-0.197-0.145-0.296-0.411-0.296-0.8c0-0.39,0.137-0.678,0.412-0.864c0.274-0.187,0.617-0.28,1.027-0.28
			c0.325,0,0.733,0.037,1.225,0.112l0.224,0.04l-0.016,0.512C80.665,11.64,80.198,11.597,79.857,11.597z"/>
		<path fill="#4D4D4D" d="M84.394,11.66h-1.272v1.912c0,0.459,0.033,0.761,0.1,0.904c0.067,0.145,0.226,0.216,0.477,0.216
			l0.712-0.048l0.04,0.496c-0.357,0.059-0.63,0.088-0.816,0.088c-0.416,0-0.704-0.102-0.863-0.304c-0.16-0.203-0.24-0.59-0.24-1.16
			V11.66h-0.568v-0.52h0.568V9.917h0.592v1.224h1.272V11.66z"/>
		<path fill="#4D4D4D" d="M85.129,10.236V9.541h0.6v0.695H85.129z M85.129,15.141v-4h0.6v4H85.129z"/>
		<path fill="#4D4D4D" d="M88.953,11.66h-1.272v1.912c0,0.459,0.033,0.761,0.1,0.904c0.067,0.145,0.226,0.216,0.477,0.216
			l0.712-0.048l0.04,0.496c-0.357,0.059-0.63,0.088-0.816,0.088c-0.416,0-0.704-0.102-0.863-0.304c-0.16-0.203-0.24-0.59-0.24-1.16
			V11.66h-0.568v-0.52h0.568V9.917h0.592v1.224h1.272V11.66z"/>
		<path fill="#4D4D4D" d="M89.689,10.236V9.541h0.6v0.695H89.689z M89.689,15.141v-4h0.6v4H89.689z"/>
		<path fill="#4D4D4D" d="M91.266,13.133c0-0.73,0.13-1.259,0.392-1.584s0.702-0.488,1.324-0.488c0.621,0,1.062,0.163,1.319,0.488
			c0.259,0.325,0.389,0.854,0.389,1.584s-0.123,1.261-0.368,1.592s-0.693,0.496-1.344,0.496c-0.651,0-1.099-0.165-1.345-0.496
			C91.388,14.394,91.266,13.863,91.266,13.133z M91.881,13.121c0,0.584,0.071,0.993,0.212,1.228
			c0.142,0.234,0.438,0.352,0.889,0.352c0.45,0,0.745-0.115,0.884-0.348c0.139-0.231,0.208-0.642,0.208-1.228
			c0-0.587-0.077-0.991-0.232-1.212c-0.154-0.222-0.441-0.332-0.859-0.332c-0.419,0-0.707,0.11-0.864,0.332
			C91.96,12.134,91.881,12.537,91.881,13.121z"/>
		<path fill="#4D4D4D" d="M96.265,15.141h-0.6v-4h0.592v0.28c0.432-0.24,0.846-0.36,1.24-0.36c0.533,0,0.892,0.145,1.076,0.432
			c0.184,0.288,0.275,0.801,0.275,1.536v2.112h-0.592v-2.096c0-0.555-0.055-0.935-0.164-1.141c-0.109-0.205-0.343-0.308-0.7-0.308
			c-0.171,0-0.351,0.025-0.54,0.076s-0.334,0.1-0.436,0.147l-0.152,0.072V15.141z"/>
		<path fill="#4D4D4D" d="M101.721,10.236V9.541h0.6v0.695H101.721z M101.721,15.141v-4h0.6v4H101.721z"/>
		<path fill="#4D4D4D" d="M104.072,15.141h-0.6v-4h0.592v0.28c0.432-0.24,0.846-0.36,1.24-0.36c0.533,0,0.892,0.145,1.076,0.432
			c0.184,0.288,0.275,0.801,0.275,1.536v2.112h-0.592v-2.096c0-0.555-0.055-0.935-0.164-1.141c-0.109-0.205-0.343-0.308-0.7-0.308
			c-0.171,0-0.351,0.025-0.54,0.076s-0.334,0.1-0.436,0.147l-0.152,0.072V15.141z"/>
		<path fill="#4D4D4D" d="M110.296,11.66v3.48h-0.6v-3.48h-0.504v-0.52h0.504v-0.36c0-0.564,0.08-0.95,0.24-1.155
			c0.159-0.206,0.439-0.309,0.84-0.309l0.808,0.057l-0.008,0.495c-0.299-0.01-0.545-0.016-0.74-0.016
			c-0.194,0-0.333,0.064-0.416,0.192s-0.124,0.376-0.124,0.744v0.352h1.16v0.52H110.296z"/>
		<path fill="#4D4D4D" d="M115.272,11.141v4h-0.6v-0.28l-0.168,0.088c-0.112,0.064-0.267,0.126-0.464,0.185
			c-0.198,0.059-0.382,0.088-0.553,0.088c-0.544,0-0.905-0.142-1.084-0.424c-0.179-0.283-0.268-0.806-0.268-1.568v-2.088h0.6v2.08
			c0,0.581,0.051,0.971,0.152,1.168s0.34,0.296,0.716,0.296s0.732-0.099,1.068-0.296v-3.248H115.272z M112.656,10.173V9.452h0.576
			v0.721H112.656z M114.257,10.173V9.452h0.584v0.721H114.257z"/>
		<path fill="#4D4D4D" d="M117.024,15.141h-0.6v-4h0.592v0.28c0.432-0.24,0.846-0.36,1.24-0.36c0.533,0,0.892,0.145,1.076,0.432
			c0.184,0.288,0.275,0.801,0.275,1.536v2.112h-0.592v-2.096c0-0.555-0.055-0.935-0.164-1.141c-0.109-0.205-0.343-0.308-0.7-0.308
			c-0.171,0-0.351,0.025-0.54,0.076s-0.334,0.1-0.436,0.147l-0.152,0.072V15.141z"/>
		<path fill="#4D4D4D" d="M121.488,11.66v3.48h-0.6v-3.48h-0.504v-0.52h0.504v-0.36c0-0.564,0.08-0.95,0.24-1.155
			c0.159-0.206,0.439-0.309,0.84-0.309l0.808,0.057l-0.008,0.495c-0.299-0.01-0.545-0.016-0.74-0.016
			c-0.194,0-0.333,0.064-0.416,0.192s-0.124,0.376-0.124,0.744v0.352h1.16v0.52H121.488z"/>
		<path fill="#4D4D4D" d="M66.105,26.62c-0.64,0-1.087-0.087-1.34-0.26c-0.254-0.174-0.38-0.489-0.38-0.948
			c0-0.219,0.048-0.396,0.144-0.532c0.096-0.136,0.259-0.289,0.488-0.46c-0.149-0.101-0.225-0.285-0.225-0.552
			c0-0.091,0.067-0.259,0.2-0.504l0.072-0.128c-0.422-0.192-0.632-0.595-0.632-1.208c0-0.912,0.498-1.368,1.496-1.368
			c0.256,0,0.493,0.026,0.712,0.08l0.12,0.024l1.184-0.032v0.512l-0.76-0.016c0.176,0.176,0.264,0.442,0.264,0.8
			c0,0.501-0.124,0.852-0.372,1.052s-0.639,0.3-1.172,0.3c-0.144,0-0.274-0.011-0.392-0.031c-0.097,0.234-0.145,0.387-0.145,0.456
			c0,0.165,0.051,0.268,0.152,0.308s0.408,0.06,0.92,0.06s0.88,0.08,1.104,0.24c0.225,0.16,0.337,0.472,0.337,0.937
			C67.882,26.196,67.289,26.62,66.105,26.62z M64.978,25.364c0,0.282,0.078,0.479,0.235,0.588s0.448,0.164,0.872,0.164
			c0.425,0,0.729-0.059,0.912-0.176c0.185-0.117,0.276-0.313,0.276-0.588c0-0.275-0.066-0.452-0.2-0.532
			c-0.133-0.08-0.395-0.12-0.784-0.12l-0.863-0.04c-0.177,0.128-0.295,0.24-0.356,0.336S64.978,25.215,64.978,25.364z
			 M65.033,22.028c0,0.314,0.07,0.539,0.212,0.672c0.142,0.134,0.375,0.2,0.7,0.2s0.558-0.066,0.696-0.2
			c0.139-0.133,0.208-0.358,0.208-0.676s-0.069-0.543-0.208-0.676c-0.139-0.134-0.371-0.2-0.696-0.2s-0.559,0.067-0.7,0.204
			C65.104,21.488,65.033,21.714,65.033,22.028z"/>
		<path fill="#4D4D4D" d="M68.722,24.74v-5.744h0.6v5.744H68.722z"/>
		<path fill="#4D4D4D" d="M73.241,24.244l0.232-0.023l0.016,0.472c-0.608,0.085-1.128,0.128-1.56,0.128
			c-0.576,0-0.984-0.167-1.225-0.5s-0.359-0.853-0.359-1.556c0-1.403,0.557-2.104,1.672-2.104c0.538,0,0.941,0.15,1.208,0.452
			s0.399,0.774,0.399,1.42l-0.031,0.456h-2.641c0,0.442,0.08,0.771,0.24,0.984c0.16,0.213,0.438,0.319,0.836,0.319
			S72.83,24.276,73.241,24.244z M73.025,22.508c0-0.49-0.079-0.837-0.236-1.04c-0.157-0.202-0.413-0.304-0.768-0.304
			s-0.621,0.106-0.8,0.32c-0.179,0.213-0.271,0.555-0.276,1.023H73.025z"/>
		<path fill="#4D4D4D" d="M74.562,19.836v-0.695h0.6v0.695H74.562z M74.562,24.74v-4h0.6v4H74.562z"/>
		<path fill="#4D4D4D" d="M77.81,20.66c0.176,0,0.475,0.032,0.896,0.096l0.192,0.024l-0.024,0.488
			c-0.427-0.048-0.741-0.072-0.943-0.072c-0.454,0-0.762,0.108-0.925,0.324c-0.162,0.216-0.243,0.616-0.243,1.2
			s0.075,0.99,0.228,1.22s0.468,0.344,0.948,0.344l0.943-0.072l0.024,0.496c-0.496,0.075-0.867,0.112-1.112,0.112
			c-0.624,0-1.055-0.16-1.292-0.48c-0.237-0.319-0.355-0.859-0.355-1.619c0-0.761,0.128-1.294,0.384-1.601S77.212,20.66,77.81,20.66
			z"/>
		<path fill="#4D4D4D" d="M80.4,24.74h-0.6v-5.744h0.6v1.968c0.427-0.202,0.838-0.304,1.232-0.304c0.533,0,0.892,0.145,1.076,0.432
			c0.184,0.288,0.275,0.801,0.275,1.536v2.112h-0.6v-2.096c0-0.555-0.055-0.935-0.164-1.141c-0.109-0.205-0.34-0.308-0.692-0.308
			c-0.336,0-0.661,0.062-0.976,0.184L80.4,21.437V24.74z"/>
		<path fill="#4D4D4D" d="M86.816,24.244l0.232-0.023l0.016,0.472c-0.608,0.085-1.128,0.128-1.56,0.128
			c-0.576,0-0.984-0.167-1.225-0.5s-0.359-0.853-0.359-1.556c0-1.403,0.557-2.104,1.672-2.104c0.538,0,0.941,0.15,1.208,0.452
			s0.399,0.774,0.399,1.42l-0.031,0.456h-2.641c0,0.442,0.08,0.771,0.24,0.984c0.16,0.213,0.438,0.319,0.836,0.319
			S86.405,24.276,86.816,24.244z M86.601,22.508c0-0.49-0.079-0.837-0.236-1.04c-0.157-0.202-0.413-0.304-0.768-0.304
			s-0.621,0.106-0.8,0.32c-0.179,0.213-0.271,0.555-0.276,1.023H86.601z"/>
		<path fill="#4D4D4D" d="M89.424,19.756v-0.552h4v0.552h-1.688v4.984h-0.608v-4.984H89.424z"/>
		<path fill="#4D4D4D" d="M96.097,24.244l0.232-0.023l0.016,0.472c-0.608,0.085-1.128,0.128-1.56,0.128
			c-0.576,0-0.984-0.167-1.225-0.5s-0.359-0.853-0.359-1.556c0-1.403,0.557-2.104,1.672-2.104c0.538,0,0.941,0.15,1.208,0.452
			s0.399,0.774,0.399,1.42l-0.031,0.456h-2.641c0,0.442,0.08,0.771,0.24,0.984c0.16,0.213,0.438,0.319,0.836,0.319
			S95.686,24.276,96.097,24.244z M95.881,22.508c0-0.49-0.079-0.837-0.236-1.04c-0.157-0.202-0.413-0.304-0.768-0.304
			s-0.621,0.106-0.8,0.32c-0.179,0.213-0.271,0.555-0.276,1.023H95.881z"/>
		<path fill="#4D4D4D" d="M97.417,19.836v-0.695h0.6v0.695H97.417z M97.417,24.74v-4h0.6v4H97.417z"/>
		<path fill="#4D4D4D" d="M99.217,24.74v-5.744h0.6v5.744H99.217z"/>
		<path fill="#4D4D4D" d="M103.736,24.244l0.232-0.023l0.016,0.472c-0.608,0.085-1.128,0.128-1.56,0.128
			c-0.576,0-0.984-0.167-1.225-0.5s-0.359-0.853-0.359-1.556c0-1.403,0.557-2.104,1.672-2.104c0.538,0,0.941,0.15,1.208,0.452
			s0.399,0.774,0.399,1.42l-0.031,0.456h-2.641c0,0.442,0.08,0.771,0.24,0.984c0.16,0.213,0.438,0.319,0.836,0.319
			S103.325,24.276,103.736,24.244z M103.521,22.508c0-0.49-0.079-0.837-0.236-1.04c-0.157-0.202-0.413-0.304-0.768-0.304
			s-0.621,0.106-0.8,0.32c-0.179,0.213-0.271,0.555-0.276,1.023H103.521z"/>
	</g>
</g>
<g>
	<path fill="#4D4D4D" d="M7.668,55.012c-1.201,0-1.951,0.615-2.248,1.846h2.881v0.591h-2.96L5.329,57.71v0.293l0.011,0.206h2.616
		v0.591H5.431c0.139,0.55,0.4,0.975,0.782,1.276c0.382,0.301,0.894,0.451,1.534,0.451c0.588,0,1.17-0.101,1.746-0.302v0.687
		c-0.55,0.199-1.147,0.298-1.791,0.298c-0.893,0-1.611-0.205-2.155-0.616c-0.544-0.411-0.903-1.008-1.076-1.793H3.533V58.21h0.859
		L4.38,58.017v-0.202l0.011-0.366H3.533v-0.591h0.926c0.147-0.797,0.495-1.419,1.045-1.865c0.55-0.446,1.271-0.669,2.164-0.669
		c0.757,0,1.446,0.148,2.068,0.444l-0.401,0.637C8.71,55.144,8.154,55.012,7.668,55.012z"/>
</g>
<g>
	<path fill="#4D4D4D" d="M30.085,55.012c-1.201,0-1.951,0.615-2.248,1.846h2.881v0.591h-2.96l-0.011,0.261v0.293l0.011,0.206h2.616
		v0.591h-2.525c0.139,0.55,0.4,0.975,0.782,1.276c0.382,0.301,0.894,0.451,1.534,0.451c0.588,0,1.17-0.101,1.746-0.302v0.687
		c-0.55,0.199-1.147,0.298-1.791,0.298c-0.893,0-1.611-0.205-2.155-0.616c-0.544-0.411-0.903-1.008-1.076-1.793H25.95V58.21h0.859
		l-0.011-0.192v-0.202l0.011-0.366H25.95v-0.591h0.926c0.147-0.797,0.495-1.419,1.045-1.865c0.55-0.446,1.271-0.669,2.164-0.669
		c0.757,0,1.446,0.148,2.068,0.444l-0.401,0.637C31.127,55.144,30.571,55.012,30.085,55.012z"/>
</g>
<g>
	<path fill="#4D4D4D" d="M52.647,55.012c-1.201,0-1.951,0.615-2.248,1.846h2.881v0.591h-2.96l-0.011,0.261v0.293l0.011,0.206h2.616
		v0.591H50.41c0.139,0.55,0.4,0.975,0.782,1.276c0.382,0.301,0.894,0.451,1.534,0.451c0.588,0,1.17-0.101,1.746-0.302v0.687
		c-0.55,0.199-1.147,0.298-1.791,0.298c-0.893,0-1.611-0.205-2.155-0.616c-0.544-0.411-0.903-1.008-1.076-1.793h-0.938V58.21h0.859
		l-0.011-0.192v-0.202l0.011-0.366h-0.859v-0.591h0.926c0.147-0.797,0.495-1.419,1.045-1.865c0.55-0.446,1.271-0.669,2.164-0.669
		c0.757,0,1.446,0.148,2.068,0.444l-0.401,0.637C53.689,55.144,53.133,55.012,52.647,55.012z"/>
</g>
<g>
	<path fill="#4D4D4D" d="M75.282,55.012c-1.201,0-1.951,0.615-2.248,1.846h2.881v0.591h-2.96l-0.011,0.261v0.293l0.011,0.206h2.616
		v0.591h-2.525c0.139,0.55,0.4,0.975,0.782,1.276c0.382,0.301,0.894,0.451,1.534,0.451c0.588,0,1.17-0.101,1.746-0.302v0.687
		c-0.55,0.199-1.147,0.298-1.791,0.298c-0.893,0-1.611-0.205-2.155-0.616c-0.544-0.411-0.903-1.008-1.076-1.793h-0.938V58.21h0.859
		l-0.011-0.192v-0.202l0.011-0.366h-0.859v-0.591h0.926c0.147-0.797,0.495-1.419,1.045-1.865c0.55-0.446,1.271-0.669,2.164-0.669
		c0.757,0,1.446,0.148,2.068,0.444l-0.401,0.637C76.323,55.144,75.768,55.012,75.282,55.012z"/>
</g>
<g>
	<path fill="#4D4D4D" d="M97.554,55.012c-1.201,0-1.951,0.615-2.248,1.846h2.881v0.591h-2.96l-0.011,0.261v0.293l0.011,0.206h2.616
		v0.591h-2.525c0.139,0.55,0.4,0.975,0.782,1.276c0.382,0.301,0.894,0.451,1.534,0.451c0.588,0,1.17-0.101,1.746-0.302v0.687
		c-0.55,0.199-1.147,0.298-1.791,0.298c-0.893,0-1.611-0.205-2.155-0.616c-0.544-0.411-0.903-1.008-1.076-1.793h-0.938V58.21h0.859
		l-0.011-0.192v-0.202l0.011-0.366h-0.859v-0.591h0.926c0.147-0.797,0.495-1.419,1.045-1.865c0.55-0.446,1.271-0.669,2.164-0.669
		c0.757,0,1.446,0.148,2.068,0.444l-0.401,0.637C98.596,55.144,98.04,55.012,97.554,55.012z"/>
</g>
<polygon fill="none" stroke="#00B8FA" stroke-miterlimit="10" points="22.329,174.918 17.264,179.984 17.264,174.794 
	12.074,179.984 12.074,179.736 12.074,174.794 6.885,179.984 5.897,179.984 5.897,163.667 3.426,163.667 3.426,182.804 
	3.426,185.296 22.329,185.296 "/>
<polygon fill="none" stroke="#00B8FA" stroke-miterlimit="10" points="44.902,174.918 39.836,179.984 39.836,174.794 
	34.647,179.984 34.647,179.736 34.647,174.794 29.458,179.984 28.469,179.984 28.469,163.667 25.998,163.667 25.998,182.804 
	25.998,185.296 44.902,185.296 "/>
<polygon fill="none" stroke="#00B8FA" stroke-miterlimit="10" points="67.475,174.918 62.409,179.984 62.409,174.794 57.22,179.984 
	57.22,179.736 57.22,174.794 52.031,179.984 51.042,179.984 51.042,163.667 48.571,163.667 48.571,182.804 48.571,185.296 
	67.475,185.296 "/>
<polygon fill="none" stroke="#00B8FA" stroke-miterlimit="10" points="90.048,174.918 84.982,179.984 84.982,174.794 
	79.793,179.984 79.793,179.736 79.793,174.794 74.603,179.984 73.615,179.984 73.615,163.667 71.144,163.667 71.144,182.804 
	71.144,185.296 90.048,185.296 "/>
<polygon fill="none" stroke="#00B8FA" stroke-miterlimit="10" points="112.62,174.918 107.555,179.984 107.555,174.794 
	102.365,179.984 102.365,179.736 102.365,174.794 97.176,179.984 96.188,179.984 96.188,163.667 93.717,163.667 93.717,182.804 
	93.717,185.296 112.62,185.296 "/>
<g>
	<path fill="#4D4D4D" d="M8.475,189.955c-1.533,0-2.489,0.785-2.868,2.355h3.676v0.754H5.506l-0.014,0.333v0.374l0.014,0.263h3.337
		v0.754H5.621c0.178,0.701,0.511,1.244,0.998,1.627c0.488,0.384,1.14,0.576,1.957,0.576c0.75,0,1.492-0.129,2.227-0.386v0.877
		c-0.702,0.253-1.463,0.38-2.285,0.38c-1.139,0-2.055-0.262-2.749-0.786c-0.694-0.524-1.152-1.286-1.373-2.288H3.199v-0.754h1.095
		l-0.014-0.245v-0.257l0.014-0.467H3.199v-0.754h1.182c0.187-1.017,0.632-1.81,1.333-2.379c0.701-0.569,1.622-0.853,2.76-0.853
		c0.966,0,1.845,0.189,2.638,0.567l-0.512,0.812C9.803,190.123,9.095,189.955,8.475,189.955z"/>
</g>
<g>
	<path fill="#4D4D4D" d="M30.695,189.955c-1.533,0-2.489,0.785-2.868,2.355h3.676v0.754h-3.776l-0.014,0.333v0.374l0.014,0.263
		h3.337v0.754h-3.222c0.178,0.701,0.511,1.244,0.998,1.627c0.488,0.384,1.14,0.576,1.957,0.576c0.75,0,1.492-0.129,2.227-0.386
		v0.877c-0.702,0.253-1.463,0.38-2.285,0.38c-1.139,0-2.055-0.262-2.749-0.786c-0.694-0.524-1.152-1.286-1.373-2.288h-1.196v-0.754
		h1.095l-0.014-0.245v-0.257l0.014-0.467h-1.095v-0.754h1.182c0.187-1.017,0.632-1.81,1.333-2.379
		c0.701-0.569,1.622-0.853,2.76-0.853c0.966,0,1.845,0.189,2.638,0.567l-0.512,0.812C32.023,190.123,31.315,189.955,30.695,189.955z
		"/>
</g>
<g>
	<path fill="#4D4D4D" d="M53.628,189.955c-1.533,0-2.489,0.785-2.868,2.355h3.676v0.754h-3.776l-0.014,0.333v0.374l0.014,0.263
		h3.337v0.754h-3.222c0.178,0.701,0.511,1.244,0.998,1.627c0.488,0.384,1.14,0.576,1.957,0.576c0.75,0,1.492-0.129,2.227-0.386
		v0.877c-0.702,0.253-1.463,0.38-2.285,0.38c-1.139,0-2.055-0.262-2.749-0.786c-0.694-0.524-1.152-1.286-1.373-2.288h-1.196v-0.754
		h1.095l-0.014-0.245v-0.257l0.014-0.467h-1.095v-0.754h1.182c0.187-1.017,0.632-1.81,1.333-2.379
		c0.701-0.569,1.622-0.853,2.76-0.853c0.966,0,1.845,0.189,2.638,0.567l-0.512,0.812C54.957,190.123,54.248,189.955,53.628,189.955z
		"/>
</g>
<g>
	<path fill="#4D4D4D" d="M75.848,189.955c-1.533,0-2.489,0.785-2.868,2.355h3.676v0.754h-3.776l-0.014,0.333v0.374l0.014,0.263
		h3.337v0.754h-3.222c0.178,0.701,0.511,1.244,0.998,1.627c0.488,0.384,1.14,0.576,1.957,0.576c0.75,0,1.492-0.129,2.227-0.386
		v0.877c-0.702,0.253-1.463,0.38-2.285,0.38c-1.139,0-2.055-0.262-2.749-0.786c-0.694-0.524-1.152-1.286-1.373-2.288h-1.196v-0.754
		h1.095l-0.014-0.245v-0.257l0.014-0.467h-1.095v-0.754h1.182c0.187-1.017,0.632-1.81,1.333-2.379
		c0.701-0.569,1.622-0.853,2.76-0.853c0.966,0,1.845,0.189,2.638,0.567l-0.512,0.812C77.177,190.123,76.468,189.955,75.848,189.955z
		"/>
</g>
<g>
	<path fill="#4D4D4D" d="M99.113,190.094c-1.533,0-2.489,0.785-2.868,2.355h3.676v0.754h-3.776l-0.014,0.333v0.374l0.014,0.263
		h3.337v0.754h-3.222c0.178,0.701,0.511,1.244,0.998,1.627c0.488,0.384,1.14,0.576,1.957,0.576c0.75,0,1.492-0.129,2.227-0.386
		v0.877c-0.702,0.253-1.463,0.38-2.285,0.38c-1.139,0-2.055-0.262-2.749-0.786c-0.694-0.524-1.152-1.286-1.373-2.288h-1.196v-0.754
		h1.095l-0.014-0.245v-0.257l0.014-0.467h-1.095v-0.754h1.182c0.187-1.017,0.632-1.81,1.333-2.379
		c0.701-0.569,1.622-0.853,2.76-0.853c0.966,0,1.845,0.189,2.638,0.567l-0.512,0.812C100.441,190.262,99.733,190.094,99.113,190.094
		z"/>
</g>
<g>
	<path fill="#4D4D4D" d="M32.267,108.929c-1.835,0-2.98,0.94-3.434,2.82h4.401v0.903h-4.522l-0.017,0.399v0.448l0.017,0.315h3.996
		v0.903H28.85c0.213,0.84,0.611,1.489,1.195,1.949c0.584,0.46,1.365,0.689,2.343,0.689c0.898,0,1.786-0.154,2.667-0.462v1.05
		c-0.84,0.303-1.752,0.455-2.736,0.455c-1.363,0-2.461-0.314-3.292-0.941c-0.831-0.627-1.379-1.54-1.644-2.739H25.95v-0.903h1.312
		l-0.017-0.294v-0.308l0.017-0.56H25.95v-0.903h1.415c0.224-1.218,0.756-2.167,1.596-2.848c0.84-0.681,1.942-1.021,3.305-1.021
		c1.157,0,2.209,0.226,3.159,0.679l-0.613,0.973C33.857,109.13,33.009,108.929,32.267,108.929z"/>
</g>
<g>
	<path fill="#4D4D4D" d="M53.578,110.804c-1.472,0-2.39,0.754-2.754,2.261h3.53v0.724h-3.626l-0.014,0.32v0.359l0.014,0.252h3.204
		v0.724h-3.094c0.171,0.673,0.49,1.194,0.958,1.563c0.468,0.369,1.095,0.553,1.879,0.553c0.72,0,1.433-0.124,2.139-0.371v0.842
		c-0.674,0.243-1.405,0.365-2.194,0.365c-1.093,0-1.973-0.251-2.64-0.755c-0.667-0.503-1.106-1.235-1.318-2.197h-1.149v-0.724h1.052
		l-0.014-0.236v-0.247l0.014-0.449h-1.052v-0.724h1.135c0.18-0.976,0.607-1.738,1.28-2.284c0.674-0.546,1.557-0.819,2.651-0.819
		c0.927,0,1.772,0.181,2.533,0.544l-0.491,0.78C54.854,110.965,54.173,110.804,53.578,110.804z"/>
</g>
<g>
	<path fill="#4D4D4D" d="M75.282,112.198c-1.201,0-1.951,0.615-2.248,1.846h2.881v0.591h-2.96l-0.011,0.261v0.293l0.011,0.206h2.616
		v0.591h-2.525c0.139,0.55,0.4,0.975,0.782,1.276c0.382,0.301,0.894,0.451,1.534,0.451c0.588,0,1.17-0.101,1.746-0.302v0.687
		c-0.55,0.199-1.147,0.298-1.791,0.298c-0.893,0-1.611-0.205-2.155-0.616c-0.544-0.411-0.903-1.008-1.076-1.793h-0.938v-0.591h0.859
		l-0.011-0.192v-0.202l0.011-0.366h-0.859v-0.591h0.926c0.147-0.797,0.495-1.419,1.045-1.865c0.55-0.446,1.271-0.669,2.164-0.669
		c0.757,0,1.446,0.148,2.068,0.444l-0.401,0.637C76.323,112.329,75.768,112.198,75.282,112.198z"/>
</g>
<g>
	<path fill="#4D4D4D" d="M96.296,114.084c-0.836,0-1.357,0.428-1.564,1.284h2.004v0.411h-2.059l-0.008,0.182v0.204l0.008,0.143h1.82
		v0.411H94.74c0.097,0.382,0.278,0.678,0.544,0.887c0.266,0.209,0.622,0.314,1.067,0.314c0.409,0,0.814-0.07,1.215-0.21v0.478
		c-0.383,0.138-0.798,0.207-1.246,0.207c-0.621,0-1.121-0.143-1.499-0.429c-0.379-0.286-0.628-0.702-0.749-1.248h-0.652v-0.411
		h0.597l-0.008-0.134v-0.14l0.008-0.255h-0.597v-0.411h0.645c0.102-0.555,0.345-0.987,0.727-1.297
		c0.383-0.31,0.884-0.465,1.505-0.465c0.527,0,1.006,0.103,1.439,0.309l-0.279,0.443C97.02,114.176,96.634,114.084,96.296,114.084z"
		/>
</g>
<g>
	<path fill="#4D4D4D" d="M12.288,105.378c-2.544,0-4.131,1.303-4.761,3.909h6.1v1.251H7.36l-0.024,0.553v0.621l0.024,0.436h5.538
		v1.251H7.552c0.295,1.164,0.847,2.064,1.657,2.701c0.81,0.637,1.892,0.956,3.248,0.956c1.244,0,2.476-0.214,3.696-0.64v1.455
		c-1.165,0.421-2.428,0.631-3.792,0.631c-1.89,0-3.411-0.435-4.563-1.305c-1.152-0.87-1.912-2.135-2.279-3.797H3.533v-1.251h1.818
		l-0.024-0.407v-0.427l0.024-0.776H3.533v-1.251h1.962c0.311-1.688,1.049-3.003,2.213-3.948c1.164-0.944,2.692-1.416,4.581-1.416
		c1.603,0,3.062,0.314,4.378,0.941l-0.849,1.348C14.493,105.656,13.317,105.378,12.288,105.378z"/>
</g>
<g>
	<g>
		<path fill="#4D4D4D" d="M131.665,72.641v-5.536h3.368v0.544h-2.752v1.912h2.272v0.536h-2.272v2h2.752v0.544H131.665z"/>
		<path fill="#4D4D4D" d="M136.585,72.641h-0.6v-4h0.592v0.28c0.432-0.24,0.846-0.36,1.24-0.36c0.533,0,0.892,0.145,1.076,0.432
			c0.184,0.288,0.275,0.801,0.275,1.536v2.112h-0.592v-2.096c0-0.555-0.055-0.935-0.164-1.141c-0.109-0.205-0.343-0.308-0.7-0.308
			c-0.171,0-0.351,0.025-0.54,0.076s-0.334,0.1-0.436,0.147l-0.152,0.072V72.641z"/>
		<path fill="#4D4D4D" d="M142.33,69.16h-1.272v1.912c0,0.459,0.033,0.761,0.1,0.904c0.067,0.145,0.226,0.216,0.477,0.216
			l0.712-0.048l0.04,0.496c-0.357,0.059-0.63,0.088-0.816,0.088c-0.416,0-0.704-0.102-0.863-0.304c-0.16-0.203-0.24-0.59-0.24-1.16
			V69.16h-0.568v-0.52h0.568v-1.224h0.592v1.224h1.272V69.16z"/>
		<path fill="#4D4D4D" d="M142.737,68.641h0.6l0.809,3.48h0.128l0.952-3.4h0.624l0.951,3.4h0.137l0.8-3.48h0.6l-0.951,4h-1
			l-0.849-3.128l-0.848,3.128h-1L142.737,68.641z"/>
		<path fill="#4D4D4D" d="M149.161,67.736v-0.695h0.6v0.695H149.161z M149.161,72.641v-4h0.6v4H149.161z"/>
		<path fill="#4D4D4D" d="M152.409,68.561c0.176,0,0.475,0.032,0.896,0.096l0.192,0.024l-0.024,0.488
			c-0.427-0.048-0.741-0.072-0.943-0.072c-0.454,0-0.762,0.108-0.925,0.324c-0.162,0.216-0.243,0.616-0.243,1.2
			s0.075,0.99,0.228,1.22s0.468,0.344,0.948,0.344l0.943-0.072l0.024,0.496c-0.496,0.075-0.867,0.112-1.112,0.112
			c-0.624,0-1.055-0.16-1.292-0.48c-0.237-0.319-0.355-0.859-0.355-1.619c0-0.761,0.128-1.294,0.384-1.601
			S151.812,68.561,152.409,68.561z"/>
		<path fill="#4D4D4D" d="M155.001,72.641h-0.6v-5.744h0.6v3.393l0.624-0.032l1.145-1.616h0.68l-1.304,1.84l1.359,2.16h-0.68
			l-1.192-1.856l-0.632,0.024V72.641z"/>
		<path fill="#4D4D4D" d="M158.281,72.641v-5.744h0.6v5.744H158.281z"/>
		<path fill="#4D4D4D" d="M162.577,68.641h0.6v4h-0.6v-0.28c-0.4,0.24-0.795,0.36-1.185,0.36c-0.544,0-0.905-0.142-1.084-0.424
			c-0.179-0.283-0.268-0.806-0.268-1.568v-2.088h0.6v2.08c0,0.581,0.051,0.971,0.152,1.168s0.33,0.296,0.688,0.296
			c0.177,0,0.355-0.025,0.536-0.076c0.182-0.051,0.32-0.1,0.416-0.147l0.145-0.072V68.641z"/>
		<path fill="#4D4D4D" d="M164.929,72.641h-0.6v-4h0.592v0.28c0.432-0.24,0.846-0.36,1.24-0.36c0.533,0,0.892,0.145,1.076,0.432
			c0.184,0.288,0.275,0.801,0.275,1.536v2.112h-0.592v-2.096c0-0.555-0.055-0.935-0.164-1.141c-0.109-0.205-0.343-0.308-0.7-0.308
			c-0.171,0-0.351,0.025-0.54,0.076s-0.334,0.1-0.436,0.147l-0.152,0.072V72.641z"/>
		<path fill="#4D4D4D" d="M170.169,74.521c-0.64,0-1.087-0.087-1.34-0.26c-0.254-0.174-0.38-0.489-0.38-0.948
			c0-0.219,0.048-0.396,0.144-0.532c0.096-0.136,0.259-0.289,0.488-0.46c-0.149-0.101-0.225-0.285-0.225-0.552
			c0-0.091,0.067-0.259,0.2-0.504l0.072-0.128c-0.422-0.192-0.632-0.595-0.632-1.208c0-0.912,0.498-1.368,1.496-1.368
			c0.256,0,0.493,0.026,0.712,0.08l0.12,0.024l1.184-0.032v0.512l-0.76-0.016c0.176,0.176,0.264,0.442,0.264,0.8
			c0,0.501-0.124,0.852-0.372,1.052s-0.639,0.3-1.172,0.3c-0.144,0-0.274-0.011-0.392-0.031c-0.097,0.234-0.145,0.387-0.145,0.456
			c0,0.165,0.051,0.268,0.152,0.308s0.408,0.06,0.92,0.06s0.88,0.08,1.104,0.24c0.225,0.16,0.337,0.472,0.337,0.937
			C171.945,74.097,171.353,74.521,170.169,74.521z M169.041,73.265c0,0.282,0.078,0.479,0.235,0.588s0.448,0.164,0.872,0.164
			c0.425,0,0.729-0.059,0.912-0.176c0.185-0.117,0.276-0.313,0.276-0.588c0-0.275-0.066-0.452-0.2-0.532
			c-0.133-0.08-0.395-0.12-0.784-0.12l-0.863-0.04c-0.177,0.128-0.295,0.24-0.356,0.336S169.041,73.115,169.041,73.265z
			 M169.097,69.929c0,0.314,0.07,0.539,0.212,0.672c0.142,0.134,0.375,0.2,0.7,0.2s0.558-0.066,0.696-0.2
			c0.139-0.133,0.208-0.358,0.208-0.676s-0.069-0.543-0.208-0.676c-0.139-0.134-0.371-0.2-0.696-0.2s-0.559,0.067-0.7,0.204
			C169.167,69.389,169.097,69.614,169.097,69.929z"/>
		<path fill="#4D4D4D" d="M132.161,82.24h-0.6v-4h0.592v0.28c0.432-0.24,0.846-0.36,1.24-0.36c0.533,0,0.892,0.145,1.076,0.432
			c0.184,0.288,0.275,0.801,0.275,1.536v2.112h-0.592v-2.096c0-0.555-0.055-0.935-0.164-1.141c-0.109-0.205-0.343-0.308-0.7-0.308
			c-0.171,0-0.351,0.025-0.54,0.076s-0.334,0.1-0.436,0.147l-0.152,0.072V82.24z"/>
		<path fill="#4D4D4D" d="M138.682,79.448v2.048c0.016,0.197,0.17,0.314,0.464,0.353l-0.024,0.472c-0.421,0-0.738-0.106-0.952-0.32
			c-0.479,0.214-0.96,0.32-1.439,0.32c-0.368,0-0.648-0.104-0.84-0.312c-0.192-0.208-0.288-0.506-0.288-0.896
			s0.099-0.676,0.296-0.86c0.197-0.184,0.507-0.297,0.928-0.34l1.256-0.12v-0.344c0-0.272-0.059-0.467-0.176-0.584
			s-0.277-0.176-0.48-0.176c-0.427,0-0.869,0.026-1.327,0.08l-0.248,0.023l-0.024-0.456c0.587-0.117,1.106-0.176,1.56-0.176
			c0.454,0,0.783,0.104,0.988,0.312S138.682,79.006,138.682,79.448z M136.217,81.08c0,0.491,0.203,0.736,0.608,0.736
			c0.362,0,0.72-0.062,1.072-0.185l0.184-0.063v-1.32l-1.184,0.112c-0.24,0.021-0.414,0.091-0.521,0.208
			S136.217,80.856,136.217,81.08z"/>
		<path fill="#4D4D4D" d="M141.361,78.16c0.176,0,0.475,0.032,0.896,0.096l0.192,0.024l-0.024,0.488
			c-0.427-0.048-0.741-0.072-0.943-0.072c-0.454,0-0.762,0.108-0.925,0.324c-0.162,0.216-0.243,0.616-0.243,1.2
			s0.075,0.99,0.228,1.22s0.468,0.344,0.948,0.344l0.943-0.072l0.024,0.496c-0.496,0.075-0.867,0.112-1.112,0.112
			c-0.624,0-1.055-0.16-1.292-0.48c-0.237-0.319-0.355-0.859-0.355-1.619c0-0.761,0.128-1.294,0.384-1.601
			S140.764,78.16,141.361,78.16z"/>
		<path fill="#4D4D4D" d="M143.953,82.24h-0.6v-5.744h0.6v1.968c0.427-0.202,0.838-0.304,1.232-0.304
			c0.533,0,0.892,0.145,1.076,0.432c0.184,0.288,0.275,0.801,0.275,1.536v2.112h-0.6v-2.096c0-0.555-0.055-0.935-0.164-1.141
			c-0.109-0.205-0.34-0.308-0.692-0.308c-0.336,0-0.661,0.062-0.976,0.184l-0.152,0.057V82.24z"/>
		<path fill="#4D4D4D" d="M152.129,81.744l0.232-0.023l0.016,0.472c-0.608,0.085-1.128,0.128-1.56,0.128
			c-0.576,0-0.984-0.167-1.225-0.5s-0.359-0.853-0.359-1.556c0-1.403,0.557-2.104,1.672-2.104c0.538,0,0.941,0.15,1.208,0.452
			s0.399,0.774,0.399,1.42l-0.031,0.456h-2.641c0,0.442,0.08,0.771,0.24,0.984c0.16,0.213,0.438,0.319,0.836,0.319
			S151.718,81.776,152.129,81.744z M151.913,80.008c0-0.49-0.079-0.837-0.236-1.04c-0.157-0.202-0.413-0.304-0.768-0.304
			s-0.621,0.106-0.8,0.32c-0.179,0.213-0.271,0.555-0.276,1.023H151.913z"/>
		<path fill="#4D4D4D" d="M153.449,77.336v-0.695h0.6v0.695H153.449z M153.449,82.24v-4h0.6v4H153.449z"/>
		<path fill="#4D4D4D" d="M155.801,82.24h-0.6v-4h0.592v0.28c0.432-0.24,0.846-0.36,1.24-0.36c0.533,0,0.892,0.145,1.076,0.432
			c0.184,0.288,0.275,0.801,0.275,1.536v2.112h-0.592v-2.096c0-0.555-0.055-0.935-0.164-1.141c-0.109-0.205-0.343-0.308-0.7-0.308
			c-0.171,0-0.351,0.025-0.54,0.076s-0.334,0.1-0.436,0.147l-0.152,0.072V82.24z"/>
		<path fill="#4D4D4D" d="M162.217,81.744l0.232-0.023l0.016,0.472c-0.608,0.085-1.128,0.128-1.56,0.128
			c-0.576,0-0.984-0.167-1.225-0.5s-0.359-0.853-0.359-1.556c0-1.403,0.557-2.104,1.672-2.104c0.538,0,0.941,0.15,1.208,0.452
			s0.399,0.774,0.399,1.42l-0.031,0.456h-2.641c0,0.442,0.08,0.771,0.24,0.984c0.16,0.213,0.438,0.319,0.836,0.319
			S161.806,81.776,162.217,81.744z M162.001,80.008c0-0.49-0.079-0.837-0.236-1.04c-0.157-0.202-0.413-0.304-0.768-0.304
			s-0.621,0.106-0.8,0.32c-0.179,0.213-0.271,0.555-0.276,1.023H162.001z"/>
		<path fill="#4D4D4D" d="M164.137,82.24h-0.6v-4h0.592v0.28c0.4-0.24,0.789-0.36,1.168-0.36c0.496,0,0.843,0.136,1.04,0.408
			c0.176-0.106,0.404-0.201,0.684-0.284c0.28-0.083,0.527-0.124,0.74-0.124c0.533,0,0.893,0.143,1.076,0.428
			c0.184,0.286,0.276,0.799,0.276,1.54v2.112h-0.601v-2.096c0-0.555-0.053-0.935-0.16-1.141c-0.106-0.205-0.333-0.308-0.68-0.308
			c-0.176,0-0.357,0.025-0.544,0.076s-0.331,0.1-0.432,0.147l-0.152,0.072c0.069,0.176,0.104,0.565,0.104,1.168v2.08h-0.601v-2.064
			c0-0.575-0.052-0.966-0.156-1.172c-0.104-0.205-0.332-0.308-0.684-0.308c-0.171,0-0.346,0.025-0.524,0.076s-0.315,0.1-0.412,0.147
			l-0.136,0.072V82.24z"/>
		<path fill="#4D4D4D" d="M131.129,92.417v-0.552c0.385,0,0.631-0.047,0.74-0.141c0.109-0.093,0.164-0.337,0.164-0.731v-4.688h0.608
			l0.008,4.776c0,0.448-0.075,0.775-0.224,0.983c-0.123,0.177-0.366,0.285-0.729,0.328
			C131.554,92.409,131.364,92.417,131.129,92.417z"/>
		<path fill="#4D4D4D" d="M136.697,89.049v2.048c0.016,0.197,0.17,0.314,0.464,0.353l-0.024,0.472c-0.421,0-0.738-0.106-0.952-0.32
			c-0.479,0.214-0.96,0.32-1.439,0.32c-0.368,0-0.648-0.104-0.84-0.312c-0.192-0.208-0.288-0.506-0.288-0.896
			s0.099-0.676,0.296-0.86c0.197-0.184,0.507-0.297,0.928-0.34l1.256-0.12v-0.344c0-0.272-0.059-0.467-0.176-0.584
			s-0.277-0.176-0.48-0.176c-0.427,0-0.869,0.026-1.327,0.08l-0.248,0.023l-0.024-0.456c0.587-0.117,1.106-0.176,1.56-0.176
			c0.454,0,0.783,0.104,0.988,0.312S136.697,88.606,136.697,89.049z M134.232,90.681c0,0.491,0.203,0.736,0.608,0.736
			c0.362,0,0.72-0.062,1.072-0.185l0.184-0.063v-1.32l-1.184,0.112c-0.24,0.021-0.414,0.091-0.521,0.208
			S134.232,90.457,134.232,90.681z"/>
		<path fill="#4D4D4D" d="M138.481,91.841h-0.6v-5.744h0.6v1.968c0.427-0.202,0.838-0.304,1.232-0.304
			c0.533,0,0.892,0.145,1.076,0.432c0.184,0.288,0.275,0.801,0.275,1.536v2.112h-0.6v-2.096c0-0.555-0.055-0.935-0.164-1.141
			c-0.109-0.205-0.34-0.308-0.692-0.308c-0.336,0-0.661,0.062-0.976,0.184l-0.152,0.057V91.841z"/>
		<path fill="#4D4D4D" d="M142.177,91.841v-4h0.592v0.544c0.464-0.32,0.952-0.53,1.464-0.632v0.607
			c-0.224,0.043-0.457,0.109-0.7,0.2c-0.242,0.091-0.428,0.171-0.556,0.24l-0.2,0.104v2.936H142.177z"/>
	</g>
</g>
<g>
	<g>
		<path fill="#4D4D4D" d="M64.415,148.64v-5.536h0.616v5.536H64.415z"/>
		<path fill="#4D4D4D" d="M66.879,148.64h-0.6v-4h0.592v0.28c0.432-0.24,0.846-0.36,1.24-0.36c0.533,0,0.892,0.145,1.076,0.432
			c0.184,0.288,0.275,0.801,0.275,1.536v2.112h-0.592v-2.096c0-0.555-0.055-0.935-0.164-1.141c-0.109-0.205-0.343-0.308-0.7-0.308
			c-0.171,0-0.351,0.025-0.54,0.076s-0.334,0.1-0.436,0.147l-0.152,0.072V148.64z"/>
		<path fill="#4D4D4D" d="M70.159,144.64h0.64l0.937,3.48h0.296l0.968-3.48h0.616l-1.128,4h-1.2L70.159,144.64z"/>
		<path fill="#4D4D4D" d="M77.031,148.144l0.232-0.023l0.016,0.472c-0.608,0.085-1.128,0.128-1.56,0.128
			c-0.576,0-0.984-0.167-1.225-0.5s-0.359-0.853-0.359-1.556c0-1.403,0.557-2.104,1.672-2.104c0.538,0,0.941,0.15,1.208,0.452
			s0.399,0.774,0.399,1.42l-0.031,0.456h-2.641c0,0.442,0.08,0.771,0.24,0.984c0.16,0.213,0.438,0.319,0.836,0.319
			S76.62,148.176,77.031,148.144z M76.815,146.407c0-0.49-0.079-0.837-0.236-1.04c-0.157-0.202-0.413-0.304-0.768-0.304
			s-0.621,0.106-0.8,0.32c-0.179,0.213-0.271,0.555-0.276,1.023H76.815z"/>
		<path fill="#4D4D4D" d="M79.607,145.096c-0.581,0-0.872,0.203-0.872,0.608c0,0.187,0.066,0.318,0.2,0.396
			c0.133,0.077,0.438,0.157,0.912,0.24s0.811,0.198,1.008,0.348s0.296,0.43,0.296,0.84c0,0.411-0.132,0.712-0.396,0.904
			c-0.265,0.192-0.649,0.288-1.156,0.288c-0.331,0-0.721-0.037-1.168-0.112l-0.24-0.04l0.032-0.52
			c0.607,0.091,1.066,0.136,1.376,0.136c0.309,0,0.545-0.049,0.708-0.147c0.162-0.099,0.244-0.265,0.244-0.496
			c0-0.232-0.069-0.39-0.208-0.473c-0.139-0.082-0.443-0.161-0.912-0.235c-0.47-0.075-0.803-0.185-1-0.328
			c-0.197-0.145-0.296-0.411-0.296-0.8c0-0.39,0.137-0.678,0.412-0.864c0.274-0.187,0.617-0.28,1.027-0.28
			c0.325,0,0.733,0.037,1.225,0.112l0.224,0.04l-0.016,0.512C80.415,145.139,79.948,145.096,79.607,145.096z"/>
		<path fill="#4D4D4D" d="M84.144,145.159h-1.272v1.912c0,0.459,0.033,0.761,0.1,0.904c0.067,0.145,0.226,0.216,0.477,0.216
			l0.712-0.048l0.04,0.496c-0.357,0.059-0.63,0.088-0.816,0.088c-0.416,0-0.704-0.102-0.863-0.304c-0.16-0.203-0.24-0.59-0.24-1.16
			v-2.104h-0.568v-0.52h0.568v-1.224h0.592v1.224h1.272V145.159z"/>
		<path fill="#4D4D4D" d="M84.879,143.735v-0.695h0.6v0.695H84.879z M84.879,148.64v-4h0.6v4H84.879z"/>
		<path fill="#4D4D4D" d="M88.703,145.159h-1.272v1.912c0,0.459,0.033,0.761,0.1,0.904c0.067,0.145,0.226,0.216,0.477,0.216
			l0.712-0.048l0.04,0.496c-0.357,0.059-0.63,0.088-0.816,0.088c-0.416,0-0.704-0.102-0.863-0.304c-0.16-0.203-0.24-0.59-0.24-1.16
			v-2.104h-0.568v-0.52h0.568v-1.224h0.592v1.224h1.272V145.159z"/>
		<path fill="#4D4D4D" d="M89.439,143.735v-0.695h0.6v0.695H89.439z M89.439,148.64v-4h0.6v4H89.439z"/>
		<path fill="#4D4D4D" d="M91.016,146.632c0-0.73,0.13-1.259,0.392-1.584s0.702-0.488,1.324-0.488c0.621,0,1.062,0.163,1.319,0.488
			c0.259,0.325,0.389,0.854,0.389,1.584s-0.123,1.261-0.368,1.592s-0.693,0.496-1.344,0.496c-0.651,0-1.099-0.165-1.345-0.496
			C91.138,147.893,91.016,147.362,91.016,146.632z M91.631,146.62c0,0.584,0.071,0.993,0.212,1.228
			c0.142,0.234,0.438,0.352,0.889,0.352c0.45,0,0.745-0.115,0.884-0.348c0.139-0.231,0.208-0.642,0.208-1.228
			c0-0.587-0.077-0.991-0.232-1.212c-0.154-0.222-0.441-0.332-0.859-0.332c-0.419,0-0.707,0.11-0.864,0.332
			C91.71,145.633,91.631,146.036,91.631,146.62z"/>
		<path fill="#4D4D4D" d="M96.015,148.64h-0.6v-4h0.592v0.28c0.432-0.24,0.846-0.36,1.24-0.36c0.533,0,0.892,0.145,1.076,0.432
			c0.184,0.288,0.275,0.801,0.275,1.536v2.112h-0.592v-2.096c0-0.555-0.055-0.935-0.164-1.141c-0.109-0.205-0.343-0.308-0.7-0.308
			c-0.171,0-0.351,0.025-0.54,0.076s-0.334,0.1-0.436,0.147l-0.152,0.072V148.64z"/>
		<path fill="#4D4D4D" d="M101.471,143.735v-0.695h0.6v0.695H101.471z M101.471,148.64v-4h0.6v4H101.471z"/>
		<path fill="#4D4D4D" d="M103.822,148.64h-0.6v-4h0.592v0.28c0.432-0.24,0.846-0.36,1.24-0.36c0.533,0,0.892,0.145,1.076,0.432
			c0.184,0.288,0.275,0.801,0.275,1.536v2.112h-0.592v-2.096c0-0.555-0.055-0.935-0.164-1.141c-0.109-0.205-0.343-0.308-0.7-0.308
			c-0.171,0-0.351,0.025-0.54,0.076s-0.334,0.1-0.436,0.147l-0.152,0.072V148.64z"/>
		<path fill="#4D4D4D" d="M111.814,143.359v5.28h-0.616v-4.592l-1.36,0.896l-0.279-0.464l1.68-1.12H111.814z"/>
		<path fill="#4D4D4D" d="M117.11,148.64h-3.376v-0.52l1.544-1.624c0.267-0.277,0.462-0.488,0.584-0.633
			c0.123-0.144,0.233-0.314,0.332-0.512s0.148-0.395,0.148-0.592c0-0.342-0.094-0.581-0.28-0.72s-0.478-0.208-0.872-0.208
			c-0.347,0-0.733,0.045-1.16,0.136l-0.208,0.04l-0.048-0.512c0.507-0.145,1.029-0.217,1.568-0.217c0.538,0,0.945,0.113,1.22,0.341
			c0.274,0.227,0.412,0.585,0.412,1.075c0,0.374-0.083,0.699-0.248,0.977s-0.451,0.61-0.855,1l-1.408,1.432h2.647V148.64z"/>
		<path fill="#4D4D4D" d="M121.543,150.52c-0.64,0-1.087-0.087-1.34-0.26c-0.254-0.174-0.38-0.489-0.38-0.948
			c0-0.219,0.048-0.396,0.144-0.532c0.096-0.136,0.259-0.289,0.488-0.46c-0.149-0.101-0.225-0.285-0.225-0.552
			c0-0.091,0.067-0.259,0.2-0.504l0.072-0.128c-0.422-0.192-0.632-0.595-0.632-1.208c0-0.912,0.498-1.368,1.496-1.368
			c0.256,0,0.493,0.026,0.712,0.08l0.12,0.024l1.184-0.032v0.512l-0.76-0.016c0.176,0.176,0.264,0.442,0.264,0.8
			c0,0.501-0.124,0.852-0.372,1.052s-0.639,0.3-1.172,0.3c-0.144,0-0.274-0.011-0.392-0.031c-0.097,0.234-0.145,0.387-0.145,0.456
			c0,0.165,0.051,0.268,0.152,0.308s0.408,0.06,0.92,0.06s0.88,0.08,1.104,0.24c0.225,0.16,0.337,0.472,0.337,0.937
			C123.319,150.096,122.727,150.52,121.543,150.52z M120.415,149.264c0,0.282,0.078,0.479,0.235,0.588s0.448,0.164,0.872,0.164
			c0.425,0,0.729-0.059,0.912-0.176c0.185-0.117,0.276-0.313,0.276-0.588c0-0.275-0.066-0.452-0.2-0.532
			c-0.133-0.08-0.395-0.12-0.784-0.12l-0.863-0.04c-0.177,0.128-0.295,0.24-0.356,0.336S120.415,149.114,120.415,149.264z
			 M120.471,145.928c0,0.314,0.07,0.539,0.212,0.672c0.142,0.134,0.375,0.2,0.7,0.2s0.558-0.066,0.696-0.2
			c0.139-0.133,0.208-0.358,0.208-0.676s-0.069-0.543-0.208-0.676c-0.139-0.134-0.371-0.2-0.696-0.2s-0.559,0.067-0.7,0.204
			C120.541,145.388,120.471,145.613,120.471,145.928z"/>
		<path fill="#4D4D4D" d="M124.158,148.64v-5.744h0.6v5.744H124.158z"/>
		<path fill="#4D4D4D" d="M128.678,148.144l0.232-0.023l0.016,0.472c-0.608,0.085-1.128,0.128-1.56,0.128
			c-0.576,0-0.984-0.167-1.225-0.5s-0.359-0.853-0.359-1.556c0-1.403,0.557-2.104,1.672-2.104c0.538,0,0.941,0.15,1.208,0.452
			s0.399,0.774,0.399,1.42l-0.031,0.456h-2.641c0,0.442,0.08,0.771,0.24,0.984c0.16,0.213,0.438,0.319,0.836,0.319
			S128.267,148.176,128.678,148.144z M128.462,146.407c0-0.49-0.079-0.837-0.236-1.04c-0.157-0.202-0.413-0.304-0.768-0.304
			s-0.621,0.106-0.8,0.32c-0.179,0.213-0.271,0.555-0.276,1.023H128.462z"/>
		<path fill="#4D4D4D" d="M129.998,143.735v-0.695h0.6v0.695H129.998z M129.998,148.64v-4h0.6v4H129.998z"/>
		<path fill="#4D4D4D" d="M133.246,144.56c0.176,0,0.475,0.032,0.896,0.096l0.192,0.024l-0.024,0.488
			c-0.427-0.048-0.741-0.072-0.943-0.072c-0.454,0-0.762,0.108-0.925,0.324c-0.162,0.216-0.243,0.616-0.243,1.2
			s0.075,0.99,0.228,1.22s0.468,0.344,0.948,0.344l0.943-0.072l0.024,0.496c-0.496,0.075-0.867,0.112-1.112,0.112
			c-0.624,0-1.055-0.16-1.292-0.48c-0.237-0.319-0.355-0.859-0.355-1.619c0-0.761,0.128-1.294,0.384-1.601
			S132.648,144.56,133.246,144.56z"/>
		<path fill="#4D4D4D" d="M135.838,148.64h-0.6v-5.744h0.6v1.968c0.427-0.202,0.838-0.304,1.232-0.304
			c0.533,0,0.892,0.145,1.076,0.432c0.184,0.288,0.275,0.801,0.275,1.536v2.112h-0.6v-2.096c0-0.555-0.055-0.935-0.164-1.141
			c-0.109-0.205-0.34-0.308-0.692-0.308c-0.336,0-0.661,0.062-0.976,0.184l-0.152,0.057V148.64z"/>
		<path fill="#4D4D4D" d="M142.254,148.144l0.232-0.023l0.016,0.472c-0.608,0.085-1.128,0.128-1.56,0.128
			c-0.576,0-0.984-0.167-1.225-0.5s-0.359-0.853-0.359-1.556c0-1.403,0.557-2.104,1.672-2.104c0.538,0,0.941,0.15,1.208,0.452
			s0.399,0.774,0.399,1.42l-0.031,0.456h-2.641c0,0.442,0.08,0.771,0.24,0.984c0.16,0.213,0.438,0.319,0.836,0.319
			S141.843,148.176,142.254,148.144z M142.038,146.407c0-0.49-0.079-0.837-0.236-1.04c-0.157-0.202-0.413-0.304-0.768-0.304
			s-0.621,0.106-0.8,0.32c-0.179,0.213-0.271,0.555-0.276,1.023H142.038z"/>
		<path fill="#4D4D4D" d="M144.861,143.655v-0.552h4v0.552h-1.688v4.984h-0.608v-4.984H144.861z"/>
		<path fill="#4D4D4D" d="M151.533,148.144l0.232-0.023l0.016,0.472c-0.608,0.085-1.128,0.128-1.56,0.128
			c-0.576,0-0.984-0.167-1.225-0.5s-0.359-0.853-0.359-1.556c0-1.403,0.557-2.104,1.672-2.104c0.538,0,0.941,0.15,1.208,0.452
			s0.399,0.774,0.399,1.42l-0.031,0.456h-2.641c0,0.442,0.08,0.771,0.24,0.984c0.16,0.213,0.438,0.319,0.836,0.319
			S151.122,148.176,151.533,148.144z M151.317,146.407c0-0.49-0.079-0.837-0.236-1.04c-0.157-0.202-0.413-0.304-0.768-0.304
			s-0.621,0.106-0.8,0.32c-0.179,0.213-0.271,0.555-0.276,1.023H151.317z"/>
		<path fill="#4D4D4D" d="M152.854,143.735v-0.695h0.6v0.695H152.854z M152.854,148.64v-4h0.6v4H152.854z"/>
		<path fill="#4D4D4D" d="M154.653,148.64v-5.744h0.6v5.744H154.653z"/>
		<path fill="#4D4D4D" d="M159.174,148.144l0.232-0.023l0.016,0.472c-0.608,0.085-1.128,0.128-1.56,0.128
			c-0.576,0-0.984-0.167-1.225-0.5s-0.359-0.853-0.359-1.556c0-1.403,0.557-2.104,1.672-2.104c0.538,0,0.941,0.15,1.208,0.452
			s0.399,0.774,0.399,1.42l-0.031,0.456h-2.641c0,0.442,0.08,0.771,0.24,0.984c0.16,0.213,0.438,0.319,0.836,0.319
			S158.763,148.176,159.174,148.144z M158.958,146.407c0-0.49-0.079-0.837-0.236-1.04c-0.157-0.202-0.413-0.304-0.768-0.304
			s-0.621,0.106-0.8,0.32c-0.179,0.213-0.271,0.555-0.276,1.023H158.958z"/>
		<path fill="#4D4D4D" d="M64.976,159.239c-0.555-1.248-0.832-2.384-0.832-3.408c0-0.512,0.069-1.067,0.208-1.668
			c0.139-0.6,0.277-1.07,0.416-1.412l0.208-0.512h0.576c-0.188,0.491-0.36,1.098-0.521,1.82s-0.24,1.312-0.24,1.768
			s0.064,0.968,0.192,1.536s0.256,1.022,0.384,1.364l0.185,0.512H64.976z"/>
		<path fill="#4D4D4D" d="M69.208,155.447v2.048c0.016,0.197,0.17,0.314,0.464,0.353l-0.024,0.472c-0.421,0-0.738-0.106-0.952-0.32
			c-0.479,0.214-0.96,0.32-1.439,0.32c-0.368,0-0.648-0.104-0.84-0.312c-0.192-0.208-0.288-0.506-0.288-0.896
			s0.099-0.676,0.296-0.86c0.197-0.184,0.507-0.297,0.928-0.34l1.256-0.12v-0.344c0-0.272-0.059-0.467-0.176-0.584
			s-0.277-0.176-0.48-0.176c-0.427,0-0.869,0.026-1.327,0.08l-0.248,0.023l-0.024-0.456c0.587-0.117,1.106-0.176,1.56-0.176
			c0.454,0,0.783,0.104,0.988,0.312S69.208,155.005,69.208,155.447z M66.743,157.079c0,0.491,0.203,0.736,0.608,0.736
			c0.362,0,0.72-0.062,1.072-0.185l0.184-0.063v-1.32l-1.184,0.112c-0.24,0.021-0.414,0.091-0.521,0.208
			S66.743,156.855,66.743,157.079z"/>
		<path fill="#4D4D4D" d="M70.991,158.239h-0.6v-4h0.592v0.28c0.432-0.24,0.846-0.36,1.24-0.36c0.533,0,0.892,0.145,1.076,0.432
			c0.184,0.288,0.275,0.801,0.275,1.536v2.112h-0.592v-2.096c0-0.555-0.055-0.935-0.164-1.141c-0.109-0.205-0.343-0.308-0.7-0.308
			c-0.171,0-0.351,0.025-0.54,0.076s-0.334,0.1-0.436,0.147l-0.152,0.072V158.239z"/>
		<path fill="#4D4D4D" d="M77.76,152.495v5.744h-0.593v-0.272c-0.41,0.235-0.815,0.353-1.216,0.353c-0.213,0-0.399-0.026-0.56-0.08
			s-0.31-0.149-0.448-0.288c-0.288-0.288-0.432-0.82-0.432-1.596c0-0.776,0.129-1.336,0.388-1.681
			c0.259-0.344,0.687-0.516,1.284-0.516c0.309,0,0.637,0.035,0.983,0.104v-1.769H77.76z M75.68,157.728
			c0.096,0.037,0.22,0.056,0.372,0.056c0.151,0,0.322-0.025,0.512-0.076s0.337-0.1,0.444-0.147l0.159-0.072v-2.712
			c-0.341-0.064-0.658-0.096-0.952-0.096c-0.405,0-0.688,0.129-0.848,0.388s-0.24,0.66-0.24,1.204c0,0.618,0.094,1.034,0.28,1.248
			C75.492,157.621,75.583,157.69,75.68,157.728z"/>
		<path fill="#4D4D4D" d="M81.639,157.743l0.232-0.023l0.016,0.472c-0.608,0.085-1.128,0.128-1.56,0.128
			c-0.576,0-0.984-0.167-1.225-0.5s-0.359-0.853-0.359-1.556c0-1.403,0.557-2.104,1.672-2.104c0.538,0,0.941,0.15,1.208,0.452
			s0.399,0.774,0.399,1.42l-0.031,0.456h-2.641c0,0.442,0.08,0.771,0.24,0.984c0.16,0.213,0.438,0.319,0.836,0.319
			S81.228,157.775,81.639,157.743z M81.423,156.007c0-0.49-0.079-0.837-0.236-1.04c-0.157-0.202-0.413-0.304-0.768-0.304
			s-0.621,0.106-0.8,0.32c-0.179,0.213-0.271,0.555-0.276,1.023H81.423z"/>
		<path fill="#4D4D4D" d="M82.959,158.239v-4h0.592v0.544c0.464-0.32,0.952-0.53,1.464-0.632v0.607
			c-0.224,0.043-0.457,0.109-0.7,0.2c-0.242,0.091-0.428,0.171-0.556,0.24l-0.2,0.104v2.936H82.959z"/>
		<path fill="#4D4D4D" d="M88.367,157.743l0.232-0.023l0.016,0.472c-0.608,0.085-1.128,0.128-1.56,0.128
			c-0.576,0-0.984-0.167-1.225-0.5s-0.359-0.853-0.359-1.556c0-1.403,0.557-2.104,1.672-2.104c0.538,0,0.941,0.15,1.208,0.452
			s0.399,0.774,0.399,1.42l-0.031,0.456h-2.641c0,0.442,0.08,0.771,0.24,0.984c0.16,0.213,0.438,0.319,0.836,0.319
			S87.956,157.775,88.367,157.743z M88.151,156.007c0-0.49-0.079-0.837-0.236-1.04c-0.157-0.202-0.413-0.304-0.768-0.304
			s-0.621,0.106-0.8,0.32c-0.179,0.213-0.271,0.555-0.276,1.023H88.151z"/>
		<path fill="#4D4D4D" d="M92.127,156.575c0,0.8,0.433,1.2,1.296,1.2c0.448,0,0.785-0.095,1.013-0.284
			c0.227-0.189,0.34-0.494,0.34-0.916v-3.872h0.607v3.856c0,0.618-0.164,1.066-0.492,1.344c-0.327,0.277-0.812,0.416-1.451,0.416
			c-0.641,0-1.122-0.139-1.444-0.416c-0.323-0.277-0.484-0.726-0.484-1.344v-3.856h0.616V156.575z"/>
		<path fill="#4D4D4D" d="M97.198,158.239h-0.6v-4h0.592v0.28c0.432-0.24,0.846-0.36,1.24-0.36c0.533,0,0.892,0.145,1.076,0.432
			c0.184,0.288,0.275,0.801,0.275,1.536v2.112H99.19v-2.096c0-0.555-0.055-0.935-0.164-1.141c-0.109-0.205-0.343-0.308-0.7-0.308
			c-0.171,0-0.351,0.025-0.54,0.076s-0.334,0.1-0.436,0.147l-0.152,0.072V158.239z"/>
		<path fill="#4D4D4D" d="M102.943,154.759h-1.272v1.912c0,0.459,0.033,0.761,0.1,0.904c0.067,0.145,0.226,0.216,0.477,0.216
			l0.712-0.048l0.04,0.496c-0.357,0.059-0.63,0.088-0.816,0.088c-0.416,0-0.704-0.102-0.863-0.304c-0.16-0.203-0.24-0.59-0.24-1.16
			v-2.104h-0.568v-0.52h0.568v-1.224h0.592v1.224h1.272V154.759z"/>
		<path fill="#4D4D4D" d="M106.398,157.743l0.232-0.023l0.016,0.472c-0.608,0.085-1.128,0.128-1.56,0.128
			c-0.576,0-0.984-0.167-1.225-0.5s-0.359-0.853-0.359-1.556c0-1.403,0.557-2.104,1.672-2.104c0.538,0,0.941,0.15,1.208,0.452
			s0.399,0.774,0.399,1.42l-0.031,0.456h-2.641c0,0.442,0.08,0.771,0.24,0.984c0.16,0.213,0.438,0.319,0.836,0.319
			S105.987,157.775,106.398,157.743z M106.183,156.007c0-0.49-0.079-0.837-0.236-1.04c-0.157-0.202-0.413-0.304-0.768-0.304
			s-0.621,0.106-0.8,0.32c-0.179,0.213-0.271,0.555-0.276,1.023H106.183z"/>
		<path fill="#4D4D4D" d="M107.719,158.239v-4h0.592v0.544c0.464-0.32,0.952-0.53,1.464-0.632v0.607
			c-0.224,0.043-0.457,0.109-0.7,0.2c-0.242,0.091-0.428,0.171-0.556,0.24l-0.2,0.104v2.936H107.719z"/>
		<path fill="#4D4D4D" d="M111.087,158.239h-0.6v-4h0.592v0.28c0.432-0.24,0.846-0.36,1.24-0.36c0.533,0,0.892,0.145,1.076,0.432
			c0.184,0.288,0.275,0.801,0.275,1.536v2.112h-0.592v-2.096c0-0.555-0.055-0.935-0.164-1.141c-0.109-0.205-0.343-0.308-0.7-0.308
			c-0.171,0-0.351,0.025-0.54,0.076s-0.334,0.1-0.436,0.147l-0.152,0.072V158.239z"/>
		<path fill="#4D4D4D" d="M117.502,157.743l0.232-0.023l0.016,0.472c-0.608,0.085-1.128,0.128-1.56,0.128
			c-0.576,0-0.984-0.167-1.225-0.5s-0.359-0.853-0.359-1.556c0-1.403,0.557-2.104,1.672-2.104c0.538,0,0.941,0.15,1.208,0.452
			s0.399,0.774,0.399,1.42l-0.031,0.456h-2.641c0,0.442,0.08,0.771,0.24,0.984c0.16,0.213,0.438,0.319,0.836,0.319
			S117.091,157.775,117.502,157.743z M117.286,156.007c0-0.49-0.079-0.837-0.236-1.04c-0.157-0.202-0.413-0.304-0.768-0.304
			s-0.621,0.106-0.8,0.32c-0.179,0.213-0.271,0.555-0.276,1.023H117.286z"/>
		<path fill="#4D4D4D" d="M119.422,158.239h-0.6v-5.744h0.6v1.968c0.427-0.202,0.838-0.304,1.232-0.304
			c0.533,0,0.892,0.145,1.076,0.432c0.184,0.288,0.275,0.801,0.275,1.536v2.112h-0.6v-2.096c0-0.555-0.055-0.935-0.164-1.141
			c-0.109-0.205-0.34-0.308-0.692-0.308c-0.336,0-0.661,0.062-0.976,0.184l-0.152,0.057V158.239z"/>
		<path fill="#4D4D4D" d="M123.718,158.239h-0.6v-4h0.592v0.28c0.4-0.24,0.789-0.36,1.168-0.36c0.496,0,0.843,0.136,1.04,0.408
			c0.176-0.106,0.404-0.201,0.684-0.284c0.28-0.083,0.527-0.124,0.74-0.124c0.533,0,0.893,0.143,1.076,0.428
			c0.184,0.286,0.276,0.799,0.276,1.54v2.112h-0.601v-2.096c0-0.555-0.053-0.935-0.16-1.141c-0.106-0.205-0.333-0.308-0.68-0.308
			c-0.176,0-0.357,0.025-0.544,0.076s-0.331,0.1-0.432,0.147l-0.152,0.072c0.069,0.176,0.104,0.565,0.104,1.168v2.08h-0.601v-2.064
			c0-0.575-0.052-0.966-0.156-1.172c-0.104-0.205-0.332-0.308-0.684-0.308c-0.171,0-0.346,0.025-0.524,0.076s-0.315,0.1-0.412,0.147
			l-0.136,0.072V158.239z"/>
		<path fill="#4D4D4D" d="M132.526,157.743l0.232-0.023l0.016,0.472c-0.608,0.085-1.128,0.128-1.56,0.128
			c-0.576,0-0.984-0.167-1.225-0.5s-0.359-0.853-0.359-1.556c0-1.403,0.557-2.104,1.672-2.104c0.538,0,0.941,0.15,1.208,0.452
			s0.399,0.774,0.399,1.42l-0.031,0.456h-2.641c0,0.442,0.08,0.771,0.24,0.984c0.16,0.213,0.438,0.319,0.836,0.319
			S132.115,157.775,132.526,157.743z M132.311,156.007c0-0.49-0.079-0.837-0.236-1.04c-0.157-0.202-0.413-0.304-0.768-0.304
			s-0.621,0.106-0.8,0.32c-0.179,0.213-0.271,0.555-0.276,1.023H132.311z"/>
		<path fill="#4D4D4D" d="M134.446,158.239h-0.6v-4h0.592v0.28c0.432-0.24,0.846-0.36,1.24-0.36c0.533,0,0.892,0.145,1.076,0.432
			c0.184,0.288,0.275,0.801,0.275,1.536v2.112h-0.592v-2.096c0-0.555-0.055-0.935-0.164-1.141c-0.109-0.205-0.343-0.308-0.7-0.308
			c-0.171,0-0.351,0.025-0.54,0.076s-0.334,0.1-0.436,0.147l-0.152,0.072V158.239z"/>
		<path fill="#4D4D4D" d="M140.502,158.239h-0.6v-4h0.592v0.28c0.4-0.24,0.789-0.36,1.168-0.36c0.496,0,0.843,0.136,1.04,0.408
			c0.176-0.106,0.404-0.201,0.684-0.284c0.28-0.083,0.527-0.124,0.74-0.124c0.533,0,0.893,0.143,1.076,0.428
			c0.184,0.286,0.276,0.799,0.276,1.54v2.112h-0.601v-2.096c0-0.555-0.053-0.935-0.16-1.141c-0.106-0.205-0.333-0.308-0.68-0.308
			c-0.176,0-0.357,0.025-0.544,0.076s-0.331,0.1-0.432,0.147l-0.152,0.072c0.069,0.176,0.104,0.565,0.104,1.168v2.08h-0.601v-2.064
			c0-0.575-0.052-0.966-0.156-1.172c-0.104-0.205-0.332-0.308-0.684-0.308c-0.171,0-0.346,0.025-0.524,0.076s-0.315,0.1-0.412,0.147
			l-0.136,0.072V158.239z"/>
		<path fill="#4D4D4D" d="M148.13,154.159c0.621,0,1.062,0.163,1.319,0.488c0.259,0.325,0.389,0.854,0.389,1.584
			s-0.123,1.261-0.368,1.592s-0.693,0.496-1.344,0.496c-0.651,0-1.099-0.165-1.345-0.496c-0.245-0.331-0.367-0.861-0.367-1.592
			s0.13-1.259,0.392-1.584S147.508,154.159,148.13,154.159z M147.014,153.271v-0.721h0.576v0.721H147.014z M148.13,157.799
			c0.45,0,0.745-0.115,0.884-0.348c0.139-0.231,0.208-0.642,0.208-1.228c0-0.587-0.077-0.991-0.232-1.212
			c-0.154-0.222-0.441-0.332-0.859-0.332c-0.419,0-0.707,0.11-0.864,0.332c-0.157,0.221-0.236,0.624-0.236,1.208
			s0.071,0.993,0.212,1.228C147.383,157.682,147.679,157.799,148.13,157.799z M148.613,153.271v-0.721h0.584v0.721H148.613z"/>
		<path fill="#4D4D4D" d="M152.358,160.119c-0.64,0-1.087-0.087-1.34-0.26c-0.254-0.174-0.38-0.489-0.38-0.948
			c0-0.219,0.048-0.396,0.144-0.532c0.096-0.136,0.259-0.289,0.488-0.46c-0.149-0.101-0.225-0.285-0.225-0.552
			c0-0.091,0.067-0.259,0.2-0.504l0.072-0.128c-0.422-0.192-0.632-0.595-0.632-1.208c0-0.912,0.498-1.368,1.496-1.368
			c0.256,0,0.493,0.026,0.712,0.08l0.12,0.024l1.184-0.032v0.512l-0.76-0.016c0.176,0.176,0.264,0.442,0.264,0.8
			c0,0.501-0.124,0.852-0.372,1.052s-0.639,0.3-1.172,0.3c-0.144,0-0.274-0.011-0.392-0.031c-0.097,0.234-0.145,0.387-0.145,0.456
			c0,0.165,0.051,0.268,0.152,0.308s0.408,0.06,0.92,0.06s0.88,0.08,1.104,0.24c0.225,0.16,0.337,0.472,0.337,0.937
			C154.135,159.695,153.542,160.119,152.358,160.119z M151.23,158.863c0,0.282,0.078,0.479,0.235,0.588s0.448,0.164,0.872,0.164
			c0.425,0,0.729-0.059,0.912-0.176c0.185-0.117,0.276-0.313,0.276-0.588c0-0.275-0.066-0.452-0.2-0.532
			c-0.133-0.08-0.395-0.12-0.784-0.12l-0.863-0.04c-0.177,0.128-0.295,0.24-0.356,0.336S151.23,158.714,151.23,158.863z
			 M151.286,155.527c0,0.314,0.07,0.539,0.212,0.672c0.142,0.134,0.375,0.2,0.7,0.2s0.558-0.066,0.696-0.2
			c0.139-0.133,0.208-0.358,0.208-0.676s-0.069-0.543-0.208-0.676c-0.139-0.134-0.371-0.2-0.696-0.2s-0.559,0.067-0.7,0.204
			C151.356,154.987,151.286,155.213,151.286,155.527z"/>
		<path fill="#4D4D4D" d="M154.974,158.239v-5.744h0.6v5.744H154.974z"/>
		<path fill="#4D4D4D" d="M156.774,153.335v-0.695h0.6v0.695H156.774z M156.774,158.239v-4h0.6v4H156.774z"/>
		<path fill="#4D4D4D" d="M160.022,154.159c0.176,0,0.475,0.032,0.896,0.096l0.192,0.024l-0.024,0.488
			c-0.427-0.048-0.741-0.072-0.943-0.072c-0.454,0-0.762,0.108-0.925,0.324c-0.162,0.216-0.243,0.616-0.243,1.2
			s0.075,0.99,0.228,1.22s0.468,0.344,0.948,0.344l0.943-0.072l0.024,0.496c-0.496,0.075-0.867,0.112-1.112,0.112
			c-0.624,0-1.055-0.16-1.292-0.48c-0.237-0.319-0.355-0.859-0.355-1.619c0-0.761,0.128-1.294,0.384-1.601
			S159.425,154.159,160.022,154.159z"/>
		<path fill="#4D4D4D" d="M162.613,158.239h-0.6v-5.744h0.6v1.968c0.427-0.202,0.838-0.304,1.232-0.304
			c0.533,0,0.892,0.145,1.076,0.432c0.184,0.288,0.275,0.801,0.275,1.536v2.112h-0.6v-2.096c0-0.555-0.055-0.935-0.164-1.141
			c-0.109-0.205-0.34-0.308-0.692-0.308c-0.336,0-0.661,0.062-0.976,0.184l-0.152,0.057V158.239z"/>
		<path fill="#4D4D4D" d="M167.318,154.791c0.059,0.374,0.088,0.769,0.088,1.185s-0.069,0.907-0.208,1.476s-0.277,1.007-0.416,1.316
			l-0.208,0.472h-0.576c0.182-0.427,0.354-0.988,0.516-1.684c0.163-0.696,0.244-1.272,0.244-1.729s-0.062-0.982-0.188-1.58
			c-0.126-0.597-0.252-1.08-0.38-1.448l-0.192-0.56h0.576C166.926,153.034,167.174,153.885,167.318,154.791z"/>
	</g>
</g>
<g>
	<path fill="#4D4D4D" d="M17.889,3.234c-4.171,0-6.773,2.136-7.805,6.409h10.002v2.051H9.809l-0.039,0.906v1.018l0.039,0.715h9.081
		v2.052h-8.767c0.483,1.908,1.389,3.384,2.716,4.429c1.327,1.045,3.102,1.567,5.325,1.567c2.04,0,4.06-0.35,6.06-1.05v2.385
		c-1.909,0.69-3.981,1.034-6.217,1.034c-3.099,0-5.593-0.713-7.482-2.139c-1.89-1.426-3.135-3.501-3.736-6.225H3.533v-2.052h2.981
		l-0.039-0.668v-0.7l0.039-1.272H3.533V9.643h3.216c0.51-2.767,1.719-4.924,3.628-6.473c1.909-1.547,4.413-2.321,7.511-2.321
		c2.628,0,5.021,0.514,7.178,1.543l-1.393,2.211C21.504,3.69,19.576,3.234,17.889,3.234z"/>
</g>
<g>
	<polyline fill="none" stroke="#4D4D4D" stroke-miterlimit="10" points="36.167,8.835 53.592,8.835 53.592,18.75 	"/>
	<polygon fill="#4D4D4D" points="53.717,24.621 48.434,15.47 59,15.47 	"/>
</g>
<g>
	<path fill="#4D4D4D" d="M24.095,127.182c-5.974,0-9.701,3.059-11.18,9.179h14.327v2.938h-14.72l-0.056,1.298v1.458l0.056,1.025
		h13.007v2.939H12.971c0.693,2.733,1.99,4.848,3.891,6.343c1.901,1.496,4.443,2.244,7.627,2.244c2.922,0,5.815-0.502,8.681-1.504
		v3.417c-2.735,0.988-5.703,1.481-8.905,1.481c-4.438,0-8.01-1.021-10.717-3.064c-2.706-2.042-4.49-5.014-5.351-8.917H3.533v-2.939
		h4.269l-0.056-0.956v-1.002l0.056-1.822H3.533v-2.938H8.14c0.73-3.963,2.463-7.053,5.197-9.271
		c2.734-2.216,6.321-3.325,10.759-3.325c3.765,0,7.192,0.737,10.282,2.209l-1.995,3.166
		C29.273,127.835,26.512,127.182,24.095,127.182z"/>
</g>
<g>
	<polyline fill="none" stroke="#4D4D4D" stroke-miterlimit="10" points="36.167,142.335 53.592,142.335 53.592,152.249 	"/>
	<polygon fill="#4D4D4D" points="53.717,158.121 48.434,148.97 59,148.97 	"/>
</g>
<g>
	<polyline fill="none" stroke="#4D4D4D" stroke-miterlimit="10" points="176.915,60.5 176.915,101.903 167,101.903 	"/>
	<polygon fill="#4D4D4D" points="161.129,102.028 170.279,96.745 170.279,107.311 	"/>
</g>
</svg>
