<?xml version="1.0" encoding="utf-8"?>
<!-- Generator: Adobe Illustrator 21.1.0, SVG Export Plug-In . SVG Version: 6.00 Build 0)  -->
<svg version="1.1" id="Ebene_1" xmlns="http://www.w3.org/2000/svg" xmlns:xlink="http://www.w3.org/1999/xlink" x="0px" y="0px"
	 viewBox="0 0 200 200" enable-background="new 0 0 200 200" xml:space="preserve">
<rect x="0.333" y="0.333" fill="#FFFFFF" width="200" height="200.667"/>
<g>
	<path fill="#4D4D4D" d="M4.088,86.376h0.64l-1.448,5.536H1.903l-1.447-5.536h0.64l1.271,4.992h0.448L4.088,86.376z"/>
	<path fill="#4D4D4D" d="M7.96,91.416l0.232-0.023l0.016,0.472c-0.608,0.085-1.128,0.128-1.56,0.128c-0.576,0-0.984-0.167-1.225-0.5
		s-0.359-0.853-0.359-1.556c0-1.403,0.557-2.104,1.672-2.104c0.538,0,0.941,0.15,1.208,0.452s0.399,0.774,0.399,1.42L8.312,90.16
		H5.672c0,0.442,0.08,0.771,0.24,0.984c0.16,0.213,0.438,0.319,0.836,0.319S7.549,91.448,7.96,91.416z M7.744,89.68
		c0-0.49-0.079-0.837-0.236-1.04c-0.157-0.202-0.413-0.304-0.768-0.304s-0.621,0.106-0.8,0.32c-0.179,0.213-0.271,0.555-0.276,1.023
		H7.744z"/>
	<path fill="#4D4D4D" d="M9.279,91.912v-4h0.592v0.544c0.464-0.32,0.952-0.53,1.464-0.632v0.607c-0.224,0.043-0.457,0.109-0.7,0.2
		c-0.242,0.091-0.428,0.171-0.556,0.24l-0.2,0.104v2.936H9.279z"/>
	<path fill="#4D4D4D" d="M12.647,91.912h-0.6v-4h0.592v0.28c0.4-0.24,0.789-0.36,1.168-0.36c0.496,0,0.843,0.136,1.04,0.408
		c0.176-0.106,0.404-0.201,0.684-0.284c0.28-0.083,0.527-0.124,0.74-0.124c0.533,0,0.893,0.143,1.076,0.428
		c0.184,0.286,0.276,0.799,0.276,1.54v2.112h-0.601v-2.096c0-0.555-0.053-0.935-0.16-1.141c-0.106-0.205-0.333-0.308-0.68-0.308
		c-0.176,0-0.357,0.025-0.544,0.076s-0.331,0.1-0.432,0.147l-0.152,0.072c0.069,0.176,0.104,0.565,0.104,1.168v2.08H14.56v-2.064
		c0-0.575-0.052-0.966-0.156-1.172c-0.104-0.205-0.332-0.308-0.684-0.308c-0.171,0-0.346,0.025-0.524,0.076s-0.315,0.1-0.412,0.147
		l-0.136,0.072V91.912z"/>
	<path fill="#4D4D4D" d="M20.275,87.832c0.621,0,1.062,0.163,1.319,0.488c0.259,0.325,0.389,0.854,0.389,1.584
		s-0.123,1.261-0.368,1.592s-0.693,0.496-1.344,0.496c-0.651,0-1.099-0.165-1.345-0.496c-0.245-0.331-0.367-0.861-0.367-1.592
		s0.13-1.259,0.392-1.584S19.653,87.832,20.275,87.832z M19.159,86.944v-0.721h0.576v0.721H19.159z M20.275,91.472
		c0.45,0,0.745-0.115,0.884-0.348c0.139-0.231,0.208-0.642,0.208-1.228c0-0.587-0.077-0.991-0.232-1.212
		c-0.154-0.222-0.441-0.332-0.859-0.332c-0.419,0-0.707,0.11-0.864,0.332c-0.157,0.221-0.236,0.624-0.236,1.208
		s0.071,0.993,0.212,1.228C19.528,91.354,19.824,91.472,20.275,91.472z M20.759,86.944v-0.721h0.584v0.721H20.759z"/>
	<path fill="#4D4D4D" d="M24.504,93.792c-0.64,0-1.087-0.087-1.34-0.26c-0.254-0.174-0.38-0.489-0.38-0.948
		c0-0.219,0.048-0.396,0.144-0.532c0.096-0.136,0.259-0.289,0.488-0.46c-0.149-0.101-0.225-0.285-0.225-0.552
		c0-0.091,0.067-0.259,0.2-0.504l0.072-0.128c-0.422-0.192-0.632-0.595-0.632-1.208c0-0.912,0.498-1.368,1.496-1.368
		c0.256,0,0.493,0.026,0.712,0.08l0.12,0.024l1.184-0.032v0.512l-0.76-0.016c0.176,0.176,0.264,0.442,0.264,0.8
		c0,0.501-0.124,0.852-0.372,1.052s-0.639,0.3-1.172,0.3c-0.144,0-0.274-0.011-0.392-0.031c-0.097,0.234-0.145,0.387-0.145,0.456
		c0,0.165,0.051,0.268,0.152,0.308s0.408,0.06,0.92,0.06s0.88,0.08,1.104,0.24c0.225,0.16,0.337,0.472,0.337,0.937
		C26.28,93.368,25.687,93.792,24.504,93.792z M23.376,92.536c0,0.282,0.078,0.479,0.235,0.588s0.448,0.164,0.872,0.164
		c0.425,0,0.729-0.059,0.912-0.176c0.185-0.117,0.276-0.313,0.276-0.588c0-0.275-0.066-0.452-0.2-0.532
		c-0.133-0.08-0.395-0.12-0.784-0.12l-0.863-0.04c-0.177,0.128-0.295,0.24-0.356,0.336S23.376,92.387,23.376,92.536z M23.432,89.2
		c0,0.314,0.07,0.539,0.212,0.672c0.142,0.134,0.375,0.2,0.7,0.2s0.558-0.066,0.696-0.2c0.139-0.133,0.208-0.358,0.208-0.676
		s-0.069-0.543-0.208-0.676c-0.139-0.134-0.371-0.2-0.696-0.2s-0.559,0.067-0.7,0.204C23.502,88.66,23.432,88.886,23.432,89.2z"/>
	<path fill="#4D4D4D" d="M29.791,91.416l0.232-0.023l0.016,0.472c-0.608,0.085-1.128,0.128-1.56,0.128
		c-0.576,0-0.984-0.167-1.225-0.5s-0.359-0.853-0.359-1.556c0-1.403,0.557-2.104,1.672-2.104c0.538,0,0.941,0.15,1.208,0.452
		s0.399,0.774,0.399,1.42l-0.031,0.456h-2.641c0,0.442,0.08,0.771,0.24,0.984c0.16,0.213,0.438,0.319,0.836,0.319
		S29.38,91.448,29.791,91.416z M29.575,89.68c0-0.49-0.079-0.837-0.236-1.04c-0.157-0.202-0.413-0.304-0.768-0.304
		s-0.621,0.106-0.8,0.32c-0.179,0.213-0.271,0.555-0.276,1.023H29.575z"/>
	<path fill="#4D4D4D" d="M31.711,91.912h-0.6v-4h0.592v0.28c0.432-0.24,0.846-0.36,1.24-0.36c0.533,0,0.892,0.145,1.076,0.432
		c0.184,0.288,0.275,0.801,0.275,1.536v2.112h-0.592v-2.096c0-0.555-0.055-0.935-0.164-1.141c-0.109-0.205-0.343-0.308-0.7-0.308
		c-0.171,0-0.351,0.025-0.54,0.076s-0.334,0.1-0.436,0.147l-0.152,0.072V91.912z"/>
	<path fill="#4D4D4D" d="M36.663,88.368c-0.581,0-0.872,0.203-0.872,0.608c0,0.187,0.066,0.318,0.2,0.396
		c0.133,0.077,0.438,0.157,0.912,0.24s0.811,0.198,1.008,0.348s0.296,0.43,0.296,0.84c0,0.411-0.132,0.712-0.396,0.904
		c-0.265,0.192-0.649,0.288-1.156,0.288c-0.331,0-0.721-0.037-1.168-0.112l-0.24-0.04l0.032-0.52
		c0.607,0.091,1.066,0.136,1.376,0.136c0.309,0,0.545-0.049,0.708-0.147c0.162-0.099,0.244-0.265,0.244-0.496
		c0-0.232-0.069-0.39-0.208-0.473c-0.139-0.082-0.443-0.161-0.912-0.235c-0.47-0.075-0.803-0.185-1-0.328
		c-0.197-0.145-0.296-0.411-0.296-0.8c0-0.39,0.137-0.678,0.412-0.864c0.274-0.187,0.617-0.28,1.027-0.28
		c0.325,0,0.733,0.037,1.225,0.112l0.224,0.04l-0.016,0.512C37.471,88.411,37.004,88.368,36.663,88.368z"/>
	<path fill="#4D4D4D" d="M39.127,91.912v-4h0.592v0.544c0.464-0.32,0.952-0.53,1.464-0.632v0.607c-0.224,0.043-0.457,0.109-0.7,0.2
		c-0.242,0.091-0.428,0.171-0.556,0.24l-0.2,0.104v2.936H39.127z"/>
	<path fill="#4D4D4D" d="M44.535,91.416l0.232-0.023l0.016,0.472c-0.608,0.085-1.128,0.128-1.56,0.128
		c-0.576,0-0.984-0.167-1.225-0.5s-0.359-0.853-0.359-1.556c0-1.403,0.557-2.104,1.672-2.104c0.538,0,0.941,0.15,1.208,0.452
		s0.399,0.774,0.399,1.42l-0.031,0.456h-2.641c0,0.442,0.08,0.771,0.24,0.984c0.16,0.213,0.438,0.319,0.836,0.319
		S44.124,91.448,44.535,91.416z M44.319,89.68c0-0.49-0.079-0.837-0.236-1.04c-0.157-0.202-0.413-0.304-0.768-0.304
		s-0.621,0.106-0.8,0.32c-0.179,0.213-0.271,0.555-0.276,1.023H44.319z"/>
	<path fill="#4D4D4D" d="M47.352,87.832c0.176,0,0.475,0.032,0.896,0.096l0.192,0.024l-0.024,0.488
		c-0.427-0.048-0.741-0.072-0.943-0.072c-0.454,0-0.762,0.108-0.925,0.324c-0.162,0.216-0.243,0.616-0.243,1.2
		s0.075,0.99,0.228,1.22s0.468,0.344,0.948,0.344l0.943-0.072l0.024,0.496c-0.496,0.075-0.867,0.112-1.112,0.112
		c-0.624,0-1.055-0.16-1.292-0.48c-0.237-0.319-0.355-0.859-0.355-1.619c0-0.761,0.128-1.294,0.384-1.601
		S46.754,87.832,47.352,87.832z"/>
	<path fill="#4D4D4D" d="M49.942,91.912h-0.6v-5.744h0.6v1.968c0.427-0.202,0.838-0.304,1.232-0.304
		c0.533,0,0.892,0.145,1.076,0.432c0.184,0.288,0.275,0.801,0.275,1.536v2.112h-0.6v-2.096c0-0.555-0.055-0.935-0.164-1.141
		c-0.109-0.205-0.34-0.308-0.692-0.308c-0.336,0-0.661,0.062-0.976,0.184l-0.152,0.057V91.912z"/>
	<path fill="#4D4D4D" d="M55.687,88.432h-1.272v1.912c0,0.459,0.033,0.761,0.1,0.904c0.067,0.145,0.226,0.216,0.477,0.216
		l0.712-0.048l0.04,0.496C55.386,91.971,55.113,92,54.927,92c-0.416,0-0.704-0.102-0.863-0.304c-0.16-0.203-0.24-0.59-0.24-1.16
		v-2.104h-0.568v-0.52h0.568v-1.224h0.592v1.224h1.272V88.432z"/>
	<path fill="#4D4D4D" d="M59.143,91.416l0.232-0.023l0.016,0.472c-0.608,0.085-1.128,0.128-1.56,0.128
		c-0.576,0-0.984-0.167-1.225-0.5s-0.359-0.853-0.359-1.556c0-1.403,0.557-2.104,1.672-2.104c0.538,0,0.941,0.15,1.208,0.452
		s0.399,0.774,0.399,1.42l-0.031,0.456h-2.641c0,0.442,0.08,0.771,0.24,0.984c0.16,0.213,0.438,0.319,0.836,0.319
		S58.731,91.448,59.143,91.416z M58.927,89.68c0-0.49-0.079-0.837-0.236-1.04c-0.157-0.202-0.413-0.304-0.768-0.304
		s-0.621,0.106-0.8,0.32c-0.179,0.213-0.271,0.555-0.276,1.023H58.927z"/>
</g>
<g>
	<path fill="#4D4D4D" d="M4.31,126.641H2.333v-5.536H4.31c0.901,0,1.498,0.357,1.792,1.072c0.17,0.41,0.256,0.949,0.256,1.616
		c0,1.392-0.347,2.269-1.04,2.632C5.04,126.568,4.704,126.641,4.31,126.641z M5.726,123.793c0-1.062-0.237-1.723-0.712-1.984
		c-0.192-0.106-0.427-0.16-0.704-0.16h-1.36v4.448h1.36C5.253,126.097,5.726,125.329,5.726,123.793z"/>
	<path fill="#4D4D4D" d="M7.39,121.736v-0.695h0.6v0.695H7.39z M7.39,126.641v-4h0.6v4H7.39z"/>
	<path fill="#4D4D4D" d="M8.766,122.641h0.64l0.937,3.48h0.296l0.968-3.48h0.616l-1.128,4h-1.2L8.766,122.641z"/>
	<path fill="#4D4D4D" d="M12.989,121.736v-0.695h0.6v0.695H12.989z M12.989,126.641v-4h0.6v4H12.989z"/>
	<path fill="#4D4D4D" d="M17.813,120.896v5.744h-0.593v-0.272c-0.41,0.235-0.815,0.353-1.216,0.353c-0.213,0-0.399-0.026-0.56-0.08
		s-0.31-0.149-0.448-0.288c-0.288-0.288-0.432-0.82-0.432-1.596c0-0.776,0.129-1.336,0.388-1.681
		c0.259-0.344,0.687-0.516,1.284-0.516c0.309,0,0.637,0.035,0.983,0.104v-1.769H17.813z M15.733,126.129
		c0.096,0.037,0.22,0.056,0.372,0.056c0.151,0,0.322-0.025,0.512-0.076s0.337-0.1,0.444-0.147l0.159-0.072v-2.712
		c-0.341-0.064-0.658-0.096-0.952-0.096c-0.405,0-0.688,0.129-0.848,0.388s-0.24,0.66-0.24,1.204c0,0.618,0.094,1.034,0.28,1.248
		C15.546,126.022,15.637,126.092,15.733,126.129z"/>
	<path fill="#4D4D4D" d="M21.692,126.145l0.232-0.023l0.016,0.472c-0.608,0.085-1.128,0.128-1.56,0.128
		c-0.576,0-0.984-0.167-1.225-0.5s-0.359-0.853-0.359-1.556c0-1.403,0.557-2.104,1.672-2.104c0.538,0,0.941,0.15,1.208,0.452
		s0.399,0.774,0.399,1.42l-0.031,0.456h-2.641c0,0.442,0.08,0.771,0.24,0.984c0.16,0.213,0.438,0.319,0.836,0.319
		S21.281,126.177,21.692,126.145z M21.477,124.408c0-0.49-0.079-0.837-0.236-1.04c-0.157-0.202-0.413-0.304-0.768-0.304
		s-0.621,0.106-0.8,0.32c-0.179,0.213-0.271,0.555-0.276,1.023H21.477z"/>
	<path fill="#4D4D4D" d="M23.612,126.641h-0.6v-4h0.592v0.28c0.432-0.24,0.846-0.36,1.24-0.36c0.533,0,0.892,0.145,1.076,0.432
		c0.184,0.288,0.275,0.801,0.275,1.536v2.112h-0.592v-2.096c0-0.555-0.055-0.935-0.164-1.141c-0.109-0.205-0.343-0.308-0.7-0.308
		c-0.171,0-0.351,0.025-0.54,0.076s-0.334,0.1-0.436,0.147l-0.152,0.072V126.641z"/>
	<path fill="#4D4D4D" d="M30.381,120.896v5.744h-0.593v-0.272c-0.41,0.235-0.815,0.353-1.216,0.353c-0.213,0-0.399-0.026-0.56-0.08
		s-0.31-0.149-0.448-0.288c-0.288-0.288-0.432-0.82-0.432-1.596c0-0.776,0.129-1.336,0.388-1.681
		c0.259-0.344,0.687-0.516,1.284-0.516c0.309,0,0.637,0.035,0.983,0.104v-1.769H30.381z M28.301,126.129
		c0.096,0.037,0.22,0.056,0.372,0.056c0.151,0,0.322-0.025,0.512-0.076s0.337-0.1,0.444-0.147l0.159-0.072v-2.712
		c-0.341-0.064-0.658-0.096-0.952-0.096c-0.405,0-0.688,0.129-0.848,0.388s-0.24,0.66-0.24,1.204c0,0.618,0.094,1.034,0.28,1.248
		C28.113,126.022,28.204,126.092,28.301,126.129z"/>
	<path fill="#4D4D4D" d="M34.261,126.145l0.232-0.023l0.016,0.472c-0.608,0.085-1.128,0.128-1.56,0.128
		c-0.576,0-0.984-0.167-1.225-0.5s-0.359-0.853-0.359-1.556c0-1.403,0.557-2.104,1.672-2.104c0.538,0,0.941,0.15,1.208,0.452
		s0.399,0.774,0.399,1.42l-0.031,0.456h-2.641c0,0.442,0.08,0.771,0.24,0.984c0.16,0.213,0.438,0.319,0.836,0.319
		S33.85,126.177,34.261,126.145z M34.045,124.408c0-0.49-0.079-0.837-0.236-1.04c-0.157-0.202-0.413-0.304-0.768-0.304
		s-0.621,0.106-0.8,0.32c-0.179,0.213-0.271,0.555-0.276,1.023H34.045z"/>
	<path fill="#4D4D4D" d="M2.333,130.704h2.009c0.549,0,0.961,0.113,1.235,0.34s0.412,0.583,0.412,1.068
		c0,0.347-0.06,0.617-0.18,0.812c-0.12,0.195-0.298,0.349-0.532,0.46c0.587,0.203,0.88,0.638,0.88,1.305
		c0,0.555-0.146,0.952-0.439,1.191c-0.294,0.24-0.718,0.36-1.272,0.36H2.333V130.704z M4.317,131.248H2.949v1.912h1.424
		c0.342,0,0.591-0.081,0.748-0.244c0.157-0.162,0.236-0.408,0.236-0.735c0-0.328-0.084-0.565-0.252-0.713
		C4.937,131.321,4.675,131.248,4.317,131.248z M4.381,133.696H2.949v2h1.472c0.363,0,0.639-0.076,0.828-0.229
		c0.189-0.151,0.284-0.42,0.284-0.804c0-0.202-0.039-0.373-0.116-0.512s-0.18-0.237-0.308-0.296
		C4.875,133.75,4.632,133.696,4.381,133.696z"/>
	<path fill="#4D4D4D" d="M9.877,135.744l0.232-0.023l0.016,0.472c-0.608,0.085-1.128,0.128-1.56,0.128
		c-0.576,0-0.984-0.167-1.225-0.5s-0.359-0.853-0.359-1.556c0-1.403,0.557-2.104,1.672-2.104c0.538,0,0.941,0.15,1.208,0.452
		s0.399,0.774,0.399,1.42l-0.031,0.456H7.589c0,0.442,0.08,0.771,0.24,0.984c0.16,0.213,0.438,0.319,0.836,0.319
		C9.062,135.792,9.466,135.776,9.877,135.744z M9.661,134.008c0-0.49-0.079-0.837-0.236-1.04c-0.157-0.202-0.413-0.304-0.768-0.304
		s-0.621,0.106-0.8,0.32c-0.179,0.213-0.271,0.555-0.276,1.023H9.661z"/>
	<path fill="#4D4D4D" d="M10.957,132.776v-0.536h2.968v0.536l-2.239,2.928h2.239v0.536h-2.968v-0.536l2.24-2.928H10.957z"/>
	<path fill="#4D4D4D" d="M17.333,132.24h0.6v4h-0.6v-0.28c-0.4,0.24-0.795,0.36-1.185,0.36c-0.544,0-0.905-0.142-1.084-0.424
		c-0.179-0.283-0.268-0.806-0.268-1.568v-2.088h0.6v2.08c0,0.581,0.051,0.971,0.152,1.168s0.33,0.296,0.688,0.296
		c0.177,0,0.355-0.025,0.536-0.076c0.182-0.051,0.32-0.1,0.416-0.147l0.145-0.072V132.24z"/>
	<path fill="#4D4D4D" d="M20.629,138.12c-0.64,0-1.087-0.087-1.34-0.26c-0.254-0.174-0.38-0.489-0.38-0.948
		c0-0.219,0.048-0.396,0.144-0.532c0.096-0.136,0.259-0.289,0.488-0.46c-0.149-0.101-0.225-0.285-0.225-0.552
		c0-0.091,0.067-0.259,0.2-0.504l0.072-0.128c-0.422-0.192-0.632-0.595-0.632-1.208c0-0.912,0.498-1.368,1.496-1.368
		c0.256,0,0.493,0.026,0.712,0.08l0.12,0.024l1.184-0.032v0.512l-0.76-0.016c0.176,0.176,0.264,0.442,0.264,0.8
		c0,0.501-0.124,0.852-0.372,1.052s-0.639,0.3-1.172,0.3c-0.144,0-0.274-0.011-0.392-0.031c-0.097,0.234-0.145,0.387-0.145,0.456
		c0,0.165,0.051,0.268,0.152,0.308s0.408,0.06,0.92,0.06s0.88,0.08,1.104,0.24c0.225,0.16,0.337,0.472,0.337,0.937
		C22.405,137.696,21.812,138.12,20.629,138.12z M19.501,136.864c0,0.282,0.078,0.479,0.235,0.588s0.448,0.164,0.872,0.164
		c0.425,0,0.729-0.059,0.912-0.176c0.185-0.117,0.276-0.313,0.276-0.588c0-0.275-0.066-0.452-0.2-0.532
		c-0.133-0.08-0.395-0.12-0.784-0.12l-0.863-0.04c-0.177,0.128-0.295,0.24-0.356,0.336S19.501,136.715,19.501,136.864z
		 M19.557,133.528c0,0.314,0.07,0.539,0.212,0.672c0.142,0.134,0.375,0.2,0.7,0.2s0.558-0.066,0.696-0.2
		c0.139-0.133,0.208-0.358,0.208-0.676s-0.069-0.543-0.208-0.676c-0.139-0.134-0.371-0.2-0.696-0.2s-0.559,0.067-0.7,0.204
		C19.627,132.988,19.557,133.214,19.557,133.528z"/>
	<path fill="#4D4D4D" d="M24.453,132.696c-0.581,0-0.872,0.203-0.872,0.608c0,0.187,0.066,0.318,0.2,0.396
		c0.133,0.077,0.438,0.157,0.912,0.24s0.811,0.198,1.008,0.348s0.296,0.43,0.296,0.84c0,0.411-0.132,0.712-0.396,0.904
		c-0.265,0.192-0.649,0.288-1.156,0.288c-0.331,0-0.721-0.037-1.168-0.112l-0.24-0.04l0.032-0.52
		c0.607,0.091,1.066,0.136,1.376,0.136c0.309,0,0.545-0.049,0.708-0.147c0.162-0.099,0.244-0.265,0.244-0.496
		c0-0.232-0.069-0.39-0.208-0.473c-0.139-0.082-0.443-0.161-0.912-0.235c-0.47-0.075-0.803-0.185-1-0.328
		c-0.197-0.145-0.296-0.411-0.296-0.8c0-0.39,0.137-0.678,0.412-0.864c0.274-0.187,0.617-0.28,1.027-0.28
		c0.325,0,0.733,0.037,1.225,0.112l0.224,0.04l-0.016,0.512C25.261,132.739,24.794,132.696,24.453,132.696z"/>
	<path fill="#4D4D4D" d="M26.917,136.24v-4h0.592v0.544c0.464-0.32,0.952-0.53,1.464-0.632v0.607c-0.224,0.043-0.457,0.109-0.7,0.2
		c-0.242,0.091-0.428,0.171-0.556,0.24l-0.2,0.104v2.936H26.917z"/>
	<path fill="#4D4D4D" d="M32.325,135.744l0.232-0.023l0.016,0.472c-0.608,0.085-1.128,0.128-1.56,0.128
		c-0.576,0-0.984-0.167-1.225-0.5s-0.359-0.853-0.359-1.556c0-1.403,0.557-2.104,1.672-2.104c0.538,0,0.941,0.15,1.208,0.452
		s0.399,0.774,0.399,1.42l-0.031,0.456h-2.641c0,0.442,0.08,0.771,0.24,0.984c0.16,0.213,0.438,0.319,0.836,0.319
		S31.914,135.776,32.325,135.744z M32.109,134.008c0-0.49-0.079-0.837-0.236-1.04c-0.157-0.202-0.413-0.304-0.768-0.304
		s-0.621,0.106-0.8,0.32c-0.179,0.213-0.271,0.555-0.276,1.023H32.109z"/>
	<path fill="#4D4D4D" d="M35.141,132.16c0.176,0,0.475,0.032,0.896,0.096l0.192,0.024l-0.024,0.488
		c-0.427-0.048-0.741-0.072-0.943-0.072c-0.454,0-0.762,0.108-0.925,0.324c-0.162,0.216-0.243,0.616-0.243,1.2
		s0.075,0.99,0.228,1.22s0.468,0.344,0.948,0.344l0.943-0.072l0.024,0.496c-0.496,0.075-0.867,0.112-1.112,0.112
		c-0.624,0-1.055-0.16-1.292-0.48c-0.237-0.319-0.355-0.859-0.355-1.619c0-0.761,0.128-1.294,0.384-1.601
		S34.543,132.16,35.141,132.16z"/>
	<path fill="#4D4D4D" d="M37.732,136.24h-0.6v-5.744h0.6v1.968c0.427-0.202,0.838-0.304,1.232-0.304
		c0.533,0,0.892,0.145,1.076,0.432c0.184,0.288,0.275,0.801,0.275,1.536v2.112h-0.6v-2.096c0-0.555-0.055-0.935-0.164-1.141
		c-0.109-0.205-0.34-0.308-0.692-0.308c-0.336,0-0.661,0.062-0.976,0.184l-0.152,0.057V136.24z"/>
	<path fill="#4D4D4D" d="M43.478,132.76h-1.272v1.912c0,0.459,0.033,0.761,0.1,0.904c0.067,0.145,0.226,0.216,0.477,0.216
		l0.712-0.048l0.04,0.496c-0.357,0.059-0.63,0.088-0.816,0.088c-0.416,0-0.704-0.102-0.863-0.304c-0.16-0.203-0.24-0.59-0.24-1.16
		v-2.104h-0.568v-0.52h0.568v-1.224h0.592v1.224h1.272V132.76z"/>
</g>
<g>
	<path fill="#4D4D4D" d="M122.527,86.376h0.64l-1.448,5.536h-1.376l-1.447-5.536h0.64l1.271,4.992h0.448L122.527,86.376z"/>
	<path fill="#4D4D4D" d="M126.399,91.416l0.232-0.023l0.016,0.472c-0.608,0.085-1.128,0.128-1.56,0.128
		c-0.576,0-0.984-0.167-1.225-0.5s-0.359-0.853-0.359-1.556c0-1.403,0.557-2.104,1.672-2.104c0.538,0,0.941,0.15,1.208,0.452
		s0.399,0.774,0.399,1.42l-0.031,0.456h-2.641c0,0.442,0.08,0.771,0.24,0.984c0.16,0.213,0.438,0.319,0.836,0.319
		C125.585,91.464,125.988,91.448,126.399,91.416z M126.184,89.68c0-0.49-0.079-0.837-0.236-1.04
		c-0.157-0.202-0.413-0.304-0.768-0.304s-0.621,0.106-0.8,0.32c-0.179,0.213-0.271,0.555-0.276,1.023H126.184z"/>
	<path fill="#4D4D4D" d="M127.719,91.912v-4h0.592v0.544c0.464-0.32,0.952-0.53,1.464-0.632v0.607c-0.224,0.043-0.457,0.109-0.7,0.2
		c-0.242,0.091-0.428,0.171-0.556,0.24l-0.2,0.104v2.936H127.719z"/>
	<path fill="#4D4D4D" d="M130.159,87.912h0.6l0.809,3.48h0.128l0.952-3.4h0.624l0.951,3.4h0.137l0.8-3.48h0.6l-0.951,4h-1
		l-0.849-3.128l-0.848,3.128h-1L130.159,87.912z"/>
	<path fill="#4D4D4D" d="M139.367,89.12v2.048c0.016,0.197,0.17,0.314,0.464,0.353l-0.024,0.472c-0.421,0-0.738-0.106-0.952-0.32
		c-0.479,0.214-0.96,0.32-1.439,0.32c-0.368,0-0.648-0.104-0.84-0.312c-0.192-0.208-0.288-0.506-0.288-0.896s0.099-0.676,0.296-0.86
		c0.197-0.184,0.507-0.297,0.928-0.34l1.256-0.12V89.12c0-0.272-0.059-0.467-0.176-0.584s-0.277-0.176-0.48-0.176
		c-0.427,0-0.869,0.026-1.327,0.08l-0.248,0.023l-0.024-0.456c0.587-0.117,1.106-0.176,1.56-0.176c0.454,0,0.783,0.104,0.988,0.312
		S139.367,88.678,139.367,89.12z M136.902,90.752c0,0.491,0.203,0.736,0.608,0.736c0.362,0,0.72-0.062,1.072-0.185l0.184-0.063
		v-1.32l-1.184,0.112c-0.24,0.021-0.414,0.091-0.521,0.208C136.956,90.357,136.902,90.528,136.902,90.752z"/>
	<path fill="#4D4D4D" d="M140.599,91.912v-5.744h0.6v5.744H140.599z"/>
	<path fill="#4D4D4D" d="M144.471,88.432h-1.272v1.912c0,0.459,0.033,0.761,0.1,0.904c0.067,0.145,0.226,0.216,0.477,0.216
		l0.712-0.048l0.04,0.496c-0.357,0.059-0.63,0.088-0.816,0.088c-0.416,0-0.704-0.102-0.863-0.304c-0.16-0.203-0.24-0.59-0.24-1.16
		v-2.104h-0.568v-0.52h0.568v-1.224h0.592v1.224h1.272V88.432z"/>
	<path fill="#4D4D4D" d="M147.703,87.912h0.6v4h-0.6v-0.28c-0.4,0.24-0.795,0.36-1.185,0.36c-0.544,0-0.905-0.142-1.084-0.424
		c-0.179-0.283-0.268-0.806-0.268-1.568v-2.088h0.6v2.08c0,0.581,0.051,0.971,0.152,1.168s0.33,0.296,0.688,0.296
		c0.177,0,0.355-0.025,0.536-0.076c0.182-0.051,0.32-0.1,0.416-0.147l0.145-0.072V87.912z"/>
	<path fill="#4D4D4D" d="M150.055,91.912h-0.6v-4h0.592v0.28c0.432-0.24,0.846-0.36,1.24-0.36c0.533,0,0.892,0.145,1.076,0.432
		c0.184,0.288,0.275,0.801,0.275,1.536v2.112h-0.592v-2.096c0-0.555-0.055-0.935-0.164-1.141c-0.109-0.205-0.343-0.308-0.7-0.308
		c-0.171,0-0.351,0.025-0.54,0.076s-0.334,0.1-0.436,0.147l-0.152,0.072V91.912z"/>
	<path fill="#4D4D4D" d="M155.295,93.792c-0.64,0-1.087-0.087-1.34-0.26c-0.254-0.174-0.38-0.489-0.38-0.948
		c0-0.219,0.048-0.396,0.144-0.532c0.096-0.136,0.259-0.289,0.488-0.46c-0.149-0.101-0.225-0.285-0.225-0.552
		c0-0.091,0.067-0.259,0.2-0.504l0.072-0.128c-0.422-0.192-0.632-0.595-0.632-1.208c0-0.912,0.498-1.368,1.496-1.368
		c0.256,0,0.493,0.026,0.712,0.08l0.12,0.024l1.184-0.032v0.512l-0.76-0.016c0.176,0.176,0.264,0.442,0.264,0.8
		c0,0.501-0.124,0.852-0.372,1.052s-0.639,0.3-1.172,0.3c-0.144,0-0.274-0.011-0.392-0.031c-0.097,0.234-0.145,0.387-0.145,0.456
		c0,0.165,0.051,0.268,0.152,0.308c0.102,0.04,0.408,0.06,0.92,0.06s0.88,0.08,1.104,0.24c0.225,0.16,0.337,0.472,0.337,0.937
		C157.071,93.368,156.479,93.792,155.295,93.792z M154.167,92.536c0,0.282,0.078,0.479,0.235,0.588s0.448,0.164,0.872,0.164
		c0.425,0,0.729-0.059,0.912-0.176c0.185-0.117,0.276-0.313,0.276-0.588c0-0.275-0.066-0.452-0.2-0.532
		c-0.133-0.08-0.395-0.12-0.784-0.12l-0.863-0.04c-0.177,0.128-0.295,0.24-0.356,0.336S154.167,92.387,154.167,92.536z
		 M154.223,89.2c0,0.314,0.07,0.539,0.212,0.672c0.142,0.134,0.375,0.2,0.7,0.2s0.558-0.066,0.696-0.2
		c0.139-0.133,0.208-0.358,0.208-0.676s-0.069-0.543-0.208-0.676c-0.139-0.134-0.371-0.2-0.696-0.2s-0.559,0.067-0.7,0.204
		C154.293,88.66,154.223,88.886,154.223,89.2z"/>
	<path fill="#4D4D4D" d="M159.118,88.368c-0.581,0-0.872,0.203-0.872,0.608c0,0.187,0.066,0.318,0.2,0.396
		c0.133,0.077,0.438,0.157,0.912,0.24s0.811,0.198,1.008,0.348s0.296,0.43,0.296,0.84c0,0.411-0.132,0.712-0.396,0.904
		c-0.265,0.192-0.649,0.288-1.156,0.288c-0.331,0-0.721-0.037-1.168-0.112l-0.24-0.04l0.032-0.52
		c0.607,0.091,1.066,0.136,1.376,0.136c0.309,0,0.545-0.049,0.708-0.147c0.162-0.099,0.244-0.265,0.244-0.496
		c0-0.232-0.069-0.39-0.208-0.473c-0.139-0.082-0.443-0.161-0.912-0.235c-0.47-0.075-0.803-0.185-1-0.328
		c-0.197-0.145-0.296-0.411-0.296-0.8c0-0.39,0.137-0.678,0.412-0.864c0.274-0.187,0.617-0.28,1.027-0.28
		c0.325,0,0.733,0.037,1.225,0.112l0.224,0.04l-0.016,0.512C159.926,88.411,159.459,88.368,159.118,88.368z"/>
	<path fill="#4D4D4D" d="M161.583,91.912v-4h0.592v0.544c0.464-0.32,0.952-0.53,1.464-0.632v0.607c-0.224,0.043-0.457,0.109-0.7,0.2
		c-0.242,0.091-0.428,0.171-0.556,0.24l-0.2,0.104v2.936H161.583z"/>
	<path fill="#4D4D4D" d="M166.99,91.416l0.232-0.023l0.016,0.472c-0.608,0.085-1.128,0.128-1.56,0.128
		c-0.576,0-0.984-0.167-1.225-0.5s-0.359-0.853-0.359-1.556c0-1.403,0.557-2.104,1.672-2.104c0.538,0,0.941,0.15,1.208,0.452
		s0.399,0.774,0.399,1.42l-0.031,0.456h-2.641c0,0.442,0.08,0.771,0.24,0.984c0.16,0.213,0.438,0.319,0.836,0.319
		S166.579,91.448,166.99,91.416z M166.774,89.68c0-0.49-0.079-0.837-0.236-1.04c-0.157-0.202-0.413-0.304-0.768-0.304
		s-0.621,0.106-0.8,0.32c-0.179,0.213-0.271,0.555-0.276,1.023H166.774z"/>
	<path fill="#4D4D4D" d="M169.807,87.832c0.176,0,0.475,0.032,0.896,0.096l0.192,0.024l-0.024,0.488
		c-0.427-0.048-0.741-0.072-0.943-0.072c-0.454,0-0.762,0.108-0.925,0.324c-0.162,0.216-0.243,0.616-0.243,1.2
		s0.075,0.99,0.228,1.22s0.468,0.344,0.948,0.344l0.943-0.072l0.024,0.496c-0.496,0.075-0.867,0.112-1.112,0.112
		c-0.624,0-1.055-0.16-1.292-0.48c-0.237-0.319-0.355-0.859-0.355-1.619c0-0.761,0.128-1.294,0.384-1.601
		S169.209,87.832,169.807,87.832z"/>
	<path fill="#4D4D4D" d="M172.398,91.912h-0.6v-5.744h0.6v1.968c0.427-0.202,0.838-0.304,1.232-0.304
		c0.533,0,0.892,0.145,1.076,0.432c0.184,0.288,0.275,0.801,0.275,1.536v2.112h-0.6v-2.096c0-0.555-0.055-0.935-0.164-1.141
		c-0.109-0.205-0.34-0.308-0.692-0.308c-0.336,0-0.661,0.062-0.976,0.184l-0.152,0.057V91.912z"/>
	<path fill="#4D4D4D" d="M178.143,88.432h-1.272v1.912c0,0.459,0.033,0.761,0.1,0.904c0.067,0.145,0.226,0.216,0.477,0.216
		l0.712-0.048l0.04,0.496c-0.357,0.059-0.63,0.088-0.816,0.088c-0.416,0-0.704-0.102-0.863-0.304c-0.16-0.203-0.24-0.59-0.24-1.16
		v-2.104h-0.568v-0.52h0.568v-1.224h0.592v1.224h1.272V88.432z"/>
	<path fill="#4D4D4D" d="M181.599,91.416l0.232-0.023l0.016,0.472c-0.608,0.085-1.128,0.128-1.56,0.128
		c-0.576,0-0.984-0.167-1.225-0.5c-0.24-0.333-0.359-0.853-0.359-1.556c0-1.403,0.557-2.104,1.672-2.104
		c0.538,0,0.941,0.15,1.208,0.452s0.399,0.774,0.399,1.42l-0.031,0.456h-2.641c0,0.442,0.08,0.771,0.24,0.984
		c0.16,0.213,0.438,0.319,0.836,0.319S181.187,91.448,181.599,91.416z M181.383,89.68c0-0.49-0.079-0.837-0.236-1.04
		c-0.157-0.202-0.413-0.304-0.768-0.304s-0.621,0.106-0.8,0.32c-0.179,0.213-0.271,0.555-0.276,1.023H181.383z"/>
</g>
<g>
	<path fill="#4D4D4D" d="M44.607,6.582l1.52-5.536h1.344l1.521,5.536h-0.608l-0.399-1.424h-2.368l-0.4,1.424H44.607z M46.591,1.574
		l-0.84,3.032h2.096l-0.84-3.032H46.591z"/>
	<path fill="#4D4D4D" d="M50.358,6.582h-0.6V0.838h0.6V4.23l0.624-0.032l1.145-1.616h0.68l-1.304,1.84l1.359,2.16h-0.68L50.99,4.726
		L50.358,4.75V6.582z"/>
	<path fill="#4D4D4D" d="M55.663,3.102h-1.272v1.912c0,0.458,0.033,0.76,0.1,0.904c0.067,0.145,0.226,0.216,0.477,0.216l0.712-0.048
		l0.04,0.496c-0.357,0.059-0.63,0.088-0.816,0.088c-0.416,0-0.704-0.102-0.863-0.304c-0.16-0.202-0.24-0.589-0.24-1.16V3.102H53.23
		v-0.52h0.568V1.358h0.592v1.224h1.272V3.102z"/>
	<path fill="#4D4D4D" d="M56.399,1.678V0.982h0.6v0.696H56.399z M56.399,6.582v-4h0.6v4H56.399z"/>
	<path fill="#4D4D4D" d="M57.976,4.574c0-0.731,0.13-1.259,0.392-1.584c0.262-0.326,0.702-0.488,1.324-0.488
		c0.621,0,1.062,0.163,1.319,0.488c0.259,0.325,0.389,0.853,0.389,1.584c0,0.73-0.123,1.261-0.368,1.592
		c-0.245,0.33-0.693,0.496-1.344,0.496c-0.651,0-1.099-0.166-1.345-0.496C58.098,5.835,57.976,5.305,57.976,4.574z M58.591,4.562
		c0,0.584,0.071,0.993,0.212,1.228c0.142,0.235,0.438,0.353,0.889,0.353c0.45,0,0.745-0.117,0.884-0.349
		c0.139-0.232,0.208-0.641,0.208-1.228c0-0.586-0.077-0.991-0.232-1.212c-0.154-0.221-0.441-0.332-0.859-0.332
		c-0.419,0-0.707,0.111-0.864,0.332S58.591,3.978,58.591,4.562z"/>
	<path fill="#4D4D4D" d="M62.975,6.582h-0.6v-4h0.592v0.28c0.432-0.24,0.846-0.36,1.24-0.36c0.533,0,0.892,0.144,1.076,0.432
		c0.184,0.288,0.275,0.8,0.275,1.536v2.112h-0.592V4.486c0-0.554-0.055-0.935-0.164-1.14c-0.109-0.206-0.343-0.308-0.7-0.308
		c-0.171,0-0.351,0.025-0.54,0.076c-0.189,0.05-0.334,0.1-0.436,0.148l-0.152,0.072V6.582z"/>
	<path fill="#4D4D4D" d="M69.495,3.79v2.048c0.016,0.197,0.17,0.314,0.464,0.352l-0.024,0.473c-0.421,0-0.738-0.107-0.952-0.32
		c-0.479,0.213-0.96,0.32-1.439,0.32c-0.368,0-0.648-0.104-0.84-0.312c-0.192-0.207-0.288-0.506-0.288-0.896s0.099-0.676,0.296-0.86
		c0.197-0.184,0.507-0.297,0.928-0.34l1.256-0.12V3.79c0-0.272-0.059-0.467-0.176-0.584s-0.277-0.176-0.48-0.176
		c-0.427,0-0.869,0.026-1.327,0.08l-0.248,0.024l-0.024-0.456c0.587-0.118,1.106-0.176,1.56-0.176c0.454,0,0.783,0.104,0.988,0.312
		S69.495,3.347,69.495,3.79z M66.935,1.614v-0.72h0.576v0.72H66.935z M67.03,5.422c0,0.49,0.203,0.736,0.608,0.736
		c0.362,0,0.72-0.062,1.072-0.184l0.184-0.064V4.59l-1.184,0.112c-0.24,0.021-0.414,0.091-0.521,0.208S67.03,5.198,67.03,5.422z
		 M68.535,1.614v-0.72h0.584v0.72H68.535z"/>
	<path fill="#4D4D4D" d="M70.679,6.582v-4h0.592v0.544c0.464-0.32,0.952-0.531,1.464-0.632v0.608c-0.224,0.043-0.457,0.109-0.7,0.2
		c-0.242,0.09-0.428,0.17-0.556,0.24l-0.2,0.104v2.936H70.679z"/>
</g>
<g>
	<path fill="#4D4D4D" d="M118.807,121.656v-0.552h4v0.552h-1.688v4.984h-0.608v-4.984H118.807z"/>
	<path fill="#4D4D4D" d="M125.479,126.145l0.232-0.023l0.016,0.472c-0.608,0.085-1.128,0.128-1.56,0.128
		c-0.576,0-0.984-0.167-1.225-0.5s-0.359-0.853-0.359-1.556c0-1.403,0.557-2.104,1.672-2.104c0.538,0,0.941,0.15,1.208,0.452
		s0.399,0.774,0.399,1.42l-0.031,0.456h-2.641c0,0.442,0.08,0.771,0.24,0.984c0.16,0.213,0.438,0.319,0.836,0.319
		S125.068,126.177,125.479,126.145z M125.264,124.408c0-0.49-0.079-0.837-0.236-1.04c-0.157-0.202-0.413-0.304-0.768-0.304
		s-0.621,0.106-0.8,0.32c-0.179,0.213-0.271,0.555-0.276,1.023H125.264z"/>
	<path fill="#4D4D4D" d="M126.799,121.736v-0.695h0.6v0.695H126.799z M126.799,126.641v-4h0.6v4H126.799z"/>
	<path fill="#4D4D4D" d="M128.599,126.641v-5.744h0.6v5.744H128.599z"/>
	<path fill="#4D4D4D" d="M130.999,126.641h-0.6v-4h0.592v0.28c0.432-0.24,0.846-0.36,1.24-0.36c0.533,0,0.892,0.145,1.076,0.432
		c0.184,0.288,0.275,0.801,0.275,1.536v2.112h-0.592v-2.096c0-0.555-0.055-0.935-0.164-1.141c-0.109-0.205-0.343-0.308-0.7-0.308
		c-0.171,0-0.351,0.025-0.54,0.076s-0.334,0.1-0.436,0.147l-0.152,0.072V126.641z"/>
	<path fill="#4D4D4D" d="M137.52,123.849v2.048c0.016,0.197,0.17,0.314,0.464,0.353l-0.024,0.472c-0.421,0-0.738-0.106-0.952-0.32
		c-0.479,0.214-0.96,0.32-1.439,0.32c-0.368,0-0.648-0.104-0.84-0.312c-0.192-0.208-0.288-0.506-0.288-0.896s0.099-0.676,0.296-0.86
		c0.197-0.184,0.507-0.297,0.928-0.34l1.256-0.12v-0.344c0-0.272-0.059-0.467-0.176-0.584s-0.277-0.176-0.48-0.176
		c-0.427,0-0.869,0.026-1.327,0.08l-0.248,0.023l-0.024-0.456c0.587-0.117,1.106-0.176,1.56-0.176c0.454,0,0.783,0.104,0.988,0.312
		S137.52,123.406,137.52,123.849z M135.055,125.48c0,0.491,0.203,0.736,0.608,0.736c0.362,0,0.72-0.062,1.072-0.185l0.184-0.063
		v-1.32l-1.184,0.112c-0.24,0.021-0.414,0.091-0.521,0.208S135.055,125.257,135.055,125.48z"/>
	<path fill="#4D4D4D" d="M139.303,126.641h-0.6v-5.744h0.6v1.968c0.427-0.202,0.838-0.304,1.232-0.304
		c0.533,0,0.892,0.145,1.076,0.432c0.184,0.288,0.275,0.801,0.275,1.536v2.112h-0.6v-2.096c0-0.555-0.055-0.935-0.164-1.141
		c-0.109-0.205-0.34-0.308-0.692-0.308c-0.336,0-0.661,0.062-0.976,0.184l-0.152,0.057V126.641z"/>
	<path fill="#4D4D4D" d="M143.599,126.641h-0.6v-4h0.592v0.28c0.4-0.24,0.789-0.36,1.168-0.36c0.496,0,0.843,0.136,1.04,0.408
		c0.176-0.106,0.404-0.201,0.684-0.284c0.28-0.083,0.527-0.124,0.74-0.124c0.533,0,0.893,0.143,1.076,0.428
		c0.184,0.286,0.276,0.799,0.276,1.54v2.112h-0.601v-2.096c0-0.555-0.053-0.935-0.16-1.141c-0.106-0.205-0.333-0.308-0.68-0.308
		c-0.176,0-0.357,0.025-0.544,0.076s-0.331,0.1-0.432,0.147l-0.152,0.072c0.069,0.176,0.104,0.565,0.104,1.168v2.08h-0.601v-2.064
		c0-0.575-0.052-0.966-0.156-1.172c-0.104-0.205-0.332-0.308-0.684-0.308c-0.171,0-0.346,0.025-0.524,0.076s-0.315,0.1-0.412,0.147
		l-0.136,0.072V126.641z"/>
	<path fill="#4D4D4D" d="M152.406,126.145l0.232-0.023l0.016,0.472c-0.608,0.085-1.128,0.128-1.56,0.128
		c-0.576,0-0.984-0.167-1.225-0.5s-0.359-0.853-0.359-1.556c0-1.403,0.557-2.104,1.672-2.104c0.538,0,0.941,0.15,1.208,0.452
		s0.399,0.774,0.399,1.42l-0.031,0.456h-2.641c0,0.442,0.08,0.771,0.24,0.984c0.16,0.213,0.438,0.319,0.836,0.319
		S151.995,126.177,152.406,126.145z M152.19,124.408c0-0.49-0.079-0.837-0.236-1.04c-0.157-0.202-0.413-0.304-0.768-0.304
		s-0.621,0.106-0.8,0.32c-0.179,0.213-0.271,0.555-0.276,1.023H152.19z"/>
	<path fill="#4D4D4D" d="M158.311,123.849v2.048c0.016,0.197,0.17,0.314,0.464,0.353l-0.024,0.472c-0.421,0-0.738-0.106-0.952-0.32
		c-0.479,0.214-0.96,0.32-1.439,0.32c-0.368,0-0.648-0.104-0.84-0.312c-0.192-0.208-0.288-0.506-0.288-0.896s0.099-0.676,0.296-0.86
		c0.197-0.184,0.507-0.297,0.928-0.34l1.256-0.12v-0.344c0-0.272-0.059-0.467-0.176-0.584s-0.277-0.176-0.48-0.176
		c-0.427,0-0.869,0.026-1.327,0.08l-0.248,0.023l-0.024-0.456c0.587-0.117,1.106-0.176,1.56-0.176c0.454,0,0.783,0.104,0.988,0.312
		S158.311,123.406,158.311,123.849z M155.846,125.48c0,0.491,0.203,0.736,0.608,0.736c0.362,0,0.72-0.062,1.072-0.185l0.184-0.063
		v-1.32l-1.184,0.112c-0.24,0.021-0.414,0.091-0.521,0.208S155.846,125.257,155.846,125.48z"/>
	<path fill="#4D4D4D" d="M160.094,126.641h-0.6v-4h0.592v0.28c0.432-0.24,0.846-0.36,1.24-0.36c0.533,0,0.892,0.145,1.076,0.432
		c0.184,0.288,0.275,0.801,0.275,1.536v2.112h-0.592v-2.096c0-0.555-0.055-0.935-0.164-1.141c-0.109-0.205-0.343-0.308-0.7-0.308
		c-0.171,0-0.351,0.025-0.54,0.076s-0.334,0.1-0.436,0.147l-0.152,0.072V126.641z"/>
	<path fill="#4D4D4D" d="M122.815,136.24v-2.504h-2.816v2.504h-0.616v-5.536h0.616v2.48h2.816v-2.48h0.607v5.536H122.815z"/>
	<path fill="#4D4D4D" d="M127.504,133.448v2.048c0.016,0.197,0.17,0.314,0.464,0.353l-0.024,0.472c-0.421,0-0.738-0.106-0.952-0.32
		c-0.479,0.214-0.96,0.32-1.439,0.32c-0.368,0-0.648-0.104-0.84-0.312c-0.192-0.208-0.288-0.506-0.288-0.896s0.099-0.676,0.296-0.86
		c0.197-0.184,0.507-0.297,0.928-0.34l1.256-0.12v-0.344c0-0.272-0.059-0.467-0.176-0.584s-0.277-0.176-0.48-0.176
		c-0.427,0-0.869,0.026-1.327,0.08l-0.248,0.023l-0.024-0.456c0.587-0.117,1.106-0.176,1.56-0.176c0.454,0,0.783,0.104,0.988,0.312
		S127.504,133.006,127.504,133.448z M125.039,135.08c0,0.491,0.203,0.736,0.608,0.736c0.362,0,0.72-0.062,1.072-0.185l0.184-0.063
		v-1.32l-1.184,0.112c-0.24,0.021-0.414,0.091-0.521,0.208S125.039,134.856,125.039,135.08z"/>
	<path fill="#4D4D4D" d="M131.184,132.24h0.6v4h-0.6v-0.28c-0.4,0.24-0.795,0.36-1.185,0.36c-0.544,0-0.905-0.142-1.084-0.424
		c-0.179-0.283-0.268-0.806-0.268-1.568v-2.088h0.6v2.08c0,0.581,0.051,0.971,0.152,1.168s0.33,0.296,0.688,0.296
		c0.177,0,0.355-0.025,0.536-0.076c0.182-0.051,0.32-0.1,0.416-0.147l0.145-0.072V132.24z"/>
	<path fill="#4D4D4D" d="M132.936,138.017v-5.776h0.592v0.288c0.405-0.245,0.806-0.368,1.2-0.368c0.507,0,0.874,0.161,1.104,0.484
		c0.229,0.322,0.345,0.854,0.345,1.596s-0.135,1.273-0.404,1.596c-0.27,0.323-0.716,0.484-1.34,0.484
		c-0.325,0-0.624-0.029-0.896-0.088v1.784H132.936z M134.64,132.696c-0.16,0-0.332,0.026-0.517,0.08
		c-0.184,0.054-0.329,0.106-0.436,0.16l-0.152,0.08v2.695c0.379,0.059,0.667,0.088,0.864,0.088c0.432,0,0.734-0.122,0.908-0.367
		c0.173-0.246,0.26-0.646,0.26-1.2s-0.079-0.949-0.236-1.185C135.174,132.813,134.943,132.696,134.64,132.696z"/>
	<path fill="#4D4D4D" d="M139.199,132.76h-1.272v1.912c0,0.459,0.033,0.761,0.1,0.904c0.067,0.145,0.226,0.216,0.477,0.216
		l0.712-0.048l0.04,0.496c-0.357,0.059-0.63,0.088-0.816,0.088c-0.416,0-0.704-0.102-0.863-0.304c-0.16-0.203-0.24-0.59-0.24-1.16
		v-2.104h-0.568v-0.52h0.568v-1.224h0.592v1.224h1.272V132.76z"/>
	<path fill="#4D4D4D" d="M139.56,132.24h0.64l0.937,3.48h0.296l0.968-3.48h0.616l-1.128,4h-1.2L139.56,132.24z"/>
	<path fill="#4D4D4D" d="M146.431,135.744l0.232-0.023l0.016,0.472c-0.608,0.085-1.128,0.128-1.56,0.128
		c-0.576,0-0.984-0.167-1.225-0.5s-0.359-0.853-0.359-1.556c0-1.403,0.557-2.104,1.672-2.104c0.538,0,0.941,0.15,1.208,0.452
		s0.399,0.774,0.399,1.42l-0.031,0.456h-2.641c0,0.442,0.08,0.771,0.24,0.984c0.16,0.213,0.438,0.319,0.836,0.319
		S146.02,135.776,146.431,135.744z M146.215,134.008c0-0.49-0.079-0.837-0.236-1.04c-0.157-0.202-0.413-0.304-0.768-0.304
		s-0.621,0.106-0.8,0.32c-0.179,0.213-0.271,0.555-0.276,1.023H146.215z"/>
	<path fill="#4D4D4D" d="M147.751,136.24v-4h0.592v0.544c0.464-0.32,0.952-0.53,1.464-0.632v0.607c-0.224,0.043-0.457,0.109-0.7,0.2
		c-0.242,0.091-0.428,0.171-0.556,0.24l-0.2,0.104v2.936H147.751z"/>
	<path fill="#4D4D4D" d="M151.774,132.696c-0.581,0-0.872,0.203-0.872,0.608c0,0.187,0.066,0.318,0.2,0.396
		c0.133,0.077,0.438,0.157,0.912,0.24s0.811,0.198,1.008,0.348s0.296,0.43,0.296,0.84c0,0.411-0.132,0.712-0.396,0.904
		c-0.265,0.192-0.649,0.288-1.156,0.288c-0.331,0-0.721-0.037-1.168-0.112l-0.24-0.04l0.032-0.52
		c0.607,0.091,1.066,0.136,1.376,0.136c0.309,0,0.545-0.049,0.708-0.147c0.162-0.099,0.244-0.265,0.244-0.496
		c0-0.232-0.069-0.39-0.208-0.473c-0.139-0.082-0.443-0.161-0.912-0.235c-0.47-0.075-0.803-0.185-1-0.328
		c-0.197-0.145-0.296-0.411-0.296-0.8c0-0.39,0.137-0.678,0.412-0.864c0.274-0.187,0.617-0.28,1.027-0.28
		c0.325,0,0.733,0.037,1.225,0.112l0.224,0.04l-0.016,0.512C152.582,132.739,152.115,132.696,151.774,132.696z"/>
	<path fill="#4D4D4D" d="M157.063,133.448v2.048c0.016,0.197,0.17,0.314,0.464,0.353l-0.024,0.472c-0.421,0-0.738-0.106-0.952-0.32
		c-0.479,0.214-0.96,0.32-1.439,0.32c-0.368,0-0.648-0.104-0.84-0.312c-0.192-0.208-0.288-0.506-0.288-0.896s0.099-0.676,0.296-0.86
		c0.197-0.184,0.507-0.297,0.928-0.34l1.256-0.12v-0.344c0-0.272-0.059-0.467-0.176-0.584s-0.277-0.176-0.48-0.176
		c-0.427,0-0.869,0.026-1.327,0.08l-0.248,0.023l-0.024-0.456c0.587-0.117,1.106-0.176,1.56-0.176c0.454,0,0.783,0.104,0.988,0.312
		S157.063,133.006,157.063,133.448z M154.599,135.08c0,0.491,0.203,0.736,0.608,0.736c0.362,0,0.72-0.062,1.072-0.185l0.184-0.063
		v-1.32l-1.184,0.112c-0.24,0.021-0.414,0.091-0.521,0.208S154.599,134.856,154.599,135.08z"/>
	<path fill="#4D4D4D" d="M158.847,136.24h-0.6v-4h0.592v0.28c0.4-0.24,0.789-0.36,1.168-0.36c0.496,0,0.843,0.136,1.04,0.408
		c0.176-0.106,0.404-0.201,0.684-0.284c0.28-0.083,0.527-0.124,0.74-0.124c0.533,0,0.893,0.143,1.076,0.428
		c0.184,0.286,0.276,0.799,0.276,1.54v2.112h-0.601v-2.096c0-0.555-0.053-0.935-0.16-1.141c-0.106-0.205-0.333-0.308-0.68-0.308
		c-0.176,0-0.357,0.025-0.544,0.076s-0.331,0.1-0.432,0.147l-0.152,0.072c0.069,0.176,0.104,0.565,0.104,1.168v2.08h-0.601v-2.064
		c0-0.575-0.052-0.966-0.156-1.172c-0.104-0.205-0.332-0.308-0.684-0.308c-0.171,0-0.346,0.025-0.524,0.076s-0.315,0.1-0.412,0.147
		l-0.136,0.072V136.24z"/>
	<path fill="#4D4D4D" d="M165.534,136.24h-0.6v-4h0.592v0.28c0.4-0.24,0.789-0.36,1.168-0.36c0.496,0,0.843,0.136,1.04,0.408
		c0.176-0.106,0.404-0.201,0.684-0.284c0.28-0.083,0.527-0.124,0.74-0.124c0.533,0,0.893,0.143,1.076,0.428
		c0.184,0.286,0.276,0.799,0.276,1.54v2.112h-0.601v-2.096c0-0.555-0.053-0.935-0.16-1.141c-0.106-0.205-0.333-0.308-0.68-0.308
		c-0.176,0-0.357,0.025-0.544,0.076s-0.331,0.1-0.432,0.147l-0.152,0.072c0.069,0.176,0.104,0.565,0.104,1.168v2.08h-0.601v-2.064
		c0-0.575-0.052-0.966-0.156-1.172c-0.104-0.205-0.332-0.308-0.684-0.308c-0.171,0-0.346,0.025-0.524,0.076s-0.315,0.1-0.412,0.147
		l-0.136,0.072V136.24z"/>
	<path fill="#4D4D4D" d="M171.671,136.24v-5.744h0.6v5.744H171.671z"/>
	<path fill="#4D4D4D" d="M175.967,132.24h0.6v4h-0.6v-0.28c-0.4,0.24-0.795,0.36-1.185,0.36c-0.544,0-0.905-0.142-1.084-0.424
		c-0.179-0.283-0.268-0.806-0.268-1.568v-2.088h0.6v2.08c0,0.581,0.051,0.971,0.152,1.168s0.33,0.296,0.688,0.296
		c0.177,0,0.355-0.025,0.536-0.076c0.182-0.051,0.32-0.1,0.416-0.147l0.145-0.072V132.24z"/>
	<path fill="#4D4D4D" d="M178.318,136.24h-0.6v-4h0.592v0.28c0.432-0.24,0.846-0.36,1.24-0.36c0.533,0,0.892,0.145,1.076,0.432
		c0.184,0.288,0.275,0.801,0.275,1.536v2.112h-0.592v-2.096c0-0.555-0.055-0.935-0.164-1.141c-0.109-0.205-0.343-0.308-0.7-0.308
		c-0.171,0-0.351,0.025-0.54,0.076s-0.334,0.1-0.436,0.147l-0.152,0.072V136.24z"/>
	<path fill="#4D4D4D" d="M183.559,138.12c-0.64,0-1.087-0.087-1.34-0.26c-0.254-0.174-0.38-0.489-0.38-0.948
		c0-0.219,0.048-0.396,0.144-0.532c0.096-0.136,0.259-0.289,0.488-0.46c-0.149-0.101-0.225-0.285-0.225-0.552
		c0-0.091,0.067-0.259,0.2-0.504l0.072-0.128c-0.422-0.192-0.632-0.595-0.632-1.208c0-0.912,0.498-1.368,1.496-1.368
		c0.256,0,0.493,0.026,0.712,0.08l0.12,0.024l1.184-0.032v0.512l-0.76-0.016c0.176,0.176,0.264,0.442,0.264,0.8
		c0,0.501-0.124,0.852-0.372,1.052s-0.639,0.3-1.172,0.3c-0.144,0-0.274-0.011-0.392-0.031c-0.097,0.234-0.145,0.387-0.145,0.456
		c0,0.165,0.051,0.268,0.152,0.308s0.408,0.06,0.92,0.06s0.88,0.08,1.104,0.24c0.225,0.16,0.337,0.472,0.337,0.937
		C185.335,137.696,184.742,138.12,183.559,138.12z M182.431,136.864c0,0.282,0.078,0.479,0.235,0.588s0.448,0.164,0.872,0.164
		c0.425,0,0.729-0.059,0.912-0.176c0.185-0.117,0.276-0.313,0.276-0.588c0-0.275-0.066-0.452-0.2-0.532
		c-0.133-0.08-0.395-0.12-0.784-0.12l-0.863-0.04c-0.177,0.128-0.295,0.24-0.356,0.336S182.431,136.715,182.431,136.864z
		 M182.486,133.528c0,0.314,0.07,0.539,0.212,0.672c0.142,0.134,0.375,0.2,0.7,0.2s0.558-0.066,0.696-0.2
		c0.139-0.133,0.208-0.358,0.208-0.676s-0.069-0.543-0.208-0.676c-0.139-0.134-0.371-0.2-0.696-0.2s-0.559,0.067-0.7,0.204
		C182.557,132.988,182.486,133.214,182.486,133.528z"/>
	<path fill="#4D4D4D" d="M120.911,159.961c-0.8,0-1.2,0.302-1.2,0.904c0,0.336,0.092,0.566,0.276,0.691
		c0.184,0.126,0.557,0.251,1.12,0.376c0.562,0.126,0.961,0.288,1.195,0.488c0.235,0.2,0.353,0.529,0.353,0.988
		c0,1.136-0.59,1.704-1.769,1.704c-0.389,0-0.877-0.046-1.464-0.137l-0.288-0.039l0.064-0.513c0.726,0.097,1.277,0.145,1.656,0.145
		c0.789,0,1.184-0.371,1.184-1.112c0-0.299-0.087-0.514-0.26-0.644c-0.174-0.131-0.497-0.242-0.973-0.332
		c-0.623-0.134-1.066-0.306-1.327-0.517c-0.262-0.211-0.393-0.563-0.393-1.06c0-0.992,0.595-1.488,1.784-1.488
		c0.39,0,0.856,0.04,1.4,0.12l0.271,0.04l-0.056,0.52C121.746,160.007,121.221,159.961,120.911,159.961z"/>
	<path fill="#4D4D4D" d="M125.615,161.561h-1.272v1.912c0,0.459,0.033,0.761,0.1,0.904c0.067,0.145,0.226,0.216,0.477,0.216
		l0.712-0.048l0.04,0.496c-0.357,0.059-0.63,0.088-0.816,0.088c-0.416,0-0.704-0.102-0.863-0.304c-0.16-0.203-0.24-0.59-0.24-1.16
		v-2.104h-0.568v-0.52h0.568v-1.224h0.592v1.224h1.272V161.561z"/>
	<path fill="#4D4D4D" d="M126.352,160.137v-0.695h0.6v0.695H126.352z M126.352,165.041v-4h0.6v4H126.352z"/>
	<path fill="#4D4D4D" d="M128.703,165.041h-0.6v-4h0.592v0.28c0.4-0.24,0.789-0.36,1.168-0.36c0.496,0,0.843,0.136,1.04,0.408
		c0.176-0.106,0.404-0.201,0.684-0.284c0.28-0.083,0.527-0.124,0.74-0.124c0.533,0,0.893,0.143,1.076,0.428
		c0.184,0.286,0.276,0.799,0.276,1.54v2.112h-0.601v-2.096c0-0.555-0.053-0.935-0.16-1.141c-0.106-0.205-0.333-0.308-0.68-0.308
		c-0.176,0-0.357,0.025-0.544,0.076s-0.331,0.1-0.432,0.147l-0.152,0.072c0.069,0.176,0.104,0.565,0.104,1.168v2.08h-0.601v-2.064
		c0-0.575-0.052-0.966-0.156-1.172c-0.104-0.205-0.332-0.308-0.684-0.308c-0.171,0-0.346,0.025-0.524,0.076s-0.315,0.1-0.412,0.147
		l-0.136,0.072V165.041z"/>
	<path fill="#4D4D4D" d="M135.391,165.041h-0.6v-4h0.592v0.28c0.4-0.24,0.789-0.36,1.168-0.36c0.496,0,0.843,0.136,1.04,0.408
		c0.176-0.106,0.404-0.201,0.684-0.284c0.28-0.083,0.527-0.124,0.74-0.124c0.533,0,0.893,0.143,1.076,0.428
		c0.184,0.286,0.276,0.799,0.276,1.54v2.112h-0.601v-2.096c0-0.555-0.053-0.935-0.16-1.141c-0.106-0.205-0.333-0.308-0.68-0.308
		c-0.176,0-0.357,0.025-0.544,0.076s-0.331,0.1-0.432,0.147l-0.152,0.072c0.069,0.176,0.104,0.565,0.104,1.168v2.08h-0.601v-2.064
		c0-0.575-0.052-0.966-0.156-1.172c-0.104-0.205-0.332-0.308-0.684-0.308c-0.171,0-0.346,0.025-0.524,0.076s-0.315,0.1-0.412,0.147
		l-0.136,0.072V165.041z"/>
	<path fill="#4D4D4D" d="M141.479,165.041v-4h0.592v0.544c0.464-0.32,0.952-0.53,1.464-0.632v0.607
		c-0.224,0.043-0.457,0.109-0.7,0.2c-0.242,0.091-0.428,0.171-0.556,0.24l-0.2,0.104v2.936H141.479z"/>
	<path fill="#4D4D4D" d="M146.887,164.545l0.232-0.023l0.016,0.472c-0.608,0.085-1.128,0.128-1.56,0.128
		c-0.576,0-0.984-0.167-1.225-0.5s-0.359-0.853-0.359-1.556c0-1.403,0.557-2.104,1.672-2.104c0.538,0,0.941,0.15,1.208,0.452
		s0.399,0.774,0.399,1.42l-0.031,0.456h-2.641c0,0.442,0.08,0.771,0.24,0.984c0.16,0.213,0.438,0.319,0.836,0.319
		S146.476,164.577,146.887,164.545z M146.671,162.809c0-0.49-0.079-0.837-0.236-1.04c-0.157-0.202-0.413-0.304-0.768-0.304
		c-0.355,0-0.621,0.106-0.8,0.32c-0.179,0.213-0.271,0.555-0.276,1.023H146.671z"/>
	<path fill="#4D4D4D" d="M149.703,160.961c0.176,0,0.475,0.032,0.896,0.096l0.192,0.024l-0.024,0.488
		c-0.427-0.048-0.741-0.072-0.943-0.072c-0.454,0-0.762,0.108-0.925,0.324c-0.162,0.216-0.243,0.616-0.243,1.2
		s0.075,0.99,0.228,1.22s0.468,0.344,0.948,0.344l0.943-0.072l0.024,0.496c-0.496,0.075-0.867,0.112-1.112,0.112
		c-0.624,0-1.055-0.16-1.292-0.48c-0.237-0.319-0.355-0.859-0.355-1.619c0-0.761,0.128-1.294,0.384-1.601
		S149.105,160.961,149.703,160.961z"/>
	<path fill="#4D4D4D" d="M152.295,165.041h-0.6v-5.744h0.6v1.968c0.427-0.202,0.838-0.304,1.232-0.304
		c0.533,0,0.892,0.145,1.076,0.432c0.184,0.288,0.275,0.801,0.275,1.536v2.112h-0.6v-2.096c0-0.555-0.055-0.935-0.164-1.141
		c-0.109-0.205-0.34-0.308-0.692-0.308c-0.336,0-0.661,0.062-0.976,0.184l-0.152,0.057V165.041z"/>
	<path fill="#4D4D4D" d="M158.039,161.561h-1.272v1.912c0,0.459,0.033,0.761,0.1,0.904c0.067,0.145,0.226,0.216,0.477,0.216
		l0.712-0.048l0.04,0.496c-0.357,0.059-0.63,0.088-0.816,0.088c-0.416,0-0.704-0.102-0.863-0.304c-0.16-0.203-0.24-0.59-0.24-1.16
		v-2.104h-0.568v-0.52h0.568v-1.224h0.592v1.224h1.272V161.561z"/>
</g>
<polyline fill="none" stroke="#00B8FA" stroke-miterlimit="10" points="128.332,81.032 128.332,66.446 69.814,66.446 "/>
<polyline fill="none" stroke="#00B8FA" stroke-miterlimit="10" points="70.466,55.333 70.466,66.446 9.63,66.446 9.63,81.032 "/>
<line fill="none" stroke="#00B8FA" stroke-miterlimit="10" x1="10.282" y1="98.396" x2="10.282" y2="115.066"/>
<line fill="none" stroke="#00B8FA" stroke-miterlimit="10" x1="129.027" y1="98.396" x2="129.027" y2="115.066"/>
<line fill="none" stroke="#00B8FA" stroke-miterlimit="10" x1="129.027" y1="139.396" x2="129.027" y2="156.066"/>
<g>
	<g>
		<path fill="#4D4D4D" d="M98.537,47.71H43.969V11.956h54.568V47.71z M45.177,46.503h52.152V13.164H45.177V46.503z"/>
	</g>
	<g>
		<path fill="#4D4D4D" d="M92.727,41.892H49.727v-24.13h42.999V41.892z M50.935,40.684h40.584V18.97H50.935V40.684z"/>
	</g>
	<g>
		<rect x="50.537" y="30.553" fill="#4D4D4D" width="14.427" height="1.208"/>
	</g>
	<g>
		<rect x="50.537" y="32.946" fill="#4D4D4D" width="14.427" height="1.208"/>
	</g>
	<g>
		<rect x="50.537" y="35.339" fill="#4D4D4D" width="14.427" height="1.208"/>
	</g>
	<circle fill="#4D4D4D" cx="92.123" cy="18.16" r="1.916"/>
	<circle fill="#4D4D4D" cx="92.123" cy="41.288" r="1.916"/>
	<circle fill="#4D4D4D" cx="50.331" cy="18.16" r="1.916"/>
	<circle fill="#4D4D4D" cx="50.331" cy="41.288" r="1.916"/>
	<g>
		<path fill="#4D4D4D" d="M81.526,24.033c-2.527,0-4.103,1.294-4.728,3.882h6.059v1.243h-6.225l-0.024,0.549v0.617l0.024,0.433
			h5.501v1.243h-5.311c0.293,1.156,0.842,2.05,1.645,2.683c0.804,0.633,1.879,0.949,3.226,0.949c1.236,0,2.459-0.212,3.671-0.636
			v1.445c-1.157,0.418-2.412,0.626-3.766,0.626c-1.877,0-3.388-0.432-4.532-1.296c-1.145-0.864-1.899-2.121-2.263-3.771H72.83
			v-1.243h1.806l-0.024-0.404v-0.424l0.024-0.771H72.83v-1.243h1.948c0.309-1.676,1.041-2.983,2.198-3.921
			c1.156-0.937,2.673-1.406,4.55-1.406c1.592,0,3.042,0.312,4.348,0.934l-0.844,1.339C83.716,24.309,82.548,24.033,81.526,24.033z"
			/>
	</g>
</g>
</svg>
