<?xml version="1.0" encoding="utf-8"?>
<!-- Generator: Adobe Illustrator 21.1.0, SVG Export Plug-In . SVG Version: 6.00 Build 0)  -->
<svg version="1.1" id="Ebene_1" xmlns="http://www.w3.org/2000/svg" xmlns:xlink="http://www.w3.org/1999/xlink" x="0px" y="0px"
	 viewBox="0 0 200 200" enable-background="new 0 0 200 200" xml:space="preserve">
<rect x="0.333" y="0.333" fill="#FFFFFF" width="200" height="200.667"/>
<g>
	<g>
		<path fill="#4D4D4D" d="M86.76,1.436c-0.8,0-1.2,0.302-1.2,0.904c0,0.336,0.092,0.566,0.276,0.691
			c0.184,0.126,0.557,0.251,1.12,0.376c0.562,0.126,0.961,0.288,1.195,0.488c0.235,0.2,0.353,0.529,0.353,0.988
			c0,1.136-0.59,1.704-1.769,1.704c-0.389,0-0.877-0.046-1.464-0.137l-0.288-0.039l0.064-0.513c0.726,0.097,1.277,0.145,1.656,0.145
			c0.789,0,1.184-0.371,1.184-1.112c0-0.299-0.087-0.514-0.26-0.644c-0.174-0.131-0.497-0.242-0.973-0.332
			c-0.623-0.134-1.066-0.306-1.327-0.517c-0.262-0.211-0.393-0.563-0.393-1.06c0-0.992,0.595-1.488,1.784-1.488
			c0.39,0,0.856,0.04,1.4,0.12l0.271,0.04l-0.056,0.52C87.595,1.481,87.069,1.436,86.76,1.436z"/>
		<path fill="#4D4D4D" d="M89.464,1.611V0.916h0.6v0.695H89.464z M89.464,6.516v-4h0.6v4H89.464z"/>
		<path fill="#4D4D4D" d="M92.712,2.436c0.176,0,0.475,0.032,0.896,0.096L93.8,2.556l-0.024,0.488
			c-0.427-0.048-0.741-0.072-0.943-0.072c-0.454,0-0.762,0.108-0.925,0.324c-0.162,0.216-0.243,0.616-0.243,1.2
			s0.075,0.99,0.228,1.22S92.359,6.06,92.84,6.06l0.943-0.072l0.024,0.496c-0.496,0.075-0.867,0.112-1.112,0.112
			c-0.624,0-1.055-0.16-1.292-0.48c-0.237-0.319-0.355-0.859-0.355-1.619c0-0.761,0.128-1.294,0.384-1.601
			S92.114,2.436,92.712,2.436z"/>
		<path fill="#4D4D4D" d="M95.304,6.516h-0.6V0.771h0.6v1.968c0.427-0.202,0.838-0.304,1.232-0.304c0.533,0,0.892,0.145,1.076,0.432
			c0.184,0.288,0.275,0.801,0.275,1.536v2.112h-0.6V4.42c0-0.555-0.055-0.935-0.164-1.141c-0.109-0.205-0.34-0.308-0.692-0.308
			c-0.336,0-0.661,0.062-0.976,0.184l-0.152,0.057V6.516z"/>
		<path fill="#4D4D4D" d="M101.72,6.02l0.232-0.023l0.016,0.472c-0.608,0.085-1.128,0.128-1.56,0.128
			c-0.576,0-0.984-0.167-1.225-0.5s-0.359-0.853-0.359-1.556c0-1.403,0.557-2.104,1.672-2.104c0.538,0,0.941,0.15,1.208,0.452
			s0.399,0.774,0.399,1.42l-0.031,0.456h-2.641c0,0.442,0.08,0.771,0.24,0.984c0.16,0.213,0.438,0.319,0.836,0.319
			S101.309,6.052,101.72,6.02z M101.504,4.283c0-0.49-0.079-0.837-0.236-1.04c-0.157-0.202-0.413-0.304-0.768-0.304
			s-0.621,0.106-0.8,0.32c-0.179,0.213-0.271,0.555-0.276,1.023H101.504z"/>
		<path fill="#4D4D4D" d="M103.04,6.516v-4h0.592V3.06c0.464-0.32,0.952-0.53,1.464-0.632v0.607c-0.224,0.043-0.457,0.109-0.7,0.2
			c-0.242,0.091-0.428,0.171-0.556,0.24l-0.2,0.104v2.936H103.04z"/>
		<path fill="#4D4D4D" d="M106.407,6.516h-0.6V0.771h0.6v1.968c0.427-0.202,0.838-0.304,1.232-0.304
			c0.533,0,0.892,0.145,1.076,0.432c0.184,0.288,0.275,0.801,0.275,1.536v2.112h-0.6V4.42c0-0.555-0.055-0.935-0.164-1.141
			c-0.109-0.205-0.34-0.308-0.692-0.308c-0.336,0-0.661,0.062-0.976,0.184l-0.152,0.057V6.516z"/>
		<path fill="#4D4D4D" d="M112.823,6.02l0.232-0.023l0.016,0.472c-0.608,0.085-1.128,0.128-1.56,0.128
			c-0.576,0-0.984-0.167-1.225-0.5s-0.359-0.853-0.359-1.556c0-1.403,0.557-2.104,1.672-2.104c0.538,0,0.941,0.15,1.208,0.452
			s0.399,0.774,0.399,1.42l-0.031,0.456h-2.641c0,0.442,0.08,0.771,0.24,0.984c0.16,0.213,0.438,0.319,0.836,0.319
			S112.412,6.052,112.823,6.02z M112.607,4.283c0-0.49-0.079-0.837-0.236-1.04c-0.157-0.202-0.413-0.304-0.768-0.304
			s-0.621,0.106-0.8,0.32c-0.179,0.213-0.271,0.555-0.276,1.023H112.607z"/>
		<path fill="#4D4D4D" d="M114.144,1.611V0.916h0.6v0.695H114.144z M114.144,6.516v-4h0.6v4H114.144z"/>
		<path fill="#4D4D4D" d="M117.968,3.035h-1.272v1.912c0,0.459,0.033,0.761,0.1,0.904c0.067,0.145,0.226,0.216,0.477,0.216
			l0.712-0.048l0.04,0.496c-0.357,0.059-0.63,0.088-0.816,0.088c-0.416,0-0.704-0.102-0.863-0.304c-0.16-0.203-0.24-0.59-0.24-1.16
			V3.035h-0.568v-0.52h0.568V1.292h0.592v1.224h1.272V3.035z"/>
	</g>
</g>
<g>
	<g>
		<path fill="#4D4D4D" d="M15.273,52.343v1.59h-0.462V49.78h1.536c0.44,0,0.771,0.103,0.993,0.307s0.333,0.521,0.333,0.954
			c0,0.64-0.254,1.042-0.762,1.206l0.798,1.686H17.2l-0.75-1.59H15.273z M16.354,51.935c0.564,0,0.847-0.291,0.847-0.873
			s-0.284-0.873-0.853-0.873h-1.074v1.746H16.354z"/>
		<path fill="#4D4D4D" d="M18.43,50.255v-0.522h0.45v0.522H18.43z M18.43,53.933v-3h0.45v3H18.43z"/>
		<path fill="#4D4D4D" d="M20.686,51.274c-0.437,0-0.654,0.152-0.654,0.456c0,0.141,0.05,0.239,0.15,0.297
			c0.1,0.059,0.328,0.118,0.684,0.181c0.356,0.062,0.608,0.148,0.756,0.261c0.148,0.112,0.223,0.322,0.223,0.63
			s-0.1,0.534-0.297,0.678c-0.198,0.145-0.487,0.216-0.867,0.216c-0.248,0-0.54-0.027-0.876-0.084l-0.181-0.029l0.024-0.391
			c0.456,0.068,0.8,0.103,1.032,0.103c0.231,0,0.409-0.037,0.531-0.111c0.121-0.074,0.183-0.198,0.183-0.372
			s-0.052-0.292-0.156-0.354c-0.104-0.062-0.332-0.121-0.684-0.178c-0.353-0.056-0.603-0.138-0.75-0.245
			c-0.148-0.108-0.223-0.309-0.223-0.601s0.104-0.508,0.31-0.647c0.206-0.141,0.463-0.21,0.771-0.21
			c0.244,0,0.551,0.027,0.918,0.084l0.168,0.029l-0.012,0.385C21.292,51.307,20.941,51.274,20.686,51.274z"/>
		<path fill="#4D4D4D" d="M22.533,50.255v-0.522h0.45v0.522H22.533z M22.533,53.933v-3h0.45v3H22.533z"/>
		<path fill="#4D4D4D" d="M24.298,53.933h-0.45v-4.308h0.45v2.544l0.468-0.024l0.858-1.212h0.51l-0.978,1.38l1.02,1.62h-0.51
			l-0.894-1.392l-0.475,0.018V53.933z"/>
		<path fill="#4D4D4D" d="M26.512,52.427c0-0.548,0.099-0.944,0.294-1.188c0.196-0.243,0.527-0.365,0.993-0.365
			s0.796,0.122,0.99,0.365c0.193,0.244,0.291,0.641,0.291,1.188s-0.092,0.946-0.276,1.194c-0.184,0.248-0.52,0.371-1.008,0.371
			s-0.824-0.123-1.008-0.371C26.604,53.373,26.512,52.975,26.512,52.427z M26.974,52.418c0,0.438,0.054,0.745,0.159,0.921
			c0.106,0.176,0.328,0.264,0.666,0.264s0.559-0.087,0.663-0.261c0.104-0.174,0.156-0.481,0.156-0.921
			c0-0.44-0.059-0.743-0.174-0.909c-0.116-0.166-0.331-0.249-0.646-0.249s-0.53,0.083-0.647,0.249
			C27.033,51.678,26.974,51.979,26.974,52.418z"/>
		<path fill="#4D4D4D" d="M31.93,51.839v1.536c0.012,0.147,0.128,0.235,0.349,0.264l-0.019,0.354c-0.315,0-0.554-0.079-0.714-0.239
			c-0.36,0.16-0.72,0.239-1.08,0.239c-0.276,0-0.486-0.077-0.63-0.233c-0.145-0.156-0.216-0.38-0.216-0.672s0.074-0.507,0.222-0.646
			c0.148-0.138,0.38-0.223,0.696-0.255l0.941-0.09v-0.258c0-0.204-0.044-0.351-0.132-0.438s-0.208-0.132-0.359-0.132
			c-0.32,0-0.652,0.021-0.996,0.061l-0.187,0.018l-0.018-0.342c0.439-0.088,0.83-0.132,1.17-0.132s0.587,0.077,0.741,0.233
			C31.853,51.263,31.93,51.507,31.93,51.839z M30.082,53.062c0,0.368,0.151,0.552,0.456,0.552c0.271,0,0.54-0.046,0.804-0.138
			l0.138-0.048v-0.99l-0.888,0.084c-0.18,0.017-0.31,0.068-0.39,0.156S30.082,52.895,30.082,53.062z"/>
		<path fill="#4D4D4D" d="M32.817,53.933v-3h0.444v0.408c0.348-0.24,0.714-0.398,1.098-0.475v0.456
			c-0.168,0.032-0.343,0.082-0.524,0.15c-0.183,0.068-0.321,0.128-0.417,0.18l-0.15,0.078v2.202H32.817z"/>
		<path fill="#4D4D4D" d="M35.344,53.933h-0.45v-3h0.444v0.21c0.3-0.18,0.592-0.27,0.876-0.27c0.372,0,0.632,0.102,0.78,0.306
			c0.132-0.08,0.303-0.151,0.513-0.213c0.21-0.062,0.396-0.093,0.555-0.093c0.4,0,0.669,0.106,0.808,0.32
			c0.138,0.214,0.207,0.6,0.207,1.155v1.584h-0.45V52.36c0-0.416-0.04-0.701-0.12-0.854c-0.08-0.154-0.25-0.231-0.51-0.231
			c-0.132,0-0.269,0.02-0.408,0.058s-0.248,0.074-0.324,0.11l-0.113,0.055c0.052,0.132,0.077,0.424,0.077,0.876v1.56h-0.449v-1.548
			c0-0.433-0.039-0.726-0.117-0.879c-0.078-0.154-0.249-0.231-0.514-0.231c-0.128,0-0.259,0.02-0.393,0.058s-0.237,0.074-0.309,0.11
			l-0.103,0.055V53.933z"/>
		<path fill="#4D4D4D" d="M41.949,53.561l0.175-0.018l0.012,0.354c-0.456,0.064-0.847,0.096-1.17,0.096
			c-0.433,0-0.738-0.125-0.918-0.375c-0.181-0.249-0.271-0.639-0.271-1.167c0-1.052,0.418-1.577,1.254-1.577
			c0.404,0,0.706,0.112,0.906,0.339c0.2,0.226,0.3,0.581,0.3,1.064l-0.023,0.342h-1.98c0,0.332,0.061,0.578,0.18,0.738
			c0.12,0.16,0.329,0.24,0.628,0.24C41.339,53.597,41.642,53.585,41.949,53.561z M41.787,52.259c0-0.368-0.059-0.628-0.177-0.78
			s-0.31-0.228-0.576-0.228c-0.266,0-0.466,0.08-0.6,0.239c-0.134,0.16-0.203,0.416-0.207,0.769H41.787z"/>
		<path fill="#4D4D4D" d="M43.971,53.933l1.141-4.152h1.008l1.14,4.152h-0.456l-0.3-1.068h-1.775l-0.301,1.068H43.971z
			 M45.459,50.177l-0.63,2.273h1.572l-0.63-2.273H45.459z"/>
		<path fill="#4D4D4D" d="M48.285,53.933h-0.45v-3h0.444v0.21c0.324-0.18,0.634-0.27,0.93-0.27c0.4,0,0.669,0.107,0.808,0.323
			c0.138,0.217,0.207,0.601,0.207,1.152v1.584h-0.444V52.36c0-0.416-0.041-0.701-0.123-0.854c-0.082-0.154-0.257-0.231-0.525-0.231
			c-0.128,0-0.263,0.02-0.404,0.058c-0.143,0.038-0.251,0.074-0.327,0.11l-0.114,0.055V53.933z"/>
		<path fill="#4D4D4D" d="M51.093,53.933v-4.308h0.45v4.308H51.093z"/>
		<path fill="#4D4D4D" d="M54.561,51.839v1.536c0.012,0.147,0.128,0.235,0.349,0.264l-0.019,0.354c-0.315,0-0.554-0.079-0.714-0.239
			c-0.36,0.16-0.72,0.239-1.08,0.239c-0.276,0-0.486-0.077-0.63-0.233c-0.145-0.156-0.216-0.38-0.216-0.672s0.074-0.507,0.222-0.646
			c0.148-0.138,0.38-0.223,0.696-0.255l0.941-0.09v-0.258c0-0.204-0.044-0.351-0.132-0.438s-0.208-0.132-0.359-0.132
			c-0.32,0-0.652,0.021-0.996,0.061l-0.187,0.018l-0.018-0.342c0.439-0.088,0.83-0.132,1.17-0.132s0.587,0.077,0.741,0.233
			C54.483,51.263,54.561,51.507,54.561,51.839z M52.713,53.062c0,0.368,0.151,0.552,0.456,0.552c0.271,0,0.54-0.046,0.804-0.138
			l0.138-0.048v-0.99l-0.888,0.084c-0.18,0.017-0.31,0.068-0.39,0.156S52.713,52.895,52.713,53.062z"/>
		<path fill="#4D4D4D" d="M56.607,55.343c-0.479,0-0.814-0.065-1.005-0.195s-0.285-0.367-0.285-0.711
			c0-0.164,0.036-0.297,0.108-0.398c0.072-0.103,0.193-0.218,0.366-0.346c-0.112-0.076-0.168-0.214-0.168-0.414
			c0-0.067,0.05-0.193,0.149-0.378l0.054-0.096c-0.315-0.145-0.474-0.446-0.474-0.906c0-0.684,0.374-1.025,1.122-1.025
			c0.192,0,0.37,0.02,0.534,0.06l0.09,0.018l0.888-0.023v0.384l-0.569-0.012c0.132,0.132,0.197,0.332,0.197,0.6
			c0,0.376-0.093,0.64-0.278,0.789c-0.187,0.15-0.479,0.226-0.879,0.226c-0.108,0-0.206-0.009-0.294-0.024
			c-0.072,0.176-0.108,0.29-0.108,0.342c0,0.124,0.038,0.201,0.114,0.231c0.075,0.029,0.306,0.045,0.689,0.045s0.66,0.06,0.828,0.18
			s0.252,0.354,0.252,0.702C57.939,55.024,57.495,55.343,56.607,55.343z M55.762,54.4c0,0.212,0.059,0.359,0.177,0.441
			s0.336,0.123,0.654,0.123c0.317,0,0.546-0.044,0.684-0.132c0.139-0.089,0.207-0.235,0.207-0.441s-0.05-0.339-0.149-0.399
			c-0.101-0.06-0.297-0.09-0.589-0.09l-0.647-0.029c-0.132,0.096-0.221,0.18-0.267,0.252C55.784,54.196,55.762,54.289,55.762,54.4z
			 M55.804,51.898c0,0.236,0.053,0.404,0.159,0.504c0.105,0.101,0.28,0.15,0.524,0.15s0.418-0.05,0.522-0.15
			c0.104-0.1,0.156-0.269,0.156-0.507s-0.053-0.407-0.156-0.507c-0.104-0.1-0.278-0.15-0.522-0.15s-0.419,0.052-0.524,0.153
			C55.856,51.493,55.804,51.663,55.804,51.898z"/>
		<path fill="#4D4D4D" d="M60.573,53.561l0.175-0.018l0.012,0.354c-0.456,0.064-0.847,0.096-1.17,0.096
			c-0.433,0-0.738-0.125-0.918-0.375c-0.181-0.249-0.271-0.639-0.271-1.167c0-1.052,0.418-1.577,1.254-1.577
			c0.404,0,0.706,0.112,0.906,0.339c0.2,0.226,0.3,0.581,0.3,1.064l-0.023,0.342h-1.98c0,0.332,0.061,0.578,0.18,0.738
			c0.12,0.16,0.329,0.24,0.628,0.24C59.963,53.597,60.266,53.585,60.573,53.561z M60.411,52.259c0-0.368-0.059-0.628-0.177-0.78
			s-0.31-0.228-0.576-0.228c-0.266,0-0.466,0.08-0.6,0.239c-0.134,0.16-0.203,0.416-0.207,0.769H60.411z"/>
		<path fill="#4D4D4D" d="M62.013,53.933h-0.45v-3h0.444v0.21c0.324-0.18,0.634-0.27,0.93-0.27c0.4,0,0.669,0.107,0.808,0.323
			c0.138,0.217,0.207,0.601,0.207,1.152v1.584h-0.444V52.36c0-0.416-0.041-0.701-0.123-0.854c-0.082-0.154-0.257-0.231-0.525-0.231
			c-0.128,0-0.263,0.02-0.404,0.058c-0.143,0.038-0.251,0.074-0.327,0.11l-0.114,0.055V53.933z"/>
		<path fill="#4D4D4D" d="M16.06,58.073c0.404,0,0.688,0.114,0.85,0.345c0.161,0.229,0.242,0.633,0.242,1.209
			s-0.101,0.98-0.303,1.215s-0.573,0.351-1.113,0.351c-0.168,0-0.445-0.016-0.834-0.048l-0.168-0.018v-4.302h0.444v1.458
			C15.481,58.143,15.775,58.073,16.06,58.073z M15.729,60.791c0.393,0,0.651-0.089,0.777-0.268c0.126-0.178,0.188-0.479,0.188-0.902
			s-0.05-0.722-0.149-0.892c-0.101-0.17-0.278-0.255-0.534-0.255c-0.232,0-0.47,0.044-0.714,0.132l-0.12,0.042v2.112
			C15.438,60.781,15.622,60.791,15.729,60.791z"/>
		<path fill="#4D4D4D" d="M17.89,57.455v-0.522h0.45v0.522H17.89z M17.89,61.133v-3h0.45v3H17.89z"/>
		<path fill="#4D4D4D" d="M21.243,60.761l0.175-0.018l0.012,0.354c-0.456,0.064-0.847,0.096-1.17,0.096
			c-0.433,0-0.738-0.125-0.918-0.375c-0.181-0.249-0.271-0.639-0.271-1.167c0-1.052,0.418-1.577,1.254-1.577
			c0.404,0,0.706,0.112,0.906,0.339c0.2,0.226,0.3,0.581,0.3,1.064l-0.023,0.342h-1.98c0,0.332,0.061,0.578,0.18,0.738
			c0.12,0.16,0.329,0.24,0.628,0.24C20.633,60.797,20.936,60.785,21.243,60.761z M21.081,59.459c0-0.368-0.059-0.628-0.177-0.78
			s-0.31-0.228-0.576-0.228c-0.266,0-0.466,0.08-0.6,0.239c-0.134,0.16-0.203,0.416-0.207,0.769H21.081z"/>
		<path fill="#4D4D4D" d="M23.77,58.522h-0.954v1.435c0,0.344,0.024,0.569,0.075,0.678c0.05,0.108,0.169,0.162,0.356,0.162
			l0.534-0.036l0.03,0.372c-0.269,0.044-0.473,0.066-0.612,0.066c-0.312,0-0.528-0.076-0.648-0.229
			c-0.119-0.152-0.18-0.441-0.18-0.87v-1.578h-0.426v-0.39h0.426v-0.918h0.444v0.918h0.954V58.522z"/>
		<path fill="#4D4D4D" d="M26.361,60.761l0.175-0.018l0.012,0.354c-0.456,0.064-0.847,0.096-1.17,0.096
			c-0.433,0-0.738-0.125-0.918-0.375c-0.181-0.249-0.271-0.639-0.271-1.167c0-1.052,0.418-1.577,1.254-1.577
			c0.404,0,0.706,0.112,0.906,0.339c0.2,0.226,0.3,0.581,0.3,1.064l-0.023,0.342h-1.98c0,0.332,0.061,0.578,0.18,0.738
			c0.12,0.16,0.329,0.24,0.628,0.24C25.751,60.797,26.054,60.785,26.361,60.761z M26.199,59.459c0-0.368-0.059-0.628-0.177-0.78
			s-0.31-0.228-0.576-0.228c-0.266,0-0.466,0.08-0.6,0.239c-0.134,0.16-0.203,0.416-0.207,0.769H26.199z"/>
		<path fill="#4D4D4D" d="M27.802,61.133h-0.45v-3h0.444v0.21c0.324-0.18,0.634-0.27,0.93-0.27c0.4,0,0.669,0.107,0.808,0.323
			c0.138,0.217,0.207,0.601,0.207,1.152v1.584h-0.444v-1.572c0-0.416-0.041-0.701-0.123-0.854c-0.082-0.154-0.257-0.231-0.525-0.231
			c-0.128,0-0.263,0.02-0.404,0.058c-0.143,0.038-0.251,0.074-0.327,0.11l-0.114,0.055V61.133z"/>
		<path fill="#4D4D4D" d="M31.893,57.455v-0.522h0.45v0.522H31.893z M31.893,61.133v-3h0.45v3H31.893z"/>
		<path fill="#4D4D4D" d="M33.178,61.133v-0.684h0.491v0.684H33.178z"/>
		<path fill="#4D4D4D" d="M36.808,56.825v4.308h-0.444v-0.204c-0.308,0.176-0.612,0.264-0.912,0.264c-0.16,0-0.3-0.02-0.42-0.06
			s-0.232-0.112-0.336-0.216c-0.216-0.216-0.324-0.615-0.324-1.197s0.097-1.002,0.291-1.26s0.516-0.387,0.963-0.387
			c0.232,0,0.479,0.025,0.738,0.077v-1.325H36.808z M35.247,60.749c0.072,0.027,0.165,0.042,0.279,0.042s0.242-0.02,0.384-0.058
			c0.142-0.037,0.253-0.074,0.333-0.11l0.12-0.055v-2.033c-0.256-0.049-0.494-0.072-0.714-0.072c-0.304,0-0.517,0.097-0.636,0.291
			c-0.12,0.194-0.181,0.495-0.181,0.903c0,0.464,0.07,0.775,0.21,0.936C35.107,60.669,35.175,60.721,35.247,60.749z"/>
		<path fill="#4D4D4D" d="M37.647,61.133v-0.684h0.491v0.684H37.647z"/>
		<path fill="#4D4D4D" d="M39.513,59.543v1.59h-0.462V56.98h1.536c0.44,0,0.771,0.103,0.993,0.307s0.333,0.521,0.333,0.954
			c0,0.64-0.254,1.042-0.762,1.206l0.798,1.686h-0.51l-0.75-1.59H39.513z M40.593,59.135c0.564,0,0.847-0.291,0.847-0.873
			s-0.284-0.873-0.853-0.873h-1.074v1.746H40.593z"/>
		<path fill="#4D4D4D" d="M42.64,61.133v-0.684h0.491v0.684H42.64z"/>
		<path fill="#4D4D4D" d="M46.442,62.543c-0.479,0-0.814-0.065-1.005-0.195s-0.285-0.367-0.285-0.711
			c0-0.164,0.036-0.297,0.108-0.398c0.072-0.103,0.193-0.218,0.366-0.346c-0.112-0.076-0.168-0.214-0.168-0.414
			c0-0.067,0.05-0.193,0.149-0.378l0.054-0.096c-0.315-0.145-0.474-0.446-0.474-0.906c0-0.684,0.374-1.025,1.122-1.025
			c0.192,0,0.37,0.02,0.534,0.06l0.09,0.018l0.888-0.023v0.384l-0.569-0.012c0.132,0.132,0.197,0.332,0.197,0.6
			c0,0.376-0.093,0.64-0.278,0.789c-0.187,0.15-0.479,0.226-0.879,0.226c-0.108,0-0.206-0.009-0.294-0.024
			c-0.072,0.176-0.108,0.29-0.108,0.342c0,0.124,0.038,0.201,0.114,0.231c0.075,0.029,0.306,0.045,0.689,0.045s0.66,0.06,0.828,0.18
			s0.252,0.354,0.252,0.702C47.774,62.225,47.33,62.543,46.442,62.543z M45.597,61.601c0,0.212,0.059,0.359,0.177,0.441
			s0.336,0.123,0.654,0.123c0.317,0,0.546-0.044,0.684-0.132c0.139-0.089,0.207-0.235,0.207-0.441s-0.05-0.339-0.149-0.399
			c-0.101-0.06-0.297-0.09-0.589-0.09l-0.647-0.029c-0.132,0.096-0.221,0.18-0.267,0.252C45.619,61.396,45.597,61.489,45.597,61.601
			z M45.639,59.099c0,0.236,0.053,0.404,0.159,0.504c0.105,0.101,0.28,0.15,0.524,0.15s0.418-0.05,0.522-0.15
			c0.104-0.1,0.156-0.269,0.156-0.507s-0.053-0.407-0.156-0.507c-0.104-0.1-0.278-0.15-0.522-0.15s-0.419,0.052-0.524,0.153
			C45.691,58.693,45.639,58.863,45.639,59.099z"/>
		<path fill="#4D4D4D" d="M50.408,60.761l0.175-0.018l0.012,0.354c-0.456,0.064-0.847,0.096-1.17,0.096
			c-0.433,0-0.738-0.125-0.918-0.375c-0.181-0.249-0.271-0.639-0.271-1.167c0-1.052,0.418-1.577,1.254-1.577
			c0.404,0,0.706,0.112,0.906,0.339c0.2,0.226,0.3,0.581,0.3,1.064l-0.023,0.342h-1.98c0,0.332,0.061,0.578,0.18,0.738
			c0.12,0.16,0.329,0.24,0.628,0.24C49.798,60.797,50.101,60.785,50.408,60.761z M50.246,59.459c0-0.368-0.059-0.628-0.177-0.78
			s-0.31-0.228-0.576-0.228c-0.266,0-0.466,0.08-0.6,0.239c-0.134,0.16-0.203,0.416-0.207,0.769H50.246z"/>
		<path fill="#4D4D4D" d="M51.398,61.133v-3h0.444v0.408c0.348-0.24,0.714-0.398,1.098-0.475v0.456
			c-0.168,0.032-0.343,0.082-0.524,0.15c-0.183,0.068-0.321,0.128-0.417,0.18l-0.15,0.078v2.202H51.398z"/>
		<path fill="#4D4D4D" d="M53.475,57.455v-0.522h0.45v0.522H53.475z M53.475,61.133v-3h0.45v3H53.475z"/>
		<path fill="#4D4D4D" d="M55.238,61.133h-0.45v-3h0.444v0.21c0.324-0.18,0.634-0.27,0.93-0.27c0.4,0,0.669,0.107,0.808,0.323
			c0.138,0.217,0.207,0.601,0.207,1.152v1.584h-0.444v-1.572c0-0.416-0.041-0.701-0.123-0.854c-0.082-0.154-0.257-0.231-0.525-0.231
			c-0.128,0-0.263,0.02-0.404,0.058c-0.143,0.038-0.251,0.074-0.327,0.11l-0.114,0.055V61.133z"/>
		<path fill="#4D4D4D" d="M59.169,62.543c-0.479,0-0.814-0.065-1.005-0.195s-0.285-0.367-0.285-0.711
			c0-0.164,0.036-0.297,0.108-0.398c0.072-0.103,0.193-0.218,0.366-0.346c-0.112-0.076-0.168-0.214-0.168-0.414
			c0-0.067,0.05-0.193,0.149-0.378l0.054-0.096c-0.315-0.145-0.474-0.446-0.474-0.906c0-0.684,0.374-1.025,1.122-1.025
			c0.192,0,0.37,0.02,0.534,0.06l0.09,0.018l0.888-0.023v0.384l-0.569-0.012c0.132,0.132,0.197,0.332,0.197,0.6
			c0,0.376-0.093,0.64-0.278,0.789c-0.187,0.15-0.479,0.226-0.879,0.226c-0.108,0-0.206-0.009-0.294-0.024
			c-0.072,0.176-0.108,0.29-0.108,0.342c0,0.124,0.038,0.201,0.114,0.231c0.075,0.029,0.306,0.045,0.689,0.045s0.66,0.06,0.828,0.18
			s0.252,0.354,0.252,0.702C60.501,62.225,60.057,62.543,59.169,62.543z M58.323,61.601c0,0.212,0.059,0.359,0.177,0.441
			s0.336,0.123,0.654,0.123c0.317,0,0.546-0.044,0.684-0.132c0.139-0.089,0.207-0.235,0.207-0.441s-0.05-0.339-0.149-0.399
			c-0.101-0.06-0.297-0.09-0.589-0.09l-0.647-0.029c-0.132,0.096-0.221,0.18-0.267,0.252C58.346,61.396,58.323,61.489,58.323,61.601
			z M58.365,59.099c0,0.236,0.053,0.404,0.159,0.504c0.105,0.101,0.28,0.15,0.524,0.15s0.418-0.05,0.522-0.15
			c0.104-0.1,0.156-0.269,0.156-0.507s-0.053-0.407-0.156-0.507c-0.104-0.1-0.278-0.15-0.522-0.15s-0.419,0.052-0.524,0.153
			C58.418,58.693,58.365,58.863,58.365,59.099z"/>
		<path fill="#4D4D4D" d="M63.135,60.761l0.175-0.018l0.012,0.354c-0.456,0.064-0.847,0.096-1.17,0.096
			c-0.433,0-0.738-0.125-0.918-0.375c-0.181-0.249-0.271-0.639-0.271-1.167c0-1.052,0.418-1.577,1.254-1.577
			c0.404,0,0.706,0.112,0.906,0.339c0.2,0.226,0.3,0.581,0.3,1.064l-0.023,0.342h-1.98c0,0.332,0.061,0.578,0.18,0.738
			c0.12,0.16,0.329,0.24,0.628,0.24C62.524,60.797,62.827,60.785,63.135,60.761z M62.973,59.459c0-0.368-0.059-0.628-0.177-0.78
			s-0.31-0.228-0.576-0.228c-0.266,0-0.466,0.08-0.6,0.239c-0.134,0.16-0.203,0.416-0.207,0.769H62.973z"/>
		<path fill="#4D4D4D" d="M15.273,66.743v1.59h-0.462v-4.152h1.536c0.44,0,0.771,0.103,0.993,0.307s0.333,0.521,0.333,0.954
			c0,0.64-0.254,1.042-0.762,1.206l0.798,1.686H17.2l-0.75-1.59H15.273z M16.354,66.335c0.564,0,0.847-0.291,0.847-0.873
			s-0.284-0.873-0.853-0.873h-1.074v1.746H16.354z"/>
		<path fill="#4D4D4D" d="M20.415,67.961l0.175-0.018l0.012,0.354c-0.456,0.064-0.847,0.096-1.17,0.096
			c-0.433,0-0.738-0.125-0.918-0.375c-0.181-0.249-0.271-0.639-0.271-1.167c0-1.052,0.418-1.577,1.254-1.577
			c0.404,0,0.706,0.112,0.906,0.339c0.2,0.226,0.3,0.581,0.3,1.064l-0.023,0.342h-1.98c0,0.332,0.061,0.578,0.18,0.738
			c0.12,0.16,0.329,0.24,0.628,0.24C19.805,67.997,20.107,67.985,20.415,67.961z M20.253,66.659c0-0.368-0.059-0.628-0.177-0.78
			s-0.31-0.228-0.576-0.228c-0.266,0-0.466,0.08-0.6,0.239c-0.134,0.16-0.203,0.416-0.207,0.769H20.253z"/>
		<path fill="#4D4D4D" d="M21.855,68.333h-0.45v-3h0.444v0.21c0.324-0.18,0.634-0.27,0.93-0.27c0.4,0,0.669,0.107,0.808,0.323
			c0.138,0.217,0.207,0.601,0.207,1.152v1.584H23.35v-1.572c0-0.416-0.041-0.701-0.123-0.854c-0.082-0.154-0.257-0.231-0.525-0.231
			c-0.128,0-0.263,0.02-0.404,0.058c-0.143,0.038-0.251,0.074-0.327,0.11l-0.114,0.055V68.333z"/>
		<path fill="#4D4D4D" d="M26.932,64.025v4.308h-0.444v-0.204c-0.308,0.176-0.612,0.264-0.912,0.264c-0.16,0-0.3-0.02-0.42-0.06
			s-0.232-0.112-0.336-0.216c-0.216-0.216-0.324-0.615-0.324-1.197s0.097-1.002,0.291-1.26s0.516-0.387,0.963-0.387
			c0.232,0,0.479,0.025,0.738,0.077v-1.325H26.932z M25.371,67.949c0.072,0.027,0.165,0.042,0.279,0.042s0.242-0.02,0.384-0.058
			c0.142-0.037,0.253-0.074,0.333-0.11l0.12-0.055v-2.033c-0.256-0.049-0.494-0.072-0.714-0.072c-0.304,0-0.517,0.097-0.636,0.291
			c-0.12,0.194-0.181,0.495-0.181,0.903c0,0.464,0.07,0.775,0.21,0.936C25.231,67.869,25.299,67.921,25.371,67.949z"/>
		<path fill="#4D4D4D" d="M27.802,64.655v-0.522h0.45v0.522H27.802z M27.802,68.333v-3h0.45v3H27.802z"/>
		<path fill="#4D4D4D" d="M30.67,65.723h-0.954v1.435c0,0.344,0.024,0.569,0.075,0.678c0.05,0.108,0.169,0.162,0.356,0.162
			l0.534-0.036l0.03,0.372c-0.269,0.044-0.473,0.066-0.612,0.066c-0.312,0-0.528-0.076-0.648-0.229
			c-0.119-0.152-0.18-0.441-0.18-0.87v-1.578h-0.426v-0.39h0.426v-0.918h0.444v0.918h0.954V65.723z"/>
		<path fill="#4D4D4D" d="M33.262,67.961l0.175-0.018l0.012,0.354c-0.456,0.064-0.847,0.096-1.17,0.096
			c-0.433,0-0.738-0.125-0.918-0.375c-0.181-0.249-0.271-0.639-0.271-1.167c0-1.052,0.418-1.577,1.254-1.577
			c0.404,0,0.706,0.112,0.906,0.339c0.2,0.226,0.3,0.581,0.3,1.064l-0.023,0.342h-1.98c0,0.332,0.061,0.578,0.18,0.738
			c0.12,0.16,0.329,0.24,0.628,0.24C32.651,67.997,32.954,67.985,33.262,67.961z M33.1,66.659c0-0.368-0.059-0.628-0.177-0.78
			s-0.31-0.228-0.576-0.228c-0.266,0-0.466,0.08-0.6,0.239c-0.134,0.16-0.203,0.416-0.207,0.769H33.1z"/>
		<path fill="#4D4D4D" d="M35.373,65.273c0.132,0,0.356,0.023,0.672,0.071l0.145,0.019l-0.019,0.366
			c-0.319-0.036-0.556-0.055-0.708-0.055c-0.34,0-0.57,0.081-0.692,0.243s-0.184,0.462-0.184,0.9c0,0.438,0.058,0.743,0.172,0.915
			c0.113,0.172,0.351,0.258,0.711,0.258l0.708-0.055l0.018,0.372c-0.372,0.057-0.65,0.084-0.834,0.084
			c-0.468,0-0.791-0.119-0.969-0.359c-0.179-0.24-0.268-0.646-0.268-1.215c0-0.57,0.097-0.971,0.288-1.2
			C34.605,65.388,34.926,65.273,35.373,65.273z"/>
		<path fill="#4D4D4D" d="M37.317,68.333h-0.45v-4.308h0.45v1.476c0.32-0.152,0.628-0.228,0.924-0.228
			c0.4,0,0.669,0.107,0.808,0.323c0.138,0.217,0.207,0.601,0.207,1.152v1.584h-0.45v-1.572c0-0.416-0.041-0.701-0.123-0.854
			c-0.082-0.154-0.255-0.231-0.52-0.231c-0.252,0-0.495,0.046-0.731,0.139l-0.114,0.042V68.333z"/>
		<path fill="#4D4D4D" d="M42.207,66.239v1.536c0.012,0.147,0.128,0.235,0.349,0.264l-0.019,0.354c-0.315,0-0.554-0.079-0.714-0.239
			c-0.36,0.16-0.72,0.239-1.08,0.239c-0.276,0-0.486-0.077-0.63-0.233c-0.145-0.156-0.216-0.38-0.216-0.672s0.074-0.507,0.222-0.646
			c0.148-0.138,0.38-0.223,0.696-0.255l0.941-0.09v-0.258c0-0.204-0.044-0.351-0.132-0.438s-0.208-0.132-0.359-0.132
			c-0.32,0-0.652,0.021-0.996,0.061l-0.187,0.018l-0.018-0.342c0.439-0.088,0.83-0.132,1.17-0.132s0.587,0.077,0.741,0.233
			C42.13,65.663,42.207,65.907,42.207,66.239z M40.359,67.463c0,0.368,0.151,0.552,0.456,0.552c0.271,0,0.54-0.046,0.804-0.138
			l0.138-0.048v-0.99l-0.888,0.084c-0.18,0.017-0.31,0.068-0.39,0.156S40.359,67.295,40.359,67.463z"/>
		<path fill="#4D4D4D" d="M43.545,68.333h-0.45v-3h0.444v0.21c0.324-0.18,0.634-0.27,0.93-0.27c0.4,0,0.669,0.107,0.808,0.323
			c0.138,0.217,0.207,0.601,0.207,1.152v1.584h-0.444v-1.572c0-0.416-0.041-0.701-0.123-0.854c-0.082-0.154-0.257-0.231-0.525-0.231
			c-0.128,0-0.263,0.02-0.404,0.058c-0.143,0.038-0.251,0.074-0.327,0.11l-0.114,0.055V68.333z"/>
		<path fill="#4D4D4D" d="M47.439,65.273c0.132,0,0.356,0.023,0.672,0.071l0.145,0.019l-0.019,0.366
			c-0.319-0.036-0.556-0.055-0.708-0.055c-0.34,0-0.57,0.081-0.692,0.243s-0.184,0.462-0.184,0.9c0,0.438,0.058,0.743,0.172,0.915
			c0.113,0.172,0.351,0.258,0.711,0.258l0.708-0.055l0.018,0.372c-0.372,0.057-0.65,0.084-0.834,0.084
			c-0.468,0-0.791-0.119-0.969-0.359c-0.179-0.24-0.268-0.646-0.268-1.215c0-0.57,0.097-0.971,0.288-1.2
			C46.672,65.388,46.992,65.273,47.439,65.273z"/>
		<path fill="#4D4D4D" d="M50.937,67.961l0.175-0.018l0.012,0.354c-0.456,0.064-0.847,0.096-1.17,0.096
			c-0.433,0-0.738-0.125-0.918-0.375c-0.181-0.249-0.271-0.639-0.271-1.167c0-1.052,0.418-1.577,1.254-1.577
			c0.404,0,0.706,0.112,0.906,0.339c0.2,0.226,0.3,0.581,0.3,1.064l-0.023,0.342h-1.98c0,0.332,0.061,0.578,0.18,0.738
			c0.12,0.16,0.329,0.24,0.628,0.24C50.326,67.997,50.629,67.985,50.937,67.961z M50.774,66.659c0-0.368-0.059-0.628-0.177-0.78
			s-0.31-0.228-0.576-0.228c-0.266,0-0.466,0.08-0.6,0.239c-0.134,0.16-0.203,0.416-0.207,0.769H50.774z"/>
		<path fill="#4D4D4D" d="M52.377,68.333h-0.45v-3h0.444v0.21c0.324-0.18,0.634-0.27,0.93-0.27c0.4,0,0.669,0.107,0.808,0.323
			c0.138,0.217,0.207,0.601,0.207,1.152v1.584h-0.444v-1.572c0-0.416-0.041-0.701-0.123-0.854c-0.082-0.154-0.257-0.231-0.525-0.231
			c-0.128,0-0.263,0.02-0.404,0.058c-0.143,0.038-0.251,0.074-0.327,0.11l-0.114,0.055V68.333z"/>
		<path fill="#4D4D4D" d="M58.341,65.333h0.45v3h-0.45v-0.21c-0.3,0.18-0.596,0.27-0.888,0.27c-0.408,0-0.679-0.105-0.813-0.317
			c-0.134-0.212-0.2-0.604-0.2-1.176v-1.566h0.449v1.56c0,0.437,0.038,0.729,0.114,0.876c0.076,0.148,0.248,0.223,0.517,0.223
			c0.132,0,0.266-0.02,0.401-0.058c0.136-0.037,0.24-0.074,0.312-0.11l0.107-0.055V65.333z"/>
		<path fill="#4D4D4D" d="M60.104,68.333h-0.45v-3h0.444v0.21c0.324-0.18,0.634-0.27,0.93-0.27c0.4,0,0.669,0.107,0.808,0.323
			c0.138,0.217,0.207,0.601,0.207,1.152v1.584h-0.444v-1.572c0-0.416-0.041-0.701-0.123-0.854c-0.082-0.154-0.257-0.231-0.525-0.231
			c-0.128,0-0.263,0.02-0.404,0.058c-0.143,0.038-0.251,0.074-0.327,0.11l-0.114,0.055V68.333z"/>
		<path fill="#4D4D4D" d="M65.182,64.025v4.308h-0.444v-0.204c-0.308,0.176-0.612,0.264-0.912,0.264c-0.16,0-0.3-0.02-0.42-0.06
			s-0.232-0.112-0.336-0.216c-0.216-0.216-0.324-0.615-0.324-1.197s0.097-1.002,0.291-1.26s0.516-0.387,0.963-0.387
			c0.232,0,0.479,0.025,0.738,0.077v-1.325H65.182z M63.621,67.949c0.072,0.027,0.165,0.042,0.279,0.042s0.242-0.02,0.384-0.058
			c0.142-0.037,0.253-0.074,0.333-0.11l0.12-0.055v-2.033c-0.256-0.049-0.494-0.072-0.714-0.072c-0.304,0-0.517,0.097-0.636,0.291
			c-0.12,0.194-0.181,0.495-0.181,0.903c0,0.464,0.07,0.775,0.21,0.936C63.481,67.869,63.549,67.921,63.621,67.949z"/>
		<path fill="#4D4D4D" d="M16.773,75.16l0.175-0.018l0.012,0.354c-0.456,0.064-0.847,0.096-1.17,0.096
			c-0.433,0-0.738-0.125-0.918-0.375c-0.181-0.249-0.271-0.639-0.271-1.167c0-1.052,0.418-1.577,1.254-1.577
			c0.404,0,0.706,0.112,0.906,0.339c0.2,0.226,0.3,0.581,0.3,1.064l-0.023,0.342h-1.98c0,0.332,0.061,0.578,0.18,0.738
			c0.12,0.16,0.329,0.24,0.628,0.24C16.163,75.196,16.466,75.185,16.773,75.16z M16.611,73.858c0-0.368-0.059-0.628-0.177-0.78
			s-0.31-0.228-0.576-0.228c-0.266,0-0.466,0.08-0.6,0.239c-0.134,0.16-0.203,0.416-0.207,0.769H16.611z"/>
		<path fill="#4D4D4D" d="M18.214,75.532h-0.45v-3h0.444v0.21c0.324-0.18,0.634-0.27,0.93-0.27c0.4,0,0.669,0.107,0.808,0.323
			c0.138,0.217,0.207,0.601,0.207,1.152v1.584h-0.444V73.96c0-0.416-0.041-0.701-0.123-0.854c-0.082-0.154-0.257-0.231-0.525-0.231
			c-0.128,0-0.263,0.02-0.404,0.058c-0.143,0.038-0.251,0.074-0.327,0.11l-0.114,0.055V75.532z"/>
		<path fill="#4D4D4D" d="M22.522,72.922h-0.954v1.435c0,0.344,0.024,0.569,0.075,0.678c0.05,0.108,0.169,0.162,0.356,0.162
			l0.534-0.036l0.03,0.372c-0.269,0.044-0.473,0.066-0.612,0.066c-0.312,0-0.528-0.076-0.648-0.229
			c-0.119-0.152-0.18-0.441-0.18-0.87v-1.578h-0.426v-0.39h0.426v-0.918h0.444v0.918h0.954V72.922z"/>
		<path fill="#4D4D4D" d="M24.231,76.942c-0.479,0-0.814-0.065-1.005-0.195s-0.285-0.367-0.285-0.711
			c0-0.164,0.036-0.297,0.108-0.398c0.072-0.103,0.193-0.218,0.366-0.346c-0.112-0.076-0.168-0.214-0.168-0.414
			c0-0.067,0.05-0.193,0.149-0.378l0.054-0.096c-0.315-0.145-0.474-0.446-0.474-0.906c0-0.684,0.374-1.025,1.122-1.025
			c0.192,0,0.37,0.02,0.534,0.06l0.09,0.018l0.888-0.023v0.384l-0.569-0.012c0.132,0.132,0.197,0.332,0.197,0.6
			c0,0.376-0.093,0.64-0.278,0.789c-0.187,0.15-0.479,0.226-0.879,0.226c-0.108,0-0.206-0.009-0.294-0.024
			c-0.072,0.176-0.108,0.29-0.108,0.342c0,0.124,0.038,0.201,0.114,0.231c0.075,0.029,0.306,0.045,0.689,0.045s0.66,0.06,0.828,0.18
			s0.252,0.354,0.252,0.702C25.563,76.624,25.119,76.942,24.231,76.942z M23.386,76c0,0.212,0.059,0.359,0.177,0.441
			s0.336,0.123,0.654,0.123c0.317,0,0.546-0.044,0.684-0.132c0.139-0.089,0.207-0.235,0.207-0.441s-0.05-0.339-0.149-0.399
			c-0.101-0.06-0.297-0.09-0.589-0.09l-0.647-0.029c-0.132,0.096-0.221,0.18-0.267,0.252C23.408,75.796,23.386,75.889,23.386,76z
			 M23.428,73.498c0,0.236,0.053,0.404,0.159,0.504c0.105,0.101,0.28,0.15,0.524,0.15s0.418-0.05,0.522-0.15
			c0.104-0.1,0.156-0.269,0.156-0.507s-0.053-0.407-0.156-0.507c-0.104-0.1-0.278-0.15-0.522-0.15s-0.419,0.052-0.524,0.153
			C23.48,73.093,23.428,73.263,23.428,73.498z"/>
		<path fill="#4D4D4D" d="M28.197,75.16l0.175-0.018l0.012,0.354c-0.456,0.064-0.847,0.096-1.17,0.096
			c-0.433,0-0.738-0.125-0.918-0.375c-0.181-0.249-0.271-0.639-0.271-1.167c0-1.052,0.418-1.577,1.254-1.577
			c0.404,0,0.706,0.112,0.906,0.339c0.2,0.226,0.3,0.581,0.3,1.064l-0.023,0.342h-1.98c0,0.332,0.061,0.578,0.18,0.738
			c0.12,0.16,0.329,0.24,0.628,0.24C27.587,75.196,27.89,75.185,28.197,75.16z M28.035,73.858c0-0.368-0.059-0.628-0.177-0.78
			s-0.31-0.228-0.576-0.228c-0.266,0-0.466,0.08-0.6,0.239c-0.134,0.16-0.203,0.416-0.207,0.769H28.035z"/>
		<path fill="#4D4D4D" d="M30.346,76.942c-0.479,0-0.814-0.065-1.005-0.195s-0.285-0.367-0.285-0.711
			c0-0.164,0.036-0.297,0.108-0.398c0.072-0.103,0.193-0.218,0.366-0.346c-0.112-0.076-0.168-0.214-0.168-0.414
			c0-0.067,0.05-0.193,0.149-0.378l0.054-0.096c-0.315-0.145-0.474-0.446-0.474-0.906c0-0.684,0.374-1.025,1.122-1.025
			c0.192,0,0.37,0.02,0.534,0.06l0.09,0.018l0.888-0.023v0.384l-0.569-0.012c0.132,0.132,0.197,0.332,0.197,0.6
			c0,0.376-0.093,0.64-0.278,0.789c-0.187,0.15-0.479,0.226-0.879,0.226c-0.108,0-0.206-0.009-0.294-0.024
			c-0.072,0.176-0.108,0.29-0.108,0.342c0,0.124,0.038,0.201,0.114,0.231c0.075,0.029,0.306,0.045,0.689,0.045s0.66,0.06,0.828,0.18
			s0.252,0.354,0.252,0.702C31.678,76.624,31.233,76.942,30.346,76.942z M29.5,76c0,0.212,0.059,0.359,0.177,0.441
			s0.336,0.123,0.654,0.123c0.317,0,0.546-0.044,0.684-0.132c0.139-0.089,0.207-0.235,0.207-0.441s-0.05-0.339-0.149-0.399
			c-0.101-0.06-0.297-0.09-0.589-0.09l-0.647-0.029c-0.132,0.096-0.221,0.18-0.267,0.252C29.522,75.796,29.5,75.889,29.5,76z
			 M29.542,73.498c0,0.236,0.053,0.404,0.159,0.504c0.105,0.101,0.28,0.15,0.524,0.15s0.418-0.05,0.522-0.15
			c0.104-0.1,0.156-0.269,0.156-0.507s-0.053-0.407-0.156-0.507c-0.104-0.1-0.278-0.15-0.522-0.15s-0.419,0.052-0.524,0.153
			C29.595,73.093,29.542,73.263,29.542,73.498z"/>
		<path fill="#4D4D4D" d="M34.312,75.16l0.175-0.018l0.012,0.354c-0.456,0.064-0.847,0.096-1.17,0.096
			c-0.433,0-0.738-0.125-0.918-0.375c-0.181-0.249-0.271-0.639-0.271-1.167c0-1.052,0.418-1.577,1.254-1.577
			c0.404,0,0.706,0.112,0.906,0.339c0.2,0.226,0.3,0.581,0.3,1.064l-0.023,0.342h-1.98c0,0.332,0.061,0.578,0.18,0.738
			c0.12,0.16,0.329,0.24,0.628,0.24C33.701,75.196,34.004,75.185,34.312,75.16z M34.149,73.858c0-0.368-0.059-0.628-0.177-0.78
			s-0.31-0.228-0.576-0.228c-0.266,0-0.466,0.08-0.6,0.239c-0.134,0.16-0.203,0.416-0.207,0.769H34.149z"/>
		<path fill="#4D4D4D" d="M35.751,75.532h-0.45v-3h0.444v0.21c0.324-0.18,0.634-0.27,0.93-0.27c0.4,0,0.669,0.107,0.808,0.323
			c0.138,0.217,0.207,0.601,0.207,1.152v1.584h-0.444V73.96c0-0.416-0.041-0.701-0.123-0.854c-0.082-0.154-0.257-0.231-0.525-0.231
			c-0.128,0-0.263,0.02-0.404,0.058c-0.143,0.038-0.251,0.074-0.327,0.11l-0.114,0.055V75.532z"/>
		<path fill="#4D4D4D" d="M39.682,76.942c-0.479,0-0.814-0.065-1.005-0.195s-0.285-0.367-0.285-0.711
			c0-0.164,0.036-0.297,0.108-0.398c0.072-0.103,0.193-0.218,0.366-0.346c-0.112-0.076-0.168-0.214-0.168-0.414
			c0-0.067,0.05-0.193,0.149-0.378l0.054-0.096c-0.315-0.145-0.474-0.446-0.474-0.906c0-0.684,0.374-1.025,1.122-1.025
			c0.192,0,0.37,0.02,0.534,0.06l0.09,0.018l0.888-0.023v0.384l-0.569-0.012c0.132,0.132,0.197,0.332,0.197,0.6
			c0,0.376-0.093,0.64-0.278,0.789c-0.187,0.15-0.479,0.226-0.879,0.226c-0.108,0-0.206-0.009-0.294-0.024
			c-0.072,0.176-0.108,0.29-0.108,0.342c0,0.124,0.038,0.201,0.114,0.231c0.075,0.029,0.306,0.045,0.689,0.045s0.66,0.06,0.828,0.18
			s0.252,0.354,0.252,0.702C41.014,76.624,40.569,76.942,39.682,76.942z M38.836,76c0,0.212,0.059,0.359,0.177,0.441
			s0.336,0.123,0.654,0.123c0.317,0,0.546-0.044,0.684-0.132c0.139-0.089,0.207-0.235,0.207-0.441s-0.05-0.339-0.149-0.399
			c-0.101-0.06-0.297-0.09-0.589-0.09l-0.647-0.029c-0.132,0.096-0.221,0.18-0.267,0.252C38.858,75.796,38.836,75.889,38.836,76z
			 M38.878,73.498c0,0.236,0.053,0.404,0.159,0.504c0.105,0.101,0.28,0.15,0.524,0.15s0.418-0.05,0.522-0.15
			c0.104-0.1,0.156-0.269,0.156-0.507s-0.053-0.407-0.156-0.507c-0.104-0.1-0.278-0.15-0.522-0.15s-0.419,0.052-0.524,0.153
			C38.931,73.093,38.878,73.263,38.878,73.498z"/>
		<path fill="#4D4D4D" d="M43.647,75.16l0.175-0.018l0.012,0.354c-0.456,0.064-0.847,0.096-1.17,0.096
			c-0.433,0-0.738-0.125-0.918-0.375c-0.181-0.249-0.271-0.639-0.271-1.167c0-1.052,0.418-1.577,1.254-1.577
			c0.404,0,0.706,0.112,0.906,0.339c0.2,0.226,0.3,0.581,0.3,1.064l-0.023,0.342h-1.98c0,0.332,0.061,0.578,0.18,0.738
			c0.12,0.16,0.329,0.24,0.628,0.24C43.037,75.196,43.34,75.185,43.647,75.16z M43.485,73.858c0-0.368-0.059-0.628-0.177-0.78
			s-0.31-0.228-0.576-0.228c-0.266,0-0.466,0.08-0.6,0.239c-0.134,0.16-0.203,0.416-0.207,0.769H43.485z"/>
		<path fill="#4D4D4D" d="M45.579,72.874c-0.437,0-0.654,0.152-0.654,0.456c0,0.141,0.05,0.239,0.15,0.297
			c0.1,0.059,0.328,0.118,0.684,0.181c0.356,0.062,0.608,0.148,0.756,0.261c0.148,0.112,0.223,0.322,0.223,0.63
			s-0.1,0.534-0.297,0.678c-0.198,0.145-0.487,0.216-0.867,0.216c-0.248,0-0.54-0.027-0.876-0.084l-0.181-0.029l0.024-0.391
			c0.456,0.068,0.8,0.103,1.032,0.103c0.231,0,0.409-0.037,0.531-0.111c0.121-0.074,0.183-0.198,0.183-0.372
			s-0.052-0.292-0.156-0.354c-0.104-0.062-0.332-0.121-0.684-0.178c-0.353-0.056-0.603-0.138-0.75-0.245
			c-0.148-0.108-0.223-0.309-0.223-0.601s0.104-0.508,0.31-0.647c0.206-0.141,0.463-0.21,0.771-0.21
			c0.244,0,0.551,0.027,0.918,0.084l0.168,0.029l-0.012,0.385C46.186,72.906,45.835,72.874,45.579,72.874z"/>
		<path fill="#4D4D4D" d="M49.467,75.16l0.175-0.018l0.012,0.354c-0.456,0.064-0.847,0.096-1.17,0.096
			c-0.433,0-0.738-0.125-0.918-0.375c-0.181-0.249-0.271-0.639-0.271-1.167c0-1.052,0.418-1.577,1.254-1.577
			c0.404,0,0.706,0.112,0.906,0.339c0.2,0.226,0.3,0.581,0.3,1.064l-0.023,0.342h-1.98c0,0.332,0.061,0.578,0.18,0.738
			c0.12,0.16,0.329,0.24,0.628,0.24C48.856,75.196,49.159,75.185,49.467,75.16z M49.305,73.858c0-0.368-0.059-0.628-0.177-0.78
			s-0.31-0.228-0.576-0.228c-0.266,0-0.466,0.08-0.6,0.239c-0.134,0.16-0.203,0.416-0.207,0.769H49.305z"/>
		<path fill="#4D4D4D" d="M51.993,72.922h-0.954v1.435c0,0.344,0.024,0.569,0.075,0.678c0.05,0.108,0.169,0.162,0.356,0.162
			l0.534-0.036l0.03,0.372c-0.269,0.044-0.473,0.066-0.612,0.066c-0.312,0-0.528-0.076-0.648-0.229
			c-0.119-0.152-0.18-0.441-0.18-0.87v-1.578h-0.426v-0.39h0.426v-0.918h0.444v0.918h0.954V72.922z"/>
		<path fill="#4D4D4D" d="M52.365,72.935v-0.402h2.226v0.402l-1.68,2.195h1.68v0.402h-2.226V75.13l1.68-2.195H52.365z"/>
		<path fill="#4D4D4D" d="M56.829,72.922h-0.954v1.435c0,0.344,0.024,0.569,0.075,0.678c0.05,0.108,0.169,0.162,0.356,0.162
			l0.534-0.036l0.03,0.372c-0.269,0.044-0.473,0.066-0.612,0.066c-0.312,0-0.528-0.076-0.648-0.229
			c-0.119-0.152-0.18-0.441-0.18-0.87v-1.578h-0.426v-0.39h0.426v-0.918h0.444v0.918h0.954V72.922z"/>
	</g>
</g>
<g>
	<g>
		<path fill="#4D4D4D" d="M78.934,138.349h-0.45v-4.308h0.45v1.476c0.32-0.152,0.628-0.228,0.924-0.228
			c0.4,0,0.669,0.107,0.808,0.323c0.138,0.217,0.207,0.601,0.207,1.152v1.584h-0.45v-1.572c0-0.416-0.041-0.701-0.123-0.854
			c-0.082-0.154-0.255-0.231-0.52-0.231c-0.252,0-0.495,0.046-0.731,0.139l-0.114,0.042V138.349z"/>
		<path fill="#4D4D4D" d="M82.86,135.289c0.466,0,0.796,0.122,0.99,0.365c0.193,0.244,0.291,0.641,0.291,1.188
			s-0.092,0.946-0.276,1.194c-0.184,0.248-0.52,0.371-1.008,0.371s-0.824-0.123-1.008-0.371c-0.185-0.248-0.276-0.646-0.276-1.194
			s0.099-0.944,0.294-1.188C82.063,135.411,82.395,135.289,82.86,135.289z M82.023,134.623v-0.54h0.432v0.54H82.023z M82.86,138.019
			c0.338,0,0.559-0.087,0.663-0.261c0.104-0.174,0.156-0.481,0.156-0.921c0-0.44-0.059-0.743-0.174-0.909
			c-0.116-0.166-0.331-0.249-0.646-0.249s-0.53,0.083-0.647,0.249c-0.118,0.166-0.178,0.468-0.178,0.906
			c0,0.438,0.054,0.745,0.159,0.921C82.301,137.931,82.522,138.019,82.86,138.019z M83.224,134.623v-0.54h0.438v0.54H83.224z"/>
		<path fill="#4D4D4D" d="M85.323,138.349h-0.45v-4.308h0.45v1.476c0.32-0.152,0.628-0.228,0.924-0.228
			c0.4,0,0.669,0.107,0.808,0.323c0.138,0.217,0.207,0.601,0.207,1.152v1.584h-0.45v-1.572c0-0.416-0.041-0.701-0.123-0.854
			c-0.082-0.154-0.255-0.231-0.52-0.231c-0.252,0-0.495,0.046-0.731,0.139l-0.114,0.042V138.349z"/>
		<path fill="#4D4D4D" d="M90.136,137.977l0.175-0.018l0.012,0.354c-0.456,0.064-0.847,0.096-1.17,0.096
			c-0.433,0-0.738-0.125-0.918-0.375c-0.181-0.249-0.271-0.639-0.271-1.167c0-1.052,0.418-1.577,1.254-1.577
			c0.404,0,0.706,0.112,0.906,0.339c0.2,0.226,0.3,0.581,0.3,1.064l-0.023,0.342h-1.98c0,0.332,0.061,0.578,0.18,0.738
			c0.12,0.16,0.329,0.24,0.628,0.24C89.525,138.013,89.828,138.001,90.136,137.977z M89.974,136.675c0-0.368-0.059-0.628-0.177-0.78
			s-0.31-0.228-0.576-0.228c-0.266,0-0.466,0.08-0.6,0.239c-0.134,0.16-0.203,0.416-0.207,0.769H89.974z"/>
		<path fill="#4D4D4D" d="M91.125,138.349v-3h0.444v0.408c0.348-0.24,0.714-0.398,1.098-0.475v0.456
			c-0.168,0.032-0.343,0.082-0.524,0.15c-0.183,0.068-0.321,0.128-0.417,0.18l-0.15,0.078v2.202H91.125z"/>
		<path fill="#4D4D4D" d="M95.182,137.977l0.175-0.018l0.012,0.354c-0.456,0.064-0.847,0.096-1.17,0.096
			c-0.433,0-0.738-0.125-0.918-0.375c-0.181-0.249-0.271-0.639-0.271-1.167c0-1.052,0.418-1.577,1.254-1.577
			c0.404,0,0.706,0.112,0.906,0.339c0.2,0.226,0.3,0.581,0.3,1.064l-0.023,0.342h-1.98c0,0.332,0.061,0.578,0.18,0.738
			c0.12,0.16,0.329,0.24,0.628,0.24C94.571,138.013,94.874,138.001,95.182,137.977z M95.02,136.675c0-0.368-0.059-0.628-0.177-0.78
			s-0.31-0.228-0.576-0.228c-0.266,0-0.466,0.08-0.6,0.239c-0.134,0.16-0.203,0.416-0.207,0.769H95.02z"/>
		<path fill="#4D4D4D" d="M98.031,136.759v1.59h-0.462v-4.152h1.536c0.44,0,0.771,0.103,0.993,0.307s0.333,0.521,0.333,0.954
			c0,0.64-0.254,1.042-0.762,1.206l0.798,1.686h-0.51l-0.75-1.59H98.031z M99.111,136.351c0.564,0,0.847-0.291,0.847-0.873
			s-0.284-0.873-0.853-0.873h-1.074v1.746H99.111z"/>
		<path fill="#4D4D4D" d="M103.173,137.977l0.175-0.018l0.012,0.354c-0.456,0.064-0.847,0.096-1.17,0.096
			c-0.433,0-0.738-0.125-0.918-0.375c-0.181-0.249-0.271-0.639-0.271-1.167c0-1.052,0.418-1.577,1.254-1.577
			c0.404,0,0.706,0.112,0.906,0.339c0.2,0.226,0.3,0.581,0.3,1.064l-0.023,0.342h-1.98c0,0.332,0.061,0.578,0.18,0.738
			c0.12,0.16,0.329,0.24,0.628,0.24C102.562,138.013,102.865,138.001,103.173,137.977z M103.011,136.675
			c0-0.368-0.059-0.628-0.177-0.78s-0.31-0.228-0.576-0.228c-0.266,0-0.466,0.08-0.6,0.239c-0.134,0.16-0.203,0.416-0.207,0.769
			H103.011z"/>
		<path fill="#4D4D4D" d="M104.613,138.349h-0.45v-3h0.444v0.21c0.324-0.18,0.634-0.27,0.93-0.27c0.4,0,0.669,0.107,0.808,0.323
			c0.138,0.217,0.207,0.601,0.207,1.152v1.584h-0.444v-1.572c0-0.416-0.041-0.701-0.123-0.854c-0.082-0.154-0.257-0.231-0.525-0.231
			c-0.128,0-0.263,0.02-0.404,0.058c-0.143,0.038-0.251,0.074-0.327,0.11l-0.114,0.055V138.349z"/>
		<path fill="#4D4D4D" d="M109.689,134.041v4.308h-0.444v-0.204c-0.308,0.176-0.612,0.264-0.912,0.264c-0.16,0-0.3-0.02-0.42-0.06
			s-0.232-0.112-0.336-0.216c-0.216-0.216-0.324-0.615-0.324-1.197s0.097-1.002,0.291-1.26s0.516-0.387,0.963-0.387
			c0.232,0,0.479,0.025,0.738,0.077v-1.325H109.689z M108.129,137.965c0.072,0.027,0.165,0.042,0.279,0.042s0.242-0.02,0.384-0.058
			c0.142-0.037,0.253-0.074,0.333-0.11l0.12-0.055v-2.033c-0.256-0.049-0.494-0.072-0.714-0.072c-0.304,0-0.517,0.097-0.636,0.291
			c-0.12,0.194-0.181,0.495-0.181,0.903c0,0.464,0.07,0.775,0.21,0.936C107.989,137.885,108.057,137.937,108.129,137.965z"/>
		<path fill="#4D4D4D" d="M110.559,134.671v-0.522h0.45v0.522H110.559z M110.559,138.349v-3h0.45v3H110.559z"/>
		<path fill="#4D4D4D" d="M113.428,135.738h-0.954v1.435c0,0.344,0.024,0.569,0.075,0.678c0.05,0.108,0.169,0.162,0.356,0.162
			l0.534-0.036l0.03,0.372c-0.269,0.044-0.473,0.066-0.612,0.066c-0.312,0-0.528-0.076-0.648-0.229
			c-0.119-0.152-0.18-0.441-0.18-0.87v-1.578h-0.426v-0.39h0.426v-0.918h0.444v0.918h0.954V135.738z"/>
		<path fill="#4D4D4D" d="M116.019,137.977l0.175-0.018l0.012,0.354c-0.456,0.064-0.847,0.096-1.17,0.096
			c-0.433,0-0.738-0.125-0.918-0.375c-0.181-0.249-0.271-0.639-0.271-1.167c0-1.052,0.418-1.577,1.254-1.577
			c0.404,0,0.706,0.112,0.906,0.339c0.2,0.226,0.3,0.581,0.3,1.064l-0.023,0.342h-1.98c0,0.332,0.061,0.578,0.18,0.738
			c0.12,0.16,0.329,0.24,0.628,0.24C115.408,138.013,115.711,138.001,116.019,137.977z M115.856,136.675
			c0-0.368-0.059-0.628-0.177-0.78s-0.31-0.228-0.576-0.228c-0.266,0-0.466,0.08-0.6,0.239c-0.134,0.16-0.203,0.416-0.207,0.769
			H115.856z"/>
		<path fill="#4D4D4D" d="M117.459,138.349h-0.45v-3h0.444v0.21c0.324-0.18,0.634-0.27,0.93-0.27c0.4,0,0.669,0.107,0.808,0.323
			c0.138,0.217,0.207,0.601,0.207,1.152v1.584h-0.444v-1.572c0-0.416-0.041-0.701-0.123-0.854c-0.082-0.154-0.257-0.231-0.525-0.231
			c-0.128,0-0.263,0.02-0.404,0.058c-0.143,0.038-0.251,0.074-0.327,0.11l-0.114,0.055V138.349z"/>
		<path fill="#4D4D4D" d="M121.27,135.349h0.479l0.702,2.61h0.222l0.727-2.61h0.462l-0.846,3h-0.9L121.27,135.349z"/>
		<path fill="#4D4D4D" d="M126.423,137.977l0.175-0.018l0.012,0.354c-0.456,0.064-0.847,0.096-1.17,0.096
			c-0.433,0-0.738-0.125-0.918-0.375c-0.181-0.249-0.271-0.639-0.271-1.167c0-1.052,0.418-1.577,1.254-1.577
			c0.404,0,0.706,0.112,0.906,0.339c0.2,0.226,0.3,0.581,0.3,1.064l-0.023,0.342h-1.98c0,0.332,0.061,0.578,0.18,0.738
			c0.12,0.16,0.329,0.24,0.628,0.24C125.812,138.013,126.115,138.001,126.423,137.977z M126.261,136.675
			c0-0.368-0.059-0.628-0.177-0.78s-0.31-0.228-0.576-0.228c-0.266,0-0.466,0.08-0.6,0.239c-0.134,0.16-0.203,0.416-0.207,0.769
			H126.261z"/>
		<path fill="#4D4D4D" d="M127.412,138.349v-3h0.444v0.408c0.348-0.24,0.714-0.398,1.098-0.475v0.456
			c-0.168,0.032-0.343,0.082-0.524,0.15c-0.183,0.068-0.321,0.128-0.417,0.18l-0.15,0.078v2.202H127.412z"/>
		<path fill="#4D4D4D" d="M129.189,136.908v-0.42h1.817v0.42H129.189z"/>
		<path fill="#4D4D4D" d="M78.52,145.549v-4.308h0.45v4.308H78.52z"/>
		<path fill="#4D4D4D" d="M81.987,143.455v1.536c0.012,0.147,0.128,0.235,0.349,0.264l-0.019,0.354
			c-0.315,0-0.554-0.079-0.714-0.239c-0.36,0.16-0.72,0.239-1.08,0.239c-0.276,0-0.486-0.077-0.63-0.233
			c-0.145-0.156-0.216-0.38-0.216-0.672s0.074-0.507,0.222-0.646c0.148-0.138,0.38-0.223,0.696-0.255l0.941-0.09v-0.258
			c0-0.204-0.044-0.351-0.132-0.438s-0.208-0.132-0.359-0.132c-0.32,0-0.652,0.021-0.996,0.061l-0.187,0.018l-0.018-0.342
			c0.439-0.088,0.83-0.132,1.17-0.132s0.587,0.077,0.741,0.233C81.91,142.879,81.987,143.123,81.987,143.455z M80.14,144.679
			c0,0.368,0.151,0.552,0.456,0.552c0.271,0,0.54-0.046,0.804-0.138l0.138-0.048v-0.99l-0.888,0.084
			c-0.18,0.017-0.31,0.068-0.39,0.156S80.14,144.511,80.14,144.679z"/>
		<path fill="#4D4D4D" d="M83.325,145.549h-0.45v-3h0.444v0.21c0.324-0.18,0.634-0.27,0.93-0.27c0.4,0,0.669,0.107,0.808,0.323
			c0.138,0.217,0.207,0.601,0.207,1.152v1.584h-0.444v-1.572c0-0.416-0.041-0.701-0.123-0.854c-0.082-0.154-0.257-0.231-0.525-0.231
			c-0.128,0-0.263,0.02-0.404,0.058c-0.143,0.038-0.251,0.074-0.327,0.11l-0.114,0.055V145.549z"/>
		<path fill="#4D4D4D" d="M87.256,146.959c-0.479,0-0.814-0.065-1.005-0.195s-0.285-0.367-0.285-0.711
			c0-0.164,0.036-0.297,0.108-0.398c0.072-0.103,0.193-0.218,0.366-0.346c-0.112-0.076-0.168-0.214-0.168-0.414
			c0-0.067,0.05-0.193,0.149-0.378l0.054-0.096c-0.315-0.145-0.474-0.446-0.474-0.906c0-0.684,0.374-1.025,1.122-1.025
			c0.192,0,0.37,0.02,0.534,0.06l0.09,0.018l0.888-0.023v0.384l-0.569-0.012c0.132,0.132,0.197,0.332,0.197,0.6
			c0,0.376-0.093,0.64-0.278,0.789c-0.187,0.15-0.479,0.226-0.879,0.226c-0.108,0-0.206-0.009-0.294-0.024
			c-0.072,0.176-0.108,0.29-0.108,0.342c0,0.124,0.038,0.201,0.114,0.231c0.075,0.029,0.306,0.045,0.689,0.045s0.66,0.06,0.828,0.18
			s0.252,0.354,0.252,0.702C88.588,146.641,88.144,146.959,87.256,146.959z M86.41,146.017c0,0.212,0.059,0.359,0.177,0.441
			s0.336,0.123,0.654,0.123c0.317,0,0.546-0.044,0.684-0.132c0.139-0.089,0.207-0.235,0.207-0.441s-0.05-0.339-0.149-0.399
			c-0.101-0.06-0.297-0.09-0.589-0.09l-0.647-0.029c-0.132,0.096-0.221,0.18-0.267,0.252
			C86.433,145.812,86.41,145.905,86.41,146.017z M86.452,143.515c0,0.236,0.053,0.404,0.159,0.504c0.105,0.101,0.28,0.15,0.524,0.15
			s0.418-0.05,0.522-0.15c0.104-0.1,0.156-0.269,0.156-0.507s-0.053-0.407-0.156-0.507c-0.104-0.1-0.278-0.15-0.522-0.15
			s-0.419,0.052-0.524,0.153C86.505,143.109,86.452,143.279,86.452,143.515z"/>
		<path fill="#4D4D4D" d="M91.221,145.177l0.175-0.018l0.012,0.354c-0.456,0.064-0.847,0.096-1.17,0.096
			c-0.433,0-0.738-0.125-0.918-0.375c-0.181-0.249-0.271-0.639-0.271-1.167c0-1.052,0.418-1.577,1.254-1.577
			c0.404,0,0.706,0.112,0.906,0.339c0.2,0.226,0.3,0.581,0.3,1.064l-0.023,0.342h-1.98c0,0.332,0.061,0.578,0.18,0.738
			c0.12,0.16,0.329,0.24,0.628,0.24C90.61,145.213,90.913,145.201,91.221,145.177z M91.059,143.875c0-0.368-0.059-0.628-0.177-0.78
			s-0.31-0.228-0.576-0.228c-0.266,0-0.466,0.08-0.6,0.239c-0.134,0.16-0.203,0.416-0.207,0.769H91.059z"/>
		<path fill="#4D4D4D" d="M92.661,145.549h-0.45v-3h0.444v0.21c0.324-0.18,0.634-0.27,0.93-0.27c0.4,0,0.669,0.107,0.808,0.323
			c0.138,0.217,0.207,0.601,0.207,1.152v1.584h-0.444v-1.572c0-0.416-0.041-0.701-0.123-0.854c-0.082-0.154-0.257-0.231-0.525-0.231
			c-0.128,0-0.263,0.02-0.404,0.058c-0.143,0.038-0.251,0.074-0.327,0.11l-0.114,0.055V145.549z"/>
		<path fill="#4D4D4D" d="M96.753,141.871v-0.522h0.45v0.522H96.753z M96.753,145.549v-3h0.45v3H96.753z"/>
		<path fill="#4D4D4D" d="M98.518,145.549h-0.45v-3h0.444v0.21c0.324-0.18,0.634-0.27,0.93-0.27c0.4,0,0.669,0.107,0.808,0.323
			c0.138,0.217,0.207,0.601,0.207,1.152v1.584h-0.444v-1.572c0-0.416-0.041-0.701-0.123-0.854c-0.082-0.154-0.257-0.231-0.525-0.231
			c-0.128,0-0.263,0.02-0.404,0.058c-0.143,0.038-0.251,0.074-0.327,0.11l-0.114,0.055V145.549z"/>
		<path fill="#4D4D4D" d="M104.913,141.241v4.308h-0.444v-0.204c-0.308,0.176-0.612,0.264-0.912,0.264c-0.16,0-0.3-0.02-0.42-0.06
			s-0.232-0.112-0.336-0.216c-0.216-0.216-0.324-0.615-0.324-1.197s0.097-1.002,0.291-1.26s0.516-0.387,0.963-0.387
			c0.232,0,0.479,0.025,0.738,0.077v-1.325H104.913z M103.353,145.165c0.072,0.027,0.165,0.042,0.279,0.042s0.242-0.02,0.384-0.058
			c0.142-0.037,0.253-0.074,0.333-0.11l0.12-0.055v-2.033c-0.256-0.049-0.494-0.072-0.714-0.072c-0.304,0-0.517,0.097-0.636,0.291
			c-0.12,0.194-0.181,0.495-0.181,0.903c0,0.464,0.07,0.775,0.21,0.936C103.213,145.085,103.28,145.137,103.353,145.165z"/>
		<path fill="#4D4D4D" d="M107.822,145.177l0.175-0.018l0.012,0.354c-0.456,0.064-0.847,0.096-1.17,0.096
			c-0.433,0-0.738-0.125-0.918-0.375c-0.181-0.249-0.271-0.639-0.271-1.167c0-1.052,0.418-1.577,1.254-1.577
			c0.404,0,0.706,0.112,0.906,0.339c0.2,0.226,0.3,0.581,0.3,1.064l-0.023,0.342h-1.98c0,0.332,0.061,0.578,0.18,0.738
			c0.12,0.16,0.329,0.24,0.628,0.24C107.212,145.213,107.515,145.201,107.822,145.177z M107.66,143.875
			c0-0.368-0.059-0.628-0.177-0.78s-0.31-0.228-0.576-0.228c-0.266,0-0.466,0.08-0.6,0.239c-0.134,0.16-0.203,0.416-0.207,0.769
			H107.66z"/>
		<path fill="#4D4D4D" d="M108.812,145.549v-3h0.444v0.408c0.348-0.24,0.714-0.398,1.098-0.475v0.456
			c-0.168,0.032-0.343,0.082-0.524,0.15c-0.183,0.068-0.321,0.128-0.417,0.18l-0.15,0.078v2.202H108.812z"/>
		<path fill="#4D4D4D" d="M112.748,143.959v1.59h-0.462v-4.152h1.536c0.44,0,0.771,0.103,0.993,0.307s0.333,0.521,0.333,0.954
			c0,0.64-0.254,1.042-0.762,1.206l0.798,1.686h-0.51l-0.75-1.59H112.748z M113.828,143.551c0.564,0,0.847-0.291,0.847-0.873
			s-0.284-0.873-0.853-0.873h-1.074v1.746H113.828z"/>
		<path fill="#4D4D4D" d="M117.891,145.177l0.175-0.018l0.012,0.354c-0.456,0.064-0.847,0.096-1.17,0.096
			c-0.433,0-0.738-0.125-0.918-0.375c-0.181-0.249-0.271-0.639-0.271-1.167c0-1.052,0.418-1.577,1.254-1.577
			c0.404,0,0.706,0.112,0.906,0.339c0.2,0.226,0.3,0.581,0.3,1.064l-0.023,0.342h-1.98c0,0.332,0.061,0.578,0.18,0.738
			c0.12,0.16,0.329,0.24,0.628,0.24C117.28,145.213,117.583,145.201,117.891,145.177z M117.729,143.875
			c0-0.368-0.059-0.628-0.177-0.78s-0.31-0.228-0.576-0.228c-0.266,0-0.466,0.08-0.6,0.239c-0.134,0.16-0.203,0.416-0.207,0.769
			H117.729z"/>
		<path fill="#4D4D4D" d="M120.039,146.959c-0.479,0-0.814-0.065-1.005-0.195s-0.285-0.367-0.285-0.711
			c0-0.164,0.036-0.297,0.108-0.398c0.072-0.103,0.193-0.218,0.366-0.346c-0.112-0.076-0.168-0.214-0.168-0.414
			c0-0.067,0.05-0.193,0.149-0.378l0.054-0.096c-0.315-0.145-0.474-0.446-0.474-0.906c0-0.684,0.374-1.025,1.122-1.025
			c0.192,0,0.37,0.02,0.534,0.06l0.09,0.018l0.888-0.023v0.384l-0.569-0.012c0.132,0.132,0.197,0.332,0.197,0.6
			c0,0.376-0.093,0.64-0.278,0.789c-0.187,0.15-0.479,0.226-0.879,0.226c-0.108,0-0.206-0.009-0.294-0.024
			c-0.072,0.176-0.108,0.29-0.108,0.342c0,0.124,0.038,0.201,0.114,0.231c0.075,0.029,0.306,0.045,0.689,0.045s0.66,0.06,0.828,0.18
			s0.252,0.354,0.252,0.702C121.371,146.641,120.927,146.959,120.039,146.959z M119.193,146.017c0,0.212,0.059,0.359,0.177,0.441
			s0.336,0.123,0.654,0.123c0.317,0,0.546-0.044,0.684-0.132c0.139-0.089,0.207-0.235,0.207-0.441s-0.05-0.339-0.149-0.399
			c-0.101-0.06-0.297-0.09-0.589-0.09l-0.647-0.029c-0.132,0.096-0.221,0.18-0.267,0.252
			C119.216,145.812,119.193,145.905,119.193,146.017z M119.235,143.515c0,0.236,0.053,0.404,0.159,0.504
			c0.105,0.101,0.28,0.15,0.524,0.15s0.418-0.05,0.522-0.15c0.104-0.1,0.156-0.269,0.156-0.507s-0.053-0.407-0.156-0.507
			c-0.104-0.1-0.278-0.15-0.522-0.15s-0.419,0.052-0.524,0.153C119.288,143.109,119.235,143.279,119.235,143.515z"/>
		<path fill="#4D4D4D" d="M124.005,145.177l0.175-0.018l0.012,0.354c-0.456,0.064-0.847,0.096-1.17,0.096
			c-0.433,0-0.738-0.125-0.918-0.375c-0.181-0.249-0.271-0.639-0.271-1.167c0-1.052,0.418-1.577,1.254-1.577
			c0.404,0,0.706,0.112,0.906,0.339c0.2,0.226,0.3,0.581,0.3,1.064l-0.023,0.342h-1.98c0,0.332,0.061,0.578,0.18,0.738
			c0.12,0.16,0.329,0.24,0.628,0.24C123.395,145.213,123.697,145.201,124.005,145.177z M123.843,143.875
			c0-0.368-0.059-0.628-0.177-0.78s-0.31-0.228-0.576-0.228c-0.266,0-0.466,0.08-0.6,0.239c-0.134,0.16-0.203,0.416-0.207,0.769
			H123.843z"/>
		<path fill="#4D4D4D" d="M125.03,145.549v-4.308h0.45v4.308H125.03z"/>
		<path fill="#4D4D4D" d="M78.52,152.749v-4.308h0.45v4.308H78.52z"/>
		<path fill="#4D4D4D" d="M81.987,150.655v1.536c0.012,0.147,0.128,0.235,0.349,0.264l-0.019,0.354
			c-0.315,0-0.554-0.079-0.714-0.239c-0.36,0.16-0.72,0.239-1.08,0.239c-0.276,0-0.486-0.077-0.63-0.233
			c-0.145-0.156-0.216-0.38-0.216-0.672s0.074-0.507,0.222-0.646c0.148-0.138,0.38-0.223,0.696-0.255l0.941-0.09v-0.258
			c0-0.204-0.044-0.351-0.132-0.438s-0.208-0.132-0.359-0.132c-0.32,0-0.652,0.021-0.996,0.061l-0.187,0.018l-0.018-0.342
			c0.439-0.088,0.83-0.132,1.17-0.132s0.587,0.077,0.741,0.233C81.91,150.079,81.987,150.323,81.987,150.655z M80.067,149.023v-0.54
			h0.432v0.54H80.067z M80.14,151.879c0,0.368,0.151,0.552,0.456,0.552c0.271,0,0.54-0.046,0.804-0.138l0.138-0.048v-0.99
			l-0.888,0.084c-0.18,0.017-0.31,0.068-0.39,0.156S80.14,151.711,80.14,151.879z M81.268,149.023v-0.54h0.438v0.54H81.268z"/>
		<path fill="#4D4D4D" d="M83.325,152.749h-0.45v-3h0.444v0.21c0.324-0.18,0.634-0.27,0.93-0.27c0.4,0,0.669,0.107,0.808,0.323
			c0.138,0.217,0.207,0.601,0.207,1.152v1.584h-0.444v-1.572c0-0.416-0.041-0.701-0.123-0.854c-0.082-0.154-0.257-0.231-0.525-0.231
			c-0.128,0-0.263,0.02-0.404,0.058c-0.143,0.038-0.251,0.074-0.327,0.11l-0.114,0.055V152.749z"/>
		<path fill="#4D4D4D" d="M87.256,154.159c-0.479,0-0.814-0.065-1.005-0.195s-0.285-0.367-0.285-0.711
			c0-0.164,0.036-0.297,0.108-0.398c0.072-0.103,0.193-0.218,0.366-0.346c-0.112-0.076-0.168-0.214-0.168-0.414
			c0-0.067,0.05-0.193,0.149-0.378l0.054-0.096c-0.315-0.145-0.474-0.446-0.474-0.906c0-0.684,0.374-1.025,1.122-1.025
			c0.192,0,0.37,0.02,0.534,0.06l0.09,0.018l0.888-0.023v0.384l-0.569-0.012c0.132,0.132,0.197,0.332,0.197,0.6
			c0,0.376-0.093,0.64-0.278,0.789c-0.187,0.15-0.479,0.226-0.879,0.226c-0.108,0-0.206-0.009-0.294-0.024
			c-0.072,0.176-0.108,0.29-0.108,0.342c0,0.124,0.038,0.201,0.114,0.231c0.075,0.029,0.306,0.045,0.689,0.045s0.66,0.06,0.828,0.18
			s0.252,0.354,0.252,0.702C88.588,153.841,88.144,154.159,87.256,154.159z M86.41,153.217c0,0.212,0.059,0.359,0.177,0.441
			s0.336,0.123,0.654,0.123c0.317,0,0.546-0.044,0.684-0.132c0.139-0.089,0.207-0.235,0.207-0.441s-0.05-0.339-0.149-0.399
			c-0.101-0.06-0.297-0.09-0.589-0.09l-0.647-0.029c-0.132,0.096-0.221,0.18-0.267,0.252
			C86.433,153.013,86.41,153.105,86.41,153.217z M86.452,150.715c0,0.236,0.053,0.404,0.159,0.504c0.105,0.101,0.28,0.15,0.524,0.15
			s0.418-0.05,0.522-0.15c0.104-0.1,0.156-0.269,0.156-0.507s-0.053-0.407-0.156-0.507c-0.104-0.1-0.278-0.15-0.522-0.15
			s-0.419,0.052-0.524,0.153C86.505,150.31,86.452,150.479,86.452,150.715z"/>
		<path fill="#4D4D4D" d="M91.221,152.377l0.175-0.018l0.012,0.354c-0.456,0.064-0.847,0.096-1.17,0.096
			c-0.433,0-0.738-0.125-0.918-0.375c-0.181-0.249-0.271-0.639-0.271-1.167c0-1.052,0.418-1.577,1.254-1.577
			c0.404,0,0.706,0.112,0.906,0.339c0.2,0.226,0.3,0.581,0.3,1.064l-0.023,0.342h-1.98c0,0.332,0.061,0.578,0.18,0.738
			c0.12,0.16,0.329,0.24,0.628,0.24C90.61,152.413,90.913,152.401,91.221,152.377z M91.059,151.075c0-0.368-0.059-0.628-0.177-0.78
			s-0.31-0.228-0.576-0.228c-0.266,0-0.466,0.08-0.6,0.239c-0.134,0.16-0.203,0.416-0.207,0.769H91.059z"/>
		<path fill="#4D4D4D" d="M92.211,152.749v-3h0.444v0.408c0.348-0.24,0.714-0.398,1.098-0.475v0.456
			c-0.168,0.032-0.343,0.082-0.524,0.15c-0.183,0.068-0.321,0.128-0.417,0.18l-0.15,0.078v2.202H92.211z"/>
		<path fill="#4D4D4D" d="M96.268,152.377l0.175-0.018l0.012,0.354c-0.456,0.064-0.847,0.096-1.17,0.096
			c-0.433,0-0.738-0.125-0.918-0.375c-0.181-0.249-0.271-0.639-0.271-1.167c0-1.052,0.418-1.577,1.254-1.577
			c0.404,0,0.706,0.112,0.906,0.339c0.2,0.226,0.3,0.581,0.3,1.064l-0.023,0.342h-1.98c0,0.332,0.061,0.578,0.18,0.738
			c0.12,0.16,0.329,0.24,0.628,0.24C95.657,152.413,95.96,152.401,96.268,152.377z M96.105,151.075c0-0.368-0.059-0.628-0.177-0.78
			s-0.31-0.228-0.576-0.228c-0.266,0-0.466,0.08-0.6,0.239c-0.134,0.16-0.203,0.416-0.207,0.769H96.105z"/>
		<path fill="#4D4D4D" d="M101.229,152.749v-1.878h-2.112v1.878h-0.462v-4.152h0.462v1.86h2.112v-1.86h0.456v4.152H101.229z"/>
		<path fill="#4D4D4D" d="M104.745,150.655v1.536c0.012,0.147,0.128,0.235,0.349,0.264l-0.019,0.354
			c-0.315,0-0.554-0.079-0.714-0.239c-0.36,0.16-0.72,0.239-1.08,0.239c-0.276,0-0.486-0.077-0.63-0.233
			c-0.145-0.156-0.216-0.38-0.216-0.672s0.074-0.507,0.222-0.646c0.148-0.138,0.38-0.223,0.696-0.255l0.941-0.09v-0.258
			c0-0.204-0.044-0.351-0.132-0.438s-0.208-0.132-0.359-0.132c-0.32,0-0.652,0.021-0.996,0.061l-0.187,0.018l-0.018-0.342
			c0.439-0.088,0.83-0.132,1.17-0.132s0.587,0.077,0.741,0.233C104.668,150.079,104.745,150.323,104.745,150.655z M102.897,151.879
			c0,0.368,0.151,0.552,0.456,0.552c0.271,0,0.54-0.046,0.804-0.138l0.138-0.048v-0.99l-0.888,0.084
			c-0.18,0.017-0.31,0.068-0.39,0.156S102.897,151.711,102.897,151.879z"/>
		<path fill="#4D4D4D" d="M105.669,152.749v-4.308h0.45v4.308H105.669z"/>
		<path fill="#4D4D4D" d="M108.573,150.139h-0.954v1.435c0,0.344,0.024,0.569,0.075,0.678c0.05,0.108,0.169,0.162,0.356,0.162
			l0.534-0.036l0.03,0.372c-0.269,0.044-0.473,0.066-0.612,0.066c-0.312,0-0.528-0.076-0.648-0.229
			c-0.119-0.152-0.18-0.441-0.18-0.87v-1.578h-0.426v-0.39h0.426v-0.918h0.444v0.918h0.954V150.139z"/>
		<path fill="#4D4D4D" d="M111.165,152.377l0.175-0.018l0.012,0.354c-0.456,0.064-0.847,0.096-1.17,0.096
			c-0.433,0-0.738-0.125-0.918-0.375c-0.181-0.249-0.271-0.639-0.271-1.167c0-1.052,0.418-1.577,1.254-1.577
			c0.404,0,0.706,0.112,0.906,0.339c0.2,0.226,0.3,0.581,0.3,1.064l-0.023,0.342h-1.98c0,0.332,0.061,0.578,0.18,0.738
			c0.12,0.16,0.329,0.24,0.628,0.24C110.555,152.413,110.857,152.401,111.165,152.377z M111.003,151.075
			c0-0.368-0.059-0.628-0.177-0.78s-0.31-0.228-0.576-0.228c-0.266,0-0.466,0.08-0.6,0.239c-0.134,0.16-0.203,0.416-0.207,0.769
			H111.003z"/>
		<path fill="#4D4D4D" d="M114.459,148.441v4.308h-0.444v-0.204c-0.308,0.176-0.612,0.264-0.912,0.264c-0.16,0-0.3-0.02-0.42-0.06
			s-0.232-0.112-0.336-0.216c-0.216-0.216-0.324-0.615-0.324-1.197s0.097-1.002,0.291-1.26s0.516-0.387,0.963-0.387
			c0.232,0,0.479,0.025,0.738,0.077v-1.325H114.459z M112.898,152.365c0.072,0.027,0.165,0.042,0.279,0.042s0.242-0.02,0.384-0.058
			c0.142-0.037,0.253-0.074,0.333-0.11l0.12-0.055v-2.033c-0.256-0.049-0.494-0.072-0.714-0.072c-0.304,0-0.517,0.097-0.636,0.291
			c-0.12,0.194-0.181,0.495-0.181,0.903c0,0.464,0.07,0.775,0.21,0.936C112.759,152.285,112.826,152.337,112.898,152.365z"/>
		<path fill="#4D4D4D" d="M117.447,150.655v1.536c0.012,0.147,0.128,0.235,0.349,0.264l-0.019,0.354
			c-0.315,0-0.554-0.079-0.714-0.239c-0.36,0.16-0.72,0.239-1.08,0.239c-0.276,0-0.486-0.077-0.63-0.233
			c-0.145-0.156-0.216-0.38-0.216-0.672s0.074-0.507,0.222-0.646c0.148-0.138,0.38-0.223,0.696-0.255l0.941-0.09v-0.258
			c0-0.204-0.044-0.351-0.132-0.438s-0.208-0.132-0.359-0.132c-0.32,0-0.652,0.021-0.996,0.061l-0.187,0.018l-0.018-0.342
			c0.439-0.088,0.83-0.132,1.17-0.132s0.587,0.077,0.741,0.233C117.37,150.079,117.447,150.323,117.447,150.655z M115.6,151.879
			c0,0.368,0.151,0.552,0.456,0.552c0.271,0,0.54-0.046,0.804-0.138l0.138-0.048v-0.99l-0.888,0.084
			c-0.18,0.017-0.31,0.068-0.39,0.156S115.6,151.711,115.6,151.879z"/>
		<path fill="#4D4D4D" d="M120.207,149.749h0.45v3h-0.45v-0.21c-0.3,0.18-0.596,0.27-0.888,0.27c-0.408,0-0.679-0.105-0.813-0.317
			c-0.134-0.212-0.2-0.604-0.2-1.176v-1.566h0.449v1.56c0,0.437,0.038,0.729,0.114,0.876c0.076,0.148,0.248,0.223,0.517,0.223
			c0.132,0,0.266-0.02,0.401-0.058c0.136-0.037,0.24-0.074,0.312-0.11l0.107-0.055V149.749z"/>
		<path fill="#4D4D4D" d="M123.561,152.377l0.175-0.018l0.012,0.354c-0.456,0.064-0.847,0.096-1.17,0.096
			c-0.433,0-0.738-0.125-0.918-0.375c-0.181-0.249-0.271-0.639-0.271-1.167c0-1.052,0.418-1.577,1.254-1.577
			c0.404,0,0.706,0.112,0.906,0.339c0.2,0.226,0.3,0.581,0.3,1.064l-0.023,0.342h-1.98c0,0.332,0.061,0.578,0.18,0.738
			c0.12,0.16,0.329,0.24,0.628,0.24C122.95,152.413,123.253,152.401,123.561,152.377z M123.398,151.075
			c0-0.368-0.059-0.628-0.177-0.78s-0.31-0.228-0.576-0.228c-0.266,0-0.466,0.08-0.6,0.239c-0.134,0.16-0.203,0.416-0.207,0.769
			H123.398z"/>
		<path fill="#4D4D4D" d="M124.551,152.749v-3h0.444v0.408c0.348-0.24,0.714-0.398,1.098-0.475v0.456
			c-0.168,0.032-0.343,0.082-0.524,0.15c-0.183,0.068-0.321,0.128-0.417,0.18l-0.15,0.078v2.202H124.551z"/>
		<path fill="#4D4D4D" d="M127.707,152.689l1.691-4.188l0.402,0.15l-1.692,4.182L127.707,152.689z"/>
		<path fill="#4D4D4D" d="M78.934,159.948h-0.45v-4.308h0.45v2.544l0.468-0.024l0.858-1.212h0.51l-0.978,1.38l1.02,1.62h-0.51
			l-0.894-1.392l-0.475,0.018V159.948z"/>
		<path fill="#4D4D4D" d="M83.229,156.948h0.45v3h-0.45v-0.21c-0.3,0.18-0.596,0.27-0.888,0.27c-0.408,0-0.679-0.105-0.813-0.317
			c-0.134-0.212-0.2-0.604-0.2-1.176v-1.566h0.449v1.56c0,0.437,0.038,0.729,0.114,0.876c0.076,0.148,0.248,0.223,0.517,0.223
			c0.132,0,0.266-0.02,0.401-0.058c0.136-0.037,0.24-0.074,0.312-0.11l0.107-0.055V156.948z"/>
		<path fill="#4D4D4D" d="M84.543,159.948v-3h0.444v0.408c0.348-0.24,0.714-0.398,1.098-0.475v0.456
			c-0.168,0.032-0.343,0.082-0.524,0.15c-0.183,0.068-0.321,0.128-0.417,0.18l-0.15,0.078v2.202H84.543z"/>
		<path fill="#4D4D4D" d="M86.439,157.351v-0.402h2.226v0.402l-1.68,2.195h1.68v0.402h-2.226v-0.402l1.68-2.195H86.439z"/>
		<path fill="#4D4D4D" d="M89.926,157.338v2.61h-0.45v-2.61h-0.378v-0.39h0.378v-0.27c0-0.425,0.061-0.714,0.181-0.867
			c0.12-0.154,0.33-0.231,0.63-0.231l0.605,0.042l-0.006,0.372c-0.224-0.008-0.409-0.012-0.555-0.012
			c-0.146,0-0.25,0.048-0.312,0.144c-0.062,0.097-0.093,0.282-0.093,0.559v0.264h0.87v0.39H89.926z"/>
		<path fill="#4D4D4D" d="M91.335,159.948v-3h0.444v0.408c0.348-0.24,0.714-0.398,1.098-0.475v0.456
			c-0.168,0.032-0.343,0.082-0.524,0.15c-0.183,0.068-0.321,0.128-0.417,0.18l-0.15,0.078v2.202H91.335z"/>
		<path fill="#4D4D4D" d="M93.411,156.271v-0.522h0.45v0.522H93.411z M93.411,159.948v-3h0.45v3H93.411z"/>
		<path fill="#4D4D4D" d="M95.667,157.29c-0.437,0-0.654,0.152-0.654,0.456c0,0.141,0.05,0.239,0.15,0.297
			c0.1,0.059,0.328,0.118,0.684,0.181c0.356,0.062,0.608,0.148,0.756,0.261c0.148,0.112,0.223,0.322,0.223,0.63
			s-0.1,0.534-0.297,0.678c-0.198,0.145-0.487,0.216-0.867,0.216c-0.248,0-0.54-0.027-0.876-0.084l-0.181-0.029l0.024-0.391
			c0.456,0.068,0.8,0.103,1.032,0.103c0.231,0,0.409-0.037,0.531-0.111c0.121-0.074,0.183-0.198,0.183-0.372
			s-0.052-0.292-0.156-0.354c-0.104-0.062-0.332-0.121-0.684-0.178c-0.353-0.056-0.603-0.138-0.75-0.245
			c-0.148-0.108-0.223-0.309-0.223-0.601s0.104-0.508,0.31-0.647c0.206-0.141,0.463-0.21,0.771-0.21
			c0.244,0,0.551,0.027,0.918,0.084l0.168,0.029l-0.012,0.385C96.273,157.322,95.923,157.29,95.667,157.29z"/>
		<path fill="#4D4D4D" d="M99.069,157.338h-0.954v1.435c0,0.344,0.024,0.569,0.075,0.678c0.05,0.108,0.169,0.162,0.356,0.162
			l0.534-0.036l0.03,0.372c-0.269,0.044-0.473,0.066-0.612,0.066c-0.312,0-0.528-0.076-0.648-0.229
			c-0.119-0.152-0.18-0.441-0.18-0.87v-1.578h-0.426v-0.39h0.426v-0.918h0.444v0.918h0.954V157.338z"/>
		<path fill="#4D4D4D" d="M99.621,156.271v-0.522h0.45v0.522H99.621z M99.621,159.948v-3h0.45v3H99.621z"/>
		<path fill="#4D4D4D" d="M102.093,161.358c-0.479,0-0.814-0.065-1.005-0.195s-0.285-0.367-0.285-0.711
			c0-0.164,0.036-0.297,0.108-0.398c0.072-0.103,0.193-0.218,0.366-0.346c-0.112-0.076-0.168-0.214-0.168-0.414
			c0-0.067,0.05-0.193,0.149-0.378l0.054-0.096c-0.315-0.145-0.474-0.446-0.474-0.906c0-0.684,0.374-1.025,1.122-1.025
			c0.192,0,0.37,0.02,0.534,0.06l0.09,0.018l0.888-0.023v0.384l-0.569-0.012c0.132,0.132,0.197,0.332,0.197,0.6
			c0,0.376-0.093,0.64-0.278,0.789c-0.187,0.15-0.479,0.226-0.879,0.226c-0.108,0-0.206-0.009-0.294-0.024
			c-0.072,0.176-0.108,0.29-0.108,0.342c0,0.124,0.038,0.201,0.114,0.231c0.075,0.029,0.306,0.045,0.689,0.045s0.66,0.06,0.828,0.18
			s0.252,0.354,0.252,0.702C103.425,161.04,102.98,161.358,102.093,161.358z M101.247,160.416c0,0.212,0.059,0.359,0.177,0.441
			s0.336,0.123,0.654,0.123c0.317,0,0.546-0.044,0.684-0.132c0.139-0.089,0.207-0.235,0.207-0.441s-0.05-0.339-0.149-0.399
			c-0.101-0.06-0.297-0.09-0.589-0.09l-0.647-0.029c-0.132,0.096-0.221,0.18-0.267,0.252
			C101.27,160.212,101.247,160.305,101.247,160.416z M101.289,157.914c0,0.236,0.053,0.404,0.159,0.504
			c0.105,0.101,0.28,0.15,0.524,0.15s0.418-0.05,0.522-0.15c0.104-0.1,0.156-0.269,0.156-0.507s-0.053-0.407-0.156-0.507
			c-0.104-0.1-0.278-0.15-0.522-0.15s-0.419,0.052-0.524,0.153C101.342,157.509,101.289,157.679,101.289,157.914z"/>
		<path fill="#4D4D4D" d="M106.059,159.576l0.175-0.018l0.012,0.354c-0.456,0.064-0.847,0.096-1.17,0.096
			c-0.433,0-0.738-0.125-0.918-0.375c-0.181-0.249-0.271-0.639-0.271-1.167c0-1.052,0.418-1.577,1.254-1.577
			c0.404,0,0.706,0.112,0.906,0.339c0.2,0.226,0.3,0.581,0.3,1.064l-0.023,0.342h-1.98c0,0.332,0.061,0.578,0.18,0.738
			c0.12,0.16,0.329,0.24,0.628,0.24C105.448,159.612,105.751,159.601,106.059,159.576z M105.896,158.274
			c0-0.368-0.059-0.628-0.177-0.78s-0.31-0.228-0.576-0.228c-0.266,0-0.466,0.08-0.6,0.239c-0.134,0.16-0.203,0.416-0.207,0.769
			H105.896z"/>
		<path fill="#4D4D4D" d="M110.806,155.796h0.479l-1.086,4.152h-1.031l-1.087-4.152h0.48l0.954,3.744h0.336L110.806,155.796z"/>
		<path fill="#4D4D4D" d="M113.709,159.576l0.175-0.018l0.012,0.354c-0.456,0.064-0.847,0.096-1.17,0.096
			c-0.433,0-0.738-0.125-0.918-0.375c-0.181-0.249-0.271-0.639-0.271-1.167c0-1.052,0.418-1.577,1.254-1.577
			c0.404,0,0.706,0.112,0.906,0.339c0.2,0.226,0.3,0.581,0.3,1.064l-0.023,0.342h-1.98c0,0.332,0.061,0.578,0.18,0.738
			c0.12,0.16,0.329,0.24,0.628,0.24C113.099,159.612,113.401,159.601,113.709,159.576z M113.547,158.274
			c0-0.368-0.059-0.628-0.177-0.78s-0.31-0.228-0.576-0.228c-0.266,0-0.466,0.08-0.6,0.239c-0.134,0.16-0.203,0.416-0.207,0.769
			H113.547z"/>
		<path fill="#4D4D4D" d="M114.698,159.948v-3h0.444v0.408c0.348-0.24,0.714-0.398,1.098-0.475v0.456
			c-0.168,0.032-0.343,0.082-0.524,0.15c-0.183,0.068-0.321,0.128-0.417,0.18l-0.15,0.078v2.202H114.698z"/>
		<path fill="#4D4D4D" d="M117.351,157.338v2.61h-0.45v-2.61h-0.378v-0.39h0.378v-0.27c0-0.425,0.061-0.714,0.181-0.867
			c0.12-0.154,0.33-0.231,0.63-0.231l0.605,0.042l-0.006,0.372c-0.224-0.008-0.409-0.012-0.555-0.012
			c-0.146,0-0.25,0.048-0.312,0.144c-0.062,0.097-0.093,0.282-0.093,0.559v0.264h0.87v0.39H117.351z"/>
		<path fill="#4D4D4D" d="M121.083,156.948v3h-0.45v-0.21l-0.126,0.066c-0.084,0.048-0.2,0.094-0.348,0.138
			c-0.148,0.044-0.286,0.065-0.414,0.065c-0.408,0-0.679-0.105-0.813-0.317c-0.134-0.212-0.2-0.604-0.2-1.176v-1.566h0.449v1.56
			c0,0.437,0.038,0.729,0.114,0.876c0.076,0.148,0.255,0.223,0.537,0.223s0.549-0.074,0.801-0.223v-2.436H121.083z M119.121,156.223
			v-0.54h0.432v0.54H119.121z M120.321,156.223v-0.54h0.438v0.54H120.321z"/>
		<path fill="#4D4D4D" d="M123.104,161.358c-0.479,0-0.814-0.065-1.005-0.195s-0.285-0.367-0.285-0.711
			c0-0.164,0.036-0.297,0.108-0.398c0.072-0.103,0.193-0.218,0.366-0.346c-0.112-0.076-0.168-0.214-0.168-0.414
			c0-0.067,0.05-0.193,0.149-0.378l0.054-0.096c-0.315-0.145-0.474-0.446-0.474-0.906c0-0.684,0.374-1.025,1.122-1.025
			c0.192,0,0.37,0.02,0.534,0.06l0.09,0.018l0.888-0.023v0.384l-0.569-0.012c0.132,0.132,0.197,0.332,0.197,0.6
			c0,0.376-0.093,0.64-0.278,0.789c-0.187,0.15-0.479,0.226-0.879,0.226c-0.108,0-0.206-0.009-0.294-0.024
			c-0.072,0.176-0.108,0.29-0.108,0.342c0,0.124,0.038,0.201,0.114,0.231c0.075,0.029,0.306,0.045,0.689,0.045s0.66,0.06,0.828,0.18
			s0.252,0.354,0.252,0.702C124.437,161.04,123.992,161.358,123.104,161.358z M122.259,160.416c0,0.212,0.059,0.359,0.177,0.441
			s0.336,0.123,0.654,0.123c0.317,0,0.546-0.044,0.684-0.132c0.139-0.089,0.207-0.235,0.207-0.441s-0.05-0.339-0.149-0.399
			c-0.101-0.06-0.297-0.09-0.589-0.09l-0.647-0.029c-0.132,0.096-0.221,0.18-0.267,0.252
			C122.281,160.212,122.259,160.305,122.259,160.416z M122.301,157.914c0,0.236,0.053,0.404,0.159,0.504
			c0.105,0.101,0.28,0.15,0.524,0.15s0.418-0.05,0.522-0.15c0.104-0.1,0.156-0.269,0.156-0.507s-0.053-0.407-0.156-0.507
			c-0.104-0.1-0.278-0.15-0.522-0.15s-0.419,0.052-0.524,0.153C122.354,157.509,122.301,157.679,122.301,157.914z"/>
		<path fill="#4D4D4D" d="M126.356,156.889c0.404,0,0.688,0.114,0.85,0.345c0.161,0.229,0.242,0.633,0.242,1.209
			s-0.101,0.98-0.303,1.215s-0.573,0.351-1.113,0.351c-0.168,0-0.445-0.016-0.834-0.048l-0.168-0.018v-4.302h0.444v1.458
			C125.778,156.958,126.072,156.889,126.356,156.889z M126.026,159.606c0.393,0,0.651-0.089,0.777-0.268
			c0.126-0.178,0.188-0.479,0.188-0.902s-0.05-0.722-0.149-0.892c-0.101-0.17-0.278-0.255-0.534-0.255
			c-0.232,0-0.47,0.044-0.714,0.132l-0.12,0.042v2.112C125.734,159.597,125.919,159.606,126.026,159.606z"/>
		<path fill="#4D4D4D" d="M130.305,157.854v1.536c0.012,0.147,0.128,0.235,0.349,0.264l-0.019,0.354
			c-0.315,0-0.554-0.079-0.714-0.239c-0.36,0.16-0.72,0.239-1.08,0.239c-0.276,0-0.486-0.077-0.63-0.233
			c-0.145-0.156-0.216-0.38-0.216-0.672s0.074-0.507,0.222-0.646c0.148-0.138,0.38-0.223,0.696-0.255l0.941-0.09v-0.258
			c0-0.204-0.044-0.351-0.132-0.438s-0.208-0.132-0.359-0.132c-0.32,0-0.652,0.021-0.996,0.061l-0.187,0.018l-0.018-0.342
			c0.439-0.088,0.83-0.132,1.17-0.132s0.587,0.077,0.741,0.233C130.228,157.278,130.305,157.522,130.305,157.854z M128.457,159.078
			c0,0.368,0.151,0.552,0.456,0.552c0.271,0,0.54-0.046,0.804-0.138l0.138-0.048v-0.99l-0.888,0.084
			c-0.18,0.017-0.31,0.068-0.39,0.156S128.457,158.91,128.457,159.078z"/>
		<path fill="#4D4D4D" d="M131.192,159.948v-3h0.444v0.408c0.348-0.24,0.714-0.398,1.098-0.475v0.456
			c-0.168,0.032-0.343,0.082-0.524,0.15c-0.183,0.068-0.321,0.128-0.417,0.18l-0.15,0.078v2.202H131.192z"/>
		<path fill="#4D4D4D" d="M133.719,159.948h-0.45v-4.308h0.45v2.544l0.468-0.024l0.858-1.212h0.51l-0.978,1.38l1.02,1.62h-0.51
			l-0.894-1.392l-0.475,0.018V159.948z"/>
		<path fill="#4D4D4D" d="M138.104,159.576l0.175-0.018l0.012,0.354c-0.456,0.064-0.847,0.096-1.17,0.096
			c-0.433,0-0.738-0.125-0.918-0.375c-0.181-0.249-0.271-0.639-0.271-1.167c0-1.052,0.418-1.577,1.254-1.577
			c0.404,0,0.706,0.112,0.906,0.339c0.2,0.226,0.3,0.581,0.3,1.064l-0.023,0.342h-1.98c0,0.332,0.061,0.578,0.18,0.738
			c0.12,0.16,0.329,0.24,0.628,0.24C137.494,159.612,137.797,159.601,138.104,159.576z M137.942,158.274
			c0-0.368-0.059-0.628-0.177-0.78s-0.31-0.228-0.576-0.228c-0.266,0-0.466,0.08-0.6,0.239c-0.134,0.16-0.203,0.416-0.207,0.769
			H137.942z"/>
		<path fill="#4D4D4D" d="M139.095,156.271v-0.522h0.45v0.522H139.095z M139.095,159.948v-3h0.45v3H139.095z"/>
		<path fill="#4D4D4D" d="M141.963,157.338h-0.954v1.435c0,0.344,0.024,0.569,0.075,0.678c0.05,0.108,0.169,0.162,0.356,0.162
			l0.534-0.036l0.03,0.372c-0.269,0.044-0.473,0.066-0.612,0.066c-0.312,0-0.528-0.076-0.648-0.229
			c-0.119-0.152-0.18-0.441-0.18-0.87v-1.578h-0.426v-0.39h0.426v-0.918h0.444v0.918h0.954V157.338z"/>
		<path fill="#4D4D4D" d="M79.81,164.089c0.404,0,0.688,0.114,0.85,0.345c0.161,0.229,0.242,0.633,0.242,1.209
			s-0.101,0.98-0.303,1.215s-0.573,0.351-1.113,0.351c-0.168,0-0.445-0.016-0.834-0.048l-0.168-0.018v-4.302h0.444v1.458
			C79.231,164.158,79.525,164.089,79.81,164.089z M79.479,166.807c0.393,0,0.651-0.089,0.777-0.268
			c0.126-0.178,0.188-0.479,0.188-0.902s-0.05-0.722-0.149-0.892c-0.101-0.17-0.278-0.255-0.534-0.255
			c-0.232,0-0.47,0.044-0.714,0.132l-0.12,0.042v2.112C79.188,166.797,79.372,166.807,79.479,166.807z"/>
		<path fill="#4D4D4D" d="M83.68,166.776l0.175-0.018l0.012,0.354c-0.456,0.064-0.847,0.096-1.17,0.096
			c-0.433,0-0.738-0.125-0.918-0.375c-0.181-0.249-0.271-0.639-0.271-1.167c0-1.052,0.418-1.577,1.254-1.577
			c0.404,0,0.706,0.112,0.906,0.339c0.2,0.226,0.3,0.581,0.3,1.064l-0.023,0.342h-1.98c0,0.332,0.061,0.578,0.18,0.738
			c0.12,0.16,0.329,0.24,0.628,0.24C83.069,166.812,83.372,166.801,83.68,166.776z M83.518,165.475c0-0.368-0.059-0.628-0.177-0.78
			s-0.31-0.228-0.576-0.228c-0.266,0-0.466,0.08-0.6,0.239c-0.134,0.16-0.203,0.416-0.207,0.769H83.518z"/>
		<path fill="#4D4D4D" d="M86.974,162.841v4.308h-0.444v-0.204c-0.308,0.176-0.612,0.264-0.912,0.264c-0.16,0-0.3-0.02-0.42-0.06
			s-0.232-0.112-0.336-0.216c-0.216-0.216-0.324-0.615-0.324-1.197s0.097-1.002,0.291-1.26s0.516-0.387,0.963-0.387
			c0.232,0,0.479,0.025,0.738,0.077v-1.325H86.974z M85.413,166.765c0.072,0.027,0.165,0.042,0.279,0.042s0.242-0.02,0.384-0.058
			c0.142-0.037,0.253-0.074,0.333-0.11l0.12-0.055v-2.033c-0.256-0.049-0.494-0.072-0.714-0.072c-0.304,0-0.517,0.097-0.636,0.291
			c-0.12,0.194-0.181,0.495-0.181,0.903c0,0.464,0.07,0.775,0.21,0.936C85.273,166.685,85.341,166.736,85.413,166.765z"/>
		<path fill="#4D4D4D" d="M87.843,163.471v-0.522h0.45v0.522H87.843z M87.843,167.148v-3h0.45v3H87.843z"/>
		<path fill="#4D4D4D" d="M89.607,167.148h-0.45v-3h0.444v0.21c0.324-0.18,0.634-0.27,0.93-0.27c0.4,0,0.669,0.107,0.808,0.323
			c0.138,0.217,0.207,0.601,0.207,1.152v1.584h-0.444v-1.572c0-0.416-0.041-0.701-0.123-0.854c-0.082-0.154-0.257-0.231-0.525-0.231
			c-0.128,0-0.263,0.02-0.404,0.058c-0.143,0.038-0.251,0.074-0.327,0.11l-0.114,0.055V167.148z"/>
		<path fill="#4D4D4D" d="M93.537,168.559c-0.479,0-0.814-0.065-1.005-0.195s-0.285-0.367-0.285-0.711
			c0-0.164,0.036-0.297,0.108-0.398c0.072-0.103,0.193-0.218,0.366-0.346c-0.112-0.076-0.168-0.214-0.168-0.414
			c0-0.067,0.05-0.193,0.149-0.378l0.054-0.096c-0.315-0.145-0.474-0.446-0.474-0.906c0-0.684,0.374-1.025,1.122-1.025
			c0.192,0,0.37,0.02,0.534,0.06l0.09,0.018l0.888-0.023v0.384l-0.569-0.012c0.132,0.132,0.197,0.332,0.197,0.6
			c0,0.376-0.093,0.64-0.278,0.789c-0.187,0.15-0.479,0.226-0.879,0.226c-0.108,0-0.206-0.009-0.294-0.024
			c-0.072,0.176-0.108,0.29-0.108,0.342c0,0.124,0.038,0.201,0.114,0.231c0.075,0.029,0.306,0.045,0.689,0.045s0.66,0.06,0.828,0.18
			s0.252,0.354,0.252,0.702C94.869,168.24,94.425,168.559,93.537,168.559z M92.691,167.616c0,0.212,0.059,0.359,0.177,0.441
			s0.336,0.123,0.654,0.123c0.317,0,0.546-0.044,0.684-0.132c0.139-0.089,0.207-0.235,0.207-0.441s-0.05-0.339-0.149-0.399
			c-0.101-0.06-0.297-0.09-0.589-0.09l-0.647-0.029c-0.132,0.096-0.221,0.18-0.267,0.252
			C92.714,167.412,92.691,167.505,92.691,167.616z M92.733,165.114c0,0.236,0.053,0.404,0.159,0.504
			c0.105,0.101,0.28,0.15,0.524,0.15s0.418-0.05,0.522-0.15c0.104-0.1,0.156-0.269,0.156-0.507s-0.053-0.407-0.156-0.507
			c-0.104-0.1-0.278-0.15-0.522-0.15s-0.419,0.052-0.524,0.153C92.786,164.709,92.733,164.879,92.733,165.114z"/>
		<path fill="#4D4D4D" d="M97.018,164.538h-0.954v1.435c0,0.344,0.024,0.569,0.075,0.678c0.05,0.108,0.169,0.162,0.356,0.162
			l0.534-0.036l0.03,0.372c-0.269,0.044-0.473,0.066-0.612,0.066c-0.312,0-0.528-0.076-0.648-0.229
			c-0.119-0.152-0.18-0.441-0.18-0.87v-1.578h-0.426v-0.39h0.426v-0.918h0.444v0.918h0.954V164.538z"/>
		<path fill="#4D4D4D" d="M98.889,163.471v-0.522h0.45v0.522H98.889z M98.889,167.148v-3h0.45v3H98.889z"/>
		<path fill="#4D4D4D" d="M100.174,167.148v-0.684h0.491v0.684H100.174z"/>
		<path fill="#4D4D4D" d="M103.804,162.841v4.308h-0.444v-0.204c-0.308,0.176-0.612,0.264-0.912,0.264c-0.16,0-0.3-0.02-0.42-0.06
			s-0.232-0.112-0.336-0.216c-0.216-0.216-0.324-0.615-0.324-1.197s0.097-1.002,0.291-1.26s0.516-0.387,0.963-0.387
			c0.232,0,0.479,0.025,0.738,0.077v-1.325H103.804z M102.243,166.765c0.072,0.027,0.165,0.042,0.279,0.042s0.242-0.02,0.384-0.058
			c0.142-0.037,0.253-0.074,0.333-0.11l0.12-0.055v-2.033c-0.256-0.049-0.494-0.072-0.714-0.072c-0.304,0-0.517,0.097-0.636,0.291
			c-0.12,0.194-0.181,0.495-0.181,0.903c0,0.464,0.07,0.775,0.21,0.936C102.104,166.685,102.171,166.736,102.243,166.765z"/>
		<path fill="#4D4D4D" d="M104.644,167.148v-0.684h0.491v0.684H104.644z"/>
		<path fill="#4D4D4D" d="M106.509,165.559v1.59h-0.462v-4.152h1.536c0.44,0,0.771,0.103,0.993,0.307s0.333,0.521,0.333,0.954
			c0,0.64-0.254,1.042-0.762,1.206l0.798,1.686h-0.51l-0.75-1.59H106.509z M107.589,165.15c0.564,0,0.847-0.291,0.847-0.873
			s-0.284-0.873-0.853-0.873h-1.074v1.746H107.589z"/>
		<path fill="#4D4D4D" d="M109.636,167.148v-0.684h0.491v0.684H109.636z"/>
		<path fill="#4D4D4D" d="M113.438,168.559c-0.479,0-0.814-0.065-1.005-0.195s-0.285-0.367-0.285-0.711
			c0-0.164,0.036-0.297,0.108-0.398c0.072-0.103,0.193-0.218,0.366-0.346c-0.112-0.076-0.168-0.214-0.168-0.414
			c0-0.067,0.05-0.193,0.149-0.378l0.054-0.096c-0.315-0.145-0.474-0.446-0.474-0.906c0-0.684,0.374-1.025,1.122-1.025
			c0.192,0,0.37,0.02,0.534,0.06l0.09,0.018l0.888-0.023v0.384l-0.569-0.012c0.132,0.132,0.197,0.332,0.197,0.6
			c0,0.376-0.093,0.64-0.278,0.789c-0.187,0.15-0.479,0.226-0.879,0.226c-0.108,0-0.206-0.009-0.294-0.024
			c-0.072,0.176-0.108,0.29-0.108,0.342c0,0.124,0.038,0.201,0.114,0.231c0.075,0.029,0.306,0.045,0.689,0.045s0.66,0.06,0.828,0.18
			s0.252,0.354,0.252,0.702C114.771,168.24,114.326,168.559,113.438,168.559z M112.593,167.616c0,0.212,0.059,0.359,0.177,0.441
			s0.336,0.123,0.654,0.123c0.317,0,0.546-0.044,0.684-0.132c0.139-0.089,0.207-0.235,0.207-0.441s-0.05-0.339-0.149-0.399
			c-0.101-0.06-0.297-0.09-0.589-0.09l-0.647-0.029c-0.132,0.096-0.221,0.18-0.267,0.252
			C112.615,167.412,112.593,167.505,112.593,167.616z M112.635,165.114c0,0.236,0.053,0.404,0.159,0.504
			c0.105,0.101,0.28,0.15,0.524,0.15s0.418-0.05,0.522-0.15c0.104-0.1,0.156-0.269,0.156-0.507s-0.053-0.407-0.156-0.507
			c-0.104-0.1-0.278-0.15-0.522-0.15s-0.419,0.052-0.524,0.153C112.688,164.709,112.635,164.879,112.635,165.114z"/>
		<path fill="#4D4D4D" d="M117.404,166.776l0.175-0.018l0.012,0.354c-0.456,0.064-0.847,0.096-1.17,0.096
			c-0.433,0-0.738-0.125-0.918-0.375c-0.181-0.249-0.271-0.639-0.271-1.167c0-1.052,0.418-1.577,1.254-1.577
			c0.404,0,0.706,0.112,0.906,0.339c0.2,0.226,0.3,0.581,0.3,1.064l-0.023,0.342h-1.98c0,0.332,0.061,0.578,0.18,0.738
			c0.12,0.16,0.329,0.24,0.628,0.24C116.794,166.812,117.097,166.801,117.404,166.776z M117.242,165.475
			c0-0.368-0.059-0.628-0.177-0.78s-0.31-0.228-0.576-0.228c-0.266,0-0.466,0.08-0.6,0.239c-0.134,0.16-0.203,0.416-0.207,0.769
			H117.242z"/>
		<path fill="#4D4D4D" d="M118.371,165.708v-0.42h1.817v0.42H118.371z"/>
		<path fill="#4D4D4D" d="M78.483,174.349v-3h0.444v0.408c0.348-0.24,0.714-0.398,1.098-0.475v0.456
			c-0.168,0.032-0.343,0.082-0.524,0.15c-0.183,0.068-0.321,0.128-0.417,0.18l-0.15,0.078v2.202H78.483z"/>
		<path fill="#4D4D4D" d="M80.56,170.671v-0.522h0.45v0.522H80.56z M80.56,174.349v-3h0.45v3H80.56z"/>
		<path fill="#4D4D4D" d="M82.323,174.349h-0.45v-3h0.444v0.21c0.324-0.18,0.634-0.27,0.93-0.27c0.4,0,0.669,0.107,0.808,0.323
			c0.138,0.217,0.207,0.601,0.207,1.152v1.584h-0.444v-1.572c0-0.416-0.041-0.701-0.123-0.854c-0.082-0.154-0.257-0.231-0.525-0.231
			c-0.128,0-0.263,0.02-0.404,0.058c-0.143,0.038-0.251,0.074-0.327,0.11l-0.114,0.055V174.349z"/>
		<path fill="#4D4D4D" d="M86.254,175.759c-0.479,0-0.814-0.065-1.005-0.195s-0.285-0.367-0.285-0.711
			c0-0.164,0.036-0.297,0.108-0.398c0.072-0.103,0.193-0.218,0.366-0.346c-0.112-0.076-0.168-0.214-0.168-0.414
			c0-0.067,0.05-0.193,0.149-0.378l0.054-0.096c-0.315-0.145-0.474-0.446-0.474-0.906c0-0.684,0.374-1.025,1.122-1.025
			c0.192,0,0.37,0.02,0.534,0.06l0.09,0.018l0.888-0.023v0.384l-0.569-0.012c0.132,0.132,0.197,0.332,0.197,0.6
			c0,0.376-0.093,0.64-0.278,0.789c-0.187,0.15-0.479,0.226-0.879,0.226c-0.108,0-0.206-0.009-0.294-0.024
			c-0.072,0.176-0.108,0.29-0.108,0.342c0,0.124,0.038,0.201,0.114,0.231c0.075,0.029,0.306,0.045,0.689,0.045s0.66,0.06,0.828,0.18
			s0.252,0.354,0.252,0.702C87.586,175.44,87.142,175.759,86.254,175.759z M85.408,174.816c0,0.212,0.059,0.359,0.177,0.441
			s0.336,0.123,0.654,0.123c0.317,0,0.546-0.044,0.684-0.132c0.139-0.089,0.207-0.235,0.207-0.441s-0.05-0.339-0.149-0.399
			c-0.101-0.06-0.297-0.09-0.589-0.09l-0.647-0.029c-0.132,0.096-0.221,0.18-0.267,0.252
			C85.431,174.612,85.408,174.705,85.408,174.816z M85.45,172.314c0,0.236,0.053,0.404,0.159,0.504
			c0.105,0.101,0.28,0.15,0.524,0.15s0.418-0.05,0.522-0.15c0.104-0.1,0.156-0.269,0.156-0.507s-0.053-0.407-0.156-0.507
			c-0.104-0.1-0.278-0.15-0.522-0.15s-0.419,0.052-0.524,0.153C85.503,171.909,85.45,172.079,85.45,172.314z"/>
		<path fill="#4D4D4D" d="M90.219,173.977l0.175-0.018l0.012,0.354c-0.456,0.064-0.847,0.096-1.17,0.096
			c-0.433,0-0.738-0.125-0.918-0.375c-0.181-0.249-0.271-0.639-0.271-1.167c0-1.052,0.418-1.577,1.254-1.577
			c0.404,0,0.706,0.112,0.906,0.339c0.2,0.226,0.3,0.581,0.3,1.064l-0.023,0.342h-1.98c0,0.332,0.061,0.578,0.18,0.738
			c0.12,0.16,0.329,0.24,0.628,0.24C89.608,174.013,89.911,174.001,90.219,173.977z M90.057,172.675c0-0.368-0.059-0.628-0.177-0.78
			s-0.31-0.228-0.576-0.228c-0.266,0-0.466,0.08-0.6,0.239c-0.134,0.16-0.203,0.416-0.207,0.769H90.057z"/>
		<path fill="#4D4D4D" d="M91.209,174.349v-3h0.444v0.408c0.348-0.24,0.714-0.398,1.098-0.475v0.456
			c-0.168,0.032-0.343,0.082-0.524,0.15c-0.183,0.068-0.321,0.128-0.417,0.18l-0.15,0.078v2.202H91.209z"/>
		<path fill="#4D4D4D" d="M95.266,173.977l0.175-0.018l0.012,0.354c-0.456,0.064-0.847,0.096-1.17,0.096
			c-0.433,0-0.738-0.125-0.918-0.375c-0.181-0.249-0.271-0.639-0.271-1.167c0-1.052,0.418-1.577,1.254-1.577
			c0.404,0,0.706,0.112,0.906,0.339c0.2,0.226,0.3,0.581,0.3,1.064l-0.023,0.342h-1.98c0,0.332,0.061,0.578,0.18,0.738
			c0.12,0.16,0.329,0.24,0.628,0.24C94.655,174.013,94.958,174.001,95.266,173.977z M95.104,172.675c0-0.368-0.059-0.628-0.177-0.78
			s-0.31-0.228-0.576-0.228c-0.266,0-0.466,0.08-0.6,0.239c-0.134,0.16-0.203,0.416-0.207,0.769H95.104z"/>
		<path fill="#4D4D4D" d="M98.115,172.759v1.59h-0.462v-4.152h1.536c0.44,0,0.771,0.103,0.993,0.307s0.333,0.521,0.333,0.954
			c0,0.64-0.254,1.042-0.762,1.206l0.798,1.686h-0.51l-0.75-1.59H98.115z M99.195,172.351c0.564,0,0.847-0.291,0.847-0.873
			s-0.284-0.873-0.853-0.873h-1.074v1.746H99.195z"/>
		<path fill="#4D4D4D" d="M103.257,173.977l0.175-0.018l0.012,0.354c-0.456,0.064-0.847,0.096-1.17,0.096
			c-0.433,0-0.738-0.125-0.918-0.375c-0.181-0.249-0.271-0.639-0.271-1.167c0-1.052,0.418-1.577,1.254-1.577
			c0.404,0,0.706,0.112,0.906,0.339c0.2,0.226,0.3,0.581,0.3,1.064l-0.023,0.342h-1.98c0,0.332,0.061,0.578,0.18,0.738
			c0.12,0.16,0.329,0.24,0.628,0.24C102.646,174.013,102.949,174.001,103.257,173.977z M103.095,172.675
			c0-0.368-0.059-0.628-0.177-0.78s-0.31-0.228-0.576-0.228c-0.266,0-0.466,0.08-0.6,0.239c-0.134,0.16-0.203,0.416-0.207,0.769
			H103.095z"/>
		<path fill="#4D4D4D" d="M104.697,174.349h-0.45v-3h0.444v0.21c0.324-0.18,0.634-0.27,0.93-0.27c0.4,0,0.669,0.107,0.808,0.323
			c0.138,0.217,0.207,0.601,0.207,1.152v1.584h-0.444v-1.572c0-0.416-0.041-0.701-0.123-0.854c-0.082-0.154-0.257-0.231-0.525-0.231
			c-0.128,0-0.263,0.02-0.404,0.058c-0.143,0.038-0.251,0.074-0.327,0.11l-0.114,0.055V174.349z"/>
		<path fill="#4D4D4D" d="M109.773,170.041v4.308h-0.444v-0.204c-0.308,0.176-0.612,0.264-0.912,0.264c-0.16,0-0.3-0.02-0.42-0.06
			s-0.232-0.112-0.336-0.216c-0.216-0.216-0.324-0.615-0.324-1.197s0.097-1.002,0.291-1.26s0.516-0.387,0.963-0.387
			c0.232,0,0.479,0.025,0.738,0.077v-1.325H109.773z M108.213,173.965c0.072,0.027,0.165,0.042,0.279,0.042s0.242-0.02,0.384-0.058
			c0.142-0.037,0.253-0.074,0.333-0.11l0.12-0.055v-2.033c-0.256-0.049-0.494-0.072-0.714-0.072c-0.304,0-0.517,0.097-0.636,0.291
			c-0.12,0.194-0.181,0.495-0.181,0.903c0,0.464,0.07,0.775,0.21,0.936C108.073,173.885,108.141,173.937,108.213,173.965z"/>
		<path fill="#4D4D4D" d="M110.643,170.671v-0.522h0.45v0.522H110.643z M110.643,174.349v-3h0.45v3H110.643z"/>
		<path fill="#4D4D4D" d="M113.512,171.738h-0.954v1.435c0,0.344,0.024,0.569,0.075,0.678c0.05,0.108,0.169,0.162,0.356,0.162
			l0.534-0.036l0.03,0.372c-0.269,0.044-0.473,0.066-0.612,0.066c-0.312,0-0.528-0.076-0.648-0.229
			c-0.119-0.152-0.18-0.441-0.18-0.87v-1.578h-0.426v-0.39h0.426v-0.918h0.444v0.918h0.954V171.738z"/>
		<path fill="#4D4D4D" d="M116.103,173.977l0.175-0.018l0.012,0.354c-0.456,0.064-0.847,0.096-1.17,0.096
			c-0.433,0-0.738-0.125-0.918-0.375c-0.181-0.249-0.271-0.639-0.271-1.167c0-1.052,0.418-1.577,1.254-1.577
			c0.404,0,0.706,0.112,0.906,0.339c0.2,0.226,0.3,0.581,0.3,1.064l-0.023,0.342h-1.98c0,0.332,0.061,0.578,0.18,0.738
			c0.12,0.16,0.329,0.24,0.628,0.24C115.492,174.013,115.795,174.001,116.103,173.977z M115.94,172.675
			c0-0.368-0.059-0.628-0.177-0.78s-0.31-0.228-0.576-0.228c-0.266,0-0.466,0.08-0.6,0.239c-0.134,0.16-0.203,0.416-0.207,0.769
			H115.94z"/>
		<path fill="#4D4D4D" d="M117.543,174.349h-0.45v-3h0.444v0.21c0.324-0.18,0.634-0.27,0.93-0.27c0.4,0,0.669,0.107,0.808,0.323
			c0.138,0.217,0.207,0.601,0.207,1.152v1.584h-0.444v-1.572c0-0.416-0.041-0.701-0.123-0.854c-0.082-0.154-0.257-0.231-0.525-0.231
			c-0.128,0-0.263,0.02-0.404,0.058c-0.143,0.038-0.251,0.074-0.327,0.11l-0.114,0.055V174.349z"/>
	</g>
</g>
<g>
	<g>
		<path fill="#4D4D4D" d="M140.184,64.683h-0.45v-4.308h0.45v2.544l0.468-0.024l0.858-1.212h0.51l-0.978,1.38l1.02,1.62h-0.51
			l-0.894-1.392l-0.475,0.018V64.683z"/>
		<path fill="#4D4D4D" d="M144.569,64.311l0.175-0.018l0.012,0.354c-0.456,0.064-0.847,0.096-1.17,0.096
			c-0.433,0-0.738-0.125-0.918-0.375c-0.181-0.249-0.271-0.639-0.271-1.167c0-1.052,0.418-1.577,1.254-1.577
			c0.404,0,0.706,0.112,0.906,0.339c0.2,0.226,0.3,0.581,0.3,1.064l-0.023,0.342h-1.98c0,0.332,0.061,0.578,0.18,0.738
			c0.12,0.16,0.329,0.24,0.628,0.24C143.959,64.347,144.262,64.335,144.569,64.311z M144.407,63.009c0-0.368-0.059-0.628-0.177-0.78
			s-0.31-0.228-0.576-0.228c-0.266,0-0.466,0.08-0.6,0.239c-0.134,0.16-0.203,0.416-0.207,0.769H144.407z"/>
		<path fill="#4D4D4D" d="M145.56,61.005v-0.522h0.45v0.522H145.56z M145.56,64.683v-3h0.45v3H145.56z"/>
		<path fill="#4D4D4D" d="M147.323,64.683h-0.45v-3h0.444v0.21c0.324-0.18,0.634-0.27,0.93-0.27c0.4,0,0.669,0.107,0.808,0.323
			c0.138,0.217,0.207,0.601,0.207,1.152v1.584h-0.444V63.11c0-0.416-0.041-0.701-0.123-0.854c-0.082-0.154-0.257-0.231-0.525-0.231
			c-0.128,0-0.263,0.02-0.404,0.058c-0.143,0.038-0.251,0.074-0.327,0.11l-0.114,0.055V64.683z"/>
		<path fill="#4D4D4D" d="M151.241,60.938V60.53h2.7v0.54l-2.172,3.084v0.12h2.172v0.414h-2.7v-0.534l2.166-3.084v-0.132H151.241z"
			/>
		<path fill="#4D4D4D" d="M154.631,61.005v-0.522h0.45v0.522H154.631z M154.631,64.683v-3h0.45v3H154.631z"/>
		<path fill="#4D4D4D" d="M157.985,64.311l0.175-0.018l0.012,0.354c-0.456,0.064-0.847,0.096-1.17,0.096
			c-0.433,0-0.738-0.125-0.918-0.375c-0.181-0.249-0.271-0.639-0.271-1.167c0-1.052,0.418-1.577,1.254-1.577
			c0.404,0,0.706,0.112,0.906,0.339c0.2,0.226,0.3,0.581,0.3,1.064l-0.023,0.342h-1.98c0,0.332,0.061,0.578,0.18,0.738
			c0.12,0.16,0.329,0.24,0.628,0.24C157.375,64.347,157.678,64.335,157.985,64.311z M157.823,63.009c0-0.368-0.059-0.628-0.177-0.78
			s-0.31-0.228-0.576-0.228c-0.266,0-0.466,0.08-0.6,0.239c-0.134,0.16-0.203,0.416-0.207,0.769H157.823z"/>
		<path fill="#4D4D4D" d="M159.011,64.683v-4.308h0.45v4.308H159.011z"/>
		<path fill="#4D4D4D" d="M160.812,64.683h-0.45v-4.308h0.45v2.544l0.468-0.024l0.858-1.212h0.51l-0.978,1.38l1.02,1.62h-0.51
			l-0.894-1.392l-0.475,0.018V64.683z"/>
		<path fill="#4D4D4D" d="M163.025,63.177c0-0.548,0.099-0.944,0.294-1.188c0.196-0.243,0.527-0.365,0.993-0.365
			s0.796,0.122,0.99,0.365c0.193,0.244,0.291,0.641,0.291,1.188s-0.092,0.946-0.276,1.194c-0.184,0.248-0.52,0.371-1.008,0.371
			s-0.824-0.123-1.008-0.371C163.117,64.123,163.025,63.725,163.025,63.177z M163.487,63.168c0,0.438,0.054,0.745,0.159,0.921
			c0.106,0.176,0.328,0.264,0.666,0.264s0.559-0.087,0.663-0.261c0.104-0.174,0.156-0.481,0.156-0.921
			c0-0.44-0.059-0.743-0.174-0.909c-0.116-0.166-0.331-0.249-0.646-0.249s-0.53,0.083-0.647,0.249
			C163.547,62.428,163.487,62.729,163.487,63.168z"/>
		<path fill="#4D4D4D" d="M166.775,64.683h-0.45v-3h0.444v0.21c0.324-0.18,0.634-0.27,0.93-0.27c0.4,0,0.669,0.107,0.808,0.323
			c0.138,0.217,0.207,0.601,0.207,1.152v1.584h-0.444V63.11c0-0.416-0.041-0.701-0.123-0.854c-0.082-0.154-0.257-0.231-0.525-0.231
			c-0.128,0-0.263,0.02-0.404,0.058c-0.143,0.038-0.251,0.074-0.327,0.11l-0.114,0.055V64.683z"/>
		<path fill="#4D4D4D" d="M170.123,62.072v2.61h-0.45v-2.61h-0.378v-0.39h0.378v-0.27c0-0.425,0.061-0.714,0.181-0.867
			c0.12-0.154,0.33-0.231,0.63-0.231l0.605,0.042l-0.006,0.372c-0.224-0.008-0.409-0.012-0.555-0.012
			c-0.146,0-0.25,0.048-0.312,0.144c-0.062,0.097-0.093,0.282-0.093,0.559v0.264h0.87v0.39H170.123z"/>
		<path fill="#4D4D4D" d="M171.569,64.683v-4.308h0.45v4.308H171.569z"/>
		<path fill="#4D4D4D" d="M172.919,61.005v-0.522h0.45v0.522H172.919z M172.919,64.683v-3h0.45v3H172.919z"/>
		<path fill="#4D4D4D" d="M174.683,64.683h-0.45v-4.308h0.45v2.544l0.468-0.024l0.858-1.212h0.51l-0.978,1.38l1.02,1.62h-0.51
			l-0.894-1.392l-0.475,0.018V64.683z"/>
		<path fill="#4D4D4D" d="M178.661,62.072h-0.954v1.435c0,0.344,0.024,0.569,0.075,0.678c0.05,0.108,0.169,0.162,0.356,0.162
			l0.534-0.036l0.03,0.372c-0.269,0.044-0.473,0.066-0.612,0.066c-0.312,0-0.528-0.076-0.648-0.229
			c-0.119-0.152-0.18-0.441-0.18-0.87v-1.578h-0.426v-0.39h0.426v-0.918h0.444v0.918h0.954V62.072z"/>
	</g>
</g>
<g>
	<g>
		<path fill="#4D4D4D" d="M1.848,127.979v2.12H1.231v-5.536h2.048c0.587,0,1.028,0.136,1.324,0.408
			c0.296,0.271,0.444,0.696,0.444,1.271c0,0.854-0.339,1.39-1.016,1.608l1.063,2.248h-0.68l-1-2.12H1.848z M3.288,127.435
			c0.752,0,1.128-0.388,1.128-1.164c0-0.775-0.379-1.164-1.137-1.164H1.848v2.328H3.288z"/>
		<path fill="#4D4D4D" d="M8.704,129.603l0.232-0.023l0.016,0.472c-0.608,0.085-1.128,0.128-1.56,0.128
			c-0.576,0-0.984-0.167-1.225-0.5s-0.359-0.853-0.359-1.556c0-1.403,0.557-2.104,1.672-2.104c0.538,0,0.941,0.15,1.208,0.452
			s0.399,0.774,0.399,1.42l-0.031,0.456H6.416c0,0.442,0.08,0.771,0.24,0.984c0.16,0.213,0.438,0.319,0.836,0.319
			S8.293,129.635,8.704,129.603z M8.488,127.866c0-0.49-0.079-0.837-0.236-1.04c-0.157-0.202-0.413-0.304-0.768-0.304
			s-0.621,0.106-0.8,0.32c-0.179,0.213-0.271,0.555-0.276,1.023H8.488z"/>
		<path fill="#4D4D4D" d="M10.624,130.099h-0.6v-4h0.592v0.28c0.432-0.24,0.846-0.36,1.24-0.36c0.533,0,0.892,0.145,1.076,0.432
			c0.184,0.288,0.275,0.801,0.275,1.536v2.112h-0.592v-2.096c0-0.555-0.055-0.935-0.164-1.141c-0.109-0.205-0.343-0.308-0.7-0.308
			c-0.171,0-0.351,0.025-0.54,0.076s-0.334,0.1-0.436,0.147l-0.152,0.072V130.099z"/>
		<path fill="#4D4D4D" d="M16.368,126.618h-1.272v1.912c0,0.459,0.033,0.761,0.1,0.904c0.067,0.145,0.226,0.216,0.477,0.216
			l0.712-0.048l0.04,0.496c-0.357,0.059-0.63,0.088-0.816,0.088c-0.416,0-0.704-0.102-0.863-0.304c-0.16-0.203-0.24-0.59-0.24-1.16
			v-2.104h-0.568v-0.52h0.568v-1.224h0.592v1.224h1.272V126.618z"/>
		<path fill="#4D4D4D" d="M19.928,127.307v2.048c0.016,0.197,0.17,0.314,0.464,0.353l-0.024,0.472c-0.421,0-0.738-0.106-0.952-0.32
			c-0.479,0.214-0.96,0.32-1.439,0.32c-0.368,0-0.648-0.104-0.84-0.312c-0.192-0.208-0.288-0.506-0.288-0.896
			s0.099-0.676,0.296-0.86c0.197-0.184,0.507-0.297,0.928-0.34l1.256-0.12v-0.344c0-0.272-0.059-0.467-0.176-0.584
			s-0.277-0.176-0.48-0.176c-0.427,0-0.869,0.026-1.327,0.08l-0.248,0.023l-0.024-0.456c0.587-0.117,1.106-0.176,1.56-0.176
			c0.454,0,0.783,0.104,0.988,0.312S19.928,126.864,19.928,127.307z M17.463,128.938c0,0.491,0.203,0.736,0.608,0.736
			c0.362,0,0.72-0.062,1.072-0.185l0.184-0.063v-1.32l-1.184,0.112c-0.24,0.021-0.414,0.091-0.521,0.208
			S17.463,128.715,17.463,128.938z"/>
		<path fill="#4D4D4D" d="M22.88,126.019c0.539,0,0.916,0.153,1.132,0.46c0.217,0.307,0.324,0.844,0.324,1.612
			c0,0.768-0.135,1.308-0.403,1.62c-0.27,0.312-0.765,0.468-1.484,0.468c-0.224,0-0.595-0.021-1.112-0.064l-0.224-0.023v-5.736
			h0.592v1.944C22.109,126.112,22.501,126.019,22.88,126.019z M22.44,129.643c0.522,0,0.868-0.118,1.036-0.355
			s0.252-0.639,0.252-1.204s-0.067-0.962-0.2-1.188c-0.134-0.227-0.371-0.34-0.712-0.34c-0.31,0-0.627,0.059-0.952,0.176
			l-0.16,0.057v2.815C22.051,129.629,22.296,129.643,22.44,129.643z"/>
		<path fill="#4D4D4D" d="M25.319,125.194v-0.695h0.6v0.695H25.319z M25.319,130.099v-4h0.6v4H25.319z"/>
		<path fill="#4D4D4D" d="M27.119,130.099v-5.744h0.6v5.744H27.119z"/>
		<path fill="#4D4D4D" d="M28.92,125.194v-0.695h0.6v0.695H28.92z M28.92,130.099v-4h0.6v4H28.92z"/>
		<path fill="#4D4D4D" d="M32.744,126.618h-1.272v1.912c0,0.459,0.033,0.761,0.1,0.904c0.067,0.145,0.226,0.216,0.477,0.216
			l0.712-0.048l0.04,0.496c-0.357,0.059-0.63,0.088-0.816,0.088c-0.416,0-0.704-0.102-0.863-0.304c-0.16-0.203-0.24-0.59-0.24-1.16
			v-2.104h-0.568v-0.52h0.568v-1.224h0.592v1.224h1.272V126.618z"/>
		<path fill="#4D4D4D" d="M36.304,127.307v2.048c0.016,0.197,0.17,0.314,0.464,0.353l-0.024,0.472c-0.421,0-0.738-0.106-0.952-0.32
			c-0.479,0.214-0.96,0.32-1.439,0.32c-0.368,0-0.648-0.104-0.84-0.312c-0.192-0.208-0.288-0.506-0.288-0.896
			s0.099-0.676,0.296-0.86c0.197-0.184,0.507-0.297,0.928-0.34l1.256-0.12v-0.344c0-0.272-0.059-0.467-0.176-0.584
			s-0.277-0.176-0.48-0.176c-0.427,0-0.869,0.026-1.327,0.08l-0.248,0.023l-0.024-0.456c0.587-0.117,1.106-0.176,1.56-0.176
			c0.454,0,0.783,0.104,0.988,0.312S36.304,126.864,36.304,127.307z M33.743,125.131v-0.721h0.576v0.721H33.743z M33.839,128.938
			c0,0.491,0.203,0.736,0.608,0.736c0.362,0,0.72-0.062,1.072-0.185l0.184-0.063v-1.32l-1.184,0.112
			c-0.24,0.021-0.414,0.091-0.521,0.208S33.839,128.715,33.839,128.938z M35.344,125.131v-0.721h0.584v0.721H35.344z"/>
		<path fill="#4D4D4D" d="M39.56,126.618h-1.272v1.912c0,0.459,0.033,0.761,0.1,0.904c0.067,0.145,0.226,0.216,0.477,0.216
			l0.712-0.048l0.04,0.496c-0.357,0.059-0.63,0.088-0.816,0.088c-0.416,0-0.704-0.102-0.863-0.304c-0.16-0.203-0.24-0.59-0.24-1.16
			v-2.104h-0.568v-0.52h0.568v-1.224h0.592v1.224h1.272V126.618z"/>
	</g>
</g>
<g>
	<g>
		<path fill="#4D4D4D" d="M167.445,130.849h-3.047v-5.536h0.615v4.984h2.432V130.849z"/>
		<path fill="#4D4D4D" d="M168.127,125.944v-0.695h0.6v0.695H168.127z M168.127,130.849v-4h0.6v4H168.127z"/>
		<path fill="#4D4D4D" d="M171.207,130.929c-0.539,0-0.924-0.157-1.156-0.472c-0.232-0.315-0.348-0.849-0.348-1.601
			s0.139-1.288,0.416-1.607c0.275-0.32,0.768-0.48,1.471-0.48l1.336,0.08v5.776h-0.592v-1.96
			C171.961,130.841,171.584,130.929,171.207,130.929z M171.598,127.289c-0.5,0-0.84,0.125-1.02,0.376
			c-0.178,0.25-0.268,0.649-0.268,1.195c0,0.547,0.072,0.939,0.219,1.177c0.148,0.237,0.395,0.355,0.74,0.355
			c0.311,0,0.617-0.059,0.92-0.176l0.145-0.057v-2.823C172.004,127.305,171.758,127.289,171.598,127.289z"/>
		<path fill="#4D4D4D" d="M176.582,126.849h0.6v4h-0.6v-0.28c-0.4,0.24-0.795,0.36-1.184,0.36c-0.545,0-0.906-0.142-1.084-0.424
			c-0.18-0.283-0.268-0.806-0.268-1.568v-2.088h0.6v2.08c0,0.581,0.051,0.971,0.152,1.168s0.33,0.296,0.688,0.296
			c0.176,0,0.355-0.025,0.535-0.076c0.182-0.051,0.32-0.1,0.416-0.147l0.145-0.072V126.849z"/>
		<path fill="#4D4D4D" d="M178.334,125.944v-0.695h0.6v0.695H178.334z M178.334,130.849v-4h0.6v4H178.334z"/>
		<path fill="#4D4D4D" d="M183.158,125.104v5.744h-0.592v-0.272c-0.41,0.235-0.816,0.353-1.217,0.353
			c-0.213,0-0.398-0.026-0.559-0.08s-0.311-0.149-0.449-0.288c-0.287-0.288-0.432-0.82-0.432-1.596c0-0.776,0.129-1.336,0.389-1.681
			c0.258-0.344,0.686-0.516,1.283-0.516c0.309,0,0.637,0.035,0.984,0.104v-1.769H183.158z M181.078,130.337
			c0.096,0.037,0.221,0.056,0.373,0.056c0.15,0,0.322-0.025,0.512-0.076s0.336-0.1,0.443-0.147l0.16-0.072v-2.712
			c-0.342-0.064-0.658-0.096-0.953-0.096c-0.404,0-0.688,0.129-0.848,0.388s-0.24,0.66-0.24,1.204c0,0.618,0.094,1.034,0.281,1.248
			C180.891,130.23,180.982,130.3,181.078,130.337z"/>
		<path fill="#4D4D4D" d="M184.318,125.944v-0.695h0.6v0.695H184.318z M184.318,130.849v-4h0.6v4H184.318z"/>
		<path fill="#4D4D4D" d="M188.143,127.368h-1.273v1.912c0,0.459,0.033,0.761,0.1,0.904c0.068,0.145,0.227,0.216,0.477,0.216
			l0.713-0.048l0.039,0.496c-0.357,0.059-0.629,0.088-0.816,0.088c-0.416,0-0.703-0.102-0.863-0.304
			c-0.16-0.203-0.24-0.59-0.24-1.16v-2.104h-0.568v-0.52h0.568v-1.224h0.592v1.224h1.273V127.368z"/>
		<path fill="#4D4D4D" d="M191.703,128.057v2.048c0.016,0.197,0.17,0.314,0.463,0.353l-0.023,0.472c-0.422,0-0.738-0.106-0.953-0.32
			c-0.479,0.214-0.959,0.32-1.439,0.32c-0.367,0-0.648-0.104-0.84-0.312s-0.287-0.506-0.287-0.896s0.098-0.676,0.295-0.86
			c0.197-0.184,0.508-0.297,0.928-0.34l1.256-0.12v-0.344c0-0.272-0.059-0.467-0.176-0.584s-0.277-0.176-0.48-0.176
			c-0.426,0-0.869,0.026-1.326,0.08l-0.248,0.023l-0.025-0.456c0.588-0.117,1.107-0.176,1.561-0.176s0.783,0.104,0.988,0.312
			S191.703,127.614,191.703,128.057z M189.143,125.881v-0.721h0.576v0.721H189.143z M189.238,129.688
			c0,0.491,0.203,0.736,0.607,0.736c0.363,0,0.721-0.062,1.072-0.185l0.184-0.063v-1.32l-1.184,0.112
			c-0.24,0.021-0.414,0.091-0.52,0.208C189.291,129.294,189.238,129.465,189.238,129.688z M190.742,125.881v-0.721h0.584v0.721
			H190.742z"/>
		<path fill="#4D4D4D" d="M194.959,127.368h-1.273v1.912c0,0.459,0.033,0.761,0.1,0.904c0.068,0.145,0.227,0.216,0.477,0.216
			l0.713-0.048l0.039,0.496c-0.357,0.059-0.629,0.088-0.816,0.088c-0.416,0-0.703-0.102-0.863-0.304
			c-0.16-0.203-0.24-0.59-0.24-1.16v-2.104h-0.568v-0.52h0.568v-1.224h0.592v1.224h1.273V127.368z"/>
	</g>
</g>
<polygon fill="none" stroke="#00B8FA" stroke-miterlimit="10" points="101.621,18.787 41.024,123.744 162.218,123.744 "/>
<g>
	<line fill="none" stroke="#00B8FA" stroke-miterlimit="10" x1="87.26" y1="24.286" x2="79.829" y2="35.004"/>
	<polygon fill="#00B8FA" points="90.707,19.532 81.152,24.043 89.836,30.063 	"/>
</g>
<g>
	<line fill="none" stroke="#00B8FA" stroke-miterlimit="10" x1="37.735" y1="110.861" x2="45.016" y2="100.041"/>
	<polygon fill="#00B8FA" points="34.354,115.663 43.846,111.02 35.079,105.121 	"/>
</g>
<g>
	<line fill="none" stroke="#4D4D4D" stroke-miterlimit="10" x1="165.593" y1="110.909" x2="158.163" y2="100.191"/>
	<polygon fill="#4D4D4D" points="169.041,115.663 159.485,111.152 168.169,105.132 	"/>
</g>
<g>
	<line fill="none" stroke="#4D4D4D" stroke-miterlimit="10" x1="116.069" y1="24.334" x2="123.349" y2="35.154"/>
	<polygon fill="#4D4D4D" points="112.687,19.532 122.179,24.175 113.412,30.074 	"/>
</g>
<g>
	<line fill="none" stroke="#00B8FA" stroke-miterlimit="10" x1="51.706" y1="133.208" x2="64.748" y2="133.208"/>
	<polygon fill="#00B8FA" points="45.835,133.083 54.986,138.367 54.986,127.8 	"/>
</g>
<g>
	<line fill="none" stroke="#00B8FA" stroke-miterlimit="10" x1="151.544" y1="132.958" x2="138.502" y2="132.958"/>
	<polygon fill="#00B8FA" points="157.415,133.083 148.264,127.8 148.264,138.367 	"/>
</g>
</svg>
