<?xml version="1.0" encoding="utf-8"?>
<!-- Generator: Adobe Illustrator 21.1.0, SVG Export Plug-In . SVG Version: 6.00 Build 0)  -->
<svg version="1.1" id="Ebene_1" xmlns="http://www.w3.org/2000/svg" xmlns:xlink="http://www.w3.org/1999/xlink" x="0px" y="0px"
	 viewBox="0 0 200 200" enable-background="new 0 0 200 200" xml:space="preserve">
<rect x="0.333" y="0.333" fill="#FFFFFF" width="200" height="200.667"/>
<g>
	<path fill="#4D4D4D" d="M5.152,67.123H4.536v-5.536h0.616v2.576l0.912-0.032l1.416-2.544h0.704l-1.584,2.784l1.672,2.752H7.545
		l-1.473-2.448l-0.92,0.032V67.123z"/>
	<path fill="#4D4D4D" d="M11.809,64.331v2.048c0.016,0.197,0.17,0.314,0.464,0.353l-0.024,0.472c-0.421,0-0.738-0.106-0.952-0.32
		c-0.479,0.214-0.96,0.32-1.439,0.32c-0.368,0-0.648-0.104-0.84-0.312c-0.192-0.208-0.288-0.506-0.288-0.896s0.099-0.676,0.296-0.86
		c0.197-0.184,0.507-0.297,0.928-0.34l1.256-0.12v-0.344c0-0.272-0.059-0.467-0.176-0.584s-0.277-0.176-0.48-0.176
		c-0.427,0-0.869,0.026-1.327,0.08l-0.248,0.023l-0.024-0.456c0.587-0.117,1.106-0.176,1.56-0.176c0.454,0,0.783,0.104,0.988,0.312
		S11.809,63.888,11.809,64.331z M9.344,65.963c0,0.491,0.203,0.736,0.608,0.736c0.362,0,0.72-0.062,1.072-0.185l0.184-0.063v-1.32
		l-1.184,0.112c-0.24,0.021-0.414,0.091-0.521,0.208S9.344,65.739,9.344,65.963z"/>
	<path fill="#4D4D4D" d="M15.488,63.123h0.6v4h-0.6v-0.28c-0.4,0.24-0.795,0.36-1.185,0.36c-0.544,0-0.905-0.142-1.084-0.424
		c-0.179-0.283-0.268-0.806-0.268-1.568v-2.088h0.6v2.08c0,0.581,0.051,0.971,0.152,1.168s0.33,0.296,0.688,0.296
		c0.177,0,0.355-0.025,0.536-0.076c0.182-0.051,0.32-0.1,0.416-0.147l0.145-0.072V63.123z"/>
	<path fill="#4D4D4D" d="M18.008,63.642v3.48h-0.6v-3.48h-0.504v-0.52h0.504v-0.36c0-0.564,0.08-0.95,0.24-1.155
		c0.159-0.206,0.439-0.309,0.84-0.309l0.808,0.057l-0.008,0.495c-0.299-0.01-0.545-0.016-0.74-0.016
		c-0.194,0-0.333,0.064-0.416,0.192s-0.124,0.376-0.124,0.744v0.352h1.16v0.52H18.008z"/>
	<path fill="#4D4D4D" d="M22.713,64.331v2.048c0.016,0.197,0.17,0.314,0.464,0.353l-0.024,0.472c-0.421,0-0.738-0.106-0.952-0.32
		c-0.479,0.214-0.96,0.32-1.439,0.32c-0.368,0-0.648-0.104-0.84-0.312c-0.192-0.208-0.288-0.506-0.288-0.896s0.099-0.676,0.296-0.86
		c0.197-0.184,0.507-0.297,0.928-0.34l1.256-0.12v-0.344c0-0.272-0.059-0.467-0.176-0.584s-0.277-0.176-0.48-0.176
		c-0.427,0-0.869,0.026-1.327,0.08l-0.248,0.023l-0.024-0.456c0.587-0.117,1.106-0.176,1.56-0.176c0.454,0,0.783,0.104,0.988,0.312
		S22.713,63.888,22.713,64.331z M20.248,65.963c0,0.491,0.203,0.736,0.608,0.736c0.362,0,0.72-0.062,1.072-0.185l0.184-0.063v-1.32
		l-1.184,0.112c-0.24,0.021-0.414,0.091-0.521,0.208S20.248,65.739,20.248,65.963z"/>
	<path fill="#4D4D4D" d="M26.393,63.123h0.6v4h-0.6v-0.28c-0.4,0.24-0.795,0.36-1.185,0.36c-0.544,0-0.905-0.142-1.084-0.424
		c-0.179-0.283-0.268-0.806-0.268-1.568v-2.088h0.6v2.08c0,0.581,0.051,0.971,0.152,1.168s0.33,0.296,0.688,0.296
		c0.177,0,0.355-0.025,0.536-0.076c0.182-0.051,0.32-0.1,0.416-0.147l0.145-0.072V63.123z"/>
	<path fill="#4D4D4D" d="M28.912,63.642v3.48h-0.6v-3.48h-0.504v-0.52h0.504v-0.36c0-0.564,0.08-0.95,0.24-1.155
		c0.159-0.206,0.439-0.309,0.84-0.309l0.808,0.057l-0.008,0.495c-0.299-0.01-0.545-0.016-0.74-0.016
		c-0.194,0-0.333,0.064-0.416,0.192s-0.124,0.376-0.124,0.744v0.352h1.16v0.52H28.912z"/>
	<path fill="#4D4D4D" d="M32.864,63.642h-1.272v1.912c0,0.459,0.033,0.761,0.1,0.904c0.067,0.145,0.226,0.216,0.477,0.216
		l0.712-0.048l0.04,0.496c-0.357,0.059-0.63,0.088-0.816,0.088c-0.416,0-0.704-0.102-0.863-0.304c-0.16-0.203-0.24-0.59-0.24-1.16
		v-2.104h-0.568v-0.52H31v-1.224h0.592v1.224h1.272V63.642z"/>
	<path fill="#4D4D4D" d="M33.6,67.123v-4h0.592v0.544c0.464-0.32,0.952-0.53,1.464-0.632v0.607c-0.224,0.043-0.457,0.109-0.7,0.2
		c-0.242,0.091-0.428,0.171-0.556,0.24l-0.2,0.104v2.936H33.6z"/>
	<path fill="#4D4D4D" d="M39.192,64.331v2.048c0.016,0.197,0.17,0.314,0.464,0.353l-0.024,0.472c-0.421,0-0.738-0.106-0.952-0.32
		c-0.479,0.214-0.96,0.32-1.439,0.32c-0.368,0-0.648-0.104-0.84-0.312c-0.192-0.208-0.288-0.506-0.288-0.896s0.099-0.676,0.296-0.86
		c0.197-0.184,0.507-0.297,0.928-0.34l1.256-0.12v-0.344c0-0.272-0.059-0.467-0.176-0.584s-0.277-0.176-0.48-0.176
		c-0.427,0-0.869,0.026-1.327,0.08l-0.248,0.023l-0.024-0.456c0.587-0.117,1.106-0.176,1.56-0.176c0.454,0,0.783,0.104,0.988,0.312
		S39.192,63.888,39.192,64.331z M36.632,62.155v-0.721h0.576v0.721H36.632z M36.728,65.963c0,0.491,0.203,0.736,0.608,0.736
		c0.362,0,0.72-0.062,1.072-0.185l0.184-0.063v-1.32l-1.184,0.112c-0.24,0.021-0.414,0.091-0.521,0.208S36.728,65.739,36.728,65.963
		z M38.232,62.155v-0.721h0.584v0.721H38.232z"/>
	<path fill="#4D4D4D" d="M41.92,69.003c-0.64,0-1.087-0.087-1.34-0.26c-0.254-0.174-0.38-0.489-0.38-0.948
		c0-0.219,0.048-0.396,0.144-0.532c0.096-0.136,0.259-0.289,0.488-0.46c-0.149-0.101-0.225-0.285-0.225-0.552
		c0-0.091,0.067-0.259,0.2-0.504l0.072-0.128c-0.422-0.192-0.632-0.595-0.632-1.208c0-0.912,0.498-1.368,1.496-1.368
		c0.256,0,0.493,0.026,0.712,0.08l0.12,0.024l1.184-0.032v0.512L43,63.611c0.176,0.176,0.264,0.442,0.264,0.8
		c0,0.501-0.124,0.852-0.372,1.052s-0.639,0.3-1.172,0.3c-0.144,0-0.274-0.011-0.392-0.031c-0.097,0.234-0.145,0.387-0.145,0.456
		c0,0.165,0.051,0.268,0.152,0.308c0.102,0.04,0.408,0.06,0.92,0.06s0.88,0.08,1.104,0.24c0.225,0.16,0.337,0.472,0.337,0.937
		C43.696,68.579,43.104,69.003,41.92,69.003z M40.792,67.747c0,0.282,0.078,0.479,0.235,0.588s0.448,0.164,0.872,0.164
		c0.425,0,0.729-0.059,0.912-0.176c0.185-0.117,0.276-0.313,0.276-0.588c0-0.275-0.066-0.452-0.2-0.532
		c-0.133-0.08-0.395-0.12-0.784-0.12l-0.863-0.04c-0.177,0.128-0.295,0.24-0.356,0.336S40.792,67.597,40.792,67.747z M40.848,64.411
		c0,0.314,0.07,0.539,0.212,0.672c0.142,0.134,0.375,0.2,0.7,0.2s0.558-0.066,0.696-0.2c0.139-0.133,0.208-0.358,0.208-0.676
		s-0.069-0.543-0.208-0.676c-0.139-0.134-0.371-0.2-0.696-0.2s-0.559,0.067-0.7,0.204C40.918,63.871,40.848,64.096,40.848,64.411z"
		/>
	<path fill="#4D4D4D" d="M47.208,66.627l0.232-0.023l0.016,0.472c-0.608,0.085-1.128,0.128-1.56,0.128
		c-0.576,0-0.984-0.167-1.225-0.5s-0.359-0.853-0.359-1.556c0-1.403,0.557-2.104,1.672-2.104c0.538,0,0.941,0.15,1.208,0.452
		s0.399,0.774,0.399,1.42l-0.031,0.456H44.92c0,0.442,0.08,0.771,0.24,0.984c0.16,0.213,0.438,0.319,0.836,0.319
		S46.797,66.659,47.208,66.627z M46.992,64.89c0-0.49-0.079-0.837-0.236-1.04c-0.157-0.202-0.413-0.304-0.768-0.304
		s-0.621,0.106-0.8,0.32c-0.179,0.213-0.271,0.555-0.276,1.023H46.992z"/>
</g>
<g>
	<path fill="#4D4D4D" d="M5.032,101.012h-0.6v-5.744h0.6v1.968c0.427-0.202,0.838-0.304,1.232-0.304
		c0.533,0,0.892,0.145,1.076,0.432c0.184,0.288,0.275,0.801,0.275,1.536v2.112h-0.6v-2.096c0-0.555-0.055-0.935-0.164-1.141
		c-0.109-0.205-0.34-0.308-0.692-0.308c-0.336,0-0.661,0.062-0.976,0.184l-0.152,0.057V101.012z"/>
	<path fill="#4D4D4D" d="M10.269,96.932c0.621,0,1.062,0.163,1.319,0.488c0.259,0.325,0.389,0.854,0.389,1.584
		s-0.123,1.261-0.368,1.592s-0.693,0.496-1.344,0.496c-0.651,0-1.099-0.165-1.345-0.496c-0.245-0.331-0.367-0.861-0.367-1.592
		s0.13-1.259,0.392-1.584S9.646,96.932,10.269,96.932z M9.152,96.045v-0.721h0.576v0.721H9.152z M10.269,100.572
		c0.45,0,0.745-0.115,0.884-0.348c0.139-0.231,0.208-0.642,0.208-1.228c0-0.587-0.077-0.991-0.232-1.212
		c-0.154-0.222-0.441-0.332-0.859-0.332c-0.419,0-0.707,0.11-0.864,0.332c-0.157,0.221-0.236,0.624-0.236,1.208
		s0.071,0.993,0.212,1.228C9.521,100.455,9.817,100.572,10.269,100.572z M10.752,96.045v-0.721h0.584v0.721H10.752z"/>
	<path fill="#4D4D4D" d="M14.448,96.932c0.176,0,0.475,0.032,0.896,0.096l0.192,0.024l-0.024,0.488
		c-0.427-0.048-0.741-0.072-0.943-0.072c-0.454,0-0.762,0.108-0.925,0.324c-0.162,0.216-0.243,0.616-0.243,1.2
		s0.075,0.99,0.228,1.22s0.468,0.344,0.948,0.344l0.943-0.072l0.024,0.496c-0.496,0.075-0.867,0.112-1.112,0.112
		c-0.624,0-1.055-0.16-1.292-0.48c-0.237-0.319-0.355-0.859-0.355-1.619c0-0.761,0.128-1.294,0.384-1.601
		S13.851,96.932,14.448,96.932z"/>
	<path fill="#4D4D4D" d="M17.04,101.012h-0.6v-5.744h0.6v1.968c0.427-0.202,0.838-0.304,1.232-0.304
		c0.533,0,0.892,0.145,1.076,0.432c0.184,0.288,0.275,0.801,0.275,1.536v2.112h-0.6v-2.096c0-0.555-0.055-0.935-0.164-1.141
		c-0.109-0.205-0.34-0.308-0.692-0.308c-0.336,0-0.661,0.062-0.976,0.184l-0.152,0.057V101.012z"/>
	<path fill="#4D4D4D" d="M21.992,97.468c-0.581,0-0.872,0.203-0.872,0.608c0,0.187,0.066,0.318,0.2,0.396
		c0.133,0.077,0.438,0.157,0.912,0.24s0.811,0.198,1.008,0.348c0.197,0.149,0.296,0.43,0.296,0.84c0,0.411-0.132,0.712-0.396,0.904
		c-0.265,0.192-0.649,0.288-1.156,0.288c-0.331,0-0.721-0.037-1.168-0.112l-0.24-0.04l0.032-0.52
		c0.607,0.091,1.066,0.136,1.376,0.136c0.309,0,0.545-0.049,0.708-0.147c0.162-0.099,0.244-0.265,0.244-0.496
		c0-0.232-0.069-0.39-0.208-0.473c-0.139-0.082-0.443-0.161-0.912-0.235c-0.47-0.075-0.803-0.185-1-0.328
		c-0.197-0.145-0.296-0.411-0.296-0.8c0-0.39,0.137-0.678,0.412-0.864c0.274-0.187,0.617-0.28,1.027-0.28
		c0.325,0,0.733,0.037,1.225,0.112l0.224,0.04l-0.016,0.512C22.8,97.511,22.333,97.468,21.992,97.468z"/>
	<path fill="#4D4D4D" d="M26.528,97.532h-1.272v1.912c0,0.459,0.033,0.761,0.1,0.904c0.067,0.145,0.226,0.216,0.477,0.216
		l0.712-0.048l0.04,0.496c-0.357,0.059-0.63,0.088-0.816,0.088c-0.416,0-0.704-0.102-0.863-0.304c-0.16-0.203-0.24-0.59-0.24-1.16
		v-2.104h-0.568v-0.52h0.568v-1.224h0.592v1.224h1.272V97.532z"/>
	<path fill="#4D4D4D" d="M29.984,100.516l0.232-0.023l0.016,0.472c-0.608,0.085-1.128,0.128-1.56,0.128
		c-0.576,0-0.984-0.167-1.225-0.5s-0.359-0.853-0.359-1.556c0-1.403,0.557-2.104,1.672-2.104c0.538,0,0.941,0.15,1.208,0.452
		s0.399,0.774,0.399,1.42l-0.031,0.456h-2.641c0,0.442,0.08,0.771,0.24,0.984c0.16,0.213,0.438,0.319,0.836,0.319
		S29.573,100.549,29.984,100.516z M29.769,98.78c0-0.49-0.079-0.837-0.236-1.04c-0.157-0.202-0.413-0.304-0.768-0.304
		s-0.621,0.106-0.8,0.32c-0.179,0.213-0.271,0.555-0.276,1.023H29.769z"/>
	<path fill="#4D4D4D" d="M32.561,97.468c-0.581,0-0.872,0.203-0.872,0.608c0,0.187,0.066,0.318,0.2,0.396
		c0.133,0.077,0.438,0.157,0.912,0.24s0.811,0.198,1.008,0.348s0.296,0.43,0.296,0.84c0,0.411-0.132,0.712-0.396,0.904
		c-0.265,0.192-0.649,0.288-1.156,0.288c-0.331,0-0.721-0.037-1.168-0.112l-0.24-0.04l0.032-0.52
		c0.607,0.091,1.066,0.136,1.376,0.136c0.309,0,0.545-0.049,0.708-0.147c0.162-0.099,0.244-0.265,0.244-0.496
		c0-0.232-0.069-0.39-0.208-0.473c-0.139-0.082-0.443-0.161-0.912-0.235c-0.47-0.075-0.803-0.185-1-0.328
		c-0.197-0.145-0.296-0.411-0.296-0.8c0-0.39,0.137-0.678,0.412-0.864c0.274-0.187,0.617-0.28,1.027-0.28
		c0.325,0,0.733,0.037,1.225,0.112l0.224,0.04l-0.016,0.512C33.368,97.511,32.901,97.468,32.561,97.468z"/>
	<path fill="#4D4D4D" d="M39.08,98.732V98.18h1.528v2.72c-0.673,0.128-1.272,0.192-1.801,0.192c-0.805,0-1.363-0.232-1.676-0.696
		c-0.312-0.464-0.468-1.18-0.468-2.147c0-0.969,0.156-1.686,0.468-2.152c0.312-0.467,0.865-0.7,1.66-0.7
		c0.496,0,1.011,0.054,1.544,0.16l0.272,0.048l-0.024,0.512c-0.661-0.111-1.234-0.168-1.72-0.168c-0.613,0-1.027,0.178-1.24,0.532
		c-0.214,0.354-0.32,0.944-0.32,1.769c0,0.823,0.106,1.413,0.32,1.768c0.213,0.354,0.624,0.532,1.232,0.532
		c0.373,0,0.754-0.037,1.144-0.112v-1.704H39.08z"/>
	<path fill="#4D4D4D" d="M44.432,100.516l0.232-0.023l0.016,0.472c-0.608,0.085-1.128,0.128-1.56,0.128
		c-0.576,0-0.984-0.167-1.225-0.5s-0.359-0.853-0.359-1.556c0-1.403,0.557-2.104,1.672-2.104c0.538,0,0.941,0.15,1.208,0.452
		s0.399,0.774,0.399,1.42l-0.031,0.456h-2.641c0,0.442,0.08,0.771,0.24,0.984c0.16,0.213,0.438,0.319,0.836,0.319
		S44.021,100.549,44.432,100.516z M44.216,98.78c0-0.49-0.079-0.837-0.236-1.04c-0.157-0.202-0.413-0.304-0.768-0.304
		s-0.621,0.106-0.8,0.32c-0.179,0.213-0.271,0.555-0.276,1.023H44.216z"/>
	<path fill="#4D4D4D" d="M47.52,96.932c0.539,0,0.916,0.153,1.132,0.46c0.217,0.307,0.324,0.844,0.324,1.612
		c0,0.768-0.135,1.308-0.403,1.62c-0.27,0.312-0.765,0.468-1.484,0.468c-0.224,0-0.595-0.021-1.112-0.064l-0.224-0.023v-5.736h0.592
		v1.944C46.749,97.026,47.141,96.932,47.52,96.932z M47.08,100.556c0.522,0,0.868-0.118,1.036-0.355s0.252-0.639,0.252-1.204
		s-0.067-0.962-0.2-1.188c-0.134-0.227-0.371-0.34-0.712-0.34c-0.31,0-0.627,0.059-0.952,0.176l-0.16,0.057v2.815
		C46.69,100.543,46.936,100.556,47.08,100.556z"/>
	<path fill="#4D4D4D" d="M49.784,99.005c0-0.73,0.13-1.259,0.392-1.584c0.262-0.325,0.702-0.488,1.324-0.488
		c0.621,0,1.062,0.163,1.319,0.488c0.259,0.325,0.389,0.854,0.389,1.584s-0.123,1.261-0.368,1.592s-0.693,0.496-1.344,0.496
		c-0.651,0-1.099-0.165-1.345-0.496C49.906,100.265,49.784,99.735,49.784,99.005z M50.399,98.993c0,0.584,0.071,0.993,0.212,1.228
		c0.142,0.234,0.438,0.352,0.889,0.352c0.45,0,0.745-0.115,0.884-0.348c0.139-0.231,0.208-0.642,0.208-1.228
		c0-0.587-0.077-0.991-0.232-1.212c-0.154-0.222-0.441-0.332-0.859-0.332c-0.419,0-0.707,0.11-0.864,0.332
		C50.479,98.006,50.399,98.409,50.399,98.993z"/>
	<path fill="#4D4D4D" d="M56.225,97.532h-1.272v1.912c0,0.459,0.033,0.761,0.1,0.904c0.067,0.145,0.226,0.216,0.477,0.216
		l0.712-0.048l0.04,0.496c-0.357,0.059-0.63,0.088-0.816,0.088c-0.416,0-0.704-0.102-0.863-0.304c-0.16-0.203-0.24-0.59-0.24-1.16
		v-2.104h-0.568v-0.52h0.568v-1.224h0.592v1.224h1.272V97.532z"/>
	<path fill="#4D4D4D" d="M6.729,108.332v-0.552h1.528v2.72c-0.673,0.128-1.272,0.192-1.801,0.192c-0.805,0-1.363-0.232-1.676-0.696
		c-0.312-0.464-0.468-1.18-0.468-2.147c0-0.969,0.156-1.686,0.468-2.152c0.312-0.467,0.865-0.7,1.66-0.7
		c0.496,0,1.011,0.054,1.544,0.16l0.272,0.048l-0.024,0.512c-0.661-0.111-1.234-0.168-1.72-0.168c-0.613,0-1.027,0.178-1.24,0.532
		c-0.214,0.354-0.32,0.944-0.32,1.769c0,0.823,0.106,1.413,0.32,1.768c0.213,0.354,0.624,0.532,1.232,0.532
		c0.373,0,0.754-0.037,1.144-0.112v-1.704H6.729z"/>
	<path fill="#4D4D4D" d="M12.08,110.116l0.232-0.023l0.016,0.472c-0.608,0.085-1.128,0.128-1.56,0.128
		c-0.576,0-0.984-0.167-1.225-0.5s-0.359-0.853-0.359-1.556c0-1.403,0.557-2.104,1.672-2.104c0.538,0,0.941,0.15,1.208,0.452
		s0.399,0.774,0.399,1.42l-0.031,0.456H9.792c0,0.442,0.08,0.771,0.24,0.984c0.16,0.213,0.438,0.319,0.836,0.319
		S11.669,110.148,12.08,110.116z M11.864,108.38c0-0.49-0.079-0.837-0.236-1.04c-0.157-0.202-0.413-0.304-0.768-0.304
		s-0.621,0.106-0.8,0.32c-0.179,0.213-0.271,0.555-0.276,1.023H11.864z"/>
	<path fill="#4D4D4D" d="M13.448,110.612v-5.744h0.6v5.744H13.448z"/>
	<path fill="#4D4D4D" d="M18.32,104.868v5.744h-0.593v-0.272c-0.41,0.235-0.815,0.353-1.216,0.353c-0.213,0-0.399-0.026-0.56-0.08
		s-0.31-0.149-0.448-0.288c-0.288-0.288-0.432-0.82-0.432-1.596c0-0.776,0.129-1.336,0.388-1.681
		c0.259-0.344,0.687-0.516,1.284-0.516c0.309,0,0.637,0.035,0.983,0.104v-1.769H18.32z M16.24,110.1
		c0.096,0.037,0.22,0.056,0.372,0.056c0.151,0,0.322-0.025,0.512-0.076s0.337-0.1,0.444-0.147l0.159-0.072v-2.712
		c-0.341-0.064-0.658-0.096-0.952-0.096c-0.405,0-0.688,0.129-0.848,0.388s-0.24,0.66-0.24,1.204c0,0.618,0.094,1.034,0.28,1.248
		C16.053,109.994,16.144,110.063,16.24,110.1z"/>
	<path fill="#4D4D4D" d="M20.08,110.612h-0.6v-5.744h0.6v3.393l0.624-0.032l1.145-1.616h0.68l-1.304,1.84l1.359,2.16h-0.68
		l-1.192-1.856l-0.632,0.024V110.612z"/>
	<path fill="#4D4D4D" d="M25.809,106.612h0.6v4h-0.6v-0.28c-0.4,0.24-0.795,0.36-1.185,0.36c-0.544,0-0.905-0.142-1.084-0.424
		c-0.179-0.283-0.268-0.806-0.268-1.568v-2.088h0.6v2.08c0,0.581,0.051,0.971,0.152,1.168s0.33,0.296,0.688,0.296
		c0.177,0,0.355-0.025,0.536-0.076c0.182-0.051,0.32-0.1,0.416-0.147l0.145-0.072V106.612z"/>
	<path fill="#4D4D4D" d="M27.561,110.612v-4h0.592v0.544c0.464-0.32,0.952-0.53,1.464-0.632v0.607c-0.224,0.043-0.457,0.109-0.7,0.2
		c-0.242,0.091-0.428,0.171-0.556,0.24l-0.2,0.104v2.936H27.561z"/>
	<path fill="#4D4D4D" d="M31.584,107.068c-0.581,0-0.872,0.203-0.872,0.608c0,0.187,0.066,0.318,0.2,0.396
		c0.133,0.077,0.438,0.157,0.912,0.24s0.811,0.198,1.008,0.348s0.296,0.43,0.296,0.84c0,0.411-0.132,0.712-0.396,0.904
		c-0.265,0.192-0.649,0.288-1.156,0.288c-0.331,0-0.721-0.037-1.168-0.112l-0.24-0.04l0.032-0.52
		c0.607,0.091,1.066,0.136,1.376,0.136c0.309,0,0.545-0.049,0.708-0.147c0.162-0.099,0.244-0.265,0.244-0.496
		c0-0.232-0.069-0.39-0.208-0.473c-0.139-0.082-0.443-0.161-0.912-0.235c-0.47-0.075-0.803-0.185-1-0.328
		c-0.197-0.145-0.296-0.411-0.296-0.8c0-0.39,0.137-0.678,0.412-0.864c0.274-0.187,0.617-0.28,1.027-0.28
		c0.325,0,0.733,0.037,1.225,0.112l0.224,0.04l-0.016,0.512C32.392,107.111,31.925,107.068,31.584,107.068z"/>
</g>
<g>
	<path fill="#4D4D4D" d="M99.916,101.012h-0.6v-4h0.592v0.28c0.432-0.24,0.846-0.36,1.24-0.36c0.533,0,0.892,0.145,1.076,0.432
		c0.184,0.288,0.275,0.801,0.275,1.536v2.112h-0.592v-2.096c0-0.555-0.055-0.935-0.164-1.141c-0.109-0.205-0.343-0.308-0.7-0.308
		c-0.171,0-0.351,0.025-0.54,0.076s-0.334,0.1-0.436,0.147l-0.152,0.072V101.012z"/>
	<path fill="#4D4D4D" d="M103.612,96.108v-0.695h0.6v0.695H103.612z M103.612,101.012v-4h0.6v4H103.612z"/>
	<path fill="#4D4D4D" d="M108.084,100.516l0.232-0.023l0.016,0.472c-0.608,0.085-1.128,0.128-1.56,0.128
		c-0.576,0-0.984-0.167-1.225-0.5s-0.359-0.853-0.359-1.556c0-1.403,0.557-2.104,1.672-2.104c0.538,0,0.941,0.15,1.208,0.452
		s0.399,0.774,0.399,1.42l-0.031,0.456h-2.641c0,0.442,0.08,0.771,0.24,0.984c0.16,0.213,0.438,0.319,0.836,0.319
		S107.673,100.549,108.084,100.516z M107.868,98.78c0-0.49-0.079-0.837-0.236-1.04c-0.157-0.202-0.413-0.304-0.768-0.304
		s-0.621,0.106-0.8,0.32c-0.179,0.213-0.271,0.555-0.276,1.023H107.868z"/>
	<path fill="#4D4D4D" d="M112.477,95.268v5.744h-0.593v-0.272c-0.41,0.235-0.815,0.353-1.216,0.353c-0.213,0-0.399-0.026-0.56-0.08
		s-0.31-0.149-0.448-0.288c-0.288-0.288-0.432-0.82-0.432-1.596c0-0.776,0.129-1.336,0.388-1.681
		c0.259-0.344,0.687-0.516,1.284-0.516c0.309,0,0.637,0.035,0.983,0.104v-1.769H112.477z M110.396,100.501
		c0.096,0.037,0.22,0.056,0.372,0.056c0.151,0,0.322-0.025,0.512-0.076s0.337-0.1,0.444-0.147l0.159-0.072v-2.712
		c-0.341-0.064-0.658-0.096-0.952-0.096c-0.405,0-0.688,0.129-0.848,0.388s-0.24,0.66-0.24,1.204c0,0.618,0.094,1.034,0.28,1.248
		C110.209,100.394,110.3,100.464,110.396,100.501z"/>
	<path fill="#4D4D4D" d="M113.636,101.012v-4h0.592v0.544c0.464-0.32,0.952-0.53,1.464-0.632v0.607
		c-0.224,0.043-0.457,0.109-0.7,0.2c-0.242,0.091-0.428,0.171-0.556,0.24l-0.2,0.104v2.936H113.636z"/>
	<path fill="#4D4D4D" d="M116.404,96.108v-0.695h0.6v0.695H116.404z M116.404,101.012v-4h0.6v4H116.404z"/>
	<path fill="#4D4D4D" d="M119.7,102.892c-0.64,0-1.087-0.087-1.34-0.26c-0.254-0.174-0.38-0.489-0.38-0.948
		c0-0.219,0.048-0.396,0.144-0.532c0.096-0.136,0.259-0.289,0.488-0.46c-0.149-0.101-0.225-0.285-0.225-0.552
		c0-0.091,0.067-0.259,0.2-0.504l0.072-0.128c-0.422-0.192-0.632-0.595-0.632-1.208c0-0.912,0.498-1.368,1.496-1.368
		c0.256,0,0.493,0.026,0.712,0.08l0.12,0.024l1.184-0.032v0.512l-0.76-0.016c0.176,0.176,0.264,0.442,0.264,0.8
		c0,0.501-0.124,0.852-0.372,1.052s-0.639,0.3-1.172,0.3c-0.144,0-0.274-0.011-0.392-0.031c-0.097,0.234-0.145,0.387-0.145,0.456
		c0,0.165,0.051,0.268,0.152,0.308s0.408,0.06,0.92,0.06s0.88,0.08,1.104,0.24c0.225,0.16,0.337,0.472,0.337,0.937
		C121.477,102.468,120.884,102.892,119.7,102.892z M118.572,101.636c0,0.282,0.078,0.479,0.235,0.588s0.448,0.164,0.872,0.164
		c0.425,0,0.729-0.059,0.912-0.176c0.185-0.117,0.276-0.313,0.276-0.588c0-0.275-0.066-0.452-0.2-0.532
		c-0.133-0.08-0.395-0.12-0.784-0.12l-0.863-0.04c-0.177,0.128-0.295,0.24-0.356,0.336S118.572,101.487,118.572,101.636z
		 M118.628,98.3c0,0.314,0.07,0.539,0.212,0.672c0.142,0.134,0.375,0.2,0.7,0.2s0.558-0.066,0.696-0.2
		c0.139-0.133,0.208-0.358,0.208-0.676s-0.069-0.543-0.208-0.676c-0.139-0.134-0.371-0.2-0.696-0.2s-0.559,0.067-0.7,0.204
		C118.698,97.76,118.628,97.986,118.628,98.3z"/>
	<path fill="#4D4D4D" d="M123.523,97.468c-0.581,0-0.872,0.203-0.872,0.608c0,0.187,0.066,0.318,0.2,0.396
		c0.133,0.077,0.438,0.157,0.912,0.24s0.811,0.198,1.008,0.348s0.296,0.43,0.296,0.84c0,0.411-0.132,0.712-0.396,0.904
		c-0.265,0.192-0.649,0.288-1.156,0.288c-0.331,0-0.721-0.037-1.168-0.112l-0.24-0.04l0.032-0.52
		c0.607,0.091,1.066,0.136,1.376,0.136c0.309,0,0.545-0.049,0.708-0.147c0.162-0.099,0.244-0.265,0.244-0.496
		c0-0.232-0.069-0.39-0.208-0.473c-0.139-0.082-0.443-0.161-0.912-0.235c-0.47-0.075-0.803-0.185-1-0.328
		c-0.197-0.145-0.296-0.411-0.296-0.8c0-0.39,0.137-0.678,0.412-0.864c0.274-0.187,0.617-0.28,1.027-0.28
		c0.325,0,0.733,0.037,1.225,0.112l0.224,0.04l-0.016,0.512C124.331,97.511,123.864,97.468,123.523,97.468z"/>
	<path fill="#4D4D4D" d="M128.061,97.532h-1.272v1.912c0,0.459,0.033,0.761,0.1,0.904c0.067,0.145,0.226,0.216,0.477,0.216
		l0.712-0.048l0.04,0.496c-0.357,0.059-0.63,0.088-0.816,0.088c-0.416,0-0.704-0.102-0.863-0.304c-0.16-0.203-0.24-0.59-0.24-1.16
		v-2.104h-0.568v-0.52h0.568v-1.224h0.592v1.224h1.272V97.532z"/>
	<path fill="#4D4D4D" d="M131.516,100.516l0.232-0.023l0.016,0.472c-0.608,0.085-1.128,0.128-1.56,0.128
		c-0.576,0-0.984-0.167-1.225-0.5s-0.359-0.853-0.359-1.556c0-1.403,0.557-2.104,1.672-2.104c0.538,0,0.941,0.15,1.208,0.452
		s0.399,0.774,0.399,1.42l-0.031,0.456h-2.641c0,0.442,0.08,0.771,0.24,0.984c0.16,0.213,0.438,0.319,0.836,0.319
		S131.104,100.549,131.516,100.516z M131.3,98.78c0-0.49-0.079-0.837-0.236-1.04c-0.157-0.202-0.413-0.304-0.768-0.304
		s-0.621,0.106-0.8,0.32c-0.179,0.213-0.271,0.555-0.276,1.023H131.3z"/>
	<path fill="#4D4D4D" d="M134.092,97.468c-0.581,0-0.872,0.203-0.872,0.608c0,0.187,0.066,0.318,0.2,0.396
		c0.133,0.077,0.438,0.157,0.912,0.24s0.811,0.198,1.008,0.348s0.296,0.43,0.296,0.84c0,0.411-0.132,0.712-0.396,0.904
		c-0.265,0.192-0.649,0.288-1.156,0.288c-0.331,0-0.721-0.037-1.168-0.112l-0.24-0.04l0.032-0.52
		c0.607,0.091,1.066,0.136,1.376,0.136c0.309,0,0.545-0.049,0.708-0.147c0.162-0.099,0.244-0.265,0.244-0.496
		c0-0.232-0.069-0.39-0.208-0.473c-0.139-0.082-0.443-0.161-0.912-0.235c-0.47-0.075-0.803-0.185-1-0.328
		c-0.197-0.145-0.296-0.411-0.296-0.8c0-0.39,0.137-0.678,0.412-0.864c0.274-0.187,0.617-0.28,1.027-0.28
		c0.325,0,0.733,0.037,1.225,0.112l0.224,0.04l-0.016,0.512C134.899,97.511,134.433,97.468,134.092,97.468z"/>
	<path fill="#4D4D4D" d="M140.611,98.732V98.18h1.528v2.72c-0.673,0.128-1.272,0.192-1.801,0.192c-0.805,0-1.363-0.232-1.676-0.696
		c-0.312-0.464-0.468-1.18-0.468-2.147c0-0.969,0.156-1.686,0.468-2.152c0.312-0.467,0.865-0.7,1.66-0.7
		c0.496,0,1.011,0.054,1.544,0.16l0.272,0.048l-0.024,0.512c-0.661-0.111-1.234-0.168-1.72-0.168c-0.613,0-1.027,0.178-1.24,0.532
		c-0.214,0.354-0.32,0.944-0.32,1.769c0,0.823,0.106,1.413,0.32,1.768c0.213,0.354,0.624,0.532,1.232,0.532
		c0.373,0,0.754-0.037,1.144-0.112v-1.704H140.611z"/>
	<path fill="#4D4D4D" d="M145.964,100.516l0.232-0.023l0.016,0.472c-0.608,0.085-1.128,0.128-1.56,0.128
		c-0.576,0-0.984-0.167-1.225-0.5c-0.24-0.333-0.359-0.853-0.359-1.556c0-1.403,0.557-2.104,1.672-2.104
		c0.538,0,0.941,0.15,1.208,0.452s0.399,0.774,0.399,1.42l-0.031,0.456h-2.641c0,0.442,0.08,0.771,0.24,0.984
		c0.16,0.213,0.438,0.319,0.836,0.319S145.553,100.549,145.964,100.516z M145.748,98.78c0-0.49-0.079-0.837-0.236-1.04
		c-0.157-0.202-0.413-0.304-0.768-0.304s-0.621,0.106-0.8,0.32c-0.179,0.213-0.271,0.555-0.276,1.023H145.748z"/>
	<path fill="#4D4D4D" d="M149.051,96.932c0.539,0,0.916,0.153,1.132,0.46c0.217,0.307,0.324,0.844,0.324,1.612
		c0,0.768-0.135,1.308-0.403,1.62c-0.27,0.312-0.765,0.468-1.484,0.468c-0.224,0-0.595-0.021-1.112-0.064l-0.224-0.023v-5.736h0.592
		v1.944C148.28,97.026,148.672,96.932,149.051,96.932z M148.611,100.556c0.522,0,0.868-0.118,1.036-0.355s0.252-0.639,0.252-1.204
		s-0.067-0.962-0.2-1.188c-0.134-0.227-0.371-0.34-0.712-0.34c-0.31,0-0.627,0.059-0.952,0.176l-0.16,0.057v2.815
		C148.222,100.543,148.467,100.556,148.611,100.556z"/>
	<path fill="#4D4D4D" d="M151.315,99.005c0-0.73,0.13-1.259,0.392-1.584s0.702-0.488,1.324-0.488c0.621,0,1.062,0.163,1.319,0.488
		c0.259,0.325,0.389,0.854,0.389,1.584s-0.123,1.261-0.368,1.592s-0.693,0.496-1.344,0.496c-0.651,0-1.099-0.165-1.345-0.496
		C151.437,100.265,151.315,99.735,151.315,99.005z M151.931,98.993c0,0.584,0.071,0.993,0.212,1.228
		c0.142,0.234,0.438,0.352,0.889,0.352c0.45,0,0.745-0.115,0.884-0.348c0.139-0.231,0.208-0.642,0.208-1.228
		c0-0.587-0.077-0.991-0.232-1.212c-0.154-0.222-0.441-0.332-0.859-0.332c-0.419,0-0.707,0.11-0.864,0.332
		C152.01,98.006,151.931,98.409,151.931,98.993z"/>
	<path fill="#4D4D4D" d="M157.756,97.532h-1.272v1.912c0,0.459,0.033,0.761,0.1,0.904c0.067,0.145,0.226,0.216,0.477,0.216
		l0.712-0.048l0.04,0.496c-0.357,0.059-0.63,0.088-0.816,0.088c-0.416,0-0.704-0.102-0.863-0.304c-0.16-0.203-0.24-0.59-0.24-1.16
		v-2.104h-0.568v-0.52h0.568v-1.224h0.592v1.224h1.272V97.532z"/>
	<path fill="#4D4D4D" d="M99.42,105.076h2.009c0.549,0,0.961,0.113,1.235,0.34s0.412,0.583,0.412,1.068
		c0,0.347-0.06,0.617-0.18,0.812c-0.12,0.195-0.298,0.349-0.532,0.46c0.587,0.203,0.88,0.638,0.88,1.305
		c0,0.555-0.146,0.952-0.439,1.191c-0.294,0.24-0.718,0.36-1.272,0.36H99.42V105.076z M101.404,105.62h-1.368v1.912h1.424
		c0.342,0,0.591-0.081,0.748-0.244c0.157-0.162,0.236-0.408,0.236-0.735c0-0.328-0.084-0.565-0.252-0.713
		C102.024,105.693,101.762,105.62,101.404,105.62z M101.468,108.068h-1.432v2h1.472c0.363,0,0.639-0.076,0.828-0.229
		c0.189-0.151,0.284-0.42,0.284-0.804c0-0.202-0.039-0.373-0.116-0.512s-0.18-0.237-0.308-0.296
		C101.962,108.122,101.719,108.068,101.468,108.068z"/>
	<path fill="#4D4D4D" d="M104.244,110.612v-4h0.592v0.544c0.464-0.32,0.952-0.53,1.464-0.632v0.607
		c-0.224,0.043-0.457,0.109-0.7,0.2c-0.242,0.091-0.428,0.171-0.556,0.24l-0.2,0.104v2.936H104.244z"/>
	<path fill="#4D4D4D" d="M107.013,105.708v-0.695h0.6v0.695H107.013z M107.013,110.612v-4h0.6v4H107.013z"/>
	<path fill="#4D4D4D" d="M111.484,110.116l0.232-0.023l0.016,0.472c-0.608,0.085-1.128,0.128-1.56,0.128
		c-0.576,0-0.984-0.167-1.225-0.5s-0.359-0.853-0.359-1.556c0-1.403,0.557-2.104,1.672-2.104c0.538,0,0.941,0.15,1.208,0.452
		s0.399,0.774,0.399,1.42l-0.031,0.456h-2.641c0,0.442,0.08,0.771,0.24,0.984c0.16,0.213,0.438,0.319,0.836,0.319
		S111.073,110.148,111.484,110.116z M111.269,108.38c0-0.49-0.079-0.837-0.236-1.04c-0.157-0.202-0.413-0.304-0.768-0.304
		s-0.621,0.106-0.8,0.32c-0.179,0.213-0.271,0.555-0.276,1.023H111.269z"/>
	<path fill="#4D4D4D" d="M113.572,107.132v3.48h-0.6v-3.48h-0.504v-0.52h0.504v-0.36c0-0.564,0.08-0.95,0.24-1.155
		c0.159-0.206,0.439-0.309,0.84-0.309l0.808,0.057l-0.008,0.495c-0.299-0.01-0.545-0.016-0.74-0.016
		c-0.194,0-0.333,0.064-0.416,0.192s-0.124,0.376-0.124,0.744v0.352h1.16v0.52H113.572z"/>
	<path fill="#4D4D4D" d="M116.052,110.612h-0.6v-5.744h0.6v3.393l0.624-0.032l1.145-1.616h0.68l-1.304,1.84l1.359,2.16h-0.68
		l-1.192-1.856l-0.632,0.024V110.612z"/>
	<path fill="#4D4D4D" d="M121.78,106.612h0.6v4h-0.6v-0.28c-0.4,0.24-0.795,0.36-1.185,0.36c-0.544,0-0.905-0.142-1.084-0.424
		c-0.179-0.283-0.268-0.806-0.268-1.568v-2.088h0.6v2.08c0,0.581,0.051,0.971,0.152,1.168s0.33,0.296,0.688,0.296
		c0.177,0,0.355-0.025,0.536-0.076c0.182-0.051,0.32-0.1,0.416-0.147l0.145-0.072V106.612z"/>
	<path fill="#4D4D4D" d="M123.532,110.612v-4h0.592v0.544c0.464-0.32,0.952-0.53,1.464-0.632v0.607
		c-0.224,0.043-0.457,0.109-0.7,0.2c-0.242,0.091-0.428,0.171-0.556,0.24l-0.2,0.104v2.936H123.532z"/>
	<path fill="#4D4D4D" d="M127.556,107.068c-0.581,0-0.872,0.203-0.872,0.608c0,0.187,0.066,0.318,0.2,0.396
		c0.133,0.077,0.438,0.157,0.912,0.24s0.811,0.198,1.008,0.348s0.296,0.43,0.296,0.84c0,0.411-0.132,0.712-0.396,0.904
		c-0.265,0.192-0.649,0.288-1.156,0.288c-0.331,0-0.721-0.037-1.168-0.112l-0.24-0.04l0.032-0.52
		c0.607,0.091,1.066,0.136,1.376,0.136c0.309,0,0.545-0.049,0.708-0.147c0.162-0.099,0.244-0.265,0.244-0.496
		c0-0.232-0.069-0.39-0.208-0.473c-0.139-0.082-0.443-0.161-0.912-0.235c-0.47-0.075-0.803-0.185-1-0.328
		c-0.197-0.145-0.296-0.411-0.296-0.8c0-0.39,0.137-0.678,0.412-0.864c0.274-0.187,0.617-0.28,1.027-0.28
		c0.325,0,0.733,0.037,1.225,0.112l0.224,0.04l-0.016,0.512C128.363,107.111,127.896,107.068,127.556,107.068z"/>
</g>
<g>
	<path fill="#4D4D4D" d="M101.309,61.587h0.64l-1.448,5.536h-1.376l-1.447-5.536h0.64l1.271,4.992h0.448L101.309,61.587z"/>
	<path fill="#4D4D4D" d="M105.181,66.627l0.232-0.023l0.016,0.472c-0.608,0.085-1.128,0.128-1.56,0.128
		c-0.576,0-0.984-0.167-1.225-0.5s-0.359-0.853-0.359-1.556c0-1.403,0.557-2.104,1.672-2.104c0.538,0,0.941,0.15,1.208,0.452
		s0.399,0.774,0.399,1.42l-0.031,0.456h-2.641c0,0.442,0.08,0.771,0.24,0.984c0.16,0.213,0.438,0.319,0.836,0.319
		S104.77,66.659,105.181,66.627z M104.965,64.89c0-0.49-0.079-0.837-0.236-1.04c-0.157-0.202-0.413-0.304-0.768-0.304
		s-0.621,0.106-0.8,0.32c-0.179,0.213-0.271,0.555-0.276,1.023H104.965z"/>
	<path fill="#4D4D4D" d="M106.5,67.123v-4h0.592v0.544c0.464-0.32,0.952-0.53,1.464-0.632v0.607c-0.224,0.043-0.457,0.109-0.7,0.2
		c-0.242,0.091-0.428,0.171-0.556,0.24l-0.2,0.104v2.936H106.5z"/>
	<path fill="#4D4D4D" d="M109.868,67.123h-0.6v-5.744h0.6v3.393l0.624-0.032l1.145-1.616h0.68l-1.304,1.84l1.359,2.16h-0.68
		l-1.192-1.856l-0.632,0.024V67.123z"/>
	<path fill="#4D4D4D" d="M115.9,64.331v2.048c0.016,0.197,0.17,0.314,0.464,0.353l-0.024,0.472c-0.421,0-0.738-0.106-0.952-0.32
		c-0.479,0.214-0.96,0.32-1.439,0.32c-0.368,0-0.648-0.104-0.84-0.312c-0.192-0.208-0.288-0.506-0.288-0.896s0.099-0.676,0.296-0.86
		c0.197-0.184,0.507-0.297,0.928-0.34l1.256-0.12v-0.344c0-0.272-0.059-0.467-0.176-0.584s-0.277-0.176-0.48-0.176
		c-0.427,0-0.869,0.026-1.327,0.08l-0.248,0.023l-0.024-0.456c0.587-0.117,1.106-0.176,1.56-0.176c0.454,0,0.783,0.104,0.988,0.312
		S115.9,63.888,115.9,64.331z M113.436,65.963c0,0.491,0.203,0.736,0.608,0.736c0.362,0,0.72-0.062,1.072-0.185l0.184-0.063v-1.32
		l-1.184,0.112c-0.24,0.021-0.414,0.091-0.521,0.208S113.436,65.739,113.436,65.963z"/>
	<path fill="#4D4D4D" d="M119.58,63.123h0.6v4h-0.6v-0.28c-0.4,0.24-0.795,0.36-1.185,0.36c-0.544,0-0.905-0.142-1.084-0.424
		c-0.179-0.283-0.268-0.806-0.268-1.568v-2.088h0.6v2.08c0,0.581,0.051,0.971,0.152,1.168s0.33,0.296,0.688,0.296
		c0.177,0,0.355-0.025,0.536-0.076c0.182-0.051,0.32-0.1,0.416-0.147l0.145-0.072V63.123z"/>
	<path fill="#4D4D4D" d="M122.1,63.642v3.48h-0.6v-3.48h-0.504v-0.52h0.504v-0.36c0-0.564,0.08-0.95,0.24-1.155
		c0.159-0.206,0.439-0.309,0.84-0.309l0.808,0.057l-0.008,0.495c-0.299-0.01-0.545-0.016-0.74-0.016
		c-0.194,0-0.333,0.064-0.416,0.192s-0.124,0.376-0.124,0.744v0.352h1.16v0.52H122.1z"/>
	<path fill="#4D4D4D" d="M125.236,63.579c-0.581,0-0.872,0.203-0.872,0.608c0,0.187,0.066,0.318,0.2,0.396
		c0.133,0.077,0.438,0.157,0.912,0.24s0.811,0.198,1.008,0.348s0.296,0.43,0.296,0.84c0,0.411-0.132,0.712-0.396,0.904
		c-0.265,0.192-0.649,0.288-1.156,0.288c-0.331,0-0.721-0.037-1.168-0.112l-0.24-0.04l0.032-0.52
		c0.607,0.091,1.066,0.136,1.376,0.136c0.309,0,0.545-0.049,0.708-0.147c0.162-0.099,0.244-0.265,0.244-0.496
		c0-0.232-0.069-0.39-0.208-0.473c-0.139-0.082-0.443-0.161-0.912-0.235c-0.47-0.075-0.803-0.185-1-0.328
		c-0.197-0.145-0.296-0.411-0.296-0.8c0-0.39,0.137-0.678,0.412-0.864c0.274-0.187,0.617-0.28,1.027-0.28
		c0.325,0,0.733,0.037,1.225,0.112l0.224,0.04l-0.016,0.512C126.044,63.622,125.577,63.579,125.236,63.579z"/>
	<path fill="#4D4D4D" d="M130.524,64.331v2.048c0.016,0.197,0.17,0.314,0.464,0.353l-0.024,0.472c-0.421,0-0.738-0.106-0.952-0.32
		c-0.479,0.214-0.96,0.32-1.439,0.32c-0.368,0-0.648-0.104-0.84-0.312c-0.192-0.208-0.288-0.506-0.288-0.896s0.099-0.676,0.296-0.86
		c0.197-0.184,0.507-0.297,0.928-0.34l1.256-0.12v-0.344c0-0.272-0.059-0.467-0.176-0.584s-0.277-0.176-0.48-0.176
		c-0.427,0-0.869,0.026-1.327,0.08l-0.248,0.023l-0.024-0.456c0.587-0.117,1.106-0.176,1.56-0.176c0.454,0,0.783,0.104,0.988,0.312
		S130.524,63.888,130.524,64.331z M128.06,65.963c0,0.491,0.203,0.736,0.608,0.736c0.362,0,0.72-0.062,1.072-0.185l0.184-0.063
		v-1.32l-1.184,0.112c-0.24,0.021-0.414,0.091-0.521,0.208S128.06,65.739,128.06,65.963z"/>
	<path fill="#4D4D4D" d="M134.204,63.123h0.6v4h-0.6v-0.28c-0.4,0.24-0.795,0.36-1.185,0.36c-0.544,0-0.905-0.142-1.084-0.424
		c-0.179-0.283-0.268-0.806-0.268-1.568v-2.088h0.6v2.08c0,0.581,0.051,0.971,0.152,1.168s0.33,0.296,0.688,0.296
		c0.177,0,0.355-0.025,0.536-0.076c0.182-0.051,0.32-0.1,0.416-0.147l0.145-0.072V63.123z"/>
	<path fill="#4D4D4D" d="M136.724,63.642v3.48h-0.6v-3.48h-0.504v-0.52h0.504v-0.36c0-0.564,0.08-0.95,0.24-1.155
		c0.159-0.206,0.439-0.309,0.84-0.309l0.808,0.057l-0.008,0.495c-0.299-0.01-0.545-0.016-0.74-0.016
		c-0.194,0-0.333,0.064-0.416,0.192s-0.124,0.376-0.124,0.744v0.352h1.16v0.52H136.724z"/>
	<path fill="#4D4D4D" d="M140.676,63.642h-1.272v1.912c0,0.459,0.033,0.761,0.1,0.904c0.067,0.145,0.226,0.216,0.477,0.216
		l0.712-0.048l0.04,0.496c-0.357,0.059-0.63,0.088-0.816,0.088c-0.416,0-0.704-0.102-0.863-0.304c-0.16-0.203-0.24-0.59-0.24-1.16
		v-2.104h-0.568v-0.52h0.568v-1.224h0.592v1.224h1.272V63.642z"/>
	<path fill="#4D4D4D" d="M141.412,67.123v-4h0.592v0.544c0.464-0.32,0.952-0.53,1.464-0.632v0.607c-0.224,0.043-0.457,0.109-0.7,0.2
		c-0.242,0.091-0.428,0.171-0.556,0.24l-0.2,0.104v2.936H141.412z"/>
	<path fill="#4D4D4D" d="M147.004,64.331v2.048c0.016,0.197,0.17,0.314,0.464,0.353l-0.024,0.472c-0.421,0-0.738-0.106-0.952-0.32
		c-0.479,0.214-0.96,0.32-1.439,0.32c-0.368,0-0.648-0.104-0.84-0.312c-0.192-0.208-0.288-0.506-0.288-0.896s0.099-0.676,0.296-0.86
		c0.197-0.184,0.507-0.297,0.928-0.34l1.256-0.12v-0.344c0-0.272-0.059-0.467-0.176-0.584s-0.277-0.176-0.48-0.176
		c-0.427,0-0.869,0.026-1.327,0.08l-0.248,0.023l-0.024-0.456c0.587-0.117,1.106-0.176,1.56-0.176c0.454,0,0.783,0.104,0.988,0.312
		S147.004,63.888,147.004,64.331z M144.443,62.155v-0.721h0.576v0.721H144.443z M144.539,65.963c0,0.491,0.203,0.736,0.608,0.736
		c0.362,0,0.72-0.062,1.072-0.185l0.184-0.063v-1.32l-1.184,0.112c-0.24,0.021-0.414,0.091-0.521,0.208
		S144.539,65.739,144.539,65.963z M146.044,62.155v-0.721h0.584v0.721H146.044z"/>
	<path fill="#4D4D4D" d="M149.731,69.003c-0.64,0-1.087-0.087-1.34-0.26c-0.254-0.174-0.38-0.489-0.38-0.948
		c0-0.219,0.048-0.396,0.144-0.532c0.096-0.136,0.259-0.289,0.488-0.46c-0.149-0.101-0.225-0.285-0.225-0.552
		c0-0.091,0.067-0.259,0.2-0.504l0.072-0.128c-0.422-0.192-0.632-0.595-0.632-1.208c0-0.912,0.498-1.368,1.496-1.368
		c0.256,0,0.493,0.026,0.712,0.08l0.12,0.024l1.184-0.032v0.512l-0.76-0.016c0.176,0.176,0.264,0.442,0.264,0.8
		c0,0.501-0.124,0.852-0.372,1.052s-0.639,0.3-1.172,0.3c-0.144,0-0.274-0.011-0.392-0.031c-0.097,0.234-0.145,0.387-0.145,0.456
		c0,0.165,0.051,0.268,0.152,0.308s0.408,0.06,0.92,0.06s0.88,0.08,1.104,0.24c0.225,0.16,0.337,0.472,0.337,0.937
		C151.508,68.579,150.915,69.003,149.731,69.003z M148.604,67.747c0,0.282,0.078,0.479,0.235,0.588s0.448,0.164,0.872,0.164
		c0.425,0,0.729-0.059,0.912-0.176c0.185-0.117,0.276-0.313,0.276-0.588c0-0.275-0.066-0.452-0.2-0.532
		c-0.133-0.08-0.395-0.12-0.784-0.12l-0.863-0.04c-0.177,0.128-0.295,0.24-0.356,0.336S148.604,67.597,148.604,67.747z
		 M148.659,64.411c0,0.314,0.07,0.539,0.212,0.672c0.142,0.134,0.375,0.2,0.7,0.2s0.558-0.066,0.696-0.2
		c0.139-0.133,0.208-0.358,0.208-0.676s-0.069-0.543-0.208-0.676c-0.139-0.134-0.371-0.2-0.696-0.2s-0.559,0.067-0.7,0.204
		C148.729,63.871,148.659,64.096,148.659,64.411z"/>
	<path fill="#4D4D4D" d="M155.02,66.627l0.232-0.023l0.016,0.472c-0.608,0.085-1.128,0.128-1.56,0.128
		c-0.576,0-0.984-0.167-1.225-0.5s-0.359-0.853-0.359-1.556c0-1.403,0.557-2.104,1.672-2.104c0.538,0,0.941,0.15,1.208,0.452
		s0.399,0.774,0.399,1.42l-0.031,0.456h-2.641c0,0.442,0.08,0.771,0.24,0.984c0.16,0.213,0.438,0.319,0.836,0.319
		S154.608,66.659,155.02,66.627z M154.804,64.89c0-0.49-0.079-0.837-0.236-1.04c-0.157-0.202-0.413-0.304-0.768-0.304
		s-0.621,0.106-0.8,0.32c-0.179,0.213-0.271,0.555-0.276,1.023H154.804z"/>
</g>
<g>
	<path fill="#4D4D4D" d="M66.609,3.586c0,0.987-0.157,1.701-0.472,2.145c-0.315,0.442-0.887,0.664-1.717,0.664
		c-0.829,0-1.401-0.227-1.716-0.681c-0.314-0.453-0.472-1.166-0.472-2.14s0.16-1.696,0.479-2.168
		c0.32-0.472,0.889-0.708,1.704-0.708c0.816,0,1.386,0.234,1.708,0.704C66.448,1.872,66.609,2.599,66.609,3.586z M62.865,3.57
		c0,0.811,0.106,1.394,0.32,1.748c0.213,0.354,0.625,0.532,1.235,0.532c0.611,0,1.021-0.174,1.232-0.521s0.316-0.928,0.316-1.744
		c0-0.815-0.109-1.41-0.328-1.784c-0.219-0.373-0.628-0.56-1.229-0.56c-0.6,0-1.008,0.186-1.224,0.556
		C62.974,2.169,62.865,2.759,62.865,3.57z"/>
	<path fill="#4D4D4D" d="M67.634,6.314v-4h0.592v0.544c0.464-0.32,0.952-0.531,1.464-0.632v0.607c-0.224,0.043-0.457,0.109-0.7,0.2
		c-0.242,0.091-0.428,0.171-0.556,0.24l-0.2,0.104v2.937H67.634z"/>
	<path fill="#4D4D4D" d="M73.37,0.57v5.744h-0.593V6.042c-0.41,0.235-0.815,0.353-1.216,0.353c-0.213,0-0.399-0.027-0.56-0.08
		c-0.16-0.054-0.31-0.149-0.448-0.288c-0.288-0.288-0.432-0.82-0.432-1.596c0-0.776,0.129-1.337,0.388-1.681
		s0.687-0.516,1.284-0.516c0.309,0,0.637,0.034,0.983,0.104V0.57H73.37z M71.29,5.801c0.096,0.038,0.22,0.057,0.372,0.057
		c0.151,0,0.322-0.025,0.512-0.076s0.337-0.1,0.444-0.148l0.159-0.071V2.85c-0.341-0.064-0.658-0.097-0.952-0.097
		c-0.405,0-0.688,0.13-0.848,0.389s-0.24,0.659-0.24,1.204c0,0.618,0.094,1.034,0.28,1.247C71.103,5.695,71.193,5.764,71.29,5.801z"
		/>
	<path fill="#4D4D4D" d="M77.249,5.818l0.232-0.024l0.016,0.473c-0.608,0.085-1.128,0.128-1.56,0.128
		c-0.576,0-0.984-0.167-1.225-0.5c-0.24-0.334-0.359-0.853-0.359-1.557c0-1.402,0.557-2.104,1.672-2.104
		c0.538,0,0.941,0.15,1.208,0.452c0.267,0.301,0.399,0.774,0.399,1.42l-0.031,0.456h-2.641c0,0.442,0.08,0.771,0.24,0.983
		c0.16,0.214,0.438,0.32,0.836,0.32S76.838,5.85,77.249,5.818z M77.033,4.082c0-0.49-0.079-0.837-0.236-1.04
		c-0.157-0.202-0.413-0.304-0.768-0.304s-0.621,0.106-0.8,0.32c-0.179,0.213-0.271,0.555-0.276,1.023H77.033z"/>
	<path fill="#4D4D4D" d="M78.569,6.314v-4h0.592v0.544c0.464-0.32,0.952-0.531,1.464-0.632v0.607c-0.224,0.043-0.457,0.109-0.7,0.2
		c-0.242,0.091-0.428,0.171-0.556,0.24l-0.2,0.104v2.937H78.569z"/>
	<path fill="#4D4D4D" d="M83.104,2.234c0.539,0,0.916,0.153,1.132,0.46c0.217,0.307,0.324,0.844,0.324,1.612
		c0,0.768-0.135,1.308-0.403,1.619c-0.27,0.312-0.765,0.469-1.484,0.469c-0.224,0-0.595-0.021-1.112-0.064l-0.224-0.023V0.57h0.592
		v1.944C82.334,2.327,82.726,2.234,83.104,2.234z M82.665,5.858c0.522,0,0.868-0.119,1.036-0.356s0.252-0.639,0.252-1.204
		c0-0.564-0.067-0.961-0.2-1.187c-0.134-0.227-0.371-0.34-0.712-0.34c-0.31,0-0.627,0.059-0.952,0.176l-0.16,0.056v2.816
		C82.275,5.844,82.521,5.858,82.665,5.858z"/>
	<path fill="#4D4D4D" d="M88.041,2.314h0.6v4h-0.6v-0.28c-0.4,0.24-0.795,0.36-1.185,0.36c-0.544,0-0.905-0.142-1.084-0.425
		c-0.179-0.282-0.268-0.805-0.268-1.567V2.314h0.6v2.08c0,0.581,0.051,0.971,0.152,1.168s0.33,0.296,0.688,0.296
		c0.177,0,0.355-0.025,0.536-0.076c0.182-0.051,0.32-0.1,0.416-0.148l0.145-0.071V2.314z"/>
	<path fill="#4D4D4D" d="M91.289,2.234c0.176,0,0.475,0.032,0.896,0.096l0.192,0.024l-0.024,0.487
		c-0.427-0.048-0.741-0.071-0.943-0.071c-0.454,0-0.762,0.107-0.925,0.323c-0.162,0.217-0.243,0.616-0.243,1.2
		s0.075,0.991,0.228,1.221c0.152,0.229,0.468,0.344,0.948,0.344l0.943-0.072l0.024,0.496c-0.496,0.074-0.867,0.112-1.112,0.112
		c-0.624,0-1.055-0.16-1.292-0.48s-0.355-0.859-0.355-1.62c0-0.76,0.128-1.293,0.384-1.6S90.691,2.234,91.289,2.234z"/>
	<path fill="#4D4D4D" d="M93.881,6.314h-0.6V0.57h0.6v1.968c0.427-0.202,0.838-0.304,1.232-0.304c0.533,0,0.892,0.144,1.076,0.432
		c0.184,0.288,0.275,0.8,0.275,1.536v2.112h-0.6V4.217c0-0.554-0.055-0.935-0.164-1.14s-0.34-0.308-0.692-0.308
		c-0.336,0-0.661,0.062-0.976,0.184l-0.152,0.056V6.314z"/>
</g>
<line fill="none" stroke="#00B8FA" stroke-miterlimit="10" x1="0.089" y1="74.658" x2="177.065" y2="74.658"/>
<line fill="none" stroke="#00B8FA" stroke-miterlimit="10" x1="88.577" y1="63.989" x2="88.577" y2="128.303"/>
<g>
	<g>
		<path fill="#4D4D4D" d="M115.861,47.072H61.293V11.317h54.568V47.072z M62.501,45.864h52.152V12.525H62.501V45.864z"/>
	</g>
	<g>
		<path fill="#4D4D4D" d="M110.051,41.253H67.051v-24.13h42.999V41.253z M68.259,40.045h40.584V18.331H68.259V40.045z"/>
	</g>
	<g>
		<rect x="67.861" y="29.915" fill="#4D4D4D" width="14.427" height="1.208"/>
	</g>
	<g>
		<rect x="67.861" y="32.308" fill="#4D4D4D" width="14.427" height="1.208"/>
	</g>
	<g>
		<rect x="67.861" y="34.701" fill="#4D4D4D" width="14.427" height="1.208"/>
	</g>
	<circle fill="#4D4D4D" cx="109.447" cy="17.522" r="1.916"/>
	<circle fill="#4D4D4D" cx="109.447" cy="40.649" r="1.916"/>
	<circle fill="#4D4D4D" cx="67.655" cy="17.522" r="1.916"/>
	<circle fill="#4D4D4D" cx="67.655" cy="40.649" r="1.916"/>
	<g>
		<path fill="#4D4D4D" d="M98.85,23.394c-2.527,0-4.103,1.294-4.728,3.882h6.059v1.243h-6.225l-0.024,0.549v0.617l0.024,0.433h5.501
			v1.243h-5.311c0.293,1.156,0.842,2.05,1.645,2.683c0.804,0.633,1.879,0.949,3.226,0.949c1.236,0,2.459-0.212,3.671-0.636v1.445
			c-1.157,0.418-2.412,0.626-3.766,0.626c-1.877,0-3.388-0.432-4.532-1.296c-1.145-0.864-1.899-2.121-2.263-3.771h-1.972v-1.243
			h1.806l-0.024-0.404V29.29l0.024-0.771h-1.806v-1.243h1.948c0.309-1.676,1.041-2.983,2.198-3.921
			c1.156-0.937,2.673-1.406,4.55-1.406c1.592,0,3.042,0.312,4.348,0.934l-0.844,1.339C101.04,23.67,99.872,23.394,98.85,23.394z"/>
	</g>
</g>
</svg>
