<?xml version="1.0" encoding="utf-8"?>
<!-- Generator: Adobe Illustrator 21.1.0, SVG Export Plug-In . SVG Version: 6.00 Build 0)  -->
<svg version="1.1" id="Ebene_1" xmlns="http://www.w3.org/2000/svg" xmlns:xlink="http://www.w3.org/1999/xlink" x="0px" y="0px"
	 viewBox="0 0 200 200" enable-background="new 0 0 200 200" xml:space="preserve">
<rect x="0.333" y="0.333" fill="#FFFFFF" width="200" height="200.667"/>
<g>
	<g>
		<path fill="#4D4D4D" d="M54.698,6.641h-0.616V1.104h0.616v2.576l0.912-0.032l1.416-2.544h0.704l-1.584,2.784l1.672,2.752h-0.728
			l-1.473-2.448l-0.92,0.032V6.641z"/>
		<path fill="#4D4D4D" d="M61.354,3.849v2.048c0.016,0.197,0.17,0.314,0.464,0.353l-0.024,0.472c-0.421,0-0.738-0.106-0.952-0.32
			c-0.479,0.214-0.96,0.32-1.439,0.32c-0.368,0-0.648-0.104-0.84-0.312C58.37,6.2,58.274,5.902,58.274,5.513s0.099-0.676,0.296-0.86
			c0.197-0.184,0.507-0.297,0.928-0.34l1.256-0.12V3.849c0-0.272-0.059-0.467-0.176-0.584s-0.277-0.176-0.48-0.176
			c-0.427,0-0.869,0.026-1.327,0.08l-0.248,0.023l-0.024-0.456c0.587-0.117,1.106-0.176,1.56-0.176c0.454,0,0.783,0.104,0.988,0.312
			S61.354,3.406,61.354,3.849z M58.89,5.48c0,0.491,0.203,0.736,0.608,0.736c0.362,0,0.72-0.062,1.072-0.185l0.184-0.063v-1.32
			L59.57,4.761c-0.24,0.021-0.414,0.091-0.521,0.208S58.89,5.257,58.89,5.48z"/>
		<path fill="#4D4D4D" d="M65.034,2.641h0.6v4h-0.6V6.36c-0.4,0.24-0.795,0.36-1.185,0.36c-0.544,0-0.905-0.142-1.084-0.424
			c-0.179-0.283-0.268-0.806-0.268-1.568V2.641h0.6v2.08c0,0.581,0.051,0.971,0.152,1.168s0.33,0.296,0.688,0.296
			c0.177,0,0.355-0.025,0.536-0.076c0.182-0.051,0.32-0.1,0.416-0.147l0.145-0.072V2.641z"/>
		<path fill="#4D4D4D" d="M67.554,3.16v3.48h-0.6V3.16H66.45v-0.52h0.504V2.28c0-0.564,0.08-0.95,0.24-1.155
			c0.159-0.206,0.439-0.309,0.84-0.309l0.808,0.057l-0.008,0.495c-0.299-0.01-0.545-0.016-0.74-0.016
			c-0.194,0-0.333,0.064-0.416,0.192s-0.124,0.376-0.124,0.744v0.352h1.16v0.52H67.554z"/>
		<path fill="#4D4D4D" d="M70.69,3.097c-0.581,0-0.872,0.203-0.872,0.608c0,0.187,0.066,0.318,0.2,0.396
			c0.133,0.077,0.438,0.157,0.912,0.24s0.811,0.198,1.008,0.348s0.296,0.43,0.296,0.84c0,0.411-0.132,0.712-0.396,0.904
			c-0.265,0.192-0.649,0.288-1.156,0.288c-0.331,0-0.721-0.037-1.168-0.112l-0.24-0.04l0.032-0.52
			c0.607,0.091,1.066,0.136,1.376,0.136c0.309,0,0.545-0.049,0.708-0.147c0.162-0.099,0.244-0.265,0.244-0.496
			c0-0.232-0.069-0.39-0.208-0.473c-0.139-0.082-0.443-0.161-0.912-0.235c-0.47-0.075-0.803-0.185-1-0.328
			c-0.197-0.145-0.296-0.411-0.296-0.8c0-0.39,0.137-0.678,0.412-0.864c0.274-0.187,0.617-0.28,1.027-0.28
			c0.325,0,0.733,0.037,1.225,0.112l0.224,0.04l-0.016,0.512C71.498,3.14,71.031,3.097,70.69,3.097z"/>
		<path fill="#4D4D4D" d="M73.154,1.736V1.041h0.6v0.695H73.154z M73.154,6.641v-4h0.6v4H73.154z"/>
		<path fill="#4D4D4D" d="M76.45,8.521c-0.64,0-1.087-0.087-1.34-0.26c-0.254-0.174-0.38-0.489-0.38-0.948
			c0-0.219,0.048-0.396,0.144-0.532c0.096-0.136,0.259-0.289,0.488-0.46c-0.149-0.101-0.225-0.285-0.225-0.552
			c0-0.091,0.067-0.259,0.2-0.504l0.072-0.128c-0.422-0.192-0.632-0.595-0.632-1.208c0-0.912,0.498-1.368,1.496-1.368
			c0.256,0,0.493,0.026,0.712,0.08l0.12,0.024l1.184-0.032v0.512l-0.76-0.016c0.176,0.176,0.264,0.442,0.264,0.8
			c0,0.501-0.124,0.852-0.372,1.052s-0.639,0.3-1.172,0.3c-0.144,0-0.274-0.011-0.392-0.031c-0.097,0.234-0.145,0.387-0.145,0.456
			c0,0.165,0.051,0.268,0.152,0.308s0.408,0.06,0.92,0.06s0.88,0.08,1.104,0.24c0.225,0.16,0.337,0.472,0.337,0.937
			C78.227,8.097,77.634,8.521,76.45,8.521z M75.322,7.265c0,0.282,0.078,0.479,0.235,0.588s0.448,0.164,0.872,0.164
			c0.425,0,0.729-0.059,0.912-0.176c0.185-0.117,0.276-0.313,0.276-0.588c0-0.275-0.066-0.452-0.2-0.532
			c-0.133-0.08-0.395-0.12-0.784-0.12l-0.863-0.04c-0.177,0.128-0.295,0.24-0.356,0.336S75.322,7.115,75.322,7.265z M75.378,3.929
			c0,0.314,0.07,0.539,0.212,0.672c0.142,0.134,0.375,0.2,0.7,0.2s0.558-0.066,0.696-0.2c0.139-0.133,0.208-0.358,0.208-0.676
			s-0.069-0.543-0.208-0.676c-0.139-0.134-0.371-0.2-0.696-0.2s-0.559,0.067-0.7,0.204C75.448,3.389,75.378,3.614,75.378,3.929z"/>
		<path fill="#4D4D4D" d="M79.617,6.641h-0.6v-4h0.592v0.28c0.432-0.24,0.846-0.36,1.24-0.36c0.533,0,0.892,0.145,1.076,0.432
			c0.184,0.288,0.275,0.801,0.275,1.536v2.112h-0.592V4.545c0-0.555-0.055-0.935-0.164-1.141c-0.109-0.205-0.343-0.308-0.7-0.308
			c-0.171,0-0.351,0.025-0.54,0.076s-0.334,0.1-0.436,0.147l-0.152,0.072V6.641z"/>
		<path fill="#4D4D4D" d="M86.139,3.849v2.048c0.016,0.197,0.17,0.314,0.464,0.353l-0.024,0.472c-0.421,0-0.738-0.106-0.952-0.32
			c-0.479,0.214-0.96,0.32-1.439,0.32c-0.368,0-0.648-0.104-0.84-0.312c-0.192-0.208-0.288-0.506-0.288-0.896
			s0.099-0.676,0.296-0.86c0.197-0.184,0.507-0.297,0.928-0.34l1.256-0.12V3.849c0-0.272-0.059-0.467-0.176-0.584
			s-0.277-0.176-0.48-0.176c-0.427,0-0.869,0.026-1.327,0.08l-0.248,0.023l-0.024-0.456c0.587-0.117,1.106-0.176,1.56-0.176
			c0.454,0,0.783,0.104,0.988,0.312S86.139,3.406,86.139,3.849z M83.674,5.48c0,0.491,0.203,0.736,0.608,0.736
			c0.362,0,0.72-0.062,1.072-0.185l0.184-0.063v-1.32l-1.184,0.112c-0.24,0.021-0.414,0.091-0.521,0.208S83.674,5.257,83.674,5.48z"
			/>
		<path fill="#4D4D4D" d="M87.37,6.641V0.896h0.6v5.744H87.37z"/>
		<path fill="#4D4D4D" d="M53.912,13.841V9.688h0.834l1.176,3.511l1.177-3.511h0.834v4.152h-0.462v-3.66h-0.084l-1.206,3.51h-0.517
			l-1.206-3.51h-0.084v3.66H53.912z"/>
		<path fill="#4D4D4D" d="M58.586,13.841l1.141-4.152h1.008l1.14,4.152h-0.456l-0.3-1.068h-1.775l-0.301,1.068H58.586z
			 M60.074,10.085l-0.63,2.273h1.572l-0.63-2.273H60.074z"/>
		<path fill="#4D4D4D" d="M64.964,13.774c-0.411,0.084-0.781,0.126-1.109,0.126s-0.594-0.045-0.795-0.135
			c-0.202-0.09-0.358-0.229-0.469-0.42c-0.109-0.189-0.186-0.408-0.228-0.654c-0.042-0.245-0.063-0.553-0.063-0.921
			c0-0.367,0.021-0.677,0.063-0.927s0.118-0.471,0.228-0.663c0.11-0.191,0.266-0.332,0.466-0.42c0.199-0.088,0.46-0.132,0.779-0.132
			c0.32,0,0.696,0.044,1.128,0.132l-0.018,0.39c-0.404-0.071-0.764-0.107-1.08-0.107c-0.44,0-0.731,0.131-0.873,0.393
			c-0.142,0.263-0.213,0.709-0.213,1.341c0,0.316,0.013,0.57,0.039,0.763c0.026,0.191,0.077,0.365,0.153,0.519
			c0.075,0.154,0.187,0.265,0.333,0.33c0.146,0.066,0.359,0.1,0.642,0.1s0.615-0.036,0.999-0.108L64.964,13.774z"/>
		<path fill="#4D4D4D" d="M67.202,13.841H65.72V9.688h1.482c0.676,0,1.124,0.269,1.344,0.805c0.128,0.308,0.192,0.712,0.192,1.212
			c0,1.044-0.261,1.702-0.78,1.974C67.75,13.787,67.498,13.841,67.202,13.841z M68.264,11.705c0-0.796-0.178-1.292-0.534-1.488
			c-0.144-0.08-0.319-0.12-0.527-0.12h-1.021v3.336h1.021C67.91,13.433,68.264,12.856,68.264,11.705z"/>
		<path fill="#4D4D4D" d="M71.408,11.23v2.61h-0.45v-2.61H70.58v-0.39h0.378v-0.27c0-0.425,0.061-0.714,0.181-0.867
			c0.12-0.154,0.33-0.231,0.63-0.231l0.605,0.042l-0.006,0.372c-0.224-0.008-0.409-0.012-0.555-0.012
			c-0.146,0-0.25,0.048-0.312,0.144c-0.062,0.097-0.093,0.282-0.093,0.559v0.264h0.87v0.39H71.408z"/>
		<path fill="#4D4D4D" d="M74.936,11.747v1.536c0.012,0.147,0.128,0.235,0.349,0.264L75.266,13.9c-0.315,0-0.554-0.079-0.714-0.239
			c-0.36,0.16-0.72,0.239-1.08,0.239c-0.276,0-0.486-0.077-0.63-0.233c-0.145-0.156-0.216-0.38-0.216-0.672s0.074-0.507,0.222-0.646
			c0.148-0.138,0.38-0.223,0.696-0.255l0.941-0.09v-0.258c0-0.204-0.044-0.351-0.132-0.438s-0.208-0.132-0.359-0.132
			c-0.32,0-0.652,0.021-0.996,0.061l-0.187,0.018l-0.018-0.342c0.439-0.088,0.83-0.132,1.17-0.132s0.587,0.077,0.741,0.233
			C74.858,11.171,74.936,11.415,74.936,11.747z M73.016,10.115v-0.54h0.432v0.54H73.016z M73.088,12.971
			c0,0.368,0.151,0.552,0.456,0.552c0.271,0,0.54-0.046,0.804-0.138l0.138-0.048v-0.99l-0.888,0.084
			c-0.18,0.017-0.31,0.068-0.39,0.156S73.088,12.803,73.088,12.971z M74.216,10.115v-0.54h0.438v0.54H74.216z"/>
		<path fill="#4D4D4D" d="M75.859,13.841V9.533h0.45v4.308H75.859z"/>
		<path fill="#4D4D4D" d="M77.246,13.841V9.533h0.45v4.308H77.246z"/>
		<path fill="#4D4D4D" d="M80.15,11.23h-0.954v1.435c0,0.344,0.024,0.569,0.075,0.678c0.05,0.108,0.169,0.162,0.356,0.162
			l0.534-0.036l0.03,0.372c-0.269,0.044-0.473,0.066-0.612,0.066c-0.312,0-0.528-0.076-0.648-0.229
			c-0.119-0.152-0.18-0.441-0.18-0.87V11.23h-0.426v-0.39h0.426V9.923h0.444v0.918h0.954V11.23z"/>
		<path fill="#4D4D4D" d="M55.706,18.041h0.45v3h-0.45v-0.21c-0.3,0.18-0.596,0.27-0.888,0.27c-0.408,0-0.679-0.105-0.813-0.317
			c-0.134-0.212-0.2-0.604-0.2-1.176v-1.566h0.449v1.56c0,0.437,0.038,0.729,0.114,0.876c0.076,0.148,0.248,0.223,0.517,0.223
			c0.132,0,0.266-0.02,0.401-0.058c0.136-0.037,0.24-0.074,0.312-0.11l0.107-0.055V18.041z"/>
		<path fill="#4D4D4D" d="M57.47,21.041h-0.45v-3h0.444v0.21c0.324-0.18,0.634-0.27,0.93-0.27c0.4,0,0.669,0.107,0.808,0.323
			c0.138,0.217,0.207,0.601,0.207,1.152v1.584h-0.444v-1.572c0-0.416-0.041-0.701-0.123-0.854c-0.082-0.154-0.257-0.231-0.525-0.231
			c-0.128,0-0.263,0.02-0.404,0.058c-0.143,0.038-0.251,0.074-0.327,0.11l-0.114,0.055V21.041z"/>
		<path fill="#4D4D4D" d="M61.778,18.431h-0.954v1.435c0,0.344,0.024,0.569,0.075,0.678c0.05,0.108,0.169,0.162,0.356,0.162
			l0.534-0.036l0.03,0.372c-0.269,0.044-0.473,0.066-0.612,0.066c-0.312,0-0.528-0.076-0.648-0.229
			c-0.119-0.152-0.18-0.441-0.18-0.87v-1.578h-0.426v-0.39h0.426v-0.918h0.444v0.918h0.954V18.431z"/>
		<path fill="#4D4D4D" d="M64.37,20.669l0.175-0.018l0.012,0.354c-0.456,0.064-0.847,0.096-1.17,0.096
			c-0.433,0-0.738-0.125-0.918-0.375c-0.181-0.249-0.271-0.639-0.271-1.167c0-1.052,0.418-1.577,1.254-1.577
			c0.404,0,0.706,0.112,0.906,0.339c0.2,0.226,0.3,0.581,0.3,1.064l-0.023,0.342h-1.98c0,0.332,0.061,0.578,0.18,0.738
			c0.12,0.16,0.329,0.24,0.628,0.24C63.76,20.705,64.062,20.693,64.37,20.669z M64.208,19.367c0-0.368-0.059-0.628-0.177-0.78
			s-0.31-0.228-0.576-0.228c-0.266,0-0.466,0.08-0.6,0.239c-0.134,0.16-0.203,0.416-0.207,0.769H64.208z"/>
		<path fill="#4D4D4D" d="M65.359,21.041v-3h0.444v0.408c0.348-0.24,0.714-0.398,1.098-0.475v0.456
			c-0.168,0.032-0.343,0.082-0.524,0.15c-0.183,0.068-0.321,0.128-0.417,0.18l-0.15,0.078v2.202H65.359z"/>
		<path fill="#4D4D4D" d="M71.061,16.733v4.308h-0.444v-0.204c-0.308,0.176-0.612,0.264-0.912,0.264c-0.16,0-0.3-0.02-0.42-0.06
			s-0.232-0.112-0.336-0.216c-0.216-0.216-0.324-0.615-0.324-1.197s0.097-1.002,0.291-1.26s0.516-0.387,0.963-0.387
			c0.232,0,0.479,0.025,0.738,0.077v-1.325H71.061z M69.5,20.657c0.072,0.027,0.165,0.042,0.279,0.042s0.242-0.02,0.384-0.058
			c0.142-0.037,0.253-0.074,0.333-0.11l0.12-0.055v-2.033c-0.256-0.049-0.494-0.072-0.714-0.072c-0.304,0-0.517,0.097-0.636,0.291
			c-0.12,0.194-0.181,0.495-0.181,0.903c0,0.464,0.07,0.775,0.21,0.936C69.36,20.577,69.428,20.629,69.5,20.657z"/>
		<path fill="#4D4D4D" d="M71.93,17.363v-0.522h0.45v0.522H71.93z M71.93,21.041v-3h0.45v3H71.93z"/>
		<path fill="#4D4D4D" d="M75.283,20.669l0.175-0.018l0.012,0.354c-0.456,0.064-0.847,0.096-1.17,0.096
			c-0.433,0-0.738-0.125-0.918-0.375c-0.181-0.249-0.271-0.639-0.271-1.167c0-1.052,0.418-1.577,1.254-1.577
			c0.404,0,0.706,0.112,0.906,0.339c0.2,0.226,0.3,0.581,0.3,1.064l-0.023,0.342h-1.98c0,0.332,0.061,0.578,0.18,0.738
			c0.12,0.16,0.329,0.24,0.628,0.24C74.673,20.705,74.976,20.693,75.283,20.669z M75.121,19.367c0-0.368-0.059-0.628-0.177-0.78
			s-0.31-0.228-0.576-0.228c-0.266,0-0.466,0.08-0.6,0.239c-0.134,0.16-0.203,0.416-0.207,0.769H75.121z"/>
		<path fill="#4D4D4D" d="M78.818,17.231c-0.601,0-0.9,0.226-0.9,0.678c0,0.252,0.069,0.425,0.207,0.519
			c0.138,0.095,0.418,0.188,0.84,0.282s0.722,0.216,0.897,0.366c0.176,0.149,0.264,0.396,0.264,0.741
			c0,0.852-0.442,1.277-1.326,1.277c-0.292,0-0.658-0.034-1.098-0.102l-0.216-0.03l0.048-0.384c0.544,0.072,0.958,0.108,1.242,0.108
			c0.592,0,0.888-0.278,0.888-0.835c0-0.224-0.065-0.385-0.195-0.482s-0.373-0.181-0.729-0.249c-0.468-0.1-0.8-0.229-0.996-0.387
			c-0.196-0.158-0.294-0.424-0.294-0.795c0-0.744,0.446-1.116,1.338-1.116c0.292,0,0.642,0.029,1.05,0.09l0.204,0.03L80,17.333
			C79.444,17.265,79.05,17.231,78.818,17.231z"/>
		<path fill="#4D4D4D" d="M80.846,17.363v-0.522h0.45v0.522H80.846z M80.846,21.041v-3h0.45v3H80.846z"/>
		<path fill="#4D4D4D" d="M83.317,22.451c-0.479,0-0.814-0.065-1.005-0.195s-0.285-0.367-0.285-0.711
			c0-0.164,0.036-0.297,0.108-0.398c0.072-0.103,0.193-0.218,0.366-0.346c-0.112-0.076-0.168-0.214-0.168-0.414
			c0-0.067,0.05-0.193,0.149-0.378l0.054-0.096c-0.315-0.145-0.474-0.446-0.474-0.906c0-0.684,0.374-1.025,1.122-1.025
			c0.192,0,0.37,0.02,0.534,0.06l0.09,0.018l0.888-0.023v0.384l-0.569-0.012c0.132,0.132,0.197,0.332,0.197,0.6
			c0,0.376-0.093,0.64-0.278,0.789c-0.187,0.15-0.479,0.226-0.879,0.226c-0.108,0-0.206-0.009-0.294-0.024
			c-0.072,0.176-0.108,0.29-0.108,0.342c0,0.124,0.038,0.201,0.114,0.231c0.075,0.029,0.306,0.045,0.689,0.045s0.66,0.06,0.828,0.18
			s0.252,0.354,0.252,0.702C84.649,22.133,84.205,22.451,83.317,22.451z M82.472,21.509c0,0.212,0.059,0.359,0.177,0.441
			s0.336,0.123,0.654,0.123c0.317,0,0.546-0.044,0.684-0.132c0.139-0.089,0.207-0.235,0.207-0.441s-0.05-0.339-0.149-0.399
			c-0.101-0.06-0.297-0.09-0.589-0.09l-0.647-0.029c-0.132,0.096-0.221,0.18-0.267,0.252C82.494,21.305,82.472,21.397,82.472,21.509
			z M82.514,19.007c0,0.236,0.053,0.404,0.159,0.504c0.105,0.101,0.28,0.15,0.524,0.15s0.418-0.05,0.522-0.15
			c0.104-0.1,0.156-0.269,0.156-0.507s-0.053-0.407-0.156-0.507c-0.104-0.1-0.278-0.15-0.522-0.15s-0.419,0.052-0.524,0.153
			C82.566,18.602,82.514,18.771,82.514,19.007z"/>
		<path fill="#4D4D4D" d="M85.693,21.041h-0.45v-3h0.444v0.21c0.324-0.18,0.634-0.27,0.93-0.27c0.4,0,0.669,0.107,0.808,0.323
			c0.138,0.217,0.207,0.601,0.207,1.152v1.584h-0.444v-1.572c0-0.416-0.041-0.701-0.123-0.854c-0.082-0.154-0.257-0.231-0.525-0.231
			c-0.128,0-0.263,0.02-0.404,0.058c-0.143,0.038-0.251,0.074-0.327,0.11l-0.114,0.055V21.041z"/>
		<path fill="#4D4D4D" d="M90.583,18.947v1.536c0.012,0.147,0.128,0.235,0.349,0.264l-0.019,0.354c-0.315,0-0.554-0.079-0.714-0.239
			c-0.36,0.16-0.72,0.239-1.08,0.239c-0.276,0-0.486-0.077-0.63-0.233c-0.145-0.156-0.216-0.38-0.216-0.672s0.074-0.507,0.222-0.646
			c0.148-0.138,0.38-0.223,0.696-0.255l0.941-0.09v-0.258c0-0.204-0.044-0.351-0.132-0.438s-0.208-0.132-0.359-0.132
			c-0.32,0-0.652,0.021-0.996,0.061l-0.187,0.018l-0.018-0.342c0.439-0.088,0.83-0.132,1.17-0.132s0.587,0.077,0.741,0.233
			C90.506,18.371,90.583,18.615,90.583,18.947z M88.735,20.171c0,0.368,0.151,0.552,0.456,0.552c0.271,0,0.54-0.046,0.804-0.138
			l0.138-0.048v-0.99l-0.888,0.084c-0.18,0.017-0.31,0.068-0.39,0.156S88.735,20.003,88.735,20.171z"/>
		<path fill="#4D4D4D" d="M91.508,21.041v-4.308h0.45v4.308H91.508z"/>
		<path fill="#4D4D4D" d="M92.894,21.041v-4.308h0.45v4.308H92.894z"/>
		<path fill="#4D4D4D" d="M94.243,17.363v-0.522h0.45v0.522H94.243z M94.243,21.041v-3h0.45v3H94.243z"/>
		<path fill="#4D4D4D" d="M96.007,21.041h-0.45v-3h0.444v0.21c0.324-0.18,0.634-0.27,0.93-0.27c0.4,0,0.669,0.107,0.808,0.323
			c0.138,0.217,0.207,0.601,0.207,1.152v1.584h-0.444v-1.572c0-0.416-0.041-0.701-0.123-0.854c-0.082-0.154-0.257-0.231-0.525-0.231
			c-0.128,0-0.263,0.02-0.404,0.058c-0.143,0.038-0.251,0.074-0.327,0.11l-0.114,0.055V21.041z"/>
		<path fill="#4D4D4D" d="M98.779,17.363v-0.522h0.45v0.522H98.779z M98.779,21.041v-3h0.45v3H98.779z"/>
		<path fill="#4D4D4D" d="M102.133,20.669l0.175-0.018l0.012,0.354c-0.456,0.064-0.847,0.096-1.17,0.096
			c-0.433,0-0.738-0.125-0.918-0.375c-0.181-0.249-0.271-0.639-0.271-1.167c0-1.052,0.418-1.577,1.254-1.577
			c0.404,0,0.706,0.112,0.906,0.339c0.2,0.226,0.3,0.581,0.3,1.064l-0.023,0.342h-1.98c0,0.332,0.061,0.578,0.18,0.738
			c0.12,0.16,0.329,0.24,0.628,0.24C101.522,20.705,101.825,20.693,102.133,20.669z M101.971,19.367c0-0.368-0.059-0.628-0.177-0.78
			s-0.31-0.228-0.576-0.228c-0.266,0-0.466,0.08-0.6,0.239c-0.134,0.16-0.203,0.416-0.207,0.769H101.971z"/>
	</g>
</g>
<g>
	<g>
		<path fill="#4D4D4D" d="M72.768,101.438h0.641l-1.449,5.536h-1.375l-1.447-5.536h0.639l1.271,4.992h0.449L72.768,101.438z"/>
		<path fill="#4D4D4D" d="M76.641,106.478l0.232-0.023l0.016,0.472c-0.609,0.085-1.129,0.128-1.561,0.128
			c-0.576,0-0.984-0.167-1.225-0.5s-0.359-0.853-0.359-1.556c0-1.403,0.557-2.104,1.672-2.104c0.539,0,0.941,0.15,1.209,0.452
			c0.266,0.302,0.398,0.774,0.398,1.42l-0.031,0.456h-2.641c0,0.442,0.08,0.771,0.24,0.984c0.16,0.213,0.439,0.319,0.836,0.319
			C75.826,106.525,76.229,106.51,76.641,106.478z M76.424,104.741c0-0.49-0.078-0.837-0.236-1.04
			c-0.156-0.202-0.412-0.304-0.768-0.304c-0.354,0-0.621,0.106-0.799,0.32c-0.18,0.213-0.271,0.555-0.277,1.023H76.424z"/>
		<path fill="#4D4D4D" d="M77.959,106.974v-4h0.592v0.544c0.465-0.32,0.953-0.53,1.465-0.632v0.607
			c-0.225,0.043-0.457,0.109-0.701,0.2c-0.242,0.091-0.428,0.171-0.555,0.24l-0.201,0.104v2.936H77.959z"/>
		<path fill="#4D4D4D" d="M81.328,106.974h-0.6v-5.744h0.6v3.393l0.623-0.032l1.145-1.616h0.68l-1.303,1.84l1.359,2.16h-0.68
			l-1.193-1.856l-0.631,0.024V106.974z"/>
		<path fill="#4D4D4D" d="M87.359,104.182v2.048c0.016,0.197,0.17,0.314,0.465,0.353l-0.025,0.472c-0.42,0-0.738-0.106-0.951-0.32
			c-0.48,0.214-0.961,0.32-1.439,0.32c-0.369,0-0.648-0.104-0.84-0.312c-0.193-0.208-0.289-0.506-0.289-0.896s0.1-0.676,0.297-0.86
			c0.197-0.184,0.506-0.297,0.928-0.34l1.256-0.12v-0.344c0-0.272-0.059-0.467-0.176-0.584s-0.277-0.176-0.48-0.176
			c-0.428,0-0.869,0.026-1.328,0.08l-0.248,0.023l-0.023-0.456c0.586-0.117,1.105-0.176,1.559-0.176
			c0.455,0,0.783,0.104,0.988,0.312S87.359,103.739,87.359,104.182z M84.895,105.813c0,0.491,0.203,0.736,0.609,0.736
			c0.361,0,0.719-0.062,1.072-0.185l0.184-0.063v-1.32l-1.184,0.112c-0.24,0.021-0.414,0.091-0.521,0.208
			C84.949,105.419,84.895,105.59,84.895,105.813z"/>
		<path fill="#4D4D4D" d="M91.039,102.974h0.6v4h-0.6v-0.28c-0.4,0.24-0.795,0.36-1.184,0.36c-0.545,0-0.906-0.142-1.084-0.424
			c-0.18-0.283-0.268-0.806-0.268-1.568v-2.088h0.6v2.08c0,0.581,0.051,0.971,0.152,1.168s0.33,0.296,0.688,0.296
			c0.176,0,0.355-0.025,0.535-0.076c0.182-0.051,0.32-0.1,0.416-0.147l0.145-0.072V102.974z"/>
		<path fill="#4D4D4D" d="M93.559,103.493v3.48h-0.6v-3.48h-0.504v-0.52h0.504v-0.36c0-0.564,0.08-0.95,0.24-1.155
			c0.16-0.206,0.439-0.309,0.84-0.309l0.809,0.057l-0.008,0.495c-0.299-0.01-0.545-0.016-0.74-0.016s-0.334,0.064-0.416,0.192
			c-0.084,0.128-0.125,0.376-0.125,0.744v0.352h1.16v0.52H93.559z"/>
		<path fill="#4D4D4D" d="M96.695,103.43c-0.58,0-0.871,0.203-0.871,0.608c0,0.187,0.066,0.318,0.199,0.396s0.438,0.157,0.912,0.24
			s0.811,0.198,1.008,0.348s0.297,0.43,0.297,0.84c0,0.411-0.133,0.712-0.396,0.904s-0.648,0.288-1.156,0.288
			c-0.33,0-0.721-0.037-1.168-0.112l-0.24-0.04l0.033-0.52c0.607,0.091,1.066,0.136,1.375,0.136s0.545-0.049,0.709-0.147
			c0.162-0.099,0.244-0.265,0.244-0.496c0-0.232-0.07-0.39-0.209-0.473c-0.139-0.082-0.443-0.161-0.912-0.235
			c-0.469-0.075-0.803-0.185-1-0.328c-0.197-0.145-0.295-0.411-0.295-0.8c0-0.39,0.137-0.678,0.412-0.864
			c0.273-0.187,0.617-0.28,1.027-0.28c0.324,0,0.732,0.037,1.225,0.112l0.223,0.04l-0.016,0.512
			C97.504,103.473,97.037,103.43,96.695,103.43z"/>
		<path fill="#4D4D4D" d="M99.16,102.069v-0.695h0.6v0.695H99.16z M99.16,106.974v-4h0.6v4H99.16z"/>
		<path fill="#4D4D4D" d="M102.455,108.854c-0.639,0-1.086-0.087-1.34-0.26c-0.254-0.174-0.379-0.489-0.379-0.948
			c0-0.219,0.047-0.396,0.143-0.532c0.096-0.136,0.26-0.289,0.488-0.46c-0.148-0.101-0.225-0.285-0.225-0.552
			c0-0.091,0.068-0.259,0.201-0.504l0.072-0.128c-0.422-0.192-0.633-0.595-0.633-1.208c0-0.912,0.498-1.368,1.496-1.368
			c0.256,0,0.494,0.026,0.713,0.08l0.119,0.024l1.184-0.032v0.512l-0.76-0.016c0.176,0.176,0.264,0.442,0.264,0.8
			c0,0.501-0.123,0.852-0.371,1.052s-0.639,0.3-1.172,0.3c-0.145,0-0.275-0.011-0.393-0.031c-0.096,0.234-0.145,0.387-0.145,0.456
			c0,0.165,0.051,0.268,0.152,0.308s0.408,0.06,0.92,0.06s0.881,0.08,1.104,0.24c0.225,0.16,0.338,0.472,0.338,0.937
			C104.232,108.43,103.639,108.854,102.455,108.854z M101.328,107.598c0,0.282,0.078,0.479,0.234,0.588
			c0.158,0.109,0.449,0.164,0.873,0.164s0.729-0.059,0.912-0.176s0.275-0.313,0.275-0.588c0-0.275-0.066-0.452-0.199-0.532
			s-0.395-0.12-0.785-0.12l-0.863-0.04c-0.176,0.128-0.295,0.24-0.355,0.336C101.357,107.325,101.328,107.448,101.328,107.598z
			 M101.383,104.262c0,0.314,0.07,0.539,0.213,0.672c0.141,0.134,0.375,0.2,0.699,0.2c0.326,0,0.559-0.066,0.697-0.2
			c0.139-0.133,0.207-0.358,0.207-0.676s-0.068-0.543-0.207-0.676c-0.139-0.134-0.371-0.2-0.697-0.2
			c-0.324,0-0.559,0.067-0.699,0.204C101.453,103.722,101.383,103.947,101.383,104.262z"/>
		<path fill="#4D4D4D" d="M105.623,106.974h-0.6v-4h0.592v0.28c0.432-0.24,0.846-0.36,1.24-0.36c0.533,0,0.893,0.145,1.076,0.432
			c0.184,0.288,0.275,0.801,0.275,1.536v2.112h-0.592v-2.096c0-0.555-0.055-0.935-0.164-1.141c-0.109-0.205-0.342-0.308-0.699-0.308
			c-0.172,0-0.352,0.025-0.541,0.076s-0.334,0.1-0.436,0.147l-0.152,0.072V106.974z"/>
		<path fill="#4D4D4D" d="M112.143,104.182v2.048c0.016,0.197,0.17,0.314,0.465,0.353l-0.025,0.472c-0.42,0-0.738-0.106-0.951-0.32
			c-0.48,0.214-0.961,0.32-1.439,0.32c-0.369,0-0.648-0.104-0.84-0.312c-0.193-0.208-0.289-0.506-0.289-0.896s0.1-0.676,0.297-0.86
			c0.197-0.184,0.506-0.297,0.928-0.34l1.256-0.12v-0.344c0-0.272-0.059-0.467-0.176-0.584s-0.277-0.176-0.48-0.176
			c-0.428,0-0.869,0.026-1.328,0.08l-0.248,0.023l-0.023-0.456c0.586-0.117,1.105-0.176,1.559-0.176
			c0.455,0,0.783,0.104,0.988,0.312S112.143,103.739,112.143,104.182z M109.678,105.813c0,0.491,0.203,0.736,0.609,0.736
			c0.361,0,0.719-0.062,1.072-0.185l0.184-0.063v-1.32l-1.184,0.112c-0.24,0.021-0.414,0.091-0.521,0.208
			C109.732,105.419,109.678,105.59,109.678,105.813z"/>
		<path fill="#4D4D4D" d="M113.375,106.974v-5.744h0.6v5.744H113.375z"/>
		<path fill="#4D4D4D" d="M69.453,114.174v-4.152h0.834l1.176,3.511l1.178-3.511h0.834v4.152h-0.463v-3.66h-0.084l-1.205,3.51
			h-0.518L70,110.514h-0.084v3.66H69.453z"/>
		<path fill="#4D4D4D" d="M74.127,114.174l1.141-4.152h1.008l1.141,4.152h-0.457l-0.299-1.068h-1.775l-0.301,1.068H74.127z
			 M75.615,110.418l-0.629,2.273h1.572l-0.631-2.273H75.615z"/>
		<path fill="#4D4D4D" d="M80.506,114.107c-0.412,0.084-0.781,0.126-1.109,0.126s-0.594-0.045-0.795-0.135
			c-0.203-0.09-0.359-0.229-0.469-0.42c-0.109-0.189-0.186-0.408-0.229-0.654c-0.041-0.245-0.062-0.553-0.062-0.921
			c0-0.367,0.021-0.677,0.062-0.927c0.043-0.25,0.119-0.471,0.229-0.663c0.109-0.191,0.266-0.332,0.465-0.42
			s0.461-0.132,0.779-0.132c0.32,0,0.697,0.044,1.129,0.132l-0.018,0.39c-0.404-0.071-0.764-0.107-1.08-0.107
			c-0.441,0-0.732,0.131-0.873,0.393c-0.143,0.263-0.213,0.709-0.213,1.341c0,0.316,0.012,0.57,0.039,0.763
			c0.025,0.191,0.076,0.365,0.152,0.519c0.076,0.154,0.188,0.265,0.334,0.33c0.145,0.066,0.359,0.1,0.641,0.1
			c0.283,0,0.615-0.036,1-0.108L80.506,114.107z"/>
		<path fill="#4D4D4D" d="M82.744,114.174h-1.482v-4.152h1.482c0.676,0,1.123,0.269,1.344,0.805
			c0.127,0.308,0.191,0.712,0.191,1.212c0,1.044-0.26,1.702-0.779,1.974C83.291,114.12,83.039,114.174,82.744,114.174z
			 M83.805,112.038c0-0.796-0.178-1.292-0.533-1.488c-0.145-0.08-0.32-0.12-0.527-0.12h-1.021v3.336h1.021
			C83.451,113.766,83.805,113.189,83.805,112.038z"/>
		<path fill="#4D4D4D" d="M87.316,111.516c-0.438,0-0.654,0.152-0.654,0.456c0,0.141,0.049,0.239,0.15,0.297
			c0.1,0.059,0.328,0.118,0.684,0.181c0.355,0.062,0.607,0.148,0.756,0.261s0.223,0.322,0.223,0.63s-0.1,0.534-0.297,0.678
			c-0.199,0.145-0.488,0.216-0.867,0.216c-0.248,0-0.541-0.027-0.877-0.084l-0.18-0.029l0.023-0.391
			c0.457,0.068,0.801,0.103,1.033,0.103c0.23,0,0.408-0.037,0.531-0.111c0.121-0.074,0.182-0.198,0.182-0.372
			s-0.051-0.292-0.156-0.354c-0.104-0.062-0.332-0.121-0.684-0.178c-0.352-0.056-0.602-0.138-0.75-0.245
			c-0.148-0.108-0.223-0.309-0.223-0.601s0.104-0.508,0.311-0.647c0.205-0.141,0.463-0.21,0.77-0.21
			c0.244,0,0.551,0.027,0.918,0.084l0.168,0.029l-0.012,0.385C87.922,111.548,87.572,111.516,87.316,111.516z"/>
		<path fill="#4D4D4D" d="M90.719,111.563h-0.955v1.435c0,0.344,0.025,0.569,0.076,0.678c0.049,0.108,0.168,0.162,0.355,0.162
			l0.535-0.036l0.029,0.372c-0.268,0.044-0.473,0.066-0.611,0.066c-0.312,0-0.529-0.076-0.648-0.229s-0.18-0.441-0.18-0.87v-1.578
			h-0.426v-0.39h0.426v-0.918h0.443v0.918h0.955V111.563z"/>
		<path fill="#4D4D4D" d="M93.309,113.802l0.176-0.018l0.012,0.354c-0.457,0.064-0.848,0.096-1.17,0.096
			c-0.434,0-0.738-0.125-0.918-0.375c-0.182-0.249-0.271-0.639-0.271-1.167c0-1.052,0.418-1.577,1.254-1.577
			c0.404,0,0.707,0.112,0.906,0.339c0.201,0.226,0.301,0.581,0.301,1.064l-0.023,0.342h-1.98c0,0.332,0.061,0.578,0.18,0.738
			s0.328,0.24,0.627,0.24S93.002,113.826,93.309,113.802z M93.146,112.5c0-0.368-0.059-0.628-0.176-0.78
			c-0.119-0.152-0.311-0.228-0.576-0.228s-0.467,0.08-0.6,0.239c-0.135,0.16-0.203,0.416-0.207,0.769H93.146z"/>
		<path fill="#4D4D4D" d="M94.299,110.496v-0.522h0.451v0.522H94.299z M94.299,114.174v-3h0.451v3H94.299z"/>
		<path fill="#4D4D4D" d="M96.771,115.584c-0.48,0-0.814-0.065-1.006-0.195c-0.189-0.13-0.285-0.367-0.285-0.711
			c0-0.164,0.037-0.297,0.109-0.398c0.072-0.103,0.193-0.218,0.365-0.346c-0.111-0.076-0.168-0.214-0.168-0.414
			c0-0.067,0.051-0.193,0.15-0.378l0.053-0.096c-0.314-0.145-0.473-0.446-0.473-0.906c0-0.684,0.373-1.025,1.121-1.025
			c0.193,0,0.371,0.02,0.535,0.06l0.09,0.018l0.887-0.023v0.384l-0.568-0.012c0.131,0.132,0.197,0.332,0.197,0.6
			c0,0.376-0.094,0.64-0.279,0.789c-0.186,0.15-0.479,0.226-0.879,0.226c-0.107,0-0.205-0.009-0.293-0.024
			c-0.072,0.176-0.109,0.29-0.109,0.342c0,0.124,0.039,0.201,0.115,0.231c0.074,0.029,0.305,0.045,0.689,0.045
			c0.383,0,0.66,0.06,0.828,0.18s0.252,0.354,0.252,0.702C98.104,115.266,97.658,115.584,96.771,115.584z M95.926,114.642
			c0,0.212,0.059,0.359,0.176,0.441c0.119,0.082,0.336,0.123,0.654,0.123s0.547-0.044,0.684-0.132
			c0.139-0.089,0.207-0.235,0.207-0.441s-0.049-0.339-0.148-0.399c-0.102-0.06-0.297-0.09-0.59-0.09l-0.646-0.029
			c-0.133,0.096-0.221,0.18-0.268,0.252C95.947,114.438,95.926,114.53,95.926,114.642z M95.967,112.14
			c0,0.236,0.053,0.404,0.16,0.504c0.105,0.101,0.279,0.15,0.523,0.15s0.418-0.05,0.523-0.15c0.104-0.1,0.156-0.269,0.156-0.507
			s-0.053-0.407-0.156-0.507c-0.105-0.1-0.279-0.15-0.523-0.15s-0.418,0.052-0.523,0.153
			C96.02,111.734,95.967,111.904,95.967,112.14z"/>
		<path fill="#4D4D4D" d="M100.252,111.563h-0.955v1.435c0,0.344,0.025,0.569,0.076,0.678c0.049,0.108,0.168,0.162,0.355,0.162
			l0.535-0.036l0.029,0.372c-0.268,0.044-0.473,0.066-0.611,0.066c-0.312,0-0.529-0.076-0.648-0.229s-0.18-0.441-0.18-0.87v-1.578
			h-0.426v-0.39h0.426v-0.918h0.443v0.918h0.955V111.563z"/>
		<path fill="#4D4D4D" d="M71.697,118.374v3h-0.449v-0.21l-0.127,0.066c-0.084,0.048-0.199,0.094-0.348,0.138
			s-0.285,0.065-0.414,0.065c-0.408,0-0.678-0.105-0.812-0.317s-0.201-0.604-0.201-1.176v-1.566h0.449v1.56
			c0,0.437,0.039,0.729,0.115,0.876c0.076,0.148,0.254,0.223,0.537,0.223c0.281,0,0.549-0.074,0.801-0.223v-2.436H71.697z
			 M69.736,117.648v-0.54h0.432v0.54H69.736z M70.936,117.648v-0.54h0.438v0.54H70.936z"/>
		<path fill="#4D4D4D" d="M73.887,118.314c0.404,0,0.688,0.114,0.85,0.345c0.162,0.229,0.242,0.633,0.242,1.209
			s-0.1,0.98-0.303,1.215c-0.201,0.234-0.572,0.351-1.113,0.351c-0.168,0-0.445-0.016-0.834-0.048l-0.168-0.018v-4.302h0.445v1.458
			C73.309,118.384,73.604,118.314,73.887,118.314z M73.557,121.032c0.393,0,0.652-0.089,0.777-0.268
			c0.127-0.178,0.189-0.479,0.189-0.902s-0.051-0.722-0.15-0.892s-0.277-0.255-0.533-0.255c-0.232,0-0.471,0.044-0.715,0.132
			l-0.119,0.042v2.112C73.266,121.022,73.449,121.032,73.557,121.032z"/>
		<path fill="#4D4D4D" d="M77.758,121.002l0.174-0.018l0.012,0.354c-0.455,0.064-0.846,0.096-1.17,0.096
			c-0.432,0-0.738-0.125-0.918-0.375c-0.18-0.249-0.27-0.639-0.27-1.167c0-1.052,0.418-1.577,1.254-1.577
			c0.404,0,0.705,0.112,0.906,0.339c0.199,0.226,0.299,0.581,0.299,1.064l-0.023,0.342h-1.98c0,0.332,0.061,0.578,0.18,0.738
			c0.121,0.16,0.33,0.24,0.629,0.24C77.146,121.038,77.449,121.026,77.758,121.002z M77.596,119.7c0-0.368-0.059-0.628-0.178-0.78
			c-0.117-0.152-0.309-0.228-0.576-0.228c-0.266,0-0.465,0.08-0.6,0.239c-0.133,0.16-0.203,0.416-0.207,0.769H77.596z"/>
		<path fill="#4D4D4D" d="M78.748,121.374v-3h0.443v0.408c0.348-0.24,0.715-0.398,1.098-0.475v0.456
			c-0.168,0.032-0.342,0.082-0.523,0.15c-0.184,0.068-0.322,0.128-0.418,0.18l-0.15,0.078v2.202H78.748z"/>
		<path fill="#4D4D4D" d="M84.447,117.066v4.308h-0.443v-0.204c-0.309,0.176-0.613,0.264-0.912,0.264c-0.16,0-0.301-0.02-0.42-0.06
			c-0.121-0.04-0.232-0.112-0.336-0.216c-0.217-0.216-0.324-0.615-0.324-1.197s0.096-1.002,0.291-1.26
			c0.193-0.258,0.516-0.387,0.963-0.387c0.232,0,0.479,0.025,0.738,0.077v-1.325H84.447z M82.887,120.99
			c0.072,0.027,0.166,0.042,0.279,0.042c0.115,0,0.242-0.02,0.385-0.058c0.141-0.037,0.252-0.074,0.332-0.11l0.121-0.055v-2.033
			c-0.256-0.049-0.494-0.072-0.715-0.072c-0.303,0-0.516,0.097-0.635,0.291c-0.121,0.194-0.182,0.495-0.182,0.903
			c0,0.464,0.07,0.775,0.211,0.936C82.748,120.91,82.814,120.962,82.887,120.99z"/>
		<path fill="#4D4D4D" d="M85.316,117.696v-0.522h0.451v0.522H85.316z M85.316,121.374v-3h0.451v3H85.316z"/>
		<path fill="#4D4D4D" d="M88.672,121.002l0.174-0.018l0.012,0.354c-0.455,0.064-0.846,0.096-1.17,0.096
			c-0.432,0-0.738-0.125-0.918-0.375c-0.18-0.249-0.27-0.639-0.27-1.167c0-1.052,0.418-1.577,1.254-1.577
			c0.404,0,0.705,0.112,0.906,0.339c0.199,0.226,0.299,0.581,0.299,1.064l-0.023,0.342h-1.98c0,0.332,0.061,0.578,0.18,0.738
			c0.121,0.16,0.33,0.24,0.629,0.24C88.061,121.038,88.363,121.026,88.672,121.002z M88.51,119.7c0-0.368-0.059-0.628-0.178-0.78
			c-0.117-0.152-0.309-0.228-0.576-0.228c-0.266,0-0.465,0.08-0.6,0.239c-0.133,0.16-0.203,0.416-0.207,0.769H88.51z"/>
		<path fill="#4D4D4D" d="M92.205,117.564c-0.6,0-0.9,0.226-0.9,0.678c0,0.252,0.07,0.425,0.207,0.519
			c0.139,0.095,0.418,0.188,0.84,0.282s0.723,0.216,0.898,0.366c0.176,0.149,0.264,0.396,0.264,0.741
			c0,0.852-0.443,1.277-1.326,1.277c-0.293,0-0.658-0.034-1.098-0.102l-0.217-0.03l0.049-0.384c0.543,0.072,0.957,0.108,1.242,0.108
			c0.592,0,0.887-0.278,0.887-0.835c0-0.224-0.064-0.385-0.195-0.482c-0.129-0.098-0.373-0.181-0.729-0.249
			c-0.467-0.1-0.799-0.229-0.996-0.387c-0.195-0.158-0.293-0.424-0.293-0.795c0-0.744,0.445-1.116,1.338-1.116
			c0.291,0,0.641,0.029,1.049,0.09l0.205,0.03l-0.043,0.39C92.832,117.598,92.438,117.564,92.205,117.564z"/>
		<path fill="#4D4D4D" d="M94.232,117.696v-0.522h0.451v0.522H94.232z M94.232,121.374v-3h0.451v3H94.232z"/>
		<path fill="#4D4D4D" d="M96.705,122.784c-0.48,0-0.814-0.065-1.006-0.195c-0.189-0.13-0.285-0.367-0.285-0.711
			c0-0.164,0.037-0.297,0.109-0.398c0.072-0.103,0.193-0.218,0.365-0.346c-0.111-0.076-0.168-0.214-0.168-0.414
			c0-0.067,0.051-0.193,0.15-0.378l0.053-0.096c-0.314-0.145-0.473-0.446-0.473-0.906c0-0.684,0.373-1.025,1.121-1.025
			c0.193,0,0.371,0.02,0.535,0.06l0.09,0.018l0.887-0.023v0.384l-0.568-0.012c0.131,0.132,0.197,0.332,0.197,0.6
			c0,0.376-0.094,0.64-0.279,0.789c-0.186,0.15-0.479,0.226-0.879,0.226c-0.107,0-0.205-0.009-0.293-0.024
			c-0.072,0.176-0.109,0.29-0.109,0.342c0,0.124,0.039,0.201,0.115,0.231c0.074,0.029,0.305,0.045,0.689,0.045
			c0.383,0,0.66,0.06,0.828,0.18s0.252,0.354,0.252,0.702C98.037,122.466,97.592,122.784,96.705,122.784z M95.859,121.842
			c0,0.212,0.059,0.359,0.176,0.441c0.119,0.082,0.336,0.123,0.654,0.123s0.547-0.044,0.684-0.132
			c0.139-0.089,0.207-0.235,0.207-0.441s-0.049-0.339-0.148-0.399c-0.102-0.06-0.297-0.09-0.59-0.09l-0.646-0.029
			c-0.133,0.096-0.221,0.18-0.268,0.252C95.881,121.638,95.859,121.73,95.859,121.842z M95.9,119.34c0,0.236,0.053,0.404,0.16,0.504
			c0.105,0.101,0.279,0.15,0.523,0.15s0.418-0.05,0.523-0.15c0.104-0.1,0.156-0.269,0.156-0.507s-0.053-0.407-0.156-0.507
			c-0.105-0.1-0.279-0.15-0.523-0.15s-0.418,0.052-0.523,0.153C95.953,118.935,95.9,119.104,95.9,119.34z"/>
		<path fill="#4D4D4D" d="M99.08,121.374h-0.449v-3h0.443v0.21c0.324-0.18,0.635-0.27,0.93-0.27c0.4,0,0.67,0.107,0.809,0.323
			c0.137,0.217,0.207,0.601,0.207,1.152v1.584h-0.445v-1.572c0-0.416-0.041-0.701-0.123-0.854c-0.082-0.154-0.256-0.231-0.525-0.231
			c-0.127,0-0.262,0.02-0.404,0.058s-0.25,0.074-0.326,0.11l-0.115,0.055V121.374z"/>
		<path fill="#4D4D4D" d="M103.971,119.28v1.536c0.012,0.147,0.129,0.235,0.35,0.264l-0.02,0.354c-0.314,0-0.553-0.079-0.713-0.239
			c-0.361,0.16-0.721,0.239-1.08,0.239c-0.277,0-0.486-0.077-0.631-0.233s-0.215-0.38-0.215-0.672s0.074-0.507,0.221-0.646
			c0.148-0.138,0.381-0.223,0.697-0.255l0.941-0.09v-0.258c0-0.204-0.045-0.351-0.133-0.438s-0.207-0.132-0.359-0.132
			c-0.32,0-0.652,0.021-0.996,0.061l-0.186,0.018l-0.018-0.342c0.439-0.088,0.83-0.132,1.17-0.132s0.586,0.077,0.74,0.233
			S103.971,118.948,103.971,119.28z M102.123,120.504c0,0.368,0.152,0.552,0.457,0.552c0.271,0,0.539-0.046,0.803-0.138l0.139-0.048
			v-0.99l-0.889,0.084c-0.18,0.017-0.309,0.068-0.389,0.156S102.123,120.336,102.123,120.504z"/>
		<path fill="#4D4D4D" d="M104.895,121.374v-4.308h0.451v4.308H104.895z"/>
		<path fill="#4D4D4D" d="M106.281,121.374v-4.308h0.449v4.308H106.281z"/>
		<path fill="#4D4D4D" d="M107.631,117.696v-0.522h0.449v0.522H107.631z M107.631,121.374v-3h0.449v3H107.631z"/>
		<path fill="#4D4D4D" d="M109.395,121.374h-0.449v-3h0.443v0.21c0.324-0.18,0.635-0.27,0.93-0.27c0.4,0,0.67,0.107,0.809,0.323
			c0.137,0.217,0.207,0.601,0.207,1.152v1.584h-0.445v-1.572c0-0.416-0.041-0.701-0.123-0.854c-0.082-0.154-0.256-0.231-0.525-0.231
			c-0.127,0-0.262,0.02-0.404,0.058s-0.25,0.074-0.326,0.11l-0.115,0.055V121.374z"/>
		<path fill="#4D4D4D" d="M112.166,117.696v-0.522h0.451v0.522H112.166z M112.166,121.374v-3h0.451v3H112.166z"/>
		<path fill="#4D4D4D" d="M115.52,121.002l0.176-0.018l0.012,0.354c-0.457,0.064-0.848,0.096-1.17,0.096
			c-0.434,0-0.738-0.125-0.918-0.375c-0.182-0.249-0.271-0.639-0.271-1.167c0-1.052,0.418-1.577,1.254-1.577
			c0.404,0,0.707,0.112,0.906,0.339c0.201,0.226,0.301,0.581,0.301,1.064l-0.023,0.342h-1.98c0,0.332,0.061,0.578,0.18,0.738
			s0.328,0.24,0.627,0.24S115.213,121.026,115.52,121.002z M115.357,119.7c0-0.368-0.059-0.628-0.176-0.78
			c-0.119-0.152-0.311-0.228-0.576-0.228s-0.467,0.08-0.6,0.239c-0.135,0.16-0.203,0.416-0.207,0.769H115.357z"/>
	</g>
</g>
<g>
	<g>
		<path fill="#4D4D4D" d="M158.953,56.308v-4.152h0.834l1.176,3.511l1.178-3.511h0.834v4.152h-0.463v-3.66h-0.084l-1.205,3.51
			h-0.518l-1.205-3.51h-0.084v3.66H158.953z"/>
		<path fill="#4D4D4D" d="M163.627,56.308l1.141-4.152h1.008l1.141,4.152h-0.457l-0.299-1.068h-1.775l-0.301,1.068H163.627z
			 M165.115,52.552l-0.629,2.273h1.572l-0.631-2.273H165.115z"/>
		<path fill="#4D4D4D" d="M170.006,56.241c-0.412,0.084-0.781,0.126-1.109,0.126s-0.594-0.045-0.795-0.135
			c-0.203-0.09-0.359-0.229-0.469-0.42c-0.109-0.189-0.186-0.408-0.229-0.654c-0.041-0.245-0.062-0.553-0.062-0.921
			c0-0.367,0.021-0.677,0.062-0.927c0.043-0.25,0.119-0.471,0.229-0.663c0.109-0.191,0.266-0.332,0.465-0.42
			s0.461-0.132,0.779-0.132c0.32,0,0.697,0.044,1.129,0.132l-0.018,0.39c-0.404-0.071-0.764-0.107-1.08-0.107
			c-0.441,0-0.732,0.131-0.873,0.393c-0.143,0.263-0.213,0.709-0.213,1.341c0,0.316,0.012,0.57,0.039,0.763
			c0.025,0.191,0.076,0.365,0.152,0.519c0.076,0.154,0.188,0.265,0.334,0.33c0.145,0.066,0.359,0.1,0.641,0.1
			c0.283,0,0.615-0.036,1-0.108L170.006,56.241z"/>
		<path fill="#4D4D4D" d="M172.244,56.308h-1.482v-4.152h1.482c0.676,0,1.123,0.269,1.344,0.805
			c0.127,0.308,0.191,0.712,0.191,1.212c0,1.044-0.26,1.702-0.779,1.974C172.791,56.254,172.539,56.308,172.244,56.308z
			 M173.305,54.172c0-0.796-0.178-1.292-0.533-1.488c-0.145-0.08-0.32-0.12-0.527-0.12h-1.021v3.336h1.021
			C172.951,55.899,173.305,55.323,173.305,54.172z"/>
	</g>
</g>
<g>
	<g>
		<path fill="#00B8FA" d="M160.1,59.331c-0.6,0-0.9,0.226-0.9,0.678c0,0.252,0.07,0.425,0.207,0.519
			c0.139,0.095,0.418,0.188,0.84,0.282s0.723,0.216,0.898,0.366c0.176,0.149,0.264,0.396,0.264,0.741
			c0,0.852-0.443,1.277-1.326,1.277c-0.293,0-0.658-0.034-1.098-0.102l-0.217-0.03l0.049-0.384c0.543,0.072,0.957,0.108,1.242,0.108
			c0.592,0,0.887-0.278,0.887-0.835c0-0.224-0.064-0.385-0.195-0.482c-0.129-0.098-0.373-0.181-0.729-0.249
			c-0.467-0.1-0.799-0.229-0.996-0.387c-0.195-0.158-0.293-0.424-0.293-0.795c0-0.744,0.445-1.116,1.338-1.116
			c0.291,0,0.641,0.029,1.049,0.09l0.205,0.03l-0.043,0.39C160.727,59.364,160.332,59.331,160.1,59.331z"/>
		<path fill="#00B8FA" d="M162.127,59.463V58.94h0.451v0.522H162.127z M162.127,63.141v-3h0.451v3H162.127z"/>
		<path fill="#00B8FA" d="M164.6,64.551c-0.479,0-0.814-0.065-1.004-0.195c-0.191-0.13-0.285-0.367-0.285-0.711
			c0-0.164,0.035-0.297,0.107-0.398c0.072-0.103,0.193-0.218,0.367-0.346c-0.113-0.076-0.168-0.214-0.168-0.414
			c0-0.067,0.049-0.193,0.148-0.378l0.055-0.096c-0.316-0.145-0.475-0.446-0.475-0.906c0-0.684,0.375-1.025,1.123-1.025
			c0.191,0,0.369,0.02,0.533,0.06l0.09,0.018l0.889-0.023v0.384l-0.57-0.012c0.133,0.132,0.197,0.332,0.197,0.6
			c0,0.376-0.092,0.64-0.277,0.789c-0.188,0.15-0.48,0.226-0.879,0.226c-0.109,0-0.207-0.009-0.295-0.024
			c-0.072,0.176-0.107,0.29-0.107,0.342c0,0.124,0.037,0.201,0.113,0.231c0.076,0.029,0.307,0.045,0.689,0.045
			c0.385,0,0.66,0.06,0.828,0.18s0.252,0.354,0.252,0.702C165.932,64.232,165.488,64.551,164.6,64.551z M163.754,63.608
			c0,0.212,0.059,0.359,0.178,0.441c0.117,0.082,0.336,0.123,0.654,0.123c0.316,0,0.545-0.044,0.684-0.132
			c0.139-0.089,0.207-0.235,0.207-0.441s-0.051-0.339-0.15-0.399c-0.1-0.06-0.297-0.09-0.588-0.09l-0.648-0.029
			c-0.131,0.096-0.221,0.18-0.266,0.252C163.777,63.404,163.754,63.497,163.754,63.608z M163.797,61.106
			c0,0.236,0.053,0.404,0.158,0.504c0.105,0.101,0.281,0.15,0.525,0.15s0.418-0.05,0.521-0.15c0.104-0.1,0.156-0.269,0.156-0.507
			s-0.053-0.407-0.156-0.507s-0.277-0.15-0.521-0.15s-0.42,0.052-0.525,0.153S163.797,60.871,163.797,61.106z"/>
		<path fill="#00B8FA" d="M166.975,63.141h-0.449v-3h0.443v0.21c0.324-0.18,0.635-0.27,0.93-0.27c0.4,0,0.67,0.107,0.809,0.323
			c0.137,0.217,0.207,0.601,0.207,1.152v1.584h-0.445v-1.572c0-0.416-0.041-0.701-0.123-0.854c-0.082-0.154-0.256-0.231-0.525-0.231
			c-0.127,0-0.262,0.02-0.404,0.058s-0.25,0.074-0.326,0.11l-0.115,0.055V63.141z"/>
		<path fill="#00B8FA" d="M171.865,61.047v1.536c0.012,0.147,0.129,0.235,0.35,0.264l-0.02,0.354c-0.314,0-0.553-0.079-0.713-0.239
			c-0.361,0.16-0.721,0.239-1.08,0.239c-0.277,0-0.486-0.077-0.631-0.233s-0.215-0.38-0.215-0.672s0.074-0.507,0.221-0.646
			c0.148-0.138,0.381-0.223,0.697-0.255l0.941-0.09v-0.258c0-0.204-0.045-0.351-0.133-0.438s-0.207-0.132-0.359-0.132
			c-0.32,0-0.652,0.021-0.996,0.061l-0.186,0.018l-0.018-0.342c0.439-0.088,0.83-0.132,1.17-0.132s0.586,0.077,0.74,0.233
			S171.865,60.715,171.865,61.047z M170.018,62.271c0,0.368,0.152,0.552,0.457,0.552c0.271,0,0.539-0.046,0.803-0.138l0.139-0.048
			v-0.99l-0.889,0.084c-0.18,0.017-0.309,0.068-0.389,0.156S170.018,62.103,170.018,62.271z"/>
		<path fill="#00B8FA" d="M172.789,63.141v-4.308h0.451v4.308H172.789z"/>
		<path fill="#00B8FA" d="M174.176,63.141v-4.308h0.449v4.308H174.176z"/>
		<path fill="#00B8FA" d="M175.525,59.463V58.94h0.449v0.522H175.525z M175.525,63.141v-3h0.449v3H175.525z"/>
		<path fill="#00B8FA" d="M177.289,63.141h-0.449v-3h0.443v0.21c0.324-0.18,0.635-0.27,0.93-0.27c0.4,0,0.67,0.107,0.809,0.323
			c0.137,0.217,0.207,0.601,0.207,1.152v1.584h-0.445v-1.572c0-0.416-0.041-0.701-0.123-0.854c-0.082-0.154-0.256-0.231-0.525-0.231
			c-0.127,0-0.262,0.02-0.404,0.058s-0.25,0.074-0.326,0.11l-0.115,0.055V63.141z"/>
		<path fill="#00B8FA" d="M180.061,59.463V58.94h0.451v0.522H180.061z M180.061,63.141v-3h0.451v3H180.061z"/>
		<path fill="#00B8FA" d="M183.414,62.769l0.176-0.018l0.012,0.354c-0.457,0.064-0.848,0.096-1.17,0.096
			c-0.434,0-0.738-0.125-0.918-0.375c-0.182-0.249-0.271-0.639-0.271-1.167c0-1.052,0.418-1.577,1.254-1.577
			c0.404,0,0.707,0.112,0.906,0.339c0.201,0.226,0.301,0.581,0.301,1.064l-0.023,0.342h-1.98c0,0.332,0.061,0.578,0.18,0.738
			s0.328,0.24,0.627,0.24S183.107,62.793,183.414,62.769z M183.252,61.467c0-0.368-0.059-0.628-0.176-0.78
			c-0.119-0.152-0.311-0.228-0.576-0.228s-0.467,0.08-0.6,0.239c-0.135,0.16-0.203,0.416-0.207,0.769H183.252z"/>
	</g>
</g>
<g>
	<rect x="0.989" y="30.906" fill="#4D4D4D" width="4.022" height="4.022"/>
</g>
<g>
	<rect x="22.489" y="40.489" fill="#4D4D4D" width="4.022" height="4.022"/>
</g>
<g>
	<rect x="22.489" y="60.489" fill="#00B8FA" width="4.022" height="4.022"/>
</g>
<g>
	<rect x="0.989" y="49.239" fill="#00B8FA" width="4.022" height="4.022"/>
</g>
<g>
	<rect x="43.656" y="47.239" fill="#00B8FA" width="4.022" height="4.022"/>
</g>
<g>
	<rect x="65.156" y="42.489" fill="#00B8FA" width="4.022" height="4.022"/>
</g>
<g>
	<rect x="65.156" y="66.489" fill="#4D4D4D" width="4.022" height="4.022"/>
</g>
<g>
	<rect x="43.656" y="52.489" fill="#4D4D4D" width="4.022" height="4.022"/>
</g>
<g>
	<rect x="86.301" y="54.239" fill="#00B8FA" width="4.022" height="4.022"/>
</g>
<g>
	<rect x="107.801" y="55.489" fill="#00B8FA" width="4.022" height="4.022"/>
</g>
<g>
	<rect x="107.801" y="68.489" fill="#4D4D4D" width="4.022" height="4.022"/>
</g>
<g>
	<rect x="86.301" y="76.739" fill="#4D4D4D" width="4.022" height="4.022"/>
</g>
<g>
	<rect x="129.051" y="59.739" fill="#4D4D4D" width="4.022" height="4.022"/>
</g>
<g>
	<rect x="150.551" y="53.989" fill="#4D4D4D" width="4.022" height="4.022"/>
</g>
<g>
	<rect x="150.551" y="59.489" fill="#00B8FA" width="4.022" height="4.022"/>
</g>
<g>
	<rect x="129.051" y="68.739" fill="#00B8FA" width="4.022" height="4.022"/>
</g>
<polyline fill="none" stroke="#00B8FA" stroke-miterlimit="10" points="2.333,51.333 24.5,62.5 45.333,49.333 67.167,44.5 
	88.312,56.25 109.812,57.5 131.062,70.75 152.562,61.5 "/>
<polyline fill="none" stroke="#4D4D4D" stroke-miterlimit="10" points="2.667,32.833 24.5,42.5 46.333,54.667 67.167,68.5 
	88.312,78.75 109.667,71.167 131.062,61.75 152.562,56 "/>
<polyline fill="none" stroke="#4D4D4D" stroke-miterlimit="10" points="52.542,5 49.667,5 41.417,51.625 "/>
<polyline fill="none" stroke="#4D4D4D" stroke-miterlimit="10" points="115.166,104.5 118.166,104.5 122.667,65.625 "/>
</svg>
