<?xml version="1.0" encoding="utf-8"?>
<!-- Generator: Adobe Illustrator 21.1.0, SVG Export Plug-In . SVG Version: 6.00 Build 0)  -->
<svg version="1.1" id="Ebene_1" xmlns="http://www.w3.org/2000/svg" xmlns:xlink="http://www.w3.org/1999/xlink" x="0px" y="0px"
	 viewBox="0 0 200 200" enable-background="new 0 0 200 200" xml:space="preserve">
<rect x="0.333" y="0.333" fill="#FFFFFF" width="200" height="200.667"/>
<g>
	<g>
		<path fill="#4D4D4D" d="M66.227,6.641H65.61V1.104h0.616v2.576l0.912-0.032l1.416-2.544h0.704l-1.584,2.784l1.672,2.752h-0.728
			l-1.473-2.448l-0.92,0.032V6.641z"/>
		<path fill="#4D4D4D" d="M72.451,2.641h0.6v4h-0.6V6.36c-0.4,0.24-0.795,0.36-1.185,0.36c-0.544,0-0.905-0.142-1.084-0.424
			c-0.179-0.283-0.268-0.806-0.268-1.568V2.641h0.6v2.08c0,0.581,0.051,0.971,0.152,1.168s0.33,0.296,0.688,0.296
			c0.177,0,0.355-0.025,0.536-0.076c0.182-0.051,0.32-0.1,0.416-0.147l0.145-0.072V2.641z"/>
		<path fill="#4D4D4D" d="M74.203,6.641v-4h0.592v0.544c0.464-0.32,0.952-0.53,1.464-0.632V3.16c-0.224,0.043-0.457,0.109-0.7,0.2
			c-0.242,0.091-0.428,0.171-0.556,0.24l-0.2,0.104v2.936H74.203z"/>
		<path fill="#4D4D4D" d="M78.227,3.097c-0.581,0-0.872,0.203-0.872,0.608c0,0.187,0.066,0.318,0.2,0.396
			c0.133,0.077,0.438,0.157,0.912,0.24s0.811,0.198,1.008,0.348s0.296,0.43,0.296,0.84c0,0.411-0.132,0.712-0.396,0.904
			c-0.265,0.192-0.649,0.288-1.156,0.288c-0.331,0-0.721-0.037-1.168-0.112l-0.24-0.04l0.032-0.52
			c0.607,0.091,1.066,0.136,1.376,0.136c0.309,0,0.545-0.049,0.708-0.147c0.162-0.099,0.244-0.265,0.244-0.496
			c0-0.232-0.069-0.39-0.208-0.473c-0.139-0.082-0.443-0.161-0.912-0.235c-0.47-0.075-0.803-0.185-1-0.328
			c-0.197-0.145-0.296-0.411-0.296-0.8c0-0.39,0.137-0.678,0.412-0.864c0.274-0.187,0.617-0.28,1.027-0.28
			c0.325,0,0.733,0.037,1.225,0.112l0.224,0.04l-0.016,0.512C79.034,3.14,78.567,3.097,78.227,3.097z"/>
		<path fill="#4D4D4D" d="M82.554,1.104h2.009c0.549,0,0.961,0.113,1.235,0.34s0.412,0.583,0.412,1.068
			c0,0.347-0.06,0.617-0.18,0.812c-0.12,0.195-0.298,0.349-0.532,0.46c0.587,0.203,0.88,0.638,0.88,1.305
			c0,0.555-0.146,0.952-0.439,1.191c-0.294,0.24-0.718,0.36-1.272,0.36h-2.112V1.104z M84.538,1.648H83.17v1.912h1.424
			c0.342,0,0.591-0.081,0.748-0.244c0.157-0.162,0.236-0.408,0.236-0.735c0-0.328-0.084-0.565-0.252-0.713
			C85.158,1.722,84.896,1.648,84.538,1.648z M84.602,4.097H83.17v2h1.472c0.363,0,0.639-0.076,0.828-0.229
			c0.189-0.151,0.284-0.42,0.284-0.804c0-0.202-0.039-0.373-0.116-0.512s-0.18-0.237-0.308-0.296
			C85.096,4.15,84.853,4.097,84.602,4.097z"/>
		<path fill="#4D4D4D" d="M90.202,3.849v2.048c0.016,0.197,0.17,0.314,0.464,0.353l-0.024,0.472c-0.421,0-0.738-0.106-0.952-0.32
			c-0.479,0.214-0.96,0.32-1.439,0.32c-0.368,0-0.648-0.104-0.84-0.312c-0.192-0.208-0.288-0.506-0.288-0.896
			s0.099-0.676,0.296-0.86c0.197-0.184,0.507-0.297,0.928-0.34l1.256-0.12V3.849c0-0.272-0.059-0.467-0.176-0.584
			s-0.277-0.176-0.48-0.176c-0.427,0-0.869,0.026-1.327,0.08L87.37,3.192l-0.024-0.456c0.587-0.117,1.106-0.176,1.56-0.176
			c0.454,0,0.783,0.104,0.988,0.312S90.202,3.406,90.202,3.849z M87.737,5.48c0,0.491,0.203,0.736,0.608,0.736
			c0.362,0,0.72-0.062,1.072-0.185l0.184-0.063v-1.32l-1.184,0.112c-0.24,0.021-0.414,0.091-0.521,0.208S87.737,5.257,87.737,5.48z"
			/>
		<path fill="#4D4D4D" d="M92.642,3.097c-0.581,0-0.872,0.203-0.872,0.608c0,0.187,0.066,0.318,0.2,0.396
			c0.133,0.077,0.438,0.157,0.912,0.24s0.811,0.198,1.008,0.348s0.296,0.43,0.296,0.84c0,0.411-0.132,0.712-0.396,0.904
			c-0.265,0.192-0.649,0.288-1.156,0.288c-0.331,0-0.721-0.037-1.168-0.112l-0.24-0.04l0.032-0.52
			c0.607,0.091,1.066,0.136,1.376,0.136c0.309,0,0.545-0.049,0.708-0.147c0.162-0.099,0.244-0.265,0.244-0.496
			c0-0.232-0.069-0.39-0.208-0.473c-0.139-0.082-0.443-0.161-0.912-0.235c-0.47-0.075-0.803-0.185-1-0.328
			c-0.197-0.145-0.296-0.411-0.296-0.8c0-0.39,0.137-0.678,0.412-0.864c0.274-0.187,0.617-0.28,1.027-0.28
			c0.325,0,0.733,0.037,1.225,0.112l0.224,0.04l-0.016,0.512C93.449,3.14,92.982,3.097,92.642,3.097z"/>
		<path fill="#4D4D4D" d="M95.105,1.736V1.041h0.6v0.695H95.105z M95.105,6.641v-4h0.6v4H95.105z"/>
		<path fill="#4D4D4D" d="M98.113,3.097c-0.581,0-0.872,0.203-0.872,0.608c0,0.187,0.066,0.318,0.2,0.396
			c0.133,0.077,0.438,0.157,0.912,0.24s0.811,0.198,1.008,0.348s0.296,0.43,0.296,0.84c0,0.411-0.132,0.712-0.396,0.904
			c-0.265,0.192-0.649,0.288-1.156,0.288c-0.331,0-0.721-0.037-1.168-0.112l-0.24-0.04l0.032-0.52
			c0.607,0.091,1.066,0.136,1.376,0.136c0.309,0,0.545-0.049,0.708-0.147c0.162-0.099,0.244-0.265,0.244-0.496
			c0-0.232-0.069-0.39-0.208-0.473c-0.139-0.082-0.443-0.161-0.912-0.235c-0.47-0.075-0.803-0.185-1-0.328
			c-0.197-0.145-0.296-0.411-0.296-0.8c0-0.39,0.137-0.678,0.412-0.864c0.274-0.187,0.617-0.28,1.027-0.28
			c0.325,0,0.733,0.037,1.225,0.112l0.224,0.04l-0.016,0.512C98.921,3.14,98.454,3.097,98.113,3.097z"/>
		<path fill="#4D4D4D" d="M100.217,2.641h0.6l0.809,3.48h0.128l0.952-3.4h0.624l0.951,3.4h0.137l0.8-3.48h0.6l-0.951,4h-1
			l-0.849-3.128l-0.848,3.128h-1L100.217,2.641z"/>
		<path fill="#4D4D4D" d="M109.32,6.145l0.232-0.023l0.016,0.472c-0.608,0.085-1.128,0.128-1.56,0.128
			c-0.576,0-0.984-0.167-1.225-0.5s-0.359-0.853-0.359-1.556c0-1.403,0.557-2.104,1.672-2.104c0.538,0,0.941,0.15,1.208,0.452
			s0.399,0.774,0.399,1.42l-0.031,0.456h-2.641c0,0.442,0.08,0.771,0.24,0.984c0.16,0.213,0.438,0.319,0.836,0.319
			S108.909,6.177,109.32,6.145z M109.104,4.408c0-0.49-0.079-0.837-0.236-1.04c-0.157-0.202-0.413-0.304-0.768-0.304
			s-0.621,0.106-0.8,0.32c-0.179,0.213-0.271,0.555-0.276,1.023H109.104z"/>
		<path fill="#4D4D4D" d="M110.641,6.641v-4h0.592v0.544c0.464-0.32,0.952-0.53,1.464-0.632V3.16c-0.224,0.043-0.457,0.109-0.7,0.2
			c-0.242,0.091-0.428,0.171-0.556,0.24l-0.2,0.104v2.936H110.641z"/>
		<path fill="#4D4D4D" d="M115.48,3.16h-1.272v1.912c0,0.459,0.033,0.761,0.1,0.904c0.067,0.145,0.226,0.216,0.477,0.216
			l0.712-0.048l0.04,0.496c-0.357,0.059-0.63,0.088-0.816,0.088c-0.416,0-0.704-0.102-0.863-0.304c-0.16-0.203-0.24-0.59-0.24-1.16
			V3.16h-0.568v-0.52h0.568V1.417h0.592v1.224h1.272V3.16z"/>
		<path fill="#4D4D4D" d="M117.943,4.721V4.16h2.424v0.561H117.943z"/>
		<path fill="#4D4D4D" d="M123.343,1.104h2.009c0.549,0,0.961,0.113,1.235,0.34s0.412,0.583,0.412,1.068
			c0,0.347-0.06,0.617-0.18,0.812c-0.12,0.195-0.298,0.349-0.532,0.46c0.587,0.203,0.88,0.638,0.88,1.305
			c0,0.555-0.146,0.952-0.439,1.191c-0.294,0.24-0.718,0.36-1.272,0.36h-2.112V1.104z M125.327,1.648h-1.368v1.912h1.424
			c0.342,0,0.591-0.081,0.748-0.244c0.157-0.162,0.236-0.408,0.236-0.735c0-0.328-0.084-0.565-0.252-0.713
			C125.947,1.722,125.685,1.648,125.327,1.648z M125.391,4.097h-1.432v2h1.472c0.363,0,0.639-0.076,0.828-0.229
			c0.189-0.151,0.284-0.42,0.284-0.804c0-0.202-0.039-0.373-0.116-0.512s-0.18-0.237-0.308-0.296
			C125.885,4.15,125.642,4.097,125.391,4.097z"/>
		<path fill="#4D4D4D" d="M130.991,3.849v2.048c0.016,0.197,0.17,0.314,0.464,0.353l-0.024,0.472c-0.421,0-0.738-0.106-0.952-0.32
			c-0.479,0.214-0.96,0.32-1.439,0.32c-0.368,0-0.648-0.104-0.84-0.312c-0.192-0.208-0.288-0.506-0.288-0.896
			s0.099-0.676,0.296-0.86c0.197-0.184,0.507-0.297,0.928-0.34l1.256-0.12V3.849c0-0.272-0.059-0.467-0.176-0.584
			s-0.277-0.176-0.48-0.176c-0.427,0-0.869,0.026-1.327,0.08l-0.248,0.023l-0.024-0.456c0.587-0.117,1.106-0.176,1.56-0.176
			c0.454,0,0.783,0.104,0.988,0.312S130.991,3.406,130.991,3.849z M128.526,5.48c0,0.491,0.203,0.736,0.608,0.736
			c0.362,0,0.72-0.062,1.072-0.185l0.184-0.063v-1.32l-1.184,0.112c-0.24,0.021-0.414,0.091-0.521,0.208S128.526,5.257,128.526,5.48
			z"/>
		<path fill="#4D4D4D" d="M133.431,3.097c-0.581,0-0.872,0.203-0.872,0.608c0,0.187,0.066,0.318,0.2,0.396
			c0.133,0.077,0.438,0.157,0.912,0.24s0.811,0.198,1.008,0.348s0.296,0.43,0.296,0.84c0,0.411-0.132,0.712-0.396,0.904
			c-0.265,0.192-0.649,0.288-1.156,0.288c-0.331,0-0.721-0.037-1.168-0.112l-0.24-0.04l0.032-0.52
			c0.607,0.091,1.066,0.136,1.376,0.136c0.309,0,0.545-0.049,0.708-0.147c0.162-0.099,0.244-0.265,0.244-0.496
			c0-0.232-0.069-0.39-0.208-0.473c-0.139-0.082-0.443-0.161-0.912-0.235c-0.47-0.075-0.803-0.185-1-0.328
			c-0.197-0.145-0.296-0.411-0.296-0.8c0-0.39,0.137-0.678,0.412-0.864c0.274-0.187,0.617-0.28,1.027-0.28
			c0.325,0,0.733,0.037,1.225,0.112l0.224,0.04l-0.016,0.512C134.238,3.14,133.771,3.097,133.431,3.097z"/>
		<path fill="#4D4D4D" d="M135.895,1.736V1.041h0.6v0.695H135.895z M135.895,6.641v-4h0.6v4H135.895z"/>
		<path fill="#4D4D4D" d="M138.902,3.097c-0.581,0-0.872,0.203-0.872,0.608c0,0.187,0.066,0.318,0.2,0.396
			c0.133,0.077,0.438,0.157,0.912,0.24s0.811,0.198,1.008,0.348s0.296,0.43,0.296,0.84c0,0.411-0.132,0.712-0.396,0.904
			c-0.265,0.192-0.649,0.288-1.156,0.288c-0.331,0-0.721-0.037-1.168-0.112l-0.24-0.04l0.032-0.52
			c0.607,0.091,1.066,0.136,1.376,0.136c0.309,0,0.545-0.049,0.708-0.147c0.162-0.099,0.244-0.265,0.244-0.496
			c0-0.232-0.069-0.39-0.208-0.473c-0.139-0.082-0.443-0.161-0.912-0.235c-0.47-0.075-0.803-0.185-1-0.328
			c-0.197-0.145-0.296-0.411-0.296-0.8c0-0.39,0.137-0.678,0.412-0.864c0.274-0.187,0.617-0.28,1.027-0.28
			c0.325,0,0.733,0.037,1.225,0.112l0.224,0.04l-0.016,0.512C139.71,3.14,139.243,3.097,138.902,3.097z"/>
		<path fill="#4D4D4D" d="M141.366,8.417V2.641h0.592v0.288c0.405-0.245,0.806-0.368,1.2-0.368c0.507,0,0.874,0.161,1.104,0.484
			c0.229,0.322,0.345,0.854,0.345,1.596s-0.135,1.273-0.404,1.596c-0.27,0.323-0.716,0.484-1.34,0.484
			c-0.325,0-0.624-0.029-0.896-0.088v1.784H141.366z M143.07,3.097c-0.16,0-0.332,0.026-0.517,0.08
			c-0.184,0.054-0.329,0.106-0.436,0.16l-0.152,0.08v2.695c0.379,0.059,0.667,0.088,0.864,0.088c0.432,0,0.734-0.122,0.908-0.367
			c0.173-0.246,0.26-0.646,0.26-1.2s-0.079-0.949-0.236-1.185C143.604,3.214,143.374,3.097,143.07,3.097z"/>
		<path fill="#4D4D4D" d="M145.582,6.641v-4h0.592v0.544c0.464-0.32,0.952-0.53,1.464-0.632V3.16c-0.224,0.043-0.457,0.109-0.7,0.2
			c-0.242,0.091-0.428,0.171-0.556,0.24l-0.2,0.104v2.936H145.582z"/>
		<path fill="#4D4D4D" d="M150.989,6.145l0.232-0.023l0.016,0.472c-0.608,0.085-1.128,0.128-1.56,0.128
			c-0.576,0-0.984-0.167-1.225-0.5s-0.359-0.853-0.359-1.556c0-1.403,0.557-2.104,1.672-2.104c0.538,0,0.941,0.15,1.208,0.452
			s0.399,0.774,0.399,1.42l-0.031,0.456h-2.641c0,0.442,0.08,0.771,0.24,0.984c0.16,0.213,0.438,0.319,0.836,0.319
			S150.578,6.177,150.989,6.145z M150.773,4.408c0-0.49-0.079-0.837-0.236-1.04c-0.157-0.202-0.413-0.304-0.768-0.304
			s-0.621,0.106-0.8,0.32c-0.179,0.213-0.271,0.555-0.276,1.023H150.773z"/>
		<path fill="#4D4D4D" d="M152.31,1.736V1.041h0.6v0.695H152.31z M152.31,6.641v-4h0.6v4H152.31z"/>
		<path fill="#4D4D4D" d="M155.317,3.097c-0.581,0-0.872,0.203-0.872,0.608c0,0.187,0.066,0.318,0.2,0.396
			c0.133,0.077,0.438,0.157,0.912,0.24s0.811,0.198,1.008,0.348s0.296,0.43,0.296,0.84c0,0.411-0.132,0.712-0.396,0.904
			c-0.265,0.192-0.649,0.288-1.156,0.288c-0.331,0-0.721-0.037-1.168-0.112l-0.24-0.04l0.032-0.52
			c0.607,0.091,1.066,0.136,1.376,0.136c0.309,0,0.545-0.049,0.708-0.147c0.162-0.099,0.244-0.265,0.244-0.496
			c0-0.232-0.069-0.39-0.208-0.473c-0.139-0.082-0.443-0.161-0.912-0.235c-0.47-0.075-0.803-0.185-1-0.328
			c-0.197-0.145-0.296-0.411-0.296-0.8c0-0.39,0.137-0.678,0.412-0.864c0.274-0.187,0.617-0.28,1.027-0.28
			c0.325,0,0.733,0.037,1.225,0.112l0.224,0.04l-0.016,0.512C156.125,3.14,155.658,3.097,155.317,3.097z"/>
		<path fill="#4D4D4D" d="M65.61,20.305h2.009c0.549,0,0.961,0.113,1.235,0.34s0.412,0.583,0.412,1.068
			c0,0.347-0.06,0.617-0.18,0.812c-0.12,0.195-0.298,0.349-0.532,0.46c0.587,0.203,0.88,0.638,0.88,1.305
			c0,0.555-0.146,0.952-0.439,1.191c-0.294,0.24-0.718,0.36-1.272,0.36H65.61V20.305z M67.595,20.849h-1.368v1.912h1.424
			c0.342,0,0.591-0.081,0.748-0.244c0.157-0.162,0.236-0.408,0.236-0.735c0-0.328-0.084-0.565-0.252-0.713
			C68.215,20.922,67.952,20.849,67.595,20.849z M67.658,23.297h-1.432v2h1.472c0.363,0,0.639-0.076,0.828-0.229
			c0.189-0.151,0.284-0.42,0.284-0.804c0-0.202-0.039-0.373-0.116-0.512s-0.18-0.237-0.308-0.296
			C68.152,23.351,67.909,23.297,67.658,23.297z"/>
		<path fill="#4D4D4D" d="M73.154,25.345l0.232-0.023l0.016,0.472c-0.608,0.085-1.128,0.128-1.56,0.128
			c-0.576,0-0.984-0.167-1.225-0.5s-0.359-0.853-0.359-1.556c0-1.403,0.557-2.104,1.672-2.104c0.538,0,0.941,0.15,1.208,0.452
			s0.399,0.774,0.399,1.42l-0.031,0.456h-2.641c0,0.442,0.08,0.771,0.24,0.984c0.16,0.213,0.438,0.319,0.836,0.319
			S72.743,25.377,73.154,25.345z M72.938,23.608c0-0.49-0.079-0.837-0.236-1.04c-0.157-0.202-0.413-0.304-0.768-0.304
			s-0.621,0.106-0.8,0.32c-0.179,0.213-0.271,0.555-0.276,1.023H72.938z"/>
		<path fill="#4D4D4D" d="M74.234,22.377v-0.536h2.968v0.536l-2.239,2.928h2.239v0.536h-2.968v-0.536l2.24-2.928H74.234z"/>
		<path fill="#4D4D4D" d="M80.61,21.841h0.6v4h-0.6v-0.28c-0.4,0.24-0.795,0.36-1.185,0.36c-0.544,0-0.905-0.142-1.084-0.424
			c-0.179-0.283-0.268-0.806-0.268-1.568v-2.088h0.6v2.08c0,0.581,0.051,0.971,0.152,1.168s0.33,0.296,0.688,0.296
			c0.177,0,0.355-0.025,0.536-0.076c0.182-0.051,0.32-0.1,0.416-0.147l0.145-0.072V21.841z"/>
		<path fill="#4D4D4D" d="M83.906,27.721c-0.64,0-1.087-0.087-1.34-0.26c-0.254-0.174-0.38-0.489-0.38-0.948
			c0-0.219,0.048-0.396,0.144-0.532c0.096-0.136,0.259-0.289,0.488-0.46c-0.149-0.101-0.225-0.285-0.225-0.552
			c0-0.091,0.067-0.259,0.2-0.504l0.072-0.128c-0.422-0.192-0.632-0.595-0.632-1.208c0-0.912,0.498-1.368,1.496-1.368
			c0.256,0,0.493,0.026,0.712,0.08l0.12,0.024l1.184-0.032v0.512l-0.76-0.016c0.176,0.176,0.264,0.442,0.264,0.8
			c0,0.501-0.124,0.852-0.372,1.052s-0.639,0.3-1.172,0.3c-0.144,0-0.274-0.011-0.392-0.031c-0.097,0.234-0.145,0.387-0.145,0.456
			c0,0.165,0.051,0.268,0.152,0.308s0.408,0.06,0.92,0.06s0.88,0.08,1.104,0.24c0.225,0.16,0.337,0.472,0.337,0.937
			C85.683,27.297,85.09,27.721,83.906,27.721z M82.778,26.465c0,0.282,0.078,0.479,0.235,0.588s0.448,0.164,0.872,0.164
			c0.425,0,0.729-0.059,0.912-0.176c0.185-0.117,0.276-0.313,0.276-0.588c0-0.275-0.066-0.452-0.2-0.532
			c-0.133-0.08-0.395-0.12-0.784-0.12l-0.863-0.04c-0.177,0.128-0.295,0.24-0.356,0.336S82.778,26.315,82.778,26.465z
			 M82.834,23.129c0,0.314,0.07,0.539,0.212,0.672c0.142,0.134,0.375,0.2,0.7,0.2s0.558-0.066,0.696-0.2
			c0.139-0.133,0.208-0.358,0.208-0.676s-0.069-0.543-0.208-0.676c-0.139-0.134-0.371-0.2-0.696-0.2s-0.559,0.067-0.7,0.204
			C82.904,22.589,82.834,22.814,82.834,23.129z"/>
		<path fill="#4D4D4D" d="M87.73,22.297c-0.581,0-0.872,0.203-0.872,0.608c0,0.187,0.066,0.318,0.2,0.396
			c0.133,0.077,0.438,0.157,0.912,0.24s0.811,0.198,1.008,0.348s0.296,0.43,0.296,0.84c0,0.411-0.132,0.712-0.396,0.904
			c-0.265,0.192-0.649,0.288-1.156,0.288c-0.331,0-0.721-0.037-1.168-0.112l-0.24-0.04l0.032-0.52
			c0.607,0.091,1.066,0.136,1.376,0.136c0.309,0,0.545-0.049,0.708-0.147c0.162-0.099,0.244-0.265,0.244-0.496
			c0-0.232-0.069-0.39-0.208-0.473c-0.139-0.082-0.443-0.161-0.912-0.235c-0.47-0.075-0.803-0.185-1-0.328
			c-0.197-0.145-0.296-0.411-0.296-0.8c0-0.39,0.137-0.678,0.412-0.864c0.274-0.187,0.617-0.28,1.027-0.28
			c0.325,0,0.733,0.037,1.225,0.112l0.224,0.04l-0.016,0.512C88.538,22.34,88.071,22.297,87.73,22.297z"/>
		<path fill="#4D4D4D" d="M89.763,21.841h0.64l0.937,3.48h0.296l0.968-3.48h0.616l-1.128,4h-1.2L89.763,21.841z"/>
		<path fill="#4D4D4D" d="M96.634,25.345l0.232-0.023l0.016,0.472c-0.608,0.085-1.128,0.128-1.56,0.128
			c-0.576,0-0.984-0.167-1.225-0.5s-0.359-0.853-0.359-1.556c0-1.403,0.557-2.104,1.672-2.104c0.538,0,0.941,0.15,1.208,0.452
			s0.399,0.774,0.399,1.42l-0.031,0.456h-2.641c0,0.442,0.08,0.771,0.24,0.984c0.16,0.213,0.438,0.319,0.836,0.319
			S96.223,25.377,96.634,25.345z M96.418,23.608c0-0.49-0.079-0.837-0.236-1.04c-0.157-0.202-0.413-0.304-0.768-0.304
			s-0.621,0.106-0.8,0.32c-0.179,0.213-0.271,0.555-0.276,1.023H96.418z"/>
		<path fill="#4D4D4D" d="M97.954,25.841v-4h0.592v0.544c0.464-0.32,0.952-0.53,1.464-0.632v0.607c-0.224,0.043-0.457,0.109-0.7,0.2
			c-0.242,0.091-0.428,0.171-0.556,0.24l-0.2,0.104v2.936H97.954z"/>
		<path fill="#4D4D4D" d="M101.321,25.841h-0.6v-5.744h0.6v1.968c0.427-0.202,0.838-0.304,1.232-0.304
			c0.533,0,0.892,0.145,1.076,0.432c0.184,0.288,0.275,0.801,0.275,1.536v2.112h-0.6v-2.096c0-0.555-0.055-0.935-0.164-1.141
			c-0.109-0.205-0.34-0.308-0.692-0.308c-0.336,0-0.661,0.062-0.976,0.184l-0.152,0.057V25.841z"/>
		<path fill="#4D4D4D" d="M107.842,23.049v2.048c0.016,0.197,0.17,0.314,0.464,0.353l-0.024,0.472c-0.421,0-0.738-0.106-0.952-0.32
			c-0.479,0.214-0.96,0.32-1.439,0.32c-0.368,0-0.648-0.104-0.84-0.312c-0.192-0.208-0.288-0.506-0.288-0.896
			s0.099-0.676,0.296-0.86c0.197-0.184,0.507-0.297,0.928-0.34l1.256-0.12v-0.344c0-0.272-0.059-0.467-0.176-0.584
			s-0.277-0.176-0.48-0.176c-0.427,0-0.869,0.026-1.327,0.08l-0.248,0.023l-0.024-0.456c0.587-0.117,1.106-0.176,1.56-0.176
			c0.454,0,0.783,0.104,0.988,0.312S107.842,22.606,107.842,23.049z M105.281,20.873v-0.721h0.576v0.721H105.281z M105.377,24.681
			c0,0.491,0.203,0.736,0.608,0.736c0.362,0,0.72-0.062,1.072-0.185l0.184-0.063v-1.32l-1.184,0.112
			c-0.24,0.021-0.414,0.091-0.521,0.208S105.377,24.457,105.377,24.681z M106.882,20.873v-0.721h0.584v0.721H106.882z"/>
		<path fill="#4D4D4D" d="M109.073,25.841v-5.744h0.6v5.744H109.073z"/>
		<path fill="#4D4D4D" d="M112.945,22.36h-1.272v1.912c0,0.459,0.033,0.761,0.1,0.904c0.067,0.145,0.226,0.216,0.477,0.216
			l0.712-0.048l0.04,0.496c-0.357,0.059-0.63,0.088-0.816,0.088c-0.416,0-0.704-0.102-0.863-0.304c-0.16-0.203-0.24-0.59-0.24-1.16
			V22.36h-0.568v-0.52h0.568v-1.224h0.592v1.224h1.272V22.36z"/>
		<path fill="#4D4D4D" d="M114.28,25.841h-0.6v-4h0.592v0.28c0.432-0.24,0.846-0.36,1.24-0.36c0.533,0,0.892,0.145,1.076,0.432
			c0.184,0.288,0.275,0.801,0.275,1.536v2.112h-0.592v-2.096c0-0.555-0.055-0.935-0.164-1.141c-0.109-0.205-0.343-0.308-0.7-0.308
			c-0.171,0-0.351,0.025-0.54,0.076s-0.334,0.1-0.436,0.147l-0.152,0.072V25.841z"/>
		<path fill="#4D4D4D" d="M117.977,20.937v-0.695h0.6v0.695H117.977z M117.977,25.841v-4h0.6v4H117.977z"/>
		<path fill="#4D4D4D" d="M120.984,22.297c-0.581,0-0.872,0.203-0.872,0.608c0,0.187,0.066,0.318,0.2,0.396
			c0.133,0.077,0.438,0.157,0.912,0.24s0.811,0.198,1.008,0.348s0.296,0.43,0.296,0.84c0,0.411-0.132,0.712-0.396,0.904
			c-0.265,0.192-0.649,0.288-1.156,0.288c-0.331,0-0.721-0.037-1.168-0.112l-0.24-0.04l0.032-0.52
			c0.607,0.091,1.066,0.136,1.376,0.136c0.309,0,0.545-0.049,0.708-0.147c0.162-0.099,0.244-0.265,0.244-0.496
			c0-0.232-0.069-0.39-0.208-0.473c-0.139-0.082-0.443-0.161-0.912-0.235c-0.47-0.075-0.803-0.185-1-0.328
			c-0.197-0.145-0.296-0.411-0.296-0.8c0-0.39,0.137-0.678,0.412-0.864c0.274-0.187,0.617-0.28,1.027-0.28
			c0.325,0,0.733,0.037,1.225,0.112l0.224,0.04l-0.016,0.512C121.792,22.34,121.325,22.297,120.984,22.297z"/>
	</g>
</g>
<g>
	<g>
		<path fill="#4D4D4D" d="M0.979,81.648v-0.544h3.601v0.72l-2.896,4.112v0.16h2.896v0.552H0.979v-0.712l2.889-4.112v-0.176H0.979z"
			/>
		<path fill="#4D4D4D" d="M8.139,86.145l0.232-0.023l0.016,0.472c-0.608,0.085-1.128,0.128-1.56,0.128
			c-0.576,0-0.984-0.167-1.225-0.5s-0.359-0.853-0.359-1.556c0-1.403,0.557-2.104,1.672-2.104c0.538,0,0.941,0.15,1.208,0.452
			s0.399,0.774,0.399,1.42l-0.031,0.456H5.851c0,0.442,0.08,0.771,0.24,0.984c0.16,0.213,0.438,0.319,0.836,0.319
			S7.728,86.177,8.139,86.145z M7.923,84.408c0-0.49-0.079-0.837-0.236-1.04c-0.157-0.202-0.413-0.304-0.768-0.304
			s-0.621,0.106-0.8,0.32c-0.179,0.213-0.271,0.555-0.276,1.023H7.923z"/>
		<path fill="#4D4D4D" d="M9.459,81.736v-0.695h0.6v0.695H9.459z M9.459,86.641v-4h0.6v4H9.459z"/>
		<path fill="#4D4D4D" d="M13.283,83.16h-1.272v1.912c0,0.459,0.033,0.761,0.1,0.904c0.067,0.145,0.226,0.216,0.477,0.216
			l0.712-0.048l0.04,0.496c-0.357,0.059-0.63,0.088-0.816,0.088c-0.416,0-0.704-0.102-0.863-0.304c-0.16-0.203-0.24-0.59-0.24-1.16
			V83.16h-0.568v-0.52h0.568v-1.224h0.592v1.224h1.272V83.16z"/>
		<path fill="#4D4D4D" d="M13.69,82.641h0.6l0.809,3.48h0.128l0.952-3.4h0.624l0.951,3.4h0.137l0.8-3.48h0.6l-0.951,4h-1
			l-0.849-3.128l-0.848,3.128h-1L13.69,82.641z"/>
		<path fill="#4D4D4D" d="M22.794,86.145l0.232-0.023l0.016,0.472c-0.608,0.085-1.128,0.128-1.56,0.128
			c-0.576,0-0.984-0.167-1.225-0.5s-0.359-0.853-0.359-1.556c0-1.403,0.557-2.104,1.672-2.104c0.538,0,0.941,0.15,1.208,0.452
			s0.399,0.774,0.399,1.42l-0.031,0.456h-2.641c0,0.442,0.08,0.771,0.24,0.984c0.16,0.213,0.438,0.319,0.836,0.319
			S22.383,86.177,22.794,86.145z M22.578,84.408c0-0.49-0.079-0.837-0.236-1.04c-0.157-0.202-0.413-0.304-0.768-0.304
			s-0.621,0.106-0.8,0.32c-0.179,0.213-0.271,0.555-0.276,1.023H22.578z"/>
		<path fill="#4D4D4D" d="M24.114,86.641v-4h0.592v0.544c0.464-0.32,0.952-0.53,1.464-0.632v0.607c-0.224,0.043-0.457,0.109-0.7,0.2
			c-0.242,0.091-0.428,0.171-0.556,0.24l-0.2,0.104v2.936H24.114z"/>
		<path fill="#4D4D4D" d="M28.954,83.16h-1.272v1.912c0,0.459,0.033,0.761,0.1,0.904c0.067,0.145,0.226,0.216,0.477,0.216
			l0.712-0.048l0.04,0.496c-0.357,0.059-0.63,0.088-0.816,0.088c-0.416,0-0.704-0.102-0.863-0.304c-0.16-0.203-0.24-0.59-0.24-1.16
			V83.16h-0.568v-0.52h0.568v-1.224h0.592v1.224h1.272V83.16z"/>
		<path fill="#4D4D4D" d="M33.145,84.169v-0.553h3.456v0.553H33.145z M33.145,85.648v-0.552h3.456v0.552H33.145z"/>
		<path fill="#4D4D4D" d="M68.329,83.849v2.048c0.016,0.197,0.17,0.314,0.464,0.353l-0.024,0.472c-0.421,0-0.738-0.106-0.952-0.32
			c-0.479,0.214-0.96,0.32-1.439,0.32c-0.368,0-0.648-0.104-0.84-0.312c-0.192-0.208-0.288-0.506-0.288-0.896
			s0.099-0.676,0.296-0.86c0.197-0.184,0.507-0.297,0.928-0.34l1.256-0.12v-0.344c0-0.272-0.059-0.467-0.176-0.584
			s-0.277-0.176-0.48-0.176c-0.427,0-0.869,0.026-1.327,0.08l-0.248,0.023l-0.024-0.456c0.587-0.117,1.106-0.176,1.56-0.176
			c0.454,0,0.783,0.104,0.988,0.312S68.329,83.406,68.329,83.849z M65.864,85.48c0,0.491,0.203,0.736,0.608,0.736
			c0.362,0,0.72-0.062,1.072-0.185l0.184-0.063v-1.32l-1.184,0.112c-0.24,0.021-0.414,0.091-0.521,0.208S65.864,85.257,65.864,85.48
			z"/>
		<path fill="#4D4D4D" d="M70.112,86.641h-0.6v-5.744h0.6v3.393l0.624-0.032l1.145-1.616h0.68l-1.304,1.84l1.359,2.16h-0.68
			l-1.192-1.856l-0.632,0.024V86.641z"/>
		<path fill="#4D4D4D" d="M75.417,83.16h-1.272v1.912c0,0.459,0.033,0.761,0.1,0.904c0.067,0.145,0.226,0.216,0.477,0.216
			l0.712-0.048l0.04,0.496c-0.357,0.059-0.63,0.088-0.816,0.088c-0.416,0-0.704-0.102-0.863-0.304c-0.16-0.203-0.24-0.59-0.24-1.16
			V83.16h-0.568v-0.52h0.568v-1.224h0.592v1.224h1.272V83.16z"/>
		<path fill="#4D4D4D" d="M78.648,82.641h0.6v4h-0.6v-0.28c-0.4,0.24-0.795,0.36-1.185,0.36c-0.544,0-0.905-0.142-1.084-0.424
			c-0.179-0.283-0.268-0.806-0.268-1.568v-2.088h0.6v2.08c0,0.581,0.051,0.971,0.152,1.168s0.33,0.296,0.688,0.296
			c0.177,0,0.355-0.025,0.536-0.076c0.182-0.051,0.32-0.1,0.416-0.147l0.145-0.072V82.641z"/>
		<path fill="#4D4D4D" d="M83.12,86.145l0.232-0.023l0.016,0.472c-0.608,0.085-1.128,0.128-1.56,0.128
			c-0.576,0-0.984-0.167-1.225-0.5s-0.359-0.853-0.359-1.556c0-1.403,0.557-2.104,1.672-2.104c0.538,0,0.941,0.15,1.208,0.452
			s0.399,0.774,0.399,1.42l-0.031,0.456h-2.641c0,0.442,0.08,0.771,0.24,0.984c0.16,0.213,0.438,0.319,0.836,0.319
			S82.709,86.177,83.12,86.145z M82.904,84.408c0-0.49-0.079-0.837-0.236-1.04c-0.157-0.202-0.413-0.304-0.768-0.304
			s-0.621,0.106-0.8,0.32c-0.179,0.213-0.271,0.555-0.276,1.023H82.904z"/>
		<path fill="#4D4D4D" d="M84.488,86.641v-5.744h0.6v5.744H84.488z"/>
		<path fill="#4D4D4D" d="M86.336,86.641v-5.744h0.6v5.744H86.336z"/>
		<path fill="#4D4D4D" d="M90.855,86.145l0.232-0.023l0.016,0.472c-0.608,0.085-1.128,0.128-1.56,0.128
			c-0.576,0-0.984-0.167-1.225-0.5s-0.359-0.853-0.359-1.556c0-1.403,0.557-2.104,1.672-2.104c0.538,0,0.941,0.15,1.208,0.452
			s0.399,0.774,0.399,1.42l-0.031,0.456h-2.641c0,0.442,0.08,0.771,0.24,0.984c0.16,0.213,0.438,0.319,0.836,0.319
			S90.444,86.177,90.855,86.145z M90.64,84.408c0-0.49-0.079-0.837-0.236-1.04c-0.157-0.202-0.413-0.304-0.768-0.304
			s-0.621,0.106-0.8,0.32c-0.179,0.213-0.271,0.555-0.276,1.023H90.64z"/>
		<path fill="#4D4D4D" d="M92.176,86.641v-4h0.592v0.544c0.464-0.32,0.952-0.53,1.464-0.632v0.607c-0.224,0.043-0.457,0.109-0.7,0.2
			c-0.242,0.091-0.428,0.171-0.556,0.24l-0.2,0.104v2.936H92.176z"/>
		<path fill="#4D4D4D" d="M97.423,86.641h-0.616v-5.536h0.616v2.576l0.912-0.032l1.416-2.544h0.704l-1.584,2.784l1.672,2.752h-0.728
			l-1.473-2.448l-0.92,0.032V86.641z"/>
		<path fill="#4D4D4D" d="M103.647,82.641h0.6v4h-0.6v-0.28c-0.4,0.24-0.795,0.36-1.185,0.36c-0.544,0-0.905-0.142-1.084-0.424
			c-0.179-0.283-0.268-0.806-0.268-1.568v-2.088h0.6v2.08c0,0.581,0.051,0.971,0.152,1.168s0.33,0.296,0.688,0.296
			c0.177,0,0.355-0.025,0.536-0.076c0.182-0.051,0.32-0.1,0.416-0.147l0.145-0.072V82.641z"/>
		<path fill="#4D4D4D" d="M105.399,86.641v-4h0.592v0.544c0.464-0.32,0.952-0.53,1.464-0.632v0.607
			c-0.224,0.043-0.457,0.109-0.7,0.2c-0.242,0.091-0.428,0.171-0.556,0.24l-0.2,0.104v2.936H105.399z"/>
		<path fill="#4D4D4D" d="M109.423,83.097c-0.581,0-0.872,0.203-0.872,0.608c0,0.187,0.066,0.318,0.2,0.396
			c0.133,0.077,0.438,0.157,0.912,0.24s0.811,0.198,1.008,0.348s0.296,0.43,0.296,0.84c0,0.411-0.132,0.712-0.396,0.904
			c-0.265,0.192-0.649,0.288-1.156,0.288c-0.331,0-0.721-0.037-1.168-0.112l-0.24-0.04l0.032-0.52
			c0.607,0.091,1.066,0.136,1.376,0.136c0.309,0,0.545-0.049,0.708-0.147c0.162-0.099,0.244-0.265,0.244-0.496
			c0-0.232-0.069-0.39-0.208-0.473c-0.139-0.082-0.443-0.161-0.912-0.235c-0.47-0.075-0.803-0.185-1-0.328
			c-0.197-0.145-0.296-0.411-0.296-0.8c0-0.39,0.137-0.678,0.412-0.864c0.274-0.187,0.617-0.28,1.027-0.28
			c0.325,0,0.733,0.037,1.225,0.112l0.224,0.04l-0.016,0.512C110.23,83.14,109.764,83.097,109.423,83.097z"/>
		<path fill="#4D4D4D" d="M117.902,83.913c0,0.986-0.157,1.701-0.472,2.144c-0.315,0.442-0.887,0.664-1.717,0.664
			c-0.829,0-1.401-0.227-1.716-0.68c-0.314-0.454-0.472-1.167-0.472-2.141c0-0.973,0.16-1.695,0.479-2.168
			c0.32-0.472,0.889-0.708,1.704-0.708c0.816,0,1.386,0.235,1.708,0.704C117.741,82.198,117.902,82.926,117.902,83.913z
			 M114.158,83.896c0,0.811,0.106,1.394,0.32,1.748c0.213,0.354,0.625,0.532,1.235,0.532c0.611,0,1.021-0.174,1.232-0.521
			s0.316-0.928,0.316-1.743c0-0.816-0.109-1.411-0.328-1.784s-0.628-0.561-1.229-0.561c-0.6,0-1.008,0.186-1.224,0.557
			C114.267,82.495,114.158,83.086,114.158,83.896z"/>
		<path fill="#4D4D4D" d="M118.927,88.417v-5.776h0.592v0.288c0.405-0.245,0.806-0.368,1.2-0.368c0.507,0,0.874,0.161,1.104,0.484
			c0.229,0.322,0.345,0.854,0.345,1.596s-0.135,1.273-0.404,1.596c-0.27,0.323-0.716,0.484-1.34,0.484
			c-0.325,0-0.624-0.029-0.896-0.088v1.784H118.927z M120.631,83.097c-0.16,0-0.332,0.026-0.517,0.08
			c-0.184,0.054-0.329,0.106-0.436,0.16l-0.152,0.08v2.695c0.379,0.059,0.667,0.088,0.864,0.088c0.432,0,0.734-0.122,0.908-0.367
			c0.173-0.246,0.26-0.646,0.26-1.2s-0.079-0.949-0.236-1.185C121.165,83.214,120.935,83.097,120.631,83.097z"/>
		<path fill="#4D4D4D" d="M125.19,83.16h-1.272v1.912c0,0.459,0.033,0.761,0.1,0.904c0.067,0.145,0.226,0.216,0.477,0.216
			l0.712-0.048l0.04,0.496c-0.357,0.059-0.63,0.088-0.816,0.088c-0.416,0-0.704-0.102-0.863-0.304c-0.16-0.203-0.24-0.59-0.24-1.16
			V83.16h-0.568v-0.52h0.568v-1.224h0.592v1.224h1.272V83.16z"/>
		<path fill="#4D4D4D" d="M125.926,81.736v-0.695h0.6v0.695H125.926z M125.926,86.641v-4h0.6v4H125.926z"/>
		<path fill="#4D4D4D" d="M127.502,84.633c0-0.73,0.13-1.259,0.392-1.584s0.702-0.488,1.324-0.488c0.621,0,1.062,0.163,1.319,0.488
			c0.259,0.325,0.389,0.854,0.389,1.584s-0.123,1.261-0.368,1.592s-0.693,0.496-1.344,0.496c-0.651,0-1.099-0.165-1.345-0.496
			C127.624,85.894,127.502,85.363,127.502,84.633z M128.117,84.621c0,0.584,0.071,0.993,0.212,1.228
			c0.142,0.234,0.438,0.352,0.889,0.352c0.45,0,0.745-0.115,0.884-0.348c0.139-0.231,0.208-0.642,0.208-1.228
			c0-0.587-0.077-0.991-0.232-1.212c-0.154-0.222-0.441-0.332-0.859-0.332c-0.419,0-0.707,0.11-0.864,0.332
			C128.196,83.634,128.117,84.037,128.117,84.621z"/>
		<path fill="#4D4D4D" d="M132.501,86.641h-0.6v-4h0.592v0.28c0.432-0.24,0.846-0.36,1.24-0.36c0.533,0,0.892,0.145,1.076,0.432
			c0.184,0.288,0.275,0.801,0.275,1.536v2.112h-0.592v-2.096c0-0.555-0.055-0.935-0.164-1.141c-0.109-0.205-0.343-0.308-0.7-0.308
			c-0.171,0-0.351,0.025-0.54,0.076s-0.334,0.1-0.436,0.147l-0.152,0.072V86.641z"/>
		<path fill="#4D4D4D" d="M137.453,83.097c-0.581,0-0.872,0.203-0.872,0.608c0,0.187,0.066,0.318,0.2,0.396
			c0.133,0.077,0.438,0.157,0.912,0.24s0.811,0.198,1.008,0.348s0.296,0.43,0.296,0.84c0,0.411-0.132,0.712-0.396,0.904
			c-0.265,0.192-0.649,0.288-1.156,0.288c-0.331,0-0.721-0.037-1.168-0.112l-0.24-0.04l0.032-0.52
			c0.607,0.091,1.066,0.136,1.376,0.136c0.309,0,0.545-0.049,0.708-0.147c0.162-0.099,0.244-0.265,0.244-0.496
			c0-0.232-0.069-0.39-0.208-0.473c-0.139-0.082-0.443-0.161-0.912-0.235c-0.47-0.075-0.803-0.185-1-0.328
			c-0.197-0.145-0.296-0.411-0.296-0.8c0-0.39,0.137-0.678,0.412-0.864c0.274-0.187,0.617-0.28,1.027-0.28
			c0.325,0,0.733,0.037,1.225,0.112l0.224,0.04l-0.016,0.512C138.261,83.14,137.794,83.097,137.453,83.097z"/>
		<path fill="#4D4D4D" d="M141.413,82.561c0.176,0,0.475,0.032,0.896,0.096l0.192,0.024l-0.024,0.488
			c-0.427-0.048-0.741-0.072-0.943-0.072c-0.454,0-0.762,0.108-0.925,0.324c-0.162,0.216-0.243,0.616-0.243,1.2
			s0.075,0.99,0.228,1.22s0.468,0.344,0.948,0.344l0.943-0.072l0.024,0.496c-0.496,0.075-0.867,0.112-1.112,0.112
			c-0.624,0-1.055-0.16-1.292-0.48c-0.237-0.319-0.355-0.859-0.355-1.619c0-0.761,0.128-1.294,0.384-1.601
			S140.815,82.561,141.413,82.561z"/>
		<path fill="#4D4D4D" d="M144.005,86.641h-0.6v-5.744h0.6v1.968c0.427-0.202,0.838-0.304,1.232-0.304
			c0.533,0,0.892,0.145,1.076,0.432c0.184,0.288,0.275,0.801,0.275,1.536v2.112h-0.6v-2.096c0-0.555-0.055-0.935-0.164-1.141
			c-0.109-0.205-0.34-0.308-0.692-0.308c-0.336,0-0.661,0.062-0.976,0.184l-0.152,0.057V86.641z"/>
		<path fill="#4D4D4D" d="M150.421,86.145l0.232-0.023l0.016,0.472c-0.608,0.085-1.128,0.128-1.56,0.128
			c-0.576,0-0.984-0.167-1.225-0.5s-0.359-0.853-0.359-1.556c0-1.403,0.557-2.104,1.672-2.104c0.538,0,0.941,0.15,1.208,0.452
			s0.399,0.774,0.399,1.42l-0.031,0.456h-2.641c0,0.442,0.08,0.771,0.24,0.984c0.16,0.213,0.438,0.319,0.836,0.319
			S150.01,86.177,150.421,86.145z M150.205,84.408c0-0.49-0.079-0.837-0.236-1.04c-0.157-0.202-0.413-0.304-0.768-0.304
			s-0.621,0.106-0.8,0.32c-0.179,0.213-0.271,0.555-0.276,1.023H150.205z"/>
		<path fill="#4D4D4D" d="M151.741,81.736v-0.695h0.6v0.695H151.741z M151.741,86.641v-4h0.6v4H151.741z"/>
		<path fill="#4D4D4D" d="M154.093,86.641h-0.6v-4h0.592v0.28c0.432-0.24,0.846-0.36,1.24-0.36c0.533,0,0.892,0.145,1.076,0.432
			c0.184,0.288,0.275,0.801,0.275,1.536v2.112h-0.592v-2.096c0-0.555-0.055-0.935-0.164-1.141c-0.109-0.205-0.343-0.308-0.7-0.308
			c-0.171,0-0.351,0.025-0.54,0.076s-0.334,0.1-0.436,0.147l-0.152,0.072V86.641z"/>
		<path fill="#00B8FA" d="M159.517,84.721V84.16h2.424v0.561H159.517z"/>
		<path fill="#4D4D4D" d="M65.507,91.336v-0.695h0.6v0.695H65.507z M65.507,96.24v-4h0.6v4H65.507z"/>
		<path fill="#4D4D4D" d="M67.858,96.24h-0.6v-4h0.592v0.28c0.432-0.24,0.846-0.36,1.24-0.36c0.533,0,0.892,0.145,1.076,0.432
			c0.184,0.288,0.275,0.801,0.275,1.536v2.112h-0.592v-2.096c0-0.555-0.055-0.935-0.164-1.141c-0.109-0.205-0.343-0.308-0.7-0.308
			c-0.171,0-0.351,0.025-0.54,0.076s-0.334,0.1-0.436,0.147l-0.152,0.072V96.24z"/>
		<path fill="#4D4D4D" d="M72.154,96.24h-0.6v-4h0.592v0.28c0.432-0.24,0.846-0.36,1.24-0.36c0.533,0,0.892,0.145,1.076,0.432
			c0.184,0.288,0.275,0.801,0.275,1.536v2.112h-0.592v-2.096c0-0.555-0.055-0.935-0.164-1.141c-0.109-0.205-0.343-0.308-0.7-0.308
			c-0.171,0-0.351,0.025-0.54,0.076s-0.334,0.1-0.436,0.147l-0.152,0.072V96.24z"/>
		<path fill="#4D4D4D" d="M78.57,95.744l0.232-0.023l0.016,0.472c-0.608,0.085-1.128,0.128-1.56,0.128
			c-0.576,0-0.984-0.167-1.225-0.5s-0.359-0.853-0.359-1.556c0-1.403,0.557-2.104,1.672-2.104c0.538,0,0.941,0.15,1.208,0.452
			s0.399,0.774,0.399,1.42l-0.031,0.456h-2.641c0,0.442,0.08,0.771,0.24,0.984c0.16,0.213,0.438,0.319,0.836,0.319
			S78.159,95.776,78.57,95.744z M78.354,94.008c0-0.49-0.079-0.837-0.236-1.04c-0.157-0.202-0.413-0.304-0.768-0.304
			s-0.621,0.106-0.8,0.32c-0.179,0.213-0.271,0.555-0.276,1.023H78.354z"/>
		<path fill="#4D4D4D" d="M79.891,96.24v-4h0.592v0.544c0.464-0.32,0.952-0.53,1.464-0.632v0.607c-0.224,0.043-0.457,0.109-0.7,0.2
			c-0.242,0.091-0.428,0.171-0.556,0.24l-0.2,0.104v2.936H79.891z"/>
		<path fill="#4D4D4D" d="M85.298,95.744l0.232-0.023l0.016,0.472c-0.608,0.085-1.128,0.128-1.56,0.128
			c-0.576,0-0.984-0.167-1.225-0.5s-0.359-0.853-0.359-1.556c0-1.403,0.557-2.104,1.672-2.104c0.538,0,0.941,0.15,1.208,0.452
			s0.399,0.774,0.399,1.42l-0.031,0.456H83.01c0,0.442,0.08,0.771,0.24,0.984c0.16,0.213,0.438,0.319,0.836,0.319
			S84.887,95.776,85.298,95.744z M85.082,94.008c0-0.49-0.079-0.837-0.236-1.04c-0.157-0.202-0.413-0.304-0.768-0.304
			s-0.621,0.106-0.8,0.32c-0.179,0.213-0.271,0.555-0.276,1.023H85.082z"/>
		<path fill="#4D4D4D" d="M86.618,96.24v-4h0.592v0.544c0.464-0.32,0.952-0.53,1.464-0.632v0.607c-0.224,0.043-0.457,0.109-0.7,0.2
			c-0.242,0.091-0.428,0.171-0.556,0.24l-0.2,0.104v2.936H86.618z"/>
		<path fill="#4D4D4D" d="M90.81,90.704h0.64l0.944,4.992h0.231l1.128-4.944h0.721l1.128,4.944h0.231l0.944-4.992h0.632l-1.12,5.536
			h-1.128l-1.048-4.728l-1.048,4.728h-1.128L90.81,90.704z"/>
		<path fill="#4D4D4D" d="M100.793,95.744l0.232-0.023l0.016,0.472c-0.608,0.085-1.128,0.128-1.56,0.128
			c-0.576,0-0.984-0.167-1.225-0.5s-0.359-0.853-0.359-1.556c0-1.403,0.557-2.104,1.672-2.104c0.538,0,0.941,0.15,1.208,0.452
			s0.399,0.774,0.399,1.42l-0.031,0.456h-2.641c0,0.442,0.08,0.771,0.24,0.984c0.16,0.213,0.438,0.319,0.836,0.319
			S100.382,95.776,100.793,95.744z M100.577,94.008c0-0.49-0.079-0.837-0.236-1.04c-0.157-0.202-0.413-0.304-0.768-0.304
			s-0.621,0.106-0.8,0.32c-0.179,0.213-0.271,0.555-0.276,1.023H100.577z"/>
		<path fill="#4D4D4D" d="M102.113,96.24v-4h0.592v0.544c0.464-0.32,0.952-0.53,1.464-0.632v0.607c-0.224,0.043-0.457,0.109-0.7,0.2
			c-0.242,0.091-0.428,0.171-0.556,0.24l-0.2,0.104v2.936H102.113z"/>
		<path fill="#4D4D4D" d="M106.953,92.76h-1.272v1.912c0,0.459,0.033,0.761,0.1,0.904c0.067,0.145,0.226,0.216,0.477,0.216
			l0.712-0.048l0.04,0.496c-0.357,0.059-0.63,0.088-0.816,0.088c-0.416,0-0.704-0.102-0.863-0.304c-0.16-0.203-0.24-0.59-0.24-1.16
			V92.76h-0.568v-0.52h0.568v-1.224h0.592v1.224h1.272V92.76z"/>
	</g>
</g>
<line fill="none" stroke="#00B8FA" stroke-miterlimit="10" x1="60.667" y1="13.667" x2="161" y2="13.667"/>
<g>
	<g>
		<path fill="#4D4D4D" d="M1.647,16.278v-5.536h0.616v5.536H1.647z"/>
		<path fill="#4D4D4D" d="M4.111,16.278h-0.6v-4h0.592v0.28c0.432-0.24,0.846-0.36,1.24-0.36c0.533,0,0.892,0.145,1.076,0.432
			c0.184,0.288,0.275,0.801,0.275,1.536v2.112H6.104v-2.096c0-0.555-0.055-0.935-0.164-1.141c-0.109-0.205-0.343-0.308-0.7-0.308
			c-0.171,0-0.351,0.025-0.54,0.076s-0.334,0.1-0.436,0.147L4.111,13.03V16.278z"/>
		<path fill="#4D4D4D" d="M8.407,16.278h-0.6v-4h0.592v0.28c0.432-0.24,0.846-0.36,1.24-0.36c0.533,0,0.892,0.145,1.076,0.432
			c0.184,0.288,0.275,0.801,0.275,1.536v2.112h-0.592v-2.096c0-0.555-0.055-0.935-0.164-1.141c-0.109-0.205-0.343-0.308-0.7-0.308
			c-0.171,0-0.351,0.025-0.54,0.076s-0.334,0.1-0.436,0.147L8.407,13.03V16.278z"/>
		<path fill="#4D4D4D" d="M14.823,15.782l0.232-0.023l0.016,0.472c-0.608,0.085-1.128,0.128-1.56,0.128
			c-0.576,0-0.984-0.167-1.225-0.5s-0.359-0.853-0.359-1.556c0-1.403,0.557-2.104,1.672-2.104c0.538,0,0.941,0.15,1.208,0.452
			s0.399,0.774,0.399,1.42l-0.031,0.456h-2.641c0,0.442,0.08,0.771,0.24,0.984c0.16,0.213,0.438,0.319,0.836,0.319
			S14.412,15.814,14.823,15.782z M14.607,14.045c0-0.49-0.079-0.837-0.236-1.04c-0.157-0.202-0.413-0.304-0.768-0.304
			s-0.621,0.106-0.8,0.32c-0.179,0.213-0.271,0.555-0.276,1.023H14.607z"/>
		<path fill="#4D4D4D" d="M16.144,16.278v-4h0.592v0.544c0.464-0.32,0.952-0.53,1.464-0.632v0.607c-0.224,0.043-0.457,0.109-0.7,0.2
			c-0.242,0.091-0.428,0.171-0.556,0.24l-0.2,0.104v2.936H16.144z"/>
		<path fill="#4D4D4D" d="M21.552,15.782l0.232-0.023L21.8,16.23c-0.608,0.085-1.128,0.128-1.56,0.128
			c-0.576,0-0.984-0.167-1.225-0.5s-0.359-0.853-0.359-1.556c0-1.403,0.557-2.104,1.672-2.104c0.538,0,0.941,0.15,1.208,0.452
			s0.399,0.774,0.399,1.42l-0.031,0.456h-2.641c0,0.442,0.08,0.771,0.24,0.984c0.16,0.213,0.438,0.319,0.836,0.319
			S21.141,15.814,21.552,15.782z M21.336,14.045c0-0.49-0.079-0.837-0.236-1.04c-0.157-0.202-0.413-0.304-0.768-0.304
			s-0.621,0.106-0.8,0.32c-0.179,0.213-0.271,0.555-0.276,1.023H21.336z"/>
		<path fill="#4D4D4D" d="M22.871,16.278v-4h0.592v0.544c0.464-0.32,0.952-0.53,1.464-0.632v0.607c-0.224,0.043-0.457,0.109-0.7,0.2
			c-0.242,0.091-0.428,0.171-0.556,0.24l-0.2,0.104v2.936H22.871z"/>
		<path fill="#4D4D4D" d="M27.063,10.742h0.64l0.944,4.992h0.231l1.128-4.944h0.721l1.128,4.944h0.231l0.944-4.992h0.632
			l-1.12,5.536h-1.128l-1.048-4.728l-1.048,4.728h-1.128L27.063,10.742z"/>
		<path fill="#4D4D4D" d="M37.047,15.782l0.232-0.023l0.016,0.472c-0.608,0.085-1.128,0.128-1.56,0.128
			c-0.576,0-0.984-0.167-1.225-0.5s-0.359-0.853-0.359-1.556c0-1.403,0.557-2.104,1.672-2.104c0.538,0,0.941,0.15,1.208,0.452
			s0.399,0.774,0.399,1.42l-0.031,0.456h-2.641c0,0.442,0.08,0.771,0.24,0.984c0.16,0.213,0.438,0.319,0.836,0.319
			S36.636,15.814,37.047,15.782z M36.831,14.045c0-0.49-0.079-0.837-0.236-1.04c-0.157-0.202-0.413-0.304-0.768-0.304
			s-0.621,0.106-0.8,0.32c-0.179,0.213-0.271,0.555-0.276,1.023H36.831z"/>
		<path fill="#4D4D4D" d="M38.367,16.278v-4h0.592v0.544c0.464-0.32,0.952-0.53,1.464-0.632v0.607c-0.224,0.043-0.457,0.109-0.7,0.2
			c-0.242,0.091-0.428,0.171-0.556,0.24l-0.2,0.104v2.936H38.367z"/>
		<path fill="#4D4D4D" d="M43.207,12.797h-1.272v1.912c0,0.459,0.033,0.761,0.1,0.904c0.067,0.145,0.226,0.216,0.477,0.216
			l0.712-0.048l0.04,0.496c-0.357,0.059-0.63,0.088-0.816,0.088c-0.416,0-0.704-0.102-0.863-0.304c-0.16-0.203-0.24-0.59-0.24-1.16
			v-2.104h-0.568v-0.52h0.568v-1.224h0.592v1.224h1.272V12.797z"/>
		<path fill="#4D4D4D" d="M47.398,13.806v-0.553h3.456v0.553H47.398z M47.398,15.286v-0.552h3.456v0.552H47.398z"/>
	</g>
</g>
</svg>
