<?xml version="1.0" encoding="utf-8"?>
<!-- Generator: Adobe Illustrator 21.1.0, SVG Export Plug-In . SVG Version: 6.00 Build 0)  -->
<svg version="1.1" id="Ebene_1" xmlns="http://www.w3.org/2000/svg" xmlns:xlink="http://www.w3.org/1999/xlink" x="0px" y="0px"
	 viewBox="0 0 200 200" enable-background="new 0 0 200 200" xml:space="preserve">
<rect x="0.333" y="0.333" fill="#FFFFFF" width="200" height="200.667"/>
<path fill="#4D4D4D" d="M4.685,92.059c-1.029,0-1.911,0.415-2.655,1.217c-0.747,0.838-1.131,1.813-1.131,2.898v10.034
	c0,0.376,0.118,0.716,0.384,0.991c0.246,0.272,0.553,0.394,0.9,0.394c0.4,0,0.706-0.123,0.953-0.394
	c0.214-0.275,0.326-0.615,0.326-0.991v-8.973h0.665v24.841c0,0.478,0.191,0.92,0.556,1.261c0.342,0.376,0.742,0.537,1.202,0.537
	c0.498,0,0.898-0.161,1.223-0.537c0.345-0.34,0.501-0.782,0.501-1.261v-14.4h0.744v14.4c0,0.478,0.172,0.92,0.496,1.261
	c0.326,0.376,0.747,0.537,1.262,0.537c0.438,0,0.822-0.161,1.166-0.537c0.323-0.34,0.471-0.782,0.471-1.261V97.235h0.695v8.973
	c0,0.376,0.109,0.716,0.339,0.991c0.274,0.272,0.591,0.394,0.936,0.394c0.405,0,0.712-0.123,0.942-0.394
	c0.208-0.275,0.339-0.615,0.339-0.991V96.174c0-1.082-0.362-2.061-1.109-2.895c-0.728-0.805-1.601-1.217-2.672-1.217H4.685V92.059z"
	/>
<path fill="#4D4D4D" d="M7.97,91.125c0.803,0,1.511-0.264,2.081-0.816c0.569-0.567,0.86-1.267,0.86-2.111
	c0-0.805-0.293-1.495-0.862-2.064c-0.572-0.586-1.278-0.878-2.078-0.878c-0.843,0-1.552,0.292-2.086,0.878
	c-0.569,0.569-0.837,1.259-0.837,2.064c0,0.846,0.268,1.546,0.837,2.111C6.421,90.861,7.13,91.125,7.97,91.125z"/>
<g>
	<g>
		<path fill="#4D4D4D" d="M53.442,6l1.52-5.536h1.344L57.826,6h-0.608l-0.399-1.424H54.45L54.05,6H53.442z M55.426,0.992
			l-0.84,3.032h2.096l-0.84-3.032H55.426z"/>
		<path fill="#4D4D4D" d="M59.193,6h-0.6V2h0.592v0.28c0.432-0.24,0.846-0.36,1.24-0.36c0.533,0,0.892,0.145,1.076,0.432
			c0.184,0.288,0.275,0.801,0.275,1.536V6h-0.592V3.904c0-0.555-0.055-0.935-0.164-1.141c-0.109-0.205-0.343-0.308-0.7-0.308
			c-0.171,0-0.351,0.025-0.54,0.076s-0.334,0.1-0.436,0.147l-0.152,0.072V6z"/>
		<path fill="#4D4D4D" d="M62.938,6V0.256h0.6V6H62.938z"/>
		<path fill="#4D4D4D" d="M67.458,5.504L67.69,5.48l0.016,0.472c-0.608,0.085-1.128,0.128-1.56,0.128
			c-0.576,0-0.984-0.167-1.225-0.5s-0.359-0.853-0.359-1.556c0-1.403,0.557-2.104,1.672-2.104c0.538,0,0.941,0.15,1.208,0.452
			s0.399,0.774,0.399,1.42l-0.031,0.456H65.17c0,0.442,0.08,0.771,0.24,0.984c0.16,0.213,0.438,0.319,0.836,0.319
			S67.047,5.536,67.458,5.504z M67.242,3.768c0-0.49-0.079-0.837-0.236-1.04c-0.157-0.202-0.413-0.304-0.768-0.304
			s-0.621,0.106-0.8,0.32c-0.179,0.213-0.271,0.555-0.276,1.023H67.242z"/>
		<path fill="#4D4D4D" d="M68.777,1.096V0.4h0.6v0.695H68.777z M68.777,6V2h0.6v4H68.777z"/>
		<path fill="#4D4D4D" d="M71.129,6h-0.6V0.256h0.6v1.968c0.427-0.202,0.838-0.304,1.232-0.304c0.533,0,0.892,0.145,1.076,0.432
			c0.184,0.288,0.275,0.801,0.275,1.536V6h-0.6V3.904c0-0.555-0.055-0.935-0.164-1.141c-0.109-0.205-0.34-0.308-0.692-0.308
			c-0.336,0-0.661,0.062-0.976,0.184l-0.152,0.057V6z"/>
		<path fill="#4D4D4D" d="M77.546,5.504l0.232-0.023l0.016,0.472c-0.608,0.085-1.128,0.128-1.56,0.128
			c-0.576,0-0.984-0.167-1.225-0.5S74.65,4.728,74.65,4.024c0-1.403,0.557-2.104,1.672-2.104c0.538,0,0.941,0.15,1.208,0.452
			s0.399,0.774,0.399,1.42l-0.031,0.456h-2.641c0,0.442,0.08,0.771,0.24,0.984c0.16,0.213,0.438,0.319,0.836,0.319
			S77.135,5.536,77.546,5.504z M77.33,3.768c0-0.49-0.079-0.837-0.236-1.04c-0.157-0.202-0.413-0.304-0.768-0.304
			s-0.621,0.106-0.8,0.32c-0.179,0.213-0.271,0.555-0.276,1.023H77.33z"/>
	</g>
</g>
<g>
	<g>
		<path fill="#4D4D4D" d="M66.04,128.169c-0.8,0-1.2,0.302-1.2,0.904c0,0.336,0.092,0.566,0.276,0.691
			c0.184,0.126,0.557,0.251,1.12,0.376c0.562,0.126,0.961,0.288,1.195,0.488c0.235,0.2,0.353,0.529,0.353,0.988
			c0,1.136-0.59,1.704-1.769,1.704c-0.389,0-0.877-0.046-1.464-0.137l-0.288-0.039l0.064-0.513c0.726,0.097,1.277,0.145,1.656,0.145
			c0.789,0,1.184-0.371,1.184-1.112c0-0.299-0.087-0.514-0.26-0.644c-0.174-0.131-0.497-0.242-0.973-0.332
			c-0.623-0.134-1.066-0.306-1.327-0.517c-0.262-0.211-0.393-0.563-0.393-1.06c0-0.992,0.595-1.488,1.784-1.488
			c0.39,0,0.856,0.04,1.4,0.12l0.271,0.04l-0.056,0.52C66.875,128.215,66.35,128.169,66.04,128.169z"/>
		<path fill="#4D4D4D" d="M70.744,129.769h-1.272v1.912c0,0.459,0.033,0.761,0.1,0.904c0.067,0.145,0.226,0.216,0.477,0.216
			l0.712-0.048l0.04,0.496c-0.357,0.059-0.63,0.088-0.816,0.088c-0.416,0-0.704-0.102-0.863-0.304c-0.16-0.203-0.24-0.59-0.24-1.16
			v-2.104h-0.568v-0.52h0.568v-1.224h0.592v1.224h1.272V129.769z"/>
		<path fill="#4D4D4D" d="M74.305,130.457v2.048c0.016,0.197,0.17,0.314,0.464,0.353l-0.024,0.472c-0.421,0-0.738-0.106-0.952-0.32
			c-0.479,0.214-0.96,0.32-1.439,0.32c-0.368,0-0.648-0.104-0.84-0.312c-0.192-0.208-0.288-0.506-0.288-0.896
			s0.099-0.676,0.296-0.86c0.197-0.184,0.507-0.297,0.928-0.34l1.256-0.12v-0.344c0-0.272-0.059-0.467-0.176-0.584
			s-0.277-0.176-0.48-0.176c-0.427,0-0.869,0.026-1.327,0.08l-0.248,0.023l-0.024-0.456c0.587-0.117,1.106-0.176,1.56-0.176
			c0.454,0,0.783,0.104,0.988,0.312S74.305,130.015,74.305,130.457z M71.84,132.089c0,0.491,0.203,0.736,0.608,0.736
			c0.362,0,0.72-0.062,1.072-0.185l0.184-0.063v-1.32l-1.184,0.112c-0.24,0.021-0.414,0.091-0.521,0.208
			S71.84,131.865,71.84,132.089z"/>
		<path fill="#4D4D4D" d="M78.312,130.457v2.048c0.016,0.197,0.17,0.314,0.464,0.353l-0.024,0.472c-0.421,0-0.738-0.106-0.952-0.32
			c-0.479,0.214-0.96,0.32-1.439,0.32c-0.368,0-0.648-0.104-0.84-0.312c-0.192-0.208-0.288-0.506-0.288-0.896
			s0.099-0.676,0.296-0.86c0.197-0.184,0.507-0.297,0.928-0.34l1.256-0.12v-0.344c0-0.272-0.059-0.467-0.176-0.584
			s-0.277-0.176-0.48-0.176c-0.427,0-0.869,0.026-1.327,0.08l-0.248,0.023l-0.024-0.456c0.587-0.117,1.106-0.176,1.56-0.176
			c0.454,0,0.783,0.104,0.988,0.312S78.312,130.015,78.312,130.457z M75.848,132.089c0,0.491,0.203,0.736,0.608,0.736
			c0.362,0,0.72-0.062,1.072-0.185l0.184-0.063v-1.32l-1.184,0.112c-0.24,0.021-0.414,0.091-0.521,0.208
			S75.848,131.865,75.848,132.089z"/>
		<path fill="#4D4D4D" d="M81.568,129.769h-1.272v1.912c0,0.459,0.033,0.761,0.1,0.904c0.067,0.145,0.226,0.216,0.477,0.216
			l0.712-0.048l0.04,0.496c-0.357,0.059-0.63,0.088-0.816,0.088c-0.416,0-0.704-0.102-0.863-0.304c-0.16-0.203-0.24-0.59-0.24-1.16
			v-2.104h-0.568v-0.52h0.568v-1.224h0.592v1.224h1.272V129.769z"/>
		<path fill="#4D4D4D" d="M94.447,131.241c0-0.73,0.13-1.259,0.392-1.584s0.702-0.488,1.324-0.488c0.621,0,1.062,0.163,1.319,0.488
			c0.259,0.325,0.389,0.854,0.389,1.584s-0.123,1.261-0.368,1.592s-0.693,0.496-1.344,0.496c-0.651,0-1.099-0.165-1.345-0.496
			C94.569,132.502,94.447,131.972,94.447,131.241z M95.062,131.229c0,0.584,0.071,0.993,0.212,1.228
			c0.142,0.234,0.438,0.352,0.889,0.352c0.45,0,0.745-0.115,0.884-0.348c0.139-0.231,0.208-0.642,0.208-1.228
			c0-0.587-0.077-0.991-0.232-1.212c-0.154-0.222-0.441-0.332-0.859-0.332c-0.419,0-0.707,0.11-0.864,0.332
			C95.142,130.242,95.062,130.646,95.062,131.229z"/>
		<path fill="#4D4D4D" d="M101.92,127.505v5.744h-0.593v-0.272c-0.41,0.235-0.815,0.353-1.216,0.353c-0.213,0-0.399-0.026-0.56-0.08
			s-0.31-0.149-0.448-0.288c-0.288-0.288-0.432-0.82-0.432-1.596c0-0.776,0.129-1.336,0.388-1.681
			c0.259-0.344,0.687-0.516,1.284-0.516c0.309,0,0.637,0.035,0.983,0.104v-1.769H101.92z M99.84,132.737
			c0.096,0.037,0.22,0.056,0.372,0.056c0.151,0,0.322-0.025,0.512-0.076s0.337-0.1,0.444-0.147l0.159-0.072v-2.712
			c-0.341-0.064-0.658-0.096-0.952-0.096c-0.405,0-0.688,0.129-0.848,0.388s-0.24,0.66-0.24,1.204c0,0.618,0.094,1.034,0.28,1.248
			C99.652,132.631,99.743,132.7,99.84,132.737z"/>
		<path fill="#4D4D4D" d="M105.799,132.753l0.232-0.023l0.016,0.472c-0.608,0.085-1.128,0.128-1.56,0.128
			c-0.576,0-0.984-0.167-1.225-0.5s-0.359-0.853-0.359-1.556c0-1.403,0.557-2.104,1.672-2.104c0.538,0,0.941,0.15,1.208,0.452
			s0.399,0.774,0.399,1.42l-0.031,0.456h-2.641c0,0.442,0.08,0.771,0.24,0.984c0.16,0.213,0.438,0.319,0.836,0.319
			S105.388,132.785,105.799,132.753z M105.583,131.017c0-0.49-0.079-0.837-0.236-1.04c-0.157-0.202-0.413-0.304-0.768-0.304
			s-0.621,0.106-0.8,0.32c-0.179,0.213-0.271,0.555-0.276,1.023H105.583z"/>
		<path fill="#4D4D4D" d="M107.119,133.249v-4h0.592v0.544c0.464-0.32,0.952-0.53,1.464-0.632v0.607
			c-0.224,0.043-0.457,0.109-0.7,0.2c-0.242,0.091-0.428,0.171-0.556,0.24l-0.2,0.104v2.936H107.119z"/>
	</g>
</g>
<g>
	<g>
		<path fill="#4D4D4D" d="M117.172,131.585c0,0.8,0.433,1.2,1.296,1.2c0.448,0,0.785-0.095,1.013-0.284
			c0.227-0.189,0.34-0.494,0.34-0.916v-3.872h0.607v3.856c0,0.618-0.164,1.066-0.492,1.344c-0.327,0.277-0.812,0.416-1.451,0.416
			c-0.641,0-1.122-0.139-1.444-0.416c-0.323-0.277-0.484-0.726-0.484-1.344v-3.856h0.616V131.585z"/>
		<path fill="#4D4D4D" d="M122.244,133.249h-0.6v-4h0.592v0.28c0.432-0.24,0.846-0.36,1.24-0.36c0.533,0,0.892,0.145,1.076,0.432
			c0.184,0.288,0.275,0.801,0.275,1.536v2.112h-0.592v-2.096c0-0.555-0.055-0.935-0.164-1.141c-0.109-0.205-0.343-0.308-0.7-0.308
			c-0.171,0-0.351,0.025-0.54,0.076s-0.334,0.1-0.436,0.147l-0.152,0.072V133.249z"/>
		<path fill="#4D4D4D" d="M127.988,129.769h-1.272v1.912c0,0.459,0.033,0.761,0.1,0.904c0.067,0.145,0.226,0.216,0.477,0.216
			l0.712-0.048l0.04,0.496c-0.357,0.059-0.63,0.088-0.816,0.088c-0.416,0-0.704-0.102-0.863-0.304c-0.16-0.203-0.24-0.59-0.24-1.16
			v-2.104h-0.568v-0.52h0.568v-1.224h0.592v1.224h1.272V129.769z"/>
		<path fill="#4D4D4D" d="M131.444,132.753l0.232-0.023l0.016,0.472c-0.608,0.085-1.128,0.128-1.56,0.128
			c-0.576,0-0.984-0.167-1.225-0.5s-0.359-0.853-0.359-1.556c0-1.403,0.557-2.104,1.672-2.104c0.538,0,0.941,0.15,1.208,0.452
			s0.399,0.774,0.399,1.42l-0.031,0.456h-2.641c0,0.442,0.08,0.771,0.24,0.984c0.16,0.213,0.438,0.319,0.836,0.319
			S131.033,132.785,131.444,132.753z M131.229,131.017c0-0.49-0.079-0.837-0.236-1.04c-0.157-0.202-0.413-0.304-0.768-0.304
			s-0.621,0.106-0.8,0.32c-0.179,0.213-0.271,0.555-0.276,1.023H131.229z"/>
		<path fill="#4D4D4D" d="M132.764,133.249v-4h0.592v0.544c0.464-0.32,0.952-0.53,1.464-0.632v0.607
			c-0.224,0.043-0.457,0.109-0.7,0.2c-0.242,0.091-0.428,0.171-0.556,0.24l-0.2,0.104v2.936H132.764z"/>
		<path fill="#4D4D4D" d="M136.132,133.249h-0.6v-4h0.592v0.28c0.432-0.24,0.846-0.36,1.24-0.36c0.533,0,0.892,0.145,1.076,0.432
			c0.184,0.288,0.275,0.801,0.275,1.536v2.112h-0.592v-2.096c0-0.555-0.055-0.935-0.164-1.141c-0.109-0.205-0.343-0.308-0.7-0.308
			c-0.171,0-0.351,0.025-0.54,0.076s-0.334,0.1-0.436,0.147l-0.152,0.072V133.249z"/>
		<path fill="#4D4D4D" d="M142.548,132.753l0.232-0.023l0.016,0.472c-0.608,0.085-1.128,0.128-1.56,0.128
			c-0.576,0-0.984-0.167-1.225-0.5s-0.359-0.853-0.359-1.556c0-1.403,0.557-2.104,1.672-2.104c0.538,0,0.941,0.15,1.208,0.452
			s0.399,0.774,0.399,1.42l-0.031,0.456h-2.641c0,0.442,0.08,0.771,0.24,0.984c0.16,0.213,0.438,0.319,0.836,0.319
			S142.137,132.785,142.548,132.753z M142.332,131.017c0-0.49-0.079-0.837-0.236-1.04c-0.157-0.202-0.413-0.304-0.768-0.304
			s-0.621,0.106-0.8,0.32c-0.179,0.213-0.271,0.555-0.276,1.023H142.332z"/>
		<path fill="#4D4D4D" d="M144.468,133.249h-0.6v-5.744h0.6v1.968c0.427-0.202,0.838-0.304,1.232-0.304
			c0.533,0,0.892,0.145,1.076,0.432c0.184,0.288,0.275,0.801,0.275,1.536v2.112h-0.6v-2.096c0-0.555-0.055-0.935-0.164-1.141
			c-0.109-0.205-0.34-0.308-0.692-0.308c-0.336,0-0.661,0.062-0.976,0.184l-0.152,0.057V133.249z"/>
		<path fill="#4D4D4D" d="M148.764,133.249h-0.6v-4h0.592v0.28c0.4-0.24,0.789-0.36,1.168-0.36c0.496,0,0.843,0.136,1.04,0.408
			c0.176-0.106,0.404-0.201,0.684-0.284c0.28-0.083,0.527-0.124,0.74-0.124c0.533,0,0.893,0.143,1.076,0.428
			c0.184,0.286,0.276,0.799,0.276,1.54v2.112h-0.601v-2.096c0-0.555-0.053-0.935-0.16-1.141c-0.106-0.205-0.333-0.308-0.68-0.308
			c-0.176,0-0.357,0.025-0.544,0.076s-0.331,0.1-0.432,0.147l-0.152,0.072c0.069,0.176,0.104,0.565,0.104,1.168v2.08h-0.601v-2.064
			c0-0.575-0.052-0.966-0.156-1.172c-0.104-0.205-0.332-0.308-0.684-0.308c-0.171,0-0.346,0.025-0.524,0.076s-0.315,0.1-0.412,0.147
			l-0.136,0.072V133.249z"/>
		<path fill="#4D4D4D" d="M157.571,132.753l0.232-0.023l0.016,0.472c-0.608,0.085-1.128,0.128-1.56,0.128
			c-0.576,0-0.984-0.167-1.225-0.5s-0.359-0.853-0.359-1.556c0-1.403,0.557-2.104,1.672-2.104c0.538,0,0.941,0.15,1.208,0.452
			s0.399,0.774,0.399,1.42l-0.031,0.456h-2.641c0,0.442,0.08,0.771,0.24,0.984c0.16,0.213,0.438,0.319,0.836,0.319
			S157.16,132.785,157.571,132.753z M157.355,131.017c0-0.49-0.079-0.837-0.236-1.04c-0.157-0.202-0.413-0.304-0.768-0.304
			s-0.621,0.106-0.8,0.32c-0.179,0.213-0.271,0.555-0.276,1.023H157.355z"/>
		<path fill="#4D4D4D" d="M159.491,133.249h-0.6v-4h0.592v0.28c0.432-0.24,0.846-0.36,1.24-0.36c0.533,0,0.892,0.145,1.076,0.432
			c0.184,0.288,0.275,0.801,0.275,1.536v2.112h-0.592v-2.096c0-0.555-0.055-0.935-0.164-1.141c-0.109-0.205-0.343-0.308-0.7-0.308
			c-0.171,0-0.351,0.025-0.54,0.076s-0.334,0.1-0.436,0.147l-0.152,0.072V133.249z"/>
	</g>
</g>
<g>
	<g>
		<path fill="#4D4D4D" d="M73.816,120.999h-0.425c-0.406,0-0.632-0.294-0.797-0.508l-0.37-0.499c-0.08-0.096-0.245-0.346-0.173-0.72
			c-0.135-0.12-0.237-0.283-0.283-0.48c-0.011-0.002-0.021-0.005-0.031-0.008l-0.056,0.01c-0.032,0.106-0.078,0.209-0.155,0.306
			c-0.044,0.054-0.12,0.129-0.212,0.211c-0.043,0.038-0.093,0.081-0.13,0.122c-0.156,0.183-0.378,0.441-0.763,0.441
			c-0.156,0-0.286-0.031-0.69-0.225l-0.272-0.131l-0.102-0.269c0,0-0.133-0.356-0.151-0.443c-0.004-0.02-0.015-0.079-0.02-0.162
			l-0.07-0.074c-0.014-0.016-0.054-0.063-0.1-0.119c-0.21,0.142-0.393,0.17-0.529,0.152l-0.348-0.023l-0.276-0.327
			c-0.07-0.097-0.128-0.208-0.17-0.297c-0.04-0.018-0.071-0.03-0.095-0.039c-0.216,0.028-0.438-0.017-0.631-0.132
			c-0.179,0.053-0.329,0.054-0.332,0.054c-0.148,0-0.273-0.038-0.381-0.1l-0.104,0.195c-0.101,0.173-0.279,0.365-0.514,0.466
			c-0.199,0.281-0.549,0.303-0.955,0.315c-0.234,0.037-0.64,0.079-0.919-0.249c-0.126,0.09-0.251,0.179-0.294,0.209
			c-0.4,0.285-1.214,0.14-1.222,0.138l-0.147-0.062c-0.01-0.005-0.022-0.011-0.037-0.019c-0.359,0.194-0.643,0.174-0.896-0.028
			c-0.132-0.097-0.209-0.209-0.249-0.333l-0.184,0.012l-0.273-0.329c-0.045-0.048-0.259-0.251-0.261-0.253l-0.151-0.146
			l-0.055-0.202c-0.073-0.275-0.058-0.489-0.004-0.651c-0.122-0.158-0.2-0.361-0.155-0.612c0.025-0.115,0.03-0.14,0.331-0.783
			l0.256-0.455l-0.038-0.165l-0.103-0.607l0.559-0.935l0.302-0.778c0.025-0.153,0.078-0.479,0.084-0.505
			c0.003-0.02,0.146-0.421,0.146-0.421l0.363-1.327l0.371-0.406l0.102-0.436l0.542-0.292c0.023-0.137,0.066-0.287,0.116-0.463
			l0.039-0.135l-0.974,0.073l-0.24-0.39c-0.001-0.003-0.047-0.078-0.104-0.17c-0.108,0-0.228-0.021-0.35-0.083
			c-0.242-0.121-0.423-0.269-0.538-0.44c-0.037-0.031-0.083-0.065-0.126-0.097l-0.084,0.494l-0.687-0.058c0,0-0.18-0.015-0.284-0.03
			c-0.229-0.032-0.418-0.134-0.563-0.303c-0.156-0.032-0.33-0.096-0.482-0.23l-0.048-0.042c-0.067-0.008-0.136-0.024-0.202-0.049
			c-0.067,0.056-0.147,0.102-0.239,0.136c-0.067,0.04-0.141,0.071-0.219,0.09l-0.375,0.092l-0.348-0.286
			c-0.331-0.167-0.492-0.475-0.561-0.605c-0.134-0.226-0.248-0.789-0.248-0.972c0-0.047,0-0.128,0.034-0.245
			c-0.087-0.065-0.188-0.155-0.275-0.265c-0.018-0.009-0.034-0.016-0.045-0.021c-0.069-0.021-0.148-0.073-0.28-0.158
			c-0.057-0.037-0.124-0.081-0.187-0.118c-0.394-0.23-0.521-0.562-0.51-0.83l0.013-0.304l0,0c0,0,0.031-0.219,0.08-0.462
			c0.036-0.176,0.077-0.375,0.088-0.446c-0.003-0.27,0.168-0.452,0.365-0.59c-0.054-0.042-0.1-0.077-0.131-0.098
			c-0.094-0.056-0.312-0.188-0.65-0.914l-0.066-0.144l-0.003-0.158c0-0.002-0.01-0.608-0.021-0.744
			c-0.018-0.144-0.001-0.273,0.133-0.977c0.021-0.116,0.041-0.213,0.047-0.254c-0.006-0.307,0.245-0.506,0.505-0.691
			c0.001-0.016,0.001-0.031,0.003-0.047c-0.005-0.036-0.013-0.078-0.018-0.112l-0.008-0.052c-0.031-0.078-0.086-0.197-0.11-0.242
			c0.001,0,0.001,0.001,0.001,0.001c-0.001,0-0.101-0.185-0.188-0.351l-0.109-0.208c-0.127-0.22-0.124-0.449-0.107-0.685
			l-0.234-0.156l-0.075-0.256c0,0-0.15-0.513-0.155-0.538c-0.091-0.402-0.111-0.553-0.097-0.699
			c-0.028-0.207-0.049-0.427,0.078-0.657c0.01-0.018,0.02-0.035,0.032-0.055c-0.23-0.206-0.324-0.549-0.324-0.833
			c0-0.394,0.285-0.619,0.422-0.728c0.114-0.097,0.232-0.144,0.551-0.234c-0.012-0.027-0.022-0.056-0.034-0.085
			c-0.188-0.334-0.034-0.654,0.089-0.911l0.051-0.105c0.084-0.18,0.184-0.324,0.296-0.431c0.002-0.002,0.004-0.005,0.006-0.007
			l0.071-0.159c0.019-0.042,0.036-0.082,0.051-0.114c0.009-0.043,0.019-0.099,0.026-0.147c-0.015-0.039-0.036-0.108-0.053-0.158
			l-0.058-0.1c-0.11-0.191-0.175-0.301-0.213-0.374l-0.081-0.124c-0.092-0.142-0.198-0.311-0.222-0.357
			c-0.062-0.127-0.1-0.31-0.12-0.47c-0.173-0.165-0.352-0.4-0.339-0.735l0.019-0.538l0.534-0.194
			c0.08-0.023,0.186-0.043,0.313-0.027c0.028-0.068,0.069-0.14,0.125-0.212c0.147-0.188,0.393-0.412,0.727-0.412
			c0.224,0,0.371,0.088,0.545,0.204l0.134-0.163l0.387,0.028c0.003,0,0.3,0.022,0.436,0.025c0.049-0.009,0.104-0.02,0.165-0.029
			c0.107-0.019,0.235-0.038,0.308-0.054c0.012-0.004,0.024-0.008,0.036-0.011c0.007-0.021,0.015-0.04,0.024-0.061
			c-0.086-0.166-0.093-0.323-0.084-0.424c0.008-0.118,0.047-0.239,0.092-0.379c0.1-0.349,0.271-0.575,0.352-0.658
			c0.054-0.053,0.109-0.096,0.165-0.129c0.116-0.263,0.294-0.496,0.297-0.499c0.028-0.037,0.051-0.063,0.143-0.141
			c-0.004-0.014-0.008-0.027-0.011-0.041c-0.055-0.007-0.11-0.018-0.166-0.033l-0.073,0.004l-0.198-0.034
			c-0.337-0.099-0.486-0.171-0.615-0.3c-0.31-0.31-0.353-0.371-0.397-0.445c-0.185-0.305-0.124-0.753-0.117-0.803
			c0.016-0.116,0.061-0.223,0.104-0.325l0.008,0.002c0.034-0.227,0.154-0.474,0.342-0.696c0.233-0.276,0.551-0.4,0.968-0.377l0,0
			c0.002,0,0.005,0,0.008,0c0.167,0,0.304,0.048,0.403,0.084c0.01-0.153,0.023-0.363,0.023-0.363l0.032-0.174
			c0,0,0.115-0.364,0.134-0.434c0.033-0.128,0.158-0.358,0.231-0.486c0.02-0.046,0.055-0.136,0.075-0.197
			c0.007-0.067,0.015-0.143,0.02-0.196c-0.011-0.167-0.039-0.597-0.039-0.619c-0.004-0.029-0.04-0.409-0.04-0.409l-0.053-0.525
			c-0.043-0.107-0.058-0.215-0.053-0.318c-0.068-0.039-0.127-0.082-0.185-0.125c-0.367-0.188-0.412-0.592-0.438-0.833
			c-0.019-0.146,0-0.262,0.014-0.346c-0.025-0.269,0.046-0.468,0.08-0.561c0.024-0.094,0.07-0.205,0.155-0.305l-0.078-0.144
			l0.148-0.322c0.11-0.279,0.338-0.415,0.5-0.483c0.012-0.016,0.023-0.028,0.023-0.03c0.062-0.064,0.157-0.153,0.203-0.207
			c0.214-0.284,0.55-0.329,0.73-0.353c0.136-0.043,0.354-0.072,0.776,0.084c0.048,0.009,0.114,0.021,0.163,0.03
			c0.086-0.089,0.175-0.16,0.234-0.205c0.2-0.148,0.4-0.158,0.594-0.168c0.039-0.014,0.148-0.024,0.243-0.046l0.082-0.021
			c0.114-0.043,0.292-0.072,0.739-0.14l0.12-0.019l0.262,0.045c0.147,0.018,0.486,0.061,0.694,0.361
			c0.045,0.067,0.201,0.319,0.239,0.591l0.058,0.111c0.123-0.027,0.258-0.024,0.37,0.003c-0.003-0.033-0.005-0.061-0.005-0.074
			c0-0.101,0.019-0.186,0.043-0.305c0.01-0.046,0.022-0.098,0.027-0.136c-0.003-0.112,0.025-0.273,0.087-0.456
			c0.102-0.299,0.344-0.495,0.479-0.586l0.845-0.624l0.078,0.067c0.021-0.103,0.061-0.195,0.112-0.277l-0.084-0.208
			c-0.082-0.203-0.153-0.379-0.125-0.597c-0.061,0.004-0.127,0.001-0.191-0.011l-0.323-0.055l-0.245-0.33
			c-0.11-0.158-0.173-0.419-0.181-0.6c-0.011-0.232,0.067-0.446,0.217-0.609c0.019-0.102,0.058-0.205,0.131-0.307
			c0.265-0.375,0.964-0.428,0.971-0.428c-0.002-0.001,0.018-0.004,0.048-0.008c-0.082-0.089-0.169-0.184-0.169-0.184l-0.103-0.141
			l-0.376-0.687c0-0.001-0.366-0.998-0.441-1.17c-0.183-0.372-0.016-0.757,0.088-0.993l0.134-0.309l0.339-0.121
			c0.259-0.086,0.536-0.037,0.853,0.147c0.05,0.032,0.263,0.186,0.383,0.27c0.114,0.027,0.473,0.121,0.473,0.121
			c0.087,0.029,0.683,0.275,0.709,0.291c0.031,0.02,0.206,0.163,0.34,0.285l0.038,0.035c0.123-0.125,0.26-0.208,0.307-0.234
			c0.013-0.055,0.107-0.156,0.483-0.368l0.298-0.167l0.787,0.281l0.108,0.242c0.169,0.02,0.3,0.054,0.413,0.112
			c0.477-0.153,0.794,0.152,0.965,0.318l0.201,0.196l0.081,0.726c0.127,0.254,0.146,0.352,0.155,0.403
			c0.025,0.136,0.014,0.267,0.002,0.382l-0.001,0.028c0.156,0.021,0.363,0.094,0.531,0.312c0.197,0.021,0.379,0.12,0.557,0.217
			c0.015,0.002,0.044,0.019,0.28,0.161c0.08,0.019,0.176,0.041,0.193,0.046c0.117,0.034,0.191,0.075,0.35,0.166
			c0.059,0.015,0.157,0.095,0.211,0.138c0.016,0.014,0.038,0.033,0.062,0.055l0.012-0.012c0.091-0.092,0.181-0.158,0.287-0.21
			c0.207-0.112,0.408-0.099,0.557-0.089c0.164-0.011,0.301,0.013,0.397,0.043c0.083-0.024,0.149-0.04,0.199-0.047
			c0.492-0.103,0.896,0.147,1.032,0.595c0.062,0.2,0.028,0.359-0.013,0.5v0.527l-0.235,0.046c0.02,0.07,0.028,0.131,0.028,0.205
			c0,0.2-0.065,0.323-0.185,0.547l-0.09,0.132c0.081,0.021,0.159,0.045,0.213,0.064c0.046,0.018,0.09,0.037,0.13,0.059
			c0.056-0.141,0.144-0.264,0.238-0.358c0.006-0.013,0.063-0.104,0.065-0.109l0.125-0.195l0.899-0.414l0.316-0.042l0.586,0.03
			c0.001,0,0.013,0.002,0.029,0.005c0.165-0.101,0.37-0.154,0.557-0.154c0.05-0.062,0.136-0.171,0.167-0.214l0.194-0.217
			c0.056-0.092,0.104-0.165,0.173-0.235c0.097-0.12,0.148-0.181,0.186-0.219c0.012-0.024,0.024-0.047,0.037-0.069
			c0.002-0.131,0.026-0.272,0.094-0.41c0.021-0.043,0.034-0.081,0.049-0.121l0.216-0.401c0.386-0.408,0.545-0.503,0.735-0.55
			c0.164-0.039,0.295-0.027,0.363-0.023c0.252,0.002,0.446,0.078,0.606,0.163l0.491,0.008c0.346,0,0.569,0.133,0.701,0.252
			c0.004,0,0.009,0,0.013,0.001c0.295,0.024,0.562,0.21,0.699,0.483l0.327,0.599l0.182,0.043l0.511,0.449l0.437,0.294
			c0.054-0.019,0.108-0.032,0.162-0.04c0.037-0.029,0.081-0.064,0.133-0.107c0.544-0.446,0.976-0.186,1.094-0.095
			c0.224,0.171,0.395,0.5,0.257,0.938c-0.003,0.051-0.007,0.111-0.007,0.157l0.28,0.555l-0.093,0.062
			c0.025,0.028,0.048,0.057,0.068,0.086c0.031,0.022,0.074,0.058,0.119,0.104c0.219,0.219,0.285,0.531,0.189,0.852
			c0.038,0.027,0.078,0.055,0.115,0.079c0.036,0.024,0.07,0.048,0.102,0.071c0.058,0.002,0.11,0.004,0.138,0.004l0.748,0.002
			l0.019,0.163l0.522-0.158l0.384,1.215l0.272,0.432l-0.018,0.245c0,0.002-0.002,0.029-0.005,0.069
			c0.067,0.071,0.226,0.235,0.291,0.294c0.035,0.025,0.564,0.454,0.118,1.152c-0.004,0.033-0.019,0.206-0.019,0.206l-0.078,0.976
			c0.144,0.377,0.039,0.763-0.179,1.019l-0.348,0.522l-0.428,0.301c-0.013,0.13-0.01,0.183-0.01,0.229
			c0,0.064-0.005,0.122-0.014,0.174l0.204,0.109l0.54,0.385l0.081,0.215c0.025,0.066,0.081,0.193,0.137,0.285l0.78,0.746
			l0.475,0.607l-0.041,0.841l-0.25,0.343l0.125,0.305l0.473,0.434l0.092,0.553c0.007,0.044,0.023,0.141,0.007,0.337
			c0.194,0.348,0.218,0.438,0.232,0.494c0.047,0.184,0.074,0.3,0.074,0.426c0.009,0.013,0.067,0.278,0.067,0.278l0.076,0.34
			l-0.485,0.635c-0.015,0.031-0.033,0.07-0.05,0.11c0.025,0.036,0.051,0.078,0.073,0.126c0.047,0.025,0.099,0.053,0.139,0.068
			l0.477,0.191l0.068,0.545l-0.008,0.53l-0.07,0.024l0.027,0.041l0.462,0.203l0.122,0.24c0.119,0.235,0.2,0.402,0.246,0.544
			c0.003,0.004,0.007,0.008,0.01,0.012c0.255,0.235,0.255,0.563,0.255,0.998l-0.016,0.151c0,0.001-0.061,0.294-0.075,0.383
			c0.001,0.005-0.023,0.324-0.034,0.457l0.065,1.004L94.715,93.3l0.006,0.067c0,0.333-0.201,0.538-0.344,0.666l0.032,0.091
			l-0.032,0.234c0.005,0.051,0.004,0.105-0.004,0.162l0.116,0.153l-0.172,0.035c-0.057,0.121-0.155,0.248-0.318,0.37L93.61,95.37
			l-0.76-0.419c-0.312-0.172-0.425-0.404-0.46-0.589c-0.017-0.026-0.031-0.053-0.044-0.077c-0.043-0.027-0.092-0.063-0.14-0.108
			c-0.009,0.12-0.019,0.232-0.026,0.274c-0.03,0.169-0.08,0.278-0.13,0.371c-0.192,0.385-0.57,0.461-0.873,0.522l-0.296,0.064
			c-0.101,0.022-0.35,0.078-0.591,0.084c-0.048,0.027-0.108,0.065-0.156,0.099l-0.239,0.186c-0.051,0.08-0.118,0.187-0.153,0.247
			l-0.163,0.282l-0.392,0.128c-0.111,0.026-0.22,0.029-0.319,0.018c-0.011,0.052-0.024,0.103-0.044,0.154
			c-0.199,0.529-0.799,0.586-1.048,0.586c-0.158,0-0.279-0.012-0.394-0.038l-0.185,0.164c-0.012,0.018-0.025,0.036-0.037,0.055
			c-0.074,0.294-0.222,0.46-0.368,0.555l-0.009,0.18l-0.237,0.282c-0.253,0.234-0.546,0.21-0.645,0.204
			c-0.045-0.007,0.035-0.036,0.093-0.077c-0.196,0.126-0.518,0.273-0.907,0.114c-0.106,0.128-0.257,0.237-0.449,0.324l-0.425,0.191
			l-0.037-0.031c-0.005,0.003-0.01,0.006-0.015,0.008l-0.157,0.146c-0.004,0.006-0.014,0.02-0.03,0.037
			c0.016,0.115,0.013,0.221,0.011,0.298c-0.001,0.293-0.098,0.513-0.287,0.686c-0.032,0.043-0.072,0.081-0.116,0.113
			c0.155,0.104,0.28,0.188,0.28,0.188c0.059,0.04,0.174,0.127,0.277,0.261l0.069-0.004l0.29,0.368
			c0.116,0.175,0.214,0.466,0.019,0.859c-0.023,0.049-0.028,0.067-0.038,0.104l-0.08,0.221c-0.005,0.011-0.011,0.021-0.016,0.031
			c0.016,0.118,0.01,0.247-0.036,0.381l-0.018,0.051c0.104,0.129,0.165,0.208,0.212,0.303c0.055,0.11,0.077,0.211,0.142,0.509
			c0.017,0.079,0.033,0.159,0.048,0.222c0.211,0.061,0.44,0.186,0.557,0.477c0.021,0.055,0.046,0.14,0.069,0.243
			c0.009,0.038,0.019,0.082,0.031,0.126c0.346,0.135,0.46,0.394,0.499,0.549l0.016,0.069l0.253,0.045
			c0.063,0.022,0.115,0.048,0.16,0.073c0.202,0.026,0.409,0.144,0.573,0.347c0.177,0.142,0.258,0.315,0.317,0.483l-0.134,0.086
			c0.031,0.007,0.073,0.016,0.124,0.03l0.046-0.021c0.007,0.012,0.013,0.024,0.021,0.04c0.087,0.023,0.233,0.052,0.344,0.071
			c0.66-0.106,0.924,0.293,0.992,0.43c0.02,0.038,0.044,0.099,0.068,0.164l0.179,0.093c0.342-0.024,0.594,0.076,0.769,0.311
			c0.051,0.035,0.19,0.19,0.254,0.477l0.12-0.008l0.116,0.418c0.066,0.046,0.132,0.085,0.137,0.088l0.808,0.496l-0.444,0.446
			c0.031,0.061,0.056,0.126,0.073,0.197l0.031,0.081c0.071,0.19,0.14,0.371,0.13,0.573c0.005,0.172-0.044,0.314-0.104,0.424
			l0.008,0.134l-0.259,0.274c-0.273,0.258-0.59,0.222-0.798,0.198c-0.204-0.023-0.354-0.052-0.463-0.079
			c-0.038,0.031-0.078,0.06-0.117,0.088c0.016,0.068,0.028,0.146,0.036,0.23c0.282,0.491,0.002,0.896-0.191,1.089
			c-0.106,0.105-0.302,0.256-0.49,0.395l0.189,0.57l-1.035-0.079c-0.109,0.022-0.271,0.048-0.43,0.07
			c-0.014,0.021-0.028,0.042-0.044,0.062l-0.19,0.247l-0.347,0.061c-0.016,0.002-0.037,0.004-0.062,0.005
			c-0.059,0.095-0.134,0.172-0.209,0.23c0.013,0.029,0.022,0.054,0.028,0.069c0.029,0.031,0.302,0.404,0.303,0.407l0.114,0.235
			c0.001,0.002,0.017,0.061,0.038,0.132c0.152,0.102,0.314,0.266,0.374,0.532c0.025,0.115,0.042,0.308-0.051,0.521l0.365,0.062
			l0.06,0.682c0.003,0.048,0.002,0.095-0.001,0.139c0.208,0.218,0.217,0.492,0.217,0.538c0,0.244-0.108,0.424-0.196,0.569
			c-0.02,0.031-0.042,0.065-0.057,0.097c0.001,0,0.001,0,0.001,0c0.005,0,0.001,0.021-0.007,0.05
			c0.046,0.264,0.089,0.69-0.275,0.982c-0.043,0.062-0.306,0.366-0.76,0.366c-0.391,0-0.876-0.243-0.881-0.245
			c-0.096-0.047-0.287-0.142-0.629-0.691l-0.153-0.248l0.013-0.066c-0.056,0.003-0.104,0.001-0.155-0.002
			c-0.066-0.003-0.1-0.001-0.124,0.001c-0.091,0.008-0.177,0.007-0.283-0.011c-0.366,0.058-0.689-0.113-0.864-0.438
			c-0.023,0.181-0.108,0.498-0.388,0.695l-0.278,0.195l-0.377-0.071c-0.105-0.022-0.229-0.049-0.35-0.104
			c-0.12-0.016-0.295-0.027-0.358-0.027l-0.571,0.005l-0.409,0.065c-0.217,0.329-0.509,0.406-0.685,0.42
			c-0.087,0.203-0.229,0.351-0.326,0.438c-0.104,0.192-0.315,0.419-0.74,0.436c-0.247,0.152-0.423,0.152-0.492,0.152
			c-0.075,0-0.377-0.017-0.6-0.271c-0.088-0.001-0.165,0-0.225-0.003l-0.118,0.047c-0.342,0.133-0.845,0.008-1.097-0.272
			l-0.278-0.308l-0.573,0.233l-0.101-0.349l-0.232,0.146l-0.081-0.038c0.002,0.139-0.011,0.255-0.02,0.332
			c0.066,0.59-0.376,0.898-0.773,0.965c-0.072,0.013-0.14,0.042-0.159,0.053L73.816,120.999z M70.556,118.856l-0.059,0.053
			C70.519,118.894,70.538,118.876,70.556,118.856z M77.278,118.576C77.278,118.576,77.278,118.577,77.278,118.576
			C77.278,118.577,77.278,118.576,77.278,118.576z M65.409,118.465c-0.002,0-0.004,0.001-0.007,0.001
			C65.405,118.466,65.407,118.465,65.409,118.465z M75.193,118.301l0.23,0.12c0.003-0.006,0.022-0.043,0.034-0.105l-0.232-0.08
			L75.193,118.301z M78.196,118.274c0.16,0,0.308,0.038,0.434,0.11c0.052-0.135,0.15-0.312,0.334-0.54
			c0.104-0.129,0.303-0.307,0.621-0.33c0.109-0.155,0.246-0.29,0.384-0.377c0.159-0.097,0.438-0.207,0.788-0.053
			c0.08-0.009,0.165-0.013,0.257-0.013h0.646c0.136,0,0.256,0.005,0.362,0.013c0.04-0.16,0.085-0.245,0.15-0.332
			c0.285-0.394,0.635-0.497,0.878-0.513c0.225-0.015,0.42,0.023,0.579,0.114c0.286-0.042,0.566,0.064,0.775,0.309
			c0.073,0.047,0.138,0.103,0.191,0.166c0.024,0.002,0.054,0,0.086,0.001c0.085-0.035,0.18-0.062,0.295-0.084
			c0.123-0.025,0.302-0.059,0.488-0.024c0.005-0.064,0.016-0.127,0.032-0.187c-0.032-0.108-0.04-0.162-0.043-0.187
			c-0.028-0.191-0.001-0.354,0.056-0.497c-0.035-0.08-0.077-0.201-0.137-0.401c-0.346-0.481-0.372-0.546-0.402-0.619
			c-0.021-0.053-0.095-0.241-0.137-0.322c-0.11-0.192-0.146-0.396-0.104-0.614c0.026-0.268,0.195-0.489,0.372-0.651
			c0.034-0.335,0.25-0.561,0.476-0.67c0.06-0.03,0.121-0.052,0.187-0.066l-0.03-0.23l0.759-0.104
			c0.004-0.001,0.515-0.055,0.737-0.099c0.056-0.042,0.121-0.088,0.198-0.144c0.072-0.052,0.154-0.109,0.23-0.165
			c-0.004-0.027-0.007-0.055-0.01-0.084c-0.072-0.154-0.139-0.278-0.177-0.451c-0.068-0.328,0.028-0.56,0.122-0.697l0.181-0.264
			l0.282-0.064c0.231-0.124,0.29-0.196,0.3-0.21c0.139-0.237,0.313-0.359,0.472-0.421l-0.078-0.195l0.022-0.047
			c-0.154-0.118-0.256-0.281-0.306-0.489l-1.12,0.321l0.279-0.608l-0.183-0.092l-0.139-0.43c-0.003-0.016-0.006-0.033-0.008-0.052
			c-0.164-0.031-0.386-0.077-0.497-0.11c-0.112-0.011-0.218-0.039-0.37-0.105c-0.435-0.187-0.535-0.497-0.544-0.72
			c-0.017-0.035-0.032-0.071-0.052-0.123c-0.063-0.024-0.12-0.054-0.168-0.082c-0.119-0.019-0.277-0.056-0.449-0.141
			c-0.195-0.099-0.548-0.275-0.705-0.713c-0.006-0.005-0.012-0.009-0.018-0.014c-0.066-0.053-0.375-0.313-0.508-0.688
			c-0.053-0.012-0.106-0.026-0.159-0.046c-0.105-0.037-0.641-0.267-0.546-0.964c-0.021-0.084-0.044-0.186-0.065-0.286
			c-0.014-0.062-0.026-0.125-0.038-0.175l-0.026-0.025c-0.05-0.062-0.1-0.126-0.132-0.171c-0.083-0.099-0.166-0.196-0.24-0.346
			c-0.063-0.126-0.127-0.252-0.127-0.469c0-0.044,0.003-0.088,0.01-0.13c-0.114-0.235-0.146-0.523-0.027-0.805l0.097-0.232
			c-0.197-0.133-0.435-0.292-0.503-0.333c-0.204-0.118-0.313-0.278-0.375-0.404c-0.064-0.043-0.13-0.091-0.192-0.153
			c-0.205-0.208-0.291-0.463-0.253-0.722c-0.005-0.004-0.009-0.008-0.013-0.012c-0.109-0.11-0.203-0.205-0.309-0.373L80.91,99.36
			l0.068-0.389c0.038-0.136,0.127-0.317,0.337-0.453c0.147-0.117,0.318-0.168,0.473-0.196l0.13-0.175l-0.019-0.033
			c0.023-0.014,0.047-0.025,0.07-0.037l0.047-0.064c-0.06-0.008-0.206,0.017-0.32,0.072c0.094-0.048,0.201-0.075,0.328-0.082
			l0.066-0.09c0.025,0.017,0.062,0.044,0.105,0.077c0.287-0.077,0.502-0.008,0.645,0.076l0.158,0.093
			c0.031-0.028,0.054-0.049,0.073-0.065c0.083-0.088,0.208-0.216,0.386-0.297c0.01-0.007,0.021-0.015,0.03-0.022
			c0.168-0.268,0.4-0.352,0.541-0.378l0.251-0.048c0.018-0.011,0.035-0.022,0.054-0.033l0.141-0.086
			c0.133-0.127,0.334-0.257,0.604-0.257c0.002,0,0.004,0,0.006,0l0.406,0.041l0.341-0.541l0.115,0.02
			c0.024-0.037,0.054-0.077,0.087-0.122l0.104-0.115l0.338-0.303c0.362-0.32,0.697-0.448,1.013-0.377
			c0.087-0.362,0.285-0.586,0.556-0.672c0.07-0.024,0.359-0.059,0.651-0.033c0.008-0.011,0.012-0.018,0.012-0.018l0.169-0.184
			l0.37-0.286c0.562-0.392,0.839-0.413,1.044-0.386c0.006-0.003,0.12-0.02,0.166-0.029c0.041-0.01,0.08-0.019,0.115-0.027
			l-0.147-0.337l-0.16-0.536l0.945-0.578c0.245-0.075,0.523-0.141,0.796-0.027c0.05,0.013,0.113,0.024,0.117,0.025
			c0.241,0.021,0.396,0.07,0.508,0.131c0.169,0.046,0.42,0.13,0.575,0.368c0.023-0.171,0.084-0.324,0.179-0.459
			c0.036-0.051,0.076-0.1,0.116-0.145l-0.021-0.337l0.005-0.056c0,0,0.035-0.43,0.04-0.507c-0.001-0.043-0.001-0.076,0.084-0.493
			c0-0.023,0-0.051-0.001-0.078c-0.084-0.114-0.16-0.253-0.196-0.407c-0.01-0.022-0.022-0.05-0.035-0.077l-0.392-0.179l-0.197-0.273
			l-0.298-0.057L92.32,89.6c-0.15-0.285-0.098-0.608-0.009-0.858l-0.007-0.007c-0.121-0.137-0.195-0.249-0.241-0.337
			c-0.039-0.039-0.072-0.076-0.101-0.115c-0.257-0.346-0.21-0.701-0.195-0.817c0.008-0.059,0.031-0.251,0.27-0.75l0.193-0.279
			c-0.031-0.166-0.031-0.21-0.031-0.256c-0.035-0.054-0.12-0.202-0.123-0.206l-0.256-0.36l0.054-0.307
			c0.001-0.007,0.02-0.105,0.024-0.182l-0.34-0.312l-0.227-0.564c-0.006-0.005-0.104-0.188-0.134-0.25
			c-0.181-0.354-0.174-0.867,0.184-1.169l-0.016-0.021l-0.461-0.434c-0.144-0.092-0.276-0.231-0.399-0.415
			c-0.091-0.135-0.166-0.281-0.221-0.4l-0.122-0.087l-0.27-0.122c-0.059-0.032-0.109-0.062-0.154-0.091
			c-0.286-0.05-0.446-0.218-0.524-0.329c-0.128-0.184-0.236-0.495-0.027-0.938c0.035-0.074,0.063-0.133,0.088-0.179
			c-0.01-0.133-0.011-0.288,0.027-0.458c0.043-0.198,0.146-0.381,0.233-0.509l0.223-2.341l0.268-0.248
			c0.031-0.025,0.083-0.066,0.151-0.109c-0.15-0.16-0.252-0.378-0.252-0.64c0-0.064,0.002-0.138,0.005-0.206l-0.19-0.423
			l-0.318-0.123c-0.142-0.005-0.367-0.016-0.367-0.016l-0.289-0.014l-0.204-0.205c-0.007-0.006-0.052-0.045-0.121-0.091
			c-0.106-0.072-0.228-0.157-0.299-0.209c-0.174-0.087-0.419-0.263-0.502-0.584c-0.078-0.241-0.07-0.436-0.023-0.588
			c-0.039-0.032-0.072-0.062-0.099-0.087c-0.328-0.146-0.466-0.365-0.521-0.548L86.6,72.222c-0.315-0.157-0.412-0.256-0.453-0.298
			c-0.031-0.031-0.139-0.145-0.212-0.223l-0.355-0.229l-0.28-0.247l-1.059-0.303l0.006-0.137c-0.189,0.026-0.382-0.018-0.564-0.128
			c-0.012-0.006-0.022-0.014-0.034-0.021l-0.129,0.086l-0.103-0.011l0,0l0.049,0.252L83.179,71.3
			c-0.188,0.194-0.455,0.276-0.731,0.232c-0.106-0.019-0.2-0.051-0.28-0.087c-0.019,0.018-0.038,0.035-0.06,0.052l-0.002,0.002
			c0.022,0.062,0.038,0.111,0.046,0.141l0.087,0.353l-0.324,0.507l-0.429,0.553l-0.908-0.608c-0.043,0.006-0.087,0.009-0.132,0.009
			c-0.103,0-0.347-0.036-0.46-0.053l-0.222-0.009l0.021,0.221l-0.321,0.466c0.046,0.358-0.152,0.636-0.37,0.781
			c-0.13,0.087-0.384,0.216-0.384,0.216l-0.29,0.148l-0.714-0.311l-0.469-0.002l-0.085-0.238L77.01,73.88l0.642,0.855l-1.461-0.284
			l-0.012,0.009l-0.946-0.198l-0.094-0.377l-1.411-1.882l1.025,0.388c0.008-0.105,0.038-0.197,0.086-0.345l0.062-0.192l0.18-0.159
			l0.097-0.222l0.261-0.141c-0.258-0.043-0.635-0.184-0.771-0.531l-0.038-0.037c-0.008-0.005-0.016-0.009-0.024-0.014l-0.062-0.035
			l-0.402-0.13l0.021,0.218L73.5,71.007c-0.431,0.125-0.703-0.016-0.86-0.155l-0.017-0.014H72.49l-0.068-0.167l-0.283-0.162
			c-0.266-0.024-0.48-0.144-0.619-0.354c-0.062,0.008-0.104,0.009-0.118,0.009c-0.024,0-0.159-0.014-0.309-0.037
			c-0.084-0.013-0.177-0.028-0.222-0.032c-0.253,0.013-0.388,0.018-0.558-0.055c-0.311-0.112-0.488-0.423-0.488-0.908
			c0-0.266,0.271-0.965,0.881-0.965c0.104,0,0.178,0.014,0.342,0.072l0.268-0.277c-0.013-0.014-0.025-0.027-0.037-0.042
			c-0.026-0.034-0.049-0.066-0.068-0.099c-0.187-0.049-0.336-0.093-0.458-0.151c-0.081,0.195-0.183,0.38-0.41,0.493
			c-0.218,0.111-0.386,0.094-0.888,0.042l-0.183-0.019l-0.151-0.1c0,0-0.347-0.229-0.366-0.243
			c-0.009-0.007-0.079-0.068-0.162-0.144l-0.124-0.112c-0.088-0.032-0.324-0.126-0.373-0.146c0.007,0.018,0.013,0.036,0.02,0.055
			l0.258,0.456c0.113,0.128,0.338,0.384,0.351,0.404c0.286,0.438,0.33,0.505,0.368,0.63c0.015,0.056,0.083,0.386,0.083,0.386
			l0.093,0.445l-0.346,0.28c0.086,0.191,0.172,0.483,0.083,0.765c-0.063,0.262-0.203,0.435-0.348,0.548l0.155,0.097l0.083,0.268
			c0.082,0.267,0.102,0.427,0.071,0.59c-0.034,0.169-0.066,0.305-0.124,0.425l0.148,0.012l0,0c-0.002,0,0.329,0.009,0.517,0.062
			c0.105,0.031,0.607,0.243,0.696,0.296c0.116,0.072,0.141,0.094,0.539,0.545l0.151,0.211c0.094,0.072,0.182,0.146,0.217,0.186
			c0.105,0.099,0.249,0.233,0.331,0.434c0.069,0.163,0.108,0.264,0.123,0.309c0.027,0.02,0.049,0.033,0.051,0.034l0.217,0.219
			c0.042,0.023,0.074,0.042,0.099,0.058c0.013,0.007,0.031,0.018,0.05,0.026c0.031,0.005,0.063,0.011,0.095,0.017
			c0.13-0.01,0.271-0.001,0.418,0.053l0.23,0.084l0.197,0.223l0.355,0.533l-0.476,0.47c-0.204,0.21-0.465,0.299-0.815,0.273
			c-0.143-0.01-0.212-0.021-0.282-0.03c-0.277-0.032-0.437-0.104-0.532-0.158l-0.418,0.038l-0.225-0.336
			c-0.25-0.064-0.42-0.171-0.541-0.333c-0.034-0.044-0.096-0.127-0.329-0.613c-0.001,0-0.051-0.093-0.094-0.169
			c-0.134-0.112-0.386-0.284-0.386-0.284l-0.182-0.125l-0.093-0.23l-0.215-0.086c0.009,0.006-0.029,0.001-0.065-0.004
			c-0.112,0.032-0.285,0.068-0.557,0.103l-0.08,0.01l-0.336-0.029c0.027,0.023,0.053,0.05,0.078,0.079l0.241,0.28l-0.019,0.097
			c0.065,0.208,0.035,0.415-0.036,0.575c-0.019,0.043-0.04,0.081-0.062,0.116c0.017,0.064,0.027,0.138,0.027,0.218
			c0.024,0.069,0.055,0.216,0.038,0.381c0.026,0.436-0.234,0.671-0.392,0.77c-0.204,0.127-0.433,0.161-0.546,0.17l-0.001,0.012
			c0,0.004-0.011,0.168-0.008,0.241c0.014,0.099-0.002,0.197-0.026,0.284l0.202,0.106l-0.029,0.507
			c-0.012,0.12-0.027,0.247-0.041,0.311l-0.213,0.955l-1.148-0.628l-0.41-0.372l-0.256-0.73l0.105-0.262
			c-0.002,0.023,0.008,0.081,0.034,0.153c-0.022-0.069-0.037-0.147-0.041-0.236l-0.257,0.125l-0.44-0.303
			c-0.065-0.051-0.122-0.11-0.17-0.172l-0.498-0.197l-0.161-0.688l0.1-0.681l0.159-0.109c-0.028-0.074-0.045-0.146-0.059-0.21
			c-0.079-0.127-0.105-0.182-0.128-0.247c-0.009-0.021-0.018-0.044-0.026-0.066c-0.063,0.01-0.124,0.021-0.166,0.028
			c-0.065,0.022-0.139,0.039-0.229,0.062l-0.12,0.029c-0.083,0.027-0.168,0.04-0.257,0.047c-0.177,0.215-0.421,0.275-0.53,0.303
			c-0.1,0.024-0.35,0.082-0.536,0.082c-0.072,0-0.494-0.074-0.494-0.074l-0.126-0.037c-0.003-0.001-0.019-0.008-0.039-0.016
			c-0.031,0.033-0.06,0.061-0.077,0.078l0.068,0.104l-0.17,0.713l0.524,0.208l0.11,0.11c0.16,0.16,0.199,0.212,0.232,0.264
			c0-0.001,0-0.001,0-0.001c0.002,0,0.054,0.063,0.079,0.092c0.116,0.111,0.338,0.323,0.338,0.673
			c0.002,0.062,0.006,0.241-0.073,0.447l-0.023,0.518l-0.643,0.141c-0.046,0.006-0.091,0.007-0.137,0.007
			c0.005,0.062,0.009,0.11,0.009,0.118c0.003,0.044,0.04,0.581,0.04,0.581l0.005,0.069l-0.008,0.068c0,0.002-0.025,0.22-0.03,0.282
			c0.001,0.232-0.231,0.709-0.264,0.758c-0.01,0.019-0.069,0.131-0.102,0.196c-0.027,0.091-0.074,0.244-0.104,0.34
			c-0.009,0.133-0.024,0.374-0.026,0.434c0,0.088-0.078,0.583-0.215,0.792l-0.358,0.49c0.025,0.025,0.051,0.053,0.074,0.083
			c0.16,0.192,0.331,0.396,0.331,0.701c0.001,0.006,0.002,0.012,0.002,0.019l0.937,0.037l-1.313,1.543
			c-0.001,0-0.106,0.084-0.183,0.146c-0.01,0.02-0.024,0.045-0.04,0.073l0.036,0.437l-0.425,0.234
			c-0.007,0.004-0.014,0.008-0.021,0.012c0.096,0.295,0.123,0.517,0.013,0.751L59.6,87.239c-0.027,0.163-0.069,0.322-0.199,0.472
			c-0.069,0.083-0.185,0.208-0.295,0.28c-0.171,0.111-0.333,0.125-0.489,0.138l-0.002-0.007c-0.114,0.035-0.27,0.062-0.523,0.104
			l-0.169,0.029c-0.057,0.022-0.121,0.031-0.41,0.016c-0.22,0.193-0.602,0.316-0.924,0.203l-0.056,0.003l-0.054-0.007
			c-0.04,0.068-0.092,0.143-0.162,0.211c0.025,0.038,0.056,0.084,0.083,0.127c0.09,0.138,0.134,0.205,0.162,0.266
			c0.034,0.062,0.111,0.193,0.172,0.298c0.062,0.106,0.111,0.194,0.117,0.206c0.052,0.104,0.185,0.543,0.2,0.661
			c0.021,0.197-0.062,0.702-0.153,0.886l-0.056,0.126c-0.136,0.307-0.163,0.371-0.271,0.478l-0.124,0.171
			c0.282,0.281,0.373,0.688,0.214,1.041c-0.077,0.17-0.202,0.305-0.346,0.45c-0.087,0.122-0.198,0.201-0.34,0.259
			c0.045,0.091,0.076,0.175,0.091,0.233l0.075,0.308l-0.169,0.305c-0.021,0.034-0.114,0.152-0.218,0.278
			c-0.01,0.011-0.02,0.022-0.029,0.034c0.003,0.041,0.004,0.076,0.004,0.11c0.014,0.093,0.05,0.243,0.062,0.303
			c0.008,0.029,0.028,0.1,0.051,0.177l0.168,0.129c0.22,0.22,0.393,0.393,0.393,0.716c0,0.147-0.034,0.237-0.097,0.391
			c0.011,0.021,0.022,0.043,0.034,0.065c0.061,0.116,0.128,0.245,0.153,0.29l0,0c0,0,0.27,0.487,0.294,0.765
			c0.042,0.255,0.062,0.407,0.032,0.57l0.014,0.168l-0.045,0.113c-0.128,0.342-0.152,0.395-0.204,0.472
			c-0.086,0.128-0.181,0.197-0.324,0.299c-0.003,0.015-0.006,0.03-0.009,0.046c-0.04,0.211-0.095,0.486-0.109,0.615
			c0.008,0.154,0.016,0.444,0.021,0.629c0.041,0.081,0.084,0.158,0.114,0.206c0.171,0.123,0.434,0.337,0.644,0.513l0.226,0.187
			l0.038,0.29c0.104,0.777-0.114,1.068-0.288,1.22c-0.091,0.08-0.196,0.142-0.317,0.208c-0.012,0.062-0.026,0.136-0.044,0.222
			c-0.013,0.061-0.024,0.118-0.034,0.167l0.044,0.028c0.203,0.079,0.471,0.222,0.624,0.459c0.229,0.101,0.546,0.248,0.644,0.631
			l0.191,0.65c0.204-0.022,0.457-0.036,0.676,0.062l0.438-0.257l0.393,0.55c0.062,0.084,0.113,0.165,0.155,0.245l0.013-0.008
			c0.366-0.244,0.569-0.277,0.719-0.277c0.058-0.008,0.166-0.013,0.309,0.022l0.005-0.013l0.282,0.011l0.205,0.193
			c0.031,0.028,0.063,0.054,0.078,0.064c0.246,0.164,0.402,0.291,0.506,0.392c0.416-0.05,0.657,0.197,0.759,0.32
			c0.035,0.042,0.078,0.1,0.123,0.163c0.139-0.055,0.291-0.069,0.447-0.039c0.027,0.006,0.066,0.014,0.124,0.034
			c0.095-0.033,0.206-0.055,0.34-0.04l0.365,0.035l0.489,0.71c0.009,0.012,0.026,0.03,0.046,0.048l1.058,0.402l-1.273,1.148
			c-0.011,0.04-0.021,0.081-0.028,0.114c0.021,0.36-0.076,0.779-0.243,0.955c-0.164,0.156-0.334,0.217-0.506,0.231l-0.004,0.018
			l-0.4,0.439l-0.28,1.031c-0.026,0.082-0.099,0.268-0.119,0.332c0.004,0-0.068,0.45-0.068,0.451l-0.041,0.152l-0.409,1.023
			l-0.29,0.486l0.271,0.451l-0.12,0.335c-0.088,0.242-0.142,0.362-0.251,0.478l-0.137,0.145l-0.13,0.232
			c0.001,0-0.006,0.015-0.017,0.038c0.114,0.166,0.188,0.375,0.205,0.566c0.109,0.034,0.217,0.084,0.323,0.137l0.311,0.155
			l0.063,0.257c0.084,0.03,0.169,0.068,0.258,0.11c0.032,0,0.065-0.001,0.1-0.001c0.434-0.308,0.546-0.386,0.627-0.422l0.132-0.181
			l0.37-0.011c0.109-0.003,0.214,0.014,0.307,0.052c0.108-0.277,0.34-0.43,0.436-0.493c0.075-0.051,0.152-0.085,0.229-0.109
			c0.105-0.249,0.389-0.495,0.862-0.51c0.026-0.003,0.07,0.001,0.126,0.001c0.06,0,0.126-0.001,0.173-0.007
			c0.426-0.103,0.908,0.225,1.104,0.554c0.012-0.001,0.023-0.002,0.036-0.003l0.463-0.027l0.126,0.219
			c0.27,0.032,0.535,0.152,0.776,0.272l-0.001,0.004c0.079,0.033,0.146,0.076,0.204,0.123c0.379-0.104,0.761,0.104,0.964,0.216
			c0.132,0.063,0.213,0.134,0.528,0.512l2.336-0.484l-0.333,0.302c0.068,0.012,0.113,0.024,0.163,0.04
			c0.325,0.047,0.546,0.166,0.69,0.355l0.197,0.259l-0.024,0.222c0,0.004,0.001,0.009,0.001,0.014l0.151,0.03
			c0.003-0.03,0.006-0.056,0.008-0.076c-0.025-0.348,0.109-0.631,0.405-0.847c0.255-0.247,0.389-0.321,0.518-0.385
			c0.038-0.021,0.695-0.343,1.14,0.393c0.162,0.017,0.328,0.084,0.478,0.219l0.037,0.012c0.036,0.014,0.072,0.027,0.107,0.041
			c0.019-0.013,0.038-0.024,0.057-0.036c0.02-0.014,0.017-0.01,0.017-0.01c0.179-0.18,0.427-0.261,0.728-0.226
			c0.083-0.007,0.194-0.006,0.362,0.003l0.953,0.046l-0.265,0.896l0,0C78.024,118.285,78.112,118.274,78.196,118.274z
			 M82.493,117.772l-0.028,0.185l0.081-0.22L82.493,117.772z M66.324,117.135c-0.003,0.001-0.008,0.002-0.012,0.003
			C66.316,117.137,66.32,117.136,66.324,117.135z M66.28,116.593L66.28,116.593c0.002-0.009,0.003-0.019,0.004-0.027
			C66.284,116.567,66.283,116.576,66.28,116.593z M66.444,116.387c-0.042,0.023-0.088,0.059-0.139,0.11
			C66.351,116.453,66.396,116.417,66.444,116.387z M67.266,116.462c-0.002,0.001-0.004,0.001-0.006,0.002
			C67.262,116.463,67.264,116.463,67.266,116.462z M83.379,116.428c-0.002,0.001-0.005,0.003-0.008,0.004
			C83.374,116.431,83.377,116.429,83.379,116.428z M85.531,112.943c-0.007,0.003-0.013,0.007-0.02,0.01
			C85.521,112.948,85.528,112.944,85.531,112.943z M88.17,110.18c-0.011,0.002-0.028,0.006-0.051,0.012L88.17,110.18z
			 M90.144,108.538l0.041,0.146C90.176,108.63,90.161,108.58,90.144,108.538z M59.332,107.237l-0.025,0.013
			C59.315,107.246,59.323,107.242,59.332,107.237z M61.994,106.725c0,0.001,0.001,0.003,0.002,0.005
			C61.995,106.728,61.994,106.726,61.994,106.725z M86.964,106.465l-0.4,0.256l0.34-0.158L86.964,106.465z M86.933,105.883
			c0.001,0.001,0.002,0.003,0.004,0.004C86.936,105.886,86.934,105.884,86.933,105.883z M58.177,105.812
			c-0.023,0.015-0.046,0.03-0.067,0.048C58.124,105.848,58.147,105.832,58.177,105.812z M83.314,104.401
			c0.003,0.011,0.006,0.022,0.01,0.034C83.321,104.426,83.317,104.415,83.314,104.401z M57.27,104.392c0,0,0,0.001,0,0.002
			C57.27,104.393,57.27,104.392,57.27,104.392z M57.269,104.39C57.269,104.39,57.269,104.39,57.269,104.39
			S57.269,104.39,57.269,104.39z M56.471,104.02l-0.001,0.035C56.47,104.043,56.471,104.031,56.471,104.02z M83.681,103.424
			l-0.021,0.008c0.008-0.002,0.016-0.004,0.023-0.006L83.681,103.424z M83.688,103.421l-0.003,0.004
			c0.047-0.014,0.09-0.032,0.131-0.055L83.688,103.421z M83.936,103.271l-0.039,0.017C83.91,103.282,83.923,103.276,83.936,103.271z
			 M84.292,101.118c0.001,0.002,0.001,0.004,0.002,0.006C84.293,101.122,84.293,101.12,84.292,101.118z M56.17,100.797
			c0.006,0.004,0.012,0.008,0.019,0.012C56.183,100.805,56.177,100.801,56.17,100.797z M81.465,99.784c0,0.012,0,0.024,0.001,0.036
			c0-0.001,0.001-0.002,0.001-0.002L81.465,99.784z M55.293,97.871c0.002,0.027,0.006,0.051,0.009,0.071L55.293,97.871z
			 M83.828,97.848c-0.004,0.008-0.007,0.017-0.01,0.024C83.821,97.865,83.824,97.857,83.828,97.848z M85.299,97.789
			c0,0,0,0.001,0,0.002C85.299,97.79,85.299,97.789,85.299,97.789z M55.424,92.992c0.003,0.002,0.006,0.005,0.01,0.007
			C55.43,92.997,55.427,92.994,55.424,92.992z M93.981,88.239c0.006,0.014,0.011,0.027,0.016,0.041
			C93.992,88.267,93.987,88.253,93.981,88.239z M56.762,87.554c0.003,0.03,0.004,0.061,0.003,0.091
			C56.766,87.615,56.766,87.585,56.762,87.554L56.762,87.554z M56.928,87.023c0.062,0.012,0.118,0.022,0.135,0.027
			c-0.049-0.018-0.098-0.029-0.146-0.034L56.928,87.023z M92.324,83.996C92.324,83.996,92.324,83.996,92.324,83.996
			S92.324,83.996,92.324,83.996z M92.325,83.995L92.325,83.995L92.325,83.995z M92.327,83.994
			C92.326,83.994,92.326,83.994,92.327,83.994C92.326,83.994,92.326,83.994,92.327,83.994z M92.328,83.993L92.328,83.993
			L92.328,83.993z M59.538,83.346c-0.008,0.006-0.015,0.011-0.021,0.017C59.523,83.356,59.53,83.351,59.538,83.346z M92.54,83.329
			c0.001,0.001,0.002,0.003,0.003,0.005C92.542,83.332,92.541,83.33,92.54,83.329z M59.188,82.692
			c-0.001,0.003-0.002,0.007-0.002,0.011c0-0.001,0.001-0.002,0.001-0.002l0.001-0.004C59.188,82.696,59.188,82.694,59.188,82.692z
			 M59.201,82.547c0,0.001,0,0.001,0,0.002C59.201,82.548,59.201,82.548,59.201,82.547z M61.919,77.577
			c0.022,0.041,0.04,0.08,0.056,0.124C61.96,77.654,61.941,77.613,61.919,77.577z M66.782,77.507
			c0.011,0.019,0.028,0.052,0.05,0.093C66.818,77.569,66.802,77.538,66.782,77.507z M64.282,76.781c0,0.001,0,0.001,0,0.002
			C64.282,76.782,64.282,76.782,64.282,76.781z M72.169,76.693L72.169,76.693L72.169,76.693z M60.652,76.192
			c0,0.002,0,0.005,0.001,0.008C60.652,76.197,60.652,76.194,60.652,76.192z M71.975,75.453l0.015,0.129
			C71.989,75.571,71.99,75.522,71.975,75.453z M61.366,75.431c-0.018,0.006-0.039,0.012-0.064,0.019
			C61.322,75.444,61.344,75.438,61.366,75.431z M62.98,75.103l0.005,0.008c0.017-0.044,0.027-0.072,0.036-0.095
			C63.009,75.047,62.995,75.075,62.98,75.103z M68.817,74.428c-0.002,0-0.003,0.001-0.005,0.002
			C68.814,74.429,68.815,74.428,68.817,74.428z M66.549,74.398c0.015,0,0.062,0.004,0.119,0.01
			C66.63,74.402,66.59,74.398,66.549,74.398z M87.552,72.881c0.007,0.018,0.014,0.034,0.021,0.051L87.552,72.881z M79.268,72.693
			c-0.002,0.002-0.004,0.004-0.006,0.006C79.264,72.697,79.266,72.695,79.268,72.693z M68.439,71.601l-0.01,0.064
			C68.435,71.643,68.438,71.621,68.439,71.601z M83.017,70.796c-0.026,0.055-0.054,0.107-0.072,0.137
			C82.975,70.888,82.999,70.842,83.017,70.796z M81.331,70.243c-0.049,0.017-0.089,0.037-0.116,0.054L81.331,70.243z M76.929,69.387
			l0.118,0.006C77.002,69.388,76.957,69.386,76.929,69.387z M83.989,68.735l0.05,0.098l-0.001-0.104
			C84.036,68.729,84.019,68.729,83.989,68.735z"/>
	</g>
	<g>
		<polygon fill="#4D4D4D" points="63.035,118.948 62.652,117.244 64.377,117.475 64.363,118.812 		"/>
	</g>
</g>
<g>
	<path fill="#4D4D4D" d="M163.326,118.249h-46.987v-45.5h7.446v31.217h1.317l13.548-13.547v12.486l12.486-12.486v12.486
		l12.189-12.189V118.249z M117.839,116.749h43.987V94.337l-12.189,12.189V94.04l-12.486,12.486V94.04l-11.427,11.426h-3.438V74.249
		h-4.446V116.749z"/>
</g>
<g>
	<g>
		<path fill="#4D4D4D" d="M101.303,41.642H58.318V17.52h42.986V41.642z M59.525,40.434h40.571V18.727H59.525V40.434z"/>
	</g>
	<g>
		<path fill="#4D4D4D" d="M87.192,27.088c0,1.357-0.227,2.383-0.683,3.076c-0.455,0.694-1.122,1.041-2.003,1.041
			c-0.833,0-1.48-0.354-1.94-1.063c-0.461-0.708-0.691-1.727-0.691-3.054c0-1.352,0.221-2.37,0.664-3.055
			c0.443-0.684,1.099-1.027,1.967-1.027c0.862,0,1.526,0.354,1.99,1.063C86.96,24.778,87.192,25.784,87.192,27.088z M83.106,27.088
			c0,1.012,0.11,1.771,0.33,2.277c0.22,0.506,0.577,0.759,1.071,0.759c0.975,0,1.463-1.012,1.463-3.036
			c0-2.013-0.488-3.019-1.463-3.019c-0.494,0-0.851,0.25-1.071,0.75C83.215,25.319,83.106,26.076,83.106,27.088z M92.75,23.194
			l-7.235,13.057h-1.312l7.235-13.057H92.75z M95.052,32.321c0,1.352-0.227,2.374-0.683,3.068c-0.455,0.693-1.123,1.04-2.003,1.04
			c-0.845,0-1.495-0.354-1.949-1.063c-0.455-0.709-0.683-1.724-0.683-3.046c0-1.351,0.222-2.37,0.665-3.054
			c0.443-0.684,1.099-1.027,1.967-1.027c0.845,0,1.503,0.35,1.976,1.049C94.815,29.989,95.052,31,95.052,32.321z M90.956,32.321
			c0,1.018,0.11,1.779,0.33,2.282c0.22,0.503,0.58,0.755,1.079,0.755c0.5,0,0.868-0.248,1.106-0.746
			c0.238-0.497,0.357-1.261,0.357-2.291c0-1.018-0.119-1.773-0.357-2.264c-0.238-0.491-0.607-0.737-1.106-0.737
			c-0.5,0-0.86,0.246-1.079,0.737C91.066,30.549,90.956,31.303,90.956,32.321z"/>
	</g>
	<g>
		<rect x="59.127" y="30.307" fill="#4D4D4D" width="14.422" height="1.207"/>
	</g>
	<g>
		<rect x="59.127" y="32.699" fill="#4D4D4D" width="14.422" height="1.207"/>
	</g>
	<g>
		<rect x="59.127" y="35.091" fill="#4D4D4D" width="14.422" height="1.207"/>
	</g>
	<circle fill="#4D4D4D" cx="100.7" cy="17.918" r="1.915"/>
	<circle fill="#4D4D4D" cx="100.7" cy="41.038" r="1.915"/>
	<circle fill="#4D4D4D" cx="58.921" cy="17.918" r="1.915"/>
	<circle fill="#4D4D4D" cx="58.921" cy="41.038" r="1.915"/>
	<g>
		<path fill="#4D4D4D" d="M107.116,47.458h-54.55V11.715h54.55V47.458z M53.773,46.251h52.136V12.923H53.773V46.251z"/>
	</g>
</g>
<g>
	<polyline fill="none" stroke="#4D4D4D" stroke-miterlimit="10" points="43.25,27.25 6.75,27.25 6.75,66.167 	"/>
	<polygon fill="#4D4D4D" points="6.625,72.038 11.908,62.887 1.342,62.887 	"/>
</g>
<g>
	<polyline fill="none" stroke="#4D4D4D" stroke-miterlimit="10" points="115.008,27.25 151.508,27.25 151.508,66.167 	"/>
</g>
</svg>
