<?xml version="1.0" encoding="utf-8"?>
<!-- Generator: Adobe Illustrator 21.1.0, SVG Export Plug-In . SVG Version: 6.00 Build 0)  -->
<svg version="1.1" id="Ebene_1" xmlns="http://www.w3.org/2000/svg" xmlns:xlink="http://www.w3.org/1999/xlink" x="0px" y="0px"
	 viewBox="0 0 400 400" style="enable-background:new 0 0 400 400;" xml:space="preserve">
<style type="text/css">
	.st0{enable-background:new    ;}
	.st1{fill:#01B7FA;}
	.st2{fill:none;stroke:#666666;stroke-width:2;stroke-miterlimit:10;}
	.st3{fill:none;stroke:#01B7FA;stroke-width:2;stroke-miterlimit:10;}
	.st4{fill:#4D4D4D;}
	.st5{fill:none;stroke:#4D4D4D;stroke-width:2;stroke-miterlimit:10;}
</style>
<g>
	<path class="st1" d="M17,63.9V46.4h4.9l3.9,13.6l3.9-13.6h4.9v17.4h-2.8V49.6h-0.4l-4.1,13.6h-3l-4.1-13.6h-0.4v14.3H17z"/>
	<path class="st1" d="M47.7,55.1v5.8c0,0.4,0.1,0.6,0.3,0.8c0.2,0.2,0.5,0.3,0.8,0.3l-0.1,2.1c-1.5,0-2.6-0.3-3.4-0.9
		c-1.4,0.6-2.7,0.9-4.1,0.9c-2.5,0-3.8-1.3-3.8-4c0-1.3,0.3-2.2,1-2.8s1.7-0.9,3.2-1L45,56v-0.9c0-0.7-0.1-1.2-0.4-1.4
		s-0.7-0.4-1.3-0.4c-1.1,0-2.4,0.1-4.1,0.2l-0.8,0.1l-0.1-2c1.8-0.4,3.5-0.7,5.1-0.7s2.7,0.3,3.4,1C47.4,52.5,47.7,53.6,47.7,55.1z
		 M42,58.2c-1.2,0.1-1.8,0.7-1.8,1.9c0,1.2,0.5,1.8,1.6,1.8c0.8,0,1.7-0.1,2.7-0.4l0.5-0.2v-3.4L42,58.2z"/>
	<path class="st1" d="M51.2,63.9V51.2h2.7v1.5c1.4-0.9,2.9-1.5,4.3-1.8v2.8c-1.5,0.3-2.7,0.7-3.7,1.1L54,55v8.9H51.2z"/>
	<path class="st1" d="M63.1,63.9h-2.8v-18h2.8v10.4l1.6-0.2l3-5h3.1l-3.7,6l3.9,6.8h-3.1l-3.1-5.4l-1.7,0.2L63.1,63.9L63.1,63.9z"/>
	<path class="st1" d="M79.9,53.5h-3.5v5.6c0,1,0.1,1.7,0.2,2.1c0.2,0.3,0.5,0.5,1.2,0.5l2.1-0.1l0.1,2.2c-1.1,0.2-2,0.3-2.6,0.3
		c-1.4,0-2.4-0.3-3-1c-0.5-0.7-0.8-1.9-0.8-3.7v-5.9H72v-2.4h1.6v-3.7h2.7v3.7h3.5L79.9,53.5L79.9,53.5z"/>
	<path class="st1" d="M82.2,49v-2.9h2.8V49H82.2z M82.2,63.9V51.2h2.8v12.7H82.2z"/>
	<path class="st1" d="M91.1,63.9h-2.8V51.2H91v0.8c1.2-0.7,2.4-1.1,3.5-1.1c1.7,0,2.9,0.5,3.5,1.4s0.9,2.5,0.9,4.7v6.8h-2.7v-6.7
		c0-1.4-0.1-2.3-0.4-2.9c-0.3-0.6-0.9-0.9-1.8-0.9c-0.9,0-1.7,0.2-2.5,0.5L91.1,54L91.1,63.9L91.1,63.9z"/>
	<path class="st1" d="M112.6,45.9v18h-2.7v-0.7c-1.2,0.6-2.4,0.9-3.4,0.9c-1.7,0-2.9-0.5-3.7-1.5s-1.2-2.7-1.2-5s0.4-4.1,1.3-5.1
		c0.9-1.1,2.2-1.6,4-1.6c0.6,0,1.6,0.1,2.9,0.3v-5.3C109.8,45.9,112.6,45.9,112.6,45.9z M109.4,61.2l0.4-0.2v-7.5
		c-1-0.2-2-0.3-2.8-0.3c-1.7,0-2.6,1.4-2.6,4.3c0,1.6,0.2,2.6,0.6,3.2c0.4,0.6,1,0.9,1.9,0.9C107.8,61.7,108.6,61.5,109.4,61.2z"/>
	<path class="st1" d="M115.9,49v-2.9h2.8V49H115.9z M115.9,63.9V51.2h2.8v12.7H115.9z"/>
	<path class="st1" d="M124.8,63.9H122v-18h2.8v10.4l1.6-0.2l3-5h3.1l-3.7,6l3.9,6.8h-3.1l-3.1-5.4l-1.7,0.2V63.9z"/>
	<path class="st1" d="M144.1,55.1v5.8c0,0.4,0.1,0.6,0.3,0.8c0.2,0.2,0.5,0.3,0.8,0.3l-0.1,2.1c-1.5,0-2.6-0.3-3.4-0.9
		c-1.4,0.6-2.7,0.9-4.1,0.9c-2.5,0-3.8-1.3-3.8-4c0-1.3,0.3-2.2,1-2.8c0.7-0.6,1.7-0.9,3.2-1l3.3-0.3v-0.9c0-0.7-0.1-1.2-0.4-1.4
		c-0.3-0.3-0.7-0.4-1.3-0.4c-1.1,0-2.4,0.1-4.1,0.2l-0.8,0.1l-0.1-2c1.8-0.4,3.5-0.7,5.1-0.7s2.7,0.3,3.4,1
		C143.8,52.5,144.1,53.6,144.1,55.1z M138.4,58.2c-1.2,0.1-1.8,0.7-1.8,1.9c0,1.2,0.5,1.8,1.6,1.8c0.8,0,1.7-0.1,2.7-0.4l0.5-0.2
		v-3.4L138.4,58.2z"/>
	<path class="st1" d="M154.5,53.5H151v5.6c0,1,0.1,1.7,0.2,2.1c0.2,0.3,0.5,0.5,1.2,0.5l2.1-0.1l0.1,2.2c-1.1,0.2-2,0.3-2.6,0.3
		c-1.4,0-2.4-0.3-3-1c-0.5-0.7-0.8-1.9-0.8-3.7v-5.9h-1.6v-2.4h1.6v-3.7h2.7v3.7h3.5L154.5,53.5L154.5,53.5z"/>
	<path class="st1" d="M157.4,52.5c0.9-1.1,2.3-1.7,4.4-1.7s3.5,0.6,4.4,1.7c0.9,1.1,1.3,2.8,1.3,5c0,2.2-0.4,3.9-1.3,5
		c-0.8,1.1-2.3,1.7-4.4,1.7s-3.6-0.6-4.4-1.7c-0.8-1.1-1.3-2.8-1.3-5C156.1,55.3,156.6,53.6,157.4,52.5z M159.5,60.8
		c0.4,0.7,1.2,1,2.3,1s1.9-0.3,2.3-1c0.4-0.7,0.6-1.8,0.6-3.3c0-1.5-0.2-2.6-0.6-3.3c-0.4-0.6-1.2-1-2.3-1s-1.8,0.3-2.3,1
		c-0.4,0.6-0.6,1.7-0.6,3.3C158.9,59,159.1,60.1,159.5,60.8z"/>
	<path class="st1" d="M170.2,63.9V51.2h2.7v1.5c1.4-0.9,2.9-1.5,4.3-1.8v2.8c-1.5,0.3-2.7,0.7-3.7,1.1L173,55v8.9H170.2z"/>
	<path class="st1" d="M188.3,61.6l0.7-0.1l0.1,2.1c-1.9,0.4-3.6,0.6-5.1,0.6c-1.9,0-3.2-0.5-4.1-1.6s-1.2-2.7-1.2-5
		c0-4.5,1.8-6.8,5.5-6.8c3.6,0,5.3,1.9,5.3,5.8l-0.2,2h-7.9c0,1.1,0.2,1.8,0.7,2.3c0.4,0.5,1.3,0.7,2.5,0.7
		C185.8,61.7,187.1,61.7,188.3,61.6z M186.8,56.5c0-1.3-0.2-2.1-0.6-2.6c-0.4-0.5-1.1-0.8-2-0.8c-0.9,0-1.6,0.3-2.1,0.8
		c-0.4,0.5-0.7,1.4-0.7,2.6L186.8,56.5L186.8,56.5z"/>
	<path class="st1" d="M195,63.9h-2.8V51.2h2.7v0.8c1.2-0.7,2.4-1.1,3.5-1.1c1.7,0,2.9,0.5,3.5,1.4s0.9,2.5,0.9,4.7v6.8h-2.7v-6.7
		c0-1.4-0.1-2.3-0.4-2.9c-0.3-0.6-0.9-0.9-1.8-0.9c-0.9,0-1.7,0.2-2.5,0.5L195,54L195,63.9L195,63.9z"/>
</g>
<g>
	<path d="M24,173.8h-4.7v-13.1H24c2.1,0,3.5,0.8,4.2,2.5c0.4,1,0.6,2.2,0.6,3.8c0,3.3-0.8,5.4-2.5,6.2
		C25.7,173.6,24.9,173.8,24,173.8z M27.4,167c0-2.5-0.6-4.1-1.7-4.7c-0.5-0.3-1-0.4-1.7-0.4h-3.2v10.5H24
		C26.2,172.5,27.4,170.7,27.4,167z"/>
	<path d="M30.1,173.8l3.6-13.1h3.2l3.6,13.1h-1.4l-0.9-3.4h-5.6l-0.9,3.4H30.1z M34.8,161.9l-2,7.2h5l-2-7.2H34.8z"/>
	<path d="M43,160.7l3.3,5.6l3.3-5.6h1.6l-4,6.6l4,6.5h-1.6l-3.3-5.4l-3.3,5.4h-1.6l4-6.4l-4-6.7H43z"/>
</g>
<g>
	<path d="M262.9,161.1c1,0,1.9,0.2,2.5,0.6c1.4,0.8,2,2.8,2,6.1c0,2.3-0.4,3.9-1.1,4.8s-1.9,1.4-3.4,1.4c-1.5,0-2.7-0.5-3.4-1.4
		c-0.8-0.9-1.1-2.6-1.1-5c0-2.4,0.4-4.1,1.1-5.1C260.3,161.5,261.4,161.1,262.9,161.1z M263,162.4c-0.7,0-1.3,0.2-1.7,0.5
		c-0.9,0.6-1.3,2.3-1.3,4.9c0,1.9,0.2,3.2,0.7,3.9c0.5,0.7,1.3,1.1,2.3,1.1c1,0,1.8-0.4,2.3-1.1c0.5-0.7,0.7-2.1,0.7-4
		s-0.2-3.3-0.7-4.1S264,162.4,263,162.4z"/>
	<path d="M268.9,176.1l0.9-4.4h1.6l-1.3,4.4H268.9z"/>
	<path d="M281.8,173.8h-8v-1.2l3.7-3.8c0.6-0.7,1.1-1.2,1.4-1.5c0.3-0.3,0.6-0.7,0.8-1.2c0.2-0.5,0.3-0.9,0.3-1.4
		c0-0.8-0.2-1.4-0.7-1.7c-0.4-0.3-1.1-0.5-2.1-0.5c-0.8,0-1.7,0.1-2.7,0.3l-0.5,0.1l-0.1-1.2c1.2-0.3,2.4-0.5,3.7-0.5
		c1.3,0,2.2,0.3,2.9,0.8c0.6,0.5,1,1.4,1,2.5c0,0.9-0.2,1.7-0.6,2.3s-1.1,1.4-2,2.4l-3.3,3.4h6.3L281.8,173.8L281.8,173.8z"/>
	<path d="M292.1,161.3v1.3H286l-0.3,4.1c1-0.5,1.9-0.8,2.9-0.8c2.6,0,4,1.2,4,3.7c0,1.4-0.4,2.5-1.1,3.2c-0.7,0.7-1.8,1.1-3.1,1.1
		c-1.1,0-2.2-0.1-3.5-0.4l-0.6-0.1l0.2-1.2c1.5,0.3,2.7,0.4,3.7,0.4c1,0,1.7-0.3,2.2-0.8c0.5-0.5,0.8-1.2,0.8-2.1
		c0-0.9-0.2-1.6-0.7-2c-0.5-0.4-1.1-0.6-2-0.6c-0.5,0-0.9,0.1-1.4,0.2c-0.5,0.1-0.9,0.3-1.1,0.4l-0.4,0.2l-1-0.2l0.3-6.5
		L292.1,161.3L292.1,161.3z"/>
	<path d="M300.5,161.1c1.4,0,2.1,0.9,2.1,2.6c0,0.9-0.2,1.6-0.5,2c-0.4,0.4-0.9,0.7-1.5,0.7c-0.7,0-1.2-0.2-1.5-0.7
		c-0.4-0.4-0.5-1.1-0.5-2C298.4,161.9,299.1,161.1,300.5,161.1z M299.5,163.7c0,1.1,0.3,1.7,0.9,1.7c0.6,0,0.9-0.6,0.9-1.7
		c0-0.6-0.1-1-0.2-1.2c-0.1-0.3-0.4-0.4-0.7-0.4c-0.3,0-0.6,0.1-0.7,0.4C299.6,162.7,299.5,163.1,299.5,163.7z M300.8,173.8l3.9-13
		l0.9,0.3l-3.9,12.9L300.8,173.8z M303.8,171.3c0-1.7,0.7-2.6,2.1-2.6c1.4,0,2.1,0.9,2.1,2.6c0,0.9-0.2,1.5-0.5,2
		c-0.4,0.4-0.9,0.7-1.5,0.7c-0.7,0-1.2-0.2-1.5-0.7C303.9,172.8,303.8,172.2,303.8,171.3z M304.9,171.3c0,1.1,0.3,1.7,0.9,1.7
		c0.4,0,0.6-0.1,0.7-0.4c0.1-0.3,0.2-0.7,0.2-1.3c0-0.6-0.1-1-0.2-1.3c-0.1-0.3-0.4-0.4-0.7-0.4c-0.3,0-0.6,0.1-0.7,0.4
		C305,170.3,304.9,170.7,304.9,171.3z"/>
</g>
<g>
	<path d="M133,161.3v12.5h-1.5v-10.9l-3.2,2.1l-0.7-1.1l4-2.6L133,161.3L133,161.3z"/>
	<path d="M145.5,173.8h-8v-1.2l3.7-3.8c0.6-0.7,1.1-1.2,1.4-1.5c0.3-0.3,0.6-0.7,0.8-1.2c0.2-0.5,0.3-0.9,0.3-1.4
		c0-0.8-0.2-1.4-0.7-1.7c-0.4-0.3-1.1-0.5-2.1-0.5c-0.8,0-1.7,0.1-2.7,0.3l-0.5,0.1l-0.1-1.2c1.2-0.3,2.4-0.5,3.7-0.5
		c1.3,0,2.2,0.3,2.9,0.8c0.6,0.5,1,1.4,1,2.5c0,0.9-0.2,1.7-0.6,2.3c-0.4,0.7-1.1,1.4-2,2.4l-3.3,3.4h6.3L145.5,173.8L145.5,173.8z"
		/>
	<path d="M148.1,173.8v-2.2h1.6v2.2H148.1z"/>
	<path d="M160,162.6c-1.1-0.2-2.2-0.2-3.3-0.2c-1.1,0-1.9,0.4-2.5,1.1c-0.6,0.7-0.9,1.8-0.9,3.2l0.5-0.2c0.3-0.1,0.7-0.2,1.3-0.4
		c0.5-0.1,1-0.2,1.4-0.2c2.8,0,4.2,1.3,4.2,3.9c0,1.3-0.4,2.3-1.1,3.1s-1.8,1.1-3.2,1.1c-3,0-4.5-2.2-4.5-6.5c0-2.2,0.4-3.8,1.3-4.8
		c0.9-1,2.1-1.6,3.6-1.6c1,0,2,0.1,2.9,0.2l0.5,0.1L160,162.6z M156.4,167.2c-0.4,0-0.9,0.1-1.4,0.2c-0.5,0.1-0.9,0.2-1.2,0.4
		l-0.4,0.2c0,1.4,0.3,2.6,0.7,3.4c0.5,0.8,1.2,1.3,2.2,1.3c1,0,1.7-0.2,2.2-0.7c0.5-0.5,0.7-1.2,0.7-2.1s-0.2-1.5-0.7-2
		C157.9,167.5,157.3,167.2,156.4,167.2z"/>
	<path d="M162.8,161.6c1.2-0.4,2.5-0.5,3.8-0.5c1.4,0,2.3,0.3,2.9,0.8c0.6,0.5,0.9,1.3,0.9,2.5c0,0.6-0.1,1-0.2,1.3
		c-0.2,0.3-0.3,0.5-0.4,0.6c-0.1,0.1-0.2,0.3-0.4,0.4c-0.3,0.2-0.5,0.4-0.7,0.5l-0.2,0.1c0.7,0.3,1.3,0.6,1.6,1
		c0.4,0.4,0.5,1.1,0.5,2c0,1.3-0.3,2.2-1,2.8s-1.7,0.9-3.1,0.9c-1.1,0-2.3-0.1-3.5-0.4l-0.6-0.1l0.1-1.2c1.4,0.3,2.6,0.4,3.8,0.4
		c1.8,0,2.7-0.8,2.7-2.4c0-1.5-0.9-2.3-2.6-2.3h-2.5v-1.2h2.5c0.5,0,1-0.2,1.5-0.6s0.7-1,0.7-1.7c0-0.7-0.2-1.2-0.6-1.5
		c-0.4-0.3-1-0.5-2-0.5c-1,0-2,0.1-3,0.3l-0.5,0.1L162.8,161.6z"/>
	<path d="M177.4,161.1c1,0,1.9,0.2,2.5,0.6c1.4,0.8,2,2.8,2,6.1c0,2.3-0.4,3.9-1.1,4.8c-0.8,0.9-1.9,1.4-3.4,1.4
		c-1.5,0-2.7-0.5-3.4-1.4c-0.8-0.9-1.1-2.6-1.1-5c0-2.4,0.4-4.1,1.1-5.1C174.7,161.5,175.8,161.1,177.4,161.1z M177.4,162.4
		c-0.7,0-1.3,0.2-1.7,0.5c-0.9,0.6-1.3,2.3-1.3,4.9c0,1.9,0.2,3.2,0.7,3.9c0.5,0.7,1.3,1.1,2.3,1.1c1,0,1.8-0.4,2.3-1.1
		c0.5-0.7,0.7-2.1,0.7-4s-0.2-3.3-0.7-4.1C179.2,162.7,178.5,162.4,177.4,162.4z"/>
	<path d="M183.3,176.1l0.9-4.4h1.6l-1.3,4.4H183.3z"/>
	<path d="M193.7,173.8v-2.4h-6.1v-1.1l3.6-8.9h1.6l-3.6,8.8h4.5v-3.9h1.5v3.9h1.6v1.3h-1.6v2.4L193.7,173.8L193.7,173.8z"/>
	<path d="M206.6,162.6c-1.1-0.2-2.2-0.2-3.3-0.2c-1.1,0-1.9,0.4-2.5,1.1c-0.6,0.7-0.9,1.8-0.9,3.2l0.5-0.2c0.3-0.1,0.7-0.2,1.3-0.4
		c0.5-0.1,1-0.2,1.4-0.2c2.8,0,4.2,1.3,4.2,3.9c0,1.3-0.4,2.3-1.1,3.1s-1.8,1.1-3.2,1.1c-3,0-4.5-2.2-4.5-6.5c0-2.2,0.4-3.8,1.3-4.8
		c0.9-1,2.1-1.6,3.6-1.6c1,0,2,0.1,2.9,0.2l0.5,0.1L206.6,162.6z M203,167.2c-0.4,0-0.9,0.1-1.4,0.2c-0.5,0.1-0.9,0.2-1.2,0.4
		l-0.4,0.2c0,1.4,0.3,2.6,0.7,3.4c0.5,0.8,1.2,1.3,2.2,1.3s1.7-0.2,2.2-0.7c0.5-0.5,0.7-1.2,0.7-2.1s-0.2-1.5-0.7-2
		C204.5,167.5,203.9,167.2,203,167.2z"/>
</g>
<g>
	<path d="M134.9,224.7h-8v-1.2l3.7-3.8c0.6-0.7,1.1-1.2,1.4-1.5c0.3-0.3,0.6-0.7,0.8-1.2c0.2-0.5,0.4-0.9,0.4-1.4
		c0-0.8-0.2-1.4-0.7-1.7c-0.4-0.3-1.1-0.5-2.1-0.5c-0.8,0-1.7,0.1-2.7,0.3l-0.5,0.1l-0.1-1.2c1.2-0.3,2.4-0.5,3.7-0.5
		c1.3,0,2.2,0.3,2.9,0.8c0.6,0.5,1,1.4,1,2.5c0,0.9-0.2,1.7-0.6,2.3c-0.4,0.7-1.1,1.4-2,2.4l-3.3,3.4h6.3L134.9,224.7L134.9,224.7z"
		/>
	<path d="M145.2,212.2v1.3h-6.1l-0.3,4.1c1-0.5,2-0.8,2.9-0.8c2.6,0,4,1.2,4,3.7c0,1.4-0.4,2.5-1.1,3.2c-0.7,0.7-1.8,1.1-3.1,1.1
		c-1.1,0-2.2-0.1-3.5-0.4l-0.6-0.1l0.2-1.2c1.5,0.3,2.7,0.4,3.7,0.4c1,0,1.7-0.3,2.2-0.8c0.5-0.5,0.8-1.2,0.8-2.1
		c0-0.9-0.2-1.6-0.7-2c-0.5-0.4-1.1-0.6-2-0.6c-0.5,0-0.9,0.1-1.4,0.2c-0.5,0.1-0.9,0.3-1.1,0.4l-0.4,0.2l-1-0.2l0.3-6.5
		L145.2,212.2L145.2,212.2z"/>
	<path d="M148.1,224.7v-2.2h1.6v2.2H148.1z"/>
	<path d="M158.2,212.2v12.5h-1.5v-10.9l-3.2,2.1l-0.7-1.1l4-2.6L158.2,212.2L158.2,212.2z"/>
	<path d="M170.6,213.5c-1.1-0.2-2.2-0.2-3.3-0.2c-1.1,0-1.9,0.4-2.5,1.1c-0.6,0.7-0.9,1.8-0.9,3.2l0.5-0.2c0.3-0.1,0.7-0.2,1.3-0.4
		c0.5-0.1,1-0.2,1.4-0.2c2.8,0,4.2,1.3,4.2,3.9c0,1.3-0.4,2.3-1.1,3.1s-1.8,1.1-3.2,1.1c-3,0-4.5-2.2-4.5-6.5c0-2.2,0.4-3.8,1.3-4.8
		c0.9-1,2.1-1.6,3.6-1.6c1,0,2,0.1,2.9,0.2l0.5,0.1L170.6,213.5z M167,218.2c-0.4,0-0.9,0.1-1.4,0.2c-0.5,0.1-0.9,0.2-1.2,0.4
		l-0.4,0.2c0,1.4,0.3,2.6,0.7,3.4c0.5,0.8,1.2,1.3,2.2,1.3c1,0,1.7-0.2,2.2-0.7c0.5-0.5,0.7-1.2,0.7-2.1c0-0.9-0.2-1.5-0.7-2
		C168.5,218.4,167.8,218.2,167,218.2z"/>
	<path d="M179.4,212.2v12.5H178v-10.9l-3.2,2.1l-0.7-1.1l4-2.6L179.4,212.2L179.4,212.2z"/>
	<path d="M183.3,227l0.9-4.4h1.6l-1.3,4.4H183.3z"/>
	<path d="M193.7,224.7v-2.4h-6.1v-1.1l3.6-8.9h1.6l-3.6,8.8h4.5V217h1.5v3.9h1.6v1.3h-1.6v2.4L193.7,224.7L193.7,224.7z"/>
	<path d="M206.6,213.5c-1.1-0.2-2.2-0.2-3.3-0.2c-1.1,0-1.9,0.4-2.5,1.1c-0.6,0.7-0.9,1.8-0.9,3.2l0.5-0.2c0.3-0.1,0.7-0.2,1.3-0.4
		c0.5-0.1,1-0.2,1.4-0.2c2.8,0,4.2,1.3,4.2,3.9c0,1.3-0.4,2.3-1.1,3.1s-1.8,1.1-3.2,1.1c-3,0-4.5-2.2-4.5-6.5c0-2.2,0.4-3.8,1.3-4.8
		c0.9-1,2.1-1.6,3.6-1.6c1,0,2,0.1,2.9,0.2l0.5,0.1L206.6,213.5z M203,218.2c-0.4,0-0.9,0.1-1.4,0.2c-0.5,0.1-0.9,0.2-1.2,0.4
		l-0.4,0.2c0,1.4,0.3,2.6,0.7,3.4c0.5,0.8,1.2,1.3,2.2,1.3s1.7-0.2,2.2-0.7c0.5-0.5,0.7-1.2,0.7-2.1c0-0.9-0.2-1.5-0.7-2
		C204.5,218.4,203.9,218.2,203,218.2z"/>
</g>
<g>
	<path d="M145.8,275.6h-8v-1.2l3.7-3.8c0.6-0.7,1.1-1.2,1.4-1.5c0.3-0.3,0.6-0.7,0.8-1.2c0.2-0.5,0.3-0.9,0.3-1.4
		c0-0.8-0.2-1.4-0.7-1.7c-0.4-0.3-1.1-0.5-2.1-0.5c-0.8,0-1.7,0.1-2.7,0.3l-0.5,0.1l-0.1-1.2c1.2-0.3,2.4-0.5,3.7-0.5
		c1.3,0,2.2,0.3,2.9,0.8c0.7,0.5,1,1.4,1,2.5c0,0.9-0.2,1.7-0.6,2.3c-0.4,0.7-1.1,1.4-2,2.4l-3.3,3.4h6.3L145.8,275.6L145.8,275.6z"
		/>
	<path d="M148.4,275.6v-2.2h1.6v2.2H148.4z"/>
	<path d="M160.5,275.6h-8v-1.2l3.7-3.8c0.6-0.7,1.1-1.2,1.4-1.5c0.3-0.3,0.6-0.7,0.8-1.2c0.2-0.5,0.3-0.9,0.3-1.4
		c0-0.8-0.2-1.4-0.7-1.7c-0.4-0.3-1.1-0.5-2.1-0.5c-0.8,0-1.7,0.1-2.7,0.3l-0.5,0.1l-0.1-1.2c1.2-0.3,2.4-0.5,3.7-0.5
		c1.3,0,2.2,0.3,2.9,0.8c0.6,0.5,1,1.4,1,2.5c0,0.9-0.2,1.7-0.6,2.3s-1.1,1.4-2,2.4l-3.3,3.4h6.3L160.5,275.6L160.5,275.6z"/>
	<path d="M163.8,263.7c0.8-0.5,1.9-0.8,3.3-0.8c1.4,0,2.5,0.3,3.3,0.8c0.8,0.5,1.2,1.4,1.2,2.4c0,0.8-0.2,1.4-0.5,1.8
		c-0.3,0.4-0.9,0.8-1.6,1.1c0.8,0.3,1.3,0.7,1.7,1.2c0.4,0.5,0.6,1.1,0.6,1.9c0,2.4-1.6,3.6-4.7,3.6s-4.7-1.1-4.7-3.4
		c0-0.9,0.2-1.6,0.5-2c0.3-0.5,0.9-0.9,1.6-1.3c-0.7-0.3-1.2-0.7-1.5-1.2c-0.3-0.4-0.5-1-0.5-1.8C162.6,265.1,163,264.3,163.8,263.7
		z M164,272.2c0,1.5,1,2.3,3.1,2.3s3.1-0.8,3.1-2.4c0-0.7-0.2-1.2-0.6-1.5c-0.4-0.3-0.9-0.6-1.7-0.8h-2c-0.7,0.2-1.2,0.5-1.6,0.8
		C164.1,271,164,271.5,164,272.2z M170,266.3c0-1.4-1-2.1-2.9-2.1c-2,0-2.9,0.7-2.9,2.1c0,0.6,0.2,1,0.5,1.3
		c0.3,0.3,0.8,0.6,1.4,0.9h2c0.7-0.2,1.2-0.5,1.5-0.8C169.9,267.3,170,266.9,170,266.3z"/>
	<path d="M181.4,263.1v1.3h-6.1l-0.3,4.1c1-0.5,1.9-0.8,2.9-0.8c2.6,0,4,1.2,4,3.7c0,1.4-0.4,2.5-1.1,3.2c-0.7,0.7-1.8,1.1-3.1,1.1
		c-1.1,0-2.2-0.1-3.5-0.4l-0.6-0.1l0.2-1.2c1.5,0.3,2.7,0.4,3.7,0.4s1.7-0.3,2.2-0.8c0.5-0.5,0.8-1.2,0.8-2.1s-0.2-1.6-0.7-2
		s-1.1-0.6-2-0.6c-0.5,0-0.9,0.1-1.4,0.2c-0.5,0.1-0.9,0.3-1.1,0.4l-0.4,0.2l-1-0.2l0.3-6.5L181.4,263.1L181.4,263.1z"/>
	<path d="M183.6,277.9l0.9-4.4h1.6l-1.3,4.4H183.6z"/>
	<path d="M196.2,263.1v1.3h-6.1l-0.3,4.1c1-0.5,2-0.8,2.9-0.8c2.6,0,4,1.2,4,3.7c0,1.4-0.4,2.5-1.1,3.2c-0.7,0.7-1.8,1.1-3.1,1.1
		c-1.1,0-2.2-0.1-3.5-0.4l-0.6-0.1l0.2-1.2c1.5,0.3,2.7,0.4,3.7,0.4c1,0,1.7-0.3,2.2-0.8c0.5-0.5,0.8-1.2,0.8-2.1s-0.2-1.6-0.7-2
		c-0.5-0.4-1.1-0.6-2-0.6c-0.5,0-0.9,0.1-1.4,0.2c-0.5,0.1-0.9,0.3-1.1,0.4l-0.4,0.2l-1-0.2l0.3-6.5L196.2,263.1L196.2,263.1z"/>
	<path d="M204.6,275.6v-2.4h-6.1V272l3.6-8.9h1.6l-3.6,8.8h4.5V268h1.5v3.9h1.6v1.3h-1.6v2.4H204.6z"/>
</g>
<g>
	<path d="M133,315.7v12.5h-1.5v-10.9l-3.2,2.1l-0.7-1.1l4-2.6L133,315.7L133,315.7z"/>
	<path d="M143.6,315.7v12.5h-1.5v-10.9l-3.2,2.1l-0.7-1.1l4-2.6L143.6,315.7L143.6,315.7z"/>
	<path d="M148.1,328.2v-2.2h1.6v2.2H148.1z"/>
	<path d="M156.2,315.5c1,0,1.9,0.2,2.5,0.6c1.4,0.8,2,2.8,2,6.1c0,2.3-0.4,3.9-1.1,4.8c-0.8,0.9-1.9,1.4-3.4,1.4
		c-1.5,0-2.7-0.5-3.4-1.4s-1.1-2.6-1.1-5c0-2.4,0.4-4.1,1.1-5.1C153.5,316,154.6,315.5,156.2,315.5z M156.2,316.8
		c-0.7,0-1.3,0.2-1.7,0.5c-0.9,0.6-1.3,2.3-1.3,4.9c0,1.9,0.2,3.2,0.7,3.9s1.3,1.1,2.3,1.1c1,0,1.8-0.4,2.3-1.1
		c0.5-0.7,0.7-2.1,0.7-4c0-1.9-0.2-3.3-0.7-4.1C158,317.2,157.3,316.8,156.2,316.8z"/>
	<path d="M166.2,327.1c2.3,0,3.4-1.5,3.4-4.4c-1.3,0.5-2.3,0.7-3.3,0.7c-2.7,0-4.1-1.3-4.1-3.8c0-1.3,0.4-2.3,1.2-3
		c0.8-0.7,1.8-1.1,3.2-1.1c1.5,0,2.7,0.6,3.4,1.7c0.7,1.1,1.1,2.8,1.1,5c0,2.2-0.4,3.8-1.3,4.7c-0.8,1-2.1,1.5-3.7,1.5
		c-0.9,0-1.9-0.1-2.9-0.3l-0.5-0.1l0.1-1.2C164,327,165.1,327.1,166.2,327.1z M166.5,322.2c0.8,0,1.7-0.2,2.7-0.5l0.5-0.2
		c0-3.1-1-4.7-3-4.7c-0.9,0-1.6,0.3-2.1,0.8c-0.5,0.5-0.7,1.2-0.7,2.1C163.8,321.4,164.7,322.2,166.5,322.2z"/>
	<path d="M177.4,315.5c1,0,1.9,0.2,2.5,0.6c1.4,0.8,2,2.8,2,6.1c0,2.3-0.4,3.9-1.1,4.8c-0.8,0.9-1.9,1.4-3.4,1.4
		c-1.5,0-2.7-0.5-3.4-1.4c-0.8-0.9-1.1-2.6-1.1-5c0-2.4,0.4-4.1,1.1-5.1C174.7,316,175.8,315.5,177.4,315.5z M177.4,316.8
		c-0.7,0-1.3,0.2-1.7,0.5c-0.9,0.6-1.3,2.3-1.3,4.9c0,1.9,0.2,3.2,0.7,3.9s1.3,1.1,2.3,1.1c1,0,1.8-0.4,2.3-1.1
		c0.5-0.7,0.7-2.1,0.7-4c0-1.9-0.2-3.3-0.7-4.1C179.2,317.2,178.5,316.8,177.4,316.8z"/>
	<path d="M183.3,330.5l0.9-4.4h1.6l-1.3,4.4H183.3z"/>
	<path d="M188.3,316.1c1.2-0.4,2.5-0.5,3.8-0.5c1.4,0,2.3,0.3,2.9,0.8s0.9,1.3,0.9,2.5c0,0.6-0.1,1-0.2,1.3
		c-0.2,0.3-0.3,0.5-0.4,0.6c-0.1,0.1-0.2,0.3-0.4,0.4c-0.3,0.2-0.5,0.4-0.7,0.5l-0.2,0.1c0.7,0.3,1.3,0.6,1.6,1
		c0.4,0.4,0.5,1.1,0.5,2c0,1.3-0.3,2.2-1,2.8c-0.7,0.6-1.7,0.9-3.1,0.9c-1.1,0-2.3-0.1-3.5-0.4l-0.6-0.1l0.1-1.2
		c1.4,0.3,2.6,0.4,3.8,0.4c1.8,0,2.7-0.8,2.7-2.4c0-1.5-0.9-2.3-2.6-2.3h-2.5v-1.2h2.5c0.5,0,1-0.2,1.5-0.6s0.7-1,0.7-1.7
		s-0.2-1.2-0.6-1.5c-0.4-0.3-1-0.5-2-0.5c-1,0-2,0.1-3,0.3l-0.5,0.1L188.3,316.1z"/>
	<path d="M202.2,327.1c2.3,0,3.4-1.5,3.4-4.4c-1.3,0.5-2.3,0.7-3.3,0.7c-2.7,0-4.1-1.3-4.1-3.8c0-1.3,0.4-2.3,1.2-3
		c0.8-0.7,1.8-1.1,3.2-1.1c1.5,0,2.7,0.6,3.4,1.7c0.7,1.1,1.1,2.8,1.1,5c0,2.2-0.4,3.8-1.3,4.7c-0.8,1-2.1,1.5-3.7,1.5
		c-0.9,0-1.9-0.1-2.9-0.3l-0.5-0.1l0.1-1.2C200,327,201.1,327.1,202.2,327.1z M202.5,322.2c0.8,0,1.7-0.2,2.7-0.5l0.5-0.2
		c0-3.1-1-4.7-3-4.7c-0.9,0-1.6,0.3-2.1,0.8c-0.5,0.5-0.7,1.2-0.7,2.1C199.8,321.4,200.7,322.2,202.5,322.2z"/>
</g>
<g>
	<path d="M19.3,224.7v-13.1H22l3.7,11.1l3.7-11.1H32v13.1h-1.5v-11.5h-0.3l-3.8,11.1h-1.6l-3.8-11.1h-0.3v11.5H19.3z"/>
	<path d="M39.9,224.7h-4.7v-13.1h4.7c2.1,0,3.5,0.8,4.2,2.5c0.4,1,0.6,2.2,0.6,3.8c0,3.3-0.8,5.4-2.5,6.2
		C41.6,224.5,40.8,224.7,39.9,224.7z M43.3,217.9c0-2.5-0.6-4.1-1.7-4.7c-0.5-0.3-1-0.4-1.7-0.4h-3.2v10.5h3.2
		C42.1,223.4,43.3,221.6,43.3,217.9z"/>
	<path d="M46,224.7l3.6-13.1h3.2l3.6,13.1H55l-0.9-3.4h-5.6l-0.9,3.4H46z M50.7,212.8l-2,7.2h5l-2-7.2H50.7z"/>
	<path d="M58.9,211.6l3.3,5.6l3.3-5.6h1.6l-4,6.6l4,6.5h-1.6l-3.3-5.4l-3.4,5.4h-1.6l4.1-6.4l-4.1-6.7H58.9z"/>
</g>
<g>
	<path d="M250.3,220.1v-1.3h5.7v1.3H250.3z"/>
	<path d="M262.6,212c1,0,1.9,0.2,2.5,0.6c1.4,0.8,2,2.8,2,6.1c0,2.3-0.4,3.9-1.1,4.8s-1.9,1.4-3.4,1.4c-1.5,0-2.7-0.5-3.4-1.4
		c-0.8-0.9-1.1-2.6-1.1-5c0-2.4,0.4-4.1,1.1-5.1C259.9,212.5,261.1,212,262.6,212z M262.6,213.3c-0.7,0-1.3,0.2-1.7,0.5
		c-0.9,0.6-1.3,2.3-1.3,4.9c0,1.9,0.2,3.2,0.7,3.9c0.5,0.7,1.3,1.1,2.3,1.1c1,0,1.8-0.4,2.3-1.1c0.5-0.7,0.7-2.1,0.7-4
		c0-1.9-0.2-3.3-0.7-4.1C264.5,213.7,263.7,213.3,262.6,213.3z"/>
	<path d="M268.6,227l0.9-4.4h1.6l-1.3,4.4H268.6z"/>
	<path d="M281.4,224.7h-8v-1.2l3.7-3.8c0.6-0.7,1.1-1.2,1.4-1.5c0.3-0.3,0.6-0.7,0.8-1.2c0.2-0.5,0.3-0.9,0.3-1.4
		c0-0.8-0.2-1.4-0.7-1.7c-0.4-0.3-1.1-0.5-2.1-0.5c-0.8,0-1.7,0.1-2.7,0.3l-0.5,0.1l-0.1-1.2c1.2-0.3,2.4-0.5,3.7-0.5
		c1.3,0,2.2,0.3,2.9,0.8c0.7,0.5,1,1.4,1,2.5c0,0.9-0.2,1.7-0.6,2.3c-0.4,0.7-1.1,1.4-2,2.4l-3.3,3.4h6.3L281.4,224.7L281.4,224.7z"
		/>
	<path d="M284.2,213.5v-1.3h7.8v1.9l-4.8,10.8l-1.4-0.4l4.7-10.4v-0.5L284.2,213.5L284.2,213.5z"/>
	<path d="M300.1,212c1.4,0,2.1,0.9,2.1,2.6c0,0.9-0.2,1.6-0.5,2c-0.4,0.4-0.9,0.7-1.5,0.7s-1.2-0.2-1.5-0.7c-0.4-0.4-0.5-1.1-0.5-2
		C298,212.9,298.7,212,300.1,212z M299.2,214.6c0,1.1,0.3,1.7,0.9,1.7c0.6,0,0.9-0.6,0.9-1.7c0-0.6-0.1-1-0.2-1.2
		c-0.1-0.3-0.4-0.4-0.7-0.4c-0.3,0-0.6,0.1-0.7,0.4C299.3,213.6,299.2,214,299.2,214.6z M300.4,224.7l3.9-13l0.9,0.3l-3.9,12.9
		L300.4,224.7z M303.4,222.2c0-1.7,0.7-2.6,2.1-2.6c1.4,0,2.1,0.9,2.1,2.6c0,0.9-0.2,1.5-0.5,2c-0.4,0.4-0.9,0.7-1.5,0.7
		c-0.7,0-1.2-0.2-1.5-0.7S303.4,223.1,303.4,222.2z M304.6,222.2c0,1.1,0.3,1.7,0.9,1.7c0.4,0,0.6-0.1,0.7-0.4s0.2-0.7,0.2-1.3
		c0-0.6-0.1-1-0.2-1.3c-0.1-0.3-0.4-0.4-0.7-0.4c-0.3,0-0.6,0.1-0.7,0.4C304.6,221.2,304.6,221.6,304.6,222.2z"/>
</g>
<g>
	<path d="M22.9,316.2c-1.9,0-2.8,0.7-2.8,2.1c0,0.8,0.2,1.3,0.7,1.6c0.4,0.3,1.3,0.6,2.6,0.9c1.3,0.3,2.3,0.7,2.8,1.2
		s0.8,1.3,0.8,2.3c0,2.7-1.4,4-4.2,4c-0.9,0-2.1-0.1-3.5-0.3l-0.7-0.1l0.2-1.2c1.7,0.2,3,0.3,3.9,0.3c1.9,0,2.8-0.9,2.8-2.6
		c0-0.7-0.2-1.2-0.6-1.5s-1.2-0.6-2.3-0.8c-1.5-0.3-2.5-0.7-3.1-1.2c-0.6-0.5-0.9-1.3-0.9-2.5c0-2.3,1.4-3.5,4.2-3.5
		c0.9,0,2,0.1,3.3,0.3l0.6,0.1l-0.1,1.2C24.9,316.3,23.7,316.2,22.9,316.2z"/>
	<path d="M34.3,328.2h-4.7v-13.1h4.7c2.1,0,3.5,0.8,4.2,2.5c0.4,1,0.6,2.2,0.6,3.8c0,3.3-0.8,5.4-2.5,6.2
		C36,328.1,35.2,328.2,34.3,328.2z M37.6,321.5c0-2.5-0.6-4.1-1.7-4.7c-0.5-0.3-1-0.4-1.7-0.4H31v10.5h3.2
		C36.5,326.9,37.6,325.1,37.6,321.5z"/>
	<path d="M40.4,328.2l3.6-13.1h3.2l3.6,13.1h-1.4l-0.9-3.4h-5.6l-0.9,3.4H40.4z M45.1,316.4l-2,7.2h5l-2-7.2H45.1z"/>
	<path d="M53.2,315.1l3.3,5.6l3.3-5.6h1.6l-4,6.6l4,6.5h-1.6l-3.3-5.4l-3.4,5.4h-1.6l4-6.4l-4-6.7H53.2z"/>
</g>
<g>
	<path d="M250.3,323.7v-1.3h5.7v1.3H250.3z"/>
	<path d="M262.6,315.5c1,0,1.9,0.2,2.5,0.6c1.4,0.8,2,2.8,2,6.1c0,2.3-0.4,3.9-1.1,4.8s-1.9,1.4-3.4,1.4c-1.5,0-2.7-0.5-3.4-1.4
		c-0.8-0.9-1.1-2.6-1.1-5c0-2.4,0.4-4.1,1.1-5.1C259.9,316,261.1,315.5,262.6,315.5z M262.6,316.8c-0.7,0-1.3,0.2-1.7,0.5
		c-0.9,0.6-1.3,2.3-1.3,4.9c0,1.9,0.2,3.2,0.7,3.9c0.5,0.7,1.3,1.1,2.3,1.1c1,0,1.8-0.4,2.3-1.1c0.5-0.7,0.7-2.1,0.7-4
		c0-1.9-0.2-3.3-0.7-4.1C264.5,317.2,263.7,316.8,262.6,316.8z"/>
	<path d="M268.6,330.5l0.9-4.4h1.6l-1.3,4.4H268.6z"/>
	<path d="M279,328.2v-2.4h-6.1v-1.1l3.6-8.9h1.6l-3.6,8.8h4.5v-3.9h1.5v3.9h1.6v1.3h-1.6v2.4H279z"/>
	<path d="M291.9,317.1c-1.1-0.2-2.2-0.2-3.3-0.2s-1.9,0.4-2.5,1.1c-0.6,0.7-0.9,1.8-0.9,3.2l0.5-0.2c0.3-0.1,0.7-0.2,1.3-0.4
		c0.5-0.1,1-0.2,1.4-0.2c2.8,0,4.2,1.3,4.2,3.9c0,1.3-0.4,2.3-1.1,3.1c-0.8,0.7-1.8,1.1-3.2,1.1c-3,0-4.5-2.2-4.5-6.5
		c0-2.2,0.4-3.8,1.3-4.8c0.9-1,2.1-1.6,3.6-1.6c1,0,2,0.1,2.9,0.2l0.5,0.1L291.9,317.1z M288.2,321.7c-0.4,0-0.9,0.1-1.4,0.2
		c-0.5,0.1-0.9,0.2-1.2,0.4l-0.4,0.2c0,1.4,0.3,2.6,0.7,3.4c0.5,0.8,1.2,1.3,2.2,1.3c1,0,1.7-0.2,2.2-0.7c0.5-0.5,0.7-1.2,0.7-2.1
		s-0.2-1.5-0.7-2S289.1,321.7,288.2,321.7z"/>
	<path d="M300.1,315.5c1.4,0,2.1,0.9,2.1,2.6c0,0.9-0.2,1.6-0.5,2c-0.4,0.4-0.9,0.7-1.5,0.7s-1.2-0.2-1.5-0.7
		c-0.4-0.4-0.5-1.1-0.5-2C298,316.4,298.7,315.5,300.1,315.5z M299.2,318.2c0,1.1,0.3,1.7,0.9,1.7c0.6,0,0.9-0.6,0.9-1.7
		c0-0.6-0.1-1-0.2-1.2c-0.1-0.3-0.4-0.4-0.7-0.4c-0.3,0-0.6,0.1-0.7,0.4C299.3,317.2,299.2,317.6,299.2,318.2z M300.4,328.3l3.9-13
		l0.9,0.3l-3.9,12.9L300.4,328.3z M303.4,325.7c0-1.7,0.7-2.6,2.1-2.6c1.4,0,2.1,0.9,2.1,2.6c0,0.9-0.2,1.5-0.5,2
		c-0.4,0.4-0.9,0.7-1.5,0.7c-0.7,0-1.2-0.2-1.5-0.7S303.4,326.6,303.4,325.7z M304.6,325.7c0,1.1,0.3,1.7,0.9,1.7
		c0.4,0,0.6-0.1,0.7-0.4s0.2-0.7,0.2-1.3c0-0.6-0.1-1-0.2-1.3s-0.4-0.4-0.7-0.4c-0.3,0-0.6,0.1-0.7,0.4
		C304.6,324.7,304.6,325.2,304.6,325.7z"/>
</g>
<g>
	<path d="M18,263.8v-1.3h9.5v1.3h-4v11.8H22v-11.8L18,263.8L18,263.8z"/>
	<path d="M33.8,274.4l0.5-0.1l0,1.1c-1.4,0.2-2.7,0.3-3.7,0.3c-1.4,0-2.3-0.4-2.9-1.2c-0.6-0.8-0.9-2-0.9-3.7c0-3.3,1.3-5,4-5
		c1.3,0,2.2,0.4,2.9,1.1s0.9,1.8,0.9,3.4l-0.1,1.1h-6.2c0,1,0.2,1.8,0.6,2.3c0.4,0.5,1,0.8,2,0.8C31.8,274.5,32.8,274.5,33.8,274.4z
		 M33.2,270.3c0-1.2-0.2-2-0.6-2.5c-0.4-0.5-1-0.7-1.8-0.7c-0.8,0-1.5,0.3-1.9,0.8c-0.4,0.5-0.6,1.3-0.7,2.4H33.2z"/>
	<path d="M40.4,265.9c0.4,0,1.1,0.1,2.1,0.2l0.5,0.1l-0.1,1.2c-1-0.1-1.8-0.2-2.2-0.2c-1.1,0-1.8,0.3-2.2,0.8
		c-0.4,0.5-0.6,1.5-0.6,2.8c0,1.4,0.2,2.3,0.5,2.9c0.4,0.5,1.1,0.8,2.2,0.8l2.2-0.2l0.1,1.2c-1.2,0.2-2.1,0.3-2.6,0.3
		c-1.5,0-2.5-0.4-3.1-1.1c-0.6-0.8-0.8-2-0.8-3.8s0.3-3.1,0.9-3.8C38,266.3,39,265.9,40.4,265.9z"/>
	<path d="M50.1,275.6h-4.7v-13.1h4.7c2.1,0,3.5,0.8,4.2,2.5c0.4,1,0.6,2.2,0.6,3.8c0,3.3-0.8,5.4-2.5,6.2
		C51.8,275.4,51,275.6,50.1,275.6z M53.4,268.8c0-2.5-0.6-4.1-1.7-4.7c-0.5-0.3-1-0.4-1.7-0.4h-3.2v10.5h3.2
		C52.3,274.3,53.4,272.5,53.4,268.8z"/>
	<path d="M56.2,275.6l3.6-13.1h3.2l3.6,13.1h-1.4l-0.9-3.4h-5.6l-0.9,3.4H56.2z M60.9,263.7l-2,7.2h5l-2-7.2H60.9z"/>
	<path d="M69,262.5l3.3,5.6l3.3-5.6h1.6l-4,6.6l4,6.5h-1.6l-3.3-5.4l-3.3,5.4h-1.6l4-6.4l-4-6.7L69,262.5L69,262.5z"/>
</g>
<g>
	<path d="M262.1,262.9c1,0,1.9,0.2,2.5,0.6c1.4,0.8,2,2.8,2,6.1c0,2.3-0.4,3.9-1.1,4.8s-1.9,1.4-3.4,1.4c-1.5,0-2.7-0.5-3.4-1.4
		c-0.8-0.9-1.1-2.6-1.1-5s0.4-4.1,1.1-5.1C259.4,263.4,260.6,262.9,262.1,262.9z M262.1,264.2c-0.7,0-1.3,0.2-1.7,0.5
		c-0.9,0.6-1.3,2.3-1.3,4.9c0,1.9,0.2,3.2,0.7,3.9c0.5,0.7,1.3,1.1,2.3,1.1c1,0,1.8-0.4,2.3-1.1c0.5-0.7,0.7-2.1,0.7-4
		s-0.2-3.3-0.7-4.1C264,264.6,263.2,264.2,262.1,264.2z"/>
	<path d="M268,277.9l0.9-4.4h1.6l-1.3,4.4H268z"/>
	<path d="M276.9,262.9c1,0,1.9,0.2,2.5,0.6c1.4,0.8,2,2.8,2,6.1c0,2.3-0.4,3.9-1.1,4.8s-1.9,1.4-3.4,1.4c-1.5,0-2.7-0.5-3.4-1.4
		c-0.8-0.9-1.1-2.6-1.1-5s0.4-4.1,1.1-5.1C274.2,263.4,275.4,262.9,276.9,262.9z M276.9,264.2c-0.7,0-1.3,0.2-1.7,0.5
		c-0.9,0.6-1.3,2.3-1.3,4.9c0,1.9,0.2,3.2,0.7,3.9c0.5,0.7,1.3,1.1,2.3,1.1c1,0,1.8-0.4,2.3-1.1c0.5-0.7,0.7-2.1,0.7-4
		s-0.2-3.3-0.7-4.1C278.8,264.6,278,264.2,276.9,264.2z"/>
	<path d="M291.2,263.1v1.3h-6.1l-0.3,4.1c1-0.5,1.9-0.8,2.9-0.8c2.6,0,4,1.2,4,3.7c0,1.4-0.4,2.5-1.1,3.2c-0.7,0.7-1.8,1.1-3.1,1.1
		c-1.1,0-2.2-0.1-3.5-0.4l-0.6-0.1l0.2-1.2c1.5,0.3,2.7,0.4,3.7,0.4c1,0,1.7-0.3,2.2-0.8c0.5-0.5,0.8-1.2,0.8-2.1s-0.2-1.6-0.7-2
		c-0.5-0.4-1.1-0.6-2-0.6c-0.5,0-0.9,0.1-1.4,0.2c-0.5,0.1-0.9,0.3-1.1,0.4l-0.4,0.2l-1-0.2l0.3-6.5L291.2,263.1L291.2,263.1z"/>
	<path d="M299.6,262.9c1.4,0,2.1,0.9,2.1,2.6c0,0.9-0.2,1.6-0.5,2c-0.4,0.4-0.9,0.7-1.5,0.7c-0.7,0-1.2-0.2-1.5-0.7
		c-0.4-0.4-0.5-1.1-0.5-2C297.5,263.8,298.2,262.9,299.6,262.9z M298.7,265.5c0,1.1,0.3,1.7,0.9,1.7c0.6,0,0.9-0.6,0.9-1.7
		c0-0.6-0.1-1-0.2-1.2c-0.1-0.3-0.4-0.4-0.7-0.4c-0.3,0-0.6,0.1-0.7,0.4C298.7,264.5,298.7,264.9,298.7,265.5z M299.9,275.7l3.9-13
		l0.9,0.3l-3.9,12.9L299.9,275.7z M302.9,273.1c0-1.7,0.7-2.6,2.1-2.6c1.4,0,2.1,0.9,2.1,2.6c0,0.9-0.2,1.5-0.5,2
		c-0.4,0.4-0.9,0.7-1.5,0.7c-0.7,0-1.2-0.2-1.5-0.7C303.1,274.7,302.9,274,302.9,273.1z M304,273.1c0,1.1,0.3,1.7,0.9,1.7
		c0.4,0,0.6-0.1,0.7-0.4c0.1-0.3,0.2-0.7,0.2-1.3c0-0.6-0.1-1-0.2-1.3c-0.1-0.3-0.4-0.4-0.7-0.4c-0.3,0-0.6,0.1-0.7,0.4
		C304.1,272.1,304,272.5,304,273.1z"/>
</g>
<polygon class="st1" points="109.4,170.8 111.5,159.8 100.5,162.4 104.4,166.1 98,172.8 99,173.8 105.4,167.1 "/>
<polygon class="st1" points="109.4,214.5 111.5,225.6 100.5,223 104.4,219.3 98,212.5 99,211.6 105.4,218.3 "/>
<polygon class="st1" points="109.4,273.5 111.5,262.5 100.5,265.1 104.4,268.8 98,275.5 99,276.5 105.4,269.8 "/>
<polygon class="st1" points="109.4,317.2 111.5,328.3 100.5,325.6 104.4,322 98,315.2 99,314.3 105.4,321 "/>
</svg>
