<?xml version="1.0" encoding="utf-8"?>
<!-- Generator: Adobe Illustrator 21.1.0, SVG Export Plug-In . SVG Version: 6.00 Build 0)  -->
<svg version="1.1" id="Ebene_1" xmlns="http://www.w3.org/2000/svg" xmlns:xlink="http://www.w3.org/1999/xlink" x="0px" y="0px"
	 viewBox="0 0 400 400" style="enable-background:new 0 0 400 400;" xml:space="preserve">
<style type="text/css">
	.st0{enable-background:new    ;}
	.st1{fill:#01B7FA;}
	.st2{fill:none;stroke:#666666;stroke-width:2;stroke-miterlimit:10;}
	.st3{fill:none;stroke:#01B7FA;stroke-width:2;stroke-miterlimit:10;}
	.st4{fill:#4D4D4D;}
	.st5{fill:none;stroke:#4D4D4D;stroke-width:2;stroke-miterlimit:10;}
</style>
<g>
	<path class="st1" d="M24,64h-6V46.6h6c2.7,0,4.5,0.7,5.5,2c1,1.4,1.5,3.5,1.5,6.4c0,1.5-0.1,2.7-0.3,3.8c-0.2,1-0.5,2-1,2.8
		C28.7,63.2,26.8,64,24,64z M28.1,55c0-2.1-0.3-3.6-0.8-4.6c-0.5-0.9-1.6-1.4-3.3-1.4h-3.2v12.5H24c1.7,0,2.8-0.6,3.4-1.9
		c0.3-0.6,0.5-1.3,0.5-2C28,57,28.1,56.1,28.1,55z"/>
	<path class="st1" d="M32.5,64l4.3-17.4h5.6L46.7,64h-2.8L43,60.3h-6.7L35.3,64H32.5z M39,49l-2.2,8.8h5.6L40.3,49H39z"/>
	<path class="st1" d="M50.7,46.6l3.7,6.9l3.8-6.9h3l-5.2,8.9l5.2,8.6h-3.2l-3.7-6.6L50.5,64h-3l5.2-8.4l-5.2-9L50.7,46.6L50.7,46.6z
		"/>
	<path class="st1" d="M69.2,64V46.6H72V64H69.2z"/>
	<path class="st1" d="M78.5,64h-2.8V51.3h2.7v0.8c1.2-0.7,2.4-1.1,3.5-1.1c1.7,0,2.9,0.5,3.5,1.4s0.9,2.5,0.9,4.7V64h-2.7v-6.7
		c0-1.4-0.1-2.3-0.4-2.9c-0.3-0.6-0.9-0.9-1.8-0.9c-0.9,0-1.7,0.2-2.5,0.5l-0.4,0.2L78.5,64L78.5,64z"/>
	<path class="st1" d="M96.4,53.7h-3.5v5.6c0,1,0.1,1.7,0.2,2.1c0.2,0.3,0.5,0.5,1.2,0.5l2.1-0.1l0.1,2.2c-1.1,0.2-2,0.3-2.6,0.3
		c-1.4,0-2.4-0.3-3-1c-0.5-0.7-0.8-1.9-0.8-3.7v-5.9h-1.6v-2.4h1.6v-3.7h2.7v3.7h3.5C96.4,51.3,96.4,53.7,96.4,53.7z"/>
	<path class="st1" d="M98.7,64V51.3h2.7v1.5c1.4-0.9,2.9-1.5,4.3-1.8v2.8c-1.5,0.3-2.7,0.7-3.7,1.1l-0.6,0.2V64H98.7z"/>
	<path class="st1" d="M117.3,55.2V61c0,0.4,0.1,0.6,0.3,0.8c0.2,0.2,0.5,0.3,0.8,0.3l-0.1,2.1c-1.5,0-2.6-0.3-3.4-0.9
		c-1.4,0.6-2.7,0.9-4.1,0.9c-2.5,0-3.8-1.3-3.8-4c0-1.3,0.3-2.2,1-2.8c0.7-0.6,1.7-0.9,3.2-1l3.3-0.3v-0.9c0-0.7-0.1-1.2-0.4-1.4
		s-0.7-0.4-1.3-0.4c-1.1,0-2.4,0.1-4.1,0.2l-0.8,0.1l-0.1-2c1.8-0.4,3.5-0.7,5.1-0.7s2.7,0.3,3.4,1
		C116.9,52.7,117.3,53.8,117.3,55.2z M111.6,58.4c-1.2,0.1-1.8,0.7-1.8,1.9c0,1.2,0.5,1.8,1.6,1.8c0.8,0,1.7-0.1,2.7-0.4l0.5-0.2
		v-3.4L111.6,58.4z"/>
	<path class="st1" d="M131.1,46v18h-2.7v-0.7c-1.2,0.6-2.4,0.9-3.4,0.9c-1.7,0-2.9-0.5-3.6-1.5s-1.2-2.7-1.2-5s0.4-4.1,1.3-5.1
		c0.9-1.1,2.2-1.6,4-1.6c0.6,0,1.6,0.1,2.9,0.3V46C128.4,46,131.1,46,131.1,46z M127.9,61.4l0.4-0.2v-7.5c-1-0.2-2-0.3-2.8-0.3
		c-1.7,0-2.6,1.4-2.6,4.3c0,1.6,0.2,2.6,0.6,3.2c0.4,0.6,1,0.9,1.9,0.9S127.1,61.7,127.9,61.4z"/>
	<path class="st1" d="M143.9,55.2V61c0,0.4,0.1,0.6,0.3,0.8c0.2,0.2,0.5,0.3,0.8,0.3l-0.1,2.1c-1.5,0-2.6-0.3-3.4-0.9
		c-1.4,0.6-2.7,0.9-4.1,0.9c-2.5,0-3.8-1.3-3.8-4c0-1.3,0.3-2.2,1-2.8c0.7-0.6,1.7-0.9,3.2-1l3.3-0.3v-0.9c0-0.7-0.1-1.2-0.4-1.4
		c-0.3-0.3-0.7-0.4-1.3-0.4c-1.1,0-2.4,0.1-4.1,0.2l-0.8,0.1l-0.1-2c1.8-0.4,3.5-0.7,5.1-0.7s2.7,0.3,3.4,1
		C143.6,52.7,143.9,53.8,143.9,55.2z M138.2,58.4c-1.2,0.1-1.8,0.7-1.8,1.9c0,1.2,0.5,1.8,1.6,1.8c0.8,0,1.7-0.1,2.7-0.4l0.5-0.2
		v-3.4L138.2,58.4z"/>
	<path class="st1" d="M146.1,51.3h2.7l2.7,10.4h0.7l2.7-10.4h2.7l-4.8,18.2h-2.7l1.5-5.5h-2.2L146.1,51.3z"/>
</g>
<g>
	<path d="M22.1,92.2c-2.2,0-3.3,0.8-3.3,2.5c0,0.9,0.3,1.6,0.8,1.9c0.5,0.3,1.5,0.7,3.1,1c1.5,0.3,2.6,0.8,3.3,1.3s1,1.5,1,2.7
		c0,3.1-1.6,4.7-4.8,4.7c-1.1,0-2.4-0.1-4-0.4l-0.8-0.1l0.2-1.4c2,0.3,3.5,0.4,4.5,0.4c2.2,0,3.2-1,3.2-3c0-0.8-0.2-1.4-0.7-1.8
		s-1.4-0.7-2.7-0.9c-1.7-0.4-2.9-0.8-3.6-1.4c-0.7-0.6-1.1-1.5-1.1-2.9c0-2.7,1.6-4.1,4.9-4.1c1.1,0,2.3,0.1,3.8,0.3l0.7,0.1
		l-0.2,1.4C24.3,92.3,22.9,92.2,22.1,92.2z"/>
	<path d="M34.9,96.5h-3.5v5.2c0,1.3,0.1,2.1,0.3,2.5c0.2,0.4,0.6,0.6,1.3,0.6l2-0.1l0.1,1.4c-1,0.2-1.7,0.2-2.2,0.2
		c-1.1,0-1.9-0.3-2.4-0.8c-0.4-0.6-0.7-1.6-0.7-3.2v-5.8h-1.6v-1.4h1.6v-3.4h1.6v3.4h3.5C34.9,95.1,34.9,96.5,34.9,96.5z"/>
	<path d="M44.7,98.4v5.6c0,0.5,0.5,0.9,1.3,1l-0.1,1.3c-1.2,0-2-0.3-2.6-0.9c-1.3,0.6-2.6,0.9-3.9,0.9c-1,0-1.8-0.3-2.3-0.9
		c-0.5-0.6-0.8-1.4-0.8-2.5s0.3-1.9,0.8-2.4c0.5-0.5,1.4-0.8,2.5-0.9l3.4-0.3v-0.9c0-0.7-0.2-1.3-0.5-1.6c-0.3-0.3-0.8-0.5-1.3-0.5
		c-1.2,0-2.4,0.1-3.6,0.2l-0.7,0.1l-0.1-1.2c1.6-0.3,3-0.5,4.3-0.5c1.2,0,2.1,0.3,2.7,0.9S44.7,97.2,44.7,98.4z M38,102.9
		c0,1.3,0.6,2,1.7,2c1,0,2-0.2,2.9-0.5l0.5-0.2v-3.6l-3.2,0.3c-0.7,0.1-1.1,0.2-1.4,0.6C38.1,101.8,38,102.3,38,102.9z"/>
	<path d="M49.6,106.1H48v-11h1.6v0.8c1.2-0.7,2.3-1,3.4-1c1.5,0,2.4,0.4,2.9,1.2s0.8,2.2,0.8,4.2v5.8h-1.6v-5.7
		c0-1.5-0.1-2.6-0.5-3.1c-0.3-0.6-0.9-0.8-1.9-0.8c-0.5,0-1,0.1-1.5,0.2c-0.5,0.1-0.9,0.3-1.2,0.4l-0.4,0.2
		C49.6,97.2,49.6,106.1,49.6,106.1z"/>
	<path d="M68.2,90.3v15.7h-1.6v-0.7c-1.1,0.6-2.2,1-3.3,1c-0.6,0-1.1-0.1-1.5-0.2s-0.8-0.4-1.2-0.8c-0.8-0.8-1.2-2.2-1.2-4.4
		s0.4-3.7,1.1-4.6c0.7-0.9,1.9-1.4,3.5-1.4c0.8,0,1.7,0.1,2.7,0.3v-4.8L68.2,90.3L68.2,90.3z M62.5,104.7c0.3,0.1,0.6,0.2,1,0.2
		c0.4,0,0.9-0.1,1.4-0.2c0.5-0.1,0.9-0.3,1.2-0.4l0.4-0.2v-7.4c-0.9-0.2-1.8-0.3-2.6-0.3c-1.1,0-1.9,0.4-2.3,1.1
		c-0.4,0.7-0.7,1.8-0.7,3.3c0,1.7,0.3,2.8,0.8,3.4C61.9,104.4,62.2,104.6,62.5,104.7z"/>
	<path d="M83.1,91.6v14.5h-1.7V93.5L77.7,96l-0.8-1.3l4.6-3.1L83.1,91.6L83.1,91.6z"/>
	<path d="M97.6,106.1h-9.3v-1.4l4.2-4.5c0.7-0.8,1.3-1.3,1.6-1.7c0.3-0.4,0.6-0.9,0.9-1.4c0.3-0.5,0.4-1.1,0.4-1.6
		c0-0.9-0.3-1.6-0.8-2c-0.5-0.4-1.3-0.6-2.4-0.6c-1,0-2,0.1-3.2,0.4l-0.6,0.1L88.5,92c1.4-0.4,2.8-0.6,4.3-0.6s2.6,0.3,3.3,0.9
		c0.8,0.6,1.1,1.6,1.1,2.9c0,1-0.2,1.9-0.7,2.7s-1.2,1.7-2.3,2.7l-3.9,3.9h7.3L97.6,106.1L97.6,106.1z"/>
	<path d="M100.6,106.1v-2.5h1.8v2.5H100.6z"/>
	<path d="M114.4,93.1c-1.3-0.2-2.6-0.3-3.8-0.3c-1.2,0-2.2,0.4-2.9,1.3c-0.7,0.9-1,2.1-1,3.7l0.5-0.2c0.4-0.1,0.9-0.3,1.5-0.4
		c0.6-0.1,1.1-0.2,1.6-0.2c3.2,0,4.9,1.5,4.9,4.5c0,1.5-0.4,2.7-1.3,3.5s-2.1,1.2-3.7,1.2c-3.4,0-5.2-2.5-5.2-7.5
		c0-2.5,0.5-4.4,1.5-5.6c1-1.2,2.4-1.8,4.2-1.8c1.2,0,2.3,0.1,3.4,0.3l0.6,0.1L114.4,93.1z M110.2,98.5c-0.5,0-1,0.1-1.6,0.2
		s-1.1,0.3-1.4,0.4l-0.5,0.2c0,1.7,0.3,3,0.8,4c0.5,1,1.4,1.5,2.5,1.5s2-0.3,2.5-0.8s0.9-1.4,0.9-2.4s-0.3-1.8-0.8-2.3
		C112.1,98.8,111.3,98.5,110.2,98.5z"/>
	<path d="M117.7,92c1.4-0.4,2.8-0.6,4.4-0.6c1.6,0,2.7,0.3,3.4,0.9s1.1,1.6,1.1,2.9c0,0.7-0.1,1.2-0.3,1.5c-0.2,0.3-0.3,0.5-0.4,0.7
		c-0.1,0.2-0.3,0.3-0.4,0.5c-0.3,0.2-0.6,0.4-0.8,0.5l-0.2,0.2c0.8,0.3,1.5,0.7,1.9,1.2c0.4,0.5,0.6,1.3,0.6,2.3
		c0,1.5-0.4,2.6-1.1,3.3c-0.8,0.7-1.9,1.1-3.6,1.1c-1.3,0-2.6-0.1-4.1-0.4l-0.7-0.2l0.2-1.4c1.6,0.3,3.1,0.5,4.4,0.5
		c2.1,0,3.1-0.9,3.1-2.8c0-1.7-1-2.6-3-2.7h-2.9v-1.4h2.9c0.6,0,1.2-0.2,1.8-0.7s0.9-1.1,0.9-1.9s-0.2-1.4-0.7-1.7s-1.2-0.5-2.3-0.5
		c-1.2,0-2.3,0.1-3.5,0.3l-0.6,0.1L117.7,92z"/>
	<path d="M134.6,91.4c1.2,0,2.2,0.2,2.9,0.7c1.6,0.9,2.4,3.3,2.4,7c0,2.6-0.4,4.5-1.3,5.6s-2.2,1.6-3.9,1.6c-1.8,0-3.1-0.5-4-1.6
		s-1.3-3-1.3-5.7s0.4-4.7,1.3-5.9C131.5,91.9,132.8,91.4,134.6,91.4z M134.6,92.9c-0.8,0-1.5,0.2-2,0.5c-1,0.7-1.6,2.6-1.6,5.7
		c0,2.2,0.3,3.7,0.9,4.5c0.6,0.8,1.5,1.2,2.7,1.2c1.2,0,2.1-0.4,2.7-1.2s0.9-2.4,0.9-4.6s-0.3-3.8-0.8-4.7
		C136.7,93.3,135.8,92.9,134.6,92.9z"/>
	<path d="M141.5,108.8l1-5h1.8l-1.5,5H141.5z"/>
	<path d="M153.5,106.1v-2.8h-7v-1.3l4.1-10.3h1.8l-4.2,10.2h5.2v-4.5h1.7v4.5h1.8v1.5h-1.8v2.8L153.5,106.1L153.5,106.1z"/>
	<path d="M168.5,93.1c-1.3-0.2-2.6-0.3-3.8-0.3c-1.2,0-2.2,0.4-2.9,1.3c-0.7,0.9-1,2.1-1,3.7l0.5-0.2c0.4-0.1,0.9-0.3,1.5-0.4
		c0.6-0.1,1.1-0.2,1.6-0.2c3.2,0,4.9,1.5,4.9,4.5c0,1.5-0.4,2.7-1.3,3.5s-2.1,1.2-3.7,1.2c-3.4,0-5.2-2.5-5.2-7.5
		c0-2.5,0.5-4.4,1.5-5.6c1-1.2,2.4-1.8,4.2-1.8c1.2,0,2.3,0.1,3.4,0.3l0.6,0.1L168.5,93.1z M164.3,98.5c-0.5,0-1,0.1-1.6,0.2
		s-1.1,0.3-1.4,0.4l-0.5,0.2c0,1.7,0.3,3,0.8,4c0.5,1,1.4,1.5,2.5,1.5s2-0.3,2.5-0.8s0.9-1.4,0.9-2.4s-0.3-1.8-0.8-2.3
		C166.1,98.8,165.3,98.5,164.3,98.5z"/>
</g>
<g>
	<path d="M227.6,94.9v11.2h-1.3v-9.8l-2.9,1.9l-0.6-1l3.6-2.4H227.6z"/>
	<path d="M236.6,106.1v-2.2h-5.4v-1l3.2-8h1.4l-3.2,7.9h4.1v-3.5h1.3v3.5h1.4v1.2h-1.4v2.2H236.6z"/>
	<path d="M241.2,106.1v-1.9h1.4v1.9H241.2z"/>
	<path d="M248.5,94.7c0.9,0,1.7,0.2,2.3,0.5c1.2,0.7,1.8,2.5,1.8,5.4c0,2.1-0.3,3.5-1,4.3c-0.7,0.8-1.7,1.3-3.1,1.3
		c-1.4,0-2.4-0.4-3.1-1.2s-1-2.3-1-4.5c0-2.1,0.3-3.6,1-4.5C246.1,95.1,247.1,94.7,248.5,94.7z M248.5,95.9c-0.6,0-1.2,0.1-1.5,0.4
		c-0.8,0.6-1.2,2-1.2,4.4c0,1.7,0.2,2.8,0.7,3.5c0.4,0.6,1.1,1,2.1,1c0.9,0,1.6-0.3,2.1-1s0.7-1.8,0.7-3.6s-0.2-3-0.6-3.7
		C250.1,96.2,249.4,95.9,248.5,95.9z"/>
	<path d="M254.5,96.1v-1.2h7v1.7l-4.3,9.7l-1.2-0.4l4.2-9.4v-0.4L254.5,96.1L254.5,96.1z"/>
	<path d="M263.9,106.1v-1.9h1.4v1.9H263.9z"/>
	<path d="M274.8,106.1h-7.2V105l3.3-3.5c0.6-0.6,1-1,1.2-1.3s0.5-0.7,0.7-1.1c0.2-0.4,0.3-0.8,0.3-1.3c0-0.7-0.2-1.2-0.6-1.5
		c-0.4-0.3-1-0.4-1.9-0.4c-0.7,0-1.6,0.1-2.5,0.3l-0.4,0.1l-0.1-1.1c1.1-0.3,2.2-0.5,3.3-0.5s2,0.2,2.6,0.7c0.6,0.5,0.9,1.2,0.9,2.3
		c0,0.8-0.2,1.5-0.5,2.1c-0.4,0.6-1,1.3-1.8,2.1l-3,3h5.6L274.8,106.1L274.8,106.1z"/>
	<path d="M280.7,94.7c0.9,0,1.7,0.2,2.3,0.5c1.2,0.7,1.8,2.5,1.8,5.4c0,2.1-0.3,3.5-1,4.3c-0.7,0.8-1.7,1.3-3.1,1.3
		s-2.4-0.4-3.1-1.2s-1-2.3-1-4.5c0-2.1,0.3-3.6,1-4.5C278.3,95.1,279.3,94.7,280.7,94.7z M280.7,95.9c-0.6,0-1.2,0.1-1.5,0.4
		c-0.8,0.6-1.2,2-1.2,4.4c0,1.7,0.2,2.8,0.7,3.5c0.4,0.6,1.1,1,2.1,1s1.6-0.3,2.1-1s0.7-1.8,0.7-3.6s-0.2-3-0.6-3.7
		C282.4,96.2,281.7,95.9,280.7,95.9z"/>
	<path d="M292.1,94.9v11.2h-1.3v-9.8l-2.9,1.9l-0.6-1l3.6-2.4H292.1z"/>
	<path d="M296.3,96.1v-1.2h7v1.7l-4.3,9.7l-1.2-0.4l4.2-9.4v-0.4L296.3,96.1L296.3,96.1z"/>
	<path d="M227.6,115.3v11.2h-1.3v-9.8l-2.9,1.9l-0.6-1l3.6-2.4H227.6z"/>
	<path d="M238.7,116.5c-1-0.1-2-0.2-3-0.2c-1,0-1.7,0.3-2.2,1c-0.5,0.7-0.8,1.6-0.8,2.9l0.4-0.2c0.3-0.1,0.7-0.2,1.1-0.3
		c0.5-0.1,0.9-0.2,1.2-0.2c2.5,0,3.8,1.2,3.8,3.5c0,1.2-0.3,2.1-1,2.7c-0.7,0.6-1.7,1-2.9,1c-2.7,0-4-1.9-4-5.8c0-2,0.4-3.4,1.1-4.3
		c0.8-0.9,1.8-1.4,3.2-1.4c0.9,0,1.8,0.1,2.6,0.2l0.5,0.1L238.7,116.5z M235.4,120.6c-0.4,0-0.8,0.1-1.3,0.2s-0.8,0.2-1.1,0.3
		l-0.4,0.2c0,1.3,0.2,2.3,0.7,3.1c0.4,0.8,1.1,1.1,1.9,1.1c0.9,0,1.5-0.2,2-0.7c0.4-0.4,0.7-1.1,0.7-1.9c0-0.8-0.2-1.4-0.7-1.8
		C236.9,120.8,236.2,120.6,235.4,120.6z"/>
	<path d="M241.2,121v-1.9h1.4v1.9H241.2z M241.2,126.5v-1.9h1.4v1.9H241.2z"/>
	<path d="M252.1,126.5h-7.2v-1.1l3.3-3.5c0.6-0.6,1-1,1.2-1.3s0.5-0.7,0.7-1.1c0.2-0.4,0.3-0.8,0.3-1.3c0-0.7-0.2-1.2-0.6-1.5
		c-0.4-0.3-1-0.4-1.9-0.4c-0.7,0-1.6,0.1-2.5,0.3l-0.4,0.1l-0.1-1.1c1.1-0.3,2.2-0.5,3.3-0.5s2,0.2,2.6,0.7s0.9,1.2,0.9,2.3
		c0,0.8-0.2,1.5-0.5,2.1s-1,1.3-1.8,2.1l-3,3h5.6L252.1,126.5L252.1,126.5z"/>
	<path d="M257.4,125.5c2.1,0,3.1-1.3,3.1-3.9c-1.1,0.4-2.1,0.6-2.9,0.6c-2.4,0-3.7-1.1-3.7-3.4c0-1.1,0.4-2.1,1.1-2.7
		c0.7-0.7,1.6-1,2.8-1c1.4,0,2.4,0.5,3.1,1.5c0.7,1,1,2.5,1,4.5s-0.4,3.4-1.1,4.3c-0.8,0.9-1.9,1.3-3.3,1.3c-0.9,0-1.7-0.1-2.6-0.2
		l-0.4-0.1l0.1-1.1C255.5,125.4,256.5,125.5,257.4,125.5z M257.7,121.1c0.7,0,1.5-0.2,2.4-0.5l0.4-0.2c0-2.8-0.9-4.2-2.7-4.2
		c-0.8,0-1.4,0.2-1.9,0.7s-0.7,1.1-0.7,1.9C255.3,120.3,256.1,121.1,257.7,121.1z"/>
	<path d="M275.1,126.3c-1.2,0.2-2.2,0.4-3.1,0.4s-1.7-0.1-2.3-0.4s-1-0.7-1.3-1.2s-0.5-1.2-0.6-1.9s-0.2-1.6-0.2-2.6
		c0-1,0.1-1.9,0.2-2.6c0.1-0.7,0.3-1.3,0.6-1.9s0.8-0.9,1.3-1.2c0.6-0.2,1.3-0.4,2.2-0.4s2,0.1,3.2,0.4L275,116
		c-1.1-0.2-2.2-0.3-3.1-0.3c-1.2,0-2.1,0.4-2.5,1.1s-0.6,2-0.6,3.8c0,0.9,0,1.6,0.1,2.2s0.2,1,0.4,1.5c0.2,0.4,0.5,0.7,0.9,0.9
		s1,0.3,1.8,0.3s1.7-0.1,2.8-0.3L275.1,126.3z"/>
	<path d="M277.2,126.5v-11.8h7.2v1.2h-5.8v4.1h4.8v1.1h-4.8v4.2h5.8v1.2H277.2z"/>
	<path d="M289.8,115.7c-1.7,0-2.5,0.6-2.5,1.9c0,0.7,0.2,1.2,0.6,1.5s1.2,0.5,2.4,0.8c1.2,0.3,2,0.6,2.5,1c0.5,0.4,0.7,1.1,0.7,2.1
		c0,2.4-1.3,3.6-3.8,3.6c-0.8,0-1.9-0.1-3.1-0.3l-0.6-0.1l0.1-1.1c1.5,0.2,2.7,0.3,3.5,0.3c1.7,0,2.5-0.8,2.5-2.4
		c0-0.6-0.2-1.1-0.6-1.4c-0.4-0.3-1.1-0.5-2.1-0.7c-1.3-0.3-2.3-0.6-2.8-1.1c-0.6-0.4-0.8-1.2-0.8-2.3c0-2.1,1.3-3.2,3.8-3.2
		c0.8,0,1.8,0.1,3,0.3l0.6,0.1l-0.1,1.1C291.6,115.8,290.5,115.7,289.8,115.7z"/>
	<path d="M294.5,115.9v-1.2h8.5v1.2h-3.6v10.6h-1.3v-10.6H294.5z"/>
</g>
<g>
	<path d="M20.6,182.9v11.2h-1.3v-9.8l-2.9,1.9l-0.6-1l3.6-2.4L20.6,182.9L20.6,182.9z"/>
	<path d="M31.9,194.1h-7.2V193l3.3-3.5c0.6-0.6,1-1,1.2-1.3s0.5-0.7,0.7-1.1c0.2-0.4,0.3-0.8,0.3-1.3c0-0.7-0.2-1.2-0.6-1.5
		c-0.4-0.3-1-0.4-1.9-0.4c-0.7,0-1.6,0.1-2.5,0.3l-0.4,0.1l-0.1-1.1c1.1-0.3,2.2-0.5,3.3-0.5s2,0.2,2.6,0.7c0.6,0.5,0.9,1.2,0.9,2.3
		c0,0.8-0.2,1.5-0.5,2.1s-1,1.3-1.8,2.1l-3,3h5.6L31.9,194.1L31.9,194.1z"/>
	<path d="M34.2,194.1v-1.9h1.4v1.9H34.2z"/>
	<path d="M44.9,184.1c-1-0.1-2-0.2-3-0.2s-1.7,0.3-2.2,1c-0.5,0.7-0.8,1.6-0.8,2.9l0.4-0.2c0.3-0.1,0.7-0.2,1.1-0.3s0.9-0.2,1.2-0.2
		c2.5,0,3.8,1.2,3.8,3.5c0,1.2-0.3,2.1-1,2.7c-0.7,0.6-1.7,1-2.9,1c-2.7,0-4-1.9-4-5.8c0-2,0.4-3.4,1.1-4.3c0.8-0.9,1.8-1.4,3.2-1.4
		c0.9,0,1.8,0.1,2.6,0.2L45,183L44.9,184.1z M41.6,188.2c-0.4,0-0.8,0.1-1.3,0.2s-0.8,0.2-1.1,0.3l-0.4,0.2c0,1.3,0.2,2.3,0.7,3.1
		s1.1,1.1,1.9,1.1s1.5-0.2,2-0.7c0.4-0.4,0.7-1.1,0.7-1.9s-0.2-1.4-0.7-1.8S42.4,188.2,41.6,188.2z"/>
	<path d="M48,183.4c0.7-0.5,1.7-0.7,2.9-0.7c1.2,0,2.2,0.2,3,0.7s1.1,1.2,1.1,2.2c0,0.7-0.1,1.2-0.4,1.6s-0.8,0.7-1.4,1
		c0.7,0.3,1.2,0.7,1.5,1.1s0.5,1,0.5,1.7c0,2.1-1.4,3.2-4.2,3.2c-2.8,0-4.2-1-4.2-3c0-0.8,0.2-1.4,0.5-1.8c0.3-0.4,0.8-0.8,1.5-1.2
		c-0.6-0.3-1.1-0.7-1.3-1c-0.3-0.4-0.4-0.9-0.4-1.6C47,184.6,47.3,183.9,48,183.4z M48.2,191c0,1.4,0.9,2.1,2.8,2.1
		c1.9,0,2.8-0.7,2.8-2.2c0-0.6-0.2-1-0.5-1.3c-0.3-0.3-0.8-0.5-1.5-0.7H50c-0.6,0.2-1.1,0.4-1.4,0.8C48.3,189.9,48.2,190.4,48.2,191
		z M53.6,185.8c0-1.3-0.9-1.9-2.6-1.9s-2.6,0.6-2.6,1.9c0,0.5,0.1,0.9,0.4,1.2s0.7,0.6,1.3,0.8h1.8c0.6-0.2,1.1-0.4,1.4-0.7
		S53.6,186.3,53.6,185.8z"/>
	<path d="M60.5,182.7c0.9,0,1.7,0.2,2.3,0.5c1.2,0.7,1.8,2.5,1.8,5.4c0,2.1-0.3,3.5-1,4.3c-0.7,0.8-1.7,1.3-3.1,1.3
		c-1.4,0-2.4-0.4-3.1-1.2s-1-2.3-1-4.5c0-2.1,0.3-3.6,1-4.5S59.1,182.7,60.5,182.7z M60.5,183.9c-0.6,0-1.2,0.1-1.5,0.4
		c-0.8,0.6-1.2,2-1.2,4.4c0,1.7,0.2,2.8,0.7,3.5s1.1,1,2.1,1c0.9,0,1.6-0.3,2.1-1c0.4-0.6,0.7-1.8,0.7-3.6s-0.2-3-0.6-3.7
		C62.2,184.2,61.5,183.9,60.5,183.9z"/>
</g>
<g>
	<path d="M20.6,226.9v11.2h-1.3v-9.8l-2.9,1.9l-0.6-1l3.6-2.4L20.6,226.9L20.6,226.9z"/>
	<path d="M31.9,238.1h-7.2V237l3.3-3.5c0.6-0.6,1-1,1.2-1.3s0.5-0.7,0.7-1.1c0.2-0.4,0.3-0.8,0.3-1.3c0-0.7-0.2-1.2-0.6-1.5
		c-0.4-0.3-1-0.4-1.9-0.4c-0.7,0-1.6,0.1-2.5,0.3l-0.4,0.1l-0.1-1.1c1.1-0.3,2.2-0.5,3.3-0.5s2,0.2,2.6,0.7c0.6,0.5,0.9,1.2,0.9,2.3
		c0,0.8-0.2,1.5-0.5,2.1s-1,1.3-1.8,2.1l-3,3h5.6L31.9,238.1L31.9,238.1z"/>
	<path d="M34.2,238.1v-1.9h1.4v1.9H34.2z"/>
	<path d="M44.9,228.1c-1-0.1-2-0.2-3-0.2s-1.7,0.3-2.2,1c-0.5,0.7-0.8,1.6-0.8,2.9l0.4-0.2c0.3-0.1,0.7-0.2,1.1-0.3s0.9-0.2,1.2-0.2
		c2.5,0,3.8,1.2,3.8,3.5c0,1.2-0.3,2.1-1,2.7c-0.7,0.6-1.7,1-2.9,1c-2.7,0-4-1.9-4-5.8c0-2,0.4-3.4,1.1-4.3c0.8-0.9,1.8-1.4,3.2-1.4
		c0.9,0,1.8,0.1,2.6,0.2L45,227L44.9,228.1z M41.6,232.2c-0.4,0-0.8,0.1-1.3,0.2s-0.8,0.2-1.1,0.3l-0.4,0.2c0,1.3,0.2,2.3,0.7,3.1
		s1.1,1.1,1.9,1.1s1.5-0.2,2-0.7c0.4-0.4,0.7-1.1,0.7-1.9s-0.2-1.4-0.7-1.8S42.4,232.2,41.6,232.2z"/>
	<path d="M47.5,227.2c1.1-0.3,2.2-0.5,3.4-0.5s2.1,0.2,2.6,0.7s0.8,1.2,0.8,2.2c0,0.5-0.1,0.9-0.2,1.1c-0.1,0.2-0.3,0.4-0.3,0.5
		s-0.2,0.2-0.3,0.4c-0.2,0.2-0.4,0.3-0.6,0.4l-0.2,0.1c0.7,0.2,1.1,0.5,1.5,0.9c0.3,0.4,0.5,1,0.5,1.8c0,1.1-0.3,2-0.9,2.6
		c-0.6,0.6-1.5,0.8-2.8,0.8c-1,0-2.1-0.1-3.2-0.3l-0.5-0.1l0.1-1.1c1.2,0.2,2.4,0.4,3.4,0.4c1.6,0,2.4-0.7,2.4-2.2
		c0-1.3-0.8-2.1-2.3-2.1h-2.3v-1.1H51c0.5,0,0.9-0.2,1.4-0.6c0.4-0.4,0.7-0.9,0.7-1.5c0-0.6-0.2-1.1-0.5-1.4s-0.9-0.4-1.8-0.4
		c-0.9,0-1.8,0.1-2.7,0.3l-0.4,0.1L47.5,227.2z"/>
	<path d="M57.5,227.4c0.7-0.5,1.7-0.7,2.9-0.7c1.2,0,2.2,0.2,3,0.7c0.7,0.5,1.1,1.2,1.1,2.2c0,0.7-0.1,1.2-0.4,1.6
		c-0.3,0.4-0.8,0.7-1.4,1c0.7,0.3,1.2,0.7,1.5,1.1c0.3,0.4,0.5,1,0.5,1.7c0,2.1-1.4,3.2-4.2,3.2s-4.2-1-4.2-3c0-0.8,0.2-1.4,0.5-1.8
		c0.3-0.4,0.8-0.8,1.5-1.2c-0.6-0.3-1.1-0.7-1.3-1c-0.3-0.4-0.4-0.9-0.4-1.6C56.5,228.6,56.8,227.9,57.5,227.4z M57.7,235
		c0,1.4,0.9,2.1,2.8,2.1s2.8-0.7,2.8-2.2c0-0.6-0.2-1-0.5-1.3c-0.3-0.3-0.8-0.5-1.5-0.7h-1.8c-0.6,0.2-1.1,0.4-1.4,0.8
		C57.8,233.9,57.7,234.4,57.7,235z M63.1,229.8c0-1.3-0.9-1.9-2.6-1.9c-1.8,0-2.6,0.6-2.6,1.9c0,0.5,0.1,0.9,0.4,1.2
		c0.3,0.3,0.7,0.6,1.3,0.8h1.8c0.6-0.2,1.1-0.4,1.4-0.7C63,230.7,63.1,230.3,63.1,229.8z"/>
</g>
<g>
	<path d="M20.6,270.9v11.2h-1.3v-9.8l-2.9,1.9l-0.6-1l3.6-2.4H20.6L20.6,270.9z"/>
	<path d="M31.9,282.1h-7.2V281l3.3-3.5c0.6-0.6,1-1,1.2-1.3s0.5-0.7,0.7-1.1c0.2-0.4,0.3-0.8,0.3-1.3c0-0.7-0.2-1.2-0.6-1.5
		c-0.4-0.3-1-0.4-1.9-0.4c-0.7,0-1.6,0.1-2.5,0.3l-0.4,0.1l-0.1-1.1c1.1-0.3,2.2-0.5,3.3-0.5s2,0.2,2.6,0.7c0.6,0.5,0.9,1.2,0.9,2.3
		c0,0.8-0.2,1.5-0.5,2.1c-0.4,0.6-1,1.3-1.8,2.1l-3,3h5.6L31.9,282.1L31.9,282.1z"/>
	<path d="M34.2,282.1v-1.9h1.4v1.9H34.2z"/>
	<path d="M44.8,270.9v1.2h-5.5l-0.3,3.7c0.9-0.5,1.8-0.7,2.6-0.7c2.4,0,3.6,1.1,3.6,3.3c0,1.3-0.3,2.2-1,2.9c-0.7,0.7-1.6,1-2.8,1
		c-1,0-2-0.1-3.2-0.4l-0.6-0.1l0.2-1c1.3,0.2,2.4,0.4,3.3,0.4c0.9,0,1.6-0.2,2-0.7c0.5-0.5,0.7-1.1,0.7-1.9c0-0.8-0.2-1.4-0.6-1.8
		c-0.4-0.3-1-0.5-1.8-0.5c-0.4,0-0.8,0.1-1.3,0.2c-0.4,0.1-0.8,0.2-1,0.3l-0.4,0.2l-0.9-0.2l0.3-5.8H44.8z"/>
	<path d="M50.4,281.1c2.1,0,3.1-1.3,3.1-3.9c-1.1,0.4-2.1,0.6-2.9,0.6c-2.4,0-3.7-1.1-3.7-3.4c0-1.1,0.4-2.1,1.1-2.7
		c0.7-0.7,1.6-1,2.8-1c1.4,0,2.4,0.5,3.1,1.5c0.7,1,1,2.5,1,4.5c0,2-0.4,3.4-1.1,4.3c-0.8,0.9-1.9,1.3-3.3,1.3
		c-0.8,0-1.7-0.1-2.6-0.2l-0.4-0.1l0.1-1.1C48.5,281,49.5,281.1,50.4,281.1z M50.7,276.7c0.7,0,1.5-0.2,2.4-0.5l0.4-0.2
		c0-2.8-0.9-4.2-2.7-4.2c-0.8,0-1.4,0.2-1.9,0.7c-0.4,0.5-0.7,1.1-0.7,1.9C48.3,275.9,49.1,276.7,50.7,276.7z"/>
	<path d="M63.9,272.1c-1-0.1-2-0.2-3-0.2c-1,0-1.7,0.3-2.2,1c-0.5,0.7-0.8,1.6-0.8,2.9l0.4-0.2c0.3-0.1,0.7-0.2,1.1-0.3
		c0.5-0.1,0.9-0.2,1.2-0.2c2.5,0,3.8,1.2,3.8,3.5c0,1.2-0.3,2.1-1,2.7c-0.7,0.6-1.7,1-2.9,1c-2.7,0-4-1.9-4-5.8c0-2,0.4-3.4,1.1-4.3
		c0.8-0.9,1.8-1.4,3.2-1.4c0.9,0,1.8,0.1,2.6,0.2l0.5,0.1L63.9,272.1z M60.7,276.2c-0.4,0-0.8,0.1-1.3,0.2s-0.8,0.2-1.1,0.3
		l-0.4,0.2c0,1.3,0.2,2.3,0.7,3.1c0.4,0.8,1.1,1.1,1.9,1.1c0.9,0,1.5-0.2,2-0.7c0.4-0.4,0.7-1.1,0.7-1.9c0-0.8-0.2-1.4-0.7-1.8
		C62.1,276.4,61.5,276.2,60.7,276.2z"/>
</g>
<g>
	<path d="M20.6,314.9v11.2h-1.3v-9.8l-2.9,1.9l-0.6-1l3.6-2.4H20.6z"/>
	<path d="M31.9,326.1h-7.2V325l3.3-3.5c0.6-0.6,1-1,1.2-1.3s0.5-0.7,0.7-1.1c0.2-0.4,0.3-0.8,0.3-1.3c0-0.7-0.2-1.2-0.6-1.5
		c-0.4-0.3-1-0.4-1.9-0.4c-0.7,0-1.6,0.1-2.5,0.3l-0.4,0.1l-0.1-1.1c1.1-0.3,2.2-0.5,3.3-0.5s2,0.2,2.6,0.7c0.6,0.5,0.9,1.2,0.9,2.3
		c0,0.8-0.2,1.5-0.5,2.1c-0.4,0.6-1,1.3-1.8,2.1l-3,3h5.6L31.9,326.1L31.9,326.1z"/>
	<path d="M34.2,326.1v-1.9h1.4v1.9H34.2z"/>
	<path d="M44.8,314.9v1.2h-5.5l-0.3,3.7c0.9-0.5,1.8-0.7,2.6-0.7c2.4,0,3.6,1.1,3.6,3.3c0,1.3-0.3,2.2-1,2.9c-0.7,0.7-1.6,1-2.8,1
		c-1,0-2-0.1-3.2-0.4l-0.6-0.1l0.2-1c1.3,0.2,2.4,0.4,3.3,0.4c0.9,0,1.6-0.2,2-0.7s0.7-1.1,0.7-1.9c0-0.8-0.2-1.4-0.6-1.8
		c-0.4-0.3-1-0.5-1.8-0.5c-0.4,0-0.8,0.1-1.3,0.2c-0.4,0.1-0.8,0.2-1,0.3l-0.4,0.2l-0.9-0.2l0.3-5.8L44.8,314.9L44.8,314.9z"/>
	<path d="M54.3,314.9v1.2h-5.5l-0.3,3.7c0.9-0.5,1.8-0.7,2.6-0.7c2.4,0,3.6,1.1,3.6,3.3c0,1.3-0.3,2.2-1,2.9c-0.7,0.7-1.6,1-2.8,1
		c-1,0-2-0.1-3.2-0.4l-0.6-0.1l0.2-1c1.3,0.2,2.4,0.4,3.3,0.4c0.9,0,1.6-0.2,2-0.7s0.7-1.1,0.7-1.9c0-0.8-0.2-1.4-0.6-1.8
		c-0.4-0.3-1-0.5-1.8-0.5c-0.4,0-0.8,0.1-1.3,0.2c-0.4,0.1-0.8,0.2-1,0.3l-0.4,0.2l-0.9-0.2l0.3-5.8L54.3,314.9L54.3,314.9z"/>
	<path d="M63.9,314.9v1.2h-5.5l-0.3,3.7c0.9-0.5,1.8-0.7,2.6-0.7c2.4,0,3.6,1.1,3.6,3.3c0,1.3-0.3,2.2-1,2.9s-1.6,1-2.8,1
		c-1,0-2-0.1-3.2-0.4l-0.6-0.1l0.2-1c1.3,0.2,2.4,0.4,3.3,0.4c0.9,0,1.6-0.2,2-0.7s0.7-1.1,0.7-1.9c0-0.8-0.2-1.4-0.6-1.8
		s-1-0.5-1.8-0.5c-0.4,0-0.8,0.1-1.3,0.2s-0.8,0.2-1,0.3l-0.4,0.2l-0.9-0.2l0.3-5.8L63.9,314.9L63.9,314.9z"/>
</g>
<g>
	<path d="M73.7,344.7c0.9,0,1.7,0.2,2.3,0.5c1.2,0.7,1.8,2.5,1.8,5.4c0,2.1-0.3,3.5-1,4.3c-0.7,0.8-1.7,1.3-3.1,1.3
		s-2.4-0.4-3.1-1.2s-1-2.3-1-4.5c0-2.1,0.3-3.6,1-4.5C71.3,345.1,72.4,344.7,73.7,344.7z M73.8,345.9c-0.6,0-1.2,0.1-1.5,0.4
		c-0.8,0.6-1.2,2-1.2,4.4c0,1.7,0.2,2.8,0.7,3.5c0.4,0.6,1.1,1,2.1,1s1.6-0.3,2.1-1s0.7-1.8,0.7-3.6s-0.2-3-0.6-3.7
		C75.4,346.2,74.7,345.9,73.8,345.9z"/>
	<path d="M82.7,355.1c2.1,0,3.1-1.3,3.1-3.9c-1.1,0.4-2.1,0.6-2.9,0.6c-2.4,0-3.7-1.1-3.7-3.4c0-1.1,0.4-2.1,1.1-2.7
		c0.7-0.7,1.6-1,2.8-1c1.4,0,2.4,0.5,3.1,1.5c0.7,1,1,2.5,1,4.5s-0.4,3.4-1.1,4.3c-0.8,0.9-1.9,1.3-3.3,1.3c-0.9,0-1.7-0.1-2.6-0.2
		l-0.4-0.1l0.1-1.1C80.8,355,81.8,355.1,82.7,355.1z M83,350.7c0.7,0,1.5-0.2,2.4-0.5l0.4-0.2c0-2.8-0.9-4.2-2.7-4.2
		c-0.8,0-1.4,0.2-1.9,0.7c-0.4,0.5-0.7,1.1-0.7,1.9C80.6,349.9,81.4,350.7,83,350.7z"/>
	<path d="M89.2,350.6v-1.9h1.4v1.9H89.2z M89.2,356.1v-1.9h1.4v1.9H89.2z"/>
	<path d="M96.5,344.7c0.9,0,1.7,0.2,2.3,0.5c1.2,0.7,1.8,2.5,1.8,5.4c0,2.1-0.3,3.5-1,4.3c-0.7,0.8-1.7,1.3-3.1,1.3
		s-2.4-0.4-3.1-1.2s-1-2.3-1-4.5c0-2.1,0.3-3.6,1-4.5S95.1,344.7,96.5,344.7z M96.5,345.9c-0.6,0-1.2,0.1-1.5,0.4
		c-0.8,0.6-1.2,2-1.2,4.4c0,1.7,0.2,2.8,0.7,3.5s1.1,1,2.1,1c0.9,0,1.6-0.3,2.1-1c0.4-0.6,0.7-1.8,0.7-3.6s-0.2-3-0.6-3.7
		C98.2,346.2,97.5,345.9,96.5,345.9z"/>
	<path d="M106,344.7c0.9,0,1.7,0.2,2.3,0.5c1.2,0.7,1.8,2.5,1.8,5.4c0,2.1-0.3,3.5-1,4.3c-0.7,0.8-1.7,1.3-3.1,1.3
		c-1.4,0-2.4-0.4-3.1-1.2s-1-2.3-1-4.5c0-2.1,0.3-3.6,1-4.5C103.6,345.1,104.6,344.7,106,344.7z M106,345.9c-0.6,0-1.2,0.1-1.5,0.4
		c-0.8,0.6-1.2,2-1.2,4.4c0,1.7,0.2,2.8,0.7,3.5c0.4,0.6,1.1,1,2.1,1c0.9,0,1.6-0.3,2.1-1s0.7-1.8,0.7-3.6s-0.2-3-0.6-3.7
		C107.7,346.2,107,345.9,106,345.9z"/>
</g>
<g>
	<path d="M122.6,344.9v11.2h-1.3v-9.8l-2.9,1.9l-0.6-1l3.6-2.4H122.6z"/>
	<path d="M132.1,344.9v11.2h-1.3v-9.8l-2.9,1.9l-0.6-1l3.6-2.4H132.1z"/>
	<path d="M136.2,350.6v-1.9h1.4v1.9H136.2z M136.2,356.1v-1.9h1.4v1.9H136.2z"/>
	<path d="M143.5,344.7c0.9,0,1.7,0.2,2.3,0.5c1.2,0.7,1.8,2.5,1.8,5.4c0,2.1-0.3,3.5-1,4.3c-0.7,0.8-1.7,1.3-3.1,1.3
		s-2.4-0.4-3.1-1.2s-1-2.3-1-4.5c0-2.1,0.3-3.6,1-4.5S142.1,344.7,143.5,344.7z M143.5,345.9c-0.6,0-1.2,0.1-1.5,0.4
		c-0.8,0.6-1.2,2-1.2,4.4c0,1.7,0.2,2.8,0.7,3.5s1.1,1,2.1,1c0.9,0,1.6-0.3,2.1-1c0.4-0.6,0.7-1.8,0.7-3.6s-0.2-3-0.6-3.7
		C145.2,346.2,144.5,345.9,143.5,345.9z"/>
	<path d="M153,344.7c0.9,0,1.7,0.2,2.3,0.5c1.2,0.7,1.8,2.5,1.8,5.4c0,2.1-0.3,3.5-1,4.3c-0.7,0.8-1.7,1.3-3.1,1.3
		c-1.4,0-2.4-0.4-3.1-1.2s-1-2.3-1-4.5c0-2.1,0.3-3.6,1-4.5C150.6,345.1,151.6,344.7,153,344.7z M153,345.9c-0.6,0-1.2,0.1-1.5,0.4
		c-0.8,0.6-1.2,2-1.2,4.4c0,1.7,0.2,2.8,0.7,3.5c0.4,0.6,1.1,1,2.1,1c0.9,0,1.6-0.3,2.1-1s0.7-1.8,0.7-3.6s-0.2-3-0.6-3.7
		C154.7,346.2,154,345.9,153,345.9z"/>
</g>
<g>
	<path d="M171.6,344.9v11.2h-1.3v-9.8l-2.9,1.9l-0.6-1l3.6-2.4H171.6z"/>
	<path d="M175.7,345.2c1.1-0.3,2.2-0.5,3.4-0.5c1.2,0,2.1,0.2,2.6,0.7c0.5,0.5,0.8,1.2,0.8,2.2c0,0.5-0.1,0.9-0.2,1.1
		c-0.1,0.2-0.3,0.4-0.3,0.5c-0.1,0.1-0.2,0.2-0.3,0.4c-0.2,0.2-0.4,0.3-0.6,0.4l-0.2,0.1c0.7,0.2,1.1,0.5,1.5,0.9s0.5,1,0.5,1.8
		c0,1.1-0.3,2-0.9,2.5c-0.6,0.6-1.5,0.8-2.8,0.8c-1,0-2.1-0.1-3.2-0.3l-0.5-0.1l0.1-1.1c1.2,0.2,2.4,0.4,3.4,0.4
		c1.6,0,2.4-0.7,2.4-2.2c0-1.3-0.8-2.1-2.3-2.1H177v-1.1h2.3c0.5,0,0.9-0.2,1.4-0.6s0.7-0.9,0.7-1.5c0-0.6-0.2-1.1-0.5-1.4
		s-0.9-0.4-1.8-0.4c-0.9,0-1.8,0.1-2.7,0.3l-0.4,0.1L175.7,345.2z"/>
	<path d="M185.2,350.6v-1.9h1.4v1.9H185.2z M185.2,356.1v-1.9h1.4v1.9H185.2z"/>
	<path d="M192.5,344.7c0.9,0,1.7,0.2,2.3,0.5c1.2,0.7,1.8,2.5,1.8,5.4c0,2.1-0.3,3.5-1,4.3c-0.7,0.8-1.7,1.3-3.1,1.3
		s-2.4-0.4-3.1-1.2s-1-2.3-1-4.5c0-2.1,0.3-3.6,1-4.5S191.1,344.7,192.5,344.7z M192.5,345.9c-0.6,0-1.2,0.1-1.5,0.4
		c-0.8,0.6-1.2,2-1.2,4.4c0,1.7,0.2,2.8,0.7,3.5s1.1,1,2.1,1c0.9,0,1.6-0.3,2.1-1c0.4-0.6,0.7-1.8,0.7-3.6s-0.2-3-0.6-3.7
		C194.2,346.2,193.5,345.9,192.5,345.9z"/>
	<path d="M202,344.7c0.9,0,1.7,0.2,2.3,0.5c1.2,0.7,1.8,2.5,1.8,5.4c0,2.1-0.3,3.5-1,4.3c-0.7,0.8-1.7,1.3-3.1,1.3
		c-1.4,0-2.4-0.4-3.1-1.2s-1-2.3-1-4.5c0-2.1,0.3-3.6,1-4.5C199.6,345.1,200.6,344.7,202,344.7z M202,345.9c-0.6,0-1.2,0.1-1.5,0.4
		c-0.8,0.6-1.2,2-1.2,4.4c0,1.7,0.2,2.8,0.7,3.5c0.4,0.6,1.1,1,2.1,1c0.9,0,1.6-0.3,2.1-1s0.7-1.8,0.7-3.6s-0.2-3-0.6-3.7
		C203.7,346.2,203,345.9,202,345.9z"/>
</g>
<g>
	<path d="M222.6,344.9v11.2h-1.3v-9.8l-2.9,1.9l-0.6-1l3.6-2.4H222.6z"/>
	<path d="M233.6,344.9v1.2h-5.5l-0.3,3.7c0.9-0.5,1.8-0.7,2.6-0.7c2.4,0,3.6,1.1,3.6,3.3c0,1.3-0.3,2.2-1,2.9s-1.6,1-2.8,1
		c-1,0-2-0.1-3.2-0.4l-0.6-0.1l0.2-1c1.3,0.2,2.4,0.4,3.3,0.4c0.9,0,1.6-0.2,2-0.7s0.7-1.1,0.7-1.9c0-0.8-0.2-1.4-0.6-1.8
		s-1-0.5-1.8-0.5c-0.4,0-0.8,0.1-1.3,0.2s-0.8,0.2-1,0.3l-0.4,0.2l-0.9-0.2l0.3-5.8L233.6,344.9L233.6,344.9z"/>
	<path d="M236.2,350.6v-1.9h1.4v1.9H236.2z M236.2,356.1v-1.9h1.4v1.9H236.2z"/>
	<path d="M243.5,344.7c0.9,0,1.7,0.2,2.3,0.5c1.2,0.7,1.8,2.5,1.8,5.4c0,2.1-0.3,3.5-1,4.3c-0.7,0.8-1.7,1.3-3.1,1.3
		s-2.4-0.4-3.1-1.2s-1-2.3-1-4.5c0-2.1,0.3-3.6,1-4.5S242.1,344.7,243.5,344.7z M243.5,345.9c-0.6,0-1.2,0.1-1.5,0.4
		c-0.8,0.6-1.2,2-1.2,4.4c0,1.7,0.2,2.8,0.7,3.5s1.1,1,2.1,1c0.9,0,1.6-0.3,2.1-1c0.4-0.6,0.7-1.8,0.7-3.6s-0.2-3-0.6-3.7
		C245.2,346.2,244.5,345.9,243.5,345.9z"/>
	<path d="M253,344.7c0.9,0,1.7,0.2,2.3,0.5c1.2,0.7,1.8,2.5,1.8,5.4c0,2.1-0.3,3.5-1,4.3c-0.7,0.8-1.7,1.3-3.1,1.3
		c-1.4,0-2.4-0.4-3.1-1.2s-1-2.3-1-4.5c0-2.1,0.3-3.6,1-4.5C250.6,345.1,251.6,344.7,253,344.7z M253,345.9c-0.6,0-1.2,0.1-1.5,0.4
		c-0.8,0.6-1.2,2-1.2,4.4c0,1.7,0.2,2.8,0.7,3.5c0.4,0.6,1.1,1,2.1,1c0.9,0,1.6-0.3,2.1-1s0.7-1.8,0.7-3.6s-0.2-3-0.6-3.7
		C254.7,346.2,254,345.9,253,345.9z"/>
</g>
<g>
	<path d="M270.6,344.9v11.2h-1.3v-9.8l-2.9,1.9l-0.6-1l3.6-2.4H270.6z"/>
	<path d="M274.8,346.1v-1.2h7v1.7l-4.3,9.7l-1.2-0.4l4.2-9.4v-0.4L274.8,346.1L274.8,346.1z"/>
	<path d="M284.2,350.6v-1.9h1.4v1.9H284.2z M284.2,356.1v-1.9h1.4v1.9H284.2z"/>
	<path d="M291.5,344.7c0.9,0,1.7,0.2,2.3,0.5c1.2,0.7,1.8,2.5,1.8,5.4c0,2.1-0.3,3.5-1,4.3c-0.7,0.8-1.7,1.3-3.1,1.3
		s-2.4-0.4-3.1-1.2s-1-2.3-1-4.5c0-2.1,0.3-3.6,1-4.5S290.1,344.7,291.5,344.7z M291.5,345.9c-0.6,0-1.2,0.1-1.5,0.4
		c-0.8,0.6-1.2,2-1.2,4.4c0,1.7,0.2,2.8,0.7,3.5s1.1,1,2.1,1c0.9,0,1.6-0.3,2.1-1c0.4-0.6,0.7-1.8,0.7-3.6s-0.2-3-0.6-3.7
		C293.2,346.2,292.5,345.9,291.5,345.9z"/>
	<path d="M301,344.7c0.9,0,1.7,0.2,2.3,0.5c1.2,0.7,1.8,2.5,1.8,5.4c0,2.1-0.3,3.5-1,4.3c-0.7,0.8-1.7,1.3-3.1,1.3
		c-1.4,0-2.4-0.4-3.1-1.2s-1-2.3-1-4.5c0-2.1,0.3-3.6,1-4.5C298.6,345.1,299.6,344.7,301,344.7z M301,345.9c-0.6,0-1.2,0.1-1.5,0.4
		c-0.8,0.6-1.2,2-1.2,4.4c0,1.7,0.2,2.8,0.7,3.5c0.4,0.6,1.1,1,2.1,1c0.9,0,1.6-0.3,2.1-1s0.7-1.8,0.7-3.6s-0.2-3-0.6-3.7
		C302.7,346.2,302,345.9,301,345.9z"/>
</g>
<line class="st2" x1="16.6" y1="197" x2="312" y2="197"/>
<line class="st2" x1="16.6" y1="241" x2="312" y2="241"/>
<line class="st2" x1="16.6" y1="284" x2="312" y2="284"/>
<line class="st2" x1="16.6" y1="330" x2="312" y2="330"/>
<polyline class="st3" points="261.5,256.2 259,252.7 256,243.7 253.5,251.2 251.5,260.7 250,228.7 248,233.7 249,192.7 246,198.7 
	245,175.7 244,177.7 241,167.7 238,180.7 235,175.7 232,183.7 229,177.7 228,181.7 227,178.7 224,184.7 222,179.7 220,188.7 
	219,185.7 214,190.7 214,178.7 211,182.7 210,178.7 205,183.7 204,180.7 204,187.7 202,196.7 199,191.7 197,182.7 197,190.7 
	194,188.7 194,207.7 189,203.7 189,213.7 187,211.7 186,217.7 181,214.7 180,221.7 179,218.7 176,227.7 176,218.7 171,217.7 
	168,206.7 168,219.7 168,217.7 167,221.7 164,222.7 164,261.7 161,257.7 159,263.7 157,262.7 156,266.7 154,265.7 150,270.7 
	148,270.7 147,273.7 145,270.7 143,267.7 139,273.7 137,282.7 136,291.7 134,286.7 134,280.7 132,282.7 132,279.7 130,275.7 
	127,280.7 126,287.7 124,282.7 123,277.7 122,271.7 119,268.7 116,273.7 114,278.7 111,271.7 108,265.7 107,267.7 104,260.7 
	102,279.7 101,279.7 99,290.7 97,290.7 94,295.7 93.5,275.2 91.5,277.2 89.5,270.2 87.5,273.2 82.5,257.2 80.5,271.2 77.5,266.2 "/>
</svg>
