<?xml version="1.0" encoding="utf-8"?>
<!-- Generator: Adobe Illustrator 21.1.0, SVG Export Plug-In . SVG Version: 6.00 Build 0)  -->
<svg version="1.1" id="Ebene_1" xmlns="http://www.w3.org/2000/svg" xmlns:xlink="http://www.w3.org/1999/xlink" x="0px" y="0px"
	 viewBox="0 0 400 400" style="enable-background:new 0 0 400 400;" xml:space="preserve">
<style type="text/css">
	.st0{enable-background:new    ;}
	.st1{fill:#01B7FA;}
	.st2{fill:none;stroke:#666666;stroke-width:2;stroke-miterlimit:10;}
	.st3{fill:none;stroke:#01B7FA;stroke-width:2;stroke-miterlimit:10;}
	.st4{fill:#4D4D4D;}
	.st5{fill:none;stroke:#4D4D4D;stroke-width:2;stroke-miterlimit:10;}
</style>
<g>
	<path d="M18.5,174.9v-13h7.9v1.3h-6.5v4.5h5.3v1.3h-5.3v4.7h6.5v1.3H18.5z"/>
	<path d="M28.5,174.9v-2.1h1.5v2.1H28.5z"/>
	<path d="M42.5,168.4c0,2.3-0.4,4-1.1,5c-0.7,1-2.1,1.6-4,1.6c-2,0-3.3-0.5-4-1.6c-0.7-1.1-1.1-2.7-1.1-5c0-2.3,0.4-4,1.1-5.1
		s2.1-1.7,4-1.7c1.9,0,3.3,0.6,4,1.7C42.1,164.4,42.5,166.1,42.5,168.4z M33.7,168.4c0,1.9,0.3,3.3,0.8,4.1c0.5,0.8,1.5,1.3,2.9,1.3
		c1.4,0,2.4-0.4,2.9-1.2c0.5-0.8,0.7-2.2,0.7-4.1s-0.3-3.3-0.8-4.2c-0.5-0.9-1.5-1.3-2.9-1.3c-1.4,0-2.4,0.4-2.9,1.3
		C33.9,165.1,33.7,166.5,33.7,168.4z"/>
	<path d="M45.1,174.9v-13h2.7l5,11.7h0.4v-11.7h1.4v13H52l-5.1-11.7h-0.4v11.7H45.1z"/>
</g>
<g>
	<path d="M266.1,162.8c1.2-0.4,2.4-0.5,3.8-0.5c1.3,0,2.3,0.3,2.9,0.8c0.6,0.5,0.9,1.3,0.9,2.5c0,0.6-0.1,1-0.2,1.3
		c-0.2,0.3-0.3,0.5-0.4,0.6c-0.1,0.1-0.2,0.3-0.4,0.4c-0.3,0.2-0.5,0.4-0.7,0.5l-0.2,0.1c0.7,0.3,1.3,0.6,1.6,1
		c0.4,0.4,0.5,1.1,0.5,2c0,1.3-0.3,2.2-1,2.8c-0.6,0.6-1.7,0.9-3.1,0.9c-1.1,0-2.3-0.1-3.5-0.4l-0.6-0.1l0.1-1.2
		c1.4,0.3,2.6,0.4,3.8,0.4c1.8,0,2.7-0.8,2.7-2.4c0-1.5-0.9-2.3-2.6-2.3h-2.5v-1.2h2.5c0.5,0,1-0.2,1.5-0.6s0.7-1,0.7-1.7
		s-0.2-1.2-0.6-1.5c-0.4-0.3-1-0.5-2-0.5c-1,0-2,0.1-3,0.3l-0.5,0.1L266.1,162.8z"/>
	<path d="M276,177.2l0.9-4.3h1.6l-1.3,4.3H276z"/>
	<path d="M281.5,163c0.8-0.5,1.9-0.8,3.2-0.8s2.5,0.3,3.3,0.8c0.8,0.5,1.2,1.4,1.2,2.4c0,0.8-0.2,1.4-0.5,1.8
		c-0.3,0.4-0.8,0.8-1.6,1.1c0.8,0.3,1.3,0.7,1.7,1.2c0.4,0.5,0.6,1.1,0.6,1.9c0,2.4-1.6,3.6-4.7,3.6c-3.1,0-4.7-1.1-4.7-3.3
		c0-0.9,0.2-1.6,0.5-2c0.3-0.5,0.9-0.9,1.6-1.3c-0.7-0.3-1.2-0.7-1.5-1.2c-0.3-0.4-0.5-1-0.5-1.8C280.3,164.4,280.7,163.6,281.5,163
		z M281.7,171.4c0,1.5,1,2.3,3.1,2.3s3.1-0.8,3.1-2.4c0-0.7-0.2-1.2-0.6-1.5c-0.4-0.3-0.9-0.6-1.6-0.8h-2c-0.7,0.2-1.2,0.5-1.5,0.8
		C281.8,170.3,281.7,170.8,281.7,171.4z M287.7,165.6c0-1.4-1-2.1-2.9-2.1c-1.9,0-2.9,0.7-2.9,2.1c0,0.6,0.2,1,0.5,1.3
		c0.3,0.3,0.8,0.6,1.4,0.8h2c0.7-0.2,1.2-0.5,1.5-0.8C287.5,166.6,287.7,166.2,287.7,165.6z"/>
	<path d="M291.4,162.8c1.2-0.4,2.4-0.5,3.8-0.5c1.3,0,2.3,0.3,2.9,0.8c0.6,0.5,0.9,1.3,0.9,2.5c0,0.6-0.1,1-0.2,1.3
		c-0.2,0.3-0.3,0.5-0.4,0.6c-0.1,0.1-0.2,0.3-0.4,0.4c-0.3,0.2-0.5,0.4-0.7,0.5l-0.2,0.1c0.7,0.3,1.3,0.6,1.6,1
		c0.4,0.4,0.5,1.1,0.5,2c0,1.3-0.3,2.2-1,2.8c-0.6,0.6-1.7,0.9-3.1,0.9c-1.1,0-2.3-0.1-3.5-0.4l-0.6-0.1l0.1-1.2
		c1.4,0.3,2.6,0.4,3.8,0.4c1.8,0,2.7-0.8,2.7-2.4c0-1.5-0.9-2.3-2.6-2.3h-2.5v-1.2h2.5c0.5,0,1-0.2,1.5-0.6c0.5-0.4,0.7-1,0.7-1.7
		s-0.2-1.2-0.6-1.5c-0.4-0.3-1-0.5-2-0.5c-1,0-2,0.1-3,0.3l-0.5,0.1L291.4,162.8z"/>
	<path d="M307.3,162.2c1.4,0,2.1,0.9,2.1,2.6c0,0.9-0.2,1.6-0.5,2c-0.4,0.4-0.9,0.7-1.5,0.7c-0.7,0-1.2-0.2-1.5-0.7
		c-0.4-0.4-0.5-1.1-0.5-2C305.3,163.1,305.9,162.2,307.3,162.2z M306.4,164.8c0,1.1,0.3,1.7,0.9,1.7c0.6,0,0.9-0.6,0.9-1.7
		c0-0.6-0.1-1-0.2-1.2c-0.1-0.3-0.4-0.4-0.7-0.4c-0.3,0-0.6,0.1-0.7,0.4S306.4,164.3,306.4,164.8z M307.6,174.9l3.9-12.9l0.9,0.3
		l-3.9,12.9L307.6,174.9z M310.6,172.4c0-1.7,0.7-2.6,2.1-2.6c1.4,0,2.1,0.9,2.1,2.6c0,0.9-0.2,1.5-0.5,2c-0.4,0.4-0.9,0.7-1.5,0.7
		s-1.2-0.2-1.5-0.7C310.8,173.9,310.6,173.3,310.6,172.4z M311.7,172.4c0,1.1,0.3,1.7,0.9,1.7c0.4,0,0.6-0.1,0.7-0.4
		c0.1-0.3,0.2-0.7,0.2-1.3c0-0.6-0.1-1-0.2-1.3c-0.1-0.3-0.4-0.4-0.7-0.4c-0.3,0-0.6,0.1-0.7,0.4
		C311.8,171.4,311.7,171.8,311.7,172.4z"/>
</g>
<g>
	<path d="M346,163.8v-1.3h7.7v1.9L349,175l-1.4-0.4l4.7-10.4v-0.5L346,163.8L346,163.8z"/>
	<path d="M355.7,177.2l0.9-4.3h1.6l-1.3,4.3H355.7z"/>
	<path d="M361.3,163c0.8-0.5,1.9-0.8,3.2-0.8c1.4,0,2.5,0.3,3.3,0.8c0.8,0.5,1.2,1.4,1.2,2.4c0,0.8-0.2,1.4-0.5,1.8
		c-0.3,0.4-0.8,0.8-1.6,1.1c0.8,0.3,1.3,0.7,1.7,1.2c0.4,0.5,0.6,1.1,0.6,1.9c0,2.4-1.6,3.6-4.7,3.6c-3.1,0-4.7-1.1-4.7-3.3
		c0-0.9,0.2-1.6,0.5-2c0.3-0.5,0.9-0.9,1.6-1.3c-0.7-0.3-1.2-0.7-1.5-1.2c-0.3-0.4-0.5-1-0.5-1.8C360.1,164.4,360.5,163.6,361.3,163
		z M361.4,171.4c0,1.5,1,2.3,3.1,2.3c2.1,0,3.1-0.8,3.1-2.4c0-0.7-0.2-1.2-0.6-1.5c-0.4-0.3-0.9-0.6-1.6-0.8h-2
		c-0.7,0.2-1.2,0.5-1.5,0.8C361.6,170.3,361.4,170.8,361.4,171.4z M367.5,165.6c0-1.4-1-2.1-2.9-2.1c-1.9,0-2.9,0.7-2.9,2.1
		c0,0.6,0.2,1,0.5,1.3c0.3,0.3,0.8,0.6,1.4,0.8h2c0.7-0.2,1.2-0.5,1.5-0.8C367.3,166.6,367.5,166.2,367.5,165.6z"/>
	<path d="M378.9,163.8c-1.1-0.2-2.2-0.2-3.3-0.2c-1.1,0-1.9,0.4-2.5,1.1c-0.6,0.7-0.9,1.8-0.9,3.2l0.5-0.2c0.3-0.1,0.7-0.2,1.3-0.4
		c0.5-0.1,1-0.2,1.4-0.2c2.8,0,4.2,1.3,4.2,3.9c0,1.3-0.4,2.3-1.1,3c-0.8,0.7-1.8,1.1-3.2,1.1c-3,0-4.4-2.2-4.4-6.5
		c0-2.2,0.4-3.8,1.3-4.8s2-1.5,3.6-1.5c1,0,2,0.1,2.9,0.2l0.5,0.1L378.9,163.8z M375.3,168.4c-0.4,0-0.9,0.1-1.4,0.2
		c-0.5,0.1-0.9,0.2-1.2,0.3l-0.4,0.2c0,1.4,0.3,2.6,0.7,3.4c0.5,0.8,1.2,1.3,2.2,1.3s1.7-0.2,2.2-0.7s0.7-1.2,0.7-2.1
		s-0.2-1.5-0.7-2C376.9,168.6,376.2,168.4,375.3,168.4z"/>
</g>
<g>
	<path d="M18.5,225.5v-13h7.8v1.3h-6.3v5.1h5.4v1.3h-5.4v5.4L18.5,225.5L18.5,225.5z"/>
	<path d="M27.7,225.5v-9.4h1.4v1.3c1.1-0.8,2.2-1.2,3.4-1.5v1.4c-0.5,0.1-1.1,0.3-1.6,0.5c-0.6,0.2-1,0.4-1.3,0.6l-0.5,0.2v6.9H27.7
		L27.7,225.5z"/>
	<path d="M40.4,224.3l0.5-0.1l0,1.1c-1.4,0.2-2.7,0.3-3.7,0.3c-1.4,0-2.3-0.4-2.9-1.2c-0.6-0.8-0.8-2-0.8-3.7c0-3.3,1.3-4.9,3.9-4.9
		c1.3,0,2.2,0.4,2.8,1.1c0.6,0.7,0.9,1.8,0.9,3.3l-0.1,1.1h-6.2c0,1,0.2,1.8,0.6,2.3c0.4,0.5,1,0.8,2,0.8
		C38.5,224.4,39.5,224.4,40.4,224.3z M39.9,220.2c0-1.2-0.2-2-0.6-2.4c-0.4-0.5-1-0.7-1.8-0.7c-0.8,0-1.5,0.3-1.9,0.8
		c-0.4,0.5-0.6,1.3-0.6,2.4L39.9,220.2L39.9,220.2z"/>
	<path d="M46.5,217.1c-1.4,0-2.1,0.5-2.1,1.4c0,0.4,0.2,0.7,0.5,0.9c0.3,0.2,1,0.4,2.1,0.6c1.1,0.2,1.9,0.5,2.4,0.8
		c0.5,0.4,0.7,1,0.7,2s-0.3,1.7-0.9,2.1c-0.6,0.5-1.5,0.7-2.7,0.7c-0.8,0-1.7-0.1-2.7-0.3l-0.6-0.1l0.1-1.2c1.4,0.2,2.5,0.3,3.2,0.3
		s1.3-0.1,1.7-0.3c0.4-0.2,0.6-0.6,0.6-1.2s-0.2-0.9-0.5-1.1c-0.3-0.2-1-0.4-2.1-0.6s-1.9-0.4-2.4-0.8c-0.5-0.3-0.7-1-0.7-1.9
		s0.3-1.6,1-2c0.6-0.4,1.5-0.7,2.4-0.7c0.8,0,1.7,0.1,2.9,0.3l0.5,0.1l0,1.2C48.4,217.2,47.3,217.1,46.5,217.1z"/>
	<path d="M58.7,224.3l0.5-0.1l0,1.1c-1.4,0.2-2.7,0.3-3.7,0.3c-1.4,0-2.3-0.4-2.9-1.2c-0.6-0.8-0.8-2-0.8-3.7c0-3.3,1.3-4.9,3.9-4.9
		c1.3,0,2.2,0.4,2.8,1.1c0.6,0.7,0.9,1.8,0.9,3.3l-0.1,1.1h-6.2c0,1,0.2,1.8,0.6,2.3c0.4,0.5,1,0.8,2,0.8S57.7,224.4,58.7,224.3z
		 M58.2,220.2c0-1.2-0.2-2-0.6-2.4c-0.4-0.5-1-0.7-1.8-0.7s-1.5,0.3-1.9,0.8c-0.4,0.5-0.6,1.3-0.6,2.4L58.2,220.2L58.2,220.2z"/>
	<path d="M63.2,225.5h-1.4v-9.4h1.4v0.7c1-0.6,2-0.8,2.9-0.8c1.3,0,2.1,0.3,2.5,1c0.4,0.7,0.6,1.9,0.6,3.6v5h-1.4v-4.9
		c0-1.3-0.1-2.2-0.4-2.7c-0.3-0.5-0.8-0.7-1.6-0.7c-0.4,0-0.8,0.1-1.3,0.2c-0.4,0.1-0.8,0.2-1,0.3l-0.4,0.2L63.2,225.5L63.2,225.5z"
		/>
	<path d="M71.9,213.9v-1.6h1.4v1.6H71.9z M71.9,225.5v-9.4h1.4v9.4H71.9z"/>
	<path d="M81.9,216.1h1.4v9.4h-1.4v-0.7c-0.9,0.6-1.9,0.8-2.8,0.8c-1.3,0-2.1-0.3-2.6-1c-0.4-0.7-0.6-1.9-0.6-3.7v-4.9h1.4v4.9
		c0,1.4,0.1,2.3,0.4,2.7c0.2,0.5,0.8,0.7,1.6,0.7c0.4,0,0.8-0.1,1.3-0.2c0.4-0.1,0.8-0.2,1-0.3l0.3-0.2L81.9,216.1L81.9,216.1z"/>
	<path d="M89,217.1c-1.4,0-2.1,0.5-2.1,1.4c0,0.4,0.2,0.7,0.5,0.9c0.3,0.2,1,0.4,2.1,0.6c1.1,0.2,1.9,0.5,2.4,0.8
		c0.5,0.4,0.7,1,0.7,2s-0.3,1.7-0.9,2.1c-0.6,0.5-1.5,0.7-2.7,0.7c-0.8,0-1.7-0.1-2.7-0.3l-0.6-0.1l0.1-1.2c1.4,0.2,2.5,0.3,3.2,0.3
		c0.7,0,1.3-0.1,1.7-0.3c0.4-0.2,0.6-0.6,0.6-1.2s-0.2-0.9-0.5-1.1c-0.3-0.2-1-0.4-2.1-0.6c-1.1-0.2-1.9-0.4-2.4-0.8
		c-0.5-0.3-0.7-1-0.7-1.9s0.3-1.6,1-2c0.6-0.4,1.5-0.7,2.4-0.7c0.8,0,1.7,0.1,2.9,0.3l0.5,0.1l0,1.2C90.9,217.2,89.8,217.1,89,217.1
		z"/>
	<path d="M99.1,225.5v-13h2.6l3.7,11l3.7-11h2.6v13h-1.4V214H110l-3.8,11h-1.6l-3.8-11h-0.3v11.5H99.1z"/>
	<path d="M121,224.3l0.5-0.1l0,1.1c-1.4,0.2-2.7,0.3-3.7,0.3c-1.4,0-2.3-0.4-2.9-1.2c-0.6-0.8-0.8-2-0.8-3.7c0-3.3,1.3-4.9,3.9-4.9
		c1.3,0,2.2,0.4,2.8,1.1c0.6,0.7,0.9,1.8,0.9,3.3l-0.1,1.1h-6.2c0,1,0.2,1.8,0.6,2.3c0.4,0.5,1,0.8,2,0.8
		C119.1,224.4,120,224.4,121,224.3z M120.5,220.2c0-1.2-0.2-2-0.6-2.4c-0.4-0.5-1-0.7-1.8-0.7c-0.8,0-1.5,0.3-1.9,0.8
		c-0.4,0.5-0.6,1.3-0.6,2.4L120.5,220.2L120.5,220.2z"/>
	<path d="M131.3,212v13.5h-1.4v-0.6c-1,0.6-1.9,0.8-2.9,0.8c-0.5,0-0.9-0.1-1.3-0.2c-0.4-0.1-0.7-0.4-1.1-0.7c-0.7-0.7-1-1.9-1-3.8
		c0-1.8,0.3-3.1,0.9-4c0.6-0.8,1.6-1.2,3-1.2c0.7,0,1.5,0.1,2.3,0.2V212H131.3L131.3,212z M126.4,224.3c0.2,0.1,0.5,0.1,0.9,0.1
		c0.4,0,0.8-0.1,1.2-0.2c0.4-0.1,0.8-0.2,1-0.3l0.4-0.2v-6.4c-0.8-0.2-1.5-0.2-2.2-0.2c-1,0-1.6,0.3-2,0.9c-0.4,0.6-0.6,1.6-0.6,2.8
		c0,1.5,0.2,2.4,0.7,2.9C126,224,126.2,224.2,126.4,224.3z"/>
	<path d="M134.1,213.9v-1.6h1.4v1.6H134.1z M134.1,225.5v-9.4h1.4v9.4H134.1z"/>
	<path d="M141.7,215.9c0.4,0,1.1,0.1,2.1,0.2l0.5,0.1l-0.1,1.1c-1-0.1-1.7-0.2-2.2-0.2c-1.1,0-1.8,0.3-2.2,0.8
		c-0.4,0.5-0.6,1.4-0.6,2.8s0.2,2.3,0.5,2.9c0.4,0.5,1.1,0.8,2.2,0.8l2.2-0.2l0.1,1.2c-1.2,0.2-2,0.3-2.6,0.3c-1.5,0-2.5-0.4-3-1.1
		c-0.6-0.8-0.8-2-0.8-3.8s0.3-3,0.9-3.8C139.3,216.2,140.3,215.9,141.7,215.9z"/>
	<path d="M153,218.9v4.8c0,0.5,0.4,0.7,1.1,0.8l-0.1,1.1c-1,0-1.7-0.3-2.2-0.8c-1.1,0.5-2.3,0.8-3.4,0.8c-0.9,0-1.5-0.2-2-0.7
		c-0.5-0.5-0.7-1.2-0.7-2.1c0-0.9,0.2-1.6,0.7-2c0.5-0.4,1.2-0.7,2.2-0.8l3-0.3v-0.8c0-0.6-0.1-1.1-0.4-1.4
		c-0.3-0.3-0.7-0.4-1.1-0.4c-1,0-2,0.1-3.1,0.2l-0.6,0.1l-0.1-1.1c1.4-0.3,2.6-0.4,3.7-0.4c1.1,0,1.8,0.2,2.3,0.7
		S153,217.9,153,218.9z M147.2,222.7c0,1.2,0.5,1.7,1.4,1.7c0.9,0,1.7-0.1,2.5-0.4l0.4-0.2v-3.1l-2.8,0.3c-0.6,0.1-1,0.2-1.2,0.5
		C147.3,221.8,147.2,222.2,147.2,222.7z"/>
	<path d="M155.9,225.5V212h1.4v13.5H155.9z"/>
	<path d="M172.4,225.3c-1.3,0.3-2.5,0.4-3.5,0.4s-1.9-0.1-2.5-0.4c-0.6-0.3-1.1-0.7-1.5-1.3c-0.3-0.6-0.6-1.3-0.7-2.1
		c-0.1-0.8-0.2-1.7-0.2-2.9s0.1-2.1,0.2-2.9c0.1-0.8,0.4-1.5,0.7-2.1c0.3-0.6,0.8-1,1.5-1.3c0.6-0.3,1.4-0.4,2.4-0.4
		s2.2,0.1,3.5,0.4l-0.1,1.2c-1.3-0.2-2.4-0.3-3.4-0.3c-1.4,0-2.3,0.4-2.7,1.2s-0.7,2.2-0.7,4.2c0,1,0,1.8,0.1,2.4s0.2,1.1,0.5,1.6
		c0.2,0.5,0.6,0.8,1,1c0.5,0.2,1.1,0.3,2,0.3c0.9,0,1.9-0.1,3.1-0.3L172.4,225.3z"/>
	<path d="M181.2,218.9v4.8c0,0.5,0.4,0.7,1.1,0.8l-0.1,1.1c-1,0-1.7-0.3-2.2-0.8c-1.1,0.5-2.3,0.8-3.4,0.8c-0.9,0-1.5-0.2-2-0.7
		c-0.5-0.5-0.7-1.2-0.7-2.1c0-0.9,0.2-1.6,0.7-2c0.5-0.4,1.2-0.7,2.2-0.8l3-0.3v-0.8c0-0.6-0.1-1.1-0.4-1.4
		c-0.3-0.3-0.7-0.4-1.1-0.4c-1,0-2,0.1-3.1,0.2l-0.6,0.1l-0.1-1.1c1.4-0.3,2.6-0.4,3.7-0.4c1.1,0,1.8,0.2,2.3,0.7
		C180.9,217.1,181.2,217.9,181.2,218.9z M175.4,222.7c0,1.2,0.5,1.7,1.4,1.7c0.9,0,1.7-0.1,2.5-0.4l0.4-0.2v-3.1L177,221
		c-0.6,0.1-1,0.2-1.2,0.5C175.5,221.8,175.4,222.2,175.4,222.7z"/>
	<path d="M184,225.5v-9.4h1.4v1.3c1.1-0.8,2.2-1.2,3.4-1.5v1.4c-0.5,0.1-1.1,0.3-1.6,0.5c-0.6,0.2-1,0.4-1.3,0.6l-0.5,0.2v6.9H184
		L184,225.5z"/>
	<path d="M196.7,224.3l0.5-0.1l0,1.1c-1.4,0.2-2.7,0.3-3.7,0.3c-1.4,0-2.3-0.4-2.9-1.2c-0.6-0.8-0.8-2-0.8-3.7
		c0-3.3,1.3-4.9,3.9-4.9c1.3,0,2.2,0.4,2.8,1.1c0.6,0.7,0.9,1.8,0.9,3.3l-0.1,1.1h-6.2c0,1,0.2,1.8,0.6,2.3c0.4,0.5,1,0.8,2,0.8
		C194.8,224.4,195.7,224.4,196.7,224.3z M196.2,220.2c0-1.2-0.2-2-0.6-2.4s-1-0.7-1.8-0.7s-1.5,0.3-1.9,0.8
		c-0.4,0.5-0.6,1.3-0.6,2.4L196.2,220.2L196.2,220.2z"/>
</g>
<g>
	<path d="M274,225.5h-7.9v-1.2l3.6-3.8c0.6-0.7,1.1-1.1,1.4-1.5c0.3-0.3,0.5-0.7,0.8-1.2c0.2-0.5,0.3-0.9,0.3-1.4
		c0-0.8-0.2-1.4-0.7-1.7c-0.4-0.3-1.1-0.5-2.1-0.5c-0.8,0-1.7,0.1-2.7,0.3l-0.5,0.1l-0.1-1.2c1.2-0.3,2.4-0.5,3.7-0.5
		c1.3,0,2.2,0.3,2.9,0.8c0.6,0.5,1,1.4,1,2.5c0,0.9-0.2,1.6-0.6,2.3c-0.4,0.7-1.1,1.4-2,2.4l-3.3,3.4h6.2L274,225.5L274,225.5z"/>
	<path d="M276,227.8l0.9-4.3h1.6l-1.3,4.3H276z"/>
	<path d="M288.5,213v1.3h-6l-0.3,4c1-0.5,1.9-0.8,2.9-0.8c2.6,0,4,1.2,4,3.7c0,1.4-0.4,2.5-1.1,3.2c-0.7,0.7-1.8,1.1-3.1,1.1
		c-1.1,0-2.2-0.1-3.5-0.4l-0.6-0.1l0.2-1.1c1.4,0.3,2.7,0.4,3.6,0.4s1.7-0.3,2.2-0.8c0.5-0.5,0.8-1.2,0.8-2.1s-0.2-1.6-0.7-1.9
		c-0.5-0.4-1.1-0.6-1.9-0.6c-0.5,0-0.9,0.1-1.4,0.2c-0.5,0.1-0.9,0.3-1.1,0.4l-0.4,0.2l-1-0.2l0.3-6.5L288.5,213L288.5,213z"/>
	<path d="M297.4,213v12.4h-1.4v-10.8l-3.2,2.1l-0.7-1.1l4-2.6L297.4,213L297.4,213z"/>
	<path d="M307.3,212.9c1.4,0,2.1,0.9,2.1,2.6c0,0.9-0.2,1.6-0.5,2c-0.4,0.4-0.9,0.7-1.5,0.7c-0.7,0-1.2-0.2-1.5-0.7
		c-0.4-0.4-0.5-1.1-0.5-2C305.3,213.7,305.9,212.9,307.3,212.9z M306.4,215.5c0,1.1,0.3,1.7,0.9,1.7c0.6,0,0.9-0.6,0.9-1.7
		c0-0.6-0.1-1-0.2-1.2c-0.1-0.3-0.4-0.4-0.7-0.4c-0.3,0-0.6,0.1-0.7,0.4S306.4,214.9,306.4,215.5z M307.6,225.5l3.9-12.9l0.9,0.3
		l-3.9,12.9L307.6,225.5z M310.6,223c0-1.7,0.7-2.6,2.1-2.6c1.4,0,2.1,0.9,2.1,2.6c0,0.9-0.2,1.5-0.5,2c-0.4,0.4-0.9,0.7-1.5,0.7
		s-1.2-0.2-1.5-0.7C310.8,224.5,310.6,223.9,310.6,223z M311.7,223c0,1.1,0.3,1.7,0.9,1.7c0.4,0,0.6-0.1,0.7-0.4
		c0.1-0.3,0.2-0.7,0.2-1.3c0-0.6-0.1-1-0.2-1.3c-0.1-0.3-0.4-0.4-0.7-0.4c-0.3,0-0.6,0.1-0.7,0.4C311.8,222,311.7,222.4,311.7,223z"
		/>
</g>
<g>
	<path d="M336.3,213.7c0.8-0.5,1.9-0.8,3.2-0.8s2.5,0.3,3.3,0.8c0.8,0.5,1.2,1.4,1.2,2.4c0,0.8-0.2,1.4-0.5,1.8
		c-0.3,0.4-0.8,0.8-1.6,1.1c0.8,0.3,1.3,0.7,1.7,1.2s0.6,1.1,0.6,1.9c0,2.4-1.6,3.6-4.7,3.6c-3.1,0-4.7-1.1-4.7-3.3
		c0-0.9,0.2-1.6,0.5-2c0.3-0.5,0.9-0.9,1.6-1.3c-0.7-0.3-1.2-0.7-1.5-1.2c-0.3-0.4-0.5-1-0.5-1.8C335.1,215,335.5,214.2,336.3,213.7
		z M336.4,222.1c0,1.5,1,2.3,3.1,2.3c2.1,0,3.1-0.8,3.1-2.4c0-0.7-0.2-1.2-0.6-1.5c-0.4-0.3-0.9-0.6-1.6-0.8h-2
		c-0.7,0.2-1.2,0.5-1.5,0.8C336.6,220.9,336.4,221.4,336.4,222.1z M342.5,216.2c0-1.4-1-2.1-2.9-2.1c-1.9,0-2.9,0.7-2.9,2.1
		c0,0.6,0.2,1,0.5,1.3c0.3,0.3,0.8,0.6,1.4,0.8h2c0.7-0.2,1.2-0.5,1.5-0.8C342.3,217.2,342.5,216.8,342.5,216.2z"/>
	<path d="M351.6,225.5V223h-6v-1.1l3.5-8.9h1.6l-3.6,8.7h4.5v-3.9h1.4v3.9h1.6v1.3H353v2.4H351.6L351.6,225.5z"/>
	<path d="M356,227.8l0.9-4.3h1.6l-1.3,4.3H356z"/>
	<path d="M364.2,224.4c2.3,0,3.4-1.4,3.4-4.3c-1.3,0.5-2.3,0.7-3.2,0.7c-2.7,0-4.1-1.3-4.1-3.8c0-1.3,0.4-2.3,1.2-3
		c0.8-0.7,1.8-1.1,3.1-1.1c1.5,0,2.6,0.6,3.4,1.7c0.7,1.1,1.1,2.8,1.1,4.9c0,2.2-0.4,3.7-1.3,4.7c-0.8,1-2.1,1.4-3.7,1.4
		c-0.9,0-1.9-0.1-2.9-0.3l-0.5-0.1l0.1-1.2C362,224.3,363.1,224.4,364.2,224.4z M364.5,219.5c0.8,0,1.6-0.2,2.7-0.5l0.5-0.2
		c0-3.1-1-4.7-3-4.7c-0.9,0-1.6,0.3-2.1,0.8c-0.5,0.5-0.7,1.2-0.7,2.1C361.8,218.7,362.7,219.5,364.5,219.5z"/>
	<path d="M372.1,213.7c0.8-0.5,1.9-0.8,3.2-0.8c1.4,0,2.5,0.3,3.3,0.8c0.8,0.5,1.2,1.4,1.2,2.4c0,0.8-0.2,1.4-0.5,1.8
		c-0.3,0.4-0.8,0.8-1.6,1.1c0.8,0.3,1.3,0.7,1.7,1.2c0.4,0.5,0.6,1.1,0.6,1.9c0,2.4-1.6,3.6-4.7,3.6c-3.1,0-4.7-1.1-4.7-3.3
		c0-0.9,0.2-1.6,0.5-2c0.3-0.5,0.9-0.9,1.6-1.3c-0.7-0.3-1.2-0.7-1.5-1.2c-0.3-0.4-0.5-1-0.5-1.8C370.9,215,371.3,214.2,372.1,213.7
		z M372.2,222.1c0,1.5,1,2.3,3.1,2.3c2.1,0,3.1-0.8,3.1-2.4c0-0.7-0.2-1.2-0.6-1.5c-0.4-0.3-0.9-0.6-1.6-0.8h-2
		c-0.7,0.2-1.2,0.5-1.5,0.8C372.4,220.9,372.2,221.4,372.2,222.1z M378.3,216.2c0-1.4-1-2.1-2.9-2.1c-1.9,0-2.9,0.7-2.9,2.1
		c0,0.6,0.2,1,0.5,1.3c0.3,0.3,0.8,0.6,1.4,0.8h2c0.7-0.2,1.2-0.5,1.5-0.8C378.1,217.2,378.3,216.8,378.3,216.2z"/>
</g>
<g>
	<path d="M23.1,328.4h-4.6v-13h4.6c2.1,0,3.5,0.8,4.2,2.5c0.4,1,0.6,2.2,0.6,3.8c0,3.3-0.8,5.3-2.4,6.2
		C24.8,328.2,24,328.4,23.1,328.4z M26.4,321.7c0-2.5-0.6-4.1-1.7-4.7c-0.5-0.3-1-0.4-1.7-0.4h-3.2v10.5h3.2
		C25.3,327.1,26.4,325.3,26.4,321.7z"/>
	<path d="M36.7,327.2l0.5-0.1l0,1.1c-1.4,0.2-2.7,0.3-3.7,0.3c-1.4,0-2.3-0.4-2.9-1.2c-0.6-0.8-0.8-2-0.8-3.7c0-3.3,1.3-4.9,3.9-4.9
		c1.3,0,2.2,0.4,2.8,1.1c0.6,0.7,0.9,1.8,0.9,3.3l-0.1,1.1h-6.2c0,1,0.2,1.8,0.6,2.3s1,0.8,2,0.8C34.8,327.4,35.8,327.3,36.7,327.2z
		 M36.2,323.2c0-1.2-0.2-2-0.6-2.4c-0.4-0.5-1-0.7-1.8-0.7c-0.8,0-1.5,0.3-1.9,0.8c-0.4,0.5-0.6,1.3-0.6,2.4H36.2z"/>
	<path d="M45.7,319h1.4v9.4h-1.4v-0.7c-0.9,0.6-1.9,0.8-2.8,0.8c-1.3,0-2.1-0.3-2.6-1c-0.4-0.7-0.6-1.9-0.6-3.7V319h1.4v4.9
		c0,1.4,0.1,2.3,0.4,2.7c0.2,0.5,0.8,0.7,1.6,0.7c0.4,0,0.8-0.1,1.3-0.2c0.4-0.1,0.8-0.2,1-0.3l0.3-0.2L45.7,319L45.7,319z"/>
	<path d="M54.7,320.2h-3v4.5c0,1.1,0.1,1.8,0.2,2.1c0.2,0.3,0.5,0.5,1.1,0.5l1.7-0.1l0.1,1.2c-0.8,0.1-1.5,0.2-1.9,0.2
		c-1,0-1.7-0.2-2-0.7c-0.4-0.5-0.6-1.4-0.6-2.7v-4.9H49V319h1.3v-2.9h1.4v2.9h3L54.7,320.2L54.7,320.2z"/>
	<path d="M59.4,320.1c-1.4,0-2.1,0.5-2.1,1.4c0,0.4,0.2,0.7,0.5,0.9c0.3,0.2,1,0.4,2.1,0.6c1.1,0.2,1.9,0.5,2.4,0.8
		c0.5,0.4,0.7,1,0.7,2s-0.3,1.7-0.9,2.1c-0.6,0.5-1.5,0.7-2.7,0.7c-0.8,0-1.7-0.1-2.7-0.3l-0.6-0.1l0.1-1.2c1.4,0.2,2.5,0.3,3.2,0.3
		c0.7,0,1.3-0.1,1.7-0.3c0.4-0.2,0.6-0.6,0.6-1.2c0-0.5-0.2-0.9-0.5-1.1c-0.3-0.2-1-0.4-2.1-0.6c-1.1-0.2-1.9-0.4-2.4-0.8
		s-0.7-1-0.7-1.9s0.3-1.6,1-2c0.6-0.4,1.5-0.7,2.4-0.7c0.8,0,1.7,0.1,2.9,0.3l0.5,0.1l0,1.2C61.3,320.2,60.2,320.1,59.4,320.1z"/>
	<path d="M68.7,318.8c0.4,0,1.1,0.1,2.1,0.2l0.5,0.1l-0.1,1.1c-1-0.1-1.7-0.2-2.2-0.2c-1.1,0-1.8,0.3-2.2,0.8
		c-0.4,0.5-0.6,1.4-0.6,2.8s0.2,2.3,0.5,2.9c0.4,0.5,1.1,0.8,2.2,0.8l2.2-0.2l0.1,1.2c-1.2,0.2-2,0.3-2.6,0.3c-1.5,0-2.5-0.4-3-1.1
		c-0.6-0.8-0.8-2-0.8-3.8s0.3-3,0.9-3.8C66.3,319.2,67.3,318.8,68.7,318.8z"/>
	<path d="M74.8,328.4h-1.4v-13.5h1.4v4.6c1-0.5,2-0.7,2.9-0.7c1.3,0,2.1,0.3,2.5,1c0.4,0.7,0.7,1.9,0.7,3.6v5h-1.4v-4.9
		c0-1.3-0.1-2.2-0.4-2.7c-0.3-0.5-0.8-0.7-1.6-0.7c-0.8,0-1.6,0.1-2.3,0.4l-0.4,0.1L74.8,328.4L74.8,328.4z"/>
	<path d="M89.9,327.2l0.5-0.1l0,1.1c-1.4,0.2-2.7,0.3-3.7,0.3c-1.4,0-2.3-0.4-2.9-1.2c-0.6-0.8-0.8-2-0.8-3.7c0-3.3,1.3-4.9,3.9-4.9
		c1.3,0,2.2,0.4,2.8,1.1c0.6,0.7,0.9,1.8,0.9,3.3l-0.1,1.1h-6.2c0,1,0.2,1.8,0.6,2.3c0.4,0.5,1,0.8,2,0.8
		C88,327.4,88.9,327.3,89.9,327.2z M89.4,323.2c0-1.2-0.2-2-0.6-2.4c-0.4-0.5-1-0.7-1.8-0.7s-1.5,0.3-1.9,0.8
		c-0.4,0.5-0.6,1.3-0.6,2.4H89.4z"/>
	<path d="M97.4,315.4h4.7c1.3,0,2.3,0.3,2.9,0.8c0.6,0.5,1,1.4,1,2.5c0,0.8-0.1,1.5-0.4,1.9c-0.3,0.5-0.7,0.8-1.3,1.1
		c1.4,0.5,2.1,1.5,2.1,3.1c0,1.3-0.3,2.2-1,2.8c-0.7,0.6-1.7,0.8-3,0.8h-5L97.4,315.4L97.4,315.4z M102,316.7h-3.2v4.5h3.3
		c0.8,0,1.4-0.2,1.8-0.6c0.4-0.4,0.6-1,0.6-1.7s-0.2-1.3-0.6-1.7C103.5,316.8,102.9,316.7,102,316.7z M102.2,322.4h-3.4v4.7h3.5
		c0.9,0,1.5-0.2,1.9-0.5c0.4-0.4,0.7-1,0.7-1.9c0-0.5-0.1-0.9-0.3-1.2c-0.2-0.3-0.4-0.6-0.7-0.7
		C103.4,322.6,102.8,322.4,102.2,322.4z"/>
	<path d="M115.4,321.8v4.8c0,0.5,0.4,0.7,1.1,0.8l-0.1,1.1c-1,0-1.7-0.3-2.2-0.8c-1.1,0.5-2.3,0.8-3.4,0.8c-0.9,0-1.5-0.2-2-0.7
		c-0.5-0.5-0.7-1.2-0.7-2.1c0-0.9,0.2-1.6,0.7-2c0.5-0.4,1.2-0.7,2.2-0.8l3-0.3v-0.8c0-0.6-0.1-1.1-0.4-1.4
		c-0.3-0.3-0.7-0.4-1.1-0.4c-1,0-2,0.1-3.1,0.2l-0.6,0.1l-0.1-1.1c1.4-0.3,2.6-0.4,3.7-0.4s1.8,0.2,2.3,0.7
		C115.1,320,115.4,320.8,115.4,321.8z M109.6,325.7c0,1.2,0.5,1.7,1.4,1.7c0.9,0,1.7-0.1,2.5-0.4l0.4-0.2v-3.1l-2.8,0.3
		c-0.6,0.1-1,0.2-1.2,0.5C109.7,324.8,109.6,325.2,109.6,325.7z"/>
	<path d="M119.6,328.4h-1.4V319h1.4v0.7c1-0.6,2-0.8,2.9-0.8c1.3,0,2.1,0.3,2.5,1c0.4,0.7,0.6,1.9,0.6,3.6v5h-1.4v-4.9
		c0-1.3-0.1-2.2-0.4-2.7c-0.3-0.5-0.8-0.7-1.6-0.7c-0.4,0-0.8,0.1-1.3,0.2c-0.4,0.1-0.8,0.2-1,0.3l-0.4,0.2V328.4z"/>
	<path d="M129.7,328.4h-1.4v-13.5h1.4v8l1.5-0.1l2.7-3.8h1.6l-3.1,4.3l3.2,5.1H134l-2.8-4.4l-1.5,0.1L129.7,328.4L129.7,328.4z"/>
</g>
<g>
	<path d="M256.6,323.9v-1.3h5.7v1.3H256.6z"/>
	<path d="M272.8,328.4h-7.9v-1.2l3.6-3.8c0.6-0.7,1.1-1.1,1.4-1.5c0.3-0.3,0.5-0.7,0.8-1.2c0.2-0.5,0.3-0.9,0.3-1.4
		c0-0.8-0.2-1.4-0.7-1.7c-0.4-0.3-1.1-0.5-2.1-0.5c-0.8,0-1.7,0.1-2.7,0.3l-0.5,0.1l-0.1-1.2c1.2-0.3,2.4-0.5,3.7-0.5
		c1.3,0,2.2,0.3,2.9,0.8s1,1.4,1,2.5c0,0.9-0.2,1.6-0.6,2.3c-0.4,0.7-1.1,1.4-2,2.4l-3.3,3.4h6.2L272.8,328.4L272.8,328.4z"/>
	<path d="M274.8,330.7l0.9-4.3h1.6l-1.3,4.3H274.8z"/>
	<path d="M279.7,316.3c1.2-0.4,2.4-0.5,3.8-0.5s2.3,0.3,2.9,0.8c0.6,0.5,0.9,1.3,0.9,2.5c0,0.6-0.1,1-0.2,1.3
		c-0.2,0.3-0.3,0.5-0.4,0.6c-0.1,0.1-0.2,0.3-0.4,0.4c-0.3,0.2-0.5,0.4-0.7,0.5l-0.2,0.1c0.7,0.3,1.3,0.6,1.6,1
		c0.4,0.4,0.5,1.1,0.5,2c0,1.3-0.3,2.2-1,2.8c-0.6,0.6-1.7,0.9-3.1,0.9c-1.1,0-2.3-0.1-3.5-0.4l-0.6-0.1l0.1-1.2
		c1.4,0.3,2.6,0.4,3.8,0.4c1.8,0,2.7-0.8,2.7-2.4c0-1.5-0.9-2.3-2.6-2.3h-2.5v-1.2h2.5c0.5,0,1-0.2,1.5-0.6c0.5-0.4,0.7-1,0.7-1.7
		s-0.2-1.2-0.6-1.5c-0.4-0.3-1-0.5-2-0.5c-1,0-2,0.1-3,0.3l-0.5,0.1L279.7,316.3z"/>
	<path d="M298.1,328.4h-7.9v-1.2l3.6-3.8c0.6-0.7,1.1-1.1,1.4-1.5c0.3-0.3,0.5-0.7,0.8-1.2c0.2-0.5,0.3-0.9,0.3-1.4
		c0-0.8-0.2-1.4-0.7-1.7c-0.4-0.3-1.1-0.5-2.1-0.5c-0.8,0-1.7,0.1-2.7,0.3l-0.5,0.1l-0.1-1.2c1.2-0.3,2.4-0.5,3.7-0.5
		s2.2,0.3,2.9,0.8c0.6,0.5,1,1.4,1,2.5c0,0.9-0.2,1.6-0.6,2.3c-0.4,0.7-1.1,1.4-2,2.4l-3.3,3.4h6.2L298.1,328.4L298.1,328.4z"/>
	<path d="M306.1,315.8c1.4,0,2.1,0.9,2.1,2.6c0,0.9-0.2,1.6-0.5,2c-0.4,0.4-0.9,0.7-1.5,0.7c-0.7,0-1.2-0.2-1.5-0.7
		c-0.4-0.4-0.5-1.1-0.5-2C304.1,316.7,304.8,315.8,306.1,315.8z M305.2,318.4c0,1.1,0.3,1.7,0.9,1.7c0.6,0,0.9-0.6,0.9-1.7
		c0-0.6-0.1-1-0.2-1.2c-0.1-0.3-0.4-0.4-0.7-0.4c-0.3,0-0.6,0.1-0.7,0.4C305.3,317.4,305.2,317.8,305.2,318.4z M306.5,328.5
		l3.9-12.9l0.9,0.3l-3.9,12.9L306.5,328.5z M309.4,325.9c0-1.7,0.7-2.6,2.1-2.6s2.1,0.9,2.1,2.6c0,0.9-0.2,1.5-0.5,2
		c-0.4,0.4-0.9,0.7-1.5,0.7c-0.7,0-1.2-0.2-1.5-0.7S309.4,326.8,309.4,325.9z M310.6,325.9c0,1.1,0.3,1.7,0.9,1.7
		c0.4,0,0.6-0.1,0.7-0.4c0.1-0.3,0.2-0.7,0.2-1.3c0-0.6-0.1-1-0.2-1.3c-0.1-0.3-0.4-0.4-0.7-0.4c-0.3,0-0.6,0.1-0.7,0.4
		C310.6,325,310.6,325.4,310.6,325.9z"/>
</g>
<g>
	<path d="M341.6,316v12.4h-1.4v-10.8l-3.2,2.1l-0.7-1.1l4-2.6L341.6,316L341.6,316z"/>
	<path d="M353.8,316v1.3h-6l-0.3,4c1-0.5,1.9-0.8,2.9-0.8c2.6,0,4,1.2,4,3.7c0,1.4-0.4,2.5-1.1,3.2c-0.7,0.7-1.8,1.1-3.1,1.1
		c-1.1,0-2.2-0.1-3.5-0.4L346,328l0.2-1.1c1.4,0.3,2.7,0.4,3.6,0.4c1,0,1.7-0.3,2.2-0.8c0.5-0.5,0.8-1.2,0.8-2.1
		c0-0.9-0.2-1.6-0.7-1.9s-1.1-0.6-1.9-0.6c-0.5,0-0.9,0.1-1.4,0.2c-0.5,0.1-0.9,0.3-1.1,0.4l-0.4,0.2l-1-0.2l0.3-6.5L353.8,316
		L353.8,316z"/>
	<path d="M356,330.7l0.9-4.3h1.6l-1.3,4.3H356z"/>
	<path d="M361,317.3V316h7.7v1.9l-4.8,10.7l-1.4-0.4l4.7-10.4v-0.5L361,317.3L361,317.3z"/>
	<path d="M379.2,317.3c-1.1-0.2-2.2-0.2-3.3-0.2s-1.9,0.4-2.5,1.1c-0.6,0.7-0.9,1.8-0.9,3.2l0.5-0.2c0.3-0.1,0.7-0.2,1.3-0.4
		s1-0.2,1.4-0.2c2.8,0,4.2,1.3,4.2,3.9c0,1.3-0.4,2.3-1.1,3s-1.8,1.1-3.2,1.1c-3,0-4.4-2.2-4.4-6.5c0-2.2,0.4-3.8,1.3-4.8
		c0.8-1,2-1.5,3.6-1.5c1,0,2,0.1,2.9,0.2l0.5,0.1L379.2,317.3z M375.5,321.9c-0.4,0-0.9,0.1-1.4,0.2c-0.5,0.1-0.9,0.2-1.2,0.3
		l-0.4,0.2c0,1.4,0.3,2.6,0.7,3.4c0.5,0.8,1.2,1.3,2.2,1.3c1,0,1.7-0.2,2.2-0.7c0.5-0.5,0.7-1.2,0.7-2.1s-0.2-1.5-0.7-2
		C377.1,322.2,376.4,321.9,375.5,321.9z"/>
</g>
<g>
	<path d="M25.8,263.1h1.5l-3.4,13h-3.2l-3.4-13h1.5l3,11.7h1.1L25.8,263.1z"/>
	<path d="M28.1,271.4c0-1.7,0.3-3,0.9-3.7c0.6-0.8,1.7-1.1,3.1-1.1c1.5,0,2.5,0.4,3.1,1.1c0.6,0.8,0.9,2,0.9,3.7
		c0,1.7-0.3,3-0.9,3.7c-0.6,0.8-1.6,1.2-3.2,1.2c-1.5,0-2.6-0.4-3.2-1.2C28.4,274.3,28.1,273.1,28.1,271.4z M29.6,271.3
		c0,1.4,0.2,2.3,0.5,2.9c0.3,0.6,1,0.8,2.1,0.8c1.1,0,1.8-0.3,2.1-0.8c0.3-0.5,0.5-1.5,0.5-2.9c0-1.4-0.2-2.3-0.5-2.9
		c-0.4-0.5-1-0.8-2-0.8c-1,0-1.7,0.3-2,0.8C29.8,269,29.6,270,29.6,271.3z"/>
	<path d="M38.6,276.1v-13.5H40v13.5H38.6z"/>
	<path d="M44.3,276.1h-1.4v-13.5h1.4v8l1.5-0.1l2.7-3.8H50l-3.1,4.3l3.2,5.1h-1.6l-2.8-4.4l-1.5,0.1L44.3,276.1L44.3,276.1z"/>
	<path d="M54.8,267.7c-1.4,0-2.1,0.5-2.1,1.4c0,0.4,0.2,0.7,0.5,0.9c0.3,0.2,1,0.4,2.1,0.6c1.1,0.2,1.9,0.5,2.4,0.8
		c0.5,0.4,0.7,1,0.7,2s-0.3,1.7-0.9,2.1c-0.6,0.5-1.5,0.7-2.7,0.7c-0.8,0-1.7-0.1-2.7-0.3l-0.6-0.1l0.1-1.2c1.4,0.2,2.5,0.3,3.2,0.3
		c0.7,0,1.3-0.1,1.7-0.3c0.4-0.2,0.6-0.6,0.6-1.2c0-0.5-0.2-0.9-0.5-1.1c-0.3-0.2-1-0.4-2.1-0.6c-1.1-0.2-1.9-0.4-2.4-0.8
		c-0.5-0.3-0.7-1-0.7-1.9c0-0.9,0.3-1.6,1-2c0.6-0.4,1.5-0.7,2.4-0.7c0.8,0,1.7,0.1,2.9,0.3l0.5,0.1l0,1.2
		C56.7,267.8,55.6,267.7,54.8,267.7z"/>
	<path d="M59.8,266.7h1.4l1.9,8.2h0.3l2.2-8h1.5l2.2,8h0.3l1.9-8.2h1.4l-2.2,9.4h-2.4l-2-7.4l-2,7.4H62L59.8,266.7z"/>
	<path d="M81.4,269.5v4.8c0,0.5,0.4,0.7,1.1,0.8l-0.1,1.1c-1,0-1.7-0.3-2.2-0.8c-1.1,0.5-2.3,0.8-3.4,0.8c-0.9,0-1.5-0.2-2-0.7
		c-0.5-0.5-0.7-1.2-0.7-2.1c0-0.9,0.2-1.6,0.7-2c0.5-0.4,1.2-0.7,2.2-0.8l3-0.3v-0.8c0-0.6-0.1-1.1-0.4-1.4
		c-0.3-0.3-0.7-0.4-1.1-0.4c-1,0-2,0.1-3.1,0.2l-0.6,0.1l-0.1-1.1c1.4-0.3,2.6-0.4,3.7-0.4c1.1,0,1.8,0.2,2.3,0.7
		C81.2,267.7,81.4,268.5,81.4,269.5z M75.6,273.4c0,1.2,0.5,1.7,1.4,1.7c0.9,0,1.7-0.1,2.5-0.4l0.4-0.2v-3.1l-2.8,0.3
		c-0.6,0.1-1,0.2-1.2,0.5C75.7,272.4,75.6,272.8,75.6,273.4z"/>
	<path d="M87.8,280.5c-1.5,0-2.6-0.2-3.2-0.6c-0.6-0.4-0.9-1.2-0.9-2.2c0-0.5,0.1-0.9,0.3-1.3s0.6-0.7,1.1-1.1
		c-0.4-0.2-0.5-0.7-0.5-1.3c0-0.2,0.2-0.6,0.5-1.2l0.2-0.3c-1-0.5-1.5-1.4-1.5-2.8c0-2.1,1.2-3.2,3.5-3.2c0.6,0,1.2,0.1,1.7,0.2
		l0.3,0.1l2.8-0.1v1.2l-1.8,0c0.4,0.4,0.6,1,0.6,1.9c0,1.2-0.3,2-0.9,2.5c-0.6,0.5-1.5,0.7-2.8,0.7c-0.3,0-0.6,0-0.9-0.1
		c-0.2,0.6-0.3,0.9-0.3,1.1c0,0.4,0.1,0.6,0.4,0.7c0.2,0.1,1,0.1,2.2,0.1c1.2,0,2.1,0.2,2.6,0.6c0.5,0.4,0.8,1.1,0.8,2.2
		C92,279.5,90.6,280.5,87.8,280.5z M85.2,277.6c0,0.7,0.2,1.1,0.6,1.4c0.4,0.3,1.1,0.4,2.1,0.4s1.7-0.1,2.1-0.4
		c0.4-0.3,0.7-0.7,0.7-1.4s-0.2-1.1-0.5-1.3s-0.9-0.3-1.8-0.3l-2-0.1c-0.4,0.3-0.7,0.6-0.8,0.8C85.2,276.9,85.2,277.2,85.2,277.6z
		 M85.3,269.7c0,0.7,0.2,1.3,0.5,1.6c0.3,0.3,0.9,0.5,1.6,0.5c0.8,0,1.3-0.2,1.6-0.5s0.5-0.8,0.5-1.6s-0.2-1.3-0.5-1.6
		c-0.3-0.3-0.9-0.5-1.6-0.5c-0.8,0-1.3,0.2-1.6,0.5C85.5,268.4,85.3,269,85.3,269.7z"/>
	<path d="M100.3,274.9l0.5-0.1l0,1.1c-1.4,0.2-2.7,0.3-3.7,0.3c-1.4,0-2.3-0.4-2.9-1.2c-0.6-0.8-0.8-2-0.8-3.7
		c0-3.3,1.3-4.9,3.9-4.9c1.3,0,2.2,0.4,2.8,1.1c0.6,0.7,0.9,1.8,0.9,3.3l-0.1,1.1h-6.2c0,1,0.2,1.8,0.6,2.3s1,0.8,2,0.8
		S99.3,275,100.3,274.9z M99.8,270.8c0-1.2-0.2-2-0.6-2.4c-0.4-0.5-1-0.7-1.8-0.7c-0.8,0-1.5,0.3-1.9,0.8c-0.4,0.5-0.6,1.3-0.6,2.4
		H99.8z"/>
	<path d="M104.8,276.1h-1.4v-9.4h1.4v0.7c1-0.6,2-0.8,2.9-0.8c1.3,0,2.1,0.3,2.5,1c0.4,0.7,0.6,1.9,0.6,3.6v5h-1.4v-4.9
		c0-1.3-0.1-2.2-0.4-2.7c-0.3-0.5-0.8-0.7-1.6-0.7c-0.4,0-0.8,0.1-1.3,0.2c-0.4,0.1-0.8,0.2-1,0.3l-0.4,0.2L104.8,276.1L104.8,276.1
		z"/>
	<path d="M125.2,263.1h1.5l-3.4,13h-3.2l-3.4-13h1.5l3,11.7h1.1L125.2,263.1z"/>
	<path d="M127.8,267.9v-1.3h7v1.3l-5.3,6.9h5.3v1.3h-7v-1.3l5.3-6.9L127.8,267.9L127.8,267.9z"/>
</g>
<g>
	<path d="M256.6,271.6v-1.3h5.7v1.3H256.6z"/>
	<path d="M270.9,263.7v12.4h-1.4v-10.8l-3.2,2.1l-0.7-1.1l4-2.6L270.9,263.7L270.9,263.7z"/>
	<path d="M274.8,278.4l0.9-4.3h1.6l-1.3,4.3H274.8z"/>
	<path d="M287.3,263.7v1.3h-6l-0.3,4c1-0.5,1.9-0.8,2.9-0.8c2.6,0,4,1.2,4,3.7c0,1.4-0.4,2.5-1.1,3.2c-0.7,0.7-1.7,1.1-3.1,1.1
		c-1.1,0-2.2-0.1-3.5-0.4l-0.6-0.1l0.2-1.1c1.4,0.3,2.7,0.4,3.6,0.4c1,0,1.7-0.3,2.2-0.8c0.5-0.5,0.8-1.2,0.8-2.1
		c0-0.9-0.2-1.6-0.7-1.9c-0.5-0.4-1.1-0.6-1.9-0.6c-0.5,0-0.9,0.1-1.4,0.2c-0.5,0.1-0.9,0.3-1.1,0.4l-0.4,0.2l-1-0.2l0.3-6.5
		L287.3,263.7L287.3,263.7z"/>
	<path d="M294.1,263.5c1,0,1.9,0.2,2.5,0.6c1.4,0.8,2,2.8,2,6c0,2.3-0.4,3.9-1.1,4.8c-0.8,0.9-1.9,1.4-3.4,1.4s-2.6-0.5-3.4-1.4
		c-0.8-0.9-1.1-2.6-1.1-4.9c0-2.4,0.4-4,1.1-5C291.5,264,292.6,263.5,294.1,263.5z M294.1,264.8c-0.7,0-1.3,0.2-1.7,0.5
		c-0.9,0.6-1.3,2.2-1.3,4.9c0,1.9,0.2,3.1,0.7,3.8s1.3,1.1,2.3,1.1s1.8-0.4,2.3-1.1s0.7-2,0.7-4s-0.2-3.3-0.7-4
		C296,265.1,295.2,264.8,294.1,264.8z"/>
	<path d="M306.1,263.5c1.4,0,2.1,0.9,2.1,2.6c0,0.9-0.2,1.6-0.5,2c-0.4,0.4-0.9,0.7-1.5,0.7c-0.7,0-1.2-0.2-1.5-0.7
		c-0.4-0.4-0.5-1.1-0.5-2C304.1,264.3,304.8,263.5,306.1,263.5z M305.2,266.1c0,1.1,0.3,1.7,0.9,1.7c0.6,0,0.9-0.6,0.9-1.7
		c0-0.6-0.1-1-0.2-1.2c-0.1-0.3-0.4-0.4-0.7-0.4c-0.3,0-0.6,0.1-0.7,0.4C305.3,265.1,305.2,265.5,305.2,266.1z M306.5,276.2
		l3.9-12.9l0.9,0.3l-3.9,12.9L306.5,276.2z M309.4,273.6c0-1.7,0.7-2.6,2.1-2.6s2.1,0.9,2.1,2.6c0,0.9-0.2,1.5-0.5,2
		c-0.4,0.4-0.9,0.7-1.5,0.7c-0.7,0-1.2-0.2-1.5-0.7C309.6,275.2,309.4,274.5,309.4,273.6z M310.6,273.6c0,1.1,0.3,1.7,0.9,1.7
		c0.4,0,0.6-0.1,0.7-0.4c0.1-0.3,0.2-0.7,0.2-1.3c0-0.6-0.1-1-0.2-1.3c-0.1-0.3-0.4-0.4-0.7-0.4c-0.3,0-0.6,0.1-0.7,0.4
		C310.6,272.6,310.6,273,310.6,273.6z"/>
</g>
<g>
	<path d="M331.3,263.7v12.4h-1.4v-10.8l-3.2,2.1l-0.7-1.1l4-2.6L331.3,263.7L331.3,263.7z"/>
	<path d="M335.9,264c1.2-0.4,2.4-0.5,3.8-0.5c1.3,0,2.3,0.3,2.9,0.8c0.6,0.5,0.9,1.3,0.9,2.5c0,0.6-0.1,1-0.2,1.3
		c-0.2,0.3-0.3,0.5-0.4,0.6c-0.1,0.1-0.2,0.3-0.4,0.4c-0.3,0.2-0.5,0.4-0.7,0.5l-0.2,0.1c0.7,0.3,1.3,0.6,1.6,1
		c0.4,0.4,0.5,1.1,0.5,2c0,1.3-0.3,2.2-1,2.8s-1.7,0.9-3.1,0.9c-1.1,0-2.3-0.1-3.5-0.4l-0.6-0.1l0.1-1.2c1.4,0.3,2.6,0.4,3.8,0.4
		c1.8,0,2.7-0.8,2.7-2.4c0-1.5-0.9-2.3-2.6-2.3h-2.5V269h2.5c0.5,0,1-0.2,1.5-0.6c0.5-0.4,0.7-1,0.7-1.7c0-0.7-0.2-1.2-0.6-1.5
		c-0.4-0.3-1-0.5-2-0.5c-1,0-2,0.1-3,0.3l-0.5,0.1L335.9,264z"/>
	<path d="M351.8,276.1v-2.4h-6v-1.1l3.5-8.9h1.6l-3.6,8.7h4.5v-3.9h1.4v3.9h1.6v1.3h-1.6v2.4H351.8z"/>
	<path d="M356.2,278.4l0.9-4.3h1.6l-1.3,4.3H356.2z"/>
	<path d="M368.8,263.7v1.3h-6l-0.3,4c1-0.5,1.9-0.8,2.9-0.8c2.6,0,4,1.2,4,3.7c0,1.4-0.4,2.5-1.1,3.2c-0.7,0.7-1.7,1.1-3.1,1.1
		c-1.1,0-2.2-0.1-3.5-0.4l-0.6-0.1l0.2-1.1c1.4,0.3,2.7,0.4,3.6,0.4c1,0,1.7-0.3,2.2-0.8c0.5-0.5,0.8-1.2,0.8-2.1
		c0-0.9-0.2-1.6-0.7-1.9c-0.5-0.4-1.1-0.6-1.9-0.6c-0.5,0-0.9,0.1-1.4,0.2s-0.9,0.3-1.1,0.4l-0.4,0.2l-1-0.2l0.3-6.5L368.8,263.7
		L368.8,263.7z"/>
	<path d="M379.3,263.7v1.3h-6l-0.3,4c1-0.5,1.9-0.8,2.9-0.8c2.6,0,4,1.2,4,3.7c0,1.4-0.4,2.5-1.1,3.2c-0.7,0.7-1.8,1.1-3.1,1.1
		c-1.1,0-2.2-0.1-3.5-0.4l-0.6-0.1l0.2-1.1c1.4,0.3,2.7,0.4,3.6,0.4c1,0,1.7-0.3,2.2-0.8c0.5-0.5,0.8-1.2,0.8-2.1
		c0-0.9-0.2-1.6-0.7-1.9c-0.5-0.4-1.1-0.6-1.9-0.6c-0.5,0-0.9,0.1-1.4,0.2c-0.5,0.1-0.9,0.3-1.1,0.4l-0.4,0.2l-1-0.2l0.3-6.5
		L379.3,263.7L379.3,263.7z"/>
</g>
<g>
	<path class="st1" d="M24.9,57.4v-2.5h5v8.9c-0.5,0.1-1.4,0.2-2.8,0.4c-1.4,0.1-2.4,0.2-3,0.2c-2.6,0-4.5-0.7-5.5-2.2
		c-1-1.5-1.5-3.7-1.5-6.9c0-3.1,0.5-5.4,1.5-6.8c1-1.4,2.8-2.1,5.3-2.1c1.5,0,3.2,0.2,5,0.5l0.9,0.2l-0.1,2.2
		c-2.1-0.3-3.9-0.4-5.5-0.4c-1.6,0-2.7,0.5-3.3,1.4c-0.6,0.9-0.9,2.6-0.9,5.1c0,2.5,0.3,4.2,0.9,5.1c0.6,0.9,1.7,1.4,3.4,1.4
		c1.2,0,2.2-0.1,2.8-0.2v-4.2C27,57.4,24.9,57.4,24.9,57.4z"/>
	<path class="st1" d="M42.1,61.8l0.7-0.1l0.1,2.1c-1.9,0.4-3.6,0.6-5.1,0.6c-1.9,0-3.2-0.5-4.1-1.6s-1.2-2.7-1.2-5
		c0-4.5,1.8-6.8,5.5-6.8c3.6,0,5.3,1.9,5.3,5.8l-0.2,2h-7.9c0,1.1,0.2,1.8,0.7,2.3c0.4,0.5,1.3,0.7,2.5,0.7
		C39.6,62,40.8,61.9,42.1,61.8z M40.6,56.8c0-1.3-0.2-2.1-0.6-2.6c-0.4-0.5-1.1-0.8-2-0.8c-0.9,0-1.6,0.3-2.1,0.8
		c-0.4,0.5-0.7,1.4-0.7,2.6L40.6,56.8L40.6,56.8z"/>
	<path class="st1" d="M45,51.4h2.7l2,10.4h0.5l2.4-10.1h2.8l2.4,10.1h0.5l2-10.4h2.7l-2.7,12.7H56l-2-8.7l-2,8.7h-4.4L45,51.4z"/>
	<path class="st1" d="M65.5,49.2v-2.9h2.8v2.9H65.5z M65.5,64.1V51.4h2.8v12.7H65.5z"/>
	<path class="st1" d="M74.4,64.1h-2.8V51.4h2.7v0.8c1.2-0.7,2.4-1.1,3.5-1.1c1.7,0,2.9,0.5,3.5,1.4c0.6,1,0.9,2.5,0.9,4.7v6.8h-2.7
		v-6.7c0-1.4-0.1-2.3-0.4-2.9c-0.3-0.6-0.9-0.9-1.8-0.9c-0.9,0-1.7,0.2-2.5,0.5l-0.4,0.2L74.4,64.1L74.4,64.1z"/>
	<path class="st1" d="M88.3,64.1h-2.8V51.4h2.7v0.8c1.2-0.7,2.4-1.1,3.5-1.1c1.7,0,2.9,0.5,3.5,1.4s0.9,2.5,0.9,4.7v6.8h-2.7v-6.7
		c0-1.4-0.1-2.3-0.4-2.9c-0.3-0.6-0.9-0.9-1.8-0.9c-0.9,0-1.7,0.2-2.5,0.5l-0.4,0.2L88.3,64.1L88.3,64.1z"/>
	<path class="st1" d="M108.5,61.8l0.7-0.1l0.1,2.1c-1.9,0.4-3.6,0.6-5.1,0.6c-1.9,0-3.2-0.5-4.1-1.6s-1.2-2.7-1.2-5
		c0-4.5,1.8-6.8,5.5-6.8c3.6,0,5.3,1.9,5.3,5.8l-0.2,2h-7.9c0,1.1,0.2,1.8,0.7,2.3c0.4,0.5,1.3,0.7,2.5,0.7
		C105.9,62,107.2,61.9,108.5,61.8z M106.9,56.8c0-1.3-0.2-2.1-0.6-2.6c-0.4-0.5-1.1-0.8-2-0.8c-0.9,0-1.6,0.3-2.1,0.8
		c-0.4,0.5-0.7,1.4-0.7,2.6L106.9,56.8L106.9,56.8z"/>
	<path class="st1" d="M112.3,64.1V51.4h2.7v1.5c1.4-0.9,2.9-1.5,4.3-1.8v2.8c-1.5,0.3-2.7,0.7-3.7,1.1l-0.6,0.2v8.9H112.3z"/>
	<path class="st1" d="M126.2,63.9l7.2-17.9l2.4,0.9l-7.3,17.9L126.2,63.9z"/>
	<path class="st1" d="M153.9,46.7h3l-4.3,17.4h-5.5l-4.3-17.4h2.9l3.5,14.9h1.3L153.9,46.7z"/>
	<path class="st1" d="M167.4,61.8l0.7-0.1l0.1,2.1c-1.9,0.4-3.6,0.6-5.1,0.6c-1.9,0-3.2-0.5-4.1-1.6s-1.2-2.7-1.2-5
		c0-4.5,1.8-6.8,5.5-6.8c3.6,0,5.3,1.9,5.3,5.8l-0.2,2h-7.9c0,1.1,0.2,1.8,0.7,2.3c0.4,0.5,1.3,0.7,2.5,0.7S166.1,61.9,167.4,61.8z
		 M165.8,56.8c0-1.3-0.2-2.1-0.6-2.6c-0.4-0.5-1.1-0.8-2-0.8s-1.6,0.3-2.1,0.8c-0.4,0.5-0.7,1.4-0.7,2.6L165.8,56.8L165.8,56.8z"/>
	<path class="st1" d="M171.2,64.1V51.4h2.7v1.5c1.4-0.9,2.9-1.5,4.3-1.8v2.8c-1.5,0.3-2.7,0.7-3.7,1.1l-0.6,0.2v8.9H171.2z"/>
	<path class="st1" d="M180.6,64.1v-18h2.8v18H180.6z"/>
	<path class="st1" d="M186.8,49.2v-2.9h2.8v2.9H186.8z M186.8,64.1V51.4h2.8v12.7H186.8z"/>
	<path class="st1" d="M202,61.8l0.7-0.1l0.1,2.1c-1.9,0.4-3.6,0.6-5.1,0.6c-1.9,0-3.2-0.5-4.1-1.6s-1.2-2.7-1.2-5
		c0-4.5,1.8-6.8,5.5-6.8c3.6,0,5.3,1.9,5.3,5.8l-0.2,2h-7.9c0,1.1,0.2,1.8,0.7,2.3c0.4,0.5,1.3,0.7,2.5,0.7
		C199.5,62,200.8,61.9,202,61.8z M200.5,56.8c0-1.3-0.2-2.1-0.6-2.6c-0.4-0.5-1.1-0.8-2-0.8c-0.9,0-1.6,0.3-2.1,0.8
		s-0.7,1.4-0.7,2.6L200.5,56.8L200.5,56.8z"/>
	<path class="st1" d="M205.9,64.1V51.4h2.7v1.5c1.4-0.9,2.9-1.5,4.3-1.8v2.8c-1.5,0.3-2.7,0.7-3.7,1.1l-0.6,0.2v8.9H205.9z"/>
	<path class="st1" d="M224,61.8l0.7-0.1l0.1,2.1c-1.9,0.4-3.6,0.6-5.1,0.6c-1.9,0-3.2-0.5-4.1-1.6s-1.2-2.7-1.2-5
		c0-4.5,1.8-6.8,5.5-6.8c3.6,0,5.3,1.9,5.3,5.8l-0.2,2h-7.9c0,1.1,0.2,1.8,0.7,2.3c0.4,0.5,1.3,0.7,2.5,0.7S222.8,61.9,224,61.8z
		 M222.5,56.8c0-1.3-0.2-2.1-0.6-2.6c-0.4-0.5-1.1-0.8-2-0.8c-1,0-1.6,0.3-2.1,0.8c-0.4,0.5-0.7,1.4-0.7,2.6L222.5,56.8L222.5,56.8z
		"/>
	<path class="st1" d="M227.9,64.1V51.4h2.7v1.5c1.4-0.9,2.9-1.5,4.3-1.8v2.8c-1.5,0.3-2.7,0.7-3.7,1.1l-0.6,0.2v8.9H227.9z"/>
	<path class="st1" d="M249,64.1h-6V46.7h6c2.7,0,4.5,0.7,5.5,2c1,1.4,1.5,3.5,1.5,6.4c0,1.5-0.1,2.7-0.3,3.8c-0.2,1-0.5,2-1,2.8
		C253.7,63.3,251.8,64.1,249,64.1z M253.1,55.1c0-2.1-0.3-3.6-0.8-4.6c-0.5-0.9-1.6-1.4-3.3-1.4h-3.2v12.5h3.2
		c1.7,0,2.8-0.6,3.4-1.9c0.3-0.6,0.5-1.3,0.5-2C253,57,253.1,56.1,253.1,55.1z"/>
	<path class="st1" d="M257.5,64.1l4.3-17.4h5.6l4.3,17.4h-2.8l-0.9-3.7h-6.7l-0.9,3.7H257.5z M264,49l-2.2,8.8h5.6l-2.1-8.8H264z"/>
	<path class="st1" d="M275.7,46.7l3.7,6.9l3.8-6.9h3l-5.2,8.9l5.2,8.6h-3.2l-3.7-6.6l-3.8,6.6h-3l5.2-8.4l-5.2-9L275.7,46.7
		L275.7,46.7z"/>
</g>
<polygon class="st1" points="242.6,171.9 244.7,161 233.8,163.6 237.7,167.2 231.3,173.9 232.3,174.9 238.7,168.2 "/>
<polygon class="st1" points="242.6,223.4 244.7,212.5 233.8,215.1 237.7,218.7 231.3,225.4 232.3,226.4 238.7,219.7 "/>
<polygon class="st1" points="242.6,266 244.7,277 233.8,274.4 237.7,270.7 231.3,264 232.3,263.1 238.7,269.8 "/>
<polygon class="st1" points="242.6,317.5 244.7,328.5 233.8,325.9 237.7,322.2 231.3,315.5 232.3,314.5 238.7,321.2 "/>
</svg>
