<?xml version="1.0" encoding="utf-8"?>
<!-- Generator: Adobe Illustrator 21.1.0, SVG Export Plug-In . SVG Version: 6.00 Build 0)  -->
<svg version="1.1" xmlns="http://www.w3.org/2000/svg" xmlns:xlink="http://www.w3.org/1999/xlink" x="0px" y="0px"
	 viewBox="0 0 400 400" style="enable-background:new 0 0 400 400;" xml:space="preserve">
<style type="text/css">
	.st0{fill:#01B7FA;}
	.st1{fill:#FFFFFF;}
	.st2{fill:#01B7FA;stroke:#FFFFFF;stroke-width:3;stroke-miterlimit:10;}
	.st3{fill:#FFFFFF;stroke:#01B7FA;stroke-width:2;stroke-miterlimit:10;}
	.st4{fill:none;stroke:#000000;stroke-miterlimit:10;}
	.st5{fill:#606060;stroke:#000000;stroke-width:0.5;stroke-miterlimit:10;}
	.st6{fill:#BFBFBF;stroke:#000000;stroke-width:0.5;stroke-miterlimit:10;}
	.st7{fill:#202020;stroke:#000000;stroke-width:0.5;stroke-miterlimit:10;}
	.st8{fill:#9F9F9F;stroke:#000000;stroke-width:0.5;stroke-miterlimit:10;}
	.st9{fill:#404040;stroke:#000000;stroke-width:0.5;stroke-miterlimit:10;}
	.st10{fill:#808080;stroke:#000000;stroke-width:0.5;stroke-miterlimit:10;}
	.st11{fill:#DFDFDF;stroke:#000000;stroke-width:0.5;stroke-miterlimit:10;}
	.st12{stroke:#000000;stroke-width:0.5;stroke-miterlimit:10;}
	.st13{fill:none;stroke:#FFFFFF;stroke-width:5;stroke-miterlimit:10;}
	.st14{fill:#FFFFFF;stroke:#01B7FA;stroke-width:6;stroke-miterlimit:10;}
	.st15{fill:none;stroke:#FFFFFF;stroke-width:4.1;stroke-miterlimit:10;}
	.st16{fill:#01B7FA;stroke:#FFFFFF;stroke-width:8;stroke-miterlimit:10;}
</style>
<g id="Ebene_2">
</g>
<g id="Ebene_1">
	<rect x="0.3" y="-0.2" class="st0" width="400.3" height="400.3"/>
	<g>
		<g>
			<path class="st1" d="M324.9,274.4H75.7V134.6h249.2V274.4z M82.7,267.4h235.2V141.6H82.7V267.4z"/>
		</g>
		<g>
			<path class="st1" d="M243.1,190c0,7.9-1.3,13.8-4,17.8c-2.6,4-6.5,6-11.6,6c-4.8,0-8.6-2.1-11.3-6.2c-2.7-4.1-4-10-4-17.7
				c0-7.8,1.3-13.7,3.9-17.7c2.6-4,6.4-6,11.4-6c5,0,8.8,2.1,11.5,6.2C241.7,176.7,243.1,182.5,243.1,190z M219.4,190
				c0,5.9,0.6,10.3,1.9,13.2c1.3,2.9,3.3,4.4,6.2,4.4c5.7,0,8.5-5.9,8.5-17.6c0-11.7-2.8-17.5-8.5-17.5c-2.9,0-4.9,1.4-6.2,4.3
				C220,179.8,219.4,184.2,219.4,190z M275.3,167.5l-42,75.7h-7.6l42-75.7H275.3z M288.7,220.4c0,7.8-1.3,13.8-4,17.8
				c-2.6,4-6.5,6-11.6,6c-4.9,0-8.7-2.1-11.3-6.2c-2.6-4.1-4-10-4-17.7c0-7.8,1.3-13.7,3.9-17.7c2.6-4,6.4-6,11.4-6
				c4.9,0,8.7,2,11.5,6.1C287.3,206.9,288.7,212.7,288.7,220.4z M264.9,220.4c0,5.9,0.6,10.3,1.9,13.2c1.3,2.9,3.4,4.4,6.3,4.4
				c2.9,0,5-1.4,6.4-4.3c1.4-2.9,2.1-7.3,2.1-13.3c0-5.9-0.7-10.3-2.1-13.1c-1.4-2.8-3.5-4.3-6.4-4.3c-2.9,0-5,1.4-6.3,4.3
				C265.5,210.1,264.9,214.5,264.9,220.4z"/>
		</g>
		<g>
			<rect x="80.4" y="208.7" class="st1" width="83.6" height="7"/>
		</g>
		<g>
			<rect x="80.4" y="222.6" class="st1" width="83.6" height="7"/>
		</g>
		<g>
			<rect x="80.4" y="236.5" class="st1" width="83.6" height="7"/>
		</g>
		<circle class="st1" cx="321.4" cy="136.9" r="11.1"/>
		<circle class="st1" cx="321.4" cy="270.9" r="11.1"/>
		<circle class="st1" cx="79.2" cy="136.9" r="11.1"/>
		<circle class="st1" cx="79.2" cy="270.9" r="11.1"/>
		<g>
			<path class="st1" d="M358.6,308.2H42.3V100.9h316.3V308.2z M49.3,301.2h302.3V107.9H49.3V301.2z"/>
		</g>
	</g>
</g>
</svg>
