<?xml version="1.0" encoding="utf-8"?>
<!-- Generator: Adobe Illustrator 21.1.0, SVG Export Plug-In . SVG Version: 6.00 Build 0)  -->
<svg version="1.1" xmlns="http://www.w3.org/2000/svg" xmlns:xlink="http://www.w3.org/1999/xlink" x="0px" y="0px"
	 viewBox="0 0 400 400" style="enable-background:new 0 0 400 400;" xml:space="preserve">
<style type="text/css">
	.st0{fill:#01B7FA;}
	.st1{fill:#FFFFFF;}
	.st2{fill:#01B7FA;stroke:#FFFFFF;stroke-width:3;stroke-miterlimit:10;}
	.st3{fill:#FFFFFF;stroke:#01B7FA;stroke-width:2;stroke-miterlimit:10;}
	.st4{fill:none;stroke:#000000;stroke-miterlimit:10;}
	.st5{fill:#606060;stroke:#000000;stroke-width:0.5;stroke-miterlimit:10;}
	.st6{fill:#BFBFBF;stroke:#000000;stroke-width:0.5;stroke-miterlimit:10;}
	.st7{fill:#202020;stroke:#000000;stroke-width:0.5;stroke-miterlimit:10;}
	.st8{fill:#9F9F9F;stroke:#000000;stroke-width:0.5;stroke-miterlimit:10;}
	.st9{fill:#404040;stroke:#000000;stroke-width:0.5;stroke-miterlimit:10;}
	.st10{fill:#808080;stroke:#000000;stroke-width:0.5;stroke-miterlimit:10;}
	.st11{fill:#DFDFDF;stroke:#000000;stroke-width:0.5;stroke-miterlimit:10;}
	.st12{stroke:#000000;stroke-width:0.5;stroke-miterlimit:10;}
	.st13{fill:none;stroke:#FFFFFF;stroke-width:5;stroke-miterlimit:10;}
	.st14{fill:#FFFFFF;stroke:#01B7FA;stroke-width:6;stroke-miterlimit:10;}
	.st15{fill:none;stroke:#FFFFFF;stroke-width:4.1;stroke-miterlimit:10;}
	.st16{fill:#01B7FA;stroke:#FFFFFF;stroke-width:8;stroke-miterlimit:10;}
</style>
<g id="Ebene_2">
</g>
<g id="Ebene_1">
	<rect x="-0.2" y="-0.1" class="st0" width="400.3" height="400.3"/>
	<g>
		<rect x="153.6" y="282.7" class="st1" width="91.8" height="7.1"/>
	</g>
	<g>
		<rect x="130.4" y="301.5" class="st1" width="138.2" height="7.1"/>
	</g>
	<g>
		<path class="st1" d="M298,143.7H101v-24.5L199.8,72l98.2,47.2V143.7z M108.1,136.5h182.7v-12.9l-91.1-43.8l-91.6,43.8V136.5z"/>
	</g>
	<g>
		<path class="st1" d="M283.5,259.3h-35.1V160h35.1V259.3z M255.4,252.3h21.1V167h-21.1V252.3z"/>
	</g>
	<g>
		<path class="st1" d="M217.3,259.3h-35.1V160h35.1V259.3z M189.2,252.3h21.1V167h-21.1V252.3z"/>
	</g>
	<g>
		<path class="st1" d="M151.5,259.3h-35.1V160h35.1V259.3z M123.4,252.3h21.1V167h-21.1V252.3z"/>
	</g>
</g>
</svg>
