<?xml version="1.0" encoding="utf-8"?>
<!-- Generator: Adobe Illustrator 21.1.0, SVG Export Plug-In . SVG Version: 6.00 Build 0)  -->
<svg version="1.1" xmlns="http://www.w3.org/2000/svg" xmlns:xlink="http://www.w3.org/1999/xlink" x="0px" y="0px"
	 viewBox="0 0 400 400" style="enable-background:new 0 0 400 400;" xml:space="preserve">
<style type="text/css">
	.st0{fill:#01B7FA;}
	.st1{fill:#FFFFFF;}
	.st2{fill:#01B7FA;stroke:#FFFFFF;stroke-width:3;stroke-miterlimit:10;}
	.st3{fill:#FFFFFF;stroke:#01B7FA;stroke-width:2;stroke-miterlimit:10;}
	.st4{fill:none;stroke:#000000;stroke-miterlimit:10;}
	.st5{fill:#606060;stroke:#000000;stroke-width:0.5;stroke-miterlimit:10;}
	.st6{fill:#BFBFBF;stroke:#000000;stroke-width:0.5;stroke-miterlimit:10;}
	.st7{fill:#202020;stroke:#000000;stroke-width:0.5;stroke-miterlimit:10;}
	.st8{fill:#9F9F9F;stroke:#000000;stroke-width:0.5;stroke-miterlimit:10;}
	.st9{fill:#404040;stroke:#000000;stroke-width:0.5;stroke-miterlimit:10;}
	.st10{fill:#808080;stroke:#000000;stroke-width:0.5;stroke-miterlimit:10;}
	.st11{fill:#DFDFDF;stroke:#000000;stroke-width:0.5;stroke-miterlimit:10;}
	.st12{stroke:#000000;stroke-width:0.5;stroke-miterlimit:10;}
	.st13{fill:none;stroke:#FFFFFF;stroke-width:5;stroke-miterlimit:10;}
	.st14{fill:#FFFFFF;stroke:#01B7FA;stroke-width:6;stroke-miterlimit:10;}
	.st15{fill:none;stroke:#FFFFFF;stroke-width:4.1;stroke-miterlimit:10;}
	.st16{fill:#01B7FA;stroke:#FFFFFF;stroke-width:8;stroke-miterlimit:10;}
</style>
<g id="Ebene_2">
	<rect x="-0.2" y="-0.2" class="st0" width="400.3" height="400.3"/>
</g>
<g id="Ebene_1">
	<polygon class="st1" points="371.8,149.3 350,220.7 331.4,179.3 320.3,206.1 311.3,152.5 277.6,159.3 275.2,114.7 259.4,130.3 
		230.3,47.5 173.9,282.6 164.8,230.6 123.9,239.9 105.2,167.1 82.3,209.1 72.2,192.8 50.1,290.2 33.2,255.6 0,352 0,376.5 
		34.5,276.4 52.9,314.2 75.7,213.6 82.7,225 102.5,188.7 118.1,249.4 158.4,240.3 172.7,321.9 231.8,75.8 256.1,144.9 268.2,132.9 
		270.1,168.9 304.8,161.9 317.1,234.9 331.7,199.5 351.5,243.3 376.8,160.5 400,171.7 400,162.9 	"/>
</g>
</svg>
