<?xml version="1.0" encoding="utf-8"?>
<!-- Generator: Adobe Illustrator 21.1.0, SVG Export Plug-In . SVG Version: 6.00 Build 0)  -->
<svg version="1.1" xmlns="http://www.w3.org/2000/svg" xmlns:xlink="http://www.w3.org/1999/xlink" x="0px" y="0px"
	 viewBox="0 0 400 400" style="enable-background:new 0 0 400 400;" xml:space="preserve">
<style type="text/css">
	.st0{fill:#01B7FA;}
	.st1{fill:#FFFFFF;}
	.st2{fill:#01B7FA;stroke:#FFFFFF;stroke-width:3;stroke-miterlimit:10;}
	.st3{fill:#FFFFFF;stroke:#01B7FA;stroke-width:2;stroke-miterlimit:10;}
	.st4{fill:none;stroke:#000000;stroke-miterlimit:10;}
	.st5{fill:#606060;stroke:#000000;stroke-width:0.5;stroke-miterlimit:10;}
	.st6{fill:#BFBFBF;stroke:#000000;stroke-width:0.5;stroke-miterlimit:10;}
	.st7{fill:#202020;stroke:#000000;stroke-width:0.5;stroke-miterlimit:10;}
	.st8{fill:#9F9F9F;stroke:#000000;stroke-width:0.5;stroke-miterlimit:10;}
	.st9{fill:#404040;stroke:#000000;stroke-width:0.5;stroke-miterlimit:10;}
	.st10{fill:#808080;stroke:#000000;stroke-width:0.5;stroke-miterlimit:10;}
	.st11{fill:#DFDFDF;stroke:#000000;stroke-width:0.5;stroke-miterlimit:10;}
	.st12{stroke:#000000;stroke-width:0.5;stroke-miterlimit:10;}
	.st13{fill:none;stroke:#FFFFFF;stroke-width:5;stroke-miterlimit:10;}
	.st14{fill:#FFFFFF;stroke:#01B7FA;stroke-width:6;stroke-miterlimit:10;}
	.st15{fill:none;stroke:#FFFFFF;stroke-width:4.1;stroke-miterlimit:10;}
	.st16{fill:#01B7FA;stroke:#FFFFFF;stroke-width:8;stroke-miterlimit:10;}
</style>
<g id="Ebene_2">
	<rect x="0.3" y="-0.2" class="st0" width="400.3" height="400.3"/>
</g>
<g id="Ebene_1">
	<g>
		<path class="st1" d="M260,238.3H135.5v-69.9H260V238.3z M139,234.8h117.6v-62.9H139V234.8z"/>
	</g>
	<g>
		<rect x="137.8" y="205.4" class="st1" width="41.8" height="3.5"/>
	</g>
	<g>
		<rect x="137.8" y="212.4" class="st1" width="41.8" height="3.5"/>
	</g>
	<g>
		<rect x="137.8" y="219.3" class="st1" width="41.8" height="3.5"/>
	</g>
	<circle class="st1" cx="258.3" cy="169.5" r="5.5"/>
	<path class="st1" d="M263.8,236.5c0,1.2-11.1,2.2-11.1,0c0-3.1,2.5-5.5,5.5-5.5C261.4,231,263.8,233.5,263.8,236.5z"/>
	<circle class="st1" cx="137.2" cy="169.5" r="5.5"/>
	<circle class="st1" cx="137.2" cy="236.5" r="5.5"/>
	<g>
		<path class="st1" d="M360.1,338.4H202V234.8h158.1V338.4z M205.5,334.9h151.1v-96.6H205.5V334.9z"/>
	</g>
	<g>
		<path class="st1" d="M343.3,321.5H218.7v-69.9h124.5V321.5z M222.2,318h117.6v-62.9H222.2V318z"/>
	</g>
	<g>
		<rect x="221.1" y="288.7" class="st1" width="41.8" height="3.5"/>
	</g>
	<g>
		<rect x="221.1" y="295.6" class="st1" width="41.8" height="3.5"/>
	</g>
	<g>
		<rect x="221.1" y="302.5" class="st1" width="41.8" height="3.5"/>
	</g>
	<circle class="st1" cx="341.5" cy="252.8" r="5.5"/>
	<circle class="st1" cx="341.5" cy="319.8" r="5.5"/>
	<circle class="st1" cx="220.5" cy="252.8" r="5.5"/>
	<circle class="st1" cx="220.5" cy="319.8" r="5.5"/>
	<rect x="288.3" y="290.5" class="st15" width="31.6" height="13.8"/>
	<g>
		<polygon class="st1" points="122.3,155.1 273.4,155.1 273.4,238.3 276.9,238.3 276.9,151.6 118.8,151.6 118.8,255.1 204.3,255.1 
			204.3,251.6 122.3,251.6 		"/>
		<polygon class="st1" points="266.8,251.7 266.8,251.6 219.7,251.6 219.7,255.1 276.9,255.1 276.9,251.7 		"/>
	</g>
	<rect x="205" y="207.2" class="st15" width="31.6" height="13.8"/>
	<g>
		<path class="st1" d="M176.9,155.1H52.3V85.2h124.5V155.1z M55.8,151.6h117.6V88.7H55.8V151.6z"/>
	</g>
	<g>
		<rect x="54.7" y="122.3" class="st1" width="41.8" height="3.5"/>
	</g>
	<g>
		<rect x="54.7" y="129.2" class="st1" width="41.8" height="3.5"/>
	</g>
	<g>
		<rect x="54.7" y="136.1" class="st1" width="41.8" height="3.5"/>
	</g>
	<circle class="st1" cx="175.1" cy="86.4" r="5.5"/>
	<path class="st1" d="M180.7,153.4c0,1.2-11.1,2.2-11.1,0c0-3.1,2.5-5.5,5.5-5.5C178.2,147.8,180.7,150.3,180.7,153.4z"/>
	<circle class="st1" cx="54.1" cy="86.4" r="5.5"/>
	<circle class="st1" cx="54.1" cy="153.4" r="5.5"/>
	<g>
		<polygon class="st1" points="39.1,71.9 190.2,71.9 190.2,155.2 193.7,155.2 193.7,68.4 35.6,68.4 35.6,172 121.1,172 121.1,168.5 
			39.1,168.5 		"/>
		<polygon class="st1" points="183.6,168.5 183.6,168.5 136.6,168.5 136.6,172 193.7,172 193.7,168.5 		"/>
	</g>
	<rect x="121.8" y="124.1" class="st15" width="31.6" height="13.8"/>
</g>
</svg>
