<?xml version="1.0" encoding="utf-8"?>
<!-- Generator: Adobe Illustrator 21.1.0, SVG Export Plug-In . SVG Version: 6.00 Build 0)  -->
<svg version="1.1" xmlns="http://www.w3.org/2000/svg" xmlns:xlink="http://www.w3.org/1999/xlink" x="0px" y="0px"
	 viewBox="0 0 400 400" enable-background="new 0 0 400 400" xml:space="preserve">
<g id="Ebene_2">
</g>
<g id="Ebene_1">
	<rect x="0.299" y="-0.157" fill="#95E4F9" width="400.314" height="400.314"/>
	<g>
		<g>
			<path fill="#FFFFFF" d="M324.899,274.431H75.666V134.571h249.233V274.431z M82.666,267.431h235.233V141.571H82.666V267.431z"/>
		</g>
		<g>
			<path fill="#FFFFFF" d="M243.078,190.048c0,7.869-1.319,13.816-3.958,17.837c-2.637,4.023-6.508,6.033-11.612,6.033
				c-4.828,0-8.578-2.054-11.251-6.163c-2.673-4.107-4.008-10.011-4.008-17.708c0-7.837,1.284-13.739,3.852-17.711
				c2.569-3.968,6.371-5.954,11.406-5.954c5,0,8.846,2.055,11.535,6.163C241.733,176.654,243.078,182.487,243.078,190.048z
				 M219.387,190.048c0,5.868,0.638,10.27,1.914,13.203c1.275,2.935,3.344,4.402,6.207,4.402c5.655,0,8.483-5.868,8.483-17.605
				c0-11.669-2.828-17.503-8.483-17.503c-2.863,0-4.932,1.45-6.207,4.349C220.024,179.794,219.387,184.178,219.387,190.048z
				 M275.304,167.47l-41.951,75.705h-7.604L267.7,167.47H275.304z M288.65,220.391c0,7.837-1.319,13.766-3.958,17.788
				c-2.637,4.021-6.51,6.031-11.612,6.031c-4.897,0-8.665-2.054-11.303-6.161c-2.637-4.109-3.958-9.994-3.958-17.659
				c0-7.835,1.285-13.739,3.854-17.71c2.569-3.968,6.371-5.954,11.406-5.954c4.897,0,8.715,2.029,11.457,6.084
				C287.28,206.869,288.65,212.728,288.65,220.391z M264.907,220.391c0,5.904,0.638,10.315,1.914,13.231
				c1.275,2.918,3.362,4.375,6.259,4.375c2.897,0,5.034-1.44,6.414-4.325c1.379-2.881,2.068-7.309,2.068-13.282
				c0-5.902-0.689-10.277-2.068-13.126c-1.381-2.849-3.518-4.272-6.414-4.272c-2.897,0-4.984,1.423-6.259,4.272
				C265.545,210.113,264.907,214.489,264.907,220.391z"/>
		</g>
		<g>
			<rect x="80.359" y="208.712" fill="#FFFFFF" width="83.62" height="7"/>
		</g>
		<g>
			<rect x="80.359" y="222.581" fill="#FFFFFF" width="83.62" height="7"/>
		</g>
		<g>
			<rect x="80.359" y="236.45" fill="#FFFFFF" width="83.62" height="7"/>
		</g>
		<circle fill="#FFFFFF" cx="321.399" cy="136.878" r="11.104"/>
		<circle fill="#FFFFFF" cx="321.399" cy="270.931" r="11.104"/>
		<circle fill="#FFFFFF" cx="79.166" cy="136.878" r="11.104"/>
		<circle fill="#FFFFFF" cx="79.166" cy="270.931" r="11.104"/>
		<g>
			<path fill="#FFFFFF" d="M358.598,308.156H42.313V100.917h316.285V308.156z M49.313,301.156h302.285V107.917H49.313V301.156z"/>
		</g>
	</g>
</g>
</svg>
