<?xml version="1.0" encoding="utf-8"?>
<!-- Generator: Adobe Illustrator 21.1.0, SVG Export Plug-In . SVG Version: 6.00 Build 0)  -->
<svg version="1.1" xmlns="http://www.w3.org/2000/svg" xmlns:xlink="http://www.w3.org/1999/xlink" x="0px" y="0px"
	 viewBox="0 0 400 400" enable-background="new 0 0 400 400" xml:space="preserve">
<g id="Ebene_2">
</g>
<g id="Ebene_1">
	<rect x="-0.21" y="0.187" fill="#95E4F9" width="400.314" height="400.314"/>
	<g>
		<g>
			<path fill="#FFFFFF" d="M206.91,188.815h-83.539v24.847h83.539V188.815z M200.484,207.236h-70.687v-11.995h70.687V207.236z"/>
			<path fill="#FFFFFF" d="M207.16,213.912h-84.039v-25.347h84.039V213.912z M123.621,213.412h83.039v-24.347h-83.039V213.412z
				 M200.733,207.486h-71.187v-12.495h71.187V207.486z M130.047,206.986h70.187v-11.495h-70.187V206.986z"/>
		</g>
		<path fill="#FFFFFF" d="M118.088,87.222h-0.104l-72.962,72.64h-0.163v153.296h240.213l0.113,0.102l72.979-73.108l0.073-0.073
			V92.068l0.014-4.902L118.088,87.222z M55.139,159.862l60.818-60.817v60.817H55.139z M351.312,98.994V237.21l-65.892,65.892
			v-138.22L351.312,98.994z M122.883,159.862V94.146l223.529-0.051l-65.767,65.766H122.883z M51.786,306.231V166.788h226.707
			v139.443H51.786z"/>
	</g>
</g>
</svg>
