<?xml version="1.0" encoding="utf-8"?>
<!-- Generator: Adobe Illustrator 21.1.0, SVG Export Plug-In . SVG Version: 6.00 Build 0)  -->
<svg version="1.1" xmlns="http://www.w3.org/2000/svg" xmlns:xlink="http://www.w3.org/1999/xlink" x="0px" y="0px"
	 viewBox="0 0 400 400" enable-background="new 0 0 400 400" xml:space="preserve">
<g id="Ebene_2">
	<rect x="-0.157" y="-0.157" fill="#95E4F9" width="400.314" height="400.314"/>
</g>
<g id="Ebene_1">
	<polygon fill="#FFFFFF" points="371.805,149.288 350.038,220.686 331.36,179.337 320.323,206.085 311.269,152.451 277.559,159.258 
		275.192,114.665 259.449,130.316 230.331,47.522 173.94,282.583 164.794,230.638 123.877,239.916 105.222,167.082 82.274,209.101 
		72.198,192.823 50.111,290.245 33.246,255.568 0,352.046 0,376.511 34.471,276.379 52.877,314.226 75.681,213.647 82.706,224.999 
		102.511,188.737 118.059,249.439 158.372,240.298 172.739,321.888 231.782,75.763 256.105,144.922 268.151,132.946 
		270.061,168.934 304.755,161.927 317.077,234.921 331.692,199.505 351.493,243.344 376.754,160.486 400,171.734 400,162.903 	"/>
</g>
</svg>
