<?xml version="1.0" encoding="utf-8"?>
<!-- Generator: Adobe Illustrator 21.1.0, SVG Export Plug-In . SVG Version: 6.00 Build 0)  -->
<svg version="1.1" xmlns="http://www.w3.org/2000/svg" xmlns:xlink="http://www.w3.org/1999/xlink" x="0px" y="0px"
	 viewBox="0 0 400 400" enable-background="new 0 0 400 400" xml:space="preserve">
<g id="Ebene_2">
</g>
<g id="Ebene_1">
	<rect x="-0.168" y="-0.146" fill="#95E4F9" width="400.314" height="400.314"/>
	<g>
		<rect x="153.593" y="282.737" fill="#FFFFFF" width="91.814" height="7.131"/>
	</g>
	<g>
		<rect x="130.416" y="301.456" fill="#FFFFFF" width="138.167" height="7.131"/>
	</g>
	<g>
		<path fill="#FFFFFF" d="M298,143.678H101v-24.534l98.789-47.166L298,119.149V143.678z M108.131,136.547h182.738v-12.911
			L199.78,79.885l-91.649,43.757V136.547z"/>
	</g>
	<g>
		<path fill="#FFFFFF" d="M283.452,259.274h-35.085v-99.266h35.085V259.274z M255.367,252.274h21.085v-85.266h-21.085V252.274z"/>
	</g>
	<g>
		<path fill="#FFFFFF" d="M217.287,259.274h-35.085v-99.266h35.085V259.274z M189.202,252.274h21.085v-85.266h-21.085V252.274z"/>
	</g>
	<g>
		<path fill="#FFFFFF" d="M151.524,259.274h-35.085v-99.266h35.085V259.274z M123.439,252.274h21.085v-85.266h-21.085V252.274z"/>
	</g>
</g>
</svg>
