<?xml version="1.0" encoding="utf-8"?>
<!-- Generator: Adobe Illustrator 21.1.0, SVG Export Plug-In . SVG Version: 6.00 Build 0)  -->
<svg version="1.1" xmlns="http://www.w3.org/2000/svg" xmlns:xlink="http://www.w3.org/1999/xlink" x="0px" y="0px"
	 viewBox="0 0 400 400" enable-background="new 0 0 400 400" xml:space="preserve">
<g id="Ebene_2">
	<rect x="0.343" y="-0.157" fill="#95E4F9" width="400.314" height="400.314"/>
</g>
<g id="Ebene_1">
	<g>
		<path fill="#FFFFFF" d="M260.036,238.289H135.487v-69.892h124.549V238.289z M138.985,234.791h117.553v-62.896H138.985V234.791z"/>
	</g>
	<g>
		<rect x="137.832" y="205.447" fill="#FFFFFF" width="41.788" height="3.498"/>
	</g>
	<g>
		<rect x="137.832" y="212.378" fill="#FFFFFF" width="41.788" height="3.498"/>
	</g>
	<g>
		<rect x="137.832" y="219.308" fill="#FFFFFF" width="41.788" height="3.498"/>
	</g>
	<circle fill="#FFFFFF" cx="258.287" cy="169.55" r="5.549"/>
	<path fill="#FFFFFF" d="M263.836,236.54c0,1.234-11.098,2.206-11.098,0c0-3.065,2.484-5.549,5.549-5.549
		C261.351,230.991,263.836,233.475,263.836,236.54z"/>
	<circle fill="#FFFFFF" cx="137.236" cy="169.55" r="5.549"/>
	<circle fill="#FFFFFF" cx="137.236" cy="236.54" r="5.549"/>
	<g>
		<path fill="#FFFFFF" d="M360.104,338.381H202.047V234.818h158.057V338.381z M205.545,334.883h151.06v-96.567h-151.06V334.883z"/>
	</g>
	<g>
		<path fill="#FFFFFF" d="M343.275,321.528H218.726v-69.892h124.549V321.528z M222.224,318.03h117.553v-62.896H222.224V318.03z"/>
	</g>
	<g>
		<rect x="221.071" y="288.686" fill="#FFFFFF" width="41.788" height="3.498"/>
	</g>
	<g>
		<rect x="221.071" y="295.617" fill="#FFFFFF" width="41.788" height="3.498"/>
	</g>
	<g>
		<rect x="221.071" y="302.548" fill="#FFFFFF" width="41.788" height="3.498"/>
	</g>
	<circle fill="#FFFFFF" cx="341.526" cy="252.789" r="5.549"/>
	<circle fill="#FFFFFF" cx="341.526" cy="319.779" r="5.549"/>
	<circle fill="#FFFFFF" cx="220.475" cy="252.789" r="5.549"/>
	<circle fill="#FFFFFF" cx="220.475" cy="319.779" r="5.549"/>
	
		<rect x="288.254" y="290.469" fill="none" stroke="#FFFFFF" stroke-width="4.1" stroke-miterlimit="10" width="31.649" height="13.828"/>
	<g>
		<polygon fill="#FFFFFF" points="122.306,155.077 273.366,155.077 273.366,238.329 276.865,238.329 276.865,151.579 
			118.808,151.579 118.808,255.142 204.256,255.142 204.256,251.644 122.306,251.644 		"/>
		<polygon fill="#FFFFFF" points="266.757,251.663 266.757,251.644 219.735,251.644 219.735,255.142 276.865,255.142 
			276.865,251.663 		"/>
	</g>
	
		<rect x="205.015" y="207.235" fill="none" stroke="#FFFFFF" stroke-width="4.1" stroke-miterlimit="10" width="31.649" height="13.828"/>
	<g>
		<path fill="#FFFFFF" d="M176.869,155.122H52.32V85.23h124.549V155.122z M55.818,151.624h117.553V88.728H55.818V151.624z"/>
	</g>
	<g>
		<rect x="54.666" y="122.28" fill="#FFFFFF" width="41.788" height="3.498"/>
	</g>
	<g>
		<rect x="54.666" y="129.211" fill="#FFFFFF" width="41.788" height="3.498"/>
	</g>
	<g>
		<rect x="54.666" y="136.142" fill="#FFFFFF" width="41.788" height="3.498"/>
	</g>
	<circle fill="#FFFFFF" cx="175.12" cy="86.383" r="5.549"/>
	<path fill="#FFFFFF" d="M180.669,153.373c0,1.234-11.098,2.206-11.098,0c0-3.065,2.484-5.549,5.549-5.549
		C178.185,147.824,180.669,150.309,180.669,153.373z"/>
	<circle fill="#FFFFFF" cx="54.069" cy="86.383" r="5.549"/>
	<circle fill="#FFFFFF" cx="54.069" cy="153.373" r="5.549"/>
	<g>
		<polygon fill="#FFFFFF" points="39.139,71.911 190.2,71.911 190.2,155.162 193.698,155.162 193.698,68.413 35.641,68.413 
			35.641,171.976 121.09,171.976 121.09,168.477 39.139,168.477 		"/>
		<polygon fill="#FFFFFF" points="183.59,168.497 183.59,168.477 136.569,168.477 136.569,171.976 193.698,171.976 193.698,168.497 
					"/>
	</g>
	
		<rect x="121.848" y="124.069" fill="none" stroke="#FFFFFF" stroke-width="4.1" stroke-miterlimit="10" width="31.649" height="13.828"/>
</g>
</svg>
