<?xml version="1.0" encoding="utf-8"?>
<!-- Generator: Adobe Illustrator 21.1.0, SVG Export Plug-In . SVG Version: 6.00 Build 0)  -->
<svg version="1.1" xmlns="http://www.w3.org/2000/svg" xmlns:xlink="http://www.w3.org/1999/xlink" x="0px" y="0px"
	 viewBox="0 0 400 400" enable-background="new 0 0 400 400" xml:space="preserve">
<g id="Ebene_2">
	<rect x="0.311" y="-0.157" fill="#95E4F9" width="400.314" height="400.314"/>
</g>
<g id="Ebene_1">
	<g>
		<g>
			<path fill="#FFFFFF" d="M358.61,308.156H42.325V100.917H358.61V308.156z M49.325,301.156H351.61V107.917H49.325V301.156z"/>
		</g>
		<g>
			<path fill="#FFFFFF" d="M324.934,274.431H75.701V134.571h249.233V274.431z M82.701,267.431h235.233V141.571H82.701V267.431z"/>
		</g>
		<g>
			<rect x="80.394" y="208.712" fill="#FFFFFF" width="83.62" height="7"/>
		</g>
		<g>
			<rect x="80.394" y="222.581" fill="#FFFFFF" width="83.62" height="7"/>
		</g>
		<g>
			<rect x="80.394" y="236.45" fill="#FFFFFF" width="83.62" height="7"/>
		</g>
		<circle fill="#FFFFFF" cx="321.435" cy="136.878" r="11.104"/>
		<circle fill="#FFFFFF" cx="321.435" cy="270.931" r="11.104"/>
		<circle fill="#FFFFFF" cx="79.201" cy="136.878" r="11.104"/>
		<circle fill="#FFFFFF" cx="79.201" cy="270.931" r="11.104"/>
		<g>
			<path fill="#FFFFFF" d="M260.013,170.917c-14.645,0-23.779,7.499-27.406,22.501h35.119v7.202h-36.083l-0.137,3.183v3.574
				l0.137,2.512h31.884v7.204h-30.782c1.698,6.7,4.878,11.883,9.537,15.549c4.66,3.668,10.892,5.501,18.696,5.501
				c7.163,0,14.256-1.229,21.279-3.687v8.375c-6.704,2.421-13.979,3.63-21.83,3.63c-10.879,0-19.636-2.502-26.27-7.51
				c-6.634-5.006-11.007-12.291-13.118-21.858h-11.43v-7.204h10.466l-0.137-2.344v-2.457l0.137-4.467h-10.466v-7.202h11.293
				c1.79-9.715,6.036-17.29,12.738-22.726c6.702-5.433,15.494-8.15,26.374-8.15c9.229,0,17.63,1.806,25.204,5.416l-4.89,7.761
				C272.707,172.517,265.937,170.917,260.013,170.917z"/>
		</g>
	</g>
</g>
</svg>
